<?xml version="1.0" encoding="UTF-8" standalone="no"?>
<svg
   xmlns:dc="http://purl.org/dc/elements/1.1/"
   xmlns:cc="http://creativecommons.org/ns#"
   xmlns:rdf="http://www.w3.org/1999/02/22-rdf-syntax-ns#"
   xmlns:svg="http://www.w3.org/2000/svg"
   xmlns="http://www.w3.org/2000/svg"
   xmlns:sodipodi="http://sodipodi.sourceforge.net/DTD/sodipodi-0.dtd"
   xmlns:inkscape="http://www.inkscape.org/namespaces/inkscape"
   viewBox="0 0 400 405.33334"
   height="405.33334"
   width="400"
   id="svg2"
   version="1.1"
   sodipodi:docname="headphones.svg"
   inkscape:version="0.92.1 r15371">
  <sodipodi:namedview
     pagecolor="#ffffff"
     bordercolor="#666666"
     borderopacity="1"
     objecttolerance="10"
     gridtolerance="10"
     guidetolerance="10"
     inkscape:pageopacity="0"
     inkscape:pageshadow="2"
     inkscape:window-width="640"
     inkscape:window-height="480"
     id="namedview6"
     showgrid="false"
     inkscape:zoom="0.58223683"
     inkscape:cx="200"
     inkscape:cy="202.66667"
     inkscape:window-x="0"
     inkscape:window-y="0"
     inkscape:window-maximized="0"
     inkscape:current-layer="svg2" />
  <metadata
     id="metadata8">
    <rdf:RDF>
      <cc:Work
         rdf:about="">
        <dc:format>image/svg+xml</dc:format>
        <dc:type
           rdf:resource="http://purl.org/dc/dcmitype/StillImage" />
        <dc:title />
      </cc:Work>
    </rdf:RDF>
  </metadata>
  <defs
     id="defs6" />
  <path
     id="path4493"
     d="m 177.2563,395.16452 c -0.55623,-0.87058 -2.67245,-2.43559 -4.7027,-3.47778 -2.03024,-1.0422 -5.3042,-4.11671 -7.27546,-6.83225 -11.92988,-16.4342 -5.34378,-37.83601 13.85973,-45.03782 5.77632,-2.16627 9.8445,-2.50775 29.8764,-2.50775 24.45224,0 30.29823,0.99374 37.03918,6.29619 1.78744,1.406 4.37641,2.55636 5.75327,2.55636 5.02933,0 23.02629,-11.97193 33.30849,-22.15745 14.23919,-14.10532 14.39432,-14.49994 8.31149,-21.14409 -2.71275,-2.96308 -6.28655,-7.94834 -7.94177,-11.07834 l -3.00951,-5.69092 v -48.05662 c 0,-48.03531 9.5e-4,-48.05916 2.98179,-53.74755 5.49625,-10.48993 12.44858,-16.29962 24.20815,-20.22952 l 5.69091,-1.90183 0.40227,-6.95556 c 0.49197,-8.50672 -2.89678,-26.85232 -7.00809,-37.93945 C 301.76584,98.424501 289.9565,81.594502 275.5255,69.909909 267.1882,63.159304 250.33581,52.76308 247.73031,52.76308 c -0.78264,0 -3.13959,-0.887697 -5.23768,-1.972661 -5.62815,-2.91043 -28.16306,-6.879873 -39.05772,-6.879873 -10.89467,0 -33.42958,3.969443 -39.05772,6.879873 -2.09809,1.084964 -4.45504,1.972661 -5.23769,1.972661 -2.53899,0 -19.3583,10.330693 -27.58394,16.942514 -14.38391,11.561878 -26.43677,28.700827 -33.442455,47.554546 -3.863782,10.39826 -7.508378,30.55109 -6.993815,38.67245 0.389411,6.1461 0.464189,6.24593 6.085165,8.12439 12.440965,4.1576 20.504055,11.34317 25.091715,22.36093 2.62481,6.30375 2.73051,8.31165 2.72955,51.85058 l -9.5e-4,45.29288 -3.59545,7.58789 c -3.31797,7.00228 -10.55911,15.08466 -16.23707,18.12342 -1.29427,0.69266 -5.465875,1.82513 -9.270234,2.51661 -10.191265,1.85232 -20.339479,-0.25665 -26.958461,-5.60242 -5.806045,-4.68916 -12.093645,-7.97903 -21.712698,-11.36075 -11.940141,-4.19773 -24.830448,-20.18078 -28.593784,-35.45423 -0.835076,-3.38914 -2.283557,-7.2846 -3.218859,-8.65659 -2.328382,-3.4155 -2.326589,-22.62404 0.0019,-24.95297 0.936583,-0.93657 2.126402,-3.96494 2.644038,-6.72973 3.276261,-17.49877 18.029868,-34.43923 34.666268,-39.8047 l 5.881847,-1.89697 0.772864,-19.60204 C 60.507421,129.77168 65.079817,110.7246 75.596688,90.280221 90.073926,62.137064 111.47019,41.230447 140.93908,26.43318 c 7.47634,-3.754098 22.3897,-8.790066 28.93916,-9.772214 3.10886,-0.46621 6.3096,-1.639421 7.11272,-2.607133 2.13669,-2.574542 50.75035,-2.574542 52.88704,0 0.80312,0.967712 4.04417,2.146975 7.20233,2.620563 5.5199,0.827763 17.77495,4.948603 27.05726,9.098173 19.1133,8.544428 40.16916,25.37284 53.15598,42.483668 19.97743,26.321354 28.785,52.410113 30.19687,89.445723 l 0.74626,19.57514 3.79395,1.11157 c 17.15335,5.02576 33.02531,22.33927 36.70926,40.04334 0.50658,2.43444 1.70196,5.5488 2.65641,6.9208 2.39846,3.44764 2.35685,21.98071 -0.057,25.42707 -0.98586,1.40751 -2.20214,4.80641 -2.70283,7.55312 -2.55056,13.99164 -17.06596,32.2625 -29.01788,36.52543 -3.47778,1.24044 -7.99076,2.87438 -10.02883,3.63098 -3.86545,1.43497 -17.16118,13.07046 -17.16118,15.0182 0,0.61559 -2.6877,5.2268 -5.97267,10.24714 -7.90349,12.07875 -27.73559,31.9059 -39.54827,39.53839 -10.85279,7.01227 -22.59608,13.1804 -25.13836,13.20386 -0.95478,0.009 -5.31911,3.57285 -9.69851,7.92007 -13.67861,13.57815 -9.2749,12.33032 -43.51487,12.33032 -22.87026,0 -30.53642,-0.38769 -31.30005,-1.58287 z"
     style="fill:#000000;stroke-width:1.2646482" />
</svg>
