<?xml version="1.0" encoding="UTF-8" standalone="no"?>
<svg
   xmlns:dc="http://purl.org/dc/elements/1.1/"
   xmlns:cc="http://creativecommons.org/ns#"
   xmlns:rdf="http://www.w3.org/1999/02/22-rdf-syntax-ns#"
   xmlns:svg="http://www.w3.org/2000/svg"
   xmlns="http://www.w3.org/2000/svg"
   xmlns:sodipodi="http://sodipodi.sourceforge.net/DTD/sodipodi-0.dtd"
   xmlns:inkscape="http://www.inkscape.org/namespaces/inkscape"
   viewBox="0 0 266.66666 301.33334"
   height="301.33334"
   width="266.66666"
   id="svg2"
   version="1.1"
   sodipodi:docname="money-bag.svg"
   inkscape:version="0.92.1 r15371">
  <sodipodi:namedview
     pagecolor="#ffffff"
     bordercolor="#666666"
     borderopacity="1"
     objecttolerance="10"
     gridtolerance="10"
     guidetolerance="10"
     inkscape:pageopacity="0"
     inkscape:pageshadow="2"
     inkscape:window-width="640"
     inkscape:window-height="480"
     id="namedview6"
     showgrid="false"
     inkscape:zoom="0.78318581"
     inkscape:cx="133.33333"
     inkscape:cy="147.72165"
     inkscape:window-x="0"
     inkscape:window-y="0"
     inkscape:window-maximized="0"
     inkscape:current-layer="svg2" />
  <metadata
     id="metadata8">
    <rdf:RDF>
      <cc:Work
         rdf:about="">
        <dc:format>image/svg+xml</dc:format>
        <dc:type
           rdf:resource="http://purl.org/dc/dcmitype/StillImage" />
        <dc:title />
      </cc:Work>
    </rdf:RDF>
  </metadata>
  <defs
     id="defs6" />
  <path
     id="path4487"
     d="m 64.155161,286.21986 c 0,-0.58664 -3.25826,-1.43525 -7.24058,-1.88579 -8.22016,-0.93002 -20.43524,-5.38252 -27.38645,-9.98262 -5.2383,-3.46653 -14.36565,-16.62054 -14.36565,-20.70325 0,-1.45093 -0.80922,-3.70794 -1.79827,-5.01557 -2.05163,-2.7125 -2.69934,-25.03665 -0.72641,-25.03665 0.63237,0 1.50374,-2.61805 1.93637,-5.81789 1.23864,-9.16119 10.8532,-37.74366 16.99515,-50.52371 13.54842,-28.19128 30.63668,-51.15772 48.63461,-65.36436 l 5.63782,-4.450209 h 49.062759 49.06276 l 5.92787,4.688579 c 6.99815,5.5351 20.86794,20.26543 27.49936,29.20549 4.77862,6.44226 18.23506,28.09447 18.23506,29.34132 0,0.37597 2.13267,4.91308 4.73927,10.08248 2.6066,5.16939 5.15803,11.31862 5.66984,13.66495 0.51183,2.34633 2.17768,7.09339 3.70191,10.54903 1.52423,3.45566 3.155,8.55396 3.62394,11.32957 0.46893,2.77561 1.35534,5.04657 1.96978,5.04657 1.55111,0 1.44527,43.8014 -0.11036,45.67614 -0.67516,0.81363 -3.05491,4.23517 -5.28836,7.60341 -6.83436,10.30685 -20.30376,17.6619 -36.07399,19.69843 -3.55178,0.45867 -6.75353,1.31245 -7.11498,1.89731 -0.86211,1.39488 -142.591449,1.39166 -142.591449,-0.004 z m 63.935579,-61.09287 0.36732,-7.04269 12.24817,-0.61241 c 12.08487,-0.60424 12.24818,-0.65323 12.24818,-3.67445 0,-3.02123 -0.16331,-3.07022 -12.24818,-3.67445 -11.55391,-0.5777 -12.27035,-0.76862 -12.63956,-3.36825 -0.36554,-2.57385 0.0574,-2.75584 6.40551,-2.75584 7.17857,0 15.24148,-2.55334 20.29269,-6.42625 5.65132,-4.33302 7.35895,-8.29845 7.36759,-17.10886 0.007,-7.4589 -0.34595,-8.62811 -3.79325,-12.55437 -2.09075,-2.38122 -4.571,-4.32949 -5.51168,-4.32949 -0.94069,0 -1.71035,-0.55116 -1.71035,-1.22481 0,-0.75822 -6.53235,-1.22482 -17.14744,-1.22482 H 116.8223 v 17.00459 c 0,15.97451 -0.14838,17.04339 -2.44963,17.64518 -3.73352,0.97634 -3.30484,6.7295 0.6124,8.21883 1.68413,0.6403 3.06205,1.71629 3.06205,2.39108 0,0.6748 -1.37792,2.12974 -3.06205,3.23323 -3.68652,2.4155 -3.97024,6.05162 -0.6124,7.84868 1.99086,1.06548 2.44963,2.56455 2.44963,8.0044 v 6.69341 h 5.45055 5.45056 z m -0.44922,-30.90005 c -0.22455,-0.65903 -0.23388,-6.72187 -0.0208,-13.47299 l 0.38759,-12.27475 h 7.78599 c 6.58939,0 8.36514,0.48733 11.55441,3.17092 3.27848,2.75865 3.76843,3.96346 3.76843,9.26666 0,7.35892 -1.37683,10.21628 -6.09957,12.6585 -3.9698,2.05286 -16.73553,2.53162 -17.37609,0.65166 z M 85.757181,85.796793 c -4.67693,-4.676934 -2.81949,-11.67292 3.76371,-14.175848 1.95819,-0.7445 20.338109,-1.078261 47.576659,-0.863942 41.65502,0.327751 44.54429,0.492785 46.96254,2.682499 3.04578,2.757928 3.33297,7.677839 0.67011,11.479604 l -1.90668,2.722165 h -47.61093 c -40.770919,0 -47.875909,-0.26499 -49.455409,-1.844478 z m -7.02254,-30.919382 c -11.6529,-12.107737 -18.25393,-22.873323 -18.25393,-29.770246 0,-4.586128 3.34438,-10.685088 6.38909,-11.651444 1.20155,-0.381355 2.18463,-1.207399 2.18463,-1.835652 0,-0.628254 3.85817,-1.14228 8.57372,-1.14228 4.71555,0 8.57372,0.489828 8.57372,1.088506 0,0.598679 1.90806,1.44646 4.24013,1.883959 4.12039,0.772991 10.037429,3.173699 26.285389,10.664709 12.54508,5.78383 18.04392,6.541126 26.59044,3.662013 3.97067,-1.337624 11.34586,-4.345318 16.3893,-6.683767 5.04345,-2.338447 12.20132,-5.270179 15.90639,-6.514958 3.70508,-1.24478 6.92022,-2.676612 7.14477,-3.181849 0.22456,-0.505237 3.96725,-0.918613 8.31712,-0.918613 6.19763,0 8.6877,0.575838 11.50859,2.661421 6.35243,4.696559 7.44407,14.284936 2.69307,23.654701 -2.24344,4.424455 -10.1222,13.988081 -16.80297,20.396278 l -4.89926,4.699383 -49.03103,0.01528 -49.031029,0.01527 z"
     style="fill:#000000;stroke-width:1.22481716" />
</svg>
