<?xml version="1.0" standalone="no"?>
<!DOCTYPE svg PUBLIC "-//W3C//DTD SVG 1.1//EN" "http://www.w3.org/Graphics/SVG/1.1/DTD/svg11.dtd" >
<svg>
<metadata>
Created by FontForge 20090914 at Wed Sep  6 12:40:38 2017
 By www-data
&#194;&#169;1991,1993 Tilde Ltd. AG Fonts collection.
</metadata>
<defs>
<font id="AGOpus-BoldOblique" horiz-adv-x="556" >
  <font-face 
    font-family="AGOpus"
    font-weight="700"
    font-style="oblique"
    font-stretch="normal"
    units-per-em="1000"
    panose-1="0 0 0 0 0 0 0 0 0 0"
    ascent="800"
    descent="-200"
    x-height="480"
    cap-height="681"
    bbox="-94 -264 1170 931"
    underline-thickness="38"
    underline-position="-122"
    unicode-range="U+0020-U+2122"
  />
<missing-glyph horiz-adv-x="800" 
d="M50 0v800h700v-800h-700zM700 50v700h-600v-700h600z" />
    <glyph glyph-name=".notdef" horiz-adv-x="800" 
d="M50 0v800h700v-800h-700zM700 50v700h-600v-700h600z" />
    <glyph glyph-name="space" unicode=" " horiz-adv-x="278" 
 />
    <glyph glyph-name="exclam" unicode="!" horiz-adv-x="333" 
d="M329 614c-3.33301 -14 -15.002 -46.334 -35.002 -97.001l-23 -57l-45 -114l-25 -62c-9.33301 -23.333 -17.333 -44.333 -24 -63h-28c0 37.333 1.16699 89 3.5 155s3.5 108.333 3.5 127c0 28.667 0.5 50.167 1.5 64.5s3.83301 32.333 8.5 54s16.834 40 36.501 55
s40.834 22.5 63.501 22.5c43.333 0 65 -21 65 -63c0 -9.33301 -0.666992 -16.666 -2 -21.999zM213.998 67.999c-4.66699 -22.667 -16.666 -42 -35.999 -58s-40.333 -24 -63 -24c-20 0 -36.167 6.5 -48.5 19.5s-18.5 28.833 -18.5 47.5c0 3.33301 0.666992 8.33301 2 15
c4.66699 22 17 41.167 37 57.5s41 24.5 63 24.5c19.333 0 35.166 -6.16699 47.499 -18.5s18.5 -27.833 18.5 -46.5c0 -3.33301 -0.666992 -9 -2 -17z" />
    <glyph glyph-name="quotedbl" unicode="&#x22;" horiz-adv-x="333" 
d="M333 450c-2 -18.667 -7.16797 -33.333 -15.501 -44s-20.166 -16 -35.499 -16c-22 0 -33 8.33301 -33 25c0 3.33301 0.666992 8 2 14s3 13 5 21l36 169c7.33301 53.333 26 80 56 80c19.333 0 29 -11.333 29 -34c0 -10.667 -2.66699 -26 -8 -46zM169.999 450.001
c-2 -18.667 -7.16797 -33.333 -15.501 -44s-20.166 -16 -35.499 -16c-21.333 0 -32 9.66699 -32 29c0 8.66699 2 19 6 31l36 169c4 28 10 48.333 18 61s20.667 19 38 19c19.333 0 29 -11.333 29 -34c0 -10.667 -2.66699 -26 -8 -46z" />
    <glyph glyph-name="numbersign" unicode="#" 
d="M557 392h-104l-38 -105h94l-16 -74h-105l-77 -213h-75l77 213h-108l-77 -213h-75l77 213h-103l16 74h115l38 105h-103l16 74h114l72 198h75l-72 -198h107l71 198h75l-71 -198h93zM378 392h-107l-38 -105h107z" />
    <glyph glyph-name="dollar" unicode="$" 
d="M511 200c-12.667 -60 -45 -110.665 -97 -151.998s-107.667 -62 -167 -62l-23 -108c-10 2 -20.333 3 -31 3h-14c-6 -1.33301 -10.333 -2 -13 -2l23 107c-36.667 0 -70.667 5.5 -102 16.5s-59 27.5 -83 49.5l50 118h19c0 -34.667 12.167 -64.167 36.5 -88.5
s54.5 -39.5 90.5 -45.5l50 237c-55.333 11.333 -95.666 26.333 -120.999 45c-32 23.333 -48 57.333 -48 102c0 15.333 2 32.666 6 51.999c10 46.667 31 85.667 63 117s72.333 54.333 121 69c20 6 41 10 63 12l17 80c5.33301 -1.33301 10.166 -2 14.499 -2h14.5h11
c4 0 10 0.666992 18 2l-17 -80c34.667 0 65.667 -4.16699 93 -12.5s51.333 -22.166 72 -41.499c-12 -17.333 -22.5 -33.5 -31.5 -48.5s-17.833 -32.167 -26.5 -51.5h-14c-3.33301 28.667 -14.166 52.167 -32.499 70.5s-41.833 29.5 -70.5 33.5l-46 -216
c56 -12.667 98 -29.334 126 -50.001c36 -26.667 54 -63 54 -109v-16c-2.66699 -12.667 -4.33398 -22.334 -5.00098 -29.001zM281 421.002l43 198.999c-27.333 -3.33301 -50.833 -13.833 -70.5 -31.5s-32.167 -40.5 -37.5 -68.5c-2 -9.33301 -3 -17.666 -3 -24.999
c0 -18.667 6 -34 18 -46s28.667 -21.333 50 -28zM381 147.001c1.33301 4 1.99902 8.00098 1.99902 12.001v9c0 26 -9.66699 47.667 -29 65c-15.333 14 -31.666 22 -48.999 24l-47 -221c19.333 0 41.666 9.66699 66.999 29c30.667 23.333 49.334 50.666 56.001 81.999z" />
    <glyph glyph-name="percent" unicode="%" horiz-adv-x="1000" 
d="M884 162c-11.333 -53.333 -37.001 -95.998 -77.001 -127.998s-85.667 -48 -137 -48c-41.333 0 -73.666 10.667 -96.999 32s-35 50.666 -35 87.999c0 12 1.66699 26.333 5 43c10 47.333 35.167 86.833 75.5 118.5s84.5 47.5 132.5 47.5c40 0 72.833 -10.333 98.5 -31
s38.5 -50 38.5 -88v-20c-2 -6.66699 -3.33301 -11.334 -4 -14.001zM790.999 694.002l-502 -724c-10.667 1.33301 -18.667 2 -24 2h-14c-6.66699 -1.33301 -11.667 -2 -15 -2l501 724c10.667 -1.33301 18.667 -2 24 -2h15c6.66699 1.33301 11.667 2 15 2zM498.999 517.002
c-11.333 -52.667 -37.168 -95.167 -77.501 -127.5s-86.166 -48.5 -137.499 -48.5c-41.333 0 -73.666 10.667 -96.999 32s-35 50.666 -35 87.999c0 12 1.66699 26.333 5 43c10 47.333 35.167 86.833 75.5 118.5s84.5 47.5 132.5 47.5c39.333 0 72.166 -10.667 98.499 -32
s39.5 -50.666 39.5 -87.999v-15c-2 -8 -3.33301 -14 -4 -18zM783.997 162.002c4.66699 20 7.00098 39.334 7.00098 58.001c0 19.333 -3 34 -9 44c-8 12.667 -21 19 -39 19c-34.667 0 -61.667 -23.667 -81 -71c-8 -20 -14.667 -41.667 -20 -65
c-2.66699 -12.667 -4.83398 -24.5 -6.50098 -35.5s-2.5 -21.833 -2.5 -32.5c0 -19.333 3.5 -34.333 10.5 -45s19.833 -16 38.5 -16c30 0 54.333 17.667 73 53c11.333 21.333 21 51.666 29 90.999zM398.998 517.003l4.50098 29.499c1.66699 11 2.5 20.5 2.5 28.5
c0 19.333 -3 34 -9 44c-8 12.667 -21 19 -39 19c-30 0 -54 -16.333 -72 -49c-12 -21.333 -21.667 -50.333 -29 -87c-2.66699 -10.667 -4.33398 -18.667 -5.00098 -24c-3.33301 -16 -5 -30.667 -5 -44c0 -18.667 3.66699 -33.5 11 -44.5s20 -16.5 38 -16.5
c23.333 0 43.333 10.833 60 32.5s31 58.834 43 111.501z" />
    <glyph glyph-name="ampersand" unicode="&#x26;" horiz-adv-x="722" 
d="M717 333l-85.001 -88.9971c-25.333 -25.333 -55.666 -53.333 -90.999 -84l105 -152l-3 -13c-13.333 0 -31.166 0.833008 -53.499 2.5s-35.833 2.5 -40.5 2.5c-14.667 0 -33.5 -0.833008 -56.5 -2.5s-36.167 -2.5 -39.5 -2.5l-36 71
c-33.333 -24.667 -71 -44.834 -113 -60.501s-81 -23.5 -117 -23.5c-29.333 0 -54.333 3.5 -75 10.5s-40.334 19.5 -59.001 37.5c-22.667 22.667 -34 51 -34 85v14.5c0 4.33301 1.33301 11.833 4 22.5c10 46.667 38 89 84 127c36 29.333 82 55.666 138 78.999l-28 64
c-8.66699 23.333 -13 46 -13 68v15.5c0 4.33301 1.33301 11.833 4 22.5c10 45.333 36.5 82.166 79.5 110.499s88.167 42.5 135.5 42.5c38 0 70 -7.33301 96 -22c30.667 -17.333 46 -42.333 46 -75c0 -6.66699 -1 -14.667 -3 -24c-7.33301 -35.333 -28 -68.666 -62 -99.999
c-24 -22 -57.667 -45.333 -101 -70l8 -14l108 -176c29.333 27.333 57.666 57.666 84.999 90.999c20.667 24.667 45.334 57.667 74.001 99zM482.999 556.003c1.33301 8 1.99902 14.334 1.99902 19.001c0 16.667 -4.5 30.5 -13.5 41.5s-22.167 16.5 -39.5 16.5
c-48 0 -77.333 -24.333 -88 -73c-1.33301 -4.66699 -2 -11.667 -2 -21c0 -21.333 6 -46.333 18 -75l18 -38c22.667 15.333 44 34.666 64 57.999c22.667 26 36.334 50 41.001 72zM395.998 101.004c-48.667 77.333 -91.998 149.999 -129.998 217.999
c-24.667 -14.667 -46 -31.667 -64 -51c-20 -22 -32.667 -45 -38 -69c-1.33301 -9.33301 -2 -16.666 -2 -21.999c0 -24.667 5.33301 -46 16 -64c6.66699 -12 14 -21.167 22 -27.5s19 -12.5 33 -18.5c7.33301 -3.33301 15.166 -5.33301 23.499 -6s18.166 -1 29.499 -1
c18 0 37.167 3.66699 57.5 11s37.833 17.333 52.5 30z" />
    <glyph glyph-name="quotesingle" unicode="'" horiz-adv-x="278" 
d="M224 450c-2 -18.667 -7.16797 -33.333 -15.501 -44s-20.166 -16 -35.499 -16c-21.333 0 -32 9.66699 -32 29c0 8.66699 2 19 6 31l36 169c7.33301 53.333 26 80 56 80c19.333 0 29 -11.333 29 -34c0 -10.667 -2.66699 -26 -8 -46z" />
    <glyph glyph-name="parenleft" unicode="(" horiz-adv-x="333" 
d="M405 728c-58.667 -54 -107 -120.335 -145 -199.002c-32 -66.667 -57 -142.667 -75 -228c-13.333 -61.333 -20 -119.333 -20 -174c0 -44 4.83301 -85.167 14.5 -123.5s25.5 -74.166 47.5 -107.499l-33 -26c-43.333 45.333 -75.5 92.333 -96.5 141s-31.5 103 -31.5 163
c0 44 5.33301 90.667 16 140c20 94.667 54.667 177.334 104 248.001c46.667 66.667 112.667 131 198 193z" />
    <glyph glyph-name="parenright" unicode=")" horiz-adv-x="333" 
d="M284 311c-20 -95.333 -54.667 -177.999 -104 -247.999c-46.667 -66.667 -113 -131 -199 -193l-20 27c58.667 54 107 120.333 145 199c32 66.667 57 142.667 75 228c13.333 61.333 20 119.333 20 174c0 44 -4.83301 85.167 -14.5 123.5s-25.5 74.166 -47.5 107.499l32 26
c44 -45.333 76.5 -92.333 97.5 -141s31.5 -103 31.5 -163c0 -44 -5.33301 -90.667 -16 -140z" />
    <glyph glyph-name="asterisk" unicode="*" horiz-adv-x="444" 
d="M440 440c-12.667 -14.667 -22.332 -26.333 -28.999 -35c-4 -4.66699 -13 -16.667 -27 -36l-93 80l-12 -136h-27c-8.66699 0 -17.334 0.333008 -26.001 1c-10.667 0 -19 -0.333008 -25 -1l42 136l-123 -84l-19 50l-11 18l145 60l-121 53
c21.333 21.333 39.666 44.333 54.999 69l92 -84l15 139c8 -1.33301 14.833 -2 20.5 -2h18.5h14h11c6.66699 1.33301 11.334 2 14.001 2l-45 -139l127 86c7.33301 -27.333 16 -50.333 26 -69l-139 -55z" />
    <glyph glyph-name="plus" unicode="+" horiz-adv-x="606" 
d="M550 212h-209l-45 -212h-86l45 212h-209l18 86h209l44 207h86l-44 -207h209z" />
    <glyph glyph-name="comma" unicode="," horiz-adv-x="278" 
d="M179 56l-109.998 -123.001l-113 -122l-22 11l84 185c15.333 32 23 48.333 23 49c7.33301 14 16.166 29.333 26.499 46s21.166 28.834 32.499 36.501s25.333 11.5 42 11.5s30 -4.66699 40 -14s15 -21.333 15 -36c0 -14 -6 -28.667 -18 -44z" />
    <glyph glyph-name="hyphen" unicode="-" horiz-adv-x="333" 
d="M278 169h-250l23 107h250z" />
    <glyph glyph-name="period" unicode="." horiz-adv-x="278" 
d="M185 68c-4.66699 -22.667 -16.667 -42.001 -36 -58.001s-40.666 -24 -63.999 -24c-20 0 -36 6.33301 -48 19s-18 28.334 -18 47.001c0 4 0.666992 9.33301 2 16c5.33301 22 17.666 41.167 36.999 57.5s40 24.5 62 24.5c19.333 0 35.333 -6 48 -18s19 -28 19 -48
c0 -2.66699 -0.666992 -8 -2 -16z" />
    <glyph glyph-name="slash" unicode="/" horiz-adv-x="389" 
d="M497 755l-488 -884c-14 2 -28 3 -42 3s-28 -1 -42 -3l488 884c14 -2 28 -3 42 -3s28 1 42 3z" />
    <glyph glyph-name="zero" unicode="0" 
d="M540 350c-17.333 -81.333 -37.334 -144.332 -60.001 -188.999c-20 -39.333 -45 -73 -75 -101c-53.333 -49.333 -113.333 -74 -180 -74c-44 0 -79 8.16699 -105 24.5s-45.667 43.5 -59 81.5c-6.66699 17.333 -11.334 34.666 -14.001 51.999s-4 36 -4 56
c0 37.333 5.33301 80 16 128c8.66699 41.333 20.334 81 35.001 119c18.667 47.333 39.334 85 62.001 113c60 73.333 132.333 110 217 110c64.667 0 112 -19.333 142 -58c26 -33.333 39 -80.333 39 -141c0 -38 -4.66699 -78.333 -14 -121zM387.999 330.001
c10 48.667 17.667 90.167 23 124.5s8 63.166 8 86.499c0 56 -18.333 84 -55 84s-67.667 -26.333 -93 -79c-21.333 -44.667 -43.666 -121.334 -66.999 -230.001c-10 -47.333 -17.5 -86.166 -22.5 -116.499s-7.5 -57.5 -7.5 -81.5c0 -29.333 4.83301 -51.166 14.5 -65.499
s25.5 -21.5 47.5 -21.5c34.667 0 64 26 88 78c21.333 45.333 42.666 119 63.999 221z" />
    <glyph glyph-name="one" unicode="1" 
d="M308 -5c-8.66699 0.666992 -20.6689 1.66699 -36.002 3s-26 2 -32 2c-13.333 -0 -27.666 -0.666992 -42.999 -2c-12.667 -2 -21.667 -3 -27 -3l120 565c-42.667 -22 -86 -42 -130 -60c-6.66699 18 -16.667 34.667 -30 50l2 8
c48.667 14.667 101.334 33.334 158.001 56.001c38 15.333 90 37.666 156 66.999l7 -5z" />
    <glyph glyph-name="two" unicode="2" 
d="M437 0l-439.999 -0.000976562l9 43c70 54.667 121 96 153 124c62.667 54 111.667 103.667 147 149c45.333 58 73.666 113.333 84.999 166c3.33301 16.667 5 31.667 5 45c0 28.667 -6.33301 51.334 -19 68.001c-15.333 20 -37.333 30 -66 30c-32 0 -60.333 -17 -85 -51
c-20.667 -28 -34 -59.667 -40 -95l-11 -2c-18 30 -39.333 52 -64 66c25.333 42.667 59 74.5 101 95.5s87.333 31.5 136 31.5c58 0 103.667 -10.333 137 -31c40 -24.667 60 -61.334 60 -110.001c0 -10.667 -1.66699 -25 -5 -43c-9.33301 -45.333 -30.333 -86 -63 -122
c-14.667 -16.667 -32 -33.667 -52 -51c-16 -14 -35.333 -29 -58 -45c-82 -59.333 -144.333 -106.333 -187 -141v-5h128c17.333 0 43.333 1.33301 78 4s61 4 79 4l-11 -34.5c-4 -12.333 -6.66699 -22.166 -8 -29.499s-2.83301 -17.5 -4.5 -30.5z" />
    <glyph glyph-name="three" unicode="3" 
d="M482 188c-12.667 -60 -48.166 -108.668 -106.499 -146.001s-122.833 -56 -193.5 -56c-40 0 -74.333 5.33301 -103 16c-34 12.667 -58.667 33 -74 61l40 40.5c12.667 13 26.334 28.167 41.001 45.5l12 -1c0 -36.667 5.33301 -64 16 -82c14 -23.333 37.333 -35 70 -35
c34.667 0 66.667 15.667 96 47c26 28 43 60 51 96c4.66699 20.667 7 39.334 7 56.001c0 39.333 -14.667 65 -44 77c-16.667 6.66699 -49.334 10 -98.001 10l11 50c12 -1.33301 20.333 -2 25 -2c40.667 0 73.334 13.667 98.001 41c20.667 22.667 35.667 56 45 100
c2.66699 11.333 4 25.333 4 42c0 22.667 -4 40.334 -12 53.001c-10 16 -26 24 -48 24c-31.333 0 -57.333 -12 -78 -36c-15.333 -17.333 -30 -45 -44 -83l-15 -1l-26 34.5c-8.66699 11.667 -17.334 22.5 -26.001 32.5c29.333 36.667 61.833 62.167 97.5 76.5
s76.167 21.5 121.5 21.5c57.333 0 101.666 -11 132.999 -33s47 -52 47 -90c0 -10 -1 -20 -3 -30c-8.66699 -40.667 -27 -73.667 -55 -99c-24 -22 -58.333 -40.333 -103 -55l-14 -5c-4.66699 -4.66699 -4.66699 -8 0 -10c14 -2.66699 22.333 -4.33398 25 -5.00098
c38.667 -12 62 -20.667 70 -26c26 -17.333 39 -44.333 39 -81c0 -14 -2 -30 -6 -48z" />
    <glyph glyph-name="four" unicode="4" 
d="M500 162l-83.002 0.000976562l-35 -167c-8.66699 0.666992 -20.667 1.66699 -36 3s-26 2 -32 2c-13.333 0 -27.666 -0.666992 -42.999 -2c-12.667 -2 -21.667 -3 -27 -3l35 167h-261l8 23c2.66699 7.33301 5 15 7 23s3.33301 16.333 4 25l2 25l101 113l109 124l78 87
c29.333 33.333 54 62.666 74 87.999c10 -1.33301 20.833 -2.5 32.5 -3.5s21.167 -1.5 28.5 -1.5c13.333 0 25.5 0.666992 36.5 2s19.833 2.33301 26.5 3l-85 -401h83l-16 -53c-1.33301 -6 -2.66602 -15 -3.99902 -27zM301.998 269.001l62 291l-251 -285l4 -6h185z" />
    <glyph glyph-name="five" unicode="5" 
d="M472 206c-7.33301 -33.333 -21.8301 -64.502 -43.4971 -93.502s-48.834 -53.5 -81.501 -73.5c-26.667 -17.333 -57.167 -30.5 -91.5 -39.5s-67.833 -13.5 -100.5 -13.5c-33.333 0 -63.833 4.5 -91.5 13.5s-51.834 23.167 -72.501 42.5c14.667 15.333 27.667 31.333 39 48
c8.66699 12 19.667 30 33 54h14c0 -31.333 6 -56.666 18 -75.999c15.333 -24.667 37.666 -37 66.999 -37c43.333 0 79.666 17.667 108.999 53c24 28.667 41 66 51 112c2 11.333 3 22.666 3 33.999c0 26.667 -5.33301 49.334 -16 68.001c-8 12.667 -18.667 22.834 -32 30.501
s-27.666 11.5 -42.999 11.5c-16.667 0 -33 -3.5 -49 -10.5s-31.333 -16.833 -46 -29.5l-21 14l90 350h333l-6 -22c-7.33301 -24 -11 -36.333 -11 -37c-2 -7.33301 -3.66699 -17.5 -5 -30.5l-3 -29.5h-287l-45 -173l5 -3c32.667 15.333 68 23 106 23
c32.667 0 60.167 -3.33301 82.5 -10s42.5 -19.334 60.5 -38.001c26 -27.333 39 -59.666 39 -96.999c0 -12 -1.66699 -25.667 -5 -41z" />
    <glyph glyph-name="six" unicode="6" 
d="M502 207c-14 -66 -48.001 -119.329 -102.001 -159.996s-114.333 -61 -181 -61c-16.667 0 -35 2.16699 -55 6.5s-35.667 9.83301 -47 16.5c-27.333 16 -48 38 -62 66c-7.33301 15.333 -12.666 32.166 -15.999 50.499s-5 37.166 -5 56.499c0 26.667 3 54 9 82
c14.667 69.333 38.667 133.666 72 192.999c39.333 70 87 123.333 143 160c28 18.667 57.833 32.167 89.5 40.5s63.834 12.5 96.501 12.5c20 0 36.333 -1.66699 49 -5c0 -5.33301 1.5 -12.5 4.5 -21.5s4.83301 -14.833 5.5 -17.5l-8 -10
c-8.66699 3.33301 -18 5.66602 -28 6.99902s-20 2 -30 2c-22.667 0 -45.334 -6 -68.001 -18c-19.333 -10 -39 -25 -59 -45c-17.333 -17.333 -31 -35.333 -41 -54l-27.5 -58c-6.33301 -14 -12.5 -30 -18.5 -48s-11 -34.667 -15 -50l6 -4c38.667 34 80 51 124 51
c50.667 0 91.5 -12.833 122.5 -38.5s46.5 -61.5 46.5 -107.5c0 -12.667 -1.66699 -28 -5 -46zM348.999 182.004c2 10 3.83398 22.166 5.50098 36.499s2.5 24.833 2.5 31.5c0 27.333 -4.33301 48.333 -13 63c-10.667 18.667 -28.334 28 -53.001 28
c-31.333 0 -57.666 -17 -78.999 -51c-14.667 -24 -26.334 -54.667 -35.001 -92c-2.66699 -13.333 -5 -26.666 -7 -39.999s-3 -27.666 -3 -42.999c0 -24.667 4.5 -44.834 13.5 -60.501s24.5 -23.5 46.5 -23.5c31.333 0 59 18.333 83 55c17.333 27.333 30.333 59.333 39 96z
" />
    <glyph glyph-name="seven" unicode="7" 
d="M616 645l-164.999 -209.999l-158 -214.5c-48 -67.667 -98.333 -142.834 -151 -225.501c-8 0.666992 -19.333 1.66699 -34 3s-24.667 2 -30 2c-14.667 -0 -27.5 -0.666992 -38.5 -2s-20.167 -2.33301 -27.5 -3l243 284c88 105.333 157.333 191 208 257l-335 -9
c3.33301 11.333 5.66602 19.666 6.99902 24.999c8 26.667 12.333 41.334 13 44.001l9 68h456z" />
    <glyph glyph-name="eight" unicode="8" 
d="M506 195c-13.333 -63.333 -46.3301 -113.998 -98.9971 -151.998s-113.334 -57 -182.001 -57c-32 0 -61.333 3.66699 -88 11s-50 19.333 -70 36c-14 12 -24.667 27.333 -32 46s-11 38.667 -11 60c0 13.333 1.66699 27.666 5 42.999c8.66699 43.333 29.667 82.5 63 117.5
s71.666 55.833 114.999 62.5l1 7c-27.333 5.33301 -49 18.166 -65 38.499s-24 44.5 -24 72.5c0 8.66699 1 17.667 3 27c12 55.333 43.333 97.333 94 126c43.333 24.667 94.333 37 153 37c32.667 0 59.667 -2.33301 81 -7s41.666 -14.667 60.999 -30
c29.333 -24 44 -52.667 44 -86c0 -9.33301 -1 -19.666 -3 -30.999c-8 -36.667 -25 -67.834 -51 -93.501s-58 -43.5 -96 -53.5l-1 -7c32.667 -5.33301 58.5 -19.833 77.5 -43.5s28.5 -52.167 28.5 -85.5c0 -4.66699 -0.166992 -9.66699 -0.5 -15s-1.5 -13 -3.5 -23z
M413.003 508.002l3.99805 25.502c1.33301 8.33301 2 16.166 2 23.499c0 20.667 -4.33301 37.167 -13 49.5s-24 18.5 -46 18.5c-28.667 0 -52.667 -15 -72 -45c-14 -22 -24.333 -49.667 -31 -83c-1.33301 -6.66699 -2.66602 -14.334 -3.99902 -23.001s-2 -16.334 -2 -23.001
c0 -12 2 -23.333 6 -34s10.5 -19.667 19.5 -27s19.5 -11 31.5 -11c28.667 0 53 15.333 73 46c14.667 22.667 25.334 50.334 32.001 83.001zM356.001 184.004c4.66699 22 6.99707 45.333 6.99707 70c0 21.333 -2.33301 37.666 -7 48.999
c-11.333 26.667 -30.666 40 -57.999 40c-6.66699 0 -11.667 -0.333008 -15 -1s-8.66602 -2.66699 -15.999 -6c-22.667 -9.33301 -42.667 -31.333 -60 -66c-13.333 -27.333 -22.666 -53.166 -27.999 -77.499s-8 -46.833 -8 -67.5c0 -27.333 4.83301 -49.833 14.5 -67.5
s26.167 -26.5 49.5 -26.5c30.667 0 58 18.667 82 56c18.667 28.667 31.667 61 39 97z" />
    <glyph glyph-name="nine" unicode="9" 
d="M546 393c-11.333 -52 -27.668 -101.005 -49.001 -147.005c-24 -52.667 -53 -98 -87 -136s-75 -68.167 -123 -90.5s-95.667 -33.5 -143 -33.5c-7.33301 0 -15.166 0.166992 -23.499 0.5s-17.666 2.33301 -27.999 6s-16.5 5.83398 -18.5 6.50098s-3 4.33398 -3 11.001
c-0.666992 9.33301 -1.83398 18.333 -3.50098 27s-4.16699 17.334 -7.5 26.001l9 7c13.333 -11.333 25.333 -20 36 -26c15.333 -8.66699 30 -13 44 -13c57.333 0 108.333 31.333 153 94c33.333 46.667 59 103.334 77 170.001l2 10l-7 3c-38 -34 -81 -51 -129 -51
s-87.167 12.833 -117.5 38.5s-45.5 60.167 -45.5 103.5c0 11.333 1.66699 25.333 5 42c8 38.667 19.333 70.667 34 96s38 51 70 77c23.333 19.333 49.333 33.5 78 42.5s58 13.5 88 13.5c40 0 75 -6.5 105 -19.5s53 -33.833 69 -62.5c8 -15.333 14 -32.666 18 -51.999
s6 -39.333 6 -60c0 -28 -3 -55.667 -9 -83zM410.998 457.995c2 10.667 4.33398 24.5 7.00098 41.5s4 31.5 4 43.5c0 24.667 -4 43.667 -12 57c-10 16.667 -26 25 -48 25c-31.333 0 -59 -18.333 -83 -55c-20 -30.667 -32.333 -62.334 -37 -95.001
c-1.33301 -4.66699 -3 -13.667 -5 -27s-3 -27.333 -3 -42c0 -28 4 -49 12 -63c10.667 -18.667 27.667 -28 51 -28c31.333 0 57.666 17 78.999 51c16 24.667 27.667 55.334 35 92.001z" />
    <glyph glyph-name="colon" unicode=":" horiz-adv-x="278" 
d="M255 394c-5.33301 -22.667 -17.667 -42.168 -37 -58.501s-40.333 -24.5 -63 -24.5c-20 0 -36 6.33301 -48 19s-18 28.334 -18 47.001c0 3.33301 0.666992 9 2 17c4.66699 22 16.667 41 36 57s40.333 24 63 24c19.333 0 35.333 -6 48 -18s19 -28 19 -48
c0 -3.33301 -0.666992 -8.33301 -2 -15zM184.999 67.999c-4.66699 -22.667 -16.666 -42 -35.999 -58s-40.333 -24 -63 -24c-20 0 -36.167 6.5 -48.5 19.5s-18.5 28.833 -18.5 47.5c0 3.33301 0.666992 8.33301 2 15c4.66699 22 17 41.167 37 57.5s41 24.5 63 24.5
c19.333 0 35.166 -6.16699 47.499 -18.5s18.5 -27.833 18.5 -46.5c0 -3.33301 -0.666992 -9 -2 -17z" />
    <glyph glyph-name="semicolon" unicode=";" horiz-adv-x="278" 
d="M270 394c-5.33301 -22.667 -17.667 -42.168 -37 -58.501s-40.333 -24.5 -63 -24.5c-20 0 -36 6.33301 -48 19s-18 28.334 -18 47.001c0 3.33301 0.666992 9 2 17c4.66699 22 16.667 41 36 57s40.333 24 63 24c19.333 0 35.333 -6 48 -18s19 -28 19 -48
c0 -3.33301 -0.666992 -8.33301 -2 -15zM178.999 55.999l-109.998 -123.001l-113 -122l-22 11l84 185c15.333 32 23 48.333 23 49c7.33301 14 16.166 29.333 26.499 46s21.166 28.834 32.499 36.501s25.333 11.5 42 11.5s30 -4.66699 40 -14s15 -21.333 15 -36
c0 -14 -6 -28.667 -18 -44z" />
    <glyph glyph-name="less" unicode="&#x3c;" horiz-adv-x="606" 
d="M505 -12l-460 230l16 74l558 230l-18 -84l-437 -183l359 -183z" />
    <glyph glyph-name="equal" unicode="=" horiz-adv-x="606" 
d="M571 310h-504l18 86h504zM529 114h-504l19 86h504z" />
    <glyph glyph-name="greater" unicode="&#x3e;" horiz-adv-x="606" 
d="M553 218l-558 -230l18 84l437 183l-359 183l18 84l460 -230z" />
    <glyph glyph-name="question" unicode="?" horiz-adv-x="444" 
d="M443 559c-8.66699 -40 -33.6689 -79.3369 -75.002 -118.004c-90 -84 -136 -130.667 -138 -140c-2.66699 -13.333 0 -24.166 8 -32.499s18.667 -12.5 32 -12.5c6.66699 0 14.5 1.33301 23.5 4s16.167 6 21.5 10l8 -5l-25 -42c-20.667 -2.66699 -41 -5 -61 -7
c-18.667 0 -36.167 2.83301 -52.5 8.5s-30.166 14.167 -41.499 25.5c-17.333 18.667 -26 41 -26 67c0 4 0.666992 10 2 18c6 26.667 16 49.334 30 68.001c10.667 14 29.334 32 56.001 54l61 54c15.333 14.667 25.666 25.334 30.999 32.001c9.33301 12 15 23.333 17 34
s3 17.334 3 20.001c0 16 -5.83301 28.5 -17.5 37.5s-26.5 13.5 -44.5 13.5c-41.333 0 -74.666 -17.667 -99.999 -53h-13l12 67c15.333 10.667 35.833 19.5 61.5 26.5s48.5 10.5 68.5 10.5c16.667 0 30.167 -0.5 40.5 -1.5s23 -3.66699 38 -8s27.667 -9.5 38 -15.5
s19.5 -15.667 27.5 -29c11.333 -18.667 17 -39.667 17 -63c0 -10 -0.666992 -17.667 -2 -23zM257.998 67.9961c-4.66699 -22.667 -16.666 -42 -35.999 -58s-40.333 -24 -63 -24c-20 0 -36.167 6.5 -48.5 19.5s-18.5 28.833 -18.5 47.5c0 3.33301 0.666992 8.33301 2 15
c4.66699 22 17 41.167 37 57.5s41 24.5 63 24.5c19.333 0 35.166 -6.16699 47.499 -18.5s18.5 -27.833 18.5 -46.5c0 -3.33301 -0.666992 -9 -2 -17z" />
    <glyph glyph-name="at" unicode="@" horiz-adv-x="750" 
d="M441 460c-34.667 0 -70.001 -26.667 -106.001 -80c-30.667 -44.667 -50 -87 -58 -127c-2 -10 -3 -19 -3 -27c0 -10.667 2.33301 -18.667 7 -24s13.334 -8 26.001 -8c26 0 55.667 18.333 89 55c38.667 42 64 93 76 153c2 10 3 18.667 3 26c0 21.333 -11.333 32 -34 32z
M532.999 504l95 -0.00292969l-117 -245c-8.66699 -17.333 -13 -32.666 -13 -45.999c0 -12.667 5 -19 15 -19c27.333 0 58.333 19 93 57c40.667 44.667 67.667 97.667 81 159c3.33301 18 5 34 5 48c0 51.333 -16.333 93.333 -49 126c-37.333 36.667 -90 55 -158 55
c-85.333 0 -160.5 -27.667 -225.5 -83s-106.833 -127.333 -125.5 -216c-5.33301 -24 -8 -49.333 -8 -76c0 -69.333 22 -123.666 66 -162.999s103.333 -59 178 -59c46 0 91.333 11.667 136 35s85 55.333 121 96h65c-41.333 -57.333 -93.333 -103.5 -156 -138.5
s-126 -52.5 -190 -52.5c-86.667 0 -157.167 25.167 -211.5 75.5s-81.5 116.5 -81.5 198.5c0 19.333 0.5 33.333 1.5 42s3.16699 20.334 6.5 35.001c21.333 102.667 73.333 189.334 156 260.001s174.334 106 275.001 106c80 0 144.333 -23 193 -69
c46 -43.333 69 -98.333 69 -165c0 -17.333 -2 -35 -6 -53c-8 -36.667 -21 -71.167 -39 -103.5s-41.667 -61.5 -71 -87.5c-26.667 -23.333 -54 -42.333 -82 -57c-35.333 -18.667 -65.666 -28 -90.999 -28c-18 0 -31.667 6.33301 -41 19s-14 28.334 -14 47.001
c0 8.66699 0.333008 15 1 19c-24.667 -26.667 -45.334 -45.667 -62.001 -57c-22 -14.667 -46 -22 -72 -22c-32.667 0 -57.834 9.16699 -75.501 27.5s-26.5 43.166 -26.5 74.499c0 12 1.66699 26.333 5 43c12 57.333 43.833 109.333 95.5 156s105.167 70 160.5 70
c20 0 37.333 -5.33301 52 -16c12 -8.66699 21 -19.334 27 -32.001z" />
    <glyph glyph-name="A" unicode="A" horiz-adv-x="667" 
d="M171 204l-45.001 -80.001c-32 -56.667 -55 -99 -69 -127l-46 3l-49 -3l434 693l37 -3l39 3l131 -695c-13.333 0 -24 0.333008 -32 1c-32 2.66699 -49.667 4 -53 4c-13.333 0 -30.333 -0.833008 -51 -2.5s-32.667 -2.5 -36 -2.5
c-7.33301 81.333 -11.666 125.833 -12.999 133.5s-6 32.834 -14 75.501h-233zM393.999 264.999l-39 233l-144 -233h183z" />
    <glyph glyph-name="B" unicode="B" horiz-adv-x="611" 
d="M174 681l257.997 0.000976562c50.667 0 90.334 -8 119.001 -24c34.667 -19.333 52 -49.333 52 -90v-22c-2 -7.33301 -3.33301 -12.333 -4 -15c-9.33301 -44.667 -34 -81.667 -74 -111c-35.333 -26 -76.666 -42.333 -123.999 -49l-2 -9c40.667 -4 73.334 -14 98.001 -30
c34 -22.667 51 -55 51 -97c0 -12.667 -1.33301 -25.334 -4 -38.001c-14 -64.667 -50.333 -114.667 -109 -150c-50.667 -30.667 -109 -46 -175 -46h-231zM260.997 387.001l31.002 0.00195312c18.667 0 34.667 1.5 48 4.5s27.666 10.167 42.999 21.5s28.666 26.333 39.999 45
s19.333 38 24 58c0.666992 5.33301 1.5 10.666 2.5 15.999s1.5 10.666 1.5 15.999c0 52.667 -29.333 79 -88 79h-24c-12 -2 -21.333 -3.33301 -28 -4zM190.999 58.0029l50 0.000976562c30 0 59 11.333 87 34c31.333 25.333 51 57.666 59 96.999c4 18 6 33.667 6 47
c0 34 -12 58 -36 72s-60 21 -108 21z" />
    <glyph glyph-name="C" unicode="C" horiz-adv-x="667" 
d="M596 111l-41 -86.0029c-31.333 -14.667 -64.833 -25.5 -100.5 -32.5s-71.167 -10.5 -106.5 -10.5c-94.667 0 -170.334 23.5 -227.001 70.5s-85 110.833 -85 191.5c0 16.667 0.333008 29.334 1 38.001s3 21 7 37c26 124.667 85.333 220.667 178 288
c84 61.333 184.333 92 301 92c35.333 0 69.833 -4.16699 103.5 -12.5s63.5 -20.5 89.5 -36.5l-45 -103h-14c-12.667 27.333 -32.167 49.5 -58.5 66.5s-55.5 25.5 -87.5 25.5c-77.333 0 -144 -32.667 -200 -98c-48 -55.333 -80.667 -124.666 -98 -207.999
c-7.33301 -34.667 -11 -65.667 -11 -93c0 -61.333 16 -109.666 48 -144.999s78.333 -53 139 -53c30.667 0 63.834 7 99.501 21s67.5 32 95.5 54z" />
    <glyph glyph-name="D" unicode="D" horiz-adv-x="778" 
d="M522 681c82.667 0 145 -23.001 187 -69.001c37.333 -41.333 56 -97 56 -167c0 -27.333 -3 -55.666 -9 -84.999c-24 -110.667 -78 -199 -162 -265c-80.667 -63.333 -173.667 -95 -279 -95h-280l145 681h342zM197 57.999l85 0.00195312c76.667 0 139 21 187 63
c57.333 49.333 97.666 129.333 120.999 240c3.33301 15.333 6 31.166 8 47.499s3 31.166 3 44.499c0 58.667 -16.167 101.667 -48.5 129s-78.166 41 -137.499 41h-98z" />
    <glyph glyph-name="E" unicode="E" horiz-adv-x="500" 
d="M554 681c-3.33301 -9.33301 -5.66797 -16.335 -7.00098 -21.002c-4 -11.333 -6.66699 -20.166 -8 -26.499s-2.33301 -11.833 -3 -16.5s-1 -12 -1 -22c-33.333 4.66699 -67.666 8.16699 -102.999 10.5s-77 3.5 -125 3.5l-45 -215h104c26.667 0 47 0.5 61 1.5
s35.333 3.5 64 7.5c-4 -9.33301 -6.66699 -16.333 -8 -21c-3.33301 -8 -5.66602 -16 -6.99902 -24s-2.33301 -14.333 -3 -19s-1 -12 -1 -22c-12.667 2 -29.334 4 -50.001 6s-44.334 3 -71.001 3h-104l-54 -254c47.333 0 89.5 1.16699 126.5 3.5s72.833 5.83301 107.5 10.5
c-3.33301 -9.33301 -5.66602 -16.333 -6.99902 -21c-4 -11.333 -6.33301 -18.666 -7 -21.999c-2.66699 -12.667 -4 -27 -4 -43h-381l145 681h381z" />
    <glyph glyph-name="F" unicode="F" horiz-adv-x="500" 
d="M177 -5c-10.667 0 -24.835 0.832031 -42.502 2.49902s-28.167 2.5 -31.5 2.5c-10.667 0 -25.167 -0.833008 -43.5 -2.5s-29.166 -2.5 -32.499 -2.5l146 686h381c-3.33301 -9.33301 -5.66602 -16.333 -6.99902 -21c-4 -11.333 -6.66699 -20.166 -8 -26.499
s-2.33301 -11.833 -3 -16.5s-1 -12 -1 -22c-44 5.33301 -80.167 9 -108.5 11s-68.166 3 -119.499 3l-45 -215h106c23.333 0 40.666 0.5 51.999 1.5s35 3.5 71 7.5c-4 -9.33301 -6.66699 -16.333 -8 -21c-3.33301 -8 -5.66602 -16 -6.99902 -24s-2.33301 -14.333 -3 -19
s-1 -12 -1 -22l-61 6c-20.667 2 -40.334 3 -59.001 3h-105z" />
    <glyph glyph-name="G" unicode="G" horiz-adv-x="778" 
d="M664 27c-56.667 -14.667 -106.668 -25.833 -150.001 -33.5s-85.666 -11.5 -126.999 -11.5c-98.667 0 -177.667 21 -237 63c-65.333 46 -98 112 -98 198c0 24 3 50.667 9 80c25.333 120 85 213.667 179 281c88 63.333 192.667 95 314 95
c44.667 0 85.667 -4.83301 123 -14.5s72.333 -25.167 105 -46.5c-22.667 -34.667 -39.334 -68.334 -50.001 -101.001h-14c-16 32.667 -39.167 57.834 -69.5 75.501s-65.5 26.5 -105.5 26.5c-80 0 -149.333 -32 -208 -96c-53.333 -58 -89.666 -132.333 -108.999 -223
c-6.66699 -30.667 -10 -60 -10 -88c0 -60 16.333 -106.667 49 -140s80 -50 142 -50c24.667 0 45.5 2.33301 62.5 7s34.833 11.667 53.5 21l50 234c10 0 23.833 -0.833008 41.5 -2.5s28.5 -2.5 32.5 -2.5c9.33301 0 23 0.833008 41 2.5s29.667 2.5 35 2.5z" />
    <glyph glyph-name="H" unicode="H" horiz-adv-x="778" 
d="M181 681c10 0 23.835 -0.833008 41.502 -2.5s28.5 -2.5 32.5 -2.5c9.33301 0 23 0.833008 41 2.5s29.667 2.5 35 2.5l-58 -271c23.333 0 53.166 -0.833008 89.499 -2.5s57.166 -2.5 62.499 -2.5c23.333 0 42.333 0.333008 57 1c58.667 2.66699 91 4 97 4l58 271
c10 0 23.833 -0.833008 41.5 -2.5s28.5 -2.5 32.5 -2.5c9.33301 0 23 0.833008 41 2.5s29.667 2.5 35 2.5l-146 -686c-10.667 0 -24.834 0.833008 -42.501 2.5s-28.167 2.5 -31.5 2.5c-10.667 0 -25.167 -0.833008 -43.5 -2.5s-29.166 -2.5 -32.499 -2.5l71 335
c-20.667 0 -49.167 0.833008 -85.5 2.5s-58.5 2.5 -66.5 2.5c-23.333 0 -53.333 -0.833008 -90 -2.5s-58 -2.5 -64 -2.5l-71 -335c-10.667 0 -24.834 0.833008 -42.501 2.5s-28.167 2.5 -31.5 2.5c-10.667 0 -25.167 -0.833008 -43.5 -2.5s-29.166 -2.5 -32.499 -2.5z" />
    <glyph glyph-name="I" unicode="I" horiz-adv-x="333" 
d="M186 681c10 0 23.833 -0.833008 41.5 -2.5s28.5 -2.5 32.5 -2.5c9.33301 0 23 0.833008 41 2.5s29.667 2.5 35 2.5l-146 -686c-10.667 0 -24.834 0.833008 -42.501 2.5s-28.167 2.5 -31.5 2.5c-10.667 0 -25.167 -0.833008 -43.5 -2.5s-29.166 -2.5 -32.499 -2.5z" />
    <glyph glyph-name="J" unicode="J" horiz-adv-x="333" 
d="M236 166c-12 -56 -20.667 -92.666 -26 -109.999c-13.333 -42.667 -30 -76.334 -50 -101.001c-28 -34.667 -59.667 -61 -95 -79s-75.333 -29.667 -120 -35l-5 47c52.667 13.333 89.667 55.333 111 126c6 19.333 16.333 64 31 134l114 533c10 0 23.833 -0.833008 41.5 -2.5
s28.5 -2.5 32.5 -2.5c9.33301 0 23 0.833008 41 2.5s29.667 2.5 35 2.5z" />
    <glyph glyph-name="K" unicode="K" horiz-adv-x="611" 
d="M168 681c10 0 23.833 -0.833008 41.5 -2.5s28.5 -2.5 32.5 -2.5c9.33301 0 23 0.833008 41 2.5s29.667 2.5 35 2.5l-67 -313l327 313c8.66699 -0.666992 18.167 -1.66699 28.5 -3s18.5 -2 24.5 -2c11.333 0 20.833 0.5 28.5 1.5l25.5 3.5l-2 -8l-201 -172l-117 -105
l187 -387l-3 -14c-10.667 0 -24.834 0.833008 -42.501 2.5s-28.167 2.5 -31.5 2.5c-10.667 0 -25.167 -0.833008 -43.5 -2.5s-29.166 -2.5 -32.499 -2.5l-159 318l-68 -318c-10.667 0 -24.834 0.833008 -42.501 2.5s-28.167 2.5 -31.5 2.5
c-10.667 0 -25.167 -0.833008 -43.5 -2.5s-29.166 -2.5 -32.499 -2.5z" />
    <glyph glyph-name="L" unicode="L" horiz-adv-x="500" 
d="M195 72c43.333 0 80.166 0.999023 110.499 2.99902s70.833 5.66699 121.5 11c-3.33301 -9.33301 -5.66602 -16.333 -6.99902 -21c-4 -11.333 -6.33301 -18.666 -7 -21.999c-2.66699 -12.667 -4 -27 -4 -43h-379l145 681c10 0 23.833 -0.833008 41.5 -2.5
s28.5 -2.5 32.5 -2.5c9.33301 0 23 0.833008 41 2.5s29.667 2.5 35 2.5z" />
    <glyph glyph-name="M" unicode="M" horiz-adv-x="889" 
d="M777 681c6.66699 -0.666992 14.002 -1.66797 22.002 -3.00098s14.333 -2 19 -2s11.667 0.666992 21 2s17 2.33301 23 3c-8 -84.667 -16.667 -169 -26 -253c-12 -112.667 -19.667 -188 -23 -226c-6 -74.667 -9 -143.667 -9 -207c-12 0 -27.667 0.833008 -47 2.5
s-31 2.5 -35 2.5c-12 0 -27.667 -0.833008 -47 -2.5s-31 -2.5 -35 -2.5c10.667 64 21 142.333 31 235l25 231l-108 -153l-107 -153l-105 -155c-10.667 1.33301 -18.334 2 -23.001 2c-3.33301 0 -8.33301 -0.666992 -15 -2l-38 143l-42 150.5l-43 156.5
c-34 -97.333 -60.667 -177.666 -80 -240.999c-24 -77.333 -43.667 -148.666 -59 -213.999c-6 0.666992 -14.167 1.66699 -24.5 3s-17.5 2 -21.5 2c-10 0 -18.333 -0.5 -25 -1.5s-14 -2.16699 -22 -3.5c17.333 43.333 43.666 113.666 78.999 210.999l83 229l86 246
c10.667 -1.33301 19.5 -2.5 26.5 -3.5s11.5 -1.5 13.5 -1.5c9.33301 0 17 0.5 23 1.5l20 3.5c12 -50.667 25.333 -102.667 40 -156c11.333 -42.667 26 -95 44 -157l46 -157l106 147l112 157z" />
    <glyph glyph-name="N" unicode="N" horiz-adv-x="778" 
d="M179 681h99.001l110 -154l112 -156l110 -158l100 468l39 -3l41 3l-146 -686l-85 1l-86 127c-0.666992 1.33301 -29.334 42.333 -86.001 123l-86 121l-85 114l-103 -484l-39 3l-41 -3z" />
    <glyph glyph-name="O" unicode="O" horiz-adv-x="833" 
d="M351 -18c-95.333 0 -169.832 22.832 -223.499 68.499s-80.5 110.834 -80.5 195.501c0 30.667 3.33301 61.667 10 93c22 103.333 74.667 188.333 158 255c87.333 70 191.666 105 312.999 105c108 0 187.667 -28 239 -84c42.667 -46.667 64 -108.667 64 -186
c0 -29.333 -3 -58 -9 -86c-21.333 -101.333 -74.333 -186 -159 -254c-88.667 -71.333 -192.667 -107 -312 -107zM217.001 309.999c-6 -28 -9 -56 -9 -84c0 -54 12 -97 36 -129c28 -36.667 69.667 -55 125 -55c72.667 0 136 32.333 190 97c48 58 81.667 132.333 101 223
c6 28 9 56 9 84c0 57.333 -11.667 102.333 -35 135c-27.333 38.667 -69 58 -125 58c-71.333 0 -132 -27.167 -182 -81.5s-86.667 -136.833 -110 -247.5z" />
    <glyph glyph-name="P" unicode="P" 
d="M171 -5c-10.667 0 -24.834 0.832031 -42.501 2.49902s-28.167 2.5 -31.5 2.5c-10.667 0 -25.167 -0.833008 -43.5 -2.5s-29.166 -2.5 -32.499 -2.5l146 686h246c122 0 183 -42 183 -126c0 -12 -1.66699 -26.333 -5 -43c-18 -83.333 -59.333 -141.666 -124 -174.999
c-52.667 -27.333 -130 -41 -232 -41zM247 350.999c14.667 0 25.999 0.333008 33.999 1s19 2.66699 33 6c32.667 8.66699 59.334 26 80.001 52c18 22.667 30.667 50.667 38 84c3.33301 16.667 5 31 5 43c0 28 -6.33301 50 -19 66s-29.667 24 -51 24h-62z" />
    <glyph glyph-name="Q" unicode="Q" horiz-adv-x="833" 
d="M214 310c-6 -28 -9 -56 -9 -84c0 -54 12 -97 36 -129c28 -36.667 69.667 -55 125 -55c68.667 0 129.167 29.167 181.5 87.5s88.833 135.833 109.5 232.5c6 28 9 56 9 84c0 57.333 -11.667 102.333 -35 135c-27.333 38.667 -69 58 -125 58
c-78.667 0 -143 -31.333 -193 -94c-44.667 -56 -77.667 -134.333 -99 -235zM347 -18c-95.333 0 -169.666 22.833 -222.999 68.5s-80 110.5 -80 194.5c0 31.333 3.33301 62.666 10 93.999c23.333 109.333 80.333 197.333 171 264c87.333 64 187.333 96 300 96
c95.333 0 169.833 -24.167 223.5 -72.5s80.5 -114.166 80.5 -197.499c0 -24 -3.33301 -52.667 -10 -86c-17.333 -81.333 -55.166 -152.5 -113.499 -213.5s-129.5 -104.167 -213.5 -129.5c30.667 -22.667 67 -48 109 -76c35.333 -24 74.666 -49.333 117.999 -76
c-50.667 -10 -101.334 -28.333 -152.001 -55l-63 58c-23.333 21.333 -45 40 -65 56z" />
    <glyph glyph-name="R" unicode="R" horiz-adv-x="611" 
d="M170 681l213 0.00195312c46 0 79.333 -0.833008 100 -2.5s39.667 -7.5 57 -17.5c41.333 -24.667 62 -59.334 62 -104.001c0 -10.667 -1.66699 -23.667 -5 -39c-10 -48 -32.167 -87.333 -66.5 -118s-76.833 -51.334 -127.5 -62.001
c16.667 -48 40.334 -106.667 71.001 -176l46 -105l26 -62c-12 0 -28.667 0.833008 -50 2.5s-34.666 2.5 -39.999 2.5c-12.667 0 -29.834 -0.833008 -51.501 -2.5s-34.834 -2.5 -39.501 -2.5l-74 210l-42 111h-7l-68 -321c-10.667 0 -24.834 0.833008 -42.501 2.5
s-28.167 2.5 -31.5 2.5c-10.667 0 -25.167 -0.833008 -43.5 -2.5s-29.166 -2.5 -32.499 -2.5zM251 359.002c6 -0.666992 14.334 -0.999023 25.001 -0.999023c88 0 142.333 48 163 144c2.66699 12.667 4.16699 23 4.5 31s0.5 14.333 0.5 19c0 31.333 -11 52.666 -33 63.999
c-14.667 7.33301 -39.334 11 -74.001 11h-29z" />
    <glyph glyph-name="S" unicode="S" horiz-adv-x="500" 
d="M456 552c-4 27.333 -13.998 48.666 -29.998 63.999s-38 23 -66 23c-38 0 -67.667 -8.83301 -89 -26.5s-35.333 -41.5 -42 -71.5c-1.33301 -9.33301 -2 -15.666 -2 -18.999c0 -27.333 20.667 -53.666 62 -78.999l115 -70c41.333 -33.333 62 -74 62 -122
c0 -7.33301 -0.333008 -15.166 -1 -23.499s-2 -16.833 -4 -25.5c-13.333 -64 -49.333 -116.667 -108 -158s-126.667 -62 -204 -62c-29.333 0 -57 3.5 -83 10.5s-49 17.833 -69 32.5l31 65c10 22 18.333 42.667 25 62h19c0 -34.667 10.333 -61.667 31 -81s48.667 -29 84 -29
c32.667 0 62.167 9 88.5 27s43.166 43.667 50.499 77c2 9.33301 3 17.666 3 24.999c0 31.333 -19.5 58.333 -58.5 81l-114.5 67c-40.667 30.667 -61 70 -61 118c0 15.333 2 32.666 6 51.999c12.667 60 42.667 109.333 90 148c50.667 41.333 112.667 62 186 62
c33.333 0 63.666 -5 90.999 -15s46 -21 56 -33l-53 -99h-15z" />
    <glyph glyph-name="T" unicode="T" 
d="M305 -5c-10.667 0 -24.835 0.832031 -42.502 2.49902s-28.167 2.5 -31.5 2.5c-10.667 0 -25.167 -0.833008 -43.5 -2.5s-29.166 -2.5 -32.499 -2.5l131 615c-35.333 0 -66.666 -1.16699 -93.999 -3.5s-59 -5.83301 -95 -10.5c3.33301 9.33301 5.66602 16.333 6.99902 21
c4 11.333 6.83301 21 8.5 29s2.5 19.667 2.5 35h515c-3.33301 -9.33301 -5.66602 -16.333 -6.99902 -21c-4 -11.333 -6.33301 -18.333 -7 -21c-2.66699 -13.333 -4 -27.666 -4 -42.999c-46.667 5.33301 -80.167 9 -100.5 11s-45.5 3 -75.5 3z" />
    <glyph glyph-name="U" unicode="U" horiz-adv-x="778" 
d="M184 681c10 0 23.8291 -0.834961 41.4961 -2.50195s28.5 -2.5 32.5 -2.5c9.33301 0 23 0.833008 41 2.5s29.667 2.5 35 2.5l-61 -284c-9.33301 -41.333 -16 -73 -20 -95c-8.66699 -42.667 -13 -74 -13 -94c0 -31.333 1.33301 -54.166 4 -68.499s11 -29.833 25 -46.5
c24 -28.667 59 -43 105 -43c47.333 0 86.333 9.16699 117 27.5s59.334 49.5 86.001 93.5c12.667 19.333 25.334 53 38.001 101c6.66699 24 14.667 59.333 24 106l65 303l39 -3l41 3l-76 -356c-18 -77.333 -34.333 -131 -49 -161c-25.333 -54 -65 -97 -119 -129
c-29.333 -18.667 -61.166 -32.167 -95.499 -40.5s-69.166 -12.5 -104.499 -12.5c-70.667 0 -128 11.667 -172 35c-54 28.667 -81 73 -81 133c0 22 0.666992 43.333 2 64s4 40.334 8 59.001z" />
    <glyph glyph-name="V" unicode="V" horiz-adv-x="667" 
d="M279 0c-9.33301 0 -17.832 -0.666992 -25.499 -2s-13.834 -2.33301 -18.501 -3c-11.333 76.667 -23.666 153.667 -36.999 231c-10 60 -23.667 136 -41 228c-10 55.333 -24.667 131 -44 227c12 0 28.5 -0.833008 49.5 -2.5s33.5 -2.5 37.5 -2.5
c12.667 0 29.5 0.833008 50.5 2.5s33.833 2.5 38.5 2.5c0 -68.667 8.66699 -151 26 -247l46 -248l150 246l142 249l45 -3l47 3l-145 -226l-143 -228l-137 -232l-24 3.5c-6.66699 1 -12.334 1.5 -17.001 1.5z" />
    <glyph glyph-name="W" unicode="W" horiz-adv-x="1000" 
d="M110 681c11.333 0 26.666 -0.833984 45.999 -2.50098s31.333 -2.5 36 -2.5c11.333 0 27 0.833008 47 2.5s32 2.5 36 2.5c0 -50.667 2 -105.167 6 -163.5l12.5 -182c4.33301 -63 6.5 -114.5 6.5 -154.5l94 166l95 166c37.333 66.667 67.666 122.667 90.999 168l49 -3l51 3
c0 -48.667 4.16699 -102.5 12.5 -161.5l26 -180.5c9 -61.333 13.5 -114 13.5 -158l88 165l86 166l81 169l46 -3l47 3l-195 -343l-184 -343c-8.66699 0.666992 -17.667 1.66699 -27 3s-16.666 2 -21.999 2c-11.333 0 -21.5 -0.666992 -30.5 -2s-16.167 -2.33301 -21.5 -3
c0 58 -3.66699 119.667 -11 185c-0.666992 8 -15.667 109 -45 303l-91 -159l-92 -161l-94 -168c-8.66699 0.666992 -17.667 1.66699 -27 3s-16.666 2 -21.999 2c-11.333 0 -21.5 -0.666992 -30.5 -2s-16.167 -2.33301 -21.5 -3c0 68 -2.5 134.833 -7.5 200.5
s-12.5 145.167 -22.5 238.5c-14 130.667 -21.667 203.334 -23 218.001z" />
    <glyph glyph-name="X" unicode="X" horiz-adv-x="611" 
d="M556 545l-150.997 -164.999l8 -23l41 -118l41 -119c9.33301 -28.667 21.666 -70.334 36.999 -125.001c-12 0 -28.333 0.833008 -49 2.5s-33 2.5 -37 2.5c-12 0 -28.5 -0.833008 -49.5 -2.5s-33.5 -2.5 -37.5 -2.5c-14.667 51.333 -27.334 94 -38.001 128l-40 127
l-122 -144l-47 -58l-39 -51l-49 3l-51 -3l284 316l-127 368c12.667 0 29.5 -0.833008 50.5 -2.5s33.5 -2.5 37.5 -2.5c12.667 0 29.5 0.833008 50.5 2.5s34.167 2.5 39.5 2.5c7.33301 -30.667 15.666 -61 24.999 -91l47 -151l203 242l48 -3l51 3z" />
    <glyph glyph-name="Y" unicode="Y" horiz-adv-x="611" 
d="M243 284c-18.667 52 -40.668 117.666 -66.001 196.999c-34 108.667 -55.333 175.334 -64 200.001c12 0 28.667 -0.833008 50 -2.5s34.333 -2.5 39 -2.5c12.667 0 29.834 0.833008 51.501 2.5s34.834 2.5 39.501 2.5l47 -178c9.33301 -34.667 16.333 -59.667 21 -75
c7.33301 -23.333 12.666 -38.333 15.999 -45c22 21.333 56.667 66 104 134l110 164l48 -3l49 3l-99 -126l-98 -124c-29.333 -38 -60.333 -80.333 -93 -127l-66 -309c-10.667 0 -24.834 0.833008 -42.501 2.5s-28.167 2.5 -31.5 2.5c-10.667 0 -25.167 -0.833008 -43.5 -2.5
s-29.166 -2.5 -32.499 -2.5z" />
    <glyph glyph-name="Z" unicode="Z" horiz-adv-x="611" 
d="M-26 0l4 17.001l163 193l160 193l154 193l2 13c-44 0 -88 -1 -132 -3c-117.333 -5.33301 -178.333 -8 -183 -8c3.33301 9.33301 5.66602 16.333 6.99902 21c4 12 6.83301 21.333 8.5 28s2.5 18 2.5 34h522l-4 -17l-161 -191l-156 -195l-154 -196l-2 -10
c48 0 112.333 1.83301 193 5.5s132.667 5.5 156 5.5c-3.33301 -9.33301 -5.66602 -16.333 -6.99902 -21c-4.66699 -12.667 -7 -19.334 -7 -20.001c-2.66699 -12.667 -4 -26.667 -4 -42h-562z" />
    <glyph glyph-name="bracketleft" unicode="[" horiz-adv-x="333" 
d="M193 755h210l-11 -55l-109 5l-167 -785l111 5l-12 -55h-210z" />
    <glyph glyph-name="backslash" unicode="\" horiz-adv-x="520" 
d="M446 0c-11.333 0.666992 -21.1689 1.16699 -29.502 1.5s-15.5 0.5 -21.5 0.5h-24c-11.333 -1.33301 -19.666 -2 -24.999 -2l-212 755c12 0 23.833 -0.166992 35.5 -0.5s23.167 -0.5 34.5 -0.5h19c4.66699 0.666992 8.33398 1 11.001 1z" />
    <glyph glyph-name="bracketright" unicode="]" horiz-adv-x="333" 
d="M172 -130h-210l12 55l109 -5l167 785l-111 -5l11 55h210z" />
    <glyph glyph-name="asciicircum" unicode="^" horiz-adv-x="606" 
d="M61 278l292 403h90l120 -403h-95l-93 294l-219 -294h-95z" />
    <glyph glyph-name="underscore" unicode="_" horiz-adv-x="500" 
d="M-84 -160l8 38h500l-8 -38h-500z" />
    <glyph glyph-name="grave" unicode="`" horiz-adv-x="333" 
d="M313 545l-56 -0.000976562l-114 81c-16.667 12 -25.667 18.667 -27 20c-8.66699 8.66699 -13 18.667 -13 30c0 4 0.833008 9.66699 2.5 17s7.5 15.333 17.5 24s21.333 13 34 13c14.667 0 26 -2.66699 34 -8s16.333 -14.666 25 -27.999z" />
    <glyph glyph-name="a" unicode="a" horiz-adv-x="500" 
d="M300 257l-51.999 -17.001c-24.667 -8 -43.834 -16.833 -57.501 -26.5s-24.167 -21.167 -31.5 -34.5s-13 -29.333 -17 -48c-1.33301 -5.33301 -2.33301 -10.166 -3 -14.499s-1 -9.83301 -1 -16.5c0 -14.667 3.33301 -26.5 10 -35.5s17.334 -13.5 32.001 -13.5
c27.333 0 49.666 11.667 66.999 35c13.333 18 24 42.667 32 74zM401.001 82.999c-2 -8 -2.99707 -15 -2.99707 -21c0 -17.333 14.667 -26 44 -26l-5 -23c-14.667 -6 -31.334 -12 -50.001 -18s-34 -9 -46 -9c-48.667 0 -76.334 24.333 -83.001 73
c-18 -22.667 -39.833 -40.5 -65.5 -53.5s-51.834 -19.5 -78.501 -19.5c-36 0 -64.833 8.5 -86.5 25.5s-32.5 41.5 -32.5 73.5c0 8.66699 0.333008 15.334 1 20.001c2 6 3 10.333 3 13c9.33301 44.667 31.333 78.334 66 101.001c28.667 18.667 78.667 36 150 52
c22.667 5.33301 39 9.66602 49 12.999s19.667 7.66602 29 12.999c12 9.33301 19.667 22.333 23 39c1.33301 6.66699 2 12 2 16c0 20 -7.66699 37 -23 51s-33.666 21 -54.999 21c-28.667 0 -58 -8 -88 -24c-24.667 -13.333 -40.334 -26 -47.001 -38h-7v60
c26.667 20.667 58.167 37 94.5 49s71.166 18 104.499 18c44.667 0 81.334 -7.66699 110.001 -23c36 -19.333 54 -47.333 54 -84c0 -8 -1 -17 -3 -27z" />
    <glyph glyph-name="b" unicode="b" 
d="M164 755l35.499 -3c15.667 -1.33301 26.5 -2 32.5 -2c13.333 0 27.666 0.666992 42.999 2c12.667 2 21.667 3 27 3l-73 -345c18.667 24.667 41.334 44 68.001 58s54.334 21 83.001 21c51.333 0 90.333 -16.667 117 -50c24.667 -30.667 37 -71.334 37 -122.001
c0 -7.33301 -0.166992 -15.5 -0.5 -24.5s-2.5 -21.833 -6.5 -38.5c-8 -38 -19 -71.333 -33 -100c-17.333 -36 -38.666 -66 -63.999 -90c-55.333 -52 -117.333 -78 -186 -78c-28.667 0 -53.834 5.83301 -75.501 17.5s-37.167 29.167 -46.5 52.5
c-18.667 -9.33301 -35.667 -18.666 -51 -27.999l-47 -28h-20zM236.999 31c30 0 57.1689 18.502 81.502 55.502s43.166 87.167 56.499 150.5c3.33301 14.667 6.5 31.167 9.5 49.5s4.5 35.166 4.5 50.499c0 27.333 -4 47.666 -12 60.999c-10 17.333 -27 26 -51 26
c-38.667 0 -70.334 -23.667 -95.001 -71c-16 -30 -29 -69.667 -39 -119c-5.33301 -25.333 -9.33301 -47.5 -12 -66.5s-4 -34.833 -4 -47.5c0 -27.333 4.5 -49 13.5 -65s24.833 -24 47.5 -24z" />
    <glyph glyph-name="c" unicode="c" horiz-adv-x="500" 
d="M464 340l-24.001 -0.000976562c0.666992 6 1 10.333 1 13c0 26.667 -7 48.5 -21 65.5s-34 25.5 -60 25.5c-42 0 -79.333 -23.333 -112 -70c-24.667 -36 -42 -78 -52 -126c-6 -28 -9 -53.333 -9 -76c0 -39.333 9.5 -69.333 28.5 -90s49.167 -31 90.5 -31
c19.333 0 39.333 4.16699 60 12.5s38.667 19.833 54 34.5l14 -14l-37 -60c-14.667 -10.667 -37 -19.667 -67 -27s-55.333 -11 -76 -11c-67.333 0 -120.333 15.667 -159 47s-58 76 -58 134c0 20.667 2.33301 41.334 7 62.001c16.667 79.333 53.834 142.5 111.501 189.5
s126.5 70.5 206.5 70.5c32 0 62 -3.5 90 -10.5s52 -18.5 72 -34.5z" />
    <glyph glyph-name="d" unicode="d" 
d="M447 -5l-37.999 3.5c-10.667 1 -19.667 1.5 -27 1.5c-14.667 -0 -27.834 -0.666992 -39.501 -2s-21.167 -2.33301 -28.5 -3l19 88c-17.333 -30 -39.666 -53.667 -66.999 -71s-57.666 -26 -90.999 -26c-54 0 -94 15.667 -120 47c-22.667 27.333 -34 66.666 -34 117.999
c0 24 3.33301 52.667 10 86c14.667 69.333 42.667 127.333 84 174c46 52 100.333 78 163 78c31.333 0 57.166 -5.66699 77.499 -17s34.833 -29.666 43.5 -54.999l71 338l35.5 -3c15.667 -1.33301 26.5 -2 32.5 -2c13.333 0 27.666 0.666992 42.999 2c12.667 2 21.667 3 27 3
zM179.001 234c-4 -18 -7 -33.666 -9 -46.999s-3 -28 -3 -44c0 -28 4.5 -50.333 13.5 -67s24.833 -25 47.5 -25c44.667 0 81.667 35 111 105c11.333 27.333 20.333 57 27 89c2.66699 13.333 5 27.166 7 41.499s3 29.5 3 45.5c0 28 -4 49.333 -12 64
c-10 18.667 -26.333 28 -49 28c-37.333 0 -69 -23.667 -95 -71c-17.333 -32 -31 -71.667 -41 -119z" />
    <glyph glyph-name="e" unicode="e" horiz-adv-x="500" 
d="M342 285c2.66699 10.667 5.16699 24.5 7.5 41.5s3.5 31.833 3.5 44.5c0 22 -3.33301 39.667 -10 53s-18 20 -34 20c-38 0 -68.667 -28.333 -92 -85c-8 -19.333 -15.667 -44 -23 -74h148zM183 237c-6.66699 -28.667 -9.99902 -53.001 -9.99902 -73.001
c0 -35.333 8.66699 -63 26 -83s45.333 -30 84 -30c21.333 0 42.666 3.83301 63.999 11.5s42 18.834 62 33.501l10 -9l-33 -56c-49.333 -30 -100.333 -45 -153 -45c-67.333 0 -118.166 15.833 -152.499 47.5s-51.5 76.834 -51.5 135.501c0 24 3 50.667 9 80
c15.333 71.333 48.166 129.166 98.499 173.499s110.833 66.5 181.5 66.5c56 0 98.333 -14 127 -42c26.667 -26 40 -62.667 40 -110c0 -32 -5.33301 -65.333 -16 -100h-286z" />
    <glyph glyph-name="f" unicode="f" horiz-adv-x="315" 
d="M47 416c4 10 6.66992 17.667 8.00293 23c4 14 6 27.667 6 41h74c12 32.667 23.667 60.334 35 83.001c15.333 31.333 32.666 59 51.999 83c29.333 37.333 58.166 64.666 86.499 81.999s60.166 26 95.499 26h19c5.33301 0 14.666 -1.33301 27.999 -4
c-4.66699 -13.333 -9.66699 -29.333 -15 -48c-7.33301 -27.333 -12.666 -53.666 -15.999 -78.999l-14 -5c-18 10.667 -33.333 18 -46 22s-24.667 6 -36 6c-14.667 0 -26 -0.666992 -34 -2s-15.333 -4.5 -22 -9.5s-11.167 -8.83301 -13.5 -11.5
s-3.83301 -5.83398 -4.5 -9.50098s-1 -9.83398 -1 -18.501c0 -16 1.83301 -35 5.5 -57s7.5 -41.333 11.5 -58h101c-6.66699 -19.333 -11.334 -40.666 -14.001 -63.999h-94l-89 -421c-8.66699 0.666992 -20.667 1.66699 -36 3s-26 2 -32 2
c-13.333 -0 -27.666 -0.666992 -42.999 -2c-12.667 -2 -21.667 -3 -27 -3l89 421h-74z" />
    <glyph glyph-name="g" unicode="g" horiz-adv-x="500" 
d="M44 -111c-2 -9.33301 -3.00391 -17.665 -3.00391 -24.998c0 -28.667 10.833 -50.334 32.5 -65.001s48.834 -22 81.501 -22c35.333 0 66.833 11 94.5 33s44.834 48 51.501 78c2 11.333 3 21.333 3 30c0 29.333 -13.333 48.666 -40 57.999c-16.667 6 -46.667 9 -90 9
c-29.333 0 -51.666 -3 -66.999 -9c-22 -8.66699 -38.667 -25.334 -50 -50.001c-3.33301 -5.33301 -5.66602 -10.166 -6.99902 -14.499s-3.33301 -11.833 -6 -22.5zM523.996 440.001l-89.9971 2.99805c22 -23.333 33 -49.666 33 -78.999v-15c-2 -8 -3.33301 -14 -4 -18
c-11.333 -54 -40.333 -95.333 -87 -124c-43.333 -26.667 -96.333 -40 -159 -40h-17c-13.333 0 -22.5 -2.33301 -27.5 -7s-9 -9 -12 -13s-5 -7.66699 -6 -11s-1.5 -6.16602 -1.5 -8.49902v-4.5c0 -14 6.5 -24.5 19.5 -31.5s30.167 -10.5 51.5 -10.5l86 -3
c42 0 72.833 -8 92.5 -24s29.5 -38.333 29.5 -67c0 -4 -0.166992 -8.83301 -0.5 -14.5s-1.5 -13.5 -3.5 -23.5c-14.667 -68.667 -53.334 -122.334 -116.001 -161.001c-56.667 -34.667 -120.667 -52 -192 -52c-46 0 -84.333 7.33301 -115 22c-39.333 18.667 -59 47 -59 85
c0 8 1 16.667 3 26c5.33301 26 17.5 48.833 36.5 68.5s42.167 34.167 69.5 43.5l17 9l-5 8c-24 9.33301 -36 27.666 -36 54.999c0 4.66699 0.666992 11 2 19c4.66699 20.667 17.667 41.334 39 62.001s41.666 33.334 60.999 38.001l15 4c-65.333 16 -98 54 -98 114
c0 12 1.66699 27.333 5 46c11.333 52.667 40.666 92 87.999 118c42.667 23.333 99 35 169 35l101 -3h121zM231.999 204.999c27.333 0 49.332 16.334 65.999 49.001c10 18.667 19 46.667 27 84c1.33301 6.66699 2.66602 15 3.99902 25s2 19 2 27
c0 19.333 -2.66699 33.666 -8 42.999c-7.33301 12.667 -19 19 -35 19c-27.333 0 -50 -16.333 -68 -49c-11.333 -20.667 -20.666 -48.667 -27.999 -84c-1.33301 -6.66699 -2.66602 -14.5 -3.99902 -23.5s-2 -17.5 -2 -25.5c0 -19.333 3.5 -35 10.5 -47s18.833 -18 35.5 -18z
" />
    <glyph glyph-name="h" unicode="h" 
d="M230 411c25.333 22.667 51.3301 40.6689 77.9971 54.002c31.333 16 60.333 24 87 24c23.333 0 43.833 -3.66699 61.5 -11s32.834 -19 45.501 -35c15.333 -18.667 23 -41.334 23 -68.001c0 -16.667 -2.66699 -36.334 -8 -59.001l-68 -321
c-8.66699 0.666992 -20.667 1.66699 -36 3s-26 2 -32 2c-13.333 -0 -27.666 -0.666992 -42.999 -2c-12.667 -2 -21.667 -3 -27 -3l53 249c8 38.667 12 68.334 12 89.001c0 23.333 -4.66699 41.166 -14 53.499s-24.666 18.5 -45.999 18.5c-40 0 -70.667 -22 -92 -66
c-11.333 -22.667 -22.333 -60.667 -33 -114l-49 -230c-8.66699 0.666992 -20.667 1.66699 -36 3s-26 2 -32 2c-13.333 -0 -27.666 -0.666992 -42.999 -2c-12.667 -2 -21.667 -3 -27 -3l161 760l35.5 -3c15.667 -1.33301 26.5 -2 32.5 -2c13.333 0 27.666 0.666992 42.999 2
c12.667 2 21.667 3 27 3z" />
    <glyph glyph-name="i" unicode="i" horiz-adv-x="278" 
d="M122 480l35.5 -3c15.667 -1.33301 26.5 -2 32.5 -2c13.333 0 27.666 0.666992 42.999 2c12.667 2 21.667 3 27 3l-103 -485c-8.66699 0.666992 -20.667 1.66699 -36 3s-26 2 -32 2c-13.333 -0 -27.666 -0.666992 -42.999 -2c-12.667 -2 -21.667 -3 -27 -3zM246 742
c19.333 0 35.001 -6 47.001 -18s18 -27.333 18 -46c0 -3.33301 -0.666992 -8.33301 -2 -15c-4.66699 -22 -16.334 -40.667 -35.001 -56s-39.334 -23 -62.001 -23c-19.333 0 -34.666 6 -45.999 18s-17 27.333 -17 46c0 3.33301 0.666992 8.33301 2 15
c4.66699 21.333 16.167 39.833 34.5 55.5s38.5 23.5 60.5 23.5z" />
    <glyph glyph-name="j" unicode="j" horiz-adv-x="278" 
d="M157 -8c-7.33301 -33.333 -18.833 -61.001 -34.5 -83.001s-39.5 -44 -71.5 -66c-22.667 -15.333 -46 -27.166 -70 -35.499s-48 -12.5 -72 -12.5l-3 34c34.667 10 60.334 27.667 77.001 53c12.667 20 23.667 52 33 96l107 502l35.5 -3c15.667 -1.33301 26.5 -2 32.5 -2
c13.333 0 27.666 0.666992 42.999 2c12.667 2 21.667 3 27 3zM151 660.999c4.66699 22.667 16 41.834 34 57.501s38 23.5 60 23.5c20.667 0 36.834 -5.5 48.501 -16.5s17.5 -25.833 17.5 -44.5c0 -8.66699 -0.666992 -15.334 -2 -20.001
c-4.66699 -22 -16.334 -40.333 -35.001 -55s-39.667 -22 -63 -22c-18 0 -32.667 6 -44 18s-17 27 -17 45c0 6 0.333008 10.667 1 14z" />
    <glyph glyph-name="k" unicode="k" horiz-adv-x="500" 
d="M169 755l35.5029 -3.00098c15.667 -1.33301 26.5 -2 32.5 -2c13.333 0 27.666 0.666992 42.999 2c12.667 2 21.667 3 27 3l-103 -489c1.33301 -2 4 -2.33301 8 -1c30 24.667 69.333 59.334 118 104.001l120 111l21.5 -3c9.66699 -1.33301 16.5 -2 20.5 -2
c4.66699 0 11.667 0.666992 21 2s16.666 2.33301 21.999 3l-1 -7c-20 -20 -45.333 -42.667 -76 -68c-78.667 -65.333 -121.667 -101.333 -129 -108l53 -128l33 -83.5l30 -82.5l-2 -8c-11.333 0 -20.666 0.333008 -27.999 1c-28.667 2.66699 -44.334 4 -47.001 4
c-11.333 0 -26.333 -0.833008 -45 -2.5s-29.334 -2.5 -32.001 -2.5c-10.667 34 -22.334 68.333 -35.001 103s-26 67 -40 97c-4 10 -6.33301 16 -7 18c-3.33301 6.66699 -8 11.667 -14 15l-49 -233c-8.66699 0.666992 -20.667 1.66699 -36 3s-26 2 -32 2
c-13.333 -0 -27.666 -0.666992 -42.999 -2c-12.667 -2 -21.667 -3 -27 -3z" />
    <glyph glyph-name="l" unicode="l" horiz-adv-x="278" 
d="M157 -5c-8.66699 0.666992 -20.667 1.66699 -36 3s-26 2 -32 2c-13.333 -0 -27.666 -0.666992 -42.999 -2c-12.667 -2 -21.667 -3 -27 -3l161 760l35.5 -3c15.667 -1.33301 26.5 -2 32.5 -2c13.333 0 27.666 0.666992 42.999 2c12.667 2 21.667 3 27 3z" />
    <glyph glyph-name="m" unicode="m" horiz-adv-x="833" 
d="M105 480l35.499 -2.99805c15.667 -1.33301 26.5 -2 32.5 -2c13.333 0 27.666 0.666992 42.999 2c12.667 2 21.667 3 27 3l-16 -75c20 24.667 45.333 44.834 76 60.501s60.334 23.5 89.001 23.5c66.667 0 104.667 -30.333 114 -91c24 27.333 50.667 49.333 80 66
s59.666 25 90.999 25c44 0 76 -9.66699 96 -29s30 -47.333 30 -84c0 -12.667 -0.333008 -22.334 -1 -29.001s-2.66699 -17.667 -6 -33l-68 -319c-8.66699 0.666992 -20.667 1.66699 -36 3s-26 2 -32 2c-13.333 0 -27.666 -0.666992 -42.999 -2c-12.667 -2 -21.667 -3 -27 -3
l58 271c3.33301 16 5.83301 29.667 7.5 41s2.5 22.666 2.5 33.999c0 20.667 -4 36.5 -12 47.5s-22 16.5 -42 16.5c-32.667 0 -57.334 -10 -74.001 -30c-13.333 -16 -24 -41.667 -32 -77l-64 -303c-8.66699 0.666992 -20.667 1.66699 -36 3s-26 2 -32 2
c-13.333 0 -27.666 -0.666992 -42.999 -2c-12.667 -2 -21.667 -3 -27 -3l58 271c3.33301 16 5.83301 29.667 7.5 41s2.5 22.666 2.5 33.999c0 20.667 -4 36.5 -12 47.5s-22 16.5 -42 16.5c-31.333 0 -56.333 -12.667 -75 -38c-14.667 -20 -25.667 -46.667 -33 -80l-62 -292
c-8.66699 0.666992 -20.667 1.66699 -36 3s-26 2 -32 2c-13.333 -0 -27.666 -0.666992 -42.999 -2c-12.667 -2 -21.667 -3 -27 -3z" />
    <glyph glyph-name="n" unicode="n" 
d="M107 480l34.5 -2.99902c15 -1.33301 25.5 -2 31.5 -2c14.667 0 27.667 0.666992 39 2s20.666 2.33301 27.999 3l-16 -74c26.667 25.333 53.667 45 81 59c30.667 16 61 24 91 24c45.333 0 77.666 -9.83301 96.999 -29.5s29 -48.834 29 -87.501
c0 -10.667 -1 -23.667 -3 -39s-4.66699 -30.333 -8 -45l-62 -293c-8.66699 0.666992 -20.667 1.66699 -36 3s-26 2 -32 2c-13.333 -0 -27.666 -0.666992 -42.999 -2c-12.667 -2 -21.667 -3 -27 -3l53 249c8 38.667 12 68.334 12 89.001c0 23.333 -4.66699 41.166 -14 53.499
s-24.666 18.5 -45.999 18.5c-38 0 -68 -22 -90 -66c-12.667 -25.333 -24.334 -63.333 -35.001 -114l-49 -230c-8.66699 0.666992 -20.667 1.66699 -36 3s-26 2 -32 2c-13.333 -0 -27.666 -0.666992 -42.999 -2c-12.667 -2 -21.667 -3 -27 -3z" />
    <glyph glyph-name="o" unicode="o" 
d="M31 227c17.333 80 52.668 143.667 106.001 191s118 71 194 71c64 0 113.667 -15.667 149 -47s53 -75 53 -131c0 -20.667 -2.33301 -41.334 -7 -62.001c-16.667 -78 -51.334 -140.667 -104.001 -188c-56 -50 -122.333 -75 -199 -75c-63.333 0 -112.333 15.667 -147 47
s-52 75.333 -52 132c0 20.667 2.33301 41.334 7 62.001zM180.002 230c-2.66699 -12 -5.33301 -27.5 -8 -46.5s-4 -36.5 -4 -52.5c0 -29.333 4.83301 -53.333 14.5 -72s26.5 -28 50.5 -28c35.333 0 66.666 25 93.999 75c22.667 40.667 40.667 93.667 54 159
c6.66699 28.667 10 56.667 10 84c0 30 -5 53.333 -15 70s-26.333 25 -49 25c-37.333 0 -68.666 -20.667 -93.999 -62c-21.333 -35.333 -39 -86 -53 -152z" />
    <glyph glyph-name="p" unicode="p" 
d="M375 235c8.66699 42 12.999 76.333 12.999 103c0 28.667 -4.66699 50.167 -14 64.5s-24.666 21.5 -45.999 21.5c-38.667 0 -71 -24.333 -97 -73c-17.333 -32 -31 -72.333 -41 -121c-2 -10.667 -4.33301 -25 -7 -43s-4 -33.333 -4 -46c0 -28 4.5 -50 13.5 -66
s25.833 -24 50.5 -24c31.333 3.33301 58.333 21.333 81 54s39.667 76 51 130zM107.999 480l34.498 -2.99902c15 -1.33301 25.5 -2 31.5 -2c14.667 0 27.667 0.666992 39 2s20.666 2.33301 27.999 3l-19 -88c18.667 30.667 41.334 54.5 68.001 71.5s56.667 25.5 90 25.5
c53.333 0 93 -15.667 119 -47c23.333 -28 35 -66.667 35 -116c0 -25.333 -3 -52 -9 -80c-18 -84.667 -52.333 -150.334 -103 -197.001c-45.333 -42 -96 -63 -152 -63c-31.333 0 -56.666 7 -75.999 21c-16 11.333 -28.667 28.333 -38 51l-67 -317
c-8.66699 0.666992 -20.667 1.66699 -36 3s-26 2 -32 2c-13.333 0 -27.666 -0.666992 -42.999 -2c-12.667 -2 -21.667 -3 -27 -3z" />
    <glyph glyph-name="q" unicode="q" 
d="M422 480l34.5 -3.00098c15 -1.33301 25.5 -2 31.5 -2c14.667 0 27.667 0.666992 39 2s20.666 2.33301 27.999 3l-157 -739c-8.66699 0.666992 -20.667 1.66699 -36 3s-26 2 -32 2c-13.333 0 -27.666 -0.666992 -42.999 -2c-12.667 -2 -21.667 -3 -27 -3l67 317
c-16 -20 -35.333 -36.333 -58 -49c-27.333 -15.333 -56 -23 -86 -23c-49.333 0 -87.666 15.333 -114.999 46s-41 72.667 -41 126c0 18.667 0.5 31.834 1.5 39.501s3.16699 19.167 6.5 34.5c17.333 79.333 45.666 141 84.999 185c42.667 48 96 72 160 72
c69.333 0 110.333 -32.333 123 -97zM175 172.999c-0.666992 -3.33301 -1.00293 -7.50098 -1.00293 -12.501v-11.5c0 -27.333 4.33301 -49.333 13 -66c11.333 -21.333 28.333 -32 51 -32c36.667 0 66.667 21.667 90 65c15.333 28.667 28 66 38 112
c2.66699 12 5.33398 27.167 8.00098 45.5s4 35.5 4 51.5c0 30 -4.33301 53 -13 69c-10.667 20 -28.667 30 -54 30c-42 0 -75.667 -32.667 -101 -98c-10 -25.333 -18 -53 -24 -83c-1.33301 -5.33301 -3.16602 -15.166 -5.49902 -29.499s-4.16602 -27.833 -5.49902 -40.5z" />
    <glyph glyph-name="r" unicode="r" horiz-adv-x="389" 
d="M119 480l35.498 -2.99902c15.667 -1.33301 26.5 -2 32.5 -2c13.333 0 27.666 0.666992 42.999 2c12.667 2 21.667 3 27 3l-26 -124c20 41.333 44 72.666 72 93.999c33.333 26 73 39 119 39c-7.33301 -22 -14.166 -45.333 -20.499 -70s-10.833 -46.667 -13.5 -66l-11 -8
c-10.667 8.66699 -26.667 13 -48 13c-49.333 0 -84.666 -22 -105.999 -66c-5.33301 -10.667 -11.333 -29.667 -18 -57c-0.666992 -4 -5 -23.667 -13 -59l-38 -181c-8.66699 0.666992 -20.667 1.66699 -36 3s-26 2 -32 2c-13.333 -0 -27.666 -0.666992 -42.999 -2
c-12.667 -2 -21.667 -3 -27 -3z" />
    <glyph glyph-name="s" unicode="s" horiz-adv-x="389" 
d="M47 122c3.33301 -25.333 13.5 -45.833 30.5 -61.5s38.833 -23.5 65.5 -23.5c18.667 0 37.334 5.83301 56.001 17.5s30 26.167 34 43.5c0.666992 2.66699 1 6.66699 1 12c0 20 -31.167 44 -93.5 72s-93.5 65.333 -93.5 112v21c2 7.33301 3.33301 12.333 4 15
c10.667 49.333 35.667 88.166 75 116.499s83 42.5 131 42.5c25.333 0 50.166 -4 74.499 -12s44.5 -19.667 60.5 -35l-43 -88h-28c0 22.667 -7.33301 42.334 -22 59.001s-33 25 -55 25c-20.667 0 -39.167 -4.83301 -55.5 -14.5s-26.5 -24.167 -30.5 -43.5
c-0.666992 -2.66699 -1 -6.66699 -1 -12c0 -20 31.667 -43 95 -69s95 -63.667 95 -113v-23c-2 -8 -3.33301 -13.667 -4 -17c-10 -48 -35.333 -86.667 -76 -116s-91 -44 -151 -44c-52 0 -95 13.667 -129 41l35 95h25z" />
    <glyph glyph-name="t" unicode="t" horiz-adv-x="333" 
d="M200 131c-5.33301 -22.667 -8.00098 -40.666 -8.00098 -53.999c0 -24 12.667 -36 38 -36c12 0 27 2.33301 45 7l-8 -39c-44 -15.333 -80.333 -23 -109 -23c-36.667 0 -62.667 8.16699 -78 24.5s-23 39.833 -23 70.5c0 19.333 2.66699 41.666 8 66.999l57 268h-68
c7.33301 21.333 12 42.666 14 63.999h68l24 113l56 21.5c14.667 5.66699 46.334 19.167 95.001 40.5l-37 -175h85c-7.33301 -21.333 -12 -42.666 -14 -63.999h-85z" />
    <glyph glyph-name="u" unicode="u" 
d="M445 -5l-37.998 3.5c-10.667 1 -19.667 1.5 -27 1.5c-14.667 -0 -27.834 -0.666992 -39.501 -2s-21.167 -2.33301 -28.5 -3l15 73c-34 -30 -60.333 -50 -79 -60c-26.667 -14.667 -56.667 -22 -90 -22c-28 0 -52.5 5 -73.5 15s-36.833 25.667 -47.5 47
c-4 6.66699 -6.66699 14.167 -8 22.5s-2 17.5 -2 27.5c0 14 2 31.667 6 53c0 0.666992 3.66699 18 11 52l59 277l35.5 -3c15.667 -1.33301 26.5 -2 32.5 -2c13.333 0 27.666 0.666992 42.999 2c12.667 2 21.667 3 27 3l-59 -276
c-0.666992 -3.33301 -2.16699 -11.833 -4.5 -25.5s-3.5 -26.5 -3.5 -38.5v-10c1.33301 -4.66699 2 -7.66699 2 -9c3.33301 -16.667 9.83301 -29.5 19.5 -38.5s23.167 -13.5 40.5 -13.5c38 0 67 17 87 51c10.667 18.667 21.334 51.667 32.001 99l55 261l35.5 -3
c15.667 -1.33301 26.5 -2 32.5 -2c13.333 0 27.666 0.666992 42.999 2c12.667 2 21.667 3 27 3z" />
    <glyph glyph-name="v" unicode="v" horiz-adv-x="500" 
d="M260 133l99 170l97 177l39 -3l40 3c-0.666992 -4 -2.33398 -8.16699 -5.00098 -12.5l-7 -11.5c-15.333 -22 -28.333 -41.333 -39 -58c-2.66699 -4 -15 -23.667 -37 -59l-105 -170c-35.333 -57.333 -68.333 -115.333 -99 -174l-29.5 3.5
c-8.33301 1 -15.166 1.5 -20.499 1.5c-11.333 -0 -21.5 -0.666992 -30.5 -2s-16.167 -2.33301 -21.5 -3c-12 95.333 -23 176 -33 242c-12 83.333 -25.333 164.333 -40 243c10.667 0 25 -0.833008 43 -2.5s29 -2.5 33 -2.5c12 0 21.667 0.333008 29 1
c30 2.66699 46.333 4 49 4z" />
    <glyph glyph-name="w" unicode="w" horiz-adv-x="778" 
d="M243 137l91 171.5c24.667 47.667 52.667 104.834 84 171.501c8.66699 -1.33301 18.334 -2.5 29.001 -3.5s19.334 -1.5 26.001 -1.5c12 0 23 0.666992 33 2s18 2.33301 24 3l29 -343c64.667 117.333 123 231.666 175 342.999l39 -3l40 3l-90 -153l-92 -163
c-34 -62 -63.667 -118.333 -89 -169l-30.5 3.5c-8.33301 1 -15.5 1.5 -21.5 1.5c-12 -0 -22.667 -0.666992 -32 -2s-17 -2.33301 -23 -3l-31 331l-87 -162c-31.333 -58.667 -60 -115 -86 -169l-31 3.5c-8.66699 1 -16 1.5 -22 1.5c-12 -0 -22.833 -0.666992 -32.5 -2
s-17.5 -2.33301 -23.5 -3c0 50.667 -2.33301 101.5 -7 152.5s-11.5 105.667 -20.5 164l-25.5 168.5c10 0 23.667 -0.833008 41 -2.5s27.666 -2.5 30.999 -2.5c11.333 0 20.666 0.333008 27.999 1c29.333 2.66699 45 4 47 4z" />
    <glyph glyph-name="x" unicode="x" horiz-adv-x="500" 
d="M202 169l-54.999 -63.001l-93 -109l-39 3l-41 -3l206 221l-47 129l-52 133c11.333 0 26.5 -0.833008 45.5 -2.5s30.5 -2.5 34.5 -2.5c12 0 28 0.833008 48 2.5s31.667 2.5 35 2.5l25 -78c5.33301 -16.667 14.666 -43 27.999 -79l69 77c24 26.667 46.667 53.334 68 80.001
l44 -3l46 3l-207 -206l35 -94l72 -185c-11.333 0 -26.5 0.833008 -45.5 2.5s-30.833 2.5 -35.5 2.5c-12 0 -27.667 -0.833008 -47 -2.5s-31 -2.5 -35 -2.5z" />
    <glyph glyph-name="y" unicode="y" horiz-adv-x="500" 
d="M171 -1l-99.998 480.999c11.333 0 26 -0.833008 44 -2.5s28.333 -2.5 31 -2.5c11.333 0 20.666 0.333008 27.999 1c30 2.66699 46.333 4 49 4c7.33301 -53.333 15.666 -105.666 24.999 -156.999l29 -154l60 102l60 103c27.333 46.667 47.333 82 60 106l40 -3l42 3
l-150 -229l-108 -168l-105.5 -168l-102.5 -174l-41 3l-43 -3z" />
    <glyph glyph-name="z" unicode="z" horiz-adv-x="500" 
d="M514 441l-115 -124l-78 -85.5l-78 -84.5c-12 -13.333 -37.333 -43 -76 -89c42.667 0 92 1.66699 148 5s93 5 111 5l-12 -34c-0.666992 -5.33301 -1.16699 -11.5 -1.5 -18.5s-0.5 -12.167 -0.5 -15.5h-432l9 41l115 125l114 127l114 129c-36 0 -79.333 -1.66699 -130 -5
s-84.667 -5 -102 -5l12 34c0.666992 5.33301 1.16699 11.5 1.5 18.5s0.5 12.167 0.5 15.5h408z" />
    <glyph glyph-name="braceleft" unicode="{" horiz-adv-x="333" 
d="M197 615c6.66699 34 15.667 59.335 27 76.002c9.33301 14 22.333 25.667 39 35c20 12 41.167 19.833 63.5 23.5s46.166 5.5 71.499 5.5h20c-37.333 -9.33301 -64.333 -23.333 -81 -42s-29 -46.667 -37 -84l-40 -185c-8 -39.333 -20.333 -68.333 -37 -87
c-20 -22 -50.667 -37.667 -92 -47c28.667 -6.66699 48.834 -16.834 60.501 -30.501s17.5 -31.834 17.5 -54.501c0 -6.66699 -0.666992 -14.5 -2 -23.5s-3 -19.5 -5 -31.5l-37 -175c-4 -17.333 -6 -32.666 -6 -45.999c0 -20.667 5.5 -37.5 16.5 -50.5
s29.167 -22.5 54.5 -28.5c-62 0 -104 5.33301 -126 16c-27.333 13.333 -41 39 -41 77c0 16 2.66699 36.667 8 62l36 167c4 18 6 34 6 48c0 19.333 -5.16699 34.166 -15.5 44.499s-29.166 18.833 -56.499 25.5c15.333 3.33301 29 7.83301 41 13.5s24.167 14.167 36.5 25.5
s21.166 23.333 26.499 36c3.33301 7.33301 7.33301 21.333 12 42z" />
    <glyph glyph-name="bar" unicode="|" horiz-adv-x="606" 
d="M370 755h86l-160 -755h-86z" />
    <glyph glyph-name="braceright" unicode="}" horiz-adv-x="333" 
d="M259 432c-4 -18 -6 -33.6689 -6 -47.002c0 -19.333 5.16699 -34.166 15.5 -44.499s29.166 -18.833 56.499 -25.5c-15.333 -3.33301 -29 -7.83301 -41 -13.5s-24 -14.167 -36 -25.5s-20.5 -22.5 -25.5 -33.5s-9.5 -25.833 -13.5 -44.5l-40 -188
c-5.33301 -25.333 -12 -45.666 -20 -60.999c-11.333 -22.667 -27.666 -40 -48.999 -52s-46.333 -20 -75 -24c-15.333 -2 -41.333 -3 -78 -3c38 8.66699 65.333 22.167 82 40.5s29 46.5 37 84.5l39 186c8.66699 39.333 21.334 68.333 38.001 87c19.333 22 50 37.667 92 47
c-28.667 6.66699 -48.834 16.667 -60.501 30s-17.5 31.333 -17.5 54c0 6.66699 0.5 14.5 1.5 23.5s2.83301 19.833 5.5 32.5l37 175c3.33301 18 5 32.667 5 44c0 22 -5.5 39.5 -16.5 52.5s-29.167 22.5 -54.5 28.5c62 0 104 -5.33301 126 -16c27.333 -13.333 41 -39 41 -77
c0 -16 -2.66699 -37.333 -8 -64z" />
    <glyph glyph-name="asciitilde" unicode="~" horiz-adv-x="606" 
d="M567 294c-25.333 -33.333 -49.666 -59 -72.999 -77c-31.333 -24 -63 -36 -95 -36c-22 0 -49.667 8 -83 24l-40 20c-29.333 12 -44.666 18.333 -45.999 19c-12 4 -22.667 6 -32 6c-21.333 0 -43 -10 -65 -30c-10.667 -10 -27.334 -29.333 -50.001 -58l-36 55
c35.333 46.667 67.333 79 96 97c24.667 15.333 49.667 23 75 23c26 0 62.667 -11.5 110 -34.5s78 -34.5 92 -34.5c20 0 40.667 9 62 27c15.333 12.667 31.666 30.667 48.999 54z" />
    <glyph glyph-name="c128" horiz-adv-x="815" 
d="M756 208c-14 -68.667 -24.6699 -115.333 -32.0029 -140c-14.667 -50 -32.334 -87.667 -53.001 -113c-28 -34.667 -59.667 -61 -95 -79s-75.333 -29.667 -120 -35l-5 47c32 8 57.667 25.667 77 53c15.333 22 29.333 56.333 42 103c5.33301 20.667 16 68.667 32 144
c4 18 6 34.333 6 49c0 56.667 -30.667 85 -92 85c-41.333 0 -91.666 -14.333 -150.999 -43l-60 -284c-10 0 -24 0.833008 -42 2.5s-28.667 2.5 -32 2.5c-10.667 0 -25.167 -0.833008 -43.5 -2.5s-29.166 -2.5 -32.499 -2.5l131 615c-35.333 0 -66.666 -1.16699 -93.999 -3.5
s-59 -5.83301 -95 -10.5c3.33301 9.33301 5.66602 16.333 6.99902 21c4 11.333 6.83301 21 8.5 29s2.5 19.667 2.5 35h515c-5.33301 -14 -10.333 -28 -15 -42c-2 -11.333 -3 -22 -3 -32v-11c-46.667 5.33301 -80.167 9 -100.5 11s-45.5 3 -75.5 3l-54 -251
c32.667 16 65.834 28.167 99.501 36.5s64.834 12.5 93.501 12.5c58 0 103.5 -13.167 136.5 -39.5s49.5 -63.833 49.5 -112.5c0 -7.33301 -0.333008 -15 -1 -23s-2 -16.333 -4 -25z" />
    <glyph glyph-name="c129" horiz-adv-x="481" 
d="M548 887c-2.66699 -11.333 -8.00098 -20.999 -16.001 -28.999c-4.66699 -4.66699 -21 -15 -49 -31l-148 -81h-56l160 149c12 11.333 20.667 18.666 26 21.999c14 9.33301 30 14 48 14c12.667 0 22.334 -4 29.001 -12s8.66699 -18.667 6 -32zM536.999 595.001
c-44 5.33301 -85 8.99902 -123 10.999s-73.667 3 -107 3l-130 -614c-10 0 -23.667 0.833008 -41 2.5s-28 2.5 -32 2.5c-11.333 0 -26.333 -0.833008 -45 -2.5s-29.334 -2.5 -32.001 -2.5l146 686h383c-3.33301 -9.33301 -5.66602 -16.333 -6.99902 -21
c-4 -11.333 -6.66699 -20.166 -8 -26.499s-2.33301 -11.833 -3 -16.5s-1 -12 -1 -22z" />
    <glyph glyph-name="c141" horiz-adv-x="611" 
d="M605 887c-2.66699 -11.333 -8.00098 -20.999 -16.001 -28.999c-4.66699 -4.66699 -21 -15 -49 -31l-148 -81h-56l160 149c12 11.333 20.667 18.666 26 21.999c14 9.33301 30 14 48 14c12.667 0 22.334 -4 29.001 -12s8.66699 -18.667 6 -32zM551.999 -4.99902
c-10.667 0 -24.834 0.833008 -42.501 2.5s-28.167 2.5 -31.5 2.5c-10.667 0 -25.167 -0.833008 -43.5 -2.5s-29.166 -2.5 -32.499 -2.5l-159 318l-68 -318c-10.667 0 -24.834 0.833008 -42.501 2.5s-28.167 2.5 -31.5 2.5c-10.667 0 -25.167 -0.833008 -43.5 -2.5
s-29.166 -2.5 -32.499 -2.5l146 686c10 0 23.833 -0.833008 41.5 -2.5s28.5 -2.5 32.5 -2.5c9.33301 0 23 0.833008 41 2.5s29.667 2.5 35 2.5l-67 -313l327 313c8.66699 -0.666992 18.167 -1.66699 28.5 -3s18.5 -2 24.5 -2c11.333 0 20.833 0.5 28.5 1.5l25.5 3.5l-2 -8
l-201 -172l-117 -105l187 -387z" />
    <glyph glyph-name="c142" horiz-adv-x="815" 
d="M710 -5c-10.667 0 -24.835 0.833008 -42.502 2.5s-28.167 2.5 -31.5 2.5c-10.667 0 -25.167 -0.833008 -43.5 -2.5s-29.166 -2.5 -32.499 -2.5l49 230c2 9.33301 3 18 3 26c0 24 -8 41.833 -24 53.5s-38.333 17.5 -67 17.5c-22.667 0 -47.167 -3.66699 -73.5 -11
s-53.833 -18 -82.5 -32l-60 -284c-10 0 -24 0.833008 -42 2.5s-28.667 2.5 -32 2.5c-10.667 0 -25.167 -0.833008 -43.5 -2.5s-29.166 -2.5 -32.499 -2.5l131 615c-35.333 0 -66.666 -1.16699 -93.999 -3.5s-59 -5.83301 -95 -10.5
c3.33301 9.33301 5.66602 16.333 6.99902 21c4 11.333 6.83301 21 8.5 29s2.5 19.667 2.5 35h515c-5.33301 -14 -10.333 -28 -15 -42c-2 -11.333 -3 -22 -3 -32v-11c-46.667 5.33301 -80.167 9 -100.5 11s-45.5 3 -75.5 3l-54 -251c32 16 65.5 28 100.5 36
s69.167 12 102.5 12c53.333 0 97 -10.833 131 -32.5s51 -53.5 51 -95.5v-16c-2 -8 -3.33301 -14 -4 -18z" />
    <glyph glyph-name="c143" horiz-adv-x="758" 
d="M632 0l-245.999 -0.000976562l-16 -75l-55 3l-57 -3l16 75h-248l145 681c25.333 -3.33301 50 -5 74 -5c10.667 0 25.167 0.833008 43.5 2.5s29.166 2.5 32.499 2.5l-129 -606c12 -1.33301 29.833 -2.16602 53.5 -2.49902s43.167 -0.5 58.5 -0.5h41
c27.333 0 53.5 0.333008 78.5 1l74.5 2l129 606c9.33301 -0.666992 21.833 -1.66699 37.5 -3s27.5 -2 35.5 -2c12 0 21.667 0.333008 29 1c30 2.66699 46 4 48 4z" />
    <glyph glyph-name="c144" 
d="M448 -8c-7.33301 -33.333 -18.8359 -60.999 -34.5029 -82.999s-39.5 -44 -71.5 -66c-22.667 -15.333 -46 -27.166 -70 -35.499s-48 -12.5 -72 -12.5l-3 34c34.667 10 60.334 27.667 77.001 53c12.667 20 23.667 52 33 96l57 266c8 38.667 12 68.334 12 89.001
c0 23.333 -4.66699 41.166 -14 53.499s-24.666 18.5 -45.999 18.5c-40 0 -70.667 -22 -92 -66c-11.333 -22.667 -22.333 -60.667 -33 -114l-49 -230c-8.66699 0.666992 -20.667 1.66699 -36 3s-26 2 -32 2c-13.333 0 -27.666 -0.666992 -42.999 -2
c-12.667 -2 -21.667 -3 -27 -3l117 553h-49c7.33301 21.333 12 42.666 14 63.999h49l30 143l35.5 -3c15.667 -1.33301 26.5 -2 32.5 -2c13.333 0 27.666 0.666992 42.999 2c12.667 2 21.667 3 27 3l-30 -143h152c-7.33301 -21.333 -12 -42.666 -14 -63.999h-152l-29 -137
c25.333 22.667 51.333 40.667 78 54c31.333 16 60.333 24 87 24c23.333 0 43.833 -3.66699 61.5 -11s32.834 -19 45.501 -35c15.333 -18.667 23 -41.334 23 -68.001c0 -16.667 -2.66699 -36.334 -8 -59.001z" />
    <glyph glyph-name="c157" horiz-adv-x="500" 
d="M506 686c-2.66699 -11.333 -8.00098 -21 -16.001 -29c-4.66699 -4.66699 -21 -15 -49 -31l-148 -81h-56l161 149c14.667 14 26 23 34 27c11.333 6 24.333 9 39 9c12.667 0 22.334 -4 29.001 -12s8.66699 -18.667 6 -32zM439.999 -5
c-11.333 0 -20.6592 0.333984 -27.9922 1.00098c-28.667 2.66699 -44.334 4 -47.001 4c-12 0 -27.333 -0.833008 -46 -2.5s-29 -2.5 -31 -2.5c-10 32 -21.333 65 -34 99c-14.667 39.333 -28.334 73 -41.001 101c-3.33301 9.33301 -6.33301 16 -9 20s-6.66699 8 -12 12
l-49 -232c-9.33301 0 -22.333 0.833008 -39 2.5s-26.334 2.5 -29.001 2.5c-10.667 0 -24.334 -0.833008 -41.001 -2.5s-26.334 -2.5 -29.001 -2.5l103 485c21.333 -2.66699 35.666 -4.16699 42.999 -4.5s15.666 -0.5 24.999 -0.5c13.333 0 23.833 0.333008 31.5 1
s20.5 2 38.5 4l-45 -214c1.33301 -2 4 -2.33301 8 -1c30 24.667 69.333 59.334 118 104.001l120 111c4 0 10.667 -0.666992 20 -2s16.666 -2 21.999 -2c4.66699 0 11.667 0.666992 21 2s16.666 2 21.999 2l-1 -6c-20.667 -20.667 -46 -43.334 -76 -68.001
c-75.333 -62.667 -118.666 -99.334 -129.999 -110.001l54 -127c19.333 -47.333 40 -103 62 -167z" />
    <glyph glyph-name="c158" 
d="M449 -5c-8.66699 0.666992 -20.6699 1.66895 -36.0029 3.00195s-26 2 -32 2c-13.333 0 -27.666 -0.666992 -42.999 -2c-12.667 -2 -21.667 -3 -27 -3l53 249c8 38.667 12 68.334 12 89.001c0 23.333 -4.66699 41.166 -14 53.499s-24.666 18.5 -45.999 18.5
c-40 0 -70.667 -22 -92 -66c-11.333 -22.667 -22.333 -60.667 -33 -114l-49 -230c-8.66699 0.666992 -20.667 1.66699 -36 3s-26 2 -32 2c-13.333 0 -27.666 -0.666992 -42.999 -2c-12.667 -2 -21.667 -3 -27 -3l117 553h-49c7.33301 21.333 12 42.666 14 63.999h49l30 143
l35.5 -3c15.667 -1.33301 26.5 -2 32.5 -2c13.333 0 27.666 0.666992 42.999 2c12.667 2 21.667 3 27 3l-30 -143h152c-7.33301 -21.333 -12 -42.666 -14 -63.999h-152l-29 -137c25.333 22.667 51.333 40.667 78 54c31.333 16 60.333 24 87 24
c23.333 0 43.833 -3.66699 61.5 -11s32.834 -19 45.501 -35c15.333 -18.667 23 -41.334 23 -68.001c0 -16.667 -2.66699 -36.334 -8 -59.001z" />
    <glyph glyph-name="nonbreakingspace" unicode="&#xa0;" horiz-adv-x="250" 
 />
    <glyph glyph-name="exclamdown" unicode="&#xa1;" horiz-adv-x="667" 
d="M658 831c-20 -32 -45.6689 -57.5 -77.002 -76.5s-66.666 -28.5 -105.999 -28.5c-38.667 0 -69.5 9.5 -92.5 28.5s-37.833 44.5 -44.5 76.5l35 17c19.333 -42 58 -63 116 -63c58.667 0 105.334 21 140.001 63zM743.998 681l-151.002 -203.002l-193 -270
c-66 -95.333 -113 -166 -141 -212c-3.33301 0 -9.66602 0.666992 -18.999 2s-16.666 2 -21.999 2l-44 -3c19.333 24.667 46 61 80 109l50 72c-11.333 42.667 -29.333 96 -54 160l-74 182c-32 78.667 -53 132.334 -63 161.001c9.33301 0 23.666 -1 42.999 -3s34.333 -3 45 -3
c9.33301 0 24.333 1 45 3s36.334 3 47.001 3c4.66699 -18.667 17.667 -56.667 39 -114c51.333 -140 78.333 -214.667 81 -224c24 27.333 62.667 80.333 116 159c2 2.66699 41.333 62.334 118 179.001l48 -3z" />
    <glyph glyph-name="cent" unicode="&#xa2;" horiz-adv-x="500" 
d="M522 630c-20 -31.333 -45.666 -56.666 -76.999 -75.999s-66.333 -29 -105 -29c-38 0 -68.833 9.66699 -92.5 29s-38.834 44.666 -45.501 75.999l36 17c18 -42 56.333 -63 115 -63c28.667 0 54.667 5 78 15s44.333 26 63 48zM539.001 479l-149.999 -228.001l-162 -254.5
l-154 -255.5c-10 2 -20.333 3 -31 3h-10h-20.5c-6.33301 0 -13.833 -1 -22.5 -3l182 258l-100 480c8 0 22 -0.666992 42 -2s31 -2 33 -2c8 0 22.5 0.666992 43.5 2s32.167 2 33.5 2c7.33301 -52.667 15.666 -104.667 24.999 -156c7.33301 -41.333 17 -92.666 29 -153.999
l60 102l120 208l40 -2z" />
    <glyph glyph-name="sterling" unicode="&#xa3;" horiz-adv-x="333" 
d="M236 166c-12 -56 -20.667 -92.666 -26 -109.999c-13.333 -42.667 -30 -76.334 -50 -101.001c-28 -34.667 -59.667 -61 -95 -79s-75.333 -29.667 -120 -35l-5 47c52.667 13.333 89.667 55.333 111 126c6 19.333 16.333 64 31 134l114 533c10 0 23.833 -0.833008 41.5 -2.5
s28.5 -2.5 32.5 -2.5c9.33301 0 23 0.833008 41 2.5s29.667 2.5 35 2.5z" />
    <glyph glyph-name="currency" unicode="&#xa4;" 
d="M539 155l-80.001 -66.998l-38 48c-47.333 -29.333 -96 -44 -146 -44c-27.333 0 -51.5 3.33301 -72.5 10s-40.833 18 -59.5 34l-58 -48l-52 67l58 48c-12.667 29.333 -19 57.666 -19 84.999c0 15.333 2.33301 33.833 7 55.5s12.834 44.167 24.501 67.5
s26.834 45.333 45.501 66l-38 47l81 68l39 -48c22.667 14 47.167 24.667 73.5 32s52.166 11 77.499 11c48 0 89.667 -14.333 125 -43l58 48l51 -68l-58 -47c14 -25.333 21 -54 21 -86c0 -16.667 -2.33301 -35.834 -7 -57.501s-13 -44 -25 -67s-27.333 -44.167 -46 -63.5z
M467.999 340.002c2 10 3 19.333 3 28c0 32 -10.333 59 -31 81s-47.667 33 -81 33c-40.667 0 -78 -13.667 -112 -41s-55.333 -61.666 -64 -102.999c-2 -10 -3 -20 -3 -30c0 -32.667 11 -59.334 33 -80.001s50.333 -31 85 -31c39.333 0 75.5 14 108.5 42s53.5 61.667 61.5 101
z" />
    <glyph glyph-name="yen" unicode="&#xa5;" horiz-adv-x="481" 
d="M541 609h-234.002l-130 -614c-10 0 -23.667 0.833008 -41 2.5s-28 2.5 -32 2.5c-11.333 0 -26.333 -0.833008 -45 -2.5s-29.334 -2.5 -32.001 -2.5l146 686h205c41.333 0 71.333 1.66699 90 5c34.667 6 62.334 19.333 83.001 40h15
c-5.33301 -12.667 -9.16602 -23 -11.499 -31s-5.16602 -20.333 -8.49902 -37s-5 -33 -5 -49z" />
    <glyph glyph-name="brokenbar" unicode="&#xa6;" horiz-adv-x="606" 
d="M396 472h-86l60 283h86zM296 0h-86l60 283h86z" />
    <glyph glyph-name="section" unicode="&#xa7;" 
d="M514 300c-5.33301 -26.667 -17.999 -52 -37.999 -76c-16 -19.333 -38 -39.333 -66 -60c25.333 -20 38 -47.667 38 -83c0 -8.66699 -1 -17 -3 -25c-8 -35.333 -26 -67.666 -54 -96.999s-60.667 -50.666 -98 -63.999c-12 -4 -29 -8 -51 -12s-38.667 -6 -50 -6
c-32.667 0 -63.667 4.16699 -93 12.5s-55 21.166 -77 38.499c8 16.667 15.5 34 22.5 52s12.833 35.667 17.5 53h18c10 -33.333 25 -58.833 45 -76.5s47.333 -26.5 82 -26.5c24.667 0 49.167 7.66699 73.5 23s39.166 35 44.499 59c1.33301 8 2 13.333 2 16
c0 12.667 -4.33301 24 -13 34c-6 6.66699 -16 14.667 -30 24c-7.33301 4.66699 -34 18 -80 40c-37.333 18 -69.333 37 -96 57c-10 7.33301 -17.167 17.5 -21.5 30.5s-6.5 27.5 -6.5 43.5s1.33301 29.667 4 41c6 26.667 19.667 52.834 41 78.501s45.666 46.5 72.999 62.5
c-19.333 19.333 -29 42 -29 68c0 8 1 16.667 3 26c11.333 51.333 37.833 91.833 79.5 121.5s88.834 44.5 141.501 44.5c40 0 70.5 -3.16699 91.5 -9.5s44.833 -20.833 71.5 -43.5l-30 -40l-30 -43h-13c0 20 -7 37.667 -21 53c-18.667 20 -46 30 -82 30
c-21.333 0 -41 -6.66699 -59 -20s-29.333 -30.666 -34 -51.999c-0.666992 -2.66699 -1 -7 -1 -13c0 -20.667 12.333 -39.334 37 -56.001l63 -34c44 -24.667 66.333 -37.334 67 -38.001c19.333 -12 33.333 -23.667 42 -35c14.667 -20.667 22 -44.334 22 -71.001
c0 -8.66699 -1 -17.667 -3 -27zM424.001 246c0.666992 2.66699 1.00293 6.66895 1.00293 12.002c0 22.667 -18 44.334 -54 65.001c-23.333 12 -39 20.333 -47 25c-27.333 15.333 -45.333 25.666 -54 30.999c-20 12 -37 23.667 -51 35c-25.333 -18 -41 -39.667 -47 -65
c-0.666992 -2.66699 -1 -6.33398 -1 -11.001c0 -22 15 -42.667 45 -62c4 -2.66699 28.667 -15 74 -37c13.333 -6.66699 26.666 -13 39.999 -19c19.333 -10 37.666 -21.333 54.999 -34c11.333 10 20.166 19.667 26.499 29s10.5 19.666 12.5 30.999z" />
    <glyph glyph-name="dieresis" unicode="&#xa8;" horiz-adv-x="500" 
d="M552 819c-3.33301 -17.333 -12.6689 -32.334 -28.002 -45.001s-31.666 -19 -48.999 -19c-16 0 -28.833 5.16699 -38.5 15.5s-14.5 22.833 -14.5 37.5c0 4.66699 0.333008 8.33398 1 11.001c4 17.333 14 32.666 30 45.999s32.667 20 50 20
c14.667 0 26.834 -5.16699 36.501 -15.5s14.5 -22.833 14.5 -37.5c0 -3.33301 -0.666992 -7.66602 -2 -12.999zM342.997 818.999c-3.33301 -18 -12.667 -33.167 -28 -45.5s-32.333 -18.5 -51 -18.5c-14 0 -26.333 5.33301 -37 16s-16 23.334 -16 38.001
c0 4 0.333008 7.33301 1 10c4 17.333 14 32.666 30 45.999s32.667 20 50 20c15.333 0 28 -5 38 -15s15 -22.667 15 -38c0 -2 -0.666992 -6.33301 -2 -13zM408.996 -0.000976562l-381.002 -0.00195312l145 681h381c-3.33301 -9.33301 -5.66602 -16.333 -6.99902 -21
c-4 -11.333 -6.66699 -20.166 -8 -26.499s-2.33301 -11.833 -3 -16.5s-1 -12 -1 -22c-33.333 4.66699 -67.666 8.16699 -102.999 10.5s-77 3.5 -125 3.5l-45 -215h104c26.667 0 47 0.5 61 1.5s35.333 3.5 64 7.5c-4 -9.33301 -6.66699 -16.333 -8 -21
c-3.33301 -8 -5.66602 -16 -6.99902 -24s-2.33301 -14.333 -3 -19s-1 -12 -1 -22c-12.667 2 -29.334 4 -50.001 6s-44.334 3 -71.001 3h-104l-54 -254c47.333 0 89.5 1.16699 126.5 3.5s72.833 5.83301 107.5 10.5c-3.33301 -9.33301 -5.66602 -16.333 -6.99902 -21
c-4 -11.333 -6.33301 -18.666 -7 -21.999c-2.66699 -12.667 -4 -27 -4 -43z" />
    <glyph glyph-name="copyright" unicode="&#xa9;" horiz-adv-x="750" 
d="M745 339c-20.667 -98 -72.665 -182 -155.998 -252s-173 -105 -269 -105c-82.667 0 -149.834 26.5 -201.501 79.5s-77.5 120.167 -77.5 201.5c0 19.333 0.5 33.166 1.5 41.499s3.16699 19.833 6.5 34.5c21.333 100 73.166 185 155.499 255s171.833 105 268.5 105
c82.667 0 150.167 -26.5 202.5 -79.5s78.5 -120.167 78.5 -201.5c0 -25.333 -3 -51.666 -9 -78.999zM685.002 339c4.66699 22.667 6.99902 45.6689 6.99902 69.002c0 68.667 -21.167 125.167 -63.5 169.5s-98.166 66.5 -167.499 66.5c-80.667 0 -155 -29.667 -223 -89
s-111 -131.333 -129 -216c-2 -8.66699 -3.66699 -19.834 -5 -33.501s-2 -24.834 -2 -33.501c0 -68 21.167 -124.167 63.5 -168.5s97.833 -66.5 166.5 -66.5c81.333 0 156 29.333 224 88s111 130 129 214zM572.001 514.002l-25.001 -58h-8c-7.33301 16 -18 28.667 -32 38
s-30.333 14 -49 14c-43.333 0 -80.333 -18 -111 -54c-26 -30.667 -44 -69.667 -54 -117c-4 -19.333 -6 -37.333 -6 -54c0 -34 8.66699 -60.667 26 -80s43 -29 77 -29c16.667 0 35.167 4 55.5 12s37.833 18 52.5 30l6 -3l-22 -48c-17.333 -8.66699 -36 -15 -56 -19
s-39.667 -6 -59 -6c-52 0 -93.833 13.167 -125.5 39.5s-47.5 62.166 -47.5 107.499c0 11.333 1.66699 25.333 5 42c14.667 70 47.334 123.667 98.001 161c46 34 101.667 51 167 51c21.333 0 40.833 -2.16699 58.5 -6.5s34.167 -11.166 49.5 -20.499z" />
    <glyph glyph-name="ordfeminine" unicode="&#xaa;" horiz-adv-x="667" 
d="M723 650l-40.001 -93.001h-14c-13.333 25.333 -33.666 45.333 -60.999 60s-57.333 22 -90 22c-67.333 0 -126.666 -25 -177.999 -75c-44.667 -43.333 -79 -100.333 -103 -171h224c15.333 0 29.166 0.333008 41.499 1s29.833 2.66699 52.5 6
c-6.66699 -13.333 -11.167 -26.5 -13.5 -39.5s-3.5 -27.167 -3.5 -42.5c-24 4.66699 -54.667 7 -92 7h-228c-6 -30 -9 -58 -9 -84c0 -62.667 15.667 -111.5 47 -146.5s78 -52.5 140 -52.5c30.667 0 63.834 7 99.501 21s67.5 32 95.5 54l12 -6l-41 -86
c-32 -14.667 -65.667 -25.5 -101 -32.5s-70.666 -10.5 -105.999 -10.5c-94.667 0 -170.334 23.5 -227.001 70.5s-85 110.833 -85 191.5c0 16.667 0.333008 29.334 1 38.001s3 21 7 37c26 124.667 85.333 220.667 178 288c84 61.333 184.333 92 301 92
c34.667 0 69.167 -4.16699 103.5 -12.5s64.166 -20.5 89.499 -36.5z" />
    <glyph glyph-name="guillemotleft" unicode="&#xab;" horiz-adv-x="500" 
d="M400 116c-13.333 -5.33301 -26.334 -11.665 -39.001 -18.998c-7.33301 -4.66699 -19.666 -13.334 -36.999 -26.001l-51 122c-8.66699 20.667 -20 45 -34 73l168 197c8 -8.66699 16.667 -16.667 26 -24c3.33301 -2.66699 13.333 -9.33398 30 -20.001l-72.5 -74.5
l-71.5 -77.5l39 -76c12.667 -24 26.667 -49 42 -75zM251.999 116.001c-13.333 -5.33301 -26.334 -11.665 -39.001 -18.998c-7.33301 -4.66699 -19.666 -13.334 -36.999 -26.001l-51 122c-8.66699 20.667 -20 45 -34 73l168 197c8 -8.66699 16.667 -16.667 26 -24
c3.33301 -2.66699 13.333 -9.33398 30 -20.001l-72.5 -74.5l-71.5 -77.5l39 -76c12.667 -24 26.667 -49 42 -75z" />
    <glyph glyph-name="logicalnot" unicode="&#xac;" horiz-adv-x="606" 
d="M529 114h-86l42 196h-418l18 86h504z" />
    <glyph glyph-name="minus" unicode="&#xad;" horiz-adv-x="333" 
d="M388 582h-294l15 72h294z" />
    <glyph glyph-name="registered" unicode="&#xae;" horiz-adv-x="750" 
d="M745 342c-21.333 -100 -73.333 -185.001 -156 -255.001s-172 -105 -268 -105c-83.333 0 -150.833 26.5 -202.5 79.5s-77.5 120.167 -77.5 201.5c0 25.333 3 51.666 9 78.999c21.333 98.667 73.166 182.834 155.499 252.501s171.833 104.5 268.5 104.5
c82.667 0 149.834 -26.5 201.501 -79.5s77.5 -120.167 77.5 -201.5c0 -19.333 -0.5 -33.166 -1.5 -41.499s-3.16699 -19.833 -6.5 -34.5zM685 341.999c2 8.66699 3.66699 19.832 5 33.499s2 24.834 2 33.501c0 68 -21.167 124.167 -63.5 168.5s-97.833 66.5 -166.5 66.5
c-81.333 0 -155.833 -29.167 -223.5 -87.5s-110.5 -129.833 -128.5 -214.5c-4.66699 -22.667 -7 -46 -7 -70c0 -68 21.167 -124.167 63.5 -168.5s97.833 -66.5 166.5 -66.5c80.667 0 155 29.667 223 89s111 131.333 129 216zM519 139.997l-45 3l-45 -3l-64 188h-18l-40 -188
l-39 3l-39 -3l85 401h149c30.667 0 53.834 -6 69.501 -18s23.5 -29.667 23.5 -53c0 -8 -1 -16 -3 -24c-6 -28 -18.833 -51.167 -38.5 -69.5s-44.5 -30.5 -74.5 -36.5c8 -24.667 15.333 -45 22 -61c3.33301 -8.66699 17.666 -42.667 42.999 -102zM464 430.997
c2 12 3 22.333 3 31c0 18 -4.5 29.5 -13.5 34.5s-21.833 7.5 -38.5 7.5h-31l-33 -157c32 0 57.167 6.5 75.5 19.5s30.833 34.5 37.5 64.5z" />
    <glyph glyph-name="macron" unicode="&#xaf;" horiz-adv-x="333" 
d="M460 820c-3.33301 -18 -12.5 -33.334 -27.5 -46.001s-31.833 -19 -50.5 -19c-16 0 -28.833 5.16699 -38.5 15.5s-14.5 22.833 -14.5 37.5c0 5.33301 0.333008 9.33301 1 12c4 17.333 13.833 32.5 29.5 45.5s32.5 19.5 50.5 19.5c14.667 0 27 -5 37 -15s15 -22.333 15 -37
c0 -3.33301 -0.666992 -7.66602 -2 -12.999zM250 819.999c-3.33301 -18 -12.667 -33.3359 -28 -46.0029s-32.333 -19 -51 -19c-14.667 0 -27 5.33301 -37 16s-15 23.334 -15 38.001c0 4.66699 0.333008 8.33398 1 11.001c4 17.333 13.833 32.5 29.5 45.5
s32.167 19.5 49.5 19.5c15.333 0 28 -4.66699 38 -14s15 -22 15 -38c0 -3.33301 -0.666992 -7.66602 -2 -12.999zM189.999 -5.00391c-10.667 0 -24.834 0.833008 -42.501 2.5s-28.167 2.5 -31.5 2.5c-10.667 0 -25.167 -0.833008 -43.5 -2.5s-29.166 -2.5 -32.499 -2.5
l146 686c10 0 23.833 -0.833008 41.5 -2.5s28.5 -2.5 32.5 -2.5c9.33301 0 23 0.833008 41 2.5s29.667 2.5 35 2.5z" />
    <glyph glyph-name="degree" unicode="&#xb0;" horiz-adv-x="400" 
d="M411 520c-8.66699 -41.333 -30.833 -76.667 -66.5 -106s-74.167 -44 -115.5 -44c-35.333 0 -64.5 11.167 -87.5 33.5s-34.5 50.5 -34.5 84.5c0 9.33301 0.666992 16.333 2 21s2 8.33398 2 11.001c8 41.333 29.667 76.666 65 105.999s74 44 116 44
c36 0 65.333 -11.333 88 -34s34 -51.667 34 -87c0 -9.33301 -1 -19 -3 -29zM356.001 519.999c1.33301 9.33301 1.99805 16.001 1.99805 20.001c0 21.333 -7.16699 39.166 -21.5 53.499s-33.166 21.5 -56.499 21.5c-26 0 -50.167 -9.33301 -72.5 -28s-36.166 -41 -41.499 -67
c-1.33301 -4.66699 -2 -12 -2 -22c0 -21.333 6.83301 -38.833 20.5 -52.5s32.167 -20.5 55.5 -20.5c26.667 0 51.167 9.16699 73.5 27.5s36.5 40.833 42.5 67.5z" />
    <glyph glyph-name="plusminus" unicode="&#xb1;" horiz-adv-x="606" 
d="M564 279h-209l-31 -145h-86l31 145h-209l19 86h209l29 140h86l-29 -140h209zM505 0h-504l18 86h504z" />
    <glyph glyph-name="twosuperior" unicode="&#xb2;" horiz-adv-x="333" 
d="M190 -5c-10.667 0 -24.834 0.833008 -42.501 2.5s-28.167 2.5 -31.5 2.5c-10.667 0 -25.167 -0.833008 -43.5 -2.5s-29.166 -2.5 -32.499 -2.5l146 686c10 0 23.833 -0.833008 41.5 -2.5s28.5 -2.5 32.5 -2.5c9.33301 0 23 0.833008 41 2.5s29.667 2.5 35 2.5z" />
    <glyph glyph-name="threesuperior" unicode="&#xb3;" horiz-adv-x="278" 
d="M309 663c-4.66699 -22 -16.333 -40.667 -35 -56s-39.334 -23 -62.001 -23c-19.333 0 -34.666 6 -45.999 18s-17 27.333 -17 46c0 3.33301 0.666992 8.33301 2 15c4.66699 21.333 16.167 39.833 34.5 55.5s38.5 23.5 60.5 23.5c19.333 0 35 -6 47 -18s18 -27.333 18 -46
c0 -3.33301 -0.666992 -8.33301 -2 -15zM157.001 -5c-8.66699 0.666992 -20.667 1.66699 -36 3s-26 2 -32 2c-13.333 -0 -27.666 -0.666992 -42.999 -2c-12.667 -2 -21.667 -3 -27 -3l103 485l35.5 -3c15.667 -1.33301 26.5 -2 32.5 -2c13.333 0 27.666 0.666992 42.999 2
c12.667 2 21.667 3 27 3z" />
    <glyph glyph-name="acute" unicode="&#xb4;" horiz-adv-x="370" 
d="M405 422h-171.002l-91 -427c-11.333 1.33301 -19.666 2 -24.999 2c-22.667 2 -37 3 -43 3c-13.333 -0 -27.666 -0.666992 -42.999 -2c-12.667 -2 -21.667 -3 -27 -3l103 485h118c52 0 82.333 0.333008 91 1c41.333 3.33301 74 16 98 38h10
c-8 -19.333 -13 -34.5 -15 -45.5s-3.33301 -21.5 -4 -31.5s-1 -16.667 -1 -20z" />
    <glyph glyph-name="mu" unicode="&#xb5;" 
d="M445 -5l-37.999 3.49902c-10.667 1 -19.667 1.5 -27 1.5c-14.667 0 -27.834 -0.666992 -39.501 -2s-21.167 -2.33301 -28.5 -3l15 73c-34 -30 -60.333 -50 -79 -60c-26.667 -14.667 -56.667 -22 -90 -22c-8.66699 0 -15.667 2 -21 6l-53 -251
c-8.66699 0.666992 -20.667 1.66699 -36 3s-26 2 -32 2c-13.333 0 -27.666 -0.666992 -42.999 -2c-12.667 -2 -21.667 -3 -27 -3l157 739l35.5 -3c15.667 -1.33301 26.5 -2 32.5 -2c13.333 0 27.666 0.666992 42.999 2c12.667 2 21.667 3 27 3l-59 -276
c-4.66699 -21.333 -7 -41.666 -7 -60.999c0 -23.333 4.83301 -41.5 14.5 -54.5s25.167 -19.5 46.5 -19.5c38 0 67 17 87 51c10.667 18.667 21.334 51.667 32.001 99l55 261l35.5 -3c15.667 -1.33301 26.5 -2 32.5 -2c13.333 0 27.666 0.666992 42.999 2
c12.667 2 21.667 3 27 3z" />
    <glyph glyph-name="paragraph" unicode="&#xb6;" horiz-adv-x="700" 
d="M683 635h-49l-155 -727l-44 3l-47 -3l155 727h-58l-155 -727l-44 3l-47 -3l90 420l-35 -2c-52 0 -92.5 11.167 -121.5 33.5s-43.5 54.833 -43.5 97.5c0 14.667 2 31 6 49c11.333 54 35.333 95.333 72 124c44 34 106.333 51 187 51h299zM335 358l59 277.001
c-32.667 0 -56.667 -8.66699 -72 -26c-12 -14 -21.667 -38.333 -29 -73l-15 -68c-2.66699 -12 -4.33398 -21.167 -5.00098 -27.5s-1 -12.833 -1 -19.5c0 -18.667 4.83301 -33.834 14.5 -45.501s25.834 -17.5 48.501 -17.5z" />
    <glyph glyph-name="periodcentered" unicode="&#xb7;" horiz-adv-x="278" 
d="M225 255c-5.33301 -23.333 -17.499 -42.834 -36.499 -58.501s-40.167 -23.5 -63.5 -23.5c-20 0 -36 6.33301 -48 19s-18 28.334 -18 47.001c0 4 0.666992 9.33301 2 16c5.33301 22 17.666 41.167 36.999 57.5s40 24.5 62 24.5c19.333 0 35.333 -6 48 -18s19 -28 19 -48
c0 -2.66699 -0.666992 -8 -2 -16z" />
    <glyph glyph-name="periodcentered" unicode="&#x2219;" horiz-adv-x="278" 
d="M225 255c-5.33301 -23.333 -17.499 -42.834 -36.499 -58.501s-40.167 -23.5 -63.5 -23.5c-20 0 -36 6.33301 -48 19s-18 28.334 -18 47.001c0 4 0.666992 9.33301 2 16c5.33301 22 17.666 41.167 36.999 57.5s40 24.5 62 24.5c19.333 0 35.333 -6 48 -18s19 -28 19 -48
c0 -2.66699 -0.666992 -8 -2 -16z" />
    <glyph glyph-name="cedilla" unicode="&#xb8;" horiz-adv-x="500" 
d="M502 619c-4 -18 -13.501 -33.3311 -28.501 -45.998s-31.5 -19 -49.5 -19c-15.333 0 -28.166 4.83301 -38.499 14.5s-15.5 22.167 -15.5 37.5c0 3.33301 1.16699 10.666 3.5 21.999s11.5 23.333 27.5 36s32.667 19 50 19c15.333 0 27.833 -5.16699 37.5 -15.5
s14.5 -22.833 14.5 -37.5c0 -4.66699 -0.333008 -8.33398 -1 -11.001zM291.999 619.002c-4 -18 -13.667 -33.334 -29 -46.001s-32 -19 -50 -19c-14.667 0 -27 5.33301 -37 16s-15 23.334 -15 38.001c0 4.66699 0.333008 8.33398 1 11.001
c3.33301 16.667 12.833 31.5 28.5 44.5s32.167 19.5 49.5 19.5c15.333 0 28 -5 38 -15s15 -22.667 15 -38c0 -4.66699 -0.333008 -8.33398 -1 -11.001zM468.999 237.001l-286.001 -0.000976562c-6.66699 -24.667 -10 -49.334 -10 -74.001
c0 -35.333 8.66699 -62.833 26 -82.5s45.333 -29.5 84 -29.5c21.333 0 42.666 3.83301 63.999 11.5s42 18.834 62 33.501l9 -9l-32 -56c-49.333 -30 -100.333 -45 -153 -45c-67.333 0 -118.166 15.833 -152.499 47.5s-51.5 76.834 -51.5 135.501c0 24 3 50.667 9 80
c15.333 72 48 130 98 174s110.667 66 182 66c56.667 0 99.334 -14 128.001 -42c26 -26 39 -62.667 39 -110c0 -28 -5.33301 -61.333 -16 -100zM341.998 285c2.66699 11.333 5.16699 25.499 7.5 42.499s3.5 31.833 3.5 44.5c0 21.333 -3.33301 38.833 -10 52.5
s-17.667 20.5 -33 20.5c-31.333 0 -58 -20 -80 -60c-14 -25.333 -26 -58.666 -36 -99.999h148z" />
    <glyph glyph-name="onesuperior" unicode="&#xb9;" horiz-adv-x="1111" 
d="M1167 554c-10.667 -47.333 -33.167 -85.334 -67.5 -114.001s-76.833 -43 -127.5 -43c-41.333 0 -73.5 9.5 -96.5 28.5s-34.5 45.833 -34.5 80.5v14c0 4 1.83301 14 5.5 30s11 33.667 22 53s25.833 36.666 44.5 51.999c34.667 29.333 76.334 44 125.001 44
c21.333 0 42.166 -3.16699 62.499 -9.5s35.833 -16.166 46.5 -29.499c15.333 -19.333 23 -43.666 23 -72.999c0 -10.667 -1 -21.667 -3 -33zM1098 276.999h-299l11 50h299zM644 -5.00098l-84.999 1l-86 127c-0.666992 1.33301 -29.334 42.333 -86.001 123l-86 121l-85 114
l-103 -484l-39 3l-41 -3l146 684h99l110 -154l112 -156l110 -158l100 468l39 -3l41 3zM1076 563.999c1.33301 7.33301 2.66699 15.332 4 23.999s2 17 2 25c0 18 -3 32 -9 42c-8 12.667 -20.333 19 -37 19c-34.667 0 -61.334 -23 -80.001 -69
c-6.66699 -16 -12.667 -36.667 -18 -62c-1.33301 -7.33301 -2.66602 -15.833 -3.99902 -25.5s-2 -19.167 -2 -28.5c0 -20 3.5 -36.167 10.5 -48.5s18.833 -18.5 35.5 -18.5c28 0 50.667 16.667 68 50c10.667 20.667 20.667 51.334 30 92.001z" />
    <glyph glyph-name="ordmasculine" unicode="&#xba;" horiz-adv-x="481" 
d="M511 445l-53.998 -93h-27c0 27.333 -7 49.666 -21 66.999s-34.667 26 -62 26c-36.667 0 -70 -18.667 -100 -56c-24.667 -30 -43.667 -67.333 -57 -112h112c13.333 0 23.166 0.333008 29.499 1s17.5 2 33.5 4c-9.33301 -22 -14 -43.667 -14 -65
c-16.667 2.66699 -29.5 4.16699 -38.5 4.5s-16.5 0.5 -22.5 0.5h-113c-2.66699 -16 -4 -32.333 -4 -49c0 -38.667 9.66699 -68.667 29 -90s49.333 -32 90 -32c20 0 40.333 4.16699 61 12.5s38.667 19.833 54 34.5l14 -14l-38 -59c-14.667 -12 -36.834 -21.5 -66.501 -28.5
s-54.834 -10.5 -75.501 -10.5c-68 0 -121.333 15.667 -160 47s-58 76 -58 134c0 20 2.33301 40.333 7 61c17.333 80.667 54.833 144.334 112.5 191.001s126.5 70 206.5 70c30.667 0 60.334 -3.5 89.001 -10.5s53 -18.167 73 -33.5z" />
    <glyph glyph-name="guillemotright" unicode="&#xbb;" horiz-adv-x="500" 
d="M423 268l-169.001 -196.999c-8 9.33301 -16.333 17.333 -25 24c-4 3.33301 -14.333 10 -31 20l74 75c24.667 25.333 48.334 51 71.001 77c-10 18.667 -19.667 37.667 -29 57c-12 23.333 -29.333 54.666 -52 93.999c14 5.33301 27 11.666 39 18.999
c8 4.66699 20 13.334 36 26.001zM274.999 268.001l-169.001 -196.999c-8 9.33301 -16.333 17.333 -25 24c-4 3.33301 -14.333 10 -31 20l74 75c24.667 25.333 48.334 51 71.001 77c-10 18.667 -19.667 37.667 -29 57c-12 23.333 -29.333 54.666 -52 93.999
c14 5.33301 27 11.666 39 18.999c8 4.66699 20 13.334 36 26.001z" />
    <glyph glyph-name="onequarter" unicode="&#xbc;" horiz-adv-x="278" 
d="M309 661c-4.66699 -22 -16.334 -40.333 -35.001 -55s-39.667 -22 -63 -22c-18 0 -32.667 6 -44 18s-17 27 -17 45c0 6 0.333008 10.667 1 14c4.66699 22.667 16 41.834 34 57.501s38 23.5 60 23.5c20.667 0 36.834 -5.5 48.501 -16.5s17.5 -25.833 17.5 -44.5
c0 -8.66699 -0.666992 -15.334 -2 -20.001zM157 -8c-7.33301 -33.333 -18.833 -61.001 -34.5 -83.001s-39.5 -44 -71.5 -66c-22.667 -15.333 -46 -27.166 -70 -35.499s-48 -12.5 -72 -12.5l-3 34c34.667 10 60.334 27.667 77.001 53c12.667 20 23.667 52 33 96l107 502
l35.5 -3c15.667 -1.33301 26.5 -2 32.5 -2c13.333 0 27.666 0.666992 42.999 2c12.667 2 21.667 3 27 3z" />
    <glyph glyph-name="onehalf" unicode="&#xbd;" horiz-adv-x="500" 
d="M461 202c-13.333 -64 -49.3311 -116.667 -107.998 -158s-126.667 -62 -204 -62c-29.333 0 -57 3.5 -83 10.5s-49 17.833 -69 32.5l31 65c10 22 18.333 42.667 25 62h19c0 -34.667 10.333 -61.667 31 -81s48.667 -29 84 -29c32.667 0 62.167 9 88.5 27
s43.166 43.667 50.499 77c2 9.33301 3 17.666 3 24.999c0 31.333 -19.5 58.333 -58.5 81l-114.5 67c-40.667 30.667 -61 70 -61 118c0 15.333 2 32.666 6 51.999c12.667 60 42.667 109.333 90 148c50.667 41.333 112.667 62 186 62c33.333 0 63.666 -5 90.999 -15
s46 -21 56 -33l-53 -99h-15c-4 27.333 -14 48.666 -30 63.999s-38 23 -66 23c-38 0 -67.667 -8.83301 -89 -26.5s-35.333 -41.5 -42 -71.5c-1.33301 -9.33301 -2 -15.666 -2 -18.999c0 -27.333 20.667 -53.666 62 -78.999l115 -70c41.333 -33.333 62 -74 62 -122
c0 -7.33301 -0.333008 -15.166 -1 -23.499s-2 -16.833 -4 -25.5z" />
    <glyph glyph-name="threequarters" unicode="&#xbe;" horiz-adv-x="389" 
d="M343 146c-10 -48 -35.333 -86.667 -76 -116s-91 -44 -151 -44c-52 0 -95 13.667 -129 41l35 95h25c3.33301 -25.333 13.5 -45.833 30.5 -61.5s38.833 -23.5 65.5 -23.5c18.667 0 37.334 5.83301 56.001 17.5s30 26.167 34 43.5c0.666992 2.66699 1 6.66699 1 12
c0 20 -31.167 44 -93.5 72s-93.5 65.333 -93.5 112v21c2 7.33301 3.33301 12.333 4 15c10.667 49.333 35.667 88.166 75 116.499s83 42.5 131 42.5c25.333 0 50.166 -4 74.499 -12s44.5 -19.667 60.5 -35l-43 -88h-28c0 22.667 -7.33301 42.334 -22 59.001s-33 25 -55 25
c-20.667 0 -39.167 -4.83301 -55.5 -14.5s-26.5 -24.167 -30.5 -43.5c-0.666992 -2.66699 -1 -6.66699 -1 -12c0 -20 31.667 -43 95 -69s95 -63.667 95 -113v-23c-2 -8 -3.33301 -13.667 -4 -17z" />
    <glyph glyph-name="questiondown" unicode="&#xbf;" horiz-adv-x="278" 
d="M391 619c-4 -18 -13.501 -33.332 -28.501 -45.999s-31.5 -19 -49.5 -19c-15.333 0 -28.166 4.83301 -38.499 14.5s-15.5 22.167 -15.5 37.5c0 3.33301 1.16699 10.666 3.5 21.999s11.333 23.5 27 36.5s32.5 19.5 50.5 19.5c15.333 0 27.833 -5.16699 37.5 -15.5
s14.5 -23.166 14.5 -38.499c0 -4.66699 -0.333008 -8.33398 -1 -11.001zM180.999 619.001c-4 -18 -13.667 -33.335 -29 -46.002s-32 -19 -50 -19c-14.667 0 -27 5.33301 -37 16s-15 23.334 -15 38.001c0 4.66699 0.333008 8.33398 1 11.001c3.33301 16.667 13 31.667 29 45
s32.333 20 49 20c15.333 0 28 -5 38 -15s15 -22.667 15 -38c0 -5.33301 -0.333008 -9.33301 -1 -12zM156.999 -5.00098c-8.66699 0.666992 -20.667 1.66699 -36 3s-26 2 -32 2c-13.333 0 -27.666 -0.666992 -42.999 -2c-12.667 -2 -21.667 -3 -27 -3l103 485l35.5 -3
c15.667 -1.33301 26.5 -2 32.5 -2c13.333 0 27.666 0.666992 42.999 2c12.667 2 21.667 3 27 3z" />
    <glyph glyph-name="Agrave" unicode="&#xc0;" horiz-adv-x="648" 
d="M593 -5c-13.333 0 -24.001 0.332031 -32.001 0.999023c-32 2.66699 -49.667 4 -53 4c-13.333 0 -30.333 -0.833008 -51 -2.5s-32.667 -2.5 -36 -2.5c-7.33301 81.333 -11.666 125.833 -12.999 133.5s-6 32.834 -14 75.501h-233l-45 -80c-32 -56.667 -55 -99 -69 -127
l-46 3l-49 -3l434 693l37 -3l39 3zM383.999 264.999l-39 233l-144 -233h183z" />
    <glyph glyph-name="Agrave" unicode="&#x410;" horiz-adv-x="648" 
d="M593 -5c-13.333 0 -24.001 0.332031 -32.001 0.999023c-32 2.66699 -49.667 4 -53 4c-13.333 0 -30.333 -0.833008 -51 -2.5s-32.667 -2.5 -36 -2.5c-7.33301 81.333 -11.666 125.833 -12.999 133.5s-6 32.834 -14 75.501h-233l-45 -80c-32 -56.667 -55 -99 -69 -127
l-46 3l-49 -3l434 693l37 -3l39 3zM383.999 264.999l-39 233l-144 -233h183z" />
    <glyph glyph-name="Aacute" unicode="&#xc1;" horiz-adv-x="592" 
d="M547 216c-17.333 -80.667 -57.6689 -139.002 -121.002 -175.002c-49.333 -28 -112.333 -42 -189 -42h-211l145 681h442c-3.33301 -7.33301 -6.16602 -14 -8.49902 -20s-4.66602 -14.5 -6.99902 -25.5s-3.5 -24.5 -3.5 -40.5c-34.667 4.66699 -72 8.16699 -112 10.5
s-99 3.5 -177 3.5l-47 -222h106c125.333 0 188 -43 188 -129c0 -7.33301 -0.333008 -13.166 -1 -17.499s-2 -12.166 -4 -23.499zM387.997 197.998c1.33301 5.33301 2.33301 11.6631 3 18.9961s1 14 1 20c0 28 -6.83301 50.167 -20.5 66.5s-31.5 24.5 -53.5 24.5h-72
l-58 -273c12.667 0.666992 26.167 1.33398 40.5 2.00098s26.5 2.33398 36.5 5.00098c32.667 8.66699 59.667 25.334 81 50.001s35.333 53.334 42 86.001z" />
    <glyph glyph-name="Aacute" unicode="&#x411;" horiz-adv-x="592" 
d="M547 216c-17.333 -80.667 -57.6689 -139.002 -121.002 -175.002c-49.333 -28 -112.333 -42 -189 -42h-211l145 681h442c-3.33301 -7.33301 -6.16602 -14 -8.49902 -20s-4.66602 -14.5 -6.99902 -25.5s-3.5 -24.5 -3.5 -40.5c-34.667 4.66699 -72 8.16699 -112 10.5
s-99 3.5 -177 3.5l-47 -222h106c125.333 0 188 -43 188 -129c0 -7.33301 -0.333008 -13.166 -1 -17.499s-2 -12.166 -4 -23.499zM387.997 197.998c1.33301 5.33301 2.33301 11.6631 3 18.9961s1 14 1 20c0 28 -6.83301 50.167 -20.5 66.5s-31.5 24.5 -53.5 24.5h-72
l-58 -273c12.667 0.666992 26.167 1.33398 40.5 2.00098s26.5 2.33398 36.5 5.00098c32.667 8.66699 59.667 25.334 81 50.001s35.333 53.334 42 86.001z" />
    <glyph glyph-name="Acircumflex" unicode="&#xc2;" horiz-adv-x="592" 
d="M541 196c-14 -64.667 -50.3359 -114.666 -109.003 -149.999c-50.667 -30.667 -109 -46 -175 -46h-231l145 681h258c50.667 0 90.334 -8 119.001 -24c34.667 -19.333 52 -49.333 52 -90v-22c-2 -7.33301 -3.33301 -12.333 -4 -15c-9.33301 -44.667 -34 -81.667 -74 -111
c-35.333 -26 -76.666 -42.333 -123.999 -49l-2 -9c40.667 -4 73.334 -14 98.001 -30c34 -22.667 51 -55 51 -97c0 -12.667 -1.33301 -25.334 -4 -38.001zM443.997 516.001c0.666992 5.33301 1.50195 10.668 2.50195 16.001s1.5 10.666 1.5 15.999
c0 52.667 -29.333 79 -88 79h-24c-12 -2 -21.333 -3.33301 -28 -4l-50 -236h31c18.667 0 34.667 1.5 48 4.5s27.666 10.167 42.999 21.5s28.666 26.333 39.999 45s19.333 38 24 58zM383.999 189.003c4 18 6 33.668 6 47.001c0 34 -12 58 -36 72s-60 21 -108 21l-58 -271h50
c30 0 59 11.333 87 34c31.333 25.333 51 57.666 59 96.999z" />
    <glyph glyph-name="Acircumflex" unicode="&#x412;" horiz-adv-x="592" 
d="M541 196c-14 -64.667 -50.3359 -114.666 -109.003 -149.999c-50.667 -30.667 -109 -46 -175 -46h-231l145 681h258c50.667 0 90.334 -8 119.001 -24c34.667 -19.333 52 -49.333 52 -90v-22c-2 -7.33301 -3.33301 -12.333 -4 -15c-9.33301 -44.667 -34 -81.667 -74 -111
c-35.333 -26 -76.666 -42.333 -123.999 -49l-2 -9c40.667 -4 73.334 -14 98.001 -30c34 -22.667 51 -55 51 -97c0 -12.667 -1.33301 -25.334 -4 -38.001zM443.997 516.001c0.666992 5.33301 1.50195 10.668 2.50195 16.001s1.5 10.666 1.5 15.999
c0 52.667 -29.333 79 -88 79h-24c-12 -2 -21.333 -3.33301 -28 -4l-50 -236h31c18.667 0 34.667 1.5 48 4.5s27.666 10.167 42.999 21.5s28.666 26.333 39.999 45s19.333 38 24 58zM383.999 189.003c4 18 6 33.668 6 47.001c0 34 -12 58 -36 72s-60 21 -108 21l-58 -271h50
c30 0 59 11.333 87 34c31.333 25.333 51 57.666 59 96.999z" />
    <glyph glyph-name="Atilde" unicode="&#xc3;" horiz-adv-x="481" 
d="M537 595c-44 5.33301 -85 8.99902 -123 10.999s-73.667 3 -107 3l-130 -614c-10 0 -23.667 0.833008 -41 2.5s-28 2.5 -32 2.5c-11.333 0 -26.333 -0.833008 -45 -2.5s-29.334 -2.5 -32.001 -2.5l146 686h383c-3.33301 -9.33301 -5.66602 -16.333 -6.99902 -21
c-4 -11.333 -6.66699 -20.166 -8 -26.499s-2.33301 -11.833 -3 -16.5s-1 -12 -1 -22z" />
    <glyph glyph-name="Atilde" unicode="&#x413;" horiz-adv-x="481" 
d="M537 595c-44 5.33301 -85 8.99902 -123 10.999s-73.667 3 -107 3l-130 -614c-10 0 -23.667 0.833008 -41 2.5s-28 2.5 -32 2.5c-11.333 0 -26.333 -0.833008 -45 -2.5s-29.334 -2.5 -32.001 -2.5l146 686h383c-3.33301 -9.33301 -5.66602 -16.333 -6.99902 -21
c-4 -11.333 -6.66699 -20.166 -8 -26.499s-2.33301 -11.833 -3 -16.5s-1 -12 -1 -22z" />
    <glyph glyph-name="Adieresis" unicode="&#xc4;" horiz-adv-x="703" 
d="M623 -45h-14.9971c-10.667 18.667 -29.834 30.834 -57.501 36.501s-59.834 8.5 -96.501 8.5h-298c-45.333 0 -77.666 -1.66699 -96.999 -5c-34.667 -6 -62.667 -19.333 -84 -40h-15c5.33301 13.333 9.16602 23.666 11.499 30.999s5.16602 19.5 8.49902 36.5
s5 33.5 5 49.5h43l125 195l126 203l133 216l37 -3l39 3l117 -614h43c-7.33301 -17.333 -13 -35 -17 -53c-1.33301 -8 -3 -18.667 -5 -32s-3 -24 -3 -32zM441.003 75c-4.66699 35.333 -11.5 81.1689 -20.5 137.502s-16.5 100.5 -22.5 132.5l-27 149l-144 -228
c-47.333 -76.667 -85 -140.334 -113 -191.001c42 0 76.667 -0.333008 104 -1s53.333 -1.33398 78 -2.00098h43h15h13c29.333 0 54 1 74 3z" />
    <glyph glyph-name="Adieresis" unicode="&#x414;" horiz-adv-x="703" 
d="M623 -45h-14.9971c-10.667 18.667 -29.834 30.834 -57.501 36.501s-59.834 8.5 -96.501 8.5h-298c-45.333 0 -77.666 -1.66699 -96.999 -5c-34.667 -6 -62.667 -19.333 -84 -40h-15c5.33301 13.333 9.16602 23.666 11.499 30.999s5.16602 19.5 8.49902 36.5
s5 33.5 5 49.5h43l125 195l126 203l133 216l37 -3l39 3l117 -614h43c-7.33301 -17.333 -13 -35 -17 -53c-1.33301 -8 -3 -18.667 -5 -32s-3 -24 -3 -32zM441.003 75c-4.66699 35.333 -11.5 81.1689 -20.5 137.502s-16.5 100.5 -22.5 132.5l-27 149l-144 -228
c-47.333 -76.667 -85 -140.334 -113 -191.001c42 0 76.667 -0.333008 104 -1s53.333 -1.33398 78 -2.00098h43h15h13c29.333 0 54 1 74 3z" />
    <glyph glyph-name="Aring" unicode="&#xc5;" horiz-adv-x="500" 
d="M409 0l-381.002 -0.00195312l145 681h381c-3.33301 -9.33301 -5.66602 -16.333 -6.99902 -21c-4 -11.333 -6.66699 -20.166 -8 -26.499s-2.33301 -11.833 -3 -16.5s-1 -12 -1 -22c-33.333 4.66699 -67.666 8.16699 -102.999 10.5s-77 3.5 -125 3.5l-45 -215h104
c26.667 0 47 0.5 61 1.5s35.333 3.5 64 7.5c-4 -9.33301 -6.66699 -16.333 -8 -21c-3.33301 -8 -5.66602 -16 -6.99902 -24s-2.33301 -14.333 -3 -19s-1 -12 -1 -22c-12.667 2 -29.334 4 -50.001 6s-44.334 3 -71.001 3h-104l-54 -254c47.333 0 89.5 1.16699 126.5 3.5
s72.833 5.83301 107.5 10.5c-3.33301 -9.33301 -5.66602 -16.333 -6.99902 -21c-4 -11.333 -6.33301 -18.666 -7 -21.999c-2.66699 -12.667 -4 -27 -4 -43z" />
    <glyph glyph-name="Aring" unicode="&#x415;" horiz-adv-x="500" 
d="M409 0l-381.002 -0.00195312l145 681h381c-3.33301 -9.33301 -5.66602 -16.333 -6.99902 -21c-4 -11.333 -6.66699 -20.166 -8 -26.499s-2.33301 -11.833 -3 -16.5s-1 -12 -1 -22c-33.333 4.66699 -67.666 8.16699 -102.999 10.5s-77 3.5 -125 3.5l-45 -215h104
c26.667 0 47 0.5 61 1.5s35.333 3.5 64 7.5c-4 -9.33301 -6.66699 -16.333 -8 -21c-3.33301 -8 -5.66602 -16 -6.99902 -24s-2.33301 -14.333 -3 -19s-1 -12 -1 -22c-12.667 2 -29.334 4 -50.001 6s-44.334 3 -71.001 3h-104l-54 -254c47.333 0 89.5 1.16699 126.5 3.5
s72.833 5.83301 107.5 10.5c-3.33301 -9.33301 -5.66602 -16.333 -6.99902 -21c-4 -11.333 -6.33301 -18.666 -7 -21.999c-2.66699 -12.667 -4 -27 -4 -43z" />
    <glyph glyph-name="AE" unicode="&#xc6;" horiz-adv-x="906" 
d="M847 -5c-10.667 0 -24.835 0.833984 -42.502 2.50098s-28.167 2.5 -31.5 2.5c-10.667 0 -25.167 -0.833008 -43.5 -2.5s-29.166 -2.5 -32.499 -2.5l-152 318l-68 -318c-10.667 0 -24.834 0.833008 -42.501 2.5s-28.167 2.5 -31.5 2.5c-22.667 0 -48 -1.66699 -76 -5
l68 318l-288 -318c-10.667 0 -24.834 0.833008 -42.501 2.5s-28.167 2.5 -31.5 2.5c-10.667 0 -25.167 -0.833008 -43.5 -2.5s-29.166 -2.5 -32.499 -2.5l3 14l348 387c-11.333 15.333 -23 32.333 -35 51c-18 28 -30 46 -36 54l-98 135
c-6.66699 9.33301 -16 21.666 -28 36.999l2 8c8.66699 -1.33301 18 -2.5 28 -3.5s18 -1.5 24 -1.5c12 0 21.833 0.5 29.5 1.5l25.5 3.5l113 -196c21.333 -36 45.666 -75 72.999 -117l67 313c10.667 -2 24.834 -3.33301 42.501 -4s28.167 -1 31.5 -1
c12.667 0 25.334 0.333008 38.001 1s25.334 2 38.001 4l-67 -313l107 101.5l107 105.5l106 106c8.66699 -0.666992 18.167 -1.66699 28.5 -3s18.5 -2 24.5 -2c11.333 0 20.833 0.5 28.5 1.5l25.5 3.5l-2 -8l-71 -60l-128 -112l-116 -105l184 -387z" />
    <glyph glyph-name="AE" unicode="&#x416;" horiz-adv-x="906" 
d="M847 -5c-10.667 0 -24.835 0.833984 -42.502 2.50098s-28.167 2.5 -31.5 2.5c-10.667 0 -25.167 -0.833008 -43.5 -2.5s-29.166 -2.5 -32.499 -2.5l-152 318l-68 -318c-10.667 0 -24.834 0.833008 -42.501 2.5s-28.167 2.5 -31.5 2.5c-22.667 0 -48 -1.66699 -76 -5
l68 318l-288 -318c-10.667 0 -24.834 0.833008 -42.501 2.5s-28.167 2.5 -31.5 2.5c-10.667 0 -25.167 -0.833008 -43.5 -2.5s-29.166 -2.5 -32.499 -2.5l3 14l348 387c-11.333 15.333 -23 32.333 -35 51c-18 28 -30 46 -36 54l-98 135
c-6.66699 9.33301 -16 21.666 -28 36.999l2 8c8.66699 -1.33301 18 -2.5 28 -3.5s18 -1.5 24 -1.5c12 0 21.833 0.5 29.5 1.5l25.5 3.5l113 -196c21.333 -36 45.666 -75 72.999 -117l67 313c10.667 -2 24.834 -3.33301 42.501 -4s28.167 -1 31.5 -1
c12.667 0 25.334 0.333008 38.001 1s25.334 2 38.001 4l-67 -313l107 101.5l107 105.5l106 106c8.66699 -0.666992 18.167 -1.66699 28.5 -3s18.5 -2 24.5 -2c11.333 0 20.833 0.5 28.5 1.5l25.5 3.5l-2 -8l-71 -60l-128 -112l-116 -105l184 -387z" />
    <glyph glyph-name="Ccedilla" unicode="&#xc7;" horiz-adv-x="536" 
d="M483 195c-13.333 -63.333 -51 -115.336 -113 -156.003c-58 -38 -123.667 -57 -197 -57c-62.667 0 -118.334 16.333 -167.001 49l6 80l14 6c21.333 -25.333 44.333 -44.166 69 -56.499s49.667 -18.5 75 -18.5c37.333 0 70.333 12.167 99 36.5s47.334 57.833 56.001 100.5
c4 20 6 37.333 6 52c0 34.667 -11.333 59.667 -34 75c-18 12 -44.667 18 -80 18h-24.5c-7.66699 0 -16.834 -0.666992 -27.501 -2c10.667 28 16 53 16 75l38 -2c45.333 0 81.666 12.667 108.999 38c24.667 22.667 41.334 54 50.001 94c2 10 3 19.333 3 28
c0 26.667 -8 47.334 -24 62.001s-37 22 -63 22c-26.667 0 -53.5 -7.5 -80.5 -22.5s-52.5 -38.167 -76.5 -69.5h-16c2 10.667 4.33301 25.834 7 45.501s4 40.5 4 62.5c66 29.333 135 44 207 44c58 0 105 -10.5 141 -31.5s54 -53.167 54 -96.5c0 -10 -1 -20.667 -3 -32
c-10.667 -48 -33.667 -86.333 -69 -115c-32 -26 -74 -44 -126 -54c-2 -3.33301 -2.66699 -6.33301 -2 -9c44.667 0 80.334 -9.33301 107.001 -28c31.333 -22 47 -54 47 -96c0 -11.333 -1.66699 -25.333 -5 -42z" />
    <glyph glyph-name="Ccedilla" unicode="&#x417;" horiz-adv-x="536" 
d="M483 195c-13.333 -63.333 -51 -115.336 -113 -156.003c-58 -38 -123.667 -57 -197 -57c-62.667 0 -118.334 16.333 -167.001 49l6 80l14 6c21.333 -25.333 44.333 -44.166 69 -56.499s49.667 -18.5 75 -18.5c37.333 0 70.333 12.167 99 36.5s47.334 57.833 56.001 100.5
c4 20 6 37.333 6 52c0 34.667 -11.333 59.667 -34 75c-18 12 -44.667 18 -80 18h-24.5c-7.66699 0 -16.834 -0.666992 -27.501 -2c10.667 28 16 53 16 75l38 -2c45.333 0 81.666 12.667 108.999 38c24.667 22.667 41.334 54 50.001 94c2 10 3 19.333 3 28
c0 26.667 -8 47.334 -24 62.001s-37 22 -63 22c-26.667 0 -53.5 -7.5 -80.5 -22.5s-52.5 -38.167 -76.5 -69.5h-16c2 10.667 4.33301 25.834 7 45.501s4 40.5 4 62.5c66 29.333 135 44 207 44c58 0 105 -10.5 141 -31.5s54 -53.167 54 -96.5c0 -10 -1 -20.667 -3 -32
c-10.667 -48 -33.667 -86.333 -69 -115c-32 -26 -74 -44 -126 -54c-2 -3.33301 -2.66699 -6.33301 -2 -9c44.667 0 80.334 -9.33301 107.001 -28c31.333 -22 47 -54 47 -96c0 -11.333 -1.66699 -25.333 -5 -42z" />
    <glyph glyph-name="Egrave" unicode="&#xc8;" horiz-adv-x="758" 
d="M631 -5c-9.33301 0 -22.833 0.833008 -40.5 2.5s-29.167 2.5 -34.5 2.5c-10 0 -24.167 -0.833008 -42.5 -2.5s-29.166 -2.5 -32.499 -2.5l101 474l-248 -237c-100 -98 -178 -177 -234 -237h-75l146 686c10 0 23.833 -0.833008 41.5 -2.5s28.5 -2.5 32.5 -2.5
c9.33301 0 23 0.833008 41 2.5s29.667 2.5 35 2.5l-100 -469c71.333 62 153.666 139 246.999 231c87.333 86 165 166.333 233 241h76z" />
    <glyph glyph-name="Egrave" unicode="&#x418;" horiz-adv-x="758" 
d="M631 -5c-9.33301 0 -22.833 0.833008 -40.5 2.5s-29.167 2.5 -34.5 2.5c-10 0 -24.167 -0.833008 -42.5 -2.5s-29.166 -2.5 -32.499 -2.5l101 474l-248 -237c-100 -98 -178 -177 -234 -237h-75l146 686c10 0 23.833 -0.833008 41.5 -2.5s28.5 -2.5 32.5 -2.5
c9.33301 0 23 0.833008 41 2.5s29.667 2.5 35 2.5l-100 -469c71.333 62 153.666 139 246.999 231c87.333 86 165 166.333 233 241h76z" />
    <glyph glyph-name="Eacute" unicode="&#xc9;" horiz-adv-x="758" 
d="M666 831c-20 -32 -45.6689 -57.5 -77.002 -76.5s-66.666 -28.5 -105.999 -28.5c-38.667 0 -69.5 9.5 -92.5 28.5s-37.833 44.5 -44.5 76.5l35 17c19.333 -42 58 -63 116 -63c58.667 0 105.334 21 140.001 63zM630.998 -5c-9.33301 0 -22.833 0.833008 -40.5 2.5
s-29.167 2.5 -34.5 2.5c-10 0 -24.167 -0.833008 -42.5 -2.5s-29.166 -2.5 -32.499 -2.5l101 474l-248 -237c-100 -98 -178 -177 -234 -237h-75l146 686c10 0 23.833 -0.833008 41.5 -2.5s28.5 -2.5 32.5 -2.5c9.33301 0 23 0.833008 41 2.5s29.667 2.5 35 2.5l-100 -469
c71.333 62 153.666 139 246.999 231c87.333 86 165 166.333 233 241h76z" />
    <glyph glyph-name="Eacute" unicode="&#x419;" horiz-adv-x="758" 
d="M666 831c-20 -32 -45.6689 -57.5 -77.002 -76.5s-66.666 -28.5 -105.999 -28.5c-38.667 0 -69.5 9.5 -92.5 28.5s-37.833 44.5 -44.5 76.5l35 17c19.333 -42 58 -63 116 -63c58.667 0 105.334 21 140.001 63zM630.998 -5c-9.33301 0 -22.833 0.833008 -40.5 2.5
s-29.167 2.5 -34.5 2.5c-10 0 -24.167 -0.833008 -42.5 -2.5s-29.166 -2.5 -32.499 -2.5l101 474l-248 -237c-100 -98 -178 -177 -234 -237h-75l146 686c10 0 23.833 -0.833008 41.5 -2.5s28.5 -2.5 32.5 -2.5c9.33301 0 23 0.833008 41 2.5s29.667 2.5 35 2.5l-100 -469
c71.333 62 153.666 139 246.999 231c87.333 86 165 166.333 233 241h76z" />
    <glyph glyph-name="Ecircumflex" unicode="&#xca;" horiz-adv-x="611" 
d="M552 -5c-10.667 0 -24.834 0.833008 -42.501 2.5s-28.167 2.5 -31.5 2.5c-10.667 0 -25.167 -0.833008 -43.5 -2.5s-29.166 -2.5 -32.499 -2.5l-159 318l-68 -318c-10.667 0 -24.834 0.833008 -42.501 2.5s-28.167 2.5 -31.5 2.5c-10.667 0 -25.167 -0.833008 -43.5 -2.5
s-29.166 -2.5 -32.499 -2.5l146 686c10 0 23.833 -0.833008 41.5 -2.5s28.5 -2.5 32.5 -2.5c9.33301 0 23 0.833008 41 2.5s29.667 2.5 35 2.5l-67 -313l327 313c8.66699 -0.666992 18.167 -1.66699 28.5 -3s18.5 -2 24.5 -2c11.333 0 20.833 0.5 28.5 1.5l25.5 3.5l-2 -8
l-201 -172l-117 -105l187 -387z" />
    <glyph glyph-name="Ecircumflex" unicode="&#x41a;" horiz-adv-x="611" 
d="M552 -5c-10.667 0 -24.834 0.833008 -42.501 2.5s-28.167 2.5 -31.5 2.5c-10.667 0 -25.167 -0.833008 -43.5 -2.5s-29.166 -2.5 -32.499 -2.5l-159 318l-68 -318c-10.667 0 -24.834 0.833008 -42.501 2.5s-28.167 2.5 -31.5 2.5c-10.667 0 -25.167 -0.833008 -43.5 -2.5
s-29.166 -2.5 -32.499 -2.5l146 686c10 0 23.833 -0.833008 41.5 -2.5s28.5 -2.5 32.5 -2.5c9.33301 0 23 0.833008 41 2.5s29.667 2.5 35 2.5l-67 -313l327 313c8.66699 -0.666992 18.167 -1.66699 28.5 -3s18.5 -2 24.5 -2c11.333 0 20.833 0.5 28.5 1.5l25.5 3.5l-2 -8
l-201 -172l-117 -105l187 -387z" />
    <glyph glyph-name="Edieresis" unicode="&#xcb;" horiz-adv-x="648" 
d="M593 -5c-12 0 -28.332 0.832031 -48.999 2.49902s-33 2.5 -37 2.5c-13.333 0 -30.333 -0.833008 -51 -2.5s-32.334 -2.5 -35.001 -2.5c-5.33301 52 -12 105.667 -20 161c-5.33301 35.333 -14 89 -26 161c-1.33301 8.66699 -11.666 67.667 -30.999 177l-119 -189
c-48 -77.333 -81 -131.666 -99 -162.999c-26.667 -46 -53 -94.333 -79 -145l-46 3l-49 -3l206 317l227 372c12 -2.66699 24 -5 36 -7c6.66699 0 13.167 0.666992 19.5 2s13.166 3 20.499 5z" />
    <glyph glyph-name="Edieresis" unicode="&#x41b;" horiz-adv-x="648" 
d="M593 -5c-12 0 -28.332 0.832031 -48.999 2.49902s-33 2.5 -37 2.5c-13.333 0 -30.333 -0.833008 -51 -2.5s-32.334 -2.5 -35.001 -2.5c-5.33301 52 -12 105.667 -20 161c-5.33301 35.333 -14 89 -26 161c-1.33301 8.66699 -11.666 67.667 -30.999 177l-119 -189
c-48 -77.333 -81 -131.666 -99 -162.999c-26.667 -46 -53 -94.333 -79 -145l-46 3l-49 -3l206 317l227 372c12 -2.66699 24 -5 36 -7c6.66699 0 13.167 0.666992 19.5 2s13.166 3 20.499 5z" />
    <glyph glyph-name="Igrave" unicode="&#xcc;" horiz-adv-x="889" 
d="M804 -5c-12 0 -27.665 0.832031 -46.998 2.49902s-31 2.5 -35 2.5c-12 0 -27.667 -0.833008 -47 -2.5s-31 -2.5 -35 -2.5c10.667 64 21 142.333 31 235l25 231l-108 -153l-107 -153l-105 -155c-10.667 1.33301 -18.334 2 -23.001 2c-3.33301 0 -8.33301 -0.666992 -15 -2
l-38 143l-42 150.5l-43 156.5c-34 -97.333 -60.667 -177.666 -80 -240.999c-24 -77.333 -43.667 -148.666 -59 -213.999c-6 0.666992 -14.167 1.66699 -24.5 3s-17.5 2 -21.5 2c-10 0 -18.333 -0.5 -25 -1.5s-14 -2.16699 -22 -3.5
c17.333 43.333 43.666 113.666 78.999 210.999l83 229l86 246c10.667 -1.33301 19.5 -2.5 26.5 -3.5s11.5 -1.5 13.5 -1.5c9.33301 0 17 0.5 23 1.5l20 3.5c12 -50.667 25.333 -102.667 40 -156c11.333 -42.667 26 -95 44 -157l46 -157l106 147l112 157l115 166
c6.66699 -0.666992 14 -1.66699 22 -3s14.333 -2 19 -2s11.667 0.666992 21 2s17 2.33301 23 3c-8 -84.667 -16.667 -169 -26 -253c-12 -112.667 -19.667 -188 -23 -226c-6 -74.667 -9 -143.667 -9 -207z" />
    <glyph glyph-name="Igrave" unicode="&#x41c;" horiz-adv-x="889" 
d="M804 -5c-12 0 -27.665 0.832031 -46.998 2.49902s-31 2.5 -35 2.5c-12 0 -27.667 -0.833008 -47 -2.5s-31 -2.5 -35 -2.5c10.667 64 21 142.333 31 235l25 231l-108 -153l-107 -153l-105 -155c-10.667 1.33301 -18.334 2 -23.001 2c-3.33301 0 -8.33301 -0.666992 -15 -2
l-38 143l-42 150.5l-43 156.5c-34 -97.333 -60.667 -177.666 -80 -240.999c-24 -77.333 -43.667 -148.666 -59 -213.999c-6 0.666992 -14.167 1.66699 -24.5 3s-17.5 2 -21.5 2c-10 0 -18.333 -0.5 -25 -1.5s-14 -2.16699 -22 -3.5
c17.333 43.333 43.666 113.666 78.999 210.999l83 229l86 246c10.667 -1.33301 19.5 -2.5 26.5 -3.5s11.5 -1.5 13.5 -1.5c9.33301 0 17 0.5 23 1.5l20 3.5c12 -50.667 25.333 -102.667 40 -156c11.333 -42.667 26 -95 44 -157l46 -157l106 147l112 157l115 166
c6.66699 -0.666992 14 -1.66699 22 -3s14.333 -2 19 -2s11.667 0.666992 21 2s17 2.33301 23 3c-8 -84.667 -16.667 -169 -26 -253c-12 -112.667 -19.667 -188 -23 -226c-6 -74.667 -9 -143.667 -9 -207z" />
    <glyph glyph-name="Iacute" unicode="&#xcd;" horiz-adv-x="758" 
d="M631 -5c-10.667 0 -24.832 0.833008 -42.499 2.5s-28.167 2.5 -31.5 2.5c-10.667 0 -25.167 -0.833008 -43.5 -2.5s-29.166 -2.5 -32.499 -2.5l71 335c-20.667 0 -49.167 0.833008 -85.5 2.5s-58.5 2.5 -66.5 2.5c-23.333 0 -53.333 -0.833008 -90 -2.5
s-58 -2.5 -64 -2.5l-71 -335c-10.667 0 -24.834 0.833008 -42.501 2.5s-28.167 2.5 -31.5 2.5c-10.667 0 -25.167 -0.833008 -43.5 -2.5s-29.166 -2.5 -32.499 -2.5l146 686c10 0 23.833 -0.833008 41.5 -2.5s28.5 -2.5 32.5 -2.5c9.33301 0 23 0.833008 41 2.5
s29.667 2.5 35 2.5l-58 -271c23.333 0 53.166 -0.833008 89.499 -2.5s57.166 -2.5 62.499 -2.5c23.333 0 42.333 0.333008 57 1c58.667 2.66699 91 4 97 4l58 271c10 0 23.833 -0.833008 41.5 -2.5s28.5 -2.5 32.5 -2.5c9.33301 0 23 0.833008 41 2.5s29.667 2.5 35 2.5z
" />
    <glyph glyph-name="Iacute" unicode="&#x41d;" horiz-adv-x="758" 
d="M631 -5c-10.667 0 -24.832 0.833008 -42.499 2.5s-28.167 2.5 -31.5 2.5c-10.667 0 -25.167 -0.833008 -43.5 -2.5s-29.166 -2.5 -32.499 -2.5l71 335c-20.667 0 -49.167 0.833008 -85.5 2.5s-58.5 2.5 -66.5 2.5c-23.333 0 -53.333 -0.833008 -90 -2.5
s-58 -2.5 -64 -2.5l-71 -335c-10.667 0 -24.834 0.833008 -42.501 2.5s-28.167 2.5 -31.5 2.5c-10.667 0 -25.167 -0.833008 -43.5 -2.5s-29.166 -2.5 -32.499 -2.5l146 686c10 0 23.833 -0.833008 41.5 -2.5s28.5 -2.5 32.5 -2.5c9.33301 0 23 0.833008 41 2.5
s29.667 2.5 35 2.5l-58 -271c23.333 0 53.166 -0.833008 89.499 -2.5s57.166 -2.5 62.499 -2.5c23.333 0 42.333 0.333008 57 1c58.667 2.66699 91 4 97 4l58 271c10 0 23.833 -0.833008 41.5 -2.5s28.5 -2.5 32.5 -2.5c9.33301 0 23 0.833008 41 2.5s29.667 2.5 35 2.5z
" />
    <glyph glyph-name="Icircumflex" unicode="&#xce;" horiz-adv-x="833" 
d="M822 343c-21.333 -101.333 -74.332 -186.001 -158.999 -254.001c-88.667 -71.333 -192.667 -107 -312 -107c-95.333 0 -169.833 22.833 -223.5 68.5s-80.5 110.834 -80.5 195.501c0 30.667 3.33301 61.667 10 93c22 103.333 74.667 188.333 158 255
c87.333 70 191.666 105 312.999 105c108 0 187.667 -28 239 -84c42.667 -46.667 64 -108.667 64 -186c0 -29.333 -3 -58 -9 -86zM660.001 361.999c6 28 9 56 9 84c0 57.333 -11.667 102.333 -35 135c-27.333 38.667 -69 58 -125 58c-71.333 0 -132 -27.167 -182 -81.5
s-86.667 -136.833 -110 -247.5c-6 -28 -9 -56 -9 -84c0 -54 12 -97 36 -129c28 -36.667 69.667 -55 125 -55c72.667 0 136 32.333 190 97c48 58 81.667 132.333 101 223z" />
    <glyph glyph-name="Icircumflex" unicode="&#x41e;" horiz-adv-x="833" 
d="M822 343c-21.333 -101.333 -74.332 -186.001 -158.999 -254.001c-88.667 -71.333 -192.667 -107 -312 -107c-95.333 0 -169.833 22.833 -223.5 68.5s-80.5 110.834 -80.5 195.501c0 30.667 3.33301 61.667 10 93c22 103.333 74.667 188.333 158 255
c87.333 70 191.666 105 312.999 105c108 0 187.667 -28 239 -84c42.667 -46.667 64 -108.667 64 -186c0 -29.333 -3 -58 -9 -86zM660.001 361.999c6 28 9 56 9 84c0 57.333 -11.667 102.333 -35 135c-27.333 38.667 -69 58 -125 58c-71.333 0 -132 -27.167 -182 -81.5
s-86.667 -136.833 -110 -247.5c-6 -28 -9 -56 -9 -84c0 -54 12 -97 36 -129c28 -36.667 69.667 -55 125 -55c72.667 0 136 32.333 190 97c48 58 81.667 132.333 101 223z" />
    <glyph glyph-name="Idieresis" unicode="&#xcf;" horiz-adv-x="758" 
d="M631 -5c-9.33301 0 -22.834 0.833008 -40.501 2.5s-29.167 2.5 -34.5 2.5c-10 0 -24.167 -0.833008 -42.5 -2.5s-29.166 -2.5 -32.499 -2.5l130 611l-153 3l-153 -3l-130 -611c-10.667 0 -24.834 0.833008 -42.501 2.5s-28.167 2.5 -31.5 2.5
c-10.667 0 -25.167 -0.833008 -43.5 -2.5s-29.166 -2.5 -32.499 -2.5l146 686h606z" />
    <glyph glyph-name="Idieresis" unicode="&#x41f;" horiz-adv-x="758" 
d="M631 -5c-9.33301 0 -22.834 0.833008 -40.501 2.5s-29.167 2.5 -34.5 2.5c-10 0 -24.167 -0.833008 -42.5 -2.5s-29.166 -2.5 -32.499 -2.5l130 611l-153 3l-153 -3l-130 -611c-10.667 0 -24.834 0.833008 -42.501 2.5s-28.167 2.5 -31.5 2.5
c-10.667 0 -25.167 -0.833008 -43.5 -2.5s-29.166 -2.5 -32.499 -2.5l146 686h606z" />
    <glyph glyph-name="Eth" unicode="&#xd0;" 
d="M595 512c-18 -83.333 -59.333 -141.667 -124 -175c-52.667 -27.333 -130 -41 -232 -41l-64 -301c-10.667 0 -24.834 0.833008 -42.501 2.5s-28.167 2.5 -31.5 2.5c-10.667 0 -25.167 -0.833008 -43.5 -2.5s-29.166 -2.5 -32.499 -2.5l146 686h246c122 0 183 -42 183 -126
c0 -12 -1.66699 -26.333 -5 -43zM436 493.999c3.33301 16.667 4.99902 31 4.99902 43c0 28 -6.33301 50 -19 66s-29.667 24 -51 24h-62l-58 -276c14.667 0 26 0.333008 34 1s19 2.66699 33 6c32.667 8.66699 59.334 26 80.001 52c18 22.667 30.667 50.667 38 84z" />
    <glyph glyph-name="Eth" unicode="&#x420;" 
d="M595 512c-18 -83.333 -59.333 -141.667 -124 -175c-52.667 -27.333 -130 -41 -232 -41l-64 -301c-10.667 0 -24.834 0.833008 -42.501 2.5s-28.167 2.5 -31.5 2.5c-10.667 0 -25.167 -0.833008 -43.5 -2.5s-29.166 -2.5 -32.499 -2.5l146 686h246c122 0 183 -42 183 -126
c0 -12 -1.66699 -26.333 -5 -43zM436 493.999c3.33301 16.667 4.99902 31 4.99902 43c0 28 -6.33301 50 -19 66s-29.667 24 -51 24h-62l-58 -276c14.667 0 26 0.333008 34 1s19 2.66699 33 6c32.667 8.66699 59.334 26 80.001 52c18 22.667 30.667 50.667 38 84z" />
    <glyph glyph-name="Ntilde" unicode="&#xd1;" horiz-adv-x="667" 
d="M723 650l-45 -103.003h-14c-12.667 27.333 -32.167 49.5 -58.5 66.5s-55.5 25.5 -87.5 25.5c-77.333 0 -144 -32.667 -200 -98c-47.333 -55.333 -80 -124.666 -98 -207.999c-7.33301 -34.667 -11 -65.667 -11 -93c0 -61.333 16 -109.666 48 -144.999s78.333 -53 139 -53
c30.667 0 63.834 7 99.501 21s67.5 32 95.5 54l12 -6l-41 -86c-32 -14.667 -65.667 -25.5 -101 -32.5s-70.666 -10.5 -105.999 -10.5c-94.667 0 -170.334 23.5 -227.001 70.5s-85 110.833 -85 191.5c0 16.667 0.333008 29.334 1 38.001s3 21 7 37
c26 124.667 85.333 220.667 178 288c84 61.333 184.333 92 301 92c34.667 0 69.167 -4.16699 103.5 -12.5s64.166 -20.5 89.499 -36.5z" />
    <glyph glyph-name="Ntilde" unicode="&#x421;" horiz-adv-x="667" 
d="M723 650l-45 -103.003h-14c-12.667 27.333 -32.167 49.5 -58.5 66.5s-55.5 25.5 -87.5 25.5c-77.333 0 -144 -32.667 -200 -98c-47.333 -55.333 -80 -124.666 -98 -207.999c-7.33301 -34.667 -11 -65.667 -11 -93c0 -61.333 16 -109.666 48 -144.999s78.333 -53 139 -53
c30.667 0 63.834 7 99.501 21s67.5 32 95.5 54l12 -6l-41 -86c-32 -14.667 -65.667 -25.5 -101 -32.5s-70.666 -10.5 -105.999 -10.5c-94.667 0 -170.334 23.5 -227.001 70.5s-85 110.833 -85 191.5c0 16.667 0.333008 29.334 1 38.001s3 21 7 37
c26 124.667 85.333 220.667 178 288c84 61.333 184.333 92 301 92c34.667 0 69.167 -4.16699 103.5 -12.5s64.166 -20.5 89.499 -36.5z" />
    <glyph glyph-name="Ograve" unicode="&#xd2;" 
d="M612 596c-46.667 5.33301 -80.168 8.99902 -100.501 10.999s-45.5 3 -75.5 3l-131 -615c-10.667 0 -24.834 0.833008 -42.501 2.5s-28.167 2.5 -31.5 2.5c-10.667 0 -25.167 -0.833008 -43.5 -2.5s-29.166 -2.5 -32.499 -2.5l131 615
c-35.333 0 -66.666 -1.16699 -93.999 -3.5s-59 -5.83301 -95 -10.5c3.33301 9.33301 5.66602 16.333 6.99902 21c4 11.333 6.83301 21 8.5 29s2.5 19.667 2.5 35h515c-3.33301 -9.33301 -5.66602 -16.333 -6.99902 -21c-4 -11.333 -6.33301 -18.333 -7 -21
c-2.66699 -13.333 -4 -27.666 -4 -42.999z" />
    <glyph glyph-name="Ograve" unicode="&#x422;" 
d="M612 596c-46.667 5.33301 -80.168 8.99902 -100.501 10.999s-45.5 3 -75.5 3l-131 -615c-10.667 0 -24.834 0.833008 -42.501 2.5s-28.167 2.5 -31.5 2.5c-10.667 0 -25.167 -0.833008 -43.5 -2.5s-29.166 -2.5 -32.499 -2.5l131 615
c-35.333 0 -66.666 -1.16699 -93.999 -3.5s-59 -5.83301 -95 -10.5c3.33301 9.33301 5.66602 16.333 6.99902 21c4 11.333 6.83301 21 8.5 29s2.5 19.667 2.5 35h515c-3.33301 -9.33301 -5.66602 -16.333 -6.99902 -21c-4 -11.333 -6.33301 -18.333 -7 -21
c-2.66699 -13.333 -4 -27.666 -4 -42.999z" />
    <glyph glyph-name="Oacute" unicode="&#xd3;" horiz-adv-x="648" 
d="M734 681l-217.999 -296.001c-71.333 -98 -123 -170.667 -155 -218c-43.333 -64 -79 -121.333 -107 -172c-10 3.33301 -22.333 5 -37 5c-14 0 -31.667 -1.66699 -53 -5l133 182c-14 41.333 -32.667 92.333 -56 153l-70 179l-68 172c40 -4 73.333 -6 100 -6
c30 0 56.667 2 80 6c21.333 -76 40.333 -139.333 57 -190c19.333 -57.333 40.333 -111.666 63 -162.999l82 120l72 110c47.333 72 74 113 80 123l45 -3h12c13.333 0 26.666 1 39.999 3z" />
    <glyph glyph-name="Oacute" unicode="&#x423;" horiz-adv-x="648" 
d="M734 681l-217.999 -296.001c-71.333 -98 -123 -170.667 -155 -218c-43.333 -64 -79 -121.333 -107 -172c-10 3.33301 -22.333 5 -37 5c-14 0 -31.667 -1.66699 -53 -5l133 182c-14 41.333 -32.667 92.333 -56 153l-70 179l-68 172c40 -4 73.333 -6 100 -6
c30 0 56.667 2 80 6c21.333 -76 40.333 -139.333 57 -190c19.333 -57.333 40.333 -111.666 63 -162.999l82 120l72 110c47.333 72 74 113 80 123l45 -3h12c13.333 0 26.666 1 39.999 3z" />
    <glyph glyph-name="Ocircumflex" unicode="&#xd4;" horiz-adv-x="869" 
d="M870 352c-17.333 -80.667 -61.667 -148.332 -133 -202.999s-160 -86.667 -266 -96l-12 -57l-38 3c-8.66699 0.666992 -20.667 1 -36 1c-8 0 -20.333 -0.666992 -37 -2s-29.667 -2 -39 -2l12 55c-87.333 0 -155.833 19.5 -205.5 58.5s-74.5 94.5 -74.5 166.5
c0 20.667 2.66699 45 8 73c18 84 60.667 150.667 128 200c70.667 52 159.334 78 266.001 78l12 54c23.333 -4 47.666 -6 72.999 -6s51 2 77 6l-11 -52c99.333 0 173.333 -22 222 -66c40.667 -36.667 61 -86.334 61 -149.001c0 -8 -0.5 -16.667 -1.5 -26
s-2.83301 -21.333 -5.5 -36zM706.999 369.002c2 10.667 3.66602 20.501 4.99902 29.501s2 18.167 2 27.5c0 38.667 -10.667 71 -32 97s-54.666 43 -99.999 51l-99 -465c58.667 12 107.667 42.333 147 91c37.333 45.333 63 101.666 77 168.999zM332.998 106.003
l98.999 465.999c-59.333 -10 -105.666 -32.333 -138.999 -67c-38 -39.333 -65.667 -99.666 -83 -180.999c-4.66699 -19.333 -7 -40.333 -7 -63c0 -42 9.66699 -76 29 -102c22 -29.333 55.667 -47 101 -53z" />
    <glyph glyph-name="Ocircumflex" unicode="&#x424;" horiz-adv-x="869" 
d="M870 352c-17.333 -80.667 -61.667 -148.332 -133 -202.999s-160 -86.667 -266 -96l-12 -57l-38 3c-8.66699 0.666992 -20.667 1 -36 1c-8 0 -20.333 -0.666992 -37 -2s-29.667 -2 -39 -2l12 55c-87.333 0 -155.833 19.5 -205.5 58.5s-74.5 94.5 -74.5 166.5
c0 20.667 2.66699 45 8 73c18 84 60.667 150.667 128 200c70.667 52 159.334 78 266.001 78l12 54c23.333 -4 47.666 -6 72.999 -6s51 2 77 6l-11 -52c99.333 0 173.333 -22 222 -66c40.667 -36.667 61 -86.334 61 -149.001c0 -8 -0.5 -16.667 -1.5 -26
s-2.83301 -21.333 -5.5 -36zM706.999 369.002c2 10.667 3.66602 20.501 4.99902 29.501s2 18.167 2 27.5c0 38.667 -10.667 71 -32 97s-54.666 43 -99.999 51l-99 -465c58.667 12 107.667 42.333 147 91c37.333 45.333 63 101.666 77 168.999zM332.998 106.003
l98.999 465.999c-59.333 -10 -105.666 -32.333 -138.999 -67c-38 -39.333 -65.667 -99.666 -83 -180.999c-4.66699 -19.333 -7 -40.333 -7 -63c0 -42 9.66699 -76 29 -102c22 -29.333 55.667 -47 101 -53z" />
    <glyph glyph-name="Otilde" unicode="&#xd5;" horiz-adv-x="611" 
d="M682 681l-125.997 -135.999l-151 -165l8 -23l41 -118l41 -119c9.33301 -28.667 21.666 -70.334 36.999 -125.001c-12 0 -28.333 0.833008 -49 2.5s-33 2.5 -37 2.5c-12 0 -28.5 -0.833008 -49.5 -2.5s-33.5 -2.5 -37.5 -2.5c-14.667 51.333 -27.334 94 -38.001 128
l-40 127l-122 -144l-47 -58l-39 -51l-49 3l-51 -3l284 316l-127 368c12.667 0 29.5 -0.833008 50.5 -2.5s33.5 -2.5 37.5 -2.5c12.667 0 29.5 0.833008 50.5 2.5s34.167 2.5 39.5 2.5c7.33301 -30.667 15.666 -61 24.999 -91l47 -151l203 242l48 -3z" />
    <glyph glyph-name="Otilde" unicode="&#x425;" horiz-adv-x="611" 
d="M682 681l-125.997 -135.999l-151 -165l8 -23l41 -118l41 -119c9.33301 -28.667 21.666 -70.334 36.999 -125.001c-12 0 -28.333 0.833008 -49 2.5s-33 2.5 -37 2.5c-12 0 -28.5 -0.833008 -49.5 -2.5s-33.5 -2.5 -37.5 -2.5c-14.667 51.333 -27.334 94 -38.001 128
l-40 127l-122 -144l-47 -58l-39 -51l-49 3l-51 -3l284 316l-127 368c12.667 0 29.5 -0.833008 50.5 -2.5s33.5 -2.5 37.5 -2.5c12.667 0 29.5 0.833008 50.5 2.5s34.167 2.5 39.5 2.5c7.33301 -30.667 15.666 -61 24.999 -91l47 -151l203 242l48 -3z" />
    <glyph glyph-name="Odieresis" unicode="&#xd6;" horiz-adv-x="758" 
d="M678 -45h-15.002c-11.333 19.333 -33.333 32.333 -66 39c-20 4 -49.333 6 -88 6h-483l145 681c24 -2.66699 40 -4.16699 48 -4.5s16.667 -0.5 26 -0.5c24 0 49.333 1.66699 76 5l-129 -606c12 -1.33301 29.833 -2.16602 53.5 -2.49902s43.167 -0.5 58.5 -0.5h41
c27.333 0 53.5 0.333008 78.5 1l74.5 2l129 606c25.333 -3.33301 49.666 -5 72.999 -5c22.667 0 48.334 1.66699 77.001 5l-130 -609h56c-6 -14 -9.66699 -23.167 -11 -27.5s-3.16602 -11.833 -5.49902 -22.5s-4.16602 -22.834 -5.49902 -36.501z" />
    <glyph glyph-name="Odieresis" unicode="&#x426;" horiz-adv-x="758" 
d="M678 -45h-15.002c-11.333 19.333 -33.333 32.333 -66 39c-20 4 -49.333 6 -88 6h-483l145 681c24 -2.66699 40 -4.16699 48 -4.5s16.667 -0.5 26 -0.5c24 0 49.333 1.66699 76 5l-129 -606c12 -1.33301 29.833 -2.16602 53.5 -2.49902s43.167 -0.5 58.5 -0.5h41
c27.333 0 53.5 0.333008 78.5 1l74.5 2l129 606c25.333 -3.33301 49.666 -5 72.999 -5c22.667 0 48.334 1.66699 77.001 5l-130 -609h56c-6 -14 -9.66699 -23.167 -11 -27.5s-3.16602 -11.833 -5.49902 -22.5s-4.16602 -22.834 -5.49902 -36.501z" />
    <glyph glyph-name="multiply" unicode="&#xd7;" horiz-adv-x="703" 
d="M576 -5c-9.33301 0 -22.834 0.832031 -40.501 2.49902s-29.167 2.5 -34.5 2.5c-10 0 -24.167 -0.833008 -42.5 -2.5s-29.166 -2.5 -32.499 -2.5l72 340c-38 -22 -76.833 -38.833 -116.5 -50.5s-77.167 -17.5 -112.5 -17.5c-52.667 0 -95.667 12.333 -129 37
s-50 59.334 -50 104.001c0 11.333 1.66699 25.333 5 42l49 231c8 0 20 -1 36 -3s28.333 -3 37 -3c8 0 20.667 1 38 3s30.333 3 39 3l-44 -206c-1.33301 -4.66699 -2.33301 -10.5 -3 -17.5s-1 -12.833 -1 -17.5c0 -30 9.5 -52 28.5 -66s44.167 -21 75.5 -21
c25.333 0 52.333 4.16699 81 12.5s55.667 19.833 81 34.5l60 281c8 0 20 -1 36 -3s28 -3 36 -3c8.66699 0 21.667 1 39 3s30.333 3 39 3z" />
    <glyph glyph-name="multiply" unicode="&#x427;" horiz-adv-x="703" 
d="M576 -5c-9.33301 0 -22.834 0.832031 -40.501 2.49902s-29.167 2.5 -34.5 2.5c-10 0 -24.167 -0.833008 -42.5 -2.5s-29.166 -2.5 -32.499 -2.5l72 340c-38 -22 -76.833 -38.833 -116.5 -50.5s-77.167 -17.5 -112.5 -17.5c-52.667 0 -95.667 12.333 -129 37
s-50 59.334 -50 104.001c0 11.333 1.66699 25.333 5 42l49 231c8 0 20 -1 36 -3s28.333 -3 37 -3c8 0 20.667 1 38 3s30.333 3 39 3l-44 -206c-1.33301 -4.66699 -2.33301 -10.5 -3 -17.5s-1 -12.833 -1 -17.5c0 -30 9.5 -52 28.5 -66s44.167 -21 75.5 -21
c25.333 0 52.333 4.16699 81 12.5s55.667 19.833 81 34.5l60 281c8 0 20 -1 36 -3s28 -3 36 -3c8.66699 0 21.667 1 39 3s30.333 3 39 3z" />
    <glyph glyph-name="Oslash" unicode="&#xd8;" horiz-adv-x="925" 
d="M797 0h-770.003l145 681c8 0 21.833 -0.666992 41.5 -2s30.5 -2 32.5 -2c8.66699 0 21.334 0.666992 38.001 2s29.334 2 38.001 2l-129 -607c10.667 -1.33301 22.834 -2 36.501 -2h42.5c10.667 0 25 0.333008 43 1s30.667 1 38 1l129 607c8 0 20 -1 36 -3
s28.333 -3 37 -3c8 0 20.667 1 38 3s30.333 3 39 3l-129 -607c10.667 -1.33301 22.667 -2 36 -2h43c11.333 0 25.833 0.333008 43.5 1s30.167 1 37.5 1l129 607c8.66699 0 21 -0.666992 37 -2s28 -2 36 -2c8.66699 0 23.5 0.666992 44.5 2s31.833 2 32.5 2z" />
    <glyph glyph-name="Oslash" unicode="&#x428;" horiz-adv-x="925" 
d="M797 0h-770.003l145 681c8 0 21.833 -0.666992 41.5 -2s30.5 -2 32.5 -2c8.66699 0 21.334 0.666992 38.001 2s29.334 2 38.001 2l-129 -607c10.667 -1.33301 22.834 -2 36.501 -2h42.5c10.667 0 25 0.333008 43 1s30.667 1 38 1l129 607c8 0 20 -1 36 -3
s28.333 -3 37 -3c8 0 20.667 1 38 3s30.333 3 39 3l-129 -607c10.667 -1.33301 22.667 -2 36 -2h43c11.333 0 25.833 0.333008 43.5 1s30.167 1 37.5 1l129 607c8.66699 0 21 -0.666992 37 -2s28 -2 36 -2c8.66699 0 23.5 0.666992 44.5 2s31.833 2 32.5 2z" />
    <glyph glyph-name="Ugrave" unicode="&#xd9;" horiz-adv-x="925" 
d="M843 -45h-15.0039c-11.333 19.333 -33.333 32.333 -66 39c-20 4 -49.333 6 -88 6h-647l145 682c8 0 21.833 -0.666992 41.5 -2s30.5 -2 32.5 -2c8.66699 0 21.334 0.666992 38.001 2s29.334 2 38.001 2l-129 -607c20 -2 46.333 -3 79 -3h22c19.333 0 39 1 59 3l129 607
c8 0 20 -1 36 -3s28.667 -3 38 -3c8.66699 0 21.334 1 38.001 3s29.334 3 38.001 3l-129 -607c6.66699 -0.666992 20.5 -1.33398 41.5 -2.00098s33.5 -1 37.5 -1l81 3l129 607c8.66699 0 21 -0.666992 37 -2s28 -2 36 -2c8.66699 0 23.5 0.666992 44.5 2s31.833 2 32.5 2
l-130 -610h56c-6 -14 -9.66699 -23.167 -11 -27.5s-3.33301 -13.166 -6 -26.499c-5.33301 -22.667 -8 -43.667 -8 -63z" />
    <glyph glyph-name="Ugrave" unicode="&#x429;" horiz-adv-x="925" 
d="M843 -45h-15.0039c-11.333 19.333 -33.333 32.333 -66 39c-20 4 -49.333 6 -88 6h-647l145 682c8 0 21.833 -0.666992 41.5 -2s30.5 -2 32.5 -2c8.66699 0 21.334 0.666992 38.001 2s29.334 2 38.001 2l-129 -607c20 -2 46.333 -3 79 -3h22c19.333 0 39 1 59 3l129 607
c8 0 20 -1 36 -3s28.667 -3 38 -3c8.66699 0 21.334 1 38.001 3s29.334 3 38.001 3l-129 -607c6.66699 -0.666992 20.5 -1.33398 41.5 -2.00098s33.5 -1 37.5 -1l81 3l129 607c8.66699 0 21 -0.666992 37 -2s28 -2 36 -2c8.66699 0 23.5 0.666992 44.5 2s31.833 2 32.5 2
l-130 -610h56c-6 -14 -9.66699 -23.167 -11 -27.5s-3.33301 -13.166 -6 -26.499c-5.33301 -22.667 -8 -43.667 -8 -63z" />
    <glyph glyph-name="Uacute" unicode="&#xda;" horiz-adv-x="593" 
d="M568 217c-17.333 -81.333 -56.667 -139.667 -118 -175c-48.667 -28 -111 -42 -187 -42h-201l130 610c-18 0 -34.833 -1.16699 -50.5 -3.5s-30.5 -5.83301 -44.5 -10.5c6 12 10.5 25.333 13.5 40s4.5 29.667 4.5 45h242l-63 -294h96c122 0 183 -42.333 183 -127
c0 -12 -1.66699 -26.333 -5 -43zM408.999 198.999c3.33301 16.667 4.99902 30.665 4.99902 41.998c0 28 -6.33301 49.667 -19 65s-29.667 23 -51 23h-62l-58 -273c10.667 0.666992 22 1.33398 34 2.00098s23 2.33398 33 5.00098c32.667 8.66699 59.334 25.667 80.001 51
c18 22.667 30.667 51 38 85z" />
    <glyph glyph-name="Uacute" unicode="&#x42a;" horiz-adv-x="593" 
d="M568 217c-17.333 -81.333 -56.667 -139.667 -118 -175c-48.667 -28 -111 -42 -187 -42h-201l130 610c-18 0 -34.833 -1.16699 -50.5 -3.5s-30.5 -5.83301 -44.5 -10.5c6 12 10.5 25.333 13.5 40s4.5 29.667 4.5 45h242l-63 -294h96c122 0 183 -42.333 183 -127
c0 -12 -1.66699 -26.333 -5 -43zM408.999 198.999c3.33301 16.667 4.99902 30.665 4.99902 41.998c0 28 -6.33301 49.667 -19 65s-29.667 23 -51 23h-62l-58 -273c10.667 0.666992 22 1.33398 34 2.00098s23 2.33398 33 5.00098c32.667 8.66699 59.334 25.667 80.001 51
c18 22.667 30.667 51 38 85z" />
    <glyph glyph-name="Ucircumflex" unicode="&#xdb;" horiz-adv-x="851" 
d="M724 -4c-8 0 -21.8311 0.666992 -41.498 2s-30.5 2 -32.5 2c-8.66699 -0 -21.334 -0.666992 -38.001 -2s-29.334 -2 -38.001 -2l146 685c8 0 20 -1 36 -3s28.333 -3 37 -3c8 0 20.667 1 38 3s30.333 3 39 3zM532.002 217c-17.333 -81.333 -56.667 -139.667 -118 -175
c-48.667 -28 -111 -42 -187 -42h-201l146 685c8 0 20 -0.666992 36 -2s28.667 -2 38 -2c8 0 20.333 0.666992 37 2s29.667 2 39 2l-64 -298h96c122 0 183 -42.333 183 -127c0 -12 -1.66699 -26.333 -5 -43zM373.001 198.999c3.33301 16.667 4.99902 30.665 4.99902 41.998
c0 28 -6.33301 49.667 -19 65s-29.667 23 -51 23h-62l-58 -273c10.667 0.666992 22 1.33398 34 2.00098s23 2.33398 33 5.00098c32.667 8.66699 59.334 25.667 80.001 51c18 22.667 30.667 51 38 85z" />
    <glyph glyph-name="Ucircumflex" unicode="&#x42b;" horiz-adv-x="851" 
d="M724 -4c-8 0 -21.8311 0.666992 -41.498 2s-30.5 2 -32.5 2c-8.66699 -0 -21.334 -0.666992 -38.001 -2s-29.334 -2 -38.001 -2l146 685c8 0 20 -1 36 -3s28.333 -3 37 -3c8 0 20.667 1 38 3s30.333 3 39 3zM532.002 217c-17.333 -81.333 -56.667 -139.667 -118 -175
c-48.667 -28 -111 -42 -187 -42h-201l146 685c8 0 20 -0.666992 36 -2s28.667 -2 38 -2c8 0 20.333 0.666992 37 2s29.667 2 39 2l-64 -298h96c122 0 183 -42.333 183 -127c0 -12 -1.66699 -26.333 -5 -43zM373.001 198.999c3.33301 16.667 4.99902 30.665 4.99902 41.998
c0 28 -6.33301 49.667 -19 65s-29.667 23 -51 23h-62l-58 -273c10.667 0.666992 22 1.33398 34 2.00098s23 2.33398 33 5.00098c32.667 8.66699 59.334 25.667 80.001 51c18 22.667 30.667 51 38 85z" />
    <glyph glyph-name="Udieresis" unicode="&#xdc;" 
d="M532 217c-17.333 -81.333 -56.667 -139.667 -118 -175c-48.667 -28 -111 -42 -187 -42h-201l146 685c8 0 20 -0.666992 36 -2s28.667 -2 38 -2c8 0 20.333 0.666992 37 2s29.667 2 39 2l-64 -298h96c122 0 183 -42.333 183 -127c0 -12 -1.66699 -26.333 -5 -43z
M372.999 198.999c3.33301 16.667 4.99902 30.665 4.99902 41.998c0 28 -6.33301 49.667 -19 65s-29.667 23 -51 23h-62l-58 -273c10.667 0.666992 22 1.33398 34 2.00098s23 2.33398 33 5.00098c32.667 8.66699 59.334 25.667 80.001 51c18 22.667 30.667 51 38 85z" />
    <glyph glyph-name="Udieresis" unicode="&#x42c;" 
d="M532 217c-17.333 -81.333 -56.667 -139.667 -118 -175c-48.667 -28 -111 -42 -187 -42h-201l146 685c8 0 20 -0.666992 36 -2s28.667 -2 38 -2c8 0 20.333 0.666992 37 2s29.667 2 39 2l-64 -298h96c122 0 183 -42.333 183 -127c0 -12 -1.66699 -26.333 -5 -43z
M372.999 198.999c3.33301 16.667 4.99902 30.665 4.99902 41.998c0 28 -6.33301 49.667 -19 65s-29.667 23 -51 23h-62l-58 -273c10.667 0.666992 22 1.33398 34 2.00098s23 2.33398 33 5.00098c32.667 8.66699 59.334 25.667 80.001 51c18 22.667 30.667 51 38 85z" />
    <glyph glyph-name="Yacute" unicode="&#xdd;" horiz-adv-x="667" 
d="M661 362c-26 -122.667 -84.3301 -218.001 -174.997 -286.001c-83.333 -62.667 -181 -94 -293 -94c-40.667 0 -74.5 3.66699 -101.5 11s-55.5 20 -85.5 38l6 80l14 6c18.667 -22 43 -40 73 -54s61 -21 93 -21c74.667 0 139 29.333 193 88
c47.333 51.333 81 116.333 101 195h-227c-36.667 0 -68 -2.33301 -94 -7c6.66699 15.333 11.334 29.333 14.001 42l3 40c15.333 -2 29.666 -3.66699 42.999 -5s29.666 -2 48.999 -2h226c2 17.333 3 33 3 47c0 66 -18 116.667 -54 152c-32 31.333 -73.333 47 -124 47
c-36.667 0 -71.834 -8.16699 -105.501 -24.5s-61.834 -38.833 -84.501 -67.5h-14c2 10.667 4.33301 25.834 7 45.501s4 40.5 4 62.5c31.333 14 66.333 24.833 105 32.5s75 11.5 109 11.5c100 0 179 -23 237 -69s87 -109.667 87 -191c0 -24 -3 -49.667 -9 -77z" />
    <glyph glyph-name="Yacute" unicode="&#x42d;" horiz-adv-x="667" 
d="M661 362c-26 -122.667 -84.3301 -218.001 -174.997 -286.001c-83.333 -62.667 -181 -94 -293 -94c-40.667 0 -74.5 3.66699 -101.5 11s-55.5 20 -85.5 38l6 80l14 6c18.667 -22 43 -40 73 -54s61 -21 93 -21c74.667 0 139 29.333 193 88
c47.333 51.333 81 116.333 101 195h-227c-36.667 0 -68 -2.33301 -94 -7c6.66699 15.333 11.334 29.333 14.001 42l3 40c15.333 -2 29.666 -3.66699 42.999 -5s29.666 -2 48.999 -2h226c2 17.333 3 33 3 47c0 66 -18 116.667 -54 152c-32 31.333 -73.333 47 -124 47
c-36.667 0 -71.834 -8.16699 -105.501 -24.5s-61.834 -38.833 -84.501 -67.5h-14c2 10.667 4.33301 25.834 7 45.501s4 40.5 4 62.5c31.333 14 66.333 24.833 105 32.5s75 11.5 109 11.5c100 0 179 -23 237 -69s87 -109.667 87 -191c0 -24 -3 -49.667 -9 -77z" />
    <glyph glyph-name="Thorn" unicode="&#xde;" horiz-adv-x="1054" 
d="M1042 343c-21.333 -101.333 -72.333 -186 -153 -254c-84.667 -71.333 -184 -107 -298 -107c-90 0 -159.833 22.5 -209.5 67.5s-74.5 108.833 -74.5 191.5c0 24 2.66699 52 8 84h-70l-70 -329c-8 0 -21.833 0.666992 -41.5 2s-30.5 2 -32.5 2
c-8.66699 -0 -21.334 -0.666992 -38.001 -2s-29.334 -2 -38.001 -2l146 685c8 0 20 -1 36 -3s28.333 -3 37 -3c8 0 20.667 1 38 3s30.333 3 39 3l-59 -276h73c32.667 86.667 86.334 156.667 161.001 210c78.667 56 169 84 271 84s177 -27.333 225 -82
c40 -45.333 60 -106.333 60 -183c0 -24.667 -1 -44 -3 -58c-3.33301 -15.333 -5.66602 -26.333 -6.99902 -33zM881 362c6.66699 28.667 10.001 59.333 10.001 92c0 54.667 -10.667 98 -32 130c-24.667 36.667 -61.667 55 -111 55c-64.667 0 -120.5 -27.167 -167.5 -81.5
s-82.167 -136.833 -105.5 -247.5c-2.66699 -13.333 -5 -28.333 -7 -45s-3 -31.667 -3 -45c0 -52 11 -93.667 33 -125c25.333 -35.333 62.333 -53 111 -53c66 0 124.333 32.333 175 97c45.333 58 77.666 132.333 96.999 223z" />
    <glyph glyph-name="Thorn" unicode="&#x42e;" horiz-adv-x="1054" 
d="M1042 343c-21.333 -101.333 -72.333 -186 -153 -254c-84.667 -71.333 -184 -107 -298 -107c-90 0 -159.833 22.5 -209.5 67.5s-74.5 108.833 -74.5 191.5c0 24 2.66699 52 8 84h-70l-70 -329c-8 0 -21.833 0.666992 -41.5 2s-30.5 2 -32.5 2
c-8.66699 -0 -21.334 -0.666992 -38.001 -2s-29.334 -2 -38.001 -2l146 685c8 0 20 -1 36 -3s28.333 -3 37 -3c8 0 20.667 1 38 3s30.333 3 39 3l-59 -276h73c32.667 86.667 86.334 156.667 161.001 210c78.667 56 169 84 271 84s177 -27.333 225 -82
c40 -45.333 60 -106.333 60 -183c0 -24.667 -1 -44 -3 -58c-3.33301 -15.333 -5.66602 -26.333 -6.99902 -33zM881 362c6.66699 28.667 10.001 59.333 10.001 92c0 54.667 -10.667 98 -32 130c-24.667 36.667 -61.667 55 -111 55c-64.667 0 -120.5 -27.167 -167.5 -81.5
s-82.167 -136.833 -105.5 -247.5c-2.66699 -13.333 -5 -28.333 -7 -45s-3 -31.667 -3 -45c0 -52 11 -93.667 33 -125c25.333 -35.333 62.333 -53 111 -53c66 0 124.333 32.333 175 97c45.333 58 77.666 132.333 96.999 223z" />
    <glyph glyph-name="germandbls" unicode="&#xdf;" horiz-adv-x="611" 
d="M485 -4c-8 0 -21.8301 0.667969 -41.4971 2.00098s-30.5 2 -32.5 2c-8.66699 0 -21.334 -0.666992 -38.001 -2s-29.334 -2 -38.001 -2l68 319h-17l-106 -145l-136 -174c-10 0 -26.833 0.666992 -50.5 2s-36.5 2 -38.5 2c-10.667 0 -28.834 -0.666992 -54.501 -2
s-38.834 -2 -39.501 -2c0.666992 0 19 20.333 55 61l119 136c52.667 61.333 91.334 108 116.001 140c-40 5.33301 -70.833 18.833 -92.5 40.5s-32.5 50.834 -32.5 87.501c0 14 1.33301 27.333 4 40c7.33301 33.333 20.833 62.166 40.5 86.499s45.834 45.166 78.501 62.499
c21.333 11.333 47.666 19.333 78.999 24s61.333 7 90 7h213zM413.003 364.001l56 262h-36c-43.333 0 -76.5 -10.667 -99.5 -32s-39.5 -55 -49.5 -101c-4 -18 -6 -34 -6 -48c0 -56.667 31 -85 93 -85c4.66699 0 10 0.166992 16 0.5s14.667 1.5 26 3.5z" />
    <glyph glyph-name="germandbls" unicode="&#x42f;" horiz-adv-x="611" 
d="M485 -4c-8 0 -21.8301 0.667969 -41.4971 2.00098s-30.5 2 -32.5 2c-8.66699 0 -21.334 -0.666992 -38.001 -2s-29.334 -2 -38.001 -2l68 319h-17l-106 -145l-136 -174c-10 0 -26.833 0.666992 -50.5 2s-36.5 2 -38.5 2c-10.667 0 -28.834 -0.666992 -54.501 -2
s-38.834 -2 -39.501 -2c0.666992 0 19 20.333 55 61l119 136c52.667 61.333 91.334 108 116.001 140c-40 5.33301 -70.833 18.833 -92.5 40.5s-32.5 50.834 -32.5 87.501c0 14 1.33301 27.333 4 40c7.33301 33.333 20.833 62.166 40.5 86.499s45.834 45.166 78.501 62.499
c21.333 11.333 47.666 19.333 78.999 24s61.333 7 90 7h213zM413.003 364.001l56 262h-36c-43.333 0 -76.5 -10.667 -99.5 -32s-39.5 -55 -49.5 -101c-4 -18 -6 -34 -6 -48c0 -56.667 31 -85 93 -85c4.66699 0 10 0.166992 16 0.5s14.667 1.5 26 3.5z" />
    <glyph glyph-name="agrave" unicode="&#xe0;" horiz-adv-x="500" 
d="M445 13c-13.333 -5.33301 -30.001 -11.1699 -50.001 -17.5029s-35.667 -9.5 -47 -9.5c-23.333 0 -42 6.33301 -56 19s-22.667 30.667 -26 54c-18 -23.333 -39.833 -41.333 -65.5 -54s-51.834 -19 -78.501 -19c-36.667 0 -65.5 8.5 -86.5 25.5s-31.5 41.5 -31.5 73.5
c0 4.66699 0.5 10.334 1.5 17.001s1.83301 12 2.5 16c9.33301 45.333 31 79 65 101c28 18.667 78 36.334 150 53.001l29 7c18 4.66699 34.333 11 49 19c6.66699 4.66699 11.834 10.167 15.501 16.5s6.33398 13.333 8.00098 21s2.5 13.167 2.5 16.5
c0 20 -7.83301 37.167 -23.5 51.5s-34.167 21.5 -55.5 21.5c-28.667 0 -58 -8 -88 -24c-24.667 -13.333 -40.334 -26 -47.001 -38h-7v59c26.667 21.333 58.167 37.833 94.5 49.5s71.166 17.5 104.499 17.5c44.667 0 81.334 -7.66699 110.001 -23
c36 -19.333 54 -47.333 54 -84c0 -8 -1 -16.667 -3 -26l-59 -274c-1.33301 -9.33301 -2 -15.666 -2 -18.999c0 -10 3.33301 -17 10 -21s18.334 -6 35.001 -6zM286.999 158.996l20 97l-51 -16c-24 -8 -43 -16.667 -57 -26s-24.667 -21 -32 -35s-13 -30.333 -17 -49
c-1.33301 -5.33301 -2.33301 -10.166 -3 -14.499s-1 -9.5 -1 -15.5c0 -14.667 3.33301 -26.5 10 -35.5s17 -13.5 31 -13.5c28 0 50.667 11.667 68 35c13.333 17.333 24 41.666 32 72.999z" />
    <glyph glyph-name="agrave" unicode="&#x430;" horiz-adv-x="500" 
d="M445 13c-13.333 -5.33301 -30.001 -11.1699 -50.001 -17.5029s-35.667 -9.5 -47 -9.5c-23.333 0 -42 6.33301 -56 19s-22.667 30.667 -26 54c-18 -23.333 -39.833 -41.333 -65.5 -54s-51.834 -19 -78.501 -19c-36.667 0 -65.5 8.5 -86.5 25.5s-31.5 41.5 -31.5 73.5
c0 4.66699 0.5 10.334 1.5 17.001s1.83301 12 2.5 16c9.33301 45.333 31 79 65 101c28 18.667 78 36.334 150 53.001l29 7c18 4.66699 34.333 11 49 19c6.66699 4.66699 11.834 10.167 15.501 16.5s6.33398 13.333 8.00098 21s2.5 13.167 2.5 16.5
c0 20 -7.83301 37.167 -23.5 51.5s-34.167 21.5 -55.5 21.5c-28.667 0 -58 -8 -88 -24c-24.667 -13.333 -40.334 -26 -47.001 -38h-7v59c26.667 21.333 58.167 37.833 94.5 49.5s71.166 17.5 104.499 17.5c44.667 0 81.334 -7.66699 110.001 -23
c36 -19.333 54 -47.333 54 -84c0 -8 -1 -16.667 -3 -26l-59 -274c-1.33301 -9.33301 -2 -15.666 -2 -18.999c0 -10 3.33301 -17 10 -21s18.334 -6 35.001 -6zM286.999 158.996l20 97l-51 -16c-24 -8 -43 -16.667 -57 -26s-24.667 -21 -32 -35s-13 -30.333 -17 -49
c-1.33301 -5.33301 -2.33301 -10.166 -3 -14.499s-1 -9.5 -1 -15.5c0 -14.667 3.33301 -26.5 10 -35.5s17 -13.5 31 -13.5c28 0 50.667 11.667 68 35c13.333 17.333 24 41.666 32 72.999z" />
    <glyph glyph-name="aacute" unicode="&#xe1;" horiz-adv-x="574" 
d="M548 249c-16 -76.667 -52.667 -139.666 -110 -188.999s-124.666 -74 -201.999 -74c-64 0 -114.5 16.167 -151.5 48.5s-55.5 77.166 -55.5 134.499c0 18.667 2 38 6 58c27.333 129.333 62.666 227 105.999 293c40.667 62 97.334 110.333 170.001 145
c48 23.333 137.333 53.333 268 90l-7 -114c-12.667 -8.66699 -57.167 -23 -133.5 -43s-134.833 -41 -175.5 -63c-66 -36 -109.333 -83.667 -130 -143c26 27.333 59.5 50.333 100.5 69s80.833 28 119.5 28c61.333 0 110.166 -16.5 146.499 -49.5s54.5 -77.5 54.5 -133.5
c0 -18 -2 -37 -6 -57zM404 266.001c5.33301 28 7.99902 52.333 7.99902 73c0 32 -5.83301 57.667 -17.5 77s-29.5 29 -53.5 29c-38 0 -71 -21 -99 -63c-25.333 -38 -44.666 -88.667 -57.999 -152c-3.33301 -14 -5.83301 -27.667 -7.5 -41s-2.5 -28.333 -2.5 -45
c0 -32.667 5.5 -59.667 16.5 -81s29.5 -32 55.5 -32c35.333 0 68.333 25.333 99 76c25.333 42.667 45 95.667 59 159z" />
    <glyph glyph-name="aacute" unicode="&#x431;" horiz-adv-x="574" 
d="M548 249c-16 -76.667 -52.667 -139.666 -110 -188.999s-124.666 -74 -201.999 -74c-64 0 -114.5 16.167 -151.5 48.5s-55.5 77.166 -55.5 134.499c0 18.667 2 38 6 58c27.333 129.333 62.666 227 105.999 293c40.667 62 97.334 110.333 170.001 145
c48 23.333 137.333 53.333 268 90l-7 -114c-12.667 -8.66699 -57.167 -23 -133.5 -43s-134.833 -41 -175.5 -63c-66 -36 -109.333 -83.667 -130 -143c26 27.333 59.5 50.333 100.5 69s80.833 28 119.5 28c61.333 0 110.166 -16.5 146.499 -49.5s54.5 -77.5 54.5 -133.5
c0 -18 -2 -37 -6 -57zM404 266.001c5.33301 28 7.99902 52.333 7.99902 73c0 32 -5.83301 57.667 -17.5 77s-29.5 29 -53.5 29c-38 0 -71 -21 -99 -63c-25.333 -38 -44.666 -88.667 -57.999 -152c-3.33301 -14 -5.83301 -27.667 -7.5 -41s-2.5 -28.333 -2.5 -45
c0 -32.667 5.5 -59.667 16.5 -81s29.5 -32 55.5 -32c35.333 0 68.333 25.333 99 76c25.333 42.667 45 95.667 59 159z" />
    <glyph glyph-name="acircumflex" unicode="&#xe2;" horiz-adv-x="500" 
d="M445 138c-9.33301 -45.333 -37.999 -80.333 -85.999 -105c-42.667 -22 -91.334 -33 -146.001 -33h-207l102 480h221c42.667 0 76.667 -6 102 -18c30 -14.667 45 -36.667 45 -66c0 -7.33301 -1 -15 -3 -23c-6.66699 -32 -23.5 -57.667 -50.5 -77s-58.833 -31 -95.5 -35
l-1 -7c30 0 56.333 -6.66699 79 -20c28.667 -16.667 43 -40.667 43 -72c0 -6.66699 -1 -14.667 -3 -24zM333.001 359c1.33301 4.66699 1.99805 10.999 1.99805 18.999c0 33.333 -20.333 50 -61 50l-39 -2l-32 -148h22c14.667 0 26.334 0.833008 35.001 2.5
s18.5 6.16699 29.5 13.5s20.333 16.833 28 28.5s12.834 23.834 15.501 36.501zM303.999 136.999c2 10 3.00195 18.667 3.00195 26c0 24 -9.33301 40.667 -28 50s-47.667 14 -87 14l-37 -175h39c23.333 0 46.166 7.66699 68.499 23s36.166 36 41.499 62z" />
    <glyph glyph-name="acircumflex" unicode="&#x432;" horiz-adv-x="500" 
d="M445 138c-9.33301 -45.333 -37.999 -80.333 -85.999 -105c-42.667 -22 -91.334 -33 -146.001 -33h-207l102 480h221c42.667 0 76.667 -6 102 -18c30 -14.667 45 -36.667 45 -66c0 -7.33301 -1 -15 -3 -23c-6.66699 -32 -23.5 -57.667 -50.5 -77s-58.833 -31 -95.5 -35
l-1 -7c30 0 56.333 -6.66699 79 -20c28.667 -16.667 43 -40.667 43 -72c0 -6.66699 -1 -14.667 -3 -24zM333.001 359c1.33301 4.66699 1.99805 10.999 1.99805 18.999c0 33.333 -20.333 50 -61 50l-39 -2l-32 -148h22c14.667 0 26.334 0.833008 35.001 2.5
s18.5 6.16699 29.5 13.5s20.333 16.833 28 28.5s12.834 23.834 15.501 36.501zM303.999 136.999c2 10 3.00195 18.667 3.00195 26c0 24 -9.33301 40.667 -28 50s-47.667 14 -87 14l-37 -175h39c23.333 0 46.166 7.66699 68.499 23s36.166 36 41.499 62z" />
    <glyph glyph-name="atilde" unicode="&#xe3;" horiz-adv-x="370" 
d="M403 412c-26 4 -51.834 6.66504 -77.501 7.99805s-56.167 2 -91.5 2l-91 -427c-8.66699 0.666992 -20.667 1.66699 -36 3s-26 2 -32 2c-13.333 0 -27.666 -0.666992 -42.999 -2c-12.667 -2 -21.667 -3 -27 -3l103 485h309c-6 -10.667 -9.66699 -19.667 -11 -27
s-2.5 -14.666 -3.5 -21.999s-0.833008 -13.666 0.5 -18.999z" />
    <glyph glyph-name="atilde" unicode="&#x433;" horiz-adv-x="370" 
d="M403 412c-26 4 -51.834 6.66504 -77.501 7.99805s-56.167 2 -91.5 2l-91 -427c-8.66699 0.666992 -20.667 1.66699 -36 3s-26 2 -32 2c-13.333 0 -27.666 -0.666992 -42.999 -2c-12.667 -2 -21.667 -3 -27 -3l103 485h309c-6 -10.667 -9.66699 -19.667 -11 -27
s-2.5 -14.666 -3.5 -21.999s-0.833008 -13.666 0.5 -18.999z" />
    <glyph glyph-name="adieresis" unicode="&#xe4;" horiz-adv-x="500" 
d="M437 -39l-9.99512 -0.000976562c-12 18 -29.5 29 -52.5 33s-63.167 6 -120.5 6h-100c-56 0 -88.333 -0.333008 -97 -1c-42.667 -3.33301 -76.334 -16 -101.001 -38h-9c2.66699 6 5.66699 15 9 27s5.66602 20.833 6.99902 26.5s2.33301 13 3 22s1 16.167 1 21.5h37
c95.333 139.333 185.666 280.666 270.999 423.999l34 -3l34 3c19.333 -125.333 45.666 -266.666 78.999 -423.999h35l-14 -43c-0.666992 -3.33301 -1.83398 -10.666 -3.50098 -21.999s-2.5 -22 -2.5 -32zM274.005 61.999c-4 40.667 -8.83398 79.5 -14.501 116.5
s-13.834 83.167 -24.501 138.5l-80 -127l-75 -128c12.667 0 34.334 -0.666992 65.001 -2s48.334 -2 53.001 -2c10 0 21.333 0.166992 34 0.5s26.667 1.5 42 3.5z" />
    <glyph glyph-name="adieresis" unicode="&#x434;" horiz-adv-x="500" 
d="M437 -39l-9.99512 -0.000976562c-12 18 -29.5 29 -52.5 33s-63.167 6 -120.5 6h-100c-56 0 -88.333 -0.333008 -97 -1c-42.667 -3.33301 -76.334 -16 -101.001 -38h-9c2.66699 6 5.66699 15 9 27s5.66602 20.833 6.99902 26.5s2.33301 13 3 22s1 16.167 1 21.5h37
c95.333 139.333 185.666 280.666 270.999 423.999l34 -3l34 3c19.333 -125.333 45.666 -266.666 78.999 -423.999h35l-14 -43c-0.666992 -3.33301 -1.83398 -10.666 -3.50098 -21.999s-2.5 -22 -2.5 -32zM274.005 61.999c-4 40.667 -8.83398 79.5 -14.501 116.5
s-13.834 83.167 -24.501 138.5l-80 -127l-75 -128c12.667 0 34.334 -0.666992 65.001 -2s48.334 -2 53.001 -2c10 0 21.333 0.166992 34 0.5s26.667 1.5 42 3.5z" />
    <glyph glyph-name="aring" unicode="&#xe5;" horiz-adv-x="500" 
d="M477 237l-295.998 0.000976562c-6 -23.333 -9 -45.333 -9 -66c0 -36.667 9.83301 -65.834 29.5 -87.501s49.5 -32.5 89.5 -32.5c21.333 0 42.666 3.83301 63.999 11.5s42 18.834 62 33.501l9 -9l-32 -56c-49.333 -30 -100.333 -45 -153 -45
c-68.667 0 -121.5 16.5 -158.5 49.5s-55.5 79.5 -55.5 139.5c0 23.333 3 48 9 74c15.333 71.333 48.666 129.166 99.999 173.499s113 66.5 185 66.5c58.667 0 101.667 -14.667 129 -44c25.333 -26.667 38 -65.667 38 -117c0 -12.667 -1 -27 -3 -43s-4.66699 -32 -8 -48z
M350.002 285.001c2.66699 12 4.83301 24.832 6.5 38.499s2.5 27.167 2.5 40.5c0 24.667 -3 43.334 -9 56.001c-8 16.667 -20.333 25 -37 25c-32 0 -59.667 -20 -83 -60c-15.333 -26.667 -28 -60 -38 -100h158z" />
    <glyph glyph-name="aring" unicode="&#x435;" horiz-adv-x="500" 
d="M477 237l-295.998 0.000976562c-6 -23.333 -9 -45.333 -9 -66c0 -36.667 9.83301 -65.834 29.5 -87.501s49.5 -32.5 89.5 -32.5c21.333 0 42.666 3.83301 63.999 11.5s42 18.834 62 33.501l9 -9l-32 -56c-49.333 -30 -100.333 -45 -153 -45
c-68.667 0 -121.5 16.5 -158.5 49.5s-55.5 79.5 -55.5 139.5c0 23.333 3 48 9 74c15.333 71.333 48.666 129.166 99.999 173.499s113 66.5 185 66.5c58.667 0 101.667 -14.667 129 -44c25.333 -26.667 38 -65.667 38 -117c0 -12.667 -1 -27 -3 -43s-4.66699 -32 -8 -48z
M350.002 285.001c2.66699 12 4.83301 24.832 6.5 38.499s2.5 27.167 2.5 40.5c0 24.667 -3 43.334 -9 56.001c-8 16.667 -20.333 25 -37 25c-32 0 -59.667 -20 -83 -60c-15.333 -26.667 -28 -60 -38 -100h158z" />
    <glyph glyph-name="ae" unicode="&#xe6;" horiz-adv-x="741" 
d="M685 -5c-10 0 -24.165 0.835938 -42.498 2.50293s-29.166 2.5 -32.499 2.5c-12 0 -27.333 -0.833008 -46 -2.5s-29 -2.5 -31 -2.5c-10 32 -21.333 65 -34 99c-14.667 39.333 -28.334 73 -41.001 101c-4 10 -6.33301 16 -7 18c-3.33301 6.66699 -8 11.334 -14 14.001
l-49 -232c-21.333 3.33301 -43.666 5 -66.999 5c-13.333 0 -23.833 -0.333008 -31.5 -1s-20.5 -2 -38.5 -4l49 232c-7.33301 -3.33301 -14.5 -8.83301 -21.5 -16.5s-11.5 -12.834 -13.5 -15.501c-20 -22.667 -40.667 -47.334 -62 -74.001l-97 -126
c-9.33301 0 -23 0.833008 -41 2.5s-29.333 2.5 -34 2.5c-11.333 0 -26.333 -0.833008 -45 -2.5s-29.334 -2.5 -32.001 -2.5l2 8l68 86l65 80l108 127l-130 177l1 7c13.333 -3.33301 27 -5 41 -5c14.667 0 29.334 1.66699 44.001 5l71 -109.5
c23.333 -35.667 48.333 -70.834 75 -105.501l10 1l45 214c11.333 -1.33301 24.166 -2.5 38.499 -3.5s24.166 -1.5 29.499 -1.5c8 0 16.333 0.333008 25 1s23.334 2 44.001 4l-45 -214c0 -0.666992 0.333008 -1.33398 1 -2.00098c3.33301 0.666992 5.66602 1 6.99902 1
c30 24.667 69.333 59.334 118 104.001l120 111c13.333 -3.33301 27.333 -5 42 -5c13.333 0 27.666 1.66699 42.999 5l-1 -7c-21.333 -21.333 -46.666 -44 -75.999 -68c-78.667 -64.667 -122 -101 -130 -109l54 -127c7.33301 -16.667 15.666 -37.334 24.999 -62.001l38 -104z
" />
    <glyph glyph-name="ae" unicode="&#x436;" horiz-adv-x="741" 
d="M685 -5c-10 0 -24.165 0.835938 -42.498 2.50293s-29.166 2.5 -32.499 2.5c-12 0 -27.333 -0.833008 -46 -2.5s-29 -2.5 -31 -2.5c-10 32 -21.333 65 -34 99c-14.667 39.333 -28.334 73 -41.001 101c-4 10 -6.33301 16 -7 18c-3.33301 6.66699 -8 11.334 -14 14.001
l-49 -232c-21.333 3.33301 -43.666 5 -66.999 5c-13.333 0 -23.833 -0.333008 -31.5 -1s-20.5 -2 -38.5 -4l49 232c-7.33301 -3.33301 -14.5 -8.83301 -21.5 -16.5s-11.5 -12.834 -13.5 -15.501c-20 -22.667 -40.667 -47.334 -62 -74.001l-97 -126
c-9.33301 0 -23 0.833008 -41 2.5s-29.333 2.5 -34 2.5c-11.333 0 -26.333 -0.833008 -45 -2.5s-29.334 -2.5 -32.001 -2.5l2 8l68 86l65 80l108 127l-130 177l1 7c13.333 -3.33301 27 -5 41 -5c14.667 0 29.334 1.66699 44.001 5l71 -109.5
c23.333 -35.667 48.333 -70.834 75 -105.501l10 1l45 214c11.333 -1.33301 24.166 -2.5 38.499 -3.5s24.166 -1.5 29.499 -1.5c8 0 16.333 0.333008 25 1s23.334 2 44.001 4l-45 -214c0 -0.666992 0.333008 -1.33398 1 -2.00098c3.33301 0.666992 5.66602 1 6.99902 1
c30 24.667 69.333 59.334 118 104.001l120 111c13.333 -3.33301 27.333 -5 42 -5c13.333 0 27.666 1.66699 42.999 5l-1 -7c-21.333 -21.333 -46.666 -44 -75.999 -68c-78.667 -64.667 -122 -101 -130 -109l54 -127c7.33301 -16.667 15.666 -37.334 24.999 -62.001l38 -104z
" />
    <glyph glyph-name="ccedilla" unicode="&#xe7;" horiz-adv-x="426" 
d="M368 129c-10 -46.667 -38.3311 -82.9971 -84.998 -108.997c-40.667 -22.667 -87.667 -34 -141 -34c-32.667 0 -61.834 4.16699 -87.501 12.5s-44.834 20.166 -57.501 35.499l-1 50l20 14c10 -16.667 24.5 -29.334 43.5 -38.001s39.5 -13 61.5 -13
c31.333 0 57.333 8.5 78 25.5s33.334 37.167 38.001 60.5c1.33301 4.66699 2 11.667 2 21c0 19.333 -6.33301 35.666 -19 48.999s-30.334 20 -53.001 20l-44 -2l12 56l28 -1c28 0 51.333 8.83301 70 26.5s30.667 39.167 36 64.5c2 9.33301 3 17.333 3 24
c0 18 -4.5 31.5 -13.5 40.5s-21.5 13.5 -37.5 13.5c-21.333 0 -43.5 -8.33301 -66.5 -25s-40.5 -39.334 -52.5 -68.001h-26l5 104c20.667 10 46.167 18 76.5 24s62.5 9 96.5 9c46 0 82.333 -6.33301 109 -19c32 -15.333 48 -38.666 48 -69.999c0 -6.66699 -1 -14 -3 -22
c-7.33301 -34 -24.5 -61.333 -51.5 -82s-58.833 -33 -95.5 -37l-1 -7c28.667 0 53 -6.66699 73 -20c25.333 -16.667 38 -41 38 -73c0 -8.66699 -1 -18.667 -3 -30z" />
    <glyph glyph-name="ccedilla" unicode="&#x437;" horiz-adv-x="426" 
d="M368 129c-10 -46.667 -38.3311 -82.9971 -84.998 -108.997c-40.667 -22.667 -87.667 -34 -141 -34c-32.667 0 -61.834 4.16699 -87.501 12.5s-44.834 20.166 -57.501 35.499l-1 50l20 14c10 -16.667 24.5 -29.334 43.5 -38.001s39.5 -13 61.5 -13
c31.333 0 57.333 8.5 78 25.5s33.334 37.167 38.001 60.5c1.33301 4.66699 2 11.667 2 21c0 19.333 -6.33301 35.666 -19 48.999s-30.334 20 -53.001 20l-44 -2l12 56l28 -1c28 0 51.333 8.83301 70 26.5s30.667 39.167 36 64.5c2 9.33301 3 17.333 3 24
c0 18 -4.5 31.5 -13.5 40.5s-21.5 13.5 -37.5 13.5c-21.333 0 -43.5 -8.33301 -66.5 -25s-40.5 -39.334 -52.5 -68.001h-26l5 104c20.667 10 46.167 18 76.5 24s62.5 9 96.5 9c46 0 82.333 -6.33301 109 -19c32 -15.333 48 -38.666 48 -69.999c0 -6.66699 -1 -14 -3 -22
c-7.33301 -34 -24.5 -61.333 -51.5 -82s-58.833 -33 -95.5 -37l-1 -7c28.667 0 53 -6.66699 73 -20c25.333 -16.667 38 -41 38 -73c0 -8.66699 -1 -18.667 -3 -30z" />
    <glyph glyph-name="egrave" unicode="&#xe8;" 
d="M449 -5c-7.33301 0 -19.332 0.833008 -35.999 2.5s-27.334 2.5 -32.001 2.5c-13.333 -0 -27.666 -0.666992 -42.999 -2c-12.667 -2 -21.667 -3 -27 -3l64 302c-46.667 -42 -100 -93 -160 -153l-143 -149c-5.33301 0.666992 -11.333 1 -18 1h-15
c-14.667 0 -26 -0.333008 -34 -1l103 485l35.5 -3c15.667 -1.33301 26.5 -2 32.5 -2c13.333 0 27.666 0.666992 42.999 2c12.667 2 21.667 3 27 3l-63 -297l148 143l153 156c9.33301 -0.666992 17.5 -1.16699 24.5 -1.5s13.167 -0.5 18.5 -0.5c6 0 14.333 0.666992 25 2z
" />
    <glyph glyph-name="egrave" unicode="&#x438;" 
d="M449 -5c-7.33301 0 -19.332 0.833008 -35.999 2.5s-27.334 2.5 -32.001 2.5c-13.333 -0 -27.666 -0.666992 -42.999 -2c-12.667 -2 -21.667 -3 -27 -3l64 302c-46.667 -42 -100 -93 -160 -153l-143 -149c-5.33301 0.666992 -11.333 1 -18 1h-15
c-14.667 0 -26 -0.333008 -34 -1l103 485l35.5 -3c15.667 -1.33301 26.5 -2 32.5 -2c13.333 0 27.666 0.666992 42.999 2c12.667 2 21.667 3 27 3l-63 -297l148 143l153 156c9.33301 -0.666992 17.5 -1.16699 24.5 -1.5s13.167 -0.5 18.5 -0.5c6 0 14.333 0.666992 25 2z
" />
    <glyph glyph-name="eacute" unicode="&#xe9;" 
d="M522 630c-20 -31.333 -45.666 -56.666 -76.999 -75.999s-66.333 -29 -105 -29c-38 0 -68.833 9.66699 -92.5 29s-38.834 44.666 -45.501 75.999l36 17c18 -42 56.333 -63 115 -63c28.667 0 54.667 5 78 15s44.333 26 63 48zM449.001 -5
c-7.33301 0 -19.332 0.833008 -35.999 2.5s-27.334 2.5 -32.001 2.5c-13.333 -0 -27.666 -0.666992 -42.999 -2c-12.667 -2 -21.667 -3 -27 -3l64 302c-46.667 -42 -100 -93 -160 -153l-143 -149c-5.33301 0.666992 -11.333 1 -18 1h-15c-14.667 0 -26 -0.333008 -34 -1
l103 485l35.5 -3c15.667 -1.33301 26.5 -2 32.5 -2c13.333 0 27.666 0.666992 42.999 2c12.667 2 21.667 3 27 3l-63 -297l148 143l153 156c9.33301 -0.666992 17.5 -1.16699 24.5 -1.5s13.167 -0.5 18.5 -0.5c6 0 14.333 0.666992 25 2z" />
    <glyph glyph-name="eacute" unicode="&#x439;" 
d="M522 630c-20 -31.333 -45.666 -56.666 -76.999 -75.999s-66.333 -29 -105 -29c-38 0 -68.833 9.66699 -92.5 29s-38.834 44.666 -45.501 75.999l36 17c18 -42 56.333 -63 115 -63c28.667 0 54.667 5 78 15s44.333 26 63 48zM449.001 -5
c-7.33301 0 -19.332 0.833008 -35.999 2.5s-27.334 2.5 -32.001 2.5c-13.333 -0 -27.666 -0.666992 -42.999 -2c-12.667 -2 -21.667 -3 -27 -3l64 302c-46.667 -42 -100 -93 -160 -153l-143 -149c-5.33301 0.666992 -11.333 1 -18 1h-15c-14.667 0 -26 -0.333008 -34 -1
l103 485l35.5 -3c15.667 -1.33301 26.5 -2 32.5 -2c13.333 0 27.666 0.666992 42.999 2c12.667 2 21.667 3 27 3l-63 -297l148 143l153 156c9.33301 -0.666992 17.5 -1.16699 24.5 -1.5s13.167 -0.5 18.5 -0.5c6 0 14.333 0.666992 25 2z" />
    <glyph glyph-name="ecircumflex" unicode="&#xea;" horiz-adv-x="500" 
d="M440 -5c-11.333 0 -20.6592 0.333984 -27.9922 1.00098c-28.667 2.66699 -44.334 4 -47.001 4c-12 0 -27.333 -0.833008 -46 -2.5s-29 -2.5 -31 -2.5c-10 32 -21.333 65 -34 99c-14.667 39.333 -28.334 73 -41.001 101c-3.33301 9.33301 -6.33301 16 -9 20
s-6.66699 8 -12 12l-49 -232c-9.33301 0 -22.333 0.833008 -39 2.5s-26.334 2.5 -29.001 2.5c-10.667 0 -24.334 -0.833008 -41.001 -2.5s-26.334 -2.5 -29.001 -2.5l103 485c21.333 -2.66699 35.666 -4.16699 42.999 -4.5s15.666 -0.5 24.999 -0.5
c13.333 0 23.833 0.333008 31.5 1s20.5 2 38.5 4l-45 -214c1.33301 -2 4 -2.33301 8 -1c30 24.667 69.333 59.334 118 104.001l120 111c4 0 10.667 -0.666992 20 -2s16.666 -2 21.999 -2c4.66699 0 11.667 0.666992 21 2s16.666 2 21.999 2l-1 -6
c-20.667 -20.667 -46 -43.334 -76 -68.001c-75.333 -62.667 -118.666 -99.334 -129.999 -110.001l54 -127c19.333 -47.333 40 -103 62 -167z" />
    <glyph glyph-name="ecircumflex" unicode="&#x43a;" horiz-adv-x="500" 
d="M440 -5c-11.333 0 -20.6592 0.333984 -27.9922 1.00098c-28.667 2.66699 -44.334 4 -47.001 4c-12 0 -27.333 -0.833008 -46 -2.5s-29 -2.5 -31 -2.5c-10 32 -21.333 65 -34 99c-14.667 39.333 -28.334 73 -41.001 101c-3.33301 9.33301 -6.33301 16 -9 20
s-6.66699 8 -12 12l-49 -232c-9.33301 0 -22.333 0.833008 -39 2.5s-26.334 2.5 -29.001 2.5c-10.667 0 -24.334 -0.833008 -41.001 -2.5s-26.334 -2.5 -29.001 -2.5l103 485c21.333 -2.66699 35.666 -4.16699 42.999 -4.5s15.666 -0.5 24.999 -0.5
c13.333 0 23.833 0.333008 31.5 1s20.5 2 38.5 4l-45 -214c1.33301 -2 4 -2.33301 8 -1c30 24.667 69.333 59.334 118 104.001l120 111c4 0 10.667 -0.666992 20 -2s16.666 -2 21.999 -2c4.66699 0 11.667 0.666992 21 2s16.666 2 21.999 2l-1 -6
c-20.667 -20.667 -46 -43.334 -76 -68.001c-75.333 -62.667 -118.666 -99.334 -129.999 -110.001l54 -127c19.333 -47.333 40 -103 62 -167z" />
    <glyph glyph-name="edieresis" unicode="&#xeb;" horiz-adv-x="481" 
d="M425 -5c-10.667 0 -25.001 0.833008 -43.001 2.5s-29 2.5 -33 2.5c-12 0 -27.333 -0.833008 -46 -2.5s-29 -2.5 -31 -2.5c0 37.333 -3 77.333 -9 120c-1.33301 9.33301 -13.666 76.666 -36.999 201.999l-190 -320l-40 3l-40 -3l161.5 246.5l148.5 238.5l34 -3l34 3
c8.66699 -54 17.667 -107.333 27 -160l30 -164c6.66699 -35.333 18 -89.666 34 -162.999z" />
    <glyph glyph-name="edieresis" unicode="&#x43b;" horiz-adv-x="481" 
d="M425 -5c-10.667 0 -25.001 0.833008 -43.001 2.5s-29 2.5 -33 2.5c-12 0 -27.333 -0.833008 -46 -2.5s-29 -2.5 -31 -2.5c0 37.333 -3 77.333 -9 120c-1.33301 9.33301 -13.666 76.666 -36.999 201.999l-190 -320l-40 3l-40 -3l161.5 246.5l148.5 238.5l34 -3l34 3
c8.66699 -54 17.667 -107.333 27 -160l30 -164c6.66699 -35.333 18 -89.666 34 -162.999z" />
    <glyph glyph-name="igrave" unicode="&#xec;" horiz-adv-x="647" 
d="M578 -5c-9.33301 0 -23.167 0.833984 -41.5 2.50098s-29.166 2.5 -32.499 2.5c-7.33301 0 -14.833 -0.333008 -22.5 -1s-24.167 -2 -49.5 -4c4.66699 30.667 9.66699 68 15 112l19 185l-75 -97l-68.5 -94.5l-70.5 -101.5c-4.66699 0.666992 -11.334 1 -20.001 1
c-4.66699 0 -8.33398 -0.333008 -11.001 -1c-16 62 -29 109.333 -39 142c-14 45.333 -31 94.333 -51 147c-20 -56.667 -37.5 -108.834 -52.5 -156.501s-27.5 -93.167 -37.5 -136.5l-37 3l-38 -3c52 130 113 291.667 183 485c4.66699 -1.33301 9.33398 -2.33301 14.001 -3
s10.334 -1 17.001 -1c10 0 17.833 0.666992 23.5 2s9.5 2 11.5 2l98 -312l113.5 146.5l119.5 165.5c8.66699 -2.66699 19 -4 31 -4c6 0 12.667 0.5 20 1.5s12.666 1.83301 15.999 2.5l-16 -169c-6.66699 -72 -11.5 -131.667 -14.5 -179s-4.5 -93 -4.5 -137z" />
    <glyph glyph-name="igrave" unicode="&#x43c;" horiz-adv-x="647" 
d="M578 -5c-9.33301 0 -23.167 0.833984 -41.5 2.50098s-29.166 2.5 -32.499 2.5c-7.33301 0 -14.833 -0.333008 -22.5 -1s-24.167 -2 -49.5 -4c4.66699 30.667 9.66699 68 15 112l19 185l-75 -97l-68.5 -94.5l-70.5 -101.5c-4.66699 0.666992 -11.334 1 -20.001 1
c-4.66699 0 -8.33398 -0.333008 -11.001 -1c-16 62 -29 109.333 -39 142c-14 45.333 -31 94.333 -51 147c-20 -56.667 -37.5 -108.834 -52.5 -156.501s-27.5 -93.167 -37.5 -136.5l-37 3l-38 -3c52 130 113 291.667 183 485c4.66699 -1.33301 9.33398 -2.33301 14.001 -3
s10.334 -1 17.001 -1c10 0 17.833 0.666992 23.5 2s9.5 2 11.5 2l98 -312l113.5 146.5l119.5 165.5c8.66699 -2.66699 19 -4 31 -4c6 0 12.667 0.5 20 1.5s12.666 1.83301 15.999 2.5l-16 -169c-6.66699 -72 -11.5 -131.667 -14.5 -179s-4.5 -93 -4.5 -137z" />
    <glyph glyph-name="iacute" unicode="&#xed;" 
d="M449 -5c-7.33301 0 -19.332 0.833008 -35.999 2.5s-27.334 2.5 -32.001 2.5c-13.333 -0 -27.666 -0.666992 -42.999 -2c-12.667 -2 -21.667 -3 -27 -3l48 224h-168l-48 -224c-8.66699 0.666992 -20.667 1.66699 -36 3s-26 2 -32 2
c-13.333 -0 -27.666 -0.666992 -42.999 -2c-12.667 -2 -21.667 -3 -27 -3l103 485l35.5 -3c15.667 -1.33301 26.5 -2 32.5 -2c13.333 0 27.666 0.666992 42.999 2c12.667 2 21.667 3 27 3l-42 -200h168l42 200c11.333 -1.33301 24 -2.5 38 -3.5s24 -1.5 30 -1.5
c13.333 0 27.666 0.666992 42.999 2c12.667 2 21.667 3 27 3z" />
    <glyph glyph-name="iacute" unicode="&#x43d;" 
d="M449 -5c-7.33301 0 -19.332 0.833008 -35.999 2.5s-27.334 2.5 -32.001 2.5c-13.333 -0 -27.666 -0.666992 -42.999 -2c-12.667 -2 -21.667 -3 -27 -3l48 224h-168l-48 -224c-8.66699 0.666992 -20.667 1.66699 -36 3s-26 2 -32 2
c-13.333 -0 -27.666 -0.666992 -42.999 -2c-12.667 -2 -21.667 -3 -27 -3l103 485l35.5 -3c15.667 -1.33301 26.5 -2 32.5 -2c13.333 0 27.666 0.666992 42.999 2c12.667 2 21.667 3 27 3l-42 -200h168l42 200c11.333 -1.33301 24 -2.5 38 -3.5s24 -1.5 30 -1.5
c13.333 0 27.666 0.666992 42.999 2c12.667 2 21.667 3 27 3z" />
    <glyph glyph-name="icircumflex" unicode="&#xee;" horiz-adv-x="574" 
d="M544 249c-16 -76.667 -52.6689 -139.666 -110.002 -188.999s-124.666 -74 -201.999 -74c-64 0 -114.5 16.167 -151.5 48.5s-55.5 77.166 -55.5 134.499c0 18.667 2 38 6 58c17.333 79.333 53.833 142.833 109.5 190.5s121.834 71.5 198.501 71.5
c66 0 117.833 -15.833 155.5 -47.5s56.5 -76.167 56.5 -133.5c0 -7.33301 -0.333008 -15 -1 -23s-2.66699 -20 -6 -36zM399.998 266.001c5.33301 28 7.99902 52.333 7.99902 73c0 32 -5.83301 57.667 -17.5 77s-29.5 29 -53.5 29c-38 0 -71 -21 -99 -63
c-25.333 -38 -44.666 -88.667 -57.999 -152c-3.33301 -14 -5.83301 -27.667 -7.5 -41s-2.5 -28.333 -2.5 -45c0 -32.667 5.5 -59.667 16.5 -81s29.5 -32 55.5 -32c35.333 0 68.333 25.333 99 76c25.333 42.667 45 95.667 59 159z" />
    <glyph glyph-name="icircumflex" unicode="&#x43e;" horiz-adv-x="574" 
d="M544 249c-16 -76.667 -52.6689 -139.666 -110.002 -188.999s-124.666 -74 -201.999 -74c-64 0 -114.5 16.167 -151.5 48.5s-55.5 77.166 -55.5 134.499c0 18.667 2 38 6 58c17.333 79.333 53.833 142.833 109.5 190.5s121.834 71.5 198.501 71.5
c66 0 117.833 -15.833 155.5 -47.5s56.5 -76.167 56.5 -133.5c0 -7.33301 -0.333008 -15 -1 -23s-2.66699 -20 -6 -36zM399.998 266.001c5.33301 28 7.99902 52.333 7.99902 73c0 32 -5.83301 57.667 -17.5 77s-29.5 29 -53.5 29c-38 0 -71 -21 -99 -63
c-25.333 -38 -44.666 -88.667 -57.999 -152c-3.33301 -14 -5.83301 -27.667 -7.5 -41s-2.5 -28.333 -2.5 -45c0 -32.667 5.5 -59.667 16.5 -81s29.5 -32 55.5 -32c35.333 0 68.333 25.333 99 76c25.333 42.667 45 95.667 59 159z" />
    <glyph glyph-name="idieresis" unicode="&#xef;" 
d="M449 -5c-7.33301 0 -19.3359 0.833008 -36.0029 2.5s-27.334 2.5 -32.001 2.5c-13.333 -0 -27.666 -0.666992 -42.999 -2c-12.667 -2 -21.667 -3 -27 -3l90 424l-83 3l-85 -3l-90 -424c-9.33301 0 -22.166 0.833008 -38.499 2.5s-26.166 2.5 -29.499 2.5
c-13.333 -0 -27.666 -0.666992 -42.999 -2c-12.667 -2 -21.667 -3 -27 -3l103 485h444z" />
    <glyph glyph-name="idieresis" unicode="&#x43f;" 
d="M449 -5c-7.33301 0 -19.3359 0.833008 -36.0029 2.5s-27.334 2.5 -32.001 2.5c-13.333 -0 -27.666 -0.666992 -42.999 -2c-12.667 -2 -21.667 -3 -27 -3l90 424l-83 3l-85 -3l-90 -424c-9.33301 0 -22.166 0.833008 -38.499 2.5s-26.166 2.5 -29.499 2.5
c-13.333 -0 -27.666 -0.666992 -42.999 -2c-12.667 -2 -21.667 -3 -27 -3l103 485h444z" />
    <glyph glyph-name="eth" unicode="&#xf0;" 
d="M525 246c-18 -84.667 -52.335 -150.333 -103.002 -197c-45.333 -42 -96 -63 -152 -63c-31.333 0 -56.666 7 -75.999 21c-16 11.333 -28.667 28.333 -38 51l-67 -317c-8.66699 0.666992 -20.667 1.66699 -36 3s-26 2 -32 2c-13.333 0 -27.666 -0.666992 -42.999 -2
c-12.667 -2 -21.667 -3 -27 -3l157 739l34.5 -3c15 -1.33301 25.5 -2 31.5 -2c14.667 0 27.667 0.666992 39 2s20.666 2.33301 27.999 3l-19 -88c18.667 30.667 41.334 54.5 68.001 71.5s56.667 25.5 90 25.5c53.333 0 93 -15.667 119 -47c23.333 -28 35 -66.667 35 -116
c0 -25.333 -3 -52 -9 -80zM374.998 235.001c8.66699 42 12.999 76.333 12.999 103c0 28.667 -4.66699 50.167 -14 64.5s-24.666 21.5 -45.999 21.5c-38.667 0 -71 -24.333 -97 -73c-17.333 -32 -31 -72.333 -41 -121c-2 -10.667 -4.33301 -25 -7 -43s-4 -33.333 -4 -46
c0 -28 4.5 -50 13.5 -66s25.833 -24 50.5 -24c31.333 3.33301 58.333 21.333 81 54s39.667 76 51 130z" />
    <glyph glyph-name="eth" unicode="&#x440;" 
d="M525 246c-18 -84.667 -52.335 -150.333 -103.002 -197c-45.333 -42 -96 -63 -152 -63c-31.333 0 -56.666 7 -75.999 21c-16 11.333 -28.667 28.333 -38 51l-67 -317c-8.66699 0.666992 -20.667 1.66699 -36 3s-26 2 -32 2c-13.333 0 -27.666 -0.666992 -42.999 -2
c-12.667 -2 -21.667 -3 -27 -3l157 739l34.5 -3c15 -1.33301 25.5 -2 31.5 -2c14.667 0 27.667 0.666992 39 2s20.666 2.33301 27.999 3l-19 -88c18.667 30.667 41.334 54.5 68.001 71.5s56.667 25.5 90 25.5c53.333 0 93 -15.667 119 -47c23.333 -28 35 -66.667 35 -116
c0 -25.333 -3 -52 -9 -80zM374.998 235.001c8.66699 42 12.999 76.333 12.999 103c0 28.667 -4.66699 50.167 -14 64.5s-24.666 21.5 -45.999 21.5c-38.667 0 -71 -24.333 -97 -73c-17.333 -32 -31 -72.333 -41 -121c-2 -10.667 -4.33301 -25 -7 -43s-4 -33.333 -4 -46
c0 -28 4.5 -50 13.5 -66s25.833 -24 50.5 -24c31.333 3.33301 58.333 21.333 81 54s39.667 76 51 130z" />
    <glyph glyph-name="ntilde" unicode="&#xf1;" horiz-adv-x="481" 
d="M511 445l-60.998 -104.001h-23c0.666992 6 1 10.667 1 14c0 26 -6.33301 47 -19 63c-14.667 18 -35.334 27 -62.001 27c-42 0 -79 -23.333 -111 -70c-25.333 -36.667 -43 -79.334 -53 -128.001c-6 -28 -9 -53.333 -9 -76c0 -39.333 9.33301 -69.166 28 -89.499
s48.667 -30.5 90 -30.5c20 0 40.333 4.16699 61 12.5s38.667 19.833 54 34.5l14 -14l-38 -59c-14.667 -12 -36.834 -21.5 -66.501 -28.5s-54.834 -10.5 -75.501 -10.5c-68 0 -121.333 15.667 -160 47s-58 76 -58 134c0 20 2.33301 40.333 7 61
c17.333 80.667 54.833 144.334 112.5 191.001s126.5 70 206.5 70c30.667 0 60.334 -3.5 89.001 -10.5s53 -18.167 73 -33.5z" />
    <glyph glyph-name="ntilde" unicode="&#x441;" horiz-adv-x="481" 
d="M511 445l-60.998 -104.001h-23c0.666992 6 1 10.667 1 14c0 26 -6.33301 47 -19 63c-14.667 18 -35.334 27 -62.001 27c-42 0 -79 -23.333 -111 -70c-25.333 -36.667 -43 -79.334 -53 -128.001c-6 -28 -9 -53.333 -9 -76c0 -39.333 9.33301 -69.166 28 -89.499
s48.667 -30.5 90 -30.5c20 0 40.333 4.16699 61 12.5s38.667 19.833 54 34.5l14 -14l-38 -59c-14.667 -12 -36.834 -21.5 -66.501 -28.5s-54.834 -10.5 -75.501 -10.5c-68 0 -121.333 15.667 -160 47s-58 76 -58 134c0 20 2.33301 40.333 7 61
c17.333 80.667 54.833 144.334 112.5 191.001s126.5 70 206.5 70c30.667 0 60.334 -3.5 89.001 -10.5s53 -18.167 73 -33.5z" />
    <glyph glyph-name="ograve" unicode="&#xf2;" horiz-adv-x="425" 
d="M458 412c-22.667 2.66699 -44.9971 5 -66.9971 7s-45.333 3 -70 3l-91 -427c-9.33301 0 -22.166 0.833008 -38.499 2.5s-26.166 2.5 -29.499 2.5c-10.667 0 -24.334 -0.833008 -41.001 -2.5s-26.334 -2.5 -29.001 -2.5l91 427c-30.667 0 -52.334 -0.5 -65.001 -1.5
s-37.667 -3.83301 -75 -8.5c3.33301 7.33301 6 14.5 8 21.5s3.66699 14 5 21s1.66602 15.5 0.999023 25.5h415l-8 -18c-2 -4.66699 -3.33301 -9.66699 -4 -15c-2.66699 -13.333 -3.33398 -25 -2.00098 -35z" />
    <glyph glyph-name="ograve" unicode="&#x442;" horiz-adv-x="425" 
d="M458 412c-22.667 2.66699 -44.9971 5 -66.9971 7s-45.333 3 -70 3l-91 -427c-9.33301 0 -22.166 0.833008 -38.499 2.5s-26.166 2.5 -29.499 2.5c-10.667 0 -24.334 -0.833008 -41.001 -2.5s-26.334 -2.5 -29.001 -2.5l91 427c-30.667 0 -52.334 -0.5 -65.001 -1.5
s-37.667 -3.83301 -75 -8.5c3.33301 7.33301 6 14.5 8 21.5s3.66699 14 5 21s1.66602 15.5 0.999023 25.5h415l-8 -18c-2 -4.66699 -3.33301 -9.66699 -4 -15c-2.66699 -13.333 -3.33398 -25 -2.00098 -35z" />
    <glyph glyph-name="oacute" unicode="&#xf3;" horiz-adv-x="481" 
d="M530 480l-149.998 -229.001l-108 -168l-105.5 -168l-102.5 -174l-41 3l-43 -3l182 258l-100 481c11.333 0 26 -0.833008 44 -2.5s28.333 -2.5 31 -2.5c11.333 0 20.666 0.333008 27.999 1c30 2.66699 46.333 4 49 4c7.33301 -53.333 15.666 -105.666 24.999 -156.999
l29 -154l60 102l60 103c27.333 46.667 47.333 82 60 106l40 -3z" />
    <glyph glyph-name="oacute" unicode="&#x443;" horiz-adv-x="481" 
d="M530 480l-149.998 -229.001l-108 -168l-105.5 -168l-102.5 -174l-41 3l-43 -3l182 258l-100 481c11.333 0 26 -0.833008 44 -2.5s28.333 -2.5 31 -2.5c11.333 0 20.666 0.333008 27.999 1c30 2.66699 46.333 4 49 4c7.33301 -53.333 15.666 -105.666 24.999 -156.999
l29 -154l60 102l60 103c27.333 46.667 47.333 82 60 106l40 -3z" />
    <glyph glyph-name="ocircumflex" unicode="&#xf4;" horiz-adv-x="834" 
d="M801 246c-18 -84 -51.333 -149.668 -100 -197.001c-43.333 -42 -91.666 -63 -144.999 -63c-30 0 -54.333 7 -73 21c-15.333 11.333 -27 28.333 -35 51l-67 -317c-11.333 1.33301 -19.666 2 -24.999 2c-22.667 2 -36.667 3 -42 3c-15.333 0 -29.166 -0.666992 -41.499 -2
s-22.166 -2.33301 -29.499 -3l71 334c-18.667 -28.667 -39.834 -50.667 -63.501 -66s-50.834 -23 -81.501 -23c-50 0 -87.333 15.333 -112 46c-22 27.333 -33 65.333 -33 114c0 23.333 3.33301 51 10 83c18 84 51.333 149.667 100 197c43.333 42 91.666 63 144.999 63
c30 0 54 -7 72 -21c15.333 -11.333 27.333 -28.333 36 -51l71 338c11.333 -1.33301 24.166 -2.5 38.499 -3.5s24.5 -1.5 30.5 -1.5c14.667 0 28 0.666992 40 2s21.667 2.33301 29 3l-75 -353c18 26.667 39.5 47.834 64.5 63.501s51.833 23.5 80.5 23.5
c50 0 87.333 -15.333 112 -46c22 -27.333 33 -65.333 33 -114c0 -23.333 -3.33301 -51 -10 -83zM653 234.999c9.33301 43.333 14.0029 79.334 14.0029 108.001c0 54 -18 81 -54 81c-35.333 0 -65.333 -24.333 -90 -73c-16.667 -32.667 -30 -73 -40 -121
c-4 -21.333 -7 -38.333 -9 -51s-3 -27 -3 -43c0 -26 4.16699 -46.667 12.5 -62s23.166 -23 44.499 -23c29.333 3.33301 54.666 21.166 75.999 53.499s37.666 75.833 48.999 130.5zM352.003 245c4 21.333 6.99805 38.333 8.99805 51s3 27 3 43c0 26 -3.66699 45.667 -11 59
c-9.33301 17.333 -24.666 26 -45.999 26c-29.333 -3.33301 -54.666 -21.166 -75.999 -53.499s-37.166 -72.833 -47.499 -121.5s-15.5 -87.334 -15.5 -116.001c0 -26.667 4.16699 -47 12.5 -61s22.166 -21 41.499 -21c35.333 0 65.333 24.333 90 73
c16.667 32.667 30 73 40 121z" />
    <glyph glyph-name="ocircumflex" unicode="&#x444;" horiz-adv-x="834" 
d="M801 246c-18 -84 -51.333 -149.668 -100 -197.001c-43.333 -42 -91.666 -63 -144.999 -63c-30 0 -54.333 7 -73 21c-15.333 11.333 -27 28.333 -35 51l-67 -317c-11.333 1.33301 -19.666 2 -24.999 2c-22.667 2 -36.667 3 -42 3c-15.333 0 -29.166 -0.666992 -41.499 -2
s-22.166 -2.33301 -29.499 -3l71 334c-18.667 -28.667 -39.834 -50.667 -63.501 -66s-50.834 -23 -81.501 -23c-50 0 -87.333 15.333 -112 46c-22 27.333 -33 65.333 -33 114c0 23.333 3.33301 51 10 83c18 84 51.333 149.667 100 197c43.333 42 91.666 63 144.999 63
c30 0 54 -7 72 -21c15.333 -11.333 27.333 -28.333 36 -51l71 338c11.333 -1.33301 24.166 -2.5 38.499 -3.5s24.5 -1.5 30.5 -1.5c14.667 0 28 0.666992 40 2s21.667 2.33301 29 3l-75 -353c18 26.667 39.5 47.834 64.5 63.501s51.833 23.5 80.5 23.5
c50 0 87.333 -15.333 112 -46c22 -27.333 33 -65.333 33 -114c0 -23.333 -3.33301 -51 -10 -83zM653 234.999c9.33301 43.333 14.0029 79.334 14.0029 108.001c0 54 -18 81 -54 81c-35.333 0 -65.333 -24.333 -90 -73c-16.667 -32.667 -30 -73 -40 -121
c-4 -21.333 -7 -38.333 -9 -51s-3 -27 -3 -43c0 -26 4.16699 -46.667 12.5 -62s23.166 -23 44.499 -23c29.333 3.33301 54.666 21.166 75.999 53.499s37.666 75.833 48.999 130.5zM352.003 245c4 21.333 6.99805 38.333 8.99805 51s3 27 3 43c0 26 -3.66699 45.667 -11 59
c-9.33301 17.333 -24.666 26 -45.999 26c-29.333 -3.33301 -54.666 -21.166 -75.999 -53.499s-37.166 -72.833 -47.499 -121.5s-15.5 -87.334 -15.5 -116.001c0 -26.667 4.16699 -47 12.5 -61s22.166 -21 41.499 -21c35.333 0 65.333 24.333 90 73
c16.667 32.667 30 73 40 121z" />
    <glyph glyph-name="otilde" unicode="&#xf5;" horiz-adv-x="500" 
d="M424 -5c-11.333 0 -26.499 0.832031 -45.499 2.49902s-30.833 2.5 -35.5 2.5c-12 0 -27.667 -0.833008 -47 -2.5s-31 -2.5 -35 -2.5l-59 174l-55 -63l-93 -109l-39 3l-41 -3l206 221l-47 129l-52 133c11.333 0 26.5 -0.833008 45.5 -2.5s30.5 -2.5 34.5 -2.5
c12 0 28 0.833008 48 2.5s31.667 2.5 35 2.5l25 -78c5.33301 -16.667 14.666 -43 27.999 -79l69 77c24 26.667 46.667 53.334 68 80.001l44 -3l46 3l-207 -206l35 -94z" />
    <glyph glyph-name="otilde" unicode="&#x445;" horiz-adv-x="500" 
d="M424 -5c-11.333 0 -26.499 0.832031 -45.499 2.49902s-30.833 2.5 -35.5 2.5c-12 0 -27.667 -0.833008 -47 -2.5s-31 -2.5 -35 -2.5l-59 174l-55 -63l-93 -109l-39 3l-41 -3l206 221l-47 129l-52 133c11.333 0 26.5 -0.833008 45.5 -2.5s30.5 -2.5 34.5 -2.5
c12 0 28 0.833008 48 2.5s31.667 2.5 35 2.5l25 -78c5.33301 -16.667 14.666 -43 27.999 -79l69 77c24 26.667 46.667 53.334 68 80.001l44 -3l46 3l-207 -206l35 -94z" />
    <glyph glyph-name="odieresis" unicode="&#xf6;" 
d="M493 -39h-10.002c-12.667 18 -30.667 29 -54 33s-63 6 -119 6h-304l102 480c10.667 -2 24 -3.33301 40 -4s25.333 -1 28 -1c12 0 24.333 0.333008 37 1s23.667 2 33 4l-89 -419c6.66699 -0.666992 21.334 -1.33398 44.001 -2.00098s35.667 -1 39 -1h24
c22.667 0 43 1 61 3l89 419c21.333 -3.33301 44 -5 68 -5c8.66699 0 17.167 0.166992 25.5 0.5s23.166 1.83301 44.499 4.5l-90 -422h51c-3.33301 -6.66699 -5.66602 -12.167 -6.99902 -16.5s-3.66602 -13.166 -6.99902 -26.499z" />
    <glyph glyph-name="odieresis" unicode="&#x446;" 
d="M493 -39h-10.002c-12.667 18 -30.667 29 -54 33s-63 6 -119 6h-304l102 480c10.667 -2 24 -3.33301 40 -4s25.333 -1 28 -1c12 0 24.333 0.333008 37 1s23.667 2 33 4l-89 -419c6.66699 -0.666992 21.334 -1.33398 44.001 -2.00098s35.667 -1 39 -1h24
c22.667 0 43 1 61 3l89 419c21.333 -3.33301 44 -5 68 -5c8.66699 0 17.167 0.166992 25.5 0.5s23.166 1.83301 44.499 4.5l-90 -422h51c-3.33301 -6.66699 -5.66602 -12.167 -6.99902 -16.5s-3.66602 -13.166 -6.99902 -26.499z" />
    <glyph glyph-name="divide" unicode="&#xf7;" horiz-adv-x="519" 
d="M412 -5c-7.33301 0 -19.3301 0.831055 -35.9971 2.49805s-27.334 2.5 -32.001 2.5c-13.333 0 -27.666 -0.666992 -42.999 -2c-12.667 -2 -21.667 -3 -27 -3l49 230c-26 -15.333 -52.167 -26.666 -78.5 -33.999s-51.5 -11 -75.5 -11c-35.333 0 -64 8.33301 -86 25
s-33 40 -33 70c0 8 1 17 3 27l38 178l35.5 -3c15.667 -1.33301 26.5 -2 32.5 -2c13.333 0 27.666 0.666992 42.999 2c12.667 2 21.667 3 27 3l-35 -163c-1.33301 -9.33301 -2 -15.666 -2 -18.999c0 -16 5 -27.833 15 -35.5s23.333 -11.5 40 -11.5
c13.333 0 27.666 2.33301 42.999 7s30 10.667 44 18l43 204c11.333 -1.33301 24 -2.5 38 -3.5s24 -1.5 30 -1.5c13.333 0 27.666 0.666992 42.999 2c12.667 2 21.667 3 27 3z" />
    <glyph glyph-name="divide" unicode="&#x447;" horiz-adv-x="519" 
d="M412 -5c-7.33301 0 -19.3301 0.831055 -35.9971 2.49805s-27.334 2.5 -32.001 2.5c-13.333 0 -27.666 -0.666992 -42.999 -2c-12.667 -2 -21.667 -3 -27 -3l49 230c-26 -15.333 -52.167 -26.666 -78.5 -33.999s-51.5 -11 -75.5 -11c-35.333 0 -64 8.33301 -86 25
s-33 40 -33 70c0 8 1 17 3 27l38 178l35.5 -3c15.667 -1.33301 26.5 -2 32.5 -2c13.333 0 27.666 0.666992 42.999 2c12.667 2 21.667 3 27 3l-35 -163c-1.33301 -9.33301 -2 -15.666 -2 -18.999c0 -16 5 -27.833 15 -35.5s23.333 -11.5 40 -11.5
c13.333 0 27.666 2.33301 42.999 7s30 10.667 44 18l43 204c11.333 -1.33301 24 -2.5 38 -3.5s24 -1.5 30 -1.5c13.333 0 27.666 0.666992 42.999 2c12.667 2 21.667 3 27 3z" />
    <glyph glyph-name="oslash" unicode="&#xf8;" horiz-adv-x="722" 
d="M616 0h-609.995l102 480c21.333 -2.66699 35.666 -4.16699 42.999 -4.5s15.666 -0.5 24.999 -0.5c23.333 0 46.666 1.66699 69.999 5l-89 -420l48 -2l50 2l89 420c23.333 -3.33301 46 -5 68 -5c23.333 0 46.666 1.66699 69.999 5l-89 -420l48 -2l50 2l89 420
c22 -3.33301 44.667 -5 68 -5c21.333 0 44.666 1.66699 69.999 5z" />
    <glyph glyph-name="oslash" unicode="&#x448;" horiz-adv-x="722" 
d="M616 0h-609.995l102 480c21.333 -2.66699 35.666 -4.16699 42.999 -4.5s15.666 -0.5 24.999 -0.5c23.333 0 46.666 1.66699 69.999 5l-89 -420l48 -2l50 2l89 420c23.333 -3.33301 46 -5 68 -5c23.333 0 46.666 1.66699 69.999 5l-89 -420l48 -2l50 2l89 420
c22 -3.33301 44.667 -5 68 -5c21.333 0 44.666 1.66699 69.999 5z" />
    <glyph glyph-name="ugrave" unicode="&#xf9;" horiz-adv-x="722" 
d="M659 -39h-9.99316c-12 18 -29.5 29 -52.5 33s-63.167 6 -120.5 6h-470l102 480c21.333 -2.66699 35.666 -4.16699 42.999 -4.5s15.666 -0.5 24.999 -0.5c21.333 0 44.666 1.66699 69.999 5l-89 -420l48 -2l50 2l89 420c21.333 -2.66699 35.666 -4.16699 42.999 -4.5
s15.666 -0.5 24.999 -0.5c21.333 0 44.666 1.66699 69.999 5l-89 -420l48 -2l50 2l89 420c21.333 -3.33301 44 -5 68 -5c21.333 0 44.666 1.66699 69.999 5l-90 -422h51l-14 -43l-4 -28c-1.33301 -9.33301 -2 -18 -2 -26z" />
    <glyph glyph-name="ugrave" unicode="&#x449;" horiz-adv-x="722" 
d="M659 -39h-9.99316c-12 18 -29.5 29 -52.5 33s-63.167 6 -120.5 6h-470l102 480c21.333 -2.66699 35.666 -4.16699 42.999 -4.5s15.666 -0.5 24.999 -0.5c21.333 0 44.666 1.66699 69.999 5l-89 -420l48 -2l50 2l89 420c21.333 -2.66699 35.666 -4.16699 42.999 -4.5
s15.666 -0.5 24.999 -0.5c21.333 0 44.666 1.66699 69.999 5l-89 -420l48 -2l50 2l89 420c21.333 -3.33301 44 -5 68 -5c21.333 0 44.666 1.66699 69.999 5l-90 -422h51l-14 -43l-4 -28c-1.33301 -9.33301 -2 -18 -2 -26z" />
    <glyph glyph-name="uacute" unicode="&#xfa;" horiz-adv-x="518" 
d="M470 156c-12 -58.667 -42.999 -100.668 -92.999 -126.001c-38.667 -20 -89.334 -30 -152.001 -30h-183l90 422c-14 0 -30 -1.16699 -48 -3.5s-31.667 -4.16602 -41 -5.49902c6 12 10 23.667 12 35s2.66699 22 2 32h225l-43 -202h82c101.333 0 152 -31.333 152 -94
c0 -8.66699 -1 -18 -3 -28zM325.001 143.999c1.33301 5.33301 1.99707 13.333 1.99707 24c0 18 -4.66699 32.333 -14 43s-21.666 16 -36.999 16h-48l-37 -175c8.66699 0 16.5 0.166992 23.5 0.5s16.5 1.5 28.5 3.5c22.667 5.33301 40.834 16 54.501 32
s22.834 34.667 27.501 56z" />
    <glyph glyph-name="uacute" unicode="&#x44a;" horiz-adv-x="518" 
d="M470 156c-12 -58.667 -42.999 -100.668 -92.999 -126.001c-38.667 -20 -89.334 -30 -152.001 -30h-183l90 422c-14 0 -30 -1.16699 -48 -3.5s-31.667 -4.16602 -41 -5.49902c6 12 10 23.667 12 35s2.66699 22 2 32h225l-43 -202h82c101.333 0 152 -31.333 152 -94
c0 -8.66699 -1 -18 -3 -28zM325.001 143.999c1.33301 5.33301 1.99707 13.333 1.99707 24c0 18 -4.66699 32.333 -14 43s-21.666 16 -36.999 16h-48l-37 -175c8.66699 0 16.5 0.166992 23.5 0.5s16.5 1.5 28.5 3.5c22.667 5.33301 40.834 16 54.501 32
s22.834 34.667 27.501 56z" />
    <glyph glyph-name="ucircumflex" unicode="&#xfb;" horiz-adv-x="722" 
d="M615 -5c-8.66699 0.666992 -20.667 1.66699 -36 3s-26 2 -32 2c-13.333 -0 -27.666 -0.666992 -42.999 -2c-12.667 -2 -21.667 -3 -27 -3l103 485l35.5 -3c15.667 -1.33301 26.5 -2 32.5 -2c13.333 0 27.666 0.666992 42.999 2c12.667 2 21.667 3 27 3zM434 156
c-12 -58.667 -43.001 -100.667 -93.001 -126c-38.667 -20 -89.334 -30 -152.001 -30h-183l102 480c22 -2.66699 36.833 -4.16699 44.5 -4.5s15.834 -0.5 24.501 -0.5c12.667 0 22.834 0.333008 30.501 1s20.5 2 38.5 4l-43 -202h82c101.333 0 152 -31.333 152 -94
c0 -8.66699 -1 -18 -3 -28zM288.999 144c1.33301 5.33301 1.99707 13.333 1.99707 24c0 18 -4.66699 32.333 -14 43s-21.666 16 -36.999 16h-48l-37 -175c8.66699 0 16.5 0.166992 23.5 0.5s16.5 1.5 28.5 3.5c22.667 5.33301 40.834 16 54.501 32s22.834 34.667 27.501 56z
" />
    <glyph glyph-name="ucircumflex" unicode="&#x44b;" horiz-adv-x="722" 
d="M615 -5c-8.66699 0.666992 -20.667 1.66699 -36 3s-26 2 -32 2c-13.333 -0 -27.666 -0.666992 -42.999 -2c-12.667 -2 -21.667 -3 -27 -3l103 485l35.5 -3c15.667 -1.33301 26.5 -2 32.5 -2c13.333 0 27.666 0.666992 42.999 2c12.667 2 21.667 3 27 3zM434 156
c-12 -58.667 -43.001 -100.667 -93.001 -126c-38.667 -20 -89.334 -30 -152.001 -30h-183l102 480c22 -2.66699 36.833 -4.16699 44.5 -4.5s15.834 -0.5 24.501 -0.5c12.667 0 22.834 0.333008 30.501 1s20.5 2 38.5 4l-43 -202h82c101.333 0 152 -31.333 152 -94
c0 -8.66699 -1 -18 -3 -28zM288.999 144c1.33301 5.33301 1.99707 13.333 1.99707 24c0 18 -4.66699 32.333 -14 43s-21.666 16 -36.999 16h-48l-37 -175c8.66699 0 16.5 0.166992 23.5 0.5s16.5 1.5 28.5 3.5c22.667 5.33301 40.834 16 54.501 32s22.834 34.667 27.501 56z
" />
    <glyph glyph-name="udieresis" unicode="&#xfc;" horiz-adv-x="481" 
d="M434 156c-12 -58.667 -43.001 -100.667 -93.001 -126c-38.667 -20 -89.334 -30 -152.001 -30h-183l102 480c22 -2.66699 36.833 -4.16699 44.5 -4.5s15.834 -0.5 24.501 -0.5c12.667 0 22.834 0.333008 30.501 1s20.5 2 38.5 4l-43 -202h82
c101.333 0 152 -31.333 152 -94c0 -8.66699 -1 -18 -3 -28zM288.999 144c1.33301 5.33301 1.99707 13.333 1.99707 24c0 18 -4.66699 32.333 -14 43s-21.666 16 -36.999 16h-48l-37 -175c8.66699 0 16.5 0.166992 23.5 0.5s16.5 1.5 28.5 3.5
c22.667 5.33301 40.834 16 54.501 32s22.834 34.667 27.501 56z" />
    <glyph glyph-name="udieresis" unicode="&#x44c;" horiz-adv-x="481" 
d="M434 156c-12 -58.667 -43.001 -100.667 -93.001 -126c-38.667 -20 -89.334 -30 -152.001 -30h-183l102 480c22 -2.66699 36.833 -4.16699 44.5 -4.5s15.834 -0.5 24.501 -0.5c12.667 0 22.834 0.333008 30.501 1s20.5 2 38.5 4l-43 -202h82
c101.333 0 152 -31.333 152 -94c0 -8.66699 -1 -18 -3 -28zM288.999 144c1.33301 5.33301 1.99707 13.333 1.99707 24c0 18 -4.66699 32.333 -14 43s-21.666 16 -36.999 16h-48l-37 -175c8.66699 0 16.5 0.166992 23.5 0.5s16.5 1.5 28.5 3.5
c22.667 5.33301 40.834 16 54.501 32s22.834 34.667 27.501 56z" />
    <glyph glyph-name="yacute" unicode="&#xfd;" horiz-adv-x="481" 
d="M452 247c-17.333 -80.667 -54.835 -144.334 -112.502 -191.001s-126.5 -70 -206.5 -70c-28 0 -54.167 4 -78.5 12s-43.5 20 -57.5 36l-1 50l20 14c8.66699 -14 22 -25.333 40 -34s36.333 -13 55 -13c48.667 0 88.334 14.833 119.001 44.5s53.334 71.834 68.001 126.501
h-113c-14 0 -24.167 -0.333008 -30.5 -1s-17.166 -2 -32.499 -4c9.33301 22.667 14 44.334 14 65.001c18 -2.66699 30.5 -4.16699 37.5 -4.5s14.833 -0.5 23.5 -0.5h112c0.666992 6.66699 1.16699 14 1.5 22s0.5 14 0.5 18c0 37.333 -6 66.666 -18 87.999
c-14.667 26.667 -37.667 40 -69 40c-27.333 0 -51.833 -8.83301 -73.5 -26.5s-37.834 -39.834 -48.501 -66.501h-26l5 104c24 10.667 50.333 18.834 79 24.501s55.667 8.5 81 8.5c68 0 121.333 -15.667 160 -47s58 -76 58 -134c0 -20 -2.33301 -40.333 -7 -61z" />
    <glyph glyph-name="yacute" unicode="&#x44d;" horiz-adv-x="481" 
d="M452 247c-17.333 -80.667 -54.835 -144.334 -112.502 -191.001s-126.5 -70 -206.5 -70c-28 0 -54.167 4 -78.5 12s-43.5 20 -57.5 36l-1 50l20 14c8.66699 -14 22 -25.333 40 -34s36.333 -13 55 -13c48.667 0 88.334 14.833 119.001 44.5s53.334 71.834 68.001 126.501
h-113c-14 0 -24.167 -0.333008 -30.5 -1s-17.166 -2 -32.499 -4c9.33301 22.667 14 44.334 14 65.001c18 -2.66699 30.5 -4.16699 37.5 -4.5s14.833 -0.5 23.5 -0.5h112c0.666992 6.66699 1.16699 14 1.5 22s0.5 14 0.5 18c0 37.333 -6 66.666 -18 87.999
c-14.667 26.667 -37.667 40 -69 40c-27.333 0 -51.833 -8.83301 -73.5 -26.5s-37.834 -39.834 -48.501 -66.501h-26l5 104c24 10.667 50.333 18.834 79 24.501s55.667 8.5 81 8.5c68 0 121.333 -15.667 160 -47s58 -76 58 -134c0 -20 -2.33301 -40.333 -7 -61z" />
    <glyph glyph-name="thorn" unicode="&#xfe;" horiz-adv-x="778" 
d="M748 249c-16 -76 -51.667 -138.831 -107 -188.498s-119.333 -74.5 -192 -74.5c-59.333 0 -106.333 16 -141 48s-52 75.667 -52 131c0 8 0.333008 16.667 1 26s2 18.666 4 27.999h-70l-48 -224c-11.333 1.33301 -19.666 2 -24.999 2c-22.667 2 -37 3 -43 3
c-13.333 0 -27.666 -0.666992 -42.999 -2c-12.667 -2 -21.667 -3 -27 -3l103 485c23.333 -3.33301 46 -5 68 -5c21.333 0 44.666 1.66699 69.999 5l-42 -200h72c22.667 64 59.167 114.833 109.5 152.5s107.166 56.5 170.499 56.5c62 0 110.667 -15.667 146 -47
s53 -75 53 -131c0 -20.667 -2.33301 -41.334 -7 -62.001zM605 266.002c6.66699 27.333 10 54.667 10 82c0 30.667 -5 54.5 -15 71.5s-25.667 25.5 -47 25.5c-35.333 0 -66 -21 -92 -63c-22.667 -36.667 -40.667 -87.334 -54 -152.001
c-4 -19.333 -7.16699 -36.666 -9.5 -51.999s-3.5 -32 -3.5 -50c0 -30 4.5 -53.667 13.5 -71s25.833 -26 50.5 -26c35.333 0 65.666 23.333 90.999 70c20.667 38 39.334 93 56.001 165z" />
    <glyph glyph-name="thorn" unicode="&#x44e;" horiz-adv-x="778" 
d="M748 249c-16 -76 -51.667 -138.831 -107 -188.498s-119.333 -74.5 -192 -74.5c-59.333 0 -106.333 16 -141 48s-52 75.667 -52 131c0 8 0.333008 16.667 1 26s2 18.666 4 27.999h-70l-48 -224c-11.333 1.33301 -19.666 2 -24.999 2c-22.667 2 -37 3 -43 3
c-13.333 0 -27.666 -0.666992 -42.999 -2c-12.667 -2 -21.667 -3 -27 -3l103 485c23.333 -3.33301 46 -5 68 -5c21.333 0 44.666 1.66699 69.999 5l-42 -200h72c22.667 64 59.167 114.833 109.5 152.5s107.166 56.5 170.499 56.5c62 0 110.667 -15.667 146 -47
s53 -75 53 -131c0 -20.667 -2.33301 -41.334 -7 -62.001zM605 266.002c6.66699 27.333 10 54.667 10 82c0 30.667 -5 54.5 -15 71.5s-25.667 25.5 -47 25.5c-35.333 0 -66 -21 -92 -63c-22.667 -36.667 -40.667 -87.334 -54 -152.001
c-4 -19.333 -7.16699 -36.666 -9.5 -51.999s-3.5 -32 -3.5 -50c0 -30 4.5 -53.667 13.5 -71s25.833 -26 50.5 -26c35.333 0 65.666 23.333 90.999 70c20.667 38 39.334 93 56.001 165z" />
    <glyph glyph-name="ydieresis" unicode="&#xff;" horiz-adv-x="500" 
d="M393 -5c-10 1.33301 -17.667 2 -23 2c-22 2 -37 3 -45 3c-16 -0 -29.833 -0.666992 -41.5 -2s-21.167 -2.33301 -28.5 -3l43 204h-15c-14 -14.667 -35 -38.667 -63 -72c-46.667 -56 -71 -85.333 -73 -88l-34 -44c-10.667 1.33301 -18.667 2 -24 2
c-22.667 2 -38.667 3 -48 3c-13.333 0 -30.333 -0.833008 -51 -2.5s-32 -2.5 -34 -2.5l1 7l75 85c55.333 62 96.333 106 123 132c-24.667 8 -44.667 19 -60 33c-20 18.667 -30 41.334 -30 68.001c0 8.66699 1 17.667 3 27c9.33301 45.333 33.333 78.666 72 99.999
s87 32 145 32h211zM309 251l37 174h-25c-29.333 0 -54.833 -7.16699 -76.5 -21.5s-35.167 -34.5 -40.5 -60.5c-1.33301 -4 -2 -8 -2 -12v-9c0 -22.667 7.83301 -40.167 23.5 -52.5s35.167 -18.5 58.5 -18.5h25z" />
    <glyph glyph-name="ydieresis" unicode="&#x44f;" horiz-adv-x="500" 
d="M393 -5c-10 1.33301 -17.667 2 -23 2c-22 2 -37 3 -45 3c-16 -0 -29.833 -0.666992 -41.5 -2s-21.167 -2.33301 -28.5 -3l43 204h-15c-14 -14.667 -35 -38.667 -63 -72c-46.667 -56 -71 -85.333 -73 -88l-34 -44c-10.667 1.33301 -18.667 2 -24 2
c-22.667 2 -38.667 3 -48 3c-13.333 0 -30.333 -0.833008 -51 -2.5s-32 -2.5 -34 -2.5l1 7l75 85c55.333 62 96.333 106 123 132c-24.667 8 -44.667 19 -60 33c-20 18.667 -30 41.334 -30 68.001c0 8.66699 1 17.667 3 27c9.33301 45.333 33.333 78.666 72 99.999
s87 32 145 32h211zM309 251l37 174h-25c-29.333 0 -54.833 -7.16699 -76.5 -21.5s-35.167 -34.5 -40.5 -60.5c-1.33301 -4 -2 -8 -2 -12v-9c0 -22.667 7.83301 -40.167 23.5 -52.5s35.167 -18.5 58.5 -18.5h25z" />
    <glyph glyph-name="OE" unicode="&#x152;" horiz-adv-x="962" 
d="M938 217c-17.333 -81.333 -56.667 -139.667 -118 -175c-48.667 -28 -111 -42 -187 -42h-201l70 330c-14.667 0 -38.667 0.666992 -72 2s-51.666 2 -54.999 2c-15.333 0 -39.833 -0.666992 -73.5 -2s-52.167 -2 -55.5 -2l-71 -334c-8 0 -21.833 0.666992 -41.5 2
s-30.5 2 -32.5 2c-8.66699 -0 -21.334 -0.666992 -38.001 -2s-29.334 -2 -38.001 -2l146 685c8 0 20 -1 36 -3s28.333 -3 37 -3c8 0 20.667 1 38 3s30.333 3 39 3l-58 -271c18 0 41.833 -0.833008 71.5 -2.5s48.167 -2.5 55.5 -2.5c20.667 0 37 0.333008 49 1
c48.667 2.66699 75.334 4 80.001 4l59 275c8 0 20 -0.666992 36 -2s28.667 -2 38 -2c8 0 20.333 0.666992 37 2s29.667 2 39 2l-64 -298h96c122 0 183 -42.333 183 -127c0 -12 -1.66699 -26.333 -5 -43zM778.999 198.999c3.33301 16.667 4.99902 30.665 4.99902 41.998
c0 28 -6.33301 49.667 -19 65s-29.667 23 -51 23h-62l-58 -273c10.667 0.666992 22 1.33398 34 2.00098s23 2.33398 33 5.00098c32.667 8.66699 59.334 25.667 80.001 51c18 22.667 30.667 51 38 85z" />
    <glyph glyph-name="oe" unicode="&#x153;" horiz-adv-x="758" 
d="M711 156c-12 -58.667 -42.999 -100.667 -92.999 -126c-38.667 -20 -89.334 -30 -152.001 -30h-183l47 219h-139l-48 -224c-8.66699 0.666992 -20.667 1.66699 -36 3s-26 2 -32 2c-13.333 -0 -27.666 -0.666992 -42.999 -2c-12.667 -2 -21.667 -3 -27 -3l103 485l35.5 -3
c15.667 -1.33301 26.5 -2 32.5 -2c13.333 0 27.666 0.666992 42.999 2c12.667 2 21.667 3 27 3l-42 -200h139l42 200c11.333 -1.33301 24 -2.5 38 -3.5s24.333 -1.5 31 -1.5c15.333 0 29 0.666992 41 2s21.333 2.33301 28 3l-43 -202h82c101.333 0 152 -31.333 152 -94
c0 -8.66699 -1 -18 -3 -28zM566.001 144c1.33301 5.33301 1.99707 13.333 1.99707 24c0 18 -4.66699 32.333 -14 43s-21.666 16 -36.999 16h-48l-37 -175c8.66699 0 16.5 0.166992 23.5 0.5s16.5 1.5 28.5 3.5c22.667 5.33301 40.834 16 54.501 32s22.834 34.667 27.501 56z
" />
    <glyph glyph-name="Scaron" unicode="&#x160;" horiz-adv-x="907" 
d="M883 217c-17.333 -81.333 -56.667 -139.667 -118 -175c-48.667 -28 -111 -42 -187 -42h-201l129 606l-43 3l-40 -3l-129 -204l-121.5 -200.5l-114.5 -204.5l-46 3l-47 -3l145 226l143 227l137 231h282l-63 -295h96c122 0 183 -42 183 -126c0 -12 -1.66699 -26.333 -5 -43
zM723.999 198.999c3.33301 16.667 4.99902 30.998 4.99902 42.998c0 27.333 -6.33301 49 -19 65s-29.667 24 -51 24h-62l-58 -275c10.667 0.666992 22 1.33398 34 2.00098s23 2.33398 33 5.00098c32.667 8.66699 59.334 25.667 80.001 51c18 22.667 30.667 51 38 85z" />
    <glyph glyph-name="scaron" unicode="&#x161;" horiz-adv-x="722" 
d="M674 156c-12 -58.667 -42.998 -100.667 -92.998 -126c-38.667 -20 -89.334 -30 -152.001 -30h-183l89 421h-46l-148 -240c-38 -62 -73 -123.333 -105 -184l-40 3l-40 -3c107.333 158.667 210.666 319.667 309.999 483h220l-43 -202h82c101.333 0 152 -31.333 152 -94
c0 -8.66699 -1 -18 -3 -28zM529.002 144c1.33301 5.33301 1.99707 13.333 1.99707 24c0 18 -4.66699 32.333 -14 43s-21.666 16 -36.999 16h-48l-37 -175c8.66699 0 16.5 0.166992 23.5 0.5s16.5 1.5 28.5 3.5c22.667 5.33301 40.834 16 54.501 32s22.834 34.667 27.501 56z
" />
    <glyph glyph-name="Ydieresis" unicode="&#x178;" 
d="M450 0l-169.999 0.000976562l-13 -61c-12 2 -24.667 3 -38 3h-13h-27c-8.66699 0 -17.334 -1 -26.001 -3l13 61h-170l102 480c10.667 -2 24 -3.33301 40 -4s25.333 -1 28 -1c12 0 24.333 0.333008 37 1s23.667 2 33 4l-89 -419
c6.66699 -0.666992 21.334 -1.33398 44.001 -2.00098s35.667 -1 39 -1h24c22.667 0 43 1 61 3l89 419c21.333 -3.33301 44 -5 68 -5c8.66699 0 17.167 0.166992 25.5 0.5s23.166 1.83301 44.499 4.5z" />
    <glyph glyph-name="florin" unicode="&#x192;" horiz-adv-x="370" 
d="M459 686c-2.66699 -11.333 -8.00098 -21 -16.001 -29c-4.66699 -4.66699 -21 -15 -49 -31l-148 -81h-56l161 149c14.667 14 26 23 34 27c11.333 6 24.333 9 39 9c12.667 0 22.334 -4 29.001 -12s8.66699 -18.667 6 -32zM402.999 412
c-26 4 -51.834 6.66504 -77.501 7.99805s-56.167 2 -91.5 2l-91 -427c-8.66699 0.666992 -20.667 1.66699 -36 3s-26 2 -32 2c-13.333 0 -27.666 -0.666992 -42.999 -2c-12.667 -2 -21.667 -3 -27 -3l103 485h309c-6 -10.667 -9.66699 -19.667 -11 -27
s-2.5 -14.666 -3.5 -21.999s-0.833008 -13.666 0.5 -18.999z" />
    <glyph glyph-name="endash" unicode="&#x2013;" horiz-adv-x="500" 
d="M488 181h-500l18 83h500z" />
    <glyph glyph-name="emdash" unicode="&#x2014;" horiz-adv-x="1000" 
d="M988 181h-1000l18 83h1000z" />
    <glyph glyph-name="quoteleft" unicode="&#x2018;" horiz-adv-x="278" 
d="M340 694l-85 -185l-16 -36c-9.33301 -20.667 -20.333 -41 -33 -61c-10 -15.333 -20.667 -26.833 -32 -34.5s-25.333 -11.5 -42 -11.5s-30 4.66699 -40 14s-15 21.333 -15 36c0 15.333 6 30 18 44l82 92l141 153z" />
    <glyph glyph-name="quoteright" unicode="&#x2019;" horiz-adv-x="278" 
d="M312 616l-110.001 -123l-113 -122l-22 11l85 185l22 49c6.66699 13.333 15.334 28.5 26.001 45.5s21.667 29.333 33 37s25.333 11.5 42 11.5s30 -4.66699 40 -14s15 -21.333 15 -36c0 -14 -6 -28.667 -18 -44z" />
    <glyph glyph-name="quotesinglbase" unicode="&#x201a;" horiz-adv-x="278" 
d="M185 56l-109.998 -123.001l-113 -122l-22 11l84 185c15.333 32 23 48.333 23 49c7.33301 14 16.166 29.333 26.499 46s21.166 28.834 32.499 36.501s25.333 11.5 42 11.5s30 -4.66699 40 -14s15 -21.333 15 -36c0 -14 -6 -28.667 -18 -44z" />
    <glyph glyph-name="quotedblleft" unicode="&#x201c;" horiz-adv-x="500" 
d="M554 694l-85 -185l-16 -36c-9.33301 -20.667 -20.333 -41 -33 -61c-10 -15.333 -20.667 -26.833 -32 -34.5s-25.333 -11.5 -42 -11.5s-30 4.66699 -40 14s-15 21.333 -15 36c0 15.333 6 30 18 44l82 92l141 153zM347 694l-85 -185l-16 -36
c-9.33301 -20.667 -20.333 -41 -33 -61c-10 -15.333 -20.667 -26.833 -32 -34.5s-25.333 -11.5 -42 -11.5s-30 4.66699 -40 14s-15 21.333 -15 36c0 15.333 6 30 18 44l82 92l141 153z" />
    <glyph glyph-name="quotedblright" unicode="&#x201d;" horiz-adv-x="500" 
d="M527 616l-110.001 -123l-113 -122l-22 11l85 185l22 49c6.66699 13.333 15.334 28.5 26.001 45.5s21.667 29.333 33 37s25.333 11.5 42 11.5s30 -4.66699 40 -14s15 -21.333 15 -36c0 -14 -6 -28.667 -18 -44zM319.999 616l-110.001 -123l-113 -122l-22 11l85 185l22 49
c6.66699 13.333 15.334 28.5 26.001 45.5s21.667 29.333 33 37s25.333 11.5 42 11.5s30 -4.66699 40 -14s15 -21.333 15 -36c0 -14 -6 -28.667 -18 -44z" />
    <glyph glyph-name="quotedblbase" unicode="&#x201e;" horiz-adv-x="500" 
d="M392 56l-109.998 -123.001l-113 -122l-22 11l84 185c15.333 32 23 48.333 23 49c7.33301 14 16.166 29.333 26.499 46s21.166 28.834 32.499 36.501s25.333 11.5 42 11.5s30 -4.66699 40 -14s15 -21.333 15 -36c0 -14 -6 -28.667 -18 -44zM185.002 55.999
l-109.998 -123.001l-113 -122l-22 11l84 185c15.333 32 23 48.333 23 49c7.33301 14 16.166 29.333 26.499 46s21.166 28.834 32.499 36.501s25.333 11.5 42 11.5s30 -4.66699 40 -14s15 -21.333 15 -36c0 -14 -6 -28.667 -18 -44z" />
    <glyph glyph-name="dagger" unicode="&#x2020;" 
d="M529 368c-27.333 0 -47.667 0.333008 -61 1c-68 3.33301 -102.333 5 -103 5l-80 -379c-9.33301 1.33301 -16.333 2 -21 2c-19.333 2 -31.333 3 -36 3c-12.667 -0 -24.167 -0.666992 -34.5 -2s-18.5 -2.33301 -24.5 -3l80 379c-18 0 -45.333 -1 -82 -3s-64.667 -3 -84 -3
c2.66699 9.33301 4.66699 16 6 20c6.66699 20.667 10.667 33.5 12 38.5s2.33301 12.167 3 21.5l2 28c18 0 45.333 -1 82 -3s64 -3 82 -3l45 211c8.66699 -1.33301 19 -2.5 31 -3.5s20.667 -1.5 26 -1.5c12.667 0 23.167 0.5 31.5 1.5s17.5 2.16699 27.5 3.5l-45 -211
c27.333 0 61.666 1 102.999 3s62.333 3 63 3c-3.33301 -9.33301 -6.16602 -18 -8.49902 -26s-4.5 -16.167 -6.5 -24.5s-3.66699 -18.5 -5 -30.5z" />
    <glyph glyph-name="daggerdbl" unicode="&#x2021;" 
d="M480 137c-26.667 0 -46.666 0.333008 -59.999 1c-68 3.33301 -102.667 5 -104 5l-31 -148c-9.33301 1.33301 -16.333 2 -21 2c-19.333 2 -31.333 3 -36 3c-12.667 -0 -24.167 -0.666992 -34.5 -2s-18.5 -2.33301 -24.5 -3l31 148c-18.667 0 -46.334 -1 -83.001 -3
s-64.334 -3 -83.001 -3c2.66699 9.33301 4.66699 16 6 20l11 34l6 54c12.667 -2 27.5 -3.5 44.5 -4.5s35.833 -1.5 56.5 -1.5h63l42 198c-18.667 0 -46.667 -1 -84 -3s-64.666 -3 -81.999 -3l16 54c1.33301 6 2.66602 15 3.99902 27l3 27c26.667 0 46.667 -0.333008 60 -1
c67.333 -3.33301 101.666 -5 102.999 -5l32 148c8.66699 -1.33301 19 -2.5 31 -3.5s20.667 -1.5 26 -1.5c12.667 0 23.167 0.5 31.5 1.5s17.5 2.16699 27.5 3.5l-32 -148c18.667 0 46.667 1 84 3s65 3 83 3c-2.66699 -9.33301 -4.66699 -16 -6 -20l-11 -34
c-4 -18 -6 -36 -6 -54c-18 0 -45 1 -81 3s-63.667 3 -83 3l-42 -198c18.667 0 46.334 1 83.001 3s64.334 3 83.001 3c-2.66699 -9.33301 -4.66699 -16 -6 -20c-6 -17.333 -9.5 -28.833 -10.5 -34.5s-2.16699 -14.5 -3.5 -26.5z" />
    <glyph glyph-name="bullet" unicode="&#x2022;" horiz-adv-x="606" 
d="M497 340c-10 -47.333 -35.167 -87.5 -75.5 -120.5s-84.166 -49.5 -131.499 -49.5c-41.333 0 -74.833 13.167 -100.5 39.5s-38.5 59.5 -38.5 99.5c0 9.33301 1 19.666 3 30.999c11.333 47.333 37.166 87.5 77.499 120.5s83.833 49.5 130.5 49.5
c40.667 0 74 -12.667 100 -38s39 -57.666 39 -96.999v-17c-2 -8 -3.33301 -14 -4 -18z" />
    <glyph glyph-name="ellipsis" unicode="&#x2026;" horiz-adv-x="1000" 
d="M879 68c-4.66699 -22.667 -16.667 -42.001 -36 -58.001s-40.666 -24 -63.999 -24c-20 0 -36 6.33301 -48 19s-18 28.334 -18 47.001c0 4 0.666992 9.33301 2 16c5.33301 22 17.666 41.167 36.999 57.5s40 24.5 62 24.5c19.333 0 35.333 -6 48 -18s19 -28 19 -48
c0 -2.66699 -0.666992 -8 -2 -16zM546 67.999c-4.66699 -22.667 -16.667 -42.001 -36 -58.001s-40.666 -24 -63.999 -24c-20 0 -36 6.33301 -48 19s-18 28.334 -18 47.001c0 4 0.666992 9.33301 2 16c5.33301 22 17.666 41.167 36.999 57.5s40 24.5 62 24.5
c19.333 0 35.333 -6 48 -18s19 -28 19 -48c0 -2.66699 -0.666992 -8 -2 -16zM213 67.998c-4.66699 -22.667 -16.667 -42.001 -36 -58.001s-40.666 -24 -63.999 -24c-20 0 -36 6.33301 -48 19s-18 28.334 -18 47.001c0 4 0.666992 9.33301 2 16
c5.33301 22 17.666 41.167 36.999 57.5s40 24.5 62 24.5c19.333 0 35.333 -6 48 -18s19 -28 19 -48c0 -2.66699 -0.666992 -8 -2 -16z" />
    <glyph glyph-name="perthousand" unicode="&#x2030;" horiz-adv-x="1000" 
d="M974 151c-10 -48 -31.5 -87.5 -64.5 -118.5s-74.167 -46.5 -123.5 -46.5c-35.333 0 -62.333 10.667 -81 32s-28 49.666 -28 84.999c0 5.33301 0.166992 10.333 0.5 15s1.83301 14.334 4.5 29.001c10 46 31.833 84.833 65.5 116.5s73.167 47.5 118.5 47.5
c37.333 0 65.5 -10.5 84.5 -31.5s28.5 -48.833 28.5 -83.5c0 -13.333 -1.66699 -28.333 -5 -45zM653 694l-550 -723c-8 2 -16.667 3 -26 3c-8 0 -17 -1 -27 -3l549 723c10.667 -1.33301 18.667 -2 24 -2h15c6.66699 1.33301 11.667 2 15 2zM641 151
c-10 -48 -31.5 -87.5 -64.5 -118.5s-74.167 -46.5 -123.5 -46.5c-35.333 0 -62.333 10.667 -81 32s-28 49.666 -28 84.999c0 5.33301 0.166992 10.333 0.5 15s1.83301 14.334 4.5 29.001c10 46 31.833 84.833 65.5 116.5s73.167 47.5 118.5 47.5
c37.333 0 65.5 -10.5 84.5 -31.5s28.5 -48.833 28.5 -83.5c0 -13.333 -1.66699 -28.333 -5 -45zM357 510c-10 -48 -31.501 -87.5 -64.501 -118.5s-74.167 -46.5 -123.5 -46.5c-35.333 0 -62.166 10.5 -80.499 31.5s-27.5 48.833 -27.5 83.5c0 12.667 1.66699 28 5 46
c9.33301 46 30.833 84.833 64.5 116.5s73.167 47.5 118.5 47.5c37.333 0 65.5 -10.5 84.5 -31.5s28.5 -48.833 28.5 -83.5c0 -13.333 -1.66699 -28.333 -5 -45zM889.999 166c2 11.333 3.83496 22.667 5.50195 34s2.5 20.333 2.5 27c0 17.333 -2.66699 31 -8 41
s-14.666 15 -27.999 15c-24.667 0 -45.334 -15.667 -62.001 -47c-13.333 -24 -24.333 -57.333 -33 -100c-4 -19.333 -6 -38 -6 -56c0 -20 3 -36 9 -48s15.333 -18 28 -18c19.333 0 37.166 14.167 53.499 42.5s29.166 64.833 38.499 109.5zM557.001 166.001
c2 11.333 3.83496 22.667 5.50195 34s2.5 20.333 2.5 27c0 17.333 -2.66699 31 -8 41s-14.666 15 -27.999 15c-24.667 0 -45.334 -15.667 -62.001 -47c-13.333 -24 -24.333 -57.333 -33 -100c-4 -19.333 -6 -38 -6 -56c0 -20 3 -36 9 -48s15.333 -18 28 -18
c19.333 0 37.166 14.167 53.499 42.5s29.166 64.833 38.499 109.5zM274.003 525.002c0 1.33301 1.16699 9.16797 3.5 23.501s3.5 26.5 3.5 36.5c0 17.333 -2.66699 31.166 -8 41.499s-14.666 15.5 -27.999 15.5c-24.667 0 -45.334 -15.667 -62.001 -47
c-13.333 -24 -24.333 -57.333 -33 -100c-4 -19.333 -6 -38 -6 -56c0 -20 3 -36 9 -48s15.333 -18 28 -18c19.333 0 37.333 14 54 42s29.667 64.667 39 110z" />
    <glyph glyph-name="guilsinglleft" unicode="&#x2039;" horiz-adv-x="333" 
d="M241 116c-13.333 -5.33301 -26.334 -11.665 -39.001 -18.998c-7.33301 -4.66699 -19.666 -13.334 -36.999 -26.001l-51 122c-8.66699 20.667 -20 45 -34 73l168 197c8 -8.66699 16.667 -16.667 26 -24c3.33301 -2.66699 13.333 -9.33398 30 -20.001l-72.5 -74.5
l-71.5 -77.5l39 -76c12.667 -24 26.667 -49 42 -75z" />
    <glyph glyph-name="guilsinglright" unicode="&#x203a;" horiz-adv-x="333" 
d="M267 268l-169.001 -196.999c-8 9.33301 -16.333 17.333 -25 24c-4 3.33301 -14.333 10 -31 20l74 75c24.667 25.333 48.334 51 71.001 77c-10 18.667 -19.667 37.667 -29 57c-12 23.333 -29.333 54.666 -52 93.999c14 5.33301 27 11.666 39 18.999
c8 4.66699 20 13.334 36 26.001z" />
    <glyph glyph-name="trademark" unicode="&#x2122;" horiz-adv-x="975" 
d="M933 274l-48 3.00098l-49 -3c4 26.667 8.66699 61.334 14 104.001c0.666992 7.33301 7 64.666 19 171.999l-96 -135l-94 -138h-22c-7.33301 28.667 -19.166 72.334 -35.499 131.001l-37.5 136c-20 -57.333 -36.333 -106 -49 -146s-24 -81.333 -34 -124l-27 3l-28 -3
l47 125l50 138.5l50 143.5l24 -3l26 3c9.33301 -40.667 17.666 -74.334 24.999 -101.001l51 -178l121 167l77 112l24 -3l27 3c-11.333 -101.333 -19 -174.333 -23 -219c-8 -78.667 -12 -141.334 -12 -188.001zM439 631.001c-12 1.33301 -29.167 3 -51.5 5s-39.833 3 -52.5 3
l-78 -365l-43 3l-46 -3l78 365c-23.333 0 -41 -0.5 -53 -1.5s-31.667 -3.16699 -59 -6.5l5.5 15c1.66699 4.66699 2.5 8 2.5 10l3 25h305l-9 -25z" />
    <glyph glyph-name=".null" horiz-adv-x="0" 
 />
    <glyph glyph-name="nonmarkingreturn" horiz-adv-x="278" 
 />
    </font>
</defs>
</svg>
