<?xml version="1.0" standalone="no"?>
<!DOCTYPE svg PUBLIC "-//W3C//DTD SVG 1.1//EN" "http://www.w3.org/Graphics/SVG/1.1/DTD/svg11.dtd" >
<svg>
<metadata>
Created by FontForge 20090622 at Wed Aug  2 07:01:00 2017
 By deploy user
Copyright (c) Gophmann AL, 2000. All rights reserved.
</metadata>
<defs>
<font id="RedBanner" horiz-adv-x="779" >
  <font-face 
    font-family="Red Banner"
    font-weight="400"
    font-stretch="normal"
    units-per-em="1000"
    panose-1="2 0 5 5 9 0 0 2 0 4"
    ascent="800"
    descent="-200"
    x-height="721"
    cap-height="722"
    bbox="-40 -178 1423 983"
    underline-thickness="50"
    underline-position="-75"
    unicode-range="U+0020-U+2116"
  />
<missing-glyph horiz-adv-x="500" 
 />
    <glyph glyph-name=".notdef" horiz-adv-x="500" 
 />
    <glyph glyph-name="exclam" unicode="!" horiz-adv-x="343" 
d="M172 244q42 0 72.5 -11.5t50 -30t29 -42t9.5 -47.5t-9.5 -48t-29 -42.5t-50 -30.5t-72.5 -12q-43 0 -73 12t-49.5 30.5t-28.5 42.5t-9 48t11.5 47.5t32.5 42t50.5 30t65.5 11.5zM20 283v439h300v-439h-300z" />
    <glyph glyph-name="comma" unicode="," horiz-adv-x="343" 
d="M95 191l-43 -332h21l250 332h-228z" />
    <glyph glyph-name="hyphen" unicode="-" horiz-adv-x="392" 
d="M53 396v-150h286v150h-286z" />
    <glyph glyph-name="hyphen" unicode="&#xad;" horiz-adv-x="392" 
d="M53 396v-150h286v150h-286z" />
    <glyph glyph-name="period" unicode="." horiz-adv-x="343" 
d="M172 214q-24 0 -45.5 -9t-37.5 -25t-25 -37.5t-9 -45.5t9 -45.5t25 -37t37.5 -25t45.5 -9.5t45.5 9.5t37.5 25t25 37t9 45.5t-9 45.5t-25 37.5t-37.5 25t-45.5 9z" />
    <glyph glyph-name="A" unicode="A" horiz-adv-x="900" 
d="M890 0l-440 774l-436 -774h144l92 173l98 -223l102 223l94 -173h346zM426 213h-162l80 160z" />
    <glyph glyph-name="B" unicode="B" horiz-adv-x="837" 
d="M808 258q0 -49 -18.5 -87.5t-50 -67t-72 -48t-85 -31.5t-89.5 -17.5t-84 -5.5h-51h-76q-40 0 -79.5 -0.5t-63.5 -0.5h-25v722h301q59 0 119.5 -5t109 -23.5t79.5 -54.5t31 -98q0 -30 -17 -63.5t-37 -56.5q55 -28 81.5 -65.5t26.5 -97.5zM527 234q0 22 -6 45t-16.5 44.5
t-25 40t-32.5 31.5q35 31 48.5 58.5t13.5 68.5q0 12 -5.5 32.5t-16.5 40t-29 34t-43 14.5v-557q26 0 47 15t35.5 37t22 48t7.5 48z" />
    <glyph glyph-name="C" unicode="C" horiz-adv-x="775" 
d="M766 744h-164l14 -66l-37 16.5t-41.5 15t-50 10.5t-61.5 4q-80 0 -151.5 -26.5t-126 -73.5t-86.5 -113t-32 -144q0 -80 35.5 -148t93 -117.5t129.5 -77.5t145 -28q58 0 111.5 20.5t98 56t76 81.5t44.5 97q-24 -22 -48.5 -41.5t-51 -34.5t-55.5 -23.5t-62 -8.5
q-115 0 -176 55.5t-61 168.5q0 47 10.5 93.5t33 83.5t58.5 60t87 23q38 0 67 -12t52 -32.5t42 -47.5t37 -57l8 30.5l19 73l23 87.5z" />
    <glyph glyph-name="D" unicode="D" horiz-adv-x="978" 
d="M30 0l442 819l461 -819h-903zM375 415l-160 -333h326z" />
    <glyph glyph-name="E" unicode="E" horiz-adv-x="751" 
d="M711 497l-102 225h-499v-722h507l93 224l-300 -155v284l226 -25l-67 160l-159 -56v217z" />
    <glyph glyph-name="F" unicode="F" horiz-adv-x="751" 
d="M740 497l-102 225h-528v-722h300v353l255 -25l-67 160l-188 -56v217z" />
    <glyph glyph-name="G" unicode="G" horiz-adv-x="823" 
d="M816 342h-369v-84q44 0 69 -12t33.5 -30.5t3 -39.5t-21 -39.5t-38.5 -30.5t-50 -12q-39 0 -65 26.5t-41 66.5t-21.5 88t-6.5 92q0 47 10.5 93.5t33 83.5t58.5 60t87 23q38 0 67 -12t52 -32.5t42 -47.5t37 -57l8 30.5l19 73l23 87.5l20 75h-164l14 -66l-37 16.5t-41.5 15
t-50 10.5t-61.5 4q-80 0 -151.5 -26.5t-126 -73.5t-86.5 -113t-32 -144q0 -80 33 -149.5t88.5 -121t128.5 -81t153 -29.5q60 0 109 19t85 49.5t57.5 68t24.5 75.5z" />
    <glyph glyph-name="H" unicode="H" horiz-adv-x="971" 
d="M858 0v721h-302v-271h-148v271h-299v-721h299v406l78 -158l70 170v-418h302z" />
    <glyph glyph-name="I" unicode="I" horiz-adv-x="509" 
d="M404 0v722h-300v-722h300z" />
    <glyph glyph-name="J" unicode="J" horiz-adv-x="615" 
d="M504 0v722h-300v-584l-197 86l93 -224h404z" />
    <glyph glyph-name="K" unicode="K" horiz-adv-x="895" 
d="M881 0l-314 469l252 252h-173l-247 -315v315h-298v-721h298v235l153 -235h329z" />
    <glyph glyph-name="L" unicode="L" horiz-adv-x="695" 
d="M600 0h-500v722h300v-635l297 138z" />
    <glyph glyph-name="M" unicode="M" horiz-adv-x="1119" 
d="M1108 0l-287 744l-264 -432l-245 476l-298 -788h130l99 325l194 -373l237 361l114 -313h320z" />
    <glyph glyph-name="N" unicode="N" horiz-adv-x="975" 
d="M117 0v725l435 -369v352h301v-763l-435 385v-330h-301z" />
    <glyph glyph-name="O" unicode="O" horiz-adv-x="914" 
d="M883 362q0 -88 -36 -156.5t-94.5 -116t-134.5 -72t-155 -24.5q-86 0 -164 27t-137.5 74.5t-94.5 112.5t-35 142q0 84 34 152t88 116.5t120.5 75t131.5 28.5q-30 90 -16 88t34.5 -4t44.5 -5t44.5 -5t48.5 -6l-25 -66q67 -6 129.5 -33.5t110.5 -73.5t77 -110t29 -144z
M591 352q0 27 -1 68.5t-8.5 83.5t-23.5 77t-45 50l-50 -115l-38 114q-32 -22 -50 -53t-27 -66.5t-11.5 -72.5t-2.5 -72q0 -20 2.5 -50.5t8.5 -65t15.5 -69t24 -62t34 -45t44.5 -17.5q23 0 41.5 17t32.5 44.5t24.5 61t17 66.5t9.5 61t3 45z" />
    <glyph glyph-name="P" unicode="P" horiz-adv-x="817" 
d="M772 477q0 51 -20 96t-63.5 78t-111.5 52t-164 19h-305v-722h302v209q72 0 137.5 16t115.5 49t79.5 83.5t29.5 119.5zM519 477q0 -26 -7.5 -57t-22 -57.5t-34.5 -44.5t-45 -18v338q32 0 53 -14.5t33.5 -38t17.5 -52t5 -56.5z" />
    <glyph glyph-name="Q" unicode="Q" horiz-adv-x="914" 
d="M32 359q0 90 36 159t94.5 115.5t134 70.5t155.5 24q93 0 172 -23.5t136.5 -69t90 -112t32.5 -151.5q0 -56 -17 -104.5t-45 -89.5t-65 -73t-77 -54.5t-81 -34.5t-77 -13q53 -125 33.5 -125.5t-49.5 -0.5h-65h-64t-70 1l62 120q-51 1 -110 27.5t-109 74t-83.5 113.5
t-33.5 146zM322 385q0 -27 1.5 -71t9 -89t24 -82.5t45.5 -52.5l50 115l38 -114q31 22 49.5 55.5t27.5 71.5t11.5 78t2.5 75q0 20 -2.5 49.5t-8.5 62t-15.5 65t-24 58.5t-34 42t-44.5 16q-39 0 -64.5 -33.5t-40 -79t-20 -92.5t-5.5 -74z" />
    <glyph glyph-name="R" unicode="R" horiz-adv-x="967" 
d="M960 0l-292 337q31 5 60 20t51 39t35.5 56.5t13.5 71.5q0 54 -20 89.5t-53.5 57.5t-76.5 33t-89 15t-91.5 3.5t-83.5 -0.5h-294v-722h320v252l160 -252h360zM534 531q0 -20 -5.5 -43t-16.5 -43.5t-29 -34t-43 -13.5v269q25 0 43 -13.5t29 -34t16.5 -44t5.5 -43.5z" />
    <glyph glyph-name="S" unicode="S" horiz-adv-x="707" 
d="M645 230q0 -55 -30 -100t-76 -76.5t-101 -49t-105 -17.5q-48 0 -100 14t-95 42.5t-71 70.5t-28 98q33 -44 82.5 -68.5t103.5 -24.5q33 0 59 12t43.5 30.5t25 42t4.5 47.5q-3 18 -17 37t-33 36.5t-40.5 33.5l-37.5 28q-11 9 -30 21.5t-37.5 31.5t-32 45.5t-13.5 64.5
q0 40 21 74t53 59t70 38.5t73 13.5q45 0 92 -11t92 -31l-32 74l144 -11l10 -230q-11 13 -28 31.5t-38.5 35t-46 29t-49.5 13.5q-34 1 -52 -7t-26 -21.5t-7 -30.5t6 -33t12 -28.5t12 -17.5q16 -19 30.5 -30t26.5 -18t21.5 -11.5t17.5 -9.5q13 -7 34.5 -23.5t42 -41.5
t35.5 -58.5t15 -73.5z" />
    <glyph glyph-name="T" unicode="T" 
d="M530 641v-641h-307v629l-239 -123l77 216h657l74 -222z" />
    <glyph glyph-name="U" unicode="U" horiz-adv-x="954" 
d="M848 721v-372q0 -88 -29.5 -154.5t-80.5 -111.5t-120.5 -67.5t-148.5 -22.5q-86 0 -154.5 27t-116.5 74.5t-73.5 112.5t-25.5 142v372h279v-529q0 -27 6.5 -51t18.5 -43t29 -30t37 -11t38.5 11t32 29.5t21.5 43t8 51.5v529h279z" />
    <glyph glyph-name="V" unicode="V" horiz-adv-x="887" 
d="M893 721l-470 -793l-414 793h150l184 -382l207 382h343z" />
    <glyph glyph-name="W" unicode="W" horiz-adv-x="1119" 
d="M1108 721l-317 -768l-243 456l-266 -456l-268 768h130l109 -325l214 353l207 -341l114 313h320z" />
    <glyph glyph-name="X" unicode="X" 
d="M757 0l-239 429l220 293h-147l-128 -199q-1 2 -11.5 21l-27 49l-32.5 59l-27 49.5l-11 20.5h-331l226 -410l-239 -312h165l134 203l115 -203h333z" />
    <glyph glyph-name="Y" unicode="Y" horiz-adv-x="857" 
d="M847 722h-160l-172 -295l-163 295h-342l284 -427v-295h311v295z" />
    <glyph glyph-name="Z" unicode="Z" horiz-adv-x="800" 
d="M39 497l341 152l-358 -649h646l93 224l-355 -135l354 633h-619z" />
    <glyph glyph-name="a" unicode="a" horiz-adv-x="900" 
d="M890 0l-440 774l-436 -774h144l92 173l98 -223l102 223l94 -173h346zM426 213h-162l80 160z" />
    <glyph glyph-name="b" unicode="b" horiz-adv-x="837" 
d="M808 258q0 -49 -18.5 -87.5t-50 -67t-72 -48t-85 -31.5t-89.5 -17.5t-84 -5.5h-51h-76q-40 0 -79.5 -0.5t-63.5 -0.5h-25v722h301q59 0 119.5 -5t109 -23.5t79.5 -54.5t31 -98q0 -30 -17 -63.5t-37 -56.5q55 -28 81.5 -65.5t26.5 -97.5zM527 234q0 22 -6 45t-16.5 44.5
t-25 40t-32.5 31.5q35 31 48.5 58.5t13.5 68.5q0 12 -5.5 32.5t-16.5 40t-29 34t-43 14.5v-557q26 0 47 15t35.5 37t22 48t7.5 48z" />
    <glyph glyph-name="c" unicode="c" horiz-adv-x="775" 
d="M766 744h-164l14 -66l-37 16.5t-41.5 15t-50 10.5t-61.5 4q-80 0 -151.5 -26.5t-126 -73.5t-86.5 -113t-32 -144q0 -80 35.5 -148t93 -117.5t129.5 -77.5t145 -28q58 0 111.5 20.5t98 56t76 81.5t44.5 97q-24 -22 -48.5 -41.5t-51 -34.5t-55.5 -23.5t-62 -8.5
q-115 0 -176 55.5t-61 168.5q0 47 10.5 93.5t33 83.5t58.5 60t87 23q38 0 67 -12t52 -32.5t42 -47.5t37 -57l8 30.5l19 73l23 87.5z" />
    <glyph glyph-name="d" unicode="d" horiz-adv-x="978" 
d="M933 0l-461 819l-442 -819l716 -1zM541 82h-326l160 333z" />
    <glyph glyph-name="e" unicode="e" horiz-adv-x="751" 
d="M711 497l-102 225h-499v-722h507l93 224l-300 -155v284l226 -25l-67 160l-159 -56v217z" />
    <glyph glyph-name="f" unicode="f" horiz-adv-x="751" 
d="M740 497l-102 225h-528v-722h300v353l255 -25l-67 160l-188 -56v217z" />
    <glyph glyph-name="g" unicode="g" horiz-adv-x="823" 
d="M816 342h-369v-84q44 0 69 -12t33.5 -30.5t3 -39.5t-21 -39.5t-38.5 -30.5t-50 -12q-39 0 -65 26.5t-41 66.5t-21.5 88t-6.5 92q0 47 10.5 93.5t33 83.5t58.5 60t87 23q38 0 67 -12t52 -32.5t42 -47.5t37 -57l8 30.5l19 73l23 87.5l20 75h-164l14 -66l-37 16.5t-41.5 15
t-50 10.5t-61.5 4q-80 0 -151.5 -26.5t-126 -73.5t-86.5 -113t-32 -144q0 -80 33 -149.5t88.5 -121t128.5 -81t153 -29.5q60 0 109 19t85 49.5t57.5 68t24.5 75.5z" />
    <glyph glyph-name="h" unicode="h" horiz-adv-x="971" 
d="M858 0v721h-302v-271h-148v271h-299v-721h299v406l78 -158l70 170v-418h302z" />
    <glyph glyph-name="i" unicode="i" horiz-adv-x="509" 
d="M404 0v722h-300v-722h300z" />
    <glyph glyph-name="j" unicode="j" horiz-adv-x="615" 
d="M504 0v722h-300v-584l-197 86l93 -224h404z" />
    <glyph glyph-name="k" unicode="k" horiz-adv-x="895" 
d="M881 0l-314 469l252 252h-173l-247 -315v315h-298v-721h298v235l153 -235h329z" />
    <glyph glyph-name="l" unicode="l" horiz-adv-x="695" 
d="M600 0h-500v722h300v-635l297 138z" />
    <glyph glyph-name="m" unicode="m" horiz-adv-x="1119" 
d="M1108 0l-287 744l-264 -432l-245 476l-298 -788h130l99 325l194 -373l237 361l114 -313h320z" />
    <glyph glyph-name="n" unicode="n" horiz-adv-x="975" 
d="M117 0v725l435 -369v352h301v-763l-435 385v-330h-301z" />
    <glyph glyph-name="o" unicode="o" horiz-adv-x="914" 
d="M883 362q0 -88 -36 -156.5t-94.5 -116t-134.5 -72t-155 -24.5q-86 0 -164 27t-137.5 74.5t-94.5 112.5t-35 142q0 84 34 152t88 116.5t120.5 75t131.5 28.5q-30 90 -16 88t34.5 -4t44.5 -5t44.5 -5t48.5 -6l-25 -66q67 -6 129.5 -33.5t110.5 -73.5t77 -110t29 -144z
M591 352q0 27 -1 68.5t-8.5 83.5t-23.5 77t-45 50l-50 -115l-38 114q-32 -22 -50 -53t-27 -66.5t-11.5 -72.5t-2.5 -72q0 -20 2.5 -50.5t8.5 -65t15.5 -69t24 -62t34 -45t44.5 -17.5q23 0 41.5 17t32.5 44.5t24.5 61t17 66.5t9.5 61t3 45z" />
    <glyph glyph-name="p" unicode="p" horiz-adv-x="817" 
d="M772 477q0 51 -20 96t-63.5 78t-111.5 52t-164 19h-305v-722h302v209q72 0 137.5 16t115.5 49t79.5 83.5t29.5 119.5zM519 477q0 -26 -7.5 -57t-22 -57.5t-34.5 -44.5t-45 -18v338q32 0 53 -14.5t33.5 -38t17.5 -52t5 -56.5z" />
    <glyph glyph-name="q" unicode="q" horiz-adv-x="914" 
d="M32 359q0 90 36 159t94.5 115.5t134 70.5t155.5 24q93 0 172 -23.5t136.5 -69t90 -112t32.5 -151.5q0 -56 -17 -104.5t-45 -89.5t-65 -73t-77 -54.5t-81 -34.5t-77 -13q53 -125 33.5 -125.5t-49.5 -0.5h-65h-64t-70 1l62 120q-51 1 -110 27.5t-109 74t-83.5 113.5
t-33.5 146zM322 385q0 -27 1.5 -71t9 -89t24 -82.5t45.5 -52.5l50 115l38 -114q31 22 49.5 55.5t27.5 71.5t11.5 78t2.5 75q0 20 -2.5 49.5t-8.5 62t-15.5 65t-24 58.5t-34 42t-44.5 16q-39 0 -64.5 -33.5t-40 -79t-20 -92.5t-5.5 -74z" />
    <glyph glyph-name="r" unicode="r" horiz-adv-x="967" 
d="M960 0l-292 337q31 5 60 20t51 39t35.5 56.5t13.5 71.5q0 54 -20 89.5t-53.5 57.5t-76.5 33t-89 15t-91.5 3.5t-83.5 -0.5h-294v-722h320v252l160 -252h360zM534 531q0 -20 -5.5 -43t-16.5 -43.5t-29 -34t-43 -13.5v269q25 0 43 -13.5t29 -34t16.5 -44t5.5 -43.5z" />
    <glyph glyph-name="s" unicode="s" horiz-adv-x="707" 
d="M645 230q0 -55 -30 -100t-76 -76.5t-101 -49t-105 -17.5q-48 0 -100 14t-95 42.5t-71 70.5t-28 98q33 -44 82.5 -68.5t103.5 -24.5q33 0 59 12t43.5 30.5t25 42t4.5 47.5q-3 18 -17 37t-33 36.5t-40.5 33.5l-37.5 28q-11 9 -30 21.5t-37.5 31.5t-32 45.5t-13.5 64.5
q0 40 21 74t53 59t70 38.5t73 13.5q45 0 92 -11t92 -31l-32 74l144 -11l10 -230q-11 13 -28 31.5t-38.5 35t-46 29t-49.5 13.5q-34 1 -52 -7t-26 -21.5t-7 -30.5t6 -33t12 -28.5t12 -17.5q16 -19 30.5 -30t26.5 -18t21.5 -11.5t17.5 -9.5q13 -7 34.5 -23.5t42 -41.5
t35.5 -58.5t15 -73.5z" />
    <glyph glyph-name="t" unicode="t" 
d="M530 641v-641h-307v629l-239 -123l77 216h657l74 -222z" />
    <glyph glyph-name="u" unicode="u" horiz-adv-x="954" 
d="M848 721v-372q0 -88 -29.5 -154.5t-80.5 -111.5t-120.5 -67.5t-148.5 -22.5q-86 0 -154.5 27t-116.5 74.5t-73.5 112.5t-25.5 142v372h279v-529q0 -27 6.5 -51t18.5 -43t29 -30t37 -11t38.5 11t32 29.5t21.5 43t8 51.5v529h279z" />
    <glyph glyph-name="v" unicode="v" horiz-adv-x="887" 
d="M893 721l-470 -793l-414 793h150l184 -382l207 382h343z" />
    <glyph glyph-name="w" unicode="w" horiz-adv-x="1119" 
d="M1108 721l-317 -768l-243 456l-266 -456l-268 768h130l109 -325l214 353l207 -341l114 313h320z" />
    <glyph glyph-name="x" unicode="x" 
d="M757 0l-239 429l220 293h-147l-128 -199q-1 2 -11.5 21l-27 49l-32.5 59l-27 49.5l-11 20.5h-331l226 -410l-239 -312h165l134 203l115 -203h333z" />
    <glyph glyph-name="y" unicode="y" horiz-adv-x="777" 
d="M787 722h-126l-162 -306l-157 306h-352l334 -577l-93 -145h135z" />
    <glyph glyph-name="z" unicode="z" horiz-adv-x="800" 
d="M39 497l341 152l-358 -649h646l93 224l-355 -135l354 633h-619z" />
    <glyph glyph-name="space" unicode=" " horiz-adv-x="500" 
 />
    <glyph glyph-name="space" unicode="&#xa0;" horiz-adv-x="500" 
 />
    <glyph glyph-name="afii10023" unicode="&#x401;" horiz-adv-x="751" 
d="M570 907q0 43 -27 59t-63 16q-35 0 -54 -20t-19 -55t19 -54.5t54 -19.5q17 0 33.5 3t29 11t20 22.5t7.5 37.5zM319 907q0 40 -21.5 58t-59.5 18q-36 0 -59 -18.5t-23 -57.5q0 -38 23 -56.5t59 -18.5q38 0 59.5 18t21.5 57zM711 497l-102 225h-499v-722h507l93 224
l-300 -155v284l226 -25l-67 160l-159 -56v217z" />
    <glyph glyph-name="afii10017" unicode="&#x410;" horiz-adv-x="900" 
d="M890 0l-440 774l-436 -774h144l92 173l98 -223l102 223l94 -173h346zM426 213h-162l80 160z" />
    <glyph glyph-name="afii10018" unicode="&#x411;" horiz-adv-x="802" 
d="M769 240q0 67 -34.5 107.5t-86.5 63t-113 31.5t-115 13v199l323 -156l-97 224h-526v-722h307q60 0 120.5 10t110 37t80.5 73.5t31 119.5zM515 234q0 -20 -5 -46.5t-16.5 -50.5t-29.5 -40.5t-44 -16.5v295q26 -3 44 -16.5t29.5 -33.5t16.5 -44t5 -47z" />
    <glyph glyph-name="afii10019" unicode="&#x412;" horiz-adv-x="837" 
d="M808 258q0 -49 -18.5 -87.5t-50 -67t-72 -48t-85 -31.5t-89.5 -17.5t-84 -5.5h-51h-76q-40 0 -79.5 -0.5t-63.5 -0.5h-25v722h301q59 0 119.5 -5t109 -23.5t79.5 -54.5t31 -98q0 -30 -17 -63.5t-37 -56.5q55 -28 81.5 -65.5t26.5 -97.5zM527 234q0 22 -6 45t-16.5 44.5
t-25 40t-32.5 31.5q35 31 48.5 58.5t13.5 68.5q0 12 -5.5 32.5t-16.5 40t-29 34t-43 14.5v-557q26 0 47 15t35.5 37t22 48t7.5 48z" />
    <glyph glyph-name="afii10020" unicode="&#x413;" horiz-adv-x="654" 
d="M410 635v-635h-300v722h500l97 -225z" />
    <glyph glyph-name="afii10021" unicode="&#x414;" horiz-adv-x="978" 
d="M967 82h-96l-399 737l-392 -737h-67l-53 -220q27 21 48.5 45t45.5 44.5t55 34t78 13.5h559q36 0 59 -18t37.5 -45t23 -58t14.5 -56zM541 82h-326l160 333z" />
    <glyph glyph-name="afii10022" unicode="&#x415;" horiz-adv-x="751" 
d="M711 497l-102 225h-499v-722h507l93 224l-300 -155v284l226 -25l-67 160l-159 -56v217z" />
    <glyph glyph-name="afii10024" unicode="&#x416;" horiz-adv-x="1282" 
d="M943 0l-153 235v-235h-298v235l-172 -235h-315l333 469q1 0 -17.5 18.5l-46.5 46.5l-60 61l-59.5 61l-64.5 66h191l211 -316v316h298v-316l247 316h173l-252 -253l314 -469h-329z" />
    <glyph glyph-name="afii10025" unicode="&#x417;" horiz-adv-x="722" 
d="M665 230q0 -55 -31.5 -100t-79.5 -76.5t-104.5 -49t-106.5 -17.5q-48 0 -101.5 14t-98.5 42.5t-74.5 70.5t-29.5 98q16 -22 39 -39t49 -29t53.5 -18.5t54.5 -6.5q33 0 59.5 12t44.5 32.5t28 48.5t10 60q0 22 -8.5 42t-22.5 36t-31.5 28.5t-36.5 21.5q8 5 20 9t25 11.5
t26.5 21t24.5 37.5q3 6 6.5 20.5t4 32t-3 36.5t-15 34t-32.5 24t-54 8q-25 -1 -49.5 -13.5t-46 -29t-39 -35t-27.5 -31.5v230l144 11l-12 -74q45 20 87 31t87 11q34 0 70.5 -9.5t66 -29.5t48.5 -50t19 -70q0 -38 -11.5 -64t-27.5 -44t-33 -29.5t-28 -20.5q13 -7 36 -22
t45.5 -38t39 -55t16.5 -72z" />
    <glyph glyph-name="afii10026" unicode="&#x418;" horiz-adv-x="975" 
d="M849 0v739l-433 -376v358h-300v-777l433 392v-336h300z" />
    <glyph glyph-name="afii10027" unicode="&#x419;" horiz-adv-x="975" 
d="M549 0v336l-433 -392v777h300v-358l433 376v-739h-300zM753 824l-219 -186l-2 290z" />
    <glyph glyph-name="afii10028" unicode="&#x41a;" horiz-adv-x="895" 
d="M881 0l-314 469l252 252h-173l-247 -315v315h-298v-721h298v235l153 -235h329z" />
    <glyph glyph-name="afii10029" unicode="&#x41b;" horiz-adv-x="887" 
d="M893 0l-450 793l-434 -793h160l174 382l207 -382h343z" />
    <glyph glyph-name="afii10030" unicode="&#x41c;" horiz-adv-x="1119" 
d="M1108 0l-287 744l-264 -432l-245 476l-298 -788h130l99 325l194 -373l237 361l114 -313h320z" />
    <glyph glyph-name="afii10031" unicode="&#x41d;" horiz-adv-x="971" 
d="M858 0v721h-302v-271h-148v271h-299v-721h299v406l78 -158l70 170v-418h302z" />
    <glyph glyph-name="afii10032" unicode="&#x41e;" horiz-adv-x="914" 
d="M883 362q0 -88 -36 -156.5t-94.5 -116t-134.5 -72t-155 -24.5q-86 0 -164 27t-137.5 74.5t-94.5 112.5t-35 142q0 84 34 152t88 116.5t120.5 75t131.5 28.5q-30 90 -16 88t34.5 -4t44.5 -5t44.5 -5t48.5 -6l-25 -66q67 -6 129.5 -33.5t110.5 -73.5t77 -110t29 -144z
M591 352q0 27 -1 68.5t-8.5 83.5t-23.5 77t-45 50l-50 -115l-38 114q-32 -22 -50 -53t-27 -66.5t-11.5 -72.5t-2.5 -72q0 -20 2.5 -50.5t8.5 -65t15.5 -69t24 -62t34 -45t44.5 -17.5q23 0 41.5 17t32.5 44.5t24.5 61t17 66.5t9.5 61t3 45z" />
    <glyph glyph-name="afii10033" unicode="&#x41f;" horiz-adv-x="948" 
d="M833 0v722h-723v-722h303v629h120v-629h300z" />
    <glyph glyph-name="afii10034" unicode="&#x420;" horiz-adv-x="817" 
d="M772 477q0 51 -20 96t-63.5 78t-111.5 52t-164 19h-305v-722h302v209q72 0 137.5 16t115.5 49t79.5 83.5t29.5 119.5zM519 477q0 -26 -7.5 -57t-22 -57.5t-34.5 -44.5t-45 -18v338q32 0 53 -14.5t33.5 -38t17.5 -52t5 -56.5z" />
    <glyph glyph-name="afii10035" unicode="&#x421;" horiz-adv-x="775" 
d="M766 744h-164l14 -66l-37 16.5t-41.5 15t-50 10.5t-61.5 4q-80 0 -151.5 -26.5t-126 -73.5t-86.5 -113t-32 -144q0 -80 35.5 -148t93 -117.5t129.5 -77.5t145 -28q58 0 111.5 20.5t98 56t76 81.5t44.5 97q-24 -22 -48.5 -41.5t-51 -34.5t-55.5 -23.5t-62 -8.5
q-115 0 -176 55.5t-61 168.5q0 47 10.5 93.5t33 83.5t58.5 60t87 23q38 0 67 -12t52 -32.5t42 -47.5t37 -57l8 30.5l19 73l23 87.5z" />
    <glyph glyph-name="afii10036" unicode="&#x422;" 
d="M530 641v-641h-307v629l-239 -123l77 216h657l74 -222z" />
    <glyph glyph-name="afii10037" unicode="&#x423;" horiz-adv-x="777" 
d="M787 722h-126l-162 -306l-157 306h-352l334 -577l-93 -145h135z" />
    <glyph glyph-name="afii10038" unicode="&#x424;" horiz-adv-x="1145" 
d="M1109 360q0 -63 -18 -109.5t-48.5 -79.5t-70 -54t-82.5 -33t-87 -16.5t-83 -4.5v-63h-300v63q-39 0 -83 4.5t-87 16.5t-82.5 33t-70 54t-48.5 79.5t-18 109.5q0 66 18.5 113t49.5 79t71.5 51t83.5 29t86 13t80 3v74h300v-74q36 0 79.5 -3t86.5 -13t83.5 -29t71.5 -51
t49.5 -79t18.5 -113zM837 360q0 24 -6 57t-19.5 63t-36 50.5t-55.5 20.5v-393q29 0 51 18t36.5 47t22 65t7.5 72zM420 551q-33 0 -55.5 -20.5t-36 -50.5t-19.5 -63t-6 -57q0 -36 7.5 -72t22 -65t36.5 -47t51 -18v393z" />
    <glyph glyph-name="afii10039" unicode="&#x425;" 
d="M757 0l-239 429l220 293h-147l-128 -199q-1 2 -11.5 21l-27 49l-32.5 59l-27 49.5l-11 20.5h-331l226 -410l-239 -312h165l134 203l115 -203h333z" />
    <glyph glyph-name="afii10040" unicode="&#x426;" horiz-adv-x="949" 
d="M895 97l-8 -20.5l-20 -51l-26 -65.5l-26 -65l-28 -70l-87 175h-588v722h301v-625h120v625h299v-625h63v0z" />
    <glyph glyph-name="afii10041" unicode="&#x427;" horiz-adv-x="890" 
d="M797 0v722h-300v-352q-42 0 -67.5 19.5t-40.5 51t-20.5 70.5t-6.5 78.5t1 74.5t2 58h-314l-2 -26t-1 -66t7.5 -89.5t23.5 -96t47.5 -85.5t78.5 -59q10 -4 38 -13t67 -15t87 -6t100 13v-279h300z" />
    <glyph glyph-name="afii10042" unicode="&#x428;" horiz-adv-x="1307" 
d="M1199 0v722h-280v-625h-120v625h-285v-625h-120v625h-285v-722h1090z" />
    <glyph glyph-name="afii10043" unicode="&#x429;" horiz-adv-x="1307" 
d="M1267 97h-68v625h-280v-625h-120v625h-285v-625h-120v625h-285v-722h963l147 -165q0 2 5 27t12 64.5l14 77.5l12 65t5 28z" />
    <glyph glyph-name="afii10044" unicode="&#x42a;" horiz-adv-x="1008" 
d="M952 240q0 67 -34.5 109t-86.5 65.5t-113.5 32t-114.5 8.5v267h-533l-97 -224l329 156v-654h308q60 0 120.5 10t110 37t80.5 73.5t31 119.5zM698 234q0 -20 -5 -46.5t-16.5 -50.5t-29.5 -40.5t-44 -16.5v295q26 -3 44 -16.5t29.5 -33.5t16.5 -44t5 -47z" />
    <glyph glyph-name="afii10045" unicode="&#x42b;" horiz-adv-x="1282" 
d="M1165 0v722h-300v-722h300zM773 240q0 45 -16 78t-42.5 57t-62 39.5t-74 24.5t-78.5 12.5t-76 3.5v267h-301v-722h308q60 0 120.5 10t110 37t80.5 73.5t31 119.5zM519 234q0 -20 -5 -46.5t-16.5 -50.5t-29.5 -40.5t-44 -16.5v295q26 -3 44 -16.5t29.5 -33.5t16.5 -44
t5 -47z" />
    <glyph glyph-name="afii10046" unicode="&#x42c;" horiz-adv-x="812" 
d="M773 240q0 67 -34.5 109t-86.5 65.5t-113.5 32t-114.5 8.5v267h-301v-722h308q60 0 120.5 10t110 37t80.5 73.5t31 119.5zM519 234q0 -20 -5 -46.5t-16.5 -50.5t-29.5 -40.5t-44 -16.5v295q26 -3 44 -16.5t29.5 -33.5t16.5 -44t5 -47z" />
    <glyph glyph-name="afii10047" unicode="&#x42d;" horiz-adv-x="810" 
d="M756 385q0 76 -31.5 141.5t-84.5 113.5t-122.5 75.5t-146.5 27.5q-27 0 -48 -1t-41 -5.5t-43 -12.5t-53 -23l10 66h-157l31 -294q30 60 62.5 96t62.5 56t55 26.5t42 6.5q39 0 71 -17t54 -46t32 -68t4 -83q-22 6 -54 14l-62 15l-51.5 12l-21.5 5l-6.5 -16l-16.5 -39
l-21 -50l-20 -49q69 10 130.5 16t124.5 15q-5 -41 -21 -77.5t-41 -63.5t-59 -43t-75 -16q-69 0 -123 26t-107 84q1 -71 36.5 -124.5t89 -88.5t116.5 -52.5t119 -17.5q78 0 145 33.5t116 88.5t77 125.5t28 143.5z" />
    <glyph glyph-name="afii10048" unicode="&#x42e;" horiz-adv-x="1328" 
d="M1289 362q0 -88 -36 -158.5t-94.5 -119.5t-134.5 -75t-155 -26q-80 0 -157 28t-137 75.5t-97.5 111t-38.5 134.5h-54v-332h-275v40v103t-0.5 140.5t-0.5 152.5v141t1 143h28q27 0 69 -0.5t81 -0.5h68q29 0 29 1v-282h57q15 70 55 123t93 88t111.5 53t110.5 19
q-24 82 -10.5 81l33.5 -2.5t43 -3.5t43 -3.5l47 -3.5l-25 -66q67 -6 129.5 -33.5t110.5 -73.5t77 -110t29 -144zM997 352q0 27 -1 68.5t-8.5 83.5t-23.5 77t-45 50l-50 -115l-38 114q-32 -22 -50 -53t-27 -66.5t-11 -72.5t-2 -72q0 -20 2.5 -50.5t8.5 -65t15.5 -69t23.5 -62
t33.5 -45t44.5 -17.5q23 0 41.5 17t32.5 44.5t24.5 61t17 66.5t9.5 61t3 45z" />
    <glyph glyph-name="afii10049" unicode="&#x42f;" horiz-adv-x="967" 
d="M850 0v722h-294q-38 0 -83.5 0.5t-91.5 -3.5t-89 -15t-76.5 -33t-53.5 -57.5t-20 -89.5q0 -39 13.5 -71.5t35.5 -56.5t51 -39t60 -20l-292 -337h360l160 252v-252h320zM530 397q-25 0 -43 13.5t-29 34t-16.5 43.5t-5.5 43t5.5 43.5t16.5 44t29 34t43 13.5v-269z" />
    <glyph glyph-name="afii10065" unicode="&#x430;" horiz-adv-x="900" 
d="M890 0l-440 774l-436 -774h144l92 173l98 -223l102 223l94 -173h346zM426 213h-162l80 160z" />
    <glyph glyph-name="afii10066" unicode="&#x431;" horiz-adv-x="802" 
d="M769 240q0 67 -34.5 107.5t-86.5 63t-113 31.5t-115 13v199l323 -156l-97 224h-526v-722h307q60 0 120.5 10t110 37t80.5 73.5t31 119.5zM515 234q0 -20 -5 -46.5t-16.5 -50.5t-29.5 -40.5t-44 -16.5v295q26 -3 44 -16.5t29.5 -33.5t16.5 -44t5 -47z" />
    <glyph glyph-name="afii10067" unicode="&#x432;" horiz-adv-x="837" 
d="M808 258q0 -49 -18.5 -87.5t-50 -67t-72 -48t-85 -31.5t-89.5 -17.5t-84 -5.5h-51h-76q-40 0 -79.5 -0.5t-63.5 -0.5h-25v722h301q59 0 119.5 -5t109 -23.5t79.5 -54.5t31 -98q0 -30 -17 -63.5t-37 -56.5q55 -28 81.5 -65.5t26.5 -97.5zM527 234q0 22 -6 45t-16.5 44.5
t-25 40t-32.5 31.5q35 31 48.5 58.5t13.5 68.5q0 12 -5.5 32.5t-16.5 40t-29 34t-43 14.5v-557q26 0 47 15t35.5 37t22 48t7.5 48z" />
    <glyph glyph-name="afii10068" unicode="&#x433;" horiz-adv-x="654" 
d="M410 635v-635h-300v722h500l97 -225z" />
    <glyph glyph-name="afii10069" unicode="&#x434;" horiz-adv-x="978" 
d="M967 82h-96l-399 737l-392 -737h-67l-53 -220q27 21 48.5 45t45.5 44.5t55 34t78 13.5h559q36 0 59 -18t37.5 -45t23 -58t14.5 -56zM541 82h-326l160 333z" />
    <glyph glyph-name="afii10070" unicode="&#x435;" horiz-adv-x="751" 
d="M711 497l-102 225h-499v-722h507l93 224l-300 -155v284l226 -25l-67 160l-159 -56v217z" />
    <glyph glyph-name="afii10072" unicode="&#x436;" horiz-adv-x="1282" 
d="M943 0l-153 235v-235h-298v235l-172 -235h-315l333 469q1 0 -17.5 18.5l-46.5 46.5l-60 61l-59.5 61l-64.5 66h191l211 -316v316h298v-316l247 316h173l-252 -253l314 -469h-329z" />
    <glyph glyph-name="afii10073" unicode="&#x437;" horiz-adv-x="722" 
d="M665 230q0 -55 -31.5 -100t-79.5 -76.5t-104.5 -49t-106.5 -17.5q-48 0 -101.5 14t-98.5 42.5t-74.5 70.5t-29.5 98q16 -22 39 -39t49 -29t53.5 -18.5t54.5 -6.5q33 0 59.5 12t44.5 32.5t28 48.5t10 60q0 22 -8.5 42t-22.5 36t-31.5 28.5t-36.5 21.5q8 5 20 9t25 11.5
t26.5 21t24.5 37.5q3 6 6.5 20.5t4 32t-3 36.5t-15 34t-32.5 24t-54 8q-25 -1 -49.5 -13.5t-46 -29t-39 -35t-27.5 -31.5v230l144 11l-12 -74q45 20 87 31t87 11q34 0 70.5 -9.5t66 -29.5t48.5 -50t19 -70q0 -38 -11.5 -64t-27.5 -44t-33 -29.5t-28 -20.5q13 -7 36 -22
t45.5 -38t39 -55t16.5 -72z" />
    <glyph glyph-name="afii10074" unicode="&#x438;" horiz-adv-x="975" 
d="M849 0v739l-433 -376v358h-300v-777l433 392v-336h300z" />
    <glyph glyph-name="afii10076" unicode="&#x43a;" horiz-adv-x="895" 
d="M881 0l-314 469l252 252h-173l-247 -315v315h-298v-721h298v235l153 -235h329z" />
    <glyph glyph-name="afii10077" unicode="&#x43b;" horiz-adv-x="887" 
d="M893 0l-450 793l-434 -793h160l174 382l207 -382h343z" />
    <glyph glyph-name="afii10078" unicode="&#x43c;" horiz-adv-x="1119" 
d="M1108 0l-287 744l-264 -432l-245 476l-298 -788h130l99 325l194 -373l237 361l114 -313h320z" />
    <glyph glyph-name="afii10079" unicode="&#x43d;" horiz-adv-x="971" 
d="M858 0v721h-302v-271h-148v271h-299v-721h299v406l78 -158l70 170v-418h302z" />
    <glyph glyph-name="afii10080" unicode="&#x43e;" horiz-adv-x="914" 
d="M883 362q0 -88 -36 -156.5t-94.5 -116t-134.5 -72t-155 -24.5q-86 0 -164 27t-137.5 74.5t-94.5 112.5t-35 142q0 84 34 152t88 116.5t120.5 75t131.5 28.5q-30 90 -16 88t34.5 -4t44.5 -5t44.5 -5t48.5 -6l-25 -66q67 -6 129.5 -33.5t110.5 -73.5t77 -110t29 -144z
M591 352q0 27 -1 68.5t-8.5 83.5t-23.5 77t-45 50l-50 -115l-38 114q-32 -22 -50 -53t-27 -66.5t-11.5 -72.5t-2.5 -72q0 -20 2.5 -50.5t8.5 -65t15.5 -69t24 -62t34 -45t44.5 -17.5q23 0 41.5 17t32.5 44.5t24.5 61t17 66.5t9.5 61t3 45z" />
    <glyph glyph-name="afii10081" unicode="&#x43f;" horiz-adv-x="948" 
d="M833 0v722h-723v-722h303v629h120v-629h300z" />
    <glyph glyph-name="afii10082" unicode="&#x440;" horiz-adv-x="817" 
d="M772 477q0 51 -20 96t-63.5 78t-111.5 52t-164 19h-305v-722h302v209q72 0 137.5 16t115.5 49t79.5 83.5t29.5 119.5zM519 477q0 -26 -7.5 -57t-22 -57.5t-34.5 -44.5t-45 -18v338q32 0 53 -14.5t33.5 -38t17.5 -52t5 -56.5z" />
    <glyph glyph-name="afii10083" unicode="&#x441;" horiz-adv-x="775" 
d="M766 744h-164l14 -66l-37 16.5t-41.5 15t-50 10.5t-61.5 4q-80 0 -151.5 -26.5t-126 -73.5t-86.5 -113t-32 -144q0 -80 35.5 -148t93 -117.5t129.5 -77.5t145 -28q58 0 111.5 20.5t98 56t76 81.5t44.5 97q-24 -22 -48.5 -41.5t-51 -34.5t-55.5 -23.5t-62 -8.5
q-115 0 -176 55.5t-61 168.5q0 47 10.5 93.5t33 83.5t58.5 60t87 23q38 0 67 -12t52 -32.5t42 -47.5t37 -57l8 30.5l19 73l23 87.5z" />
    <glyph glyph-name="afii10084" unicode="&#x442;" 
d="M530 641v-641h-307v629l-239 -123l77 216h657l74 -222z" />
    <glyph glyph-name="afii10085" unicode="&#x443;" horiz-adv-x="777" 
d="M787 722h-126l-162 -306l-157 306h-352l334 -577l-93 -145h135z" />
    <glyph glyph-name="afii10086" unicode="&#x444;" horiz-adv-x="1145" 
d="M1109 360q0 -63 -18 -109.5t-48.5 -79.5t-70 -54t-82.5 -33t-87 -16.5t-83 -4.5v-63h-300v63q-39 0 -83 4.5t-87 16.5t-82.5 33t-70 54t-48.5 79.5t-18 109.5q0 66 18.5 113t49.5 79t71.5 51t83.5 29t86 13t80 3v74h300v-74q36 0 79.5 -3t86.5 -13t83.5 -29t71.5 -51
t49.5 -79t18.5 -113zM837 360q0 24 -6 57t-19.5 63t-36 50.5t-55.5 20.5v-393q29 0 51 18t36.5 47t22 65t7.5 72zM420 551q-33 0 -55.5 -20.5t-36 -50.5t-19.5 -63t-6 -57q0 -36 7.5 -72t22 -65t36.5 -47t51 -18v393z" />
    <glyph glyph-name="afii10087" unicode="&#x445;" 
d="M757 0l-239 429l220 293h-147l-128 -199q-1 2 -11.5 21l-27 49l-32.5 59l-27 49.5l-11 20.5h-331l226 -410l-239 -312h165l134 203l115 -203h333z" />
    <glyph glyph-name="afii10088" unicode="&#x446;" horiz-adv-x="949" 
d="M895 97l-8 -20.5l-20 -51l-26 -65.5l-26 -65l-28 -70l-87 175h-588v722h301v-625h120v625h299v-625h63v0z" />
    <glyph glyph-name="afii10089" unicode="&#x447;" horiz-adv-x="890" 
d="M797 0v722h-300v-352q-42 0 -67.5 19.5t-40.5 51t-20.5 70.5t-6.5 78.5t1 74.5t2 58h-314l-2 -26t-1 -66t7.5 -89.5t23.5 -96t47.5 -85.5t78.5 -59q10 -4 38 -13t67 -15t87 -6t100 13v-279h300z" />
    <glyph glyph-name="afii10090" unicode="&#x448;" horiz-adv-x="1307" 
d="M1199 0v722h-280v-625h-120v625h-285v-625h-120v625h-285v-722h1090z" />
    <glyph glyph-name="afii10091" unicode="&#x449;" horiz-adv-x="1307" 
d="M1267 97h-68v625h-280v-625h-120v625h-285v-625h-120v625h-285v-722h963l147 -165q0 2 5 27t12 64.5l14 77.5l12 65t5 28z" />
    <glyph glyph-name="afii10092" unicode="&#x44a;" horiz-adv-x="1008" 
d="M952 240q0 67 -34.5 109t-86.5 65.5t-113.5 32t-114.5 8.5v267h-533l-97 -224l329 156v-654h308q60 0 120.5 10t110 37t80.5 73.5t31 119.5zM698 234q0 -20 -5 -46.5t-16.5 -50.5t-29.5 -40.5t-44 -16.5v295q26 -3 44 -16.5t29.5 -33.5t16.5 -44t5 -47z" />
    <glyph glyph-name="afii10093" unicode="&#x44b;" horiz-adv-x="1282" 
d="M1165 0v722h-300v-722h300zM773 240q0 45 -16 78t-42.5 57t-62 39.5t-74 24.5t-78.5 12.5t-76 3.5v267h-301v-722h308q60 0 120.5 10t110 37t80.5 73.5t31 119.5zM519 234q0 -20 -5 -46.5t-16.5 -50.5t-29.5 -40.5t-44 -16.5v295q26 -3 44 -16.5t29.5 -33.5t16.5 -44
t5 -47z" />
    <glyph glyph-name="afii10094" unicode="&#x44c;" horiz-adv-x="812" 
d="M773 240q0 67 -34.5 109t-86.5 65.5t-113.5 32t-114.5 8.5v267h-301v-722h308q60 0 120.5 10t110 37t80.5 73.5t31 119.5zM519 234q0 -20 -5 -46.5t-16.5 -50.5t-29.5 -40.5t-44 -16.5v295q26 -3 44 -16.5t29.5 -33.5t16.5 -44t5 -47z" />
    <glyph glyph-name="afii10095" unicode="&#x44d;" horiz-adv-x="810" 
d="M756 385q0 76 -31.5 141.5t-84.5 113.5t-122.5 75.5t-146.5 27.5q-27 0 -48 -1t-41 -5.5t-43 -12.5t-53 -23l10 66h-157l31 -294q30 60 62.5 96t62.5 56t55 26.5t42 6.5q39 0 71 -17t54 -46t32 -68t4 -83q-22 6 -54 14l-62 15l-51.5 12l-21.5 5l-6.5 -16l-16.5 -39
l-21 -50l-20 -49q69 10 130.5 16t124.5 15q-5 -41 -21 -77.5t-41 -63.5t-59 -43t-75 -16q-69 0 -123 26t-107 84q1 -71 36.5 -124.5t89 -88.5t116.5 -52.5t119 -17.5q78 0 145 33.5t116 88.5t77 125.5t28 143.5z" />
    <glyph glyph-name="afii10096" unicode="&#x44e;" horiz-adv-x="1328" 
d="M1289 362q0 -88 -36 -158.5t-94.5 -119.5t-134.5 -75t-155 -26q-80 0 -157 28t-137 75.5t-97.5 111t-38.5 134.5h-54v-332h-275v40v103t-0.5 140.5t-0.5 152.5v141t1 143h28q27 0 69 -0.5t81 -0.5h68q29 0 29 1v-282h57q15 70 55 123t93 88t111.5 53t110.5 19
q-24 82 -10.5 81l33.5 -2.5t43 -3.5t43 -3.5l47 -3.5l-25 -66q67 -6 129.5 -33.5t110.5 -73.5t77 -110t29 -144zM997 352q0 27 -1 68.5t-8.5 83.5t-23.5 77t-45 50l-50 -115l-38 114q-32 -22 -50 -53t-27 -66.5t-11 -72.5t-2 -72q0 -20 2.5 -50.5t8.5 -65t15.5 -69t23.5 -62
t33.5 -45t44.5 -17.5q23 0 41.5 17t32.5 44.5t24.5 61t17 66.5t9.5 61t3 45z" />
    <glyph glyph-name="afii10097" unicode="&#x44f;" horiz-adv-x="967" 
d="M850 0v722h-294q-38 0 -83.5 0.5t-91.5 -3.5t-89 -15t-76.5 -33t-53.5 -57.5t-20 -89.5q0 -39 13.5 -71.5t35.5 -56.5t51 -39t60 -20l-292 -337h360l160 252v-252h320zM530 397q-25 0 -43 13.5t-29 34t-16.5 43.5t-5.5 43t5.5 43.5t16.5 44t29 34t43 13.5v-269z" />
    <glyph glyph-name="afii10071" unicode="&#x451;" horiz-adv-x="751" 
d="M570 907q0 43 -27 59t-63 16q-35 0 -54 -20t-19 -55t19 -54.5t54 -19.5q17 0 33.5 3t29 11t20 22.5t7.5 37.5zM319 907q0 40 -21.5 58t-59.5 18q-36 0 -59 -18.5t-23 -57.5q0 -38 23 -56.5t59 -18.5q38 0 59.5 18t21.5 57zM711 497l-102 225h-499v-722h507l93 224
l-300 -155v284l226 -25l-67 160l-159 -56v217z" />
    <glyph glyph-name="afii61352" unicode="&#x2116;" horiz-adv-x="1446" 
d="M117 0v725l435 -369v352h301v-763l-435 385v-330h-301zM1027 150v-150h286v150h-286zM1172 192q-57 0 -105.5 14.5t-83 40.5t-54 62t-19.5 79q0 44 18 80t51.5 61.5t80.5 39t105 13.5q103 0 171 -43q42 -26 64.5 -66t22.5 -85q0 -48 -26.5 -91.5t-72.5 -69.5
q-29 -17 -69 -26t-83 -9zM1166 216q29 32 44 77t15 94t-15 94t-44 77q-61 -81 -61 -171t61 -171z" />
    <glyph glyph-name="afii10053" unicode="&#x404;" horiz-adv-x="748" 
d="M375 -2q-70 0 -136 29.5t-117 79.5t-82 115.5t-31 136.5q0 81 30 149.5t81.5 119t121.5 78.5t151 28q28 0 59.5 -4t61.5 -11.5t56 -18.5t44 -25l-5 58l130 21l-50 -274l-34.5 60t-40.5 51t-53 35t-71 13q-42 0 -74 -17t-54.5 -45t-34 -64t-11.5 -73l200 40l56 -151
l-249 29q0 -37 14 -75t39.5 -68.5t61 -50t77.5 -19.5q57 0 113 24t101 57q3 -51 -30 -93t-86 -72t-117 -46.5t-121 -16.5z" />
    <glyph glyph-name="quotedbl" unicode="&#x22;" horiz-adv-x="563" 
d="M161 448h-34l-107 148q9 38 43 60.5t81 22.5t81 -22.5t43 -60.5zM436 448h-34l-107 148q9 38 43 60.5t81 22.5t81 -22.5t43 -60.5z" />
    <glyph glyph-name="dollar" unicode="$" horiz-adv-x="682" 
d="M80 34l-3 1l-33.5 19t-30.5 21l33 53q38 -26 69 -40l111 174l-79 67l-20 17q-83 72 -83 147q0 34 17 67t46 54q42 32 104.5 49t135.5 17q33 0 69 -4t66 -12l47 73h72l-57 -91q26 -9 39.5 -15t32.5 -17l-33 -50q-17 10 -30 15.5t-36 13.5l-6 2l-72 -113l119 -102l25 -21
q45 -38 65 -74t20 -78q0 -52 -29 -97.5t-83 -76.5q-45 -25 -102 -38t-126 -13q-102 0 -186 27l-3 1l-53 -82h-73zM174 66q71 -23 163 -23q41 0 69 4t54 14l-187 160zM448 611q-22 5 -42 7t-41 2t-38.5 -1.5t-39.5 -6.5l104 -90z" />
    <glyph glyph-name="percent" unicode="%" horiz-adv-x="1082" 
d="M720 667h76l-433 -667h-76zM278 282q-57 0 -105 14.5t-82.5 41t-54 62.5t-19.5 79q0 44 18 80t51 61.5t80 39t105 13.5q51 0 95 -11t76 -32q42 -27 65 -66.5t23 -84.5q0 -48 -27 -91.5t-73 -69.5q-29 -17 -69 -26.5t-83 -9.5zM814 -13q-57 0 -105.5 14.5t-83 40.5t-54 62
t-19.5 79q0 44 18 80t51.5 61.5t80.5 39t105 13.5q103 0 171 -43q42 -26 64.5 -66t22.5 -85q0 -48 -26.5 -91.5t-72.5 -69.5q-29 -17 -69 -26t-83 -9zM272 307q29 32 44.5 77t15.5 94t-15.5 94t-44.5 77q-60 -81 -60 -171q0 -92 60 -171zM808 11q29 32 44 77t15 94t-15 94
t-44 77q-61 -81 -61 -171t61 -171z" />
    <glyph glyph-name="ampersand" unicode="&#x26;" horiz-adv-x="866" 
d="M594 55l-4 -2q-60 -34 -129 -52t-138 -18q-64 0 -111.5 15t-89.5 48t-65.5 77t-23.5 90q0 76 56 131.5t157 80.5l-12 13l-18 19q-23 26 -33.5 47t-10.5 43q0 66 71 101t202 35q123 0 197 -32q38 -17 61 -47.5t23 -64.5q0 -41 -28 -69.5t-91 -49.5l173 -184l31.5 -34.5
t14.5 -19.5q21 -30 21 -66q0 -92 -135 -186zM288 380q-26 -5 -44.5 -11.5t-38.5 -19.5l269 -283q20 5 37.5 12.5t41.5 20.5zM568 462q59 14 59 62q0 21 -11.5 40.5t-30.5 35t-44 24.5t-51 9q-21 0 -33 -7t-12 -20q0 -11 18 -30l11 -12z" />
    <glyph glyph-name="quotesingle" unicode="'" horiz-adv-x="288" 
d="M161 448h-34l-107 148q9 38 43 60.5t81 22.5t81 -22.5t43 -60.5z" />
    <glyph glyph-name="parenleft" unicode="(" horiz-adv-x="611" 
d="M571 669q-25 -2 -53 -9q-17 -36 -31 -79t-24 -88.5t-15.5 -91.5t-5.5 -88q0 -40 5.5 -83t15.5 -85.5t24 -83.5t32 -76q14 -3 52 -6v-50q-101 2 -186 33t-147 84.5t-97 125.5t-35 156q0 56 16.5 108.5t47.5 97t75 80t98 58.5q109 46 228 49v-52z" />
    <glyph glyph-name="parenright" unicode=")" horiz-adv-x="611" 
d="M40 -21q21 2 33 3t20 3q17 34 31.5 74.5t24.5 83.5t15.5 87t5.5 84q0 42 -5.5 88t-15.5 91t-24.5 88t-31.5 79q-25 7 -53 9v52q58 -2 116 -14t112 -35t98 -58t75 -80t47.5 -97.5t16.5 -108.5q0 -84 -35.5 -156.5t-97.5 -126t-147.5 -84.5t-184.5 -32v50z" />
    <glyph glyph-name="asterisk" unicode="*" horiz-adv-x="361" 
d="M298 541q-7 -48 -47 -76l-44 46l19 -62q-12 -5 -21.5 -7t-22.5 -2q-14 0 -23.5 2t-22.5 7l20 66l-49 -49q-20 11 -31.5 31.5t-11.5 46.5l63 14l-64 18q3 23 10.5 37t27.5 35l55 -46l-20 66q23 11 45 11q20 0 45 -11l-18 -67l48 50q20 -18 30 -36.5t12 -41.5l-63 -15z" />
    <glyph glyph-name="plus" unicode="+" horiz-adv-x="392" 
d="M339 377v-110h-286v110h286zM256 178h-113v286h113v-286z" />
    <glyph glyph-name="slash" unicode="/" horiz-adv-x="483" 
d="M410 755h73l-410 -844h-73z" />
    <glyph glyph-name="zero" unicode="0" horiz-adv-x="803" 
d="M33 334q0 75 28.5 138.5t78 110t117.5 73t148 26.5q78 0 144.5 -26.5t115 -74t76.5 -112t28 -139.5q0 -74 -28 -137t-77 -109.5t-116 -73t-145 -26.5q-80 0 -147.5 26.5t-117 73t-77.5 111t-28 139.5zM185 126q21 -23 43 -37t53 -23l314 495q-31 23 -54 34.5t-48 15.5z
" />
    <glyph glyph-name="one" unicode="1" horiz-adv-x="487" 
d="M120 464l-107 -57v76l407 217v-700h-300v464z" />
    <glyph glyph-name="two" unicode="2" horiz-adv-x="700" 
d="M426 617q-22 5 -39.5 6.5t-43.5 1.5q-59 0 -109 -11.5t-84 -31.5q-35 -21 -55.5 -52t-20.5 -63q0 -41 28.5 -69t76.5 -35l-32 -50q-20 5 -32 9t-24 11q-35 20 -56.5 56t-21.5 77q0 47 24.5 86.5t69 68t106.5 44t137 15.5q64 0 116 -12t96 -35q27 -15 49.5 -35.5
t38.5 -44.5t24.5 -50.5t8.5 -53.5q0 -37 -15 -71.5t-42 -64t-66 -53t-87 -38.5q-21 -6 -46 -11.5t-52.5 -9.5t-55.5 -6t-53 -2h-26h-17h-6l-21 -33h472l-104 -160h-533z" />
    <glyph glyph-name="three" unicode="3" horiz-adv-x="730" 
d="M71 201q34 -62 78 -95.5t111 -48.5l178 274q-47 15 -123 15q-30 0 -51 -2.5t-44 -8.5l182 285q-17 2 -27.5 2.5t-22.5 0.5q-41 0 -75.5 -7.5t-59.5 -20t-39 -30.5t-14 -39q0 -19 10 -31.5t35 -26.5l-30 -47q-79 34 -79 107q0 35 19.5 63t55.5 48t87.5 31t115.5 11
t116.5 -12t90.5 -33t59 -50.5t21 -65.5q0 -59 -45.5 -97.5t-128.5 -50.5q44 -8 69 -15.5t49 -20.5q49 -26 75 -63t26 -79q0 -56 -35.5 -101.5t-100.5 -71.5q-45 -18 -94 -26.5t-112 -8.5q-88 0 -152 18.5t-115 58.5q-30 24 -50.5 50t-37.5 61z" />
    <glyph glyph-name="four" unicode="4" horiz-adv-x="730" 
d="M310 133h-304l341 534h263v-474h113v-60h-113v-133h-300v133zM310 193v292l-186 -292h186z" />
    <glyph glyph-name="five" unicode="5" horiz-adv-x="723" 
d="M690 667l-96 -152h-367l-49 -79q50 15 99.5 22.5t97.5 7.5q72 0 132 -17.5t103.5 -49t68 -74.5t24.5 -95q0 -51 -26 -97.5t-74 -80.5q-94 -67 -244 -67q-260 0 -346 187l53 27q56 -120 192 -142l211 334q-22 10 -46.5 14.5t-58.5 4.5q-75 0 -148.5 -21.5t-132.5 -59.5
l-29 29l196 309h440z" />
    <glyph glyph-name="six" unicode="6" horiz-adv-x="748" 
d="M619 573l-8 4q-18 9 -31.5 15t-26 10t-24.5 6.5t-27 4.5l-69 -110q64 -6 116 -27t89 -53.5t57 -75.5t20 -93q0 -56 -26 -105t-71.5 -85t-107 -56.5t-131.5 -20.5q-78 0 -143 25.5t-113 73.5q-43 44 -66 103.5t-23 122.5q0 77 31 144t85 117t126.5 78.5t156.5 28.5
q60 0 114 -13.5t106 -40.5zM184 108q15 -12 27 -20.5t23 -14.5t22.5 -10.5t27.5 -8.5l234 369q-26 12 -54 18.5t-64 8.5z" />
    <glyph glyph-name="seven" unicode="7" horiz-adv-x="605" 
d="M97 667h588l-445 -697q-148 84 -148 222q0 71 37.5 129.5t108.5 97.5q51 29 118.5 45t132.5 16h13l22 34h-524z" />
    <glyph glyph-name="eight" unicode="8" horiz-adv-x="744" 
d="M142 388q-23 21 -37.5 37.5t-23 30t-12 27t-3.5 28.5q0 39 22.5 70.5t64 54t100 35t130.5 12.5q118 0 198 -36q47 -21 75.5 -57t28.5 -75q0 -81 -101 -137l63 -60l25 -23q28 -26 40.5 -51t12.5 -55q0 -94 -100 -149q-47 -26 -119 -41t-147 -15q-74 0 -137.5 13.5
t-106.5 39.5q-45 27 -70 63t-25 74q0 39 21 74.5t59 58.5q16 10 35.5 18t51.5 19zM546 413q27 20 38.5 38.5t11.5 44.5q0 30 -19 57t-53 44q-50 28 -143 28q-16 0 -27.5 -1t-29.5 -3zM233 300q-50 -14 -78.5 -44.5t-28.5 -70.5q0 -32 17 -57.5t47.5 -44t73.5 -28.5t96 -10
q67 0 124 15z" />
    <glyph glyph-name="nine" unicode="9" horiz-adv-x="754" 
d="M124 87q32 -15 58 -23t55 -11l69 110q-35 3 -62.5 9.5t-55.5 17.5q-36 14 -64.5 36.5t-48.5 51t-31 61.5t-11 69q0 58 25.5 108t70.5 86.5t106.5 57t133.5 20.5q76 0 140 -24.5t111 -68t73.5 -103.5t26.5 -130q0 -78 -33.5 -149.5t-95.5 -123.5q-54 -46 -125.5 -70.5
t-152.5 -24.5q-122 0 -220 52zM560 562q-56 41 -102 50l-234 -368q23 -11 52.5 -17.5t58.5 -6.5h8z" />
    <glyph glyph-name="colon" unicode=":" horiz-adv-x="361" 
d="M180 185q29 0 55 -7.5t45 -21t30 -31t11 -38.5q0 -20 -11 -38t-30 -31.5t-44.5 -21t-54.5 -7.5q-61 0 -101 27.5t-40 70.5q0 20 11 38t30 31.5t44.5 21t54.5 7.5zM180 402q30 0 55.5 -7.5t44.5 -20.5t30 -31t11 -38q0 -21 -11 -38.5t-30 -31t-44.5 -21t-54.5 -7.5
q-30 0 -56 7.5t-45 20t-29.5 30.5t-10.5 39t11 38.5t30 31t44.5 21t54.5 7.5z" />
    <glyph glyph-name="semicolon" unicode=";" horiz-adv-x="361" 
d="M131 4q-43 0 -72 23.5t-29 57.5q0 22 11 40.5t30 32t45 21t56 7.5q33 0 60.5 -9t48 -25t32 -37t11.5 -46t-12.5 -48t-34.5 -41.5t-52 -31.5t-66 -18l-35 -58h-75zM177 402q29 0 54.5 -7.5t44.5 -20.5t30 -31t11 -38q0 -21 -11 -38.5t-29.5 -31t-44 -21t-54.5 -7.5
q-31 0 -57 7.5t-44.5 20t-29 30.5t-10.5 39t11 38.5t29.5 31t44 21t55.5 7.5z" />
    <glyph glyph-name="question" unicode="?" horiz-adv-x="460" 
d="M29 672q52 37 96 54t92 17q41 0 77.5 -13.5t63.5 -36t42.5 -53t15.5 -66.5q0 -26 -9.5 -50t-33.5 -57q-9 -13 -24 -31l-29 -34l-23 -25t-12.5 -15t-7.5 -11.5l-7 -12.5q23 1 40 6t41 16l22 -44q-74 -35 -147 -35q-35 0 -66 10.5t-53.5 29t-36 44t-13.5 54.5q0 30 17.5 65
t54.5 82l40 50l38 49q2 2 5 6.5t7 8.5q-6 2 -9.5 2h-8.5q-32 0 -62 -12.5t-77 -44.5zM226 244q42 0 72.5 -11.5t50 -30t29 -42t9.5 -47.5t-9.5 -48t-29 -42.5t-50 -30.5t-72.5 -12q-43 0 -73 12t-49.5 30.5t-28.5 42.5t-9 48t11.5 47.5t32.5 42t50.5 30t65.5 11.5z" />
    <glyph glyph-name="afii10062" unicode="&#x40e;" horiz-adv-x="777" 
d="M366 0h-135l93 145l-334 577h352l157 -306l162 306h126zM643 873l-131 -256l-120 254z" />
    <glyph glyph-name="afii10110" unicode="&#x45e;" horiz-adv-x="777" 
d="M366 0h-135l93 145l-334 577h352l157 -306l162 306h126zM643 873l-131 -256l-120 254z" />
    <glyph glyph-name="afii10101" unicode="&#x454;" horiz-adv-x="748" 
d="M375 -2q-70 0 -136 29.5t-117 79.5t-82 115.5t-31 136.5q0 81 30 149.5t81.5 119t121.5 78.5t151 28q28 0 59.5 -4t61.5 -11.5t56 -18.5t44 -25l-5 58l130 21l-50 -274l-34.5 60t-40.5 51t-53 35t-71 13q-42 0 -74 -17t-54.5 -45t-34 -64t-11.5 -73l200 40l56 -151
l-249 29q0 -37 14 -75t39.5 -68.5t61 -50t77.5 -19.5q57 0 113 24t101 57q3 -51 -30 -93t-86 -72t-117 -46.5t-121 -16.5z" />
    <glyph glyph-name="uni0406" unicode="&#x406;" horiz-adv-x="509" 
d="M104 0v722h300v-722h-300z" />
    <glyph glyph-name="afii10103" unicode="&#x456;" horiz-adv-x="509" 
d="M104 0v722h300v-722h-300z" />
    <glyph glyph-name="afii10056" unicode="&#x407;" horiz-adv-x="509" 
d="M104 0v722h300v-722h-300zM462 907q0 -23 -7.5 -37.5t-20 -22.5t-29 -11t-33.5 -3q-35 0 -54 19.5t-19 54.5t19 55t54 20q36 0 63 -16t27 -59zM211 907q0 -39 -21.5 -57t-59.5 -18q-36 0 -59 18.5t-23 56.5q0 39 23 57.5t59 18.5q38 0 59.5 -18t21.5 -58z" />
    <glyph glyph-name="afii10075" unicode="&#x439;" horiz-adv-x="975" 
d="M549 0v336l-433 -392v777h300v-358l433 376v-739h-300zM753 824l-219 -186l-2 290z" />
    <glyph glyph-name="afii10104" unicode="&#x457;" horiz-adv-x="509" 
d="M104 0v722h300v-722h-300zM462 907q0 -23 -7.5 -37.5t-20 -22.5t-29 -11t-33.5 -3q-35 0 -54 19.5t-19 54.5t19 55t54 20q36 0 63 -16t27 -59zM211 907q0 -39 -21.5 -57t-59.5 -18q-36 0 -59 18.5t-23 56.5q0 39 23 57.5t59 18.5q38 0 59.5 -18t21.5 -58z" />
    <glyph glyph-name="afii10050" unicode="&#x490;" horiz-adv-x="654" 
d="M410 635v-635h-300v722h303l297 138l-97 -225h-203z" />
    <glyph glyph-name="afii10098" unicode="&#x491;" horiz-adv-x="654" 
d="M410 635v-635h-300v722h303l297 138l-97 -225h-203z" />
  </font>
</defs>
</svg>
