<?xml version="1.0" standalone="no"?>
<!DOCTYPE svg PUBLIC "-//W3C//DTD SVG 1.1//EN" "http://www.w3.org/Graphics/SVG/1.1/DTD/svg11.dtd" >
<svg>
<metadata>
Created by FontForge 20090914 at Wed Sep  6 12:40:53 2017
 By www-data
&#194;&#169;1991,1993 Tilde Ltd. AG Fonts collection.
</metadata>
<defs>
<font id="AGOpus-Roman" horiz-adv-x="556" >
  <font-face 
    font-family="AGOpus"
    font-weight="400"
    font-stretch="normal"
    units-per-em="1000"
    panose-1="0 0 0 0 0 0 0 0 0 0"
    ascent="800"
    descent="-200"
    x-height="470"
    cap-height="681"
    bbox="-32.999 -264.003 1099 907.002"
    underline-thickness="38"
    underline-position="-122"
    unicode-range="U+0020-U+2122"
  />
<missing-glyph horiz-adv-x="800" 
d="M50 0v800h700v-800h-700zM700 50v700h-600v-700h600z" />
    <glyph glyph-name=".notdef" horiz-adv-x="800" 
d="M50 0v800h700v-800h-700zM700 50v700h-600v-700h600z" />
    <glyph glyph-name="space" unicode=" " horiz-adv-x="278" 
 />
    <glyph glyph-name="exclam" unicode="!" horiz-adv-x="333" 
d="M177 173l-19.999 -0.000976562l-38 423c-0.666992 11.333 -1 20.333 -1 27c0 22 2.33301 38 7 48c7.33301 16.667 21 25 41 25c19.333 0 32.666 -8 39.999 -24c5.33301 -11.333 8 -27.666 8 -48.999c-0.666992 -13.333 -1 -22.333 -1 -27zM167.001 108.999
c15.333 0 29 -5.99902 41 -17.999s18 -26 18 -42s-5.66699 -30 -17 -42s-25.333 -18 -42 -18s-31 5.66699 -43 17s-18 25.666 -18 42.999c0 16 6 30 18 42s26.333 18 43 18z" />
    <glyph glyph-name="quotedbl" unicode="&#x22;" horiz-adv-x="333" 
d="M118 447c0.666992 -4 1 -10.001 1 -18.001c0 -13.333 -2.66699 -23.666 -8 -30.999s-14 -11 -26 -11c-23.333 0 -35 14 -35 42c0 7.33301 0.333008 13.333 1 18v169c0 30 2 50.833 6 62.5s13.333 17.5 28 17.5c14 0 23 -5.83301 27 -17.5s6 -32.5 6 -62.5v-169z
M281 446.999c0.666992 -4 1 -10.001 1 -18.001c0 -13.333 -2.66699 -23.666 -8 -30.999s-14 -11 -26 -11c-23.333 0 -35 14 -35 42c0 7.33301 0.333008 13.333 1 18v169c0 30 2 50.833 6 62.5s13.333 17.5 28 17.5c14 0 23 -5.83301 27 -17.5s6 -32.5 6 -62.5v-169z" />
    <glyph glyph-name="numbersign" unicode="#" 
d="M499 216h-109l-31 -216h-58l31 216h-134l-33 -216h-58l33 216h-107v56h116l21 133h-110v56h118l31 203h58l-31 -203h133l30 203h58l-30 -203h97v-56h-105l-20 -133h100v-56zM228 405l-21 -133h134l20 133h-133z" />
    <glyph glyph-name="dollar" unicode="$" 
d="M302 35c30 7.33301 54.166 22.667 72.499 46s27.5 52.333 27.5 87c0 41.333 -17 73.333 -51 96c-23.333 13.333 -39.666 22.333 -48.999 27v-256zM261.999 631.001c-27.333 -6 -49.5 -19.001 -66.5 -39.001s-25.5 -44.333 -25.5 -73
c0 -27.333 7.33301 -50.666 22 -69.999c12.667 -16.667 36 -32.667 70 -48v230zM301.999 383c78 -34 124.002 -58.002 138.002 -72.002c26.667 -27.333 40 -62.333 40 -105c0 -57.333 -16.5 -104.5 -49.5 -141.5s-75.833 -60.167 -128.5 -69.5v-111l-20 3l-20 -3v105
c-54 0 -93.833 4.33301 -119.5 13s-48.167 21.667 -67.5 39l12 44c4 15.333 6 29.333 6 42h11c22 -33.333 43 -57 63 -71c26 -18 57.667 -27 95 -27v280c-50.667 18.667 -86.667 36.334 -108 53.001c-41.333 32 -62 74 -62 126c0 52.667 16.333 95 49 127
c30 29.333 70.333 48 121 56v77l20 -3l20 3v-74c33.333 0 62.333 -3.66699 87 -11s46 -19 64 -35c-10.667 -23.333 -19.334 -49.666 -26.001 -78.999h-11c-12.667 26.667 -27.334 47 -44.001 61c-20 16 -43.333 24 -70 24v-251z" />
    <glyph glyph-name="percent" unicode="%" horiz-adv-x="889" 
d="M270 -33c-10.667 1.33301 -18.668 2 -24.001 2s-12.666 -0.666992 -21.999 -2l372 729c4.66699 -1.33301 12 -2 22 -2c10.667 0 18.667 0.666992 24 2zM203.999 340c-48 0 -86.5 15.5 -115.5 46.5s-43.5 70.5 -43.5 118.5s16 87.667 48 119s71.667 47 119 47
c46 0 83 -15.333 111 -46s42 -69 42 -115c0 -45.333 -15.667 -85 -47 -119s-69.333 -51 -114 -51zM752.999 9c-9.33301 -5.33301 -21.5 -10 -36.5 -14s-28.5 -6 -40.5 -6c-47.333 0 -85.666 15.333 -114.999 46s-44 69.667 -44 117c0 48 16 88 48 120s71.667 48 119 48
c46 0 83 -15.5 111 -46.5s42 -69.833 42 -116.5c0 -30.667 -7.33301 -59 -22 -85s-35.334 -47 -62.001 -63zM674.999 14c32.667 0 57 17.667 73 53c11.333 25.333 17 57 17 95c0 36.667 -4.66699 65.667 -14 87c-13.333 30.667 -36 46 -68 46c-36 0 -61.667 -17.667 -77 -53
c-11.333 -26 -17 -59.667 -17 -101c0 -34 5.66699 -62 17 -84c14.667 -28.667 37.667 -43 69 -43zM202.999 365c32 0 55.999 17.667 71.999 53c12 27.333 18 59 18 95c0 48 -8 83 -24 105c-13.333 18.667 -32.666 28 -57.999 28c-36 0 -61.667 -17.667 -77 -53
c-11.333 -26 -17 -59.667 -17 -101c0 -34 5.66699 -62 17 -84c14.667 -28.667 37.667 -43 69 -43z" />
    <glyph glyph-name="ampersand" unicode="&#x26;" horiz-adv-x="722" 
d="M421 560c0 24 -7.33301 43.999 -22 59.999s-34 24 -58 24c-27.333 0 -48.333 -9 -63 -27s-22 -40.333 -22 -67c0 -17.333 4.5 -37.333 13.5 -60s25.5 -50.667 49.5 -84c31.333 22.667 55 44.334 71 65.001c20.667 27.333 31 57 31 89zM659 -2.00098
c-17.333 1.33301 -30.001 2.33008 -38.001 2.99707s-15.667 1 -23 1l-57 -3l-30 43c-8 11.333 -19 25 -33 41c-58.667 -64.667 -130.667 -97 -216 -97c-55.333 0 -100.833 15.167 -136.5 45.5s-53.5 70.833 -53.5 121.5c0 44.667 17.333 86 52 124
c28.667 31.333 69.667 60.333 123 87l6 3c-22.667 34 -37.667 58.333 -45 73c-14.667 29.333 -22 57 -22 83c0 44.667 14.167 80.5 42.5 107.5s65.5 40.5 111.5 40.5c38.667 0 70.334 -9.16699 95.001 -27.5s37 -44.166 37 -77.499c0 -37.333 -14.667 -72.666 -44 -105.999
c-19.333 -22 -50 -47 -92 -75l123 -156l53 -60c18.667 26.667 39.167 58.834 61.5 96.501l57.5 100.5c4 -6.66699 9.16699 -13.5 15.5 -20.5s13.833 -13.833 22.5 -20.5c-45.333 -69.333 -90.333 -130.333 -135 -183zM261.999 337.996c-34.667 -22 -60.332 -44 -76.999 -66
c-21.333 -28 -32 -60 -32 -96c0 -42 14.167 -76.833 42.5 -104.5s63.166 -41.5 104.499 -41.5c26.667 0 54 6.66699 82 20s53.333 31.333 76 54l-96 119.5l-92 119.5z" />
    <glyph glyph-name="quotesingle" unicode="'" horiz-adv-x="278" 
d="M172 447c0.666992 -4 1 -10.001 1 -18.001c0 -13.333 -2.66699 -23.666 -8 -30.999s-14 -11 -26 -11c-23.333 0 -35 14 -35 42c0 7.33301 0.333008 13.333 1 18v169c0 30 2 50.833 6 62.5s13.333 17.5 28 17.5c14 0 23 -5.83301 27 -17.5s6 -32.5 6 -62.5v-169z" />
    <glyph glyph-name="parenleft" unicode="(" horiz-adv-x="278" 
d="M241 729c-42 -58 -72.332 -123.667 -90.999 -197c-16 -63.333 -24 -136.333 -24 -219c0 -72.667 8.66699 -142.667 26 -210c8 -32 19.333 -62.667 34 -92c10 -20 28.333 -51 55 -93l-20 -20c-56.667 65.333 -97.334 131.333 -122.001 198s-37 144 -37 232
c0 164 53 304 159 420z" />
    <glyph glyph-name="parenright" unicode=")" horiz-adv-x="278" 
d="M37 -82c23.333 36 41.333 66.998 54 92.998c16 31.333 27.667 62 35 92c17.333 67.333 26 137.333 26 210c0 84.667 -7.66699 157.334 -23 218.001c-18 72.667 -48.667 138.667 -92 198l20 19c52 -57.333 91.5 -121.833 118.5 -193.5s40.5 -147.167 40.5 -226.5
c0 -89.333 -12 -166.666 -36 -231.999s-65 -131.333 -123 -198z" />
    <glyph glyph-name="asterisk" unicode="*" horiz-adv-x="444" 
d="M208 534l-14 154c5.33301 -0.666992 10.166 -1 14.499 -1h14.5c12.667 0 22 0.666992 28 2l-15 -157l125 93c8 -18 18 -35 30 -51l-141 -64l140 -62c-5.33301 -8 -10 -15.5 -14 -22.5s-8.66699 -16.167 -14 -27.5l-127 89l17 -155c-8 0.666992 -15 1.16699 -21 1.5
s-11 0.5 -15 0.5c-5.33301 0 -12.666 -0.666992 -21.999 -2l14 152l-122 -89l-23 39l-6 10l140 65l-144 64c13.333 15.333 23 32.333 29 51z" />
    <glyph glyph-name="plus" unicode="+" horiz-adv-x="606" 
d="M271 505h64v-219h220v-64h-220v-222h-64v222h-220v64h220v219z" />
    <glyph glyph-name="comma" unicode="," horiz-adv-x="278" 
d="M116 61c6 18 10.666 30 13.999 36c8.66699 14 19.334 21 32.001 21c10.667 0 20.167 -3.5 28.5 -10.5s12.5 -15.833 12.5 -26.5c0 -8.66699 -2.33301 -18 -7 -28c-1.33301 -2.66699 -6.33301 -11 -15 -25l-118 -196l-17 7z" />
    <glyph glyph-name="hyphen" unicode="-" horiz-adv-x="333" 
d="M41 252h250v-62h-250v62z" />
    <glyph glyph-name="period" unicode="." horiz-adv-x="278" 
d="M140 109c15.333 0 29 -5.99902 41 -17.999s18 -26 18 -42s-5.66699 -30 -17 -42s-25.333 -18 -42 -18s-31 5.66699 -43 17s-18 25.666 -18 42.999c0 16 6 30 18 42s26.333 18 43 18z" />
    <glyph glyph-name="slash" unicode="/" horiz-adv-x="278" 
d="M18 -102c-9.33301 1.33301 -16.999 2 -22.999 2c-4 0 -13.333 -0.666992 -28 -2l285 850c6 -1.33301 14.667 -2 26 -2s19.666 0.666992 24.999 2z" />
    <glyph glyph-name="zero" unicode="0" 
d="M430 336c0 87.333 -11.333 157.667 -34 211c-26 60.667 -63.333 91 -112 91c-60.667 0 -103 -26.667 -127 -80c-20.667 -46 -31 -120.667 -31 -224c0 -86 7 -151.667 21 -197c24 -78 69 -117 135 -117c51.333 0 89.333 28.333 114 85c22.667 52.667 34 129.667 34 231z
M286 669.001c76.667 0 133.5 -27.8311 170.5 -83.498s55.5 -138.834 55.5 -249.501c0 -107.333 -21.167 -192 -63.5 -254s-98.5 -93 -168.5 -93c-85.333 0 -147.333 31 -186 93c-33.333 53.333 -50 130.333 -50 231c0 99.333 15.333 178.666 46 237.999
c40.667 78.667 106 118 196 118z" />
    <glyph glyph-name="one" unicode="1" 
d="M242 601l-7.00098 2.99902l-111 -60c-6.66699 16 -16.667 28.333 -30 37c40 16 75.667 31.667 107 47c38.667 18.667 73.334 37.334 104.001 56.001l17 -5v-682l-40 3l-40 -3v604z" />
    <glyph glyph-name="two" unicode="2" 
d="M88 574c40 63.333 97.6641 94.999 172.997 94.999c60.667 0 108.334 -13.667 143.001 -41c38 -30 57 -74.667 57 -134c0 -38.667 -10 -76.667 -30 -114c-16 -29.333 -40.333 -61.333 -73 -96l-119 -127l-61 -64l-17 -19l5 -11c22.667 0 59.334 1.33301 110.001 4
c114 6 179.667 9 197 9l-3 -38l3 -38h-429v15l82 82l60 62c43.333 44.667 73.333 77 90 97c30.667 36.667 53 71.334 67 104.001c17.333 40.667 26 84.667 26 132c0 44 -8.66699 78 -26 102c-19.333 26.667 -49.666 40 -90.999 40c-31.333 0 -58 -9.83301 -80 -29.5
s-36 -45.167 -42 -76.5l-7 -3z" />
    <glyph glyph-name="three" unicode="3" 
d="M97 609c11.333 13.333 27.6699 25.332 49.0029 35.999c31.333 16 64 24 98 24c50 0 92.667 -11 128 -33c41.333 -26 62 -62.667 62 -110c0 -38.667 -11.833 -73.5 -35.5 -104.5s-56.834 -54.167 -99.501 -69.5c47.333 0 86.833 -13.667 118.5 -41s47.5 -65 47.5 -113
c0 -64 -25 -115.333 -75 -154c-47.333 -36.667 -107 -55 -179 -55c-28 0 -54.167 2.5 -78.5 7.5s-48.5 13.167 -72.5 24.5c3.33301 8.66699 6 19.334 8 32.001s3.33301 22.334 4 29.001l6 4c18 -20 38.667 -36 62 -48s47.666 -18 72.999 -18c50 0 89.333 16.667 118 50
s43 75.333 43 126c0 43.333 -12 76.666 -36 99.999s-58 35 -102 35c-5.33301 0 -14.5 -0.666992 -27.5 -2s-19.833 -2 -20.5 -2l3 21l-3 20l38 -2c39.333 0 69.666 15 90.999 45c19.333 26.667 29 60.334 29 101.001c0 37.333 -9.33301 67.666 -28 90.999s-44.667 35 -78 35
c-24 0 -46.5 -7.5 -67.5 -22.5s-36.167 -34.167 -45.5 -57.5l-5 -3z" />
    <glyph glyph-name="four" unicode="4" 
d="M21 186v12.998l108 156l109.5 156l109.5 153l32 -3l31 3v-421l92 4c-0.666992 -5.33301 -1.16699 -11.166 -1.5 -17.499s-0.5 -11.166 -0.5 -14.499v-16c1.33301 -8 2 -13.667 2 -17l-92 4v-189l-40 3l-40 -3v189h-310zM333 563.998l-5 4c-38 -50 -85 -116 -141 -198
l-83 -122l4 -5h225v321z" />
    <glyph glyph-name="five" unicode="5" 
d="M124 666l6.00098 3h321l4 -8c-2 -9.33301 -3.66699 -18.5 -5 -27.5s-2 -18.167 -2 -27.5c0 -8 0.333008 -14 1 -18c-22 4.66699 -44 8.5 -66 11.5s-45 4.5 -69 4.5h-148v-223c16 8 33.333 14 52 18s37 6 55 6c55.333 0 101.666 -17.667 138.999 -53s56 -81 56 -137
c0 -60.667 -22 -112.667 -66 -156c-47.333 -46.667 -108.333 -70 -183 -70c-40.667 0 -76 4.66699 -106 14c-18.667 6 -36.667 14.333 -54 25l15 66l7 1c14.667 -24 35 -42.167 61 -54.5s54 -18.5 84 -18.5c46.667 0 83.667 18.667 111 56c25.333 34.667 38 77.667 38 129
c0 48.667 -10.667 86 -32 112c-24 29.333 -61 44 -111 44c-22.667 0 -43.667 -4 -63 -12c-13.333 -5.33301 -25.333 -12.333 -36 -21l-9 7v329z" />
    <glyph glyph-name="six" unicode="6" 
d="M409 631c-14 4.66699 -29.667 7.00195 -47 7.00195c-72.667 0 -128.667 -39 -168 -117c-30.667 -61.333 -46 -132.333 -46 -213c38 59.333 92 89 162 89c61.333 0 108.833 -16.833 142.5 -50.5s50.5 -78.834 50.5 -135.501c0 -64.667 -20.167 -117.834 -60.5 -159.501
s-92.833 -62.5 -157.5 -62.5c-78.667 0 -137.667 28.667 -177 86c-33.333 48.667 -50 114.667 -50 198c0 120 27.333 216 82 288s125.667 108 213 108h21.5c7 0 14.833 -1 23.5 -3zM148 183.002c0 -43.333 12.501 -81.333 37.501 -114s58.5 -49 100.5 -49s74.333 19 97 57
c20.667 34 31 76.333 31 127c0 47.333 -11.333 85 -34 113s-53 42 -91 42c-44.667 0 -79.334 -15 -104.001 -45s-37 -73.667 -37 -131z" />
    <glyph glyph-name="seven" unicode="7" 
d="M507 669l1 -28.999l-109 -185l-131 -229c-44.667 -80.667 -85 -157 -121 -229l-34 3l-34 -3l1 11l123 202l121 202c44.667 75.333 78.667 134.666 102 177.999l-4 4c-38.667 0 -96 -2.66699 -172 -8s-132.667 -8 -170 -8l3 46l-3 45h427z" />
    <glyph glyph-name="eight" unicode="8" 
d="M358 372c41.333 -7.33301 75.501 -25.8301 102.501 -55.4971s40.5 -66.167 40.5 -109.5c0 -66 -20.833 -118.833 -62.5 -158.5s-95.834 -59.5 -162.501 -59.5c-66 0 -118.333 16 -157 48c-42 34.667 -63 84.667 -63 150c0 42.667 13.667 81 41 115s62 56 104 66v7
c-32 8 -58.333 24.333 -79 49s-31 53.667 -31 87c0 49.333 20 88.666 60 117.999c36 26.667 79.667 40 131 40c30 0 54.5 -2.33301 73.5 -7s38.833 -14.667 59.5 -30c36.667 -28 55 -65 55 -111c0 -32.667 -10.667 -62.334 -32 -89.001s-48 -44.334 -80 -53.001v-7z
M198.001 593.003c-10 -14 -16.498 -27.834 -19.498 -41.501s-4.5 -30.834 -4.5 -51.501c0 -15.333 3 -30.5 9 -45.5s14 -28.167 24 -39.5s21 -19.166 33 -23.499s26 -6.5 42 -6.5c17.333 0 33.166 4 47.499 12s26.5 19.333 36.5 34c6 8 11 18.833 15 32.5s6 31.834 6 54.501
c0 34 -9.33301 62.5 -28 85.5s-44.667 34.5 -78 34.5c-16.667 0 -32.334 -4 -47.001 -12s-26.667 -19 -36 -33zM144.003 188.002c0 -48 10.667 -87 32 -117c24 -34 59.333 -51 106 -51c44 0 77.667 18.667 101 56c20 32 30 71.333 30 118c0 46 -10 83 -30 111
c-23.333 32 -57.333 48 -102 48c-42.667 0 -76.167 -16.5 -100.5 -49.5s-36.5 -71.5 -36.5 -115.5z" />
    <glyph glyph-name="nine" unicode="9" 
d="M107 57c28 -24.667 60.334 -36.999 97.001 -36.999c30.667 0 60.5 12.833 89.5 38.5s52.167 61.167 69.5 106.5c10.667 27.333 18.667 57.833 24 91.5s8 66.167 8 97.5c-16 -28.667 -38.5 -51 -67.5 -67s-60.167 -24 -93.5 -24c-54.667 0 -99.334 17 -134.001 51
c-36.667 36 -55 83.333 -55 142c0 65.333 20.5 117.166 61.5 155.499s95.167 57.5 162.5 57.5c74 0 130 -29.667 168 -89c32.667 -50.667 49 -116 49 -196c0 -114 -28.167 -208.333 -84.5 -283s-124.833 -112 -205.5 -112c-14 0 -29.5 1.16699 -46.5 3.5
s-27.833 5.5 -32.5 9.5c-2 16 -9 33 -21 51zM266.001 638.001c-44.667 0 -79 -18.999 -103 -56.999c-20 -32 -30 -71.667 -30 -119c0 -44 9.33301 -80 28 -108c22 -32.667 54.333 -49 97 -49c40.667 0 74 17 100 51c24 31.333 36 67.666 36 108.999
c0 52 -11 93.833 -33 125.5s-53.667 47.5 -95 47.5z" />
    <glyph glyph-name="colon" unicode=":" horiz-adv-x="278" 
d="M140 109c15.333 0 29 -5.99902 41 -17.999s18 -26 18 -42s-5.66699 -30 -17 -42s-25.333 -18 -42 -18s-31 5.66699 -43 17s-18 25.666 -18 42.999c0 16 6 30 18 42s26.333 18 43 18zM140 470.001c15.333 0 29 -5.99902 41 -17.999s18 -26 18 -42s-5.66699 -30 -17 -42
s-25.333 -18 -42 -18s-31 5.66699 -43 17s-18 25.666 -18 42.999c0 16 6 30 18 42s26.333 18 43 18z" />
    <glyph glyph-name="semicolon" unicode=";" horiz-adv-x="278" 
d="M116 61c6 18 10.666 30 13.999 36c8.66699 14 19.334 21 32.001 21c10.667 0 20.167 -3.5 28.5 -10.5s12.5 -15.833 12.5 -26.5c0 -8.66699 -2.33301 -18 -7 -28c-1.33301 -2.66699 -6.33301 -11 -15 -25l-118 -196l-17 7zM157.999 470c15.333 0 29 -5.99902 41 -17.999
s18 -26 18 -42s-5.66699 -30 -17 -42s-25.333 -18 -42 -18s-31 5.66699 -43 17s-18 25.666 -18 42.999c0 16 6 30 18 42s26.333 18 43 18z" />
    <glyph glyph-name="less" unicode="&#x3c;" horiz-adv-x="606" 
d="M558 -7l-509 234v54l509 234v-62l-428 -199l428 -199v-62z" />
    <glyph glyph-name="equal" unicode="=" horiz-adv-x="606" 
d="M555 319h-504v64h504v-64zM555 125h-504v64h504v-64z" />
    <glyph glyph-name="greater" unicode="&#x3e;" horiz-adv-x="606" 
d="M476 254l-428 199v62l509 -234v-54l-509 -234v62z" />
    <glyph glyph-name="question" unicode="?" horiz-adv-x="389" 
d="M203 360c-16.667 -19.333 -28.001 -33.3311 -34.001 -41.998c-11.333 -18 -17 -35.333 -17 -52s5.16699 -30.5 15.5 -41.5s23.833 -16.5 40.5 -16.5c9.33301 0 19 2 29 6l6 -4l-12 -28c-4.66699 -2.66699 -13.667 -4 -27 -4c-32 0 -58.667 10 -80 30
c-23.333 22 -35 51 -35 87c0 18.667 3.5 36.667 10.5 54s22.833 38.666 47.5 63.999l60 64c16.667 17.333 29 32.333 37 45c11.333 18 17 36.333 17 55c0 25.333 -9 45.5 -27 60.5s-40 22.5 -66 22.5c-15.333 0 -30.833 -4.33301 -46.5 -13s-28.167 -19.334 -37.5 -32.001
l-6 50c17.333 10 33.833 17.667 49.5 23s31.834 8 48.501 8c46 0 82.5 -11.667 109.5 -35s40.5 -55 40.5 -95c0 -28.667 -4.5 -52.5 -13.5 -71.5s-24.5 -40.833 -46.5 -65.5zM183.999 109.002c15.333 0 29 -5.99902 41 -17.999s18 -26 18 -42s-5.66699 -30 -17 -42
s-25.333 -18 -42 -18s-31 5.66699 -43 17s-18 25.666 -18 42.999c0 16 6 30 18 42s26.333 18 43 18z" />
    <glyph glyph-name="at" unicode="@" horiz-adv-x="800" 
d="M335 183c31.333 0 62.667 29.6699 94 89.0029c28 53.333 42 99.666 42 138.999c0 18 -3.66699 32 -11 42c-9.33301 12.667 -23.333 19 -42 19c-40 0 -75 -26.667 -105 -80c-26 -46.667 -39 -91.334 -39 -134.001c0 -22.667 4.5 -40.834 13.5 -54.501
s24.833 -20.5 47.5 -20.5zM508.001 502.003l88 0.000976562l-72 -262c-3.33301 -13.333 -5 -21.333 -5 -24c0 -9.33301 2.33301 -17.166 7 -23.499s11.667 -9.5 21 -9.5c32.667 0 64.334 19 95.001 57c36.667 45.333 55 102 55 170c0 52.667 -20.333 102 -61 148
c-52 58.667 -122.333 88 -211 88c-92 0 -168.333 -28.667 -229 -86s-91 -130.666 -91 -219.999c0 -90 31 -163.333 93 -220s139.667 -85 233 -85c52.667 0 100.5 12.333 143.5 37s79.5 59 109.5 103h61c-30.667 -58 -74.834 -104.167 -132.501 -138.5
s-119.834 -51.5 -186.501 -51.5c-104.667 0 -193.5 32.667 -266.5 98s-109.5 148.666 -109.5 249.999c0 102 35 188 105 258s157.667 105 263 105c96.667 0 177 -29 241 -87c60.667 -54.667 91 -120.334 91 -197.001c0 -72.667 -25.333 -137.667 -76 -195
c-46.667 -52.667 -95 -79 -145 -79c-28 0 -49.333 8 -64 24c-12 13.333 -19 29.333 -21 48c-19.333 -18 -32.666 -30 -39.999 -36c-26.667 -20.667 -55 -31 -85 -31c-36 0 -67.333 14 -94 42c-14 14.667 -24.167 30.167 -30.5 46.5s-9.5 35.166 -9.5 56.499
c0 54.667 22 105.667 66 153s94 71 150 71c23.333 0 42.833 -5 58.5 -15s27.5 -23.667 35.5 -41z" />
    <glyph glyph-name="A" unicode="A" horiz-adv-x="667" 
d="M651 -3l-51.998 2.99902l-53 -3c-24 68.667 -44.333 124 -61 166c-10.667 26.667 -25.334 61.334 -44.001 104.001h-254c-38.667 -96.667 -60.334 -151.667 -65.001 -165c-10 -26.667 -21.333 -61.667 -34 -105l-37 3l-35 -3l312 699h23zM315.002 564.999l-109 -256h220z
" />
    <glyph glyph-name="B" unicode="B" horiz-adv-x="611" 
d="M95 681l196 0.000976562c76.667 0 133 -10.333 169 -31s54 -56.334 54 -107.001c0 -44.667 -14.833 -82.5 -44.5 -113.5s-67.5 -52.167 -113.5 -63.5c46 0 86 -11.667 120 -35c42 -28.667 63 -69.334 63 -122.001c0 -71.333 -30 -127.666 -90 -168.999
c-26 -18 -59.667 -29.667 -101 -35c-25.333 -3.33301 -62 -5 -110 -5h-143v681zM183 380.001l43 0.000976562c27.333 0 50 1.16699 68 3.5s36.667 8.16602 56 17.499c51.333 24 77 64.333 77 121c0 44.667 -14.333 76.167 -43 94.5s-71 27.5 -127 27.5h-74v-264zM183 37.002
h95.002c49.333 0 89.666 14.333 120.999 43s47 66 47 112c0 56 -19.333 96 -58 120c-32.667 20.667 -82.334 31 -149.001 31h-56v-306z" />
    <glyph glyph-name="C" unicode="C" horiz-adv-x="667" 
d="M611 42c-29.333 -20 -63.3301 -34.498 -101.997 -43.498s-78.334 -13.5 -119.001 -13.5c-109.333 0 -195.333 32.333 -258 97s-94 151.667 -94 261s36.333 196.333 109 261c69.333 61.333 158.666 92 267.999 92c35.333 0 71.5 -4 108.5 -12s72.5 -19.333 106.5 -34
c-4 -10 -8 -22.5 -12 -37.5s-7 -28.167 -9 -39.5l-7 -1c-7.33301 9.33301 -20.333 20.666 -39 33.999c-48.667 34.667 -99.334 52 -152.001 52c-88 0 -156.667 -31.667 -206 -95c-46 -58.667 -69 -133.334 -69 -224.001c0 -95.333 24.667 -171.666 74 -228.999
s114 -86 194 -86c36 0 73 7.16699 111 21.5s71.667 34.166 101 59.499z" />
    <glyph glyph-name="D" unicode="D" horiz-adv-x="778" 
d="M188 45c20 0 46.666 -0.49707 79.999 -1.49707s50.333 -1.5 51 -1.5c38 0 69 1.66699 93 5s47 10.666 69 21.999c50.667 25.333 88 64.666 112 117.999c21.333 47.333 32 103.666 32 168.999c0 105.333 -23.5 179.833 -70.5 223.5s-127.167 65.5 -240.5 65.5
c-14 0 -37.667 -0.666992 -71 -2s-51.666 -2 -54.999 -2v-596zM99.999 681.003l226.999 0.000976562h68c62.667 0 110.334 -5.33301 143.001 -16c27.333 -8.66699 53.333 -23.334 78 -44.001c36 -29.333 62.833 -66 80.5 -110s26.5 -90.667 26.5 -140
c0 -66 -11.667 -124.333 -35 -175c-20.667 -44.667 -51 -84.667 -91 -120c-28.667 -24.667 -64.5 -43.5 -107.5 -56.5s-107.833 -19.5 -194.5 -19.5h-195v681z" />
    <glyph glyph-name="E" unicode="E" horiz-adv-x="500" 
d="M177 383h155.001c12.667 0 29.5 0.833008 50.5 2.5s33.833 2.5 38.5 2.5l-3 -26l3 -28c-12 0 -28.667 0.833008 -50 2.5s-34.333 2.5 -39 2.5h-155v-292c21.333 0 56.166 0.666992 104.499 2s73.833 2 76.5 2c18.667 0 32.334 0.5 41.001 1.5s25.667 3.5 51 7.5l-3 -30
l3 -30h-361v681h355l-3 -30l3 -30c-20 4 -36.333 6.83301 -49 8.5s-26.334 2.5 -41.001 2.5l-100 2h-77v-251z" />
    <glyph glyph-name="F" unicode="F" horiz-adv-x="500" 
d="M89 681h355.001l-3 -30l3 -30c-20 4 -36.333 6.83301 -49 8.5s-26.334 2.5 -41.001 2.5l-100 2h-77v-251h155c12.667 0 29.5 0.833008 50.5 2.5s33.833 2.5 38.5 2.5l-3 -26l3 -28c-12 0 -28.667 0.833008 -50 2.5s-34.333 2.5 -39 2.5h-155v-342l-44 3l-44 -3v684z" />
    <glyph glyph-name="G" unicode="G" horiz-adv-x="778" 
d="M675 561c-27.333 31.333 -60.832 55.332 -100.499 71.999s-81.167 25 -124.5 25c-87.333 0 -157.166 -27.5 -209.499 -82.5s-78.5 -132.167 -78.5 -231.5c0 -101.333 25.5 -180.166 76.5 -236.499s125.167 -84.5 222.5 -84.5c28 0 55.5 2.83301 82.5 8.5
s51.5 14.167 73.5 25.5v257l44 -3l44 3v-283c-88.667 -30.667 -179.334 -46 -272.001 -46c-121.333 0 -214.333 33.667 -279 101c-60 62.667 -90 147 -90 253c0 113.333 37 202 111 266c70.667 60.667 163.667 91 279 91c65.333 0 123.666 -7.66699 174.999 -23
c31.333 -9.33301 58 -21 80 -35c-2.66699 -7.33301 -6.16699 -18.333 -10.5 -33l-12.5 -44h-11z" />
    <glyph glyph-name="H" unicode="H" horiz-adv-x="778" 
d="M599 681l44.001 -3l44 3v-684l-44 3l-44 -3v344c-32.667 0 -59 0.333008 -79 1c-80 2.66699 -123.667 4 -131 4c-32 0 -73 -0.833008 -123 -2.5s-79.333 -2.5 -88 -2.5v-344l-44 3l-44 -3v684l44 -3l44 3v-287c33.333 0 75.166 -0.833008 125.499 -2.5
s78.833 -2.5 85.5 -2.5c32 0 58 0.333008 78 1c80 2.66699 124 4 132 4v287z" />
    <glyph glyph-name="I" unicode="I" horiz-adv-x="278" 
d="M95 681l44 -3l44 3v-684l-44 3l-44 -3v684z" />
    <glyph glyph-name="J" unicode="J" horiz-adv-x="278" 
d="M198 87c0 -65.333 -18.167 -119.167 -54.5 -161.5s-86.166 -63.5 -149.499 -63.5l-8 27c49.333 0 83.666 19.667 102.999 59c14 28.667 21 70.667 21 126v607l44 -3l44 3v-594z" />
    <glyph glyph-name="K" unicode="K" horiz-adv-x="611" 
d="M355 463l-85.002 -85.998l243 -275l81 -100v-5l-55 3l-56 -3l-33.5 46.5c-11.667 15.667 -23.5 30.5 -35.5 44.5l-218 255c-3.33301 2.66699 -7.66602 4.33398 -12.999 5.00098c-2.66699 -0.666992 -4 -1.33398 -4 -2.00098v-349l-44 3l-44 -3v684l44 -3l44 3v-309
c0.666992 -2.66699 3.83398 -3.33398 9.50098 -2.00098s11.167 4.16602 16.5 8.49902s16.333 14.5 33 30.5c6 6 12.333 12 19 18l246 254l40 -3l39 3z" />
    <glyph glyph-name="L" unicode="L" horiz-adv-x="500" 
d="M177 47c21.333 0 56.167 0.666016 104.5 1.99902s73.833 2 76.5 2c16 0 35.667 1.33301 59 4c16 2.66699 28 4.33398 36 5.00098l-3 -30l3 -30h-364v681l44 -3l44 3v-634z" />
    <glyph glyph-name="M" unicode="M" horiz-adv-x="889" 
d="M758 681l25.998 -244c10.667 -98 19.5 -174.167 26.5 -228.5l28.5 -211.5l-47 3l-47 -3l-16.5 191c-5 60.667 -10.667 120.667 -17 180s-12.166 107.666 -17.499 144.999l-106 -192l-87 -166c-25.333 -51.333 -48.333 -100.333 -69 -147h-11l-55 113l-64 129.5l-69 132.5
l-69 130l-33 -289c-10.667 -97.333 -16 -173 -16 -227l-35 3l-36 -3c14 86.667 32.333 209.834 55 369.501s36.334 264.5 41.001 314.5h26l85 -167l95 -177c40 -72.667 74.333 -132.667 103 -180l288 524h21z" />
    <glyph glyph-name="N" unicode="N" horiz-adv-x="778" 
d="M680 -3h-30l-52 61l-432 478h-10v-539l-28 3l-28 -3v684h39l475 -515h10v515l28 -3l28 3v-684z" />
    <glyph glyph-name="O" unicode="O" horiz-adv-x="833" 
d="M630 566c-24.667 31.333 -55.168 55.333 -91.501 72s-75.166 25 -116.499 25c-87.333 0 -156.166 -30.5 -206.499 -91.5s-75.5 -142.5 -75.5 -244.5c0 -98 26.667 -175 80 -231c50 -52 114.333 -78 193 -78c94 0 167 40.667 219 122c40.667 63.333 61 132 61 206
c0 45.333 -4.33301 85.5 -13 120.5s-25.334 68.167 -50.001 99.5zM41.999 339c0 107.333 35.667 194.335 107 261.002c68.667 64 156.334 96 263.001 96c104 0 190.667 -27 260 -81c79.333 -62 119 -149 119 -261c0 -110.667 -35.333 -199.834 -106 -267.501
s-162.334 -101.5 -275.001 -101.5c-111.333 0 -200.5 32.167 -267.5 96.5s-100.5 150.166 -100.5 257.499z" />
    <glyph glyph-name="P" unicode="P" 
d="M167 -3l-43.999 3l-44 -3v684h179c97.333 0 164.666 -12 201.999 -36s56 -66.667 56 -128c0 -58.667 -18 -104.334 -54 -137.001c-33.333 -30 -86.666 -52.333 -159.999 -67c-8.66699 -2 -20.334 -3.33301 -35.001 -4s-23 -1 -25 -1c-15.333 0 -29 0.333008 -41 1
s-23.333 1.33398 -34 2.00098v-314zM167.001 350c2 -0.666992 11.001 -1 27.001 -1c6 -0.666992 12.333 -1 19 -1h20h16c8 1.33301 13.667 2 17 2c49.333 4.66699 88 21.667 116 51s42 66.333 42 111c0 36 -8.66699 65 -26 87c-19.333 24.667 -41 38.167 -65 40.5
s-42.833 3.5 -56.5 3.5h-32.5c-14.667 0 -28.334 -0.166992 -41.001 -0.5s-24.667 -0.5 -36 -0.5v-292z" />
    <glyph glyph-name="Q" unicode="Q" horiz-adv-x="833" 
d="M791 356c0 -94 -26.333 -171.999 -79 -233.999c-44.667 -52.667 -106 -92.334 -184 -119.001l224 -169c-23.333 -10.667 -36.666 -16.667 -39.999 -18c-14 -7.33301 -26.667 -15 -38 -23c-5.33301 7.33301 -34.333 34.333 -87 81c-58.667 51.333 -105 89.333 -139 114
l-24 -3c-114 0 -205.333 30.333 -274 91c-72 64 -108 152 -108 264c0 103.333 35.5 188.5 106.5 255.5s158.833 100.5 263.5 100.5c109.333 0 198.666 -29 267.999 -87c74 -62 111 -146.333 111 -253zM630 565.001c-24.667 32 -55.168 56.333 -91.501 73
s-75.166 25 -116.499 25c-93.333 0 -165 -34 -215 -102c-44.667 -60.667 -67 -138.667 -67 -234c0 -102 27.667 -180.333 83 -235c49.333 -49.333 112.666 -74 189.999 -74c70.667 0 129.334 22 176.001 66c36.667 34.667 64.334 81.334 83.001 140.001
c14 43.333 21 84 21 122c0 46 -4.33301 86.167 -13 120.5s-25.334 67.166 -50.001 98.499z" />
    <glyph glyph-name="R" unicode="R" horiz-adv-x="611" 
d="M178 369c6 0 13.3311 -0.167969 21.998 -0.500977s18.334 -0.5 29.001 -0.5c14.667 0 28.334 0.333008 41.001 1s25 2.33398 37 5.00098c37.333 8 68 24.5 92 49.5s36 56.167 36 93.5c0 72 -36.667 114 -110 126c-14 2 -31.333 3 -52 3c-10.667 0 -27 -0.333008 -49 -1
s-37.333 -1 -46 -1v-275zM89.998 680.999h212c76 0 132 -12.5 168 -37.5s54 -63.167 54 -114.5c0 -54 -21.333 -98 -64 -132c-35.333 -28 -82.333 -47.333 -141 -58l206 -261l48 -56l19 -25l-58 3l-57 -3l-63 87l-118 153l-80 94h-38v-334l-44 3l-44 -3v684z" />
    <glyph glyph-name="S" unicode="S" horiz-adv-x="500" 
d="M74 132c21.333 -34.667 43.332 -59.999 65.999 -75.999c26.667 -18.667 58.667 -28 96 -28c40 0 73.167 14.167 99.5 42.5s39.5 62.833 39.5 103.5c0 50.667 -27 90 -81 118l-151 67c-54 32.667 -81 81 -81 145c0 61.333 22 109.333 66 144c40.667 32 92.667 48 156 48
c26.667 0 52.667 -4 78 -12s47 -20 65 -36c-4.66699 -10.667 -8.66699 -20.667 -12 -30c-0.666992 -2 -5.66699 -19.333 -15 -52h-10c-10.667 28 -26.5 49.5 -47.5 64.5s-46.5 22.5 -76.5 22.5c-35.333 0 -65.166 -10.833 -89.499 -32.5s-36.5 -49.834 -36.5 -84.501
c0 -50.667 27 -90 81 -118l152 -67c54.667 -32 82 -78 82 -138c0 -70 -24 -126 -72 -168c-45.333 -40 -103.666 -60 -174.999 -60c-27.333 0 -57.333 5.33301 -90 16s-57 24.667 -73 42c5.33301 14.667 9.16602 28.167 11.499 40.5s4.83301 28.5 7.5 48.5h10z" />
    <glyph glyph-name="T" unicode="T" 
d="M327 -5l-43.999 2.99805l-44 -3v638c-52 0 -89 -0.666992 -111 -2s-58 -4.66602 -108 -9.99902l3 30l-3 30h516l-3 -30l3 -30c-24.667 2.66699 -55.834 5.33398 -93.501 8.00098s-76.167 4 -115.5 4v-638z" />
    <glyph glyph-name="U" unicode="U" horiz-adv-x="778" 
d="M182 298c0 -92 15.332 -158.334 45.999 -199.001c34 -45.333 92.333 -68 175 -68c75.333 0 131 25.667 167 77c32.667 46.667 49 113.334 49 200.001v373l28 -3l28 3v-398c0 -96.667 -26.167 -170.5 -78.5 -221.5s-123.5 -76.5 -213.5 -76.5
c-93.333 0 -165.666 23.333 -216.999 70c-28 25.333 -47.667 60 -59 104c-8.66699 33.333 -13 74 -13 122v400l44 -3l44 3v-383z" />
    <glyph glyph-name="V" unicode="V" horiz-adv-x="667" 
d="M518 498l60 167.001l7 16l37 -3l36 3c-12 -22.667 -39 -82.334 -81 -179.001l-124 -291c-44.667 -107.333 -72.667 -178.666 -84 -213.999l-20 3l-21 -3c-30.667 63.333 -70.334 150.666 -119.001 261.999l-110.5 256.5c-36.333 85 -61.166 140.167 -74.499 165.5l48 -3
l49 3l37 -97l67 -175l123 -303h9c13.333 26.667 23 46.667 29 60c11.333 22.667 20.333 43 27 61z" />
    <glyph glyph-name="W" unicode="W" horiz-adv-x="1000" 
d="M12 681l47.001 -3.00098l46 3c3.33301 -10 8.33301 -27.333 15 -52c4.66699 -18 9.66699 -36 15 -54l59 -203l84 -264h9l73 211l74 216c24.667 74.667 40.334 123.334 47.001 146.001l29 -3l28 3l190 -573h9c13.333 34 26.666 72 39.999 114l117 377l24 82l35 -3l35 3
c-18.667 -43.333 -35.334 -86 -50.001 -128l-191 -556l-33 3l-33 -3l-181 561h-8l-194 -561l-33 3l-34 -3l-40 132z" />
    <glyph glyph-name="X" unicode="X" horiz-adv-x="611" 
d="M268 341l-115 188.999l-99 151l54 -3l54 3l51 -86l106 -182l168 268l37 -3l37 3l-17 -20l-153 -213l-49 -74l232 -377l-55 3l-55 -3c-53.333 104.667 -111 206 -173 304c-62 -93.333 -122.333 -194.666 -181 -303.999l-37 3l-37 -3l121 177z" />
    <glyph glyph-name="Y" unicode="Y" horiz-adv-x="611" 
d="M353 -3l-43.998 2.99805l-44 -3v288l-245 396l56 -3l55 3c22 -43.333 54.833 -103.333 98.5 -180s74.167 -128.334 91.5 -155.001c10.667 12.667 30 43.334 58 92.001l78 141l55 102l39 -3l39 3c-24.667 -31.333 -48.334 -64.666 -71.001 -99.999l-110 -177
c-13.333 -20.667 -23.833 -37.667 -31.5 -51s-15.834 -29.666 -24.501 -48.999v-307z" />
    <glyph glyph-name="Z" unicode="Z" horiz-adv-x="611" 
d="M308 428l72.001 103c22 31.333 45.333 66.333 70 105l-114 1c-38 0 -75 -1.33301 -111 -4c-108.667 -8 -164.334 -12 -167.001 -12l3 30l-3 30h526v-19l-136 -182l-148 -208l-152 -226l152 -2c32 0 80.333 2.66699 145 8s109.667 8 135 8l-3 -30l3 -30h-563v22z" />
    <glyph glyph-name="bracketleft" unicode="[" horiz-adv-x="333" 
d="M135 748h157v-29h-97v-806h97v-29h-157v864z" />
    <glyph glyph-name="backslash" unicode="\" horiz-adv-x="500" 
d="M467 0c-7.33301 0.666992 -13.668 1.16699 -19.001 1.5s-9.66602 0.5 -12.999 0.5h-15c-6.66699 -1.33301 -11.667 -2 -15 -2l-372 748c5.33301 -0.666992 10.5 -1.16699 15.5 -1.5s10.167 -0.5 15.5 -0.5h12c4.66699 0 11 0.666992 19 2z" />
    <glyph glyph-name="bracketright" unicode="]" horiz-adv-x="333" 
d="M198 -116h-157v29h97v806h-97v29h157v-864z" />
    <glyph glyph-name="asciicircum" unicode="^" horiz-adv-x="606" 
d="M51 275l219 406h66l218 -406h-70l-181 326l-182 -326h-70z" />
    <glyph glyph-name="underscore" unicode="_" horiz-adv-x="500" 
d="M0 -160v38h500v-38h-500z" />
    <glyph glyph-name="grave" unicode="`" horiz-adv-x="333" 
d="M205 532l-157 98.001c-6.66699 5.33301 -11 8.66602 -13 9.99902c-6 4 -10 8.33301 -12 13s-3 9.33398 -3 14.001c0 2.66699 0.666992 6.66699 2 12c7.33301 18.667 21 25.667 41 21c6.66699 -2.66699 11 -5 13 -7c6.66699 -4.66699 13.667 -10.834 21 -18.501l17 -17.5
l126 -125h-35z" />
    <glyph glyph-name="a" unicode="a" horiz-adv-x="500" 
d="M413 81l-0.000976562 -29.0029c2 -14 11 -21 27 -21c8.66699 0 18.334 1.33301 29.001 4v-22c-3.33301 -1.33301 -8.16602 -3.16602 -14.499 -5.49902s-13.333 -4.16602 -21 -5.49902s-16.834 -2 -27.501 -2c-19.333 0 -35.166 4.66699 -47.499 14s-19.833 25 -22.5 47
l-9 -9c-42 -42 -91.333 -63 -148 -63c-36.667 0 -68 11.333 -94 34s-39 52 -39 88c0 50.667 19 87 57 109c23.333 13.333 66 25 128 35c43.333 7.33301 70.666 14 81.999 20c16 8.66699 24 24.334 24 47.001c0 37.333 -10.167 66.166 -30.5 86.499
s-49.166 30.5 -86.499 30.5c-32 0 -60 -8.66699 -84 -26c-18.667 -13.333 -30.334 -27.666 -35.001 -42.999h-11v56c26 18 52.167 31.667 78.5 41s53.833 14 82.5 14c108 0 162 -56 162 -168v-232zM332.999 245.997l-34.999 -6.99902c-58 -11.333 -94.667 -20.333 -110 -27
c-40 -18 -60 -47 -60 -87c0 -30.667 8.66699 -54 26 -70s41.333 -24 72 -24c12.667 0 26.667 3.83301 42 11.5s28 16.5 38 26.5c5.33301 4.66699 11.166 10.167 17.499 16.5s9.5 11.166 9.5 14.499v146z" />
    <glyph glyph-name="b" unicode="b" 
d="M65 748l40.0039 -2.99902l40 3v-370c22.667 33.333 47 58.333 73 75c29.333 18.667 62.666 28 99.999 28c66 0 117.333 -24.667 154 -74c32 -43.333 48 -96 48 -158c0 -70.667 -19.667 -130.667 -59 -180c-42.667 -53.333 -98.334 -80 -167.001 -80
c-36.667 0 -68.334 8.33301 -95.001 25c-18.667 11.333 -34.334 26.666 -47.001 45.999c-8 -6 -19.333 -15.667 -34 -29l-34 -31h-19v748zM143.004 204.001c0 -54.667 12.501 -98.833 37.501 -132.5s59.167 -50.5 102.5 -50.5c51.333 0 90.333 25.667 117 77
c21.333 40.667 32 89.667 32 147c0 58 -10.667 103.667 -32 137c-24.667 38 -60.334 57 -107.001 57c-52.667 0 -92 -24.333 -118 -73c-21.333 -40 -32 -94 -32 -162z" />
    <glyph glyph-name="c" unicode="c" horiz-adv-x="500" 
d="M435 374h-7.99902l-13 17.5c-4.66699 6.33301 -9.33398 11.5 -14.001 15.5c-11.333 12.667 -26 22.5 -44 29.5s-36.333 10.5 -55 10.5c-54.667 0 -97.667 -21 -129 -63c-28.667 -38.667 -43 -86 -43 -142c0 -64 16.833 -116.5 50.5 -157.5s77.5 -61.5 131.5 -61.5
c27.333 0 52.333 6 75 18c17.333 9.33301 38.333 25 63 47l6 -3l-5 -46c-45.333 -33.333 -96.333 -50 -153 -50c-81.333 0 -145 23.667 -191 71c-43.333 44.667 -65 103.667 -65 177c0 76 24 135.667 72 179s110.333 65 187 65c30.667 0 58.667 -3.16699 84 -9.5
s50 -16.833 74 -31.5z" />
    <glyph glyph-name="d" unicode="d" 
d="M487 -3l-40.001 3l-40 -3v96c-40.667 -69.333 -98 -104 -172 -104c-59.333 0 -106.666 19.667 -141.999 59c-38.667 42.667 -58 103.667 -58 183c0 70.667 19.667 130 59 178s91.333 72 156 72c33.333 0 63.333 -8.5 90 -25.5s49 -40.833 67 -71.5v364l40 -3l40 3v-751z
M271.999 440c-57.333 0 -98 -24.332 -122 -72.999c-18 -36 -27 -86 -27 -150c0 -50.667 9.66699 -93.334 29 -128.001c24 -42.667 60 -64 108 -64c52 0 91 25.667 117 77c20 40 30 89 30 147c0 50 -9.66699 92.333 -29 127c-24 42.667 -59.333 64 -106 64z" />
    <glyph glyph-name="e" unicode="e" horiz-adv-x="500" 
d="M442 48c-26 -18.667 -53.334 -33.167 -82.001 -43.5s-58.667 -15.5 -90 -15.5c-70.667 0 -127.667 22 -171 66s-65 104 -65 180c0 72.667 19.333 131 58 175c41.333 47.333 98.333 71 171 71c59.333 0 107 -19.667 143 -59c40 -43.333 60 -105.333 60 -186l-203 3h-141
c0 -60 13.667 -108.667 41 -146c30.667 -41.333 74.667 -62 132 -62c30.667 0 60.334 8 89.001 24c19.333 10.667 39 25.667 59 45zM387.999 276c0 51.333 -8.33301 91.334 -25 120.001c-20.667 36 -54 54 -100 54c-44.667 0 -80 -18.333 -106 -55
c-23.333 -32.667 -35 -72.334 -35 -119.001h266z" />
    <glyph glyph-name="f" unicode="f" horiz-adv-x="278" 
d="M88 437h-69.0029c1.33301 4 2 10.333 2 19c0 8 -0.666992 14.333 -2 19h69l2 8c12 94 37.333 164 76 210c30.667 37.333 69 56 115 56c8.66699 0 15.334 -0.333008 20.001 -1c-2 -9.33301 -3.33301 -22 -4 -38s-1 -30 -1 -42l-5 -4l-20 10
c-5.33301 2 -12.166 3.33301 -20.499 4s-13.166 1 -14.499 1c-30 0 -51.5 -9.33301 -64.5 -28s-19.5 -44.334 -19.5 -77.001c0 -14.667 1.33301 -30.667 4 -48s6 -34.333 10 -51h102c-1.33301 -9.33301 -2 -15.666 -2 -18.999c0 -4.66699 0.666992 -11 2 -19h-100v-440
l-40 3l-40 -3v440z" />
    <glyph glyph-name="g" unicode="g" horiz-adv-x="500" 
d="M97 -113c0 -39.333 13.168 -69.333 39.501 -90s61.166 -31 104.499 -31c42.667 0 78 9.33301 106 28c34.667 22.667 52 56 52 100c0 36.667 -8.66699 63.667 -26 81c-20 20 -60.333 30 -121 30c-103.333 0 -155 -39.333 -155 -118zM464.001 440l-110.001 8.99609
c22 -16.667 39 -36 51 -58s18 -46.667 18 -74c0 -51.333 -21 -90.666 -63 -117.999c-38 -24.667 -88 -37 -150 -37c-6 0.666992 -11.333 1 -16 1c-15.333 0 -27.333 -2.66699 -36 -8c-13.333 -8 -20 -21.667 -20 -41c0 -20 7.33301 -33 22 -39s39.334 -9 74.001 -9h64
c58.667 0 102.167 -11.167 130.5 -33.5s42.5 -55.5 42.5 -99.5c0 -58.667 -23.167 -106.167 -69.5 -142.5s-107.833 -54.5 -184.5 -54.5c-46.667 0 -87 11.333 -121 34c-40 26.667 -60 64.334 -60 113.001c0 34.667 9.16699 62 27.5 82s43.833 33 76.5 39v8
c-24 4 -40.167 12.833 -48.5 26.5s-12.5 31.834 -12.5 54.501c0 21.333 6.66699 39.333 20 54c10.667 12 27 22.667 49 32c-32 14.667 -55.667 32.667 -71 54c-17.333 24 -26 53.667 -26 89c0 50.667 15.333 89.334 46 116.001c33.333 28.667 85.333 43 156 43l139 -5
c6.66699 -0.666992 12.5 -1.16699 17.5 -1.5s9.16699 -0.5 12.5 -0.5c6.66699 0 14.167 0.5 22.5 1.5s14.833 1.83301 19.5 2.5v-38zM236 186.996c34.667 0 62.333 13.333 83 40c18.667 24 28 54.333 28 91c0 42.667 -7.66699 75 -23 97c-18 26 -46 39 -84 39
c-34.667 0 -62.167 -12.167 -82.5 -36.5s-30.5 -55.833 -30.5 -94.5c0 -38 9.33301 -70.167 28 -96.5s45.667 -39.5 81 -39.5z" />
    <glyph glyph-name="h" unicode="h" 
d="M77 748l39.998 -3.00098l40 3v-364c17.333 30.667 39.833 54.5 67.5 71.5s58.834 25.5 93.501 25.5c56.667 0 97.667 -16.167 123 -48.5s38 -81.166 38 -146.499v-289l-40 3l-40 -3v266c0 58 -7.66699 99.333 -23 124c-17.333 28 -46.666 42 -87.999 42
c-87.333 0 -131 -53.333 -131 -160v-272l-40 3l-40 -3v751z" />
    <glyph glyph-name="i" unicode="i" horiz-adv-x="278" 
d="M179 -3l-40 3l-40 -3v478l40 -3l40 3v-478zM139 595c-14 0 -25.999 5.00098 -35.999 15.001s-15 22 -15 36s5 26 15 36s22 15 36 15c13.333 0 25.166 -4.83301 35.499 -14.5s15.5 -21.834 15.5 -36.501c0 -14 -5 -26 -15 -36s-22 -15 -36 -15z" />
    <glyph glyph-name="j" unicode="j" horiz-adv-x="278" 
d="M105 475l40 -3.00098l40 3v-483c0 -48 -3.33301 -86 -10 -114c-9.33301 -39.333 -27 -71.666 -53 -96.999c-34 -30 -72.333 -45 -115 -45l-7 32l9 -2c2.66699 -0.666992 6.33398 -1 11.001 -1c13.333 0 25.666 6.66699 36.999 20c8 10 16.5 25.5 25.5 46.5
s15 45.5 18 73.5s4.5 58.333 4.5 91v479zM145 594.999c-14 0 -25.999 5.00098 -35.999 15.001s-15 22 -15 36s5 26 15 36s22 15 36 15c13.333 0 25.166 -4.83301 35.499 -14.5s15.5 -21.834 15.5 -36.501c0 -14 -5 -26 -15 -36s-22 -15 -36 -15z" />
    <glyph glyph-name="k" unicode="k" horiz-adv-x="500" 
d="M159 300c-0.666992 -9.33301 -1.00098 -15.999 -1.00098 -19.999c0 -6.66699 2 -11 6 -13c7.33301 -4 18.333 -0.666992 33 10c10.667 7.33301 28.667 23.666 54 48.999l62 63l78 86l40 -3l39 3v-7l-120 -103c-40.667 -35.333 -74 -65.333 -100 -90l235 -273v-5l-49 3
l-50 -3c-17.333 22.667 -38.666 49 -63.999 79l-127 146c-9.33301 10.667 -17 16 -23 16c-8.66699 0 -13 -12.333 -13 -37v-204l-40 3l-40 -3v751l40 -3l40 3v-448z" />
    <glyph glyph-name="l" unicode="l" horiz-adv-x="278" 
d="M99 748l40 -3l40 3v-751l-40 3l-40 -3v751z" />
    <glyph glyph-name="m" unicode="m" horiz-adv-x="833" 
d="M71 475l40.0039 -3l40 3v-86c16.667 29.333 37.167 52 61.5 68s53.166 24 86.499 24s63.5 -8.66699 90.5 -26s45.5 -41.666 55.5 -72.999c39.333 66 91.666 99 156.999 99c58.667 0 100.667 -17 126 -51c23.333 -30.667 35 -78.667 35 -144v-289l-40 3l-40 -3v266
c0 54 -6 92.667 -18 116c-16.667 33.333 -47.667 50 -93 50c-44.667 0 -76.334 -18 -95.001 -54c-13.333 -26 -20 -62 -20 -108v-270l-40 3l-40 -3v293c0 92.667 -35.333 139 -106 139c-46.667 0 -79.334 -14.333 -98.001 -43c-14.667 -22.667 -22 -55.334 -22 -98.001v-291
l-40 3l-40 -3v478z" />
    <glyph glyph-name="n" unicode="n" 
d="M77 475l39.998 -2.99902l40 3v-91c17.333 30.667 39.833 54.5 67.5 71.5s58.834 25.5 93.501 25.5c56.667 0 97.667 -15.667 123 -47s38 -80.666 38 -147.999v-289l-40 3l-40 -3v266c0 53.333 -6.66699 92.666 -20 117.999c-17.333 32 -47.666 48 -90.999 48
c-49.333 0 -84.333 -18 -105 -54c-17.333 -30.667 -26 -79.334 -26 -146.001v-232l-40 3l-40 -3v478z" />
    <glyph glyph-name="o" unicode="o" 
d="M289 481c68.667 0 124.5 -22.167 167.5 -66.5s64.5 -103.5 64.5 -177.5c0 -68 -21 -125.333 -63 -172c-46 -50.667 -108.333 -76 -187 -76c-68.667 0 -125.167 22.833 -169.5 68.5s-66.5 106.5 -66.5 182.5c0 70.667 24.167 128.5 72.5 173.5s108.833 67.5 181.5 67.5z
M123 225c0 -56.667 11.668 -103.334 35.001 -140.001c27.333 -43.333 67.666 -65 120.999 -65c52.667 0 93 27 121 81c22 42 33 89 33 141c0 54.667 -10 100.334 -30 137.001c-26 47.333 -64.333 71 -115 71c-58.667 0 -102 -24 -130 -72
c-23.333 -39.333 -35 -90.333 -35 -153z" />
    <glyph glyph-name="p" unicode="p" 
d="M293 31c46.667 0 82 21.668 106 65.001c20.667 38 31 88.667 31 152c0 57.333 -9.33301 102.666 -28 135.999c-23.333 42 -60 63 -110 63c-52 0 -90.667 -25.667 -116 -77c-20 -40 -30 -89 -30 -147c0 -56.667 11.667 -102 35 -136c26 -37.333 63.333 -56 112 -56z
M146 -258.999l-40 3l-40 -3v734l40 -3l40 3v-101c22.667 40 45.334 67 68.001 81c28.667 17.333 63 26 103 26c62 0 111.667 -23 149 -69c34.667 -42.667 52 -96 52 -160c0 -80.667 -19.833 -144.667 -59.5 -192s-91.834 -71 -156.501 -71c-35.333 0 -65.5 8 -90.5 24
s-46.167 40 -63.5 72z" />
    <glyph glyph-name="q" unicode="q" 
d="M262 447c-48.667 0 -84.667 -19 -108 -57c-20 -33.333 -30 -80 -30 -140c0 -61.333 9.33301 -110.333 28 -147c24.667 -48 65 -72 121 -72c42 0 75.333 19.667 100 59c22.667 36 34 80.667 34 134c0 62 -12 113.667 -36 155c-26 45.333 -62.333 68 -109 68zM407 475
l40 -3l40 3v-734l-40 3l-40 -3v342c-32.667 -62.667 -84.667 -94 -156 -94c-68 0 -121.667 24.667 -161 74c-36 45.333 -54 103 -54 173c0 71.333 17.5 130 52.5 176s84.167 69 147.5 69c48 0 88 -13.667 120 -41c22.667 -19.333 39 -42 49 -68z" />
    <glyph glyph-name="r" unicode="r" horiz-adv-x="333" 
d="M79 475l40.0029 -3l40 3v-100l5 12c18 28.667 36.667 50.667 56 66c23.333 18.667 46.666 28 69.999 28c13.333 0 23.666 -1.66699 30.999 -5l-14 -84c-3.33301 0.666992 -10.333 3.5 -21 8.5s-19.334 7.5 -26.001 7.5c-11.333 0 -23 -2.16699 -35 -6.5
s-21.667 -10.5 -29 -18.5c-15.333 -18 -25.333 -36.333 -30 -55s-7 -42.667 -7 -72v-259l-40 3l-40 -3v478z" />
    <glyph glyph-name="s" unicode="s" horiz-adv-x="389" 
d="M71 94c12.667 -21.333 29.333 -38.998 50 -52.998s42.334 -21 65.001 -21c25.333 0 48 8.66699 68 26s30 39 30 65c0 41.333 -39.333 73.333 -118 96s-118 64.667 -118 126c0 46.667 15.333 83 46 109s69.667 39 117 39c23.333 0 45.5 -2.83301 66.5 -8.5
s36.5 -11.5 46.5 -17.5c-10 -22.667 -18 -46.334 -24 -71.001h-9c-6.66699 17.333 -18 32.666 -34 45.999s-33 20 -51 20c-26 0 -47.667 -7.33301 -65 -22s-26 -35 -26 -61c0 -40 39.333 -72.667 118 -98s118 -66 118 -122c0 -50 -19.667 -89.667 -59 -119
c-34.667 -26 -76.334 -39 -125.001 -39c-20.667 0 -42.5 2.83301 -65.5 8.5s-42.833 13.5 -59.5 23.5l12 36.5c4 12.333 7 24.5 9 36.5h8z" />
    <glyph glyph-name="t" unicode="t" horiz-adv-x="278" 
d="M152 605l0.00195312 -129.999h106c-1.33301 -9.33301 -2 -16.333 -2 -21s0.666992 -10.334 2 -17.001h-106v-251v-32c0 -40.667 3.33301 -69.667 10 -87c11.333 -28.667 32.666 -43 63.999 -43c7.33301 0 15.5 1 24.5 3s15.833 3.33301 20.5 4v-24
c-16 -6 -30.333 -10.5 -43 -13.5s-26.334 -4.5 -41.001 -4.5c-40 0 -68.667 10.667 -86 32c-19.333 24 -29 65.667 -29 125v291h-62c1.33301 4 2 10.333 2 19c0 8 -0.666992 14.333 -2 19h62v99z" />
    <glyph glyph-name="u" unicode="u" 
d="M473 -3l-40 3l-40 -3v86c-32.667 -62.667 -85.667 -94 -159 -94c-56 0 -97.5 15.167 -124.5 45.5s-40.5 79.166 -40.5 146.499v294l40 -3l40 3v-270c0 -56 9.16699 -97.833 27.5 -125.5s49.5 -41.5 93.5 -41.5c46 0 79.333 18 100 54c15.333 26.667 23 62.334 23 107.001
v276l40 -3l40 3v-478z" />
    <glyph glyph-name="v" unicode="v" horiz-adv-x="500" 
d="M417 475l31.998 -3.00195l32 3c-11.333 -23.333 -33 -70.666 -65 -141.999l-75 -172c-29.333 -70 -50.666 -124.667 -63.999 -164l-30 3l-31 -3c-21.333 57.333 -50.333 131.333 -87 222c-40.667 100.667 -77 186 -109 256l45 -3l44 3
c30.667 -101.333 80.334 -229.666 149.001 -384.999l10 14c4.66699 6 7.66699 10.667 9 14l60 141z" />
    <glyph glyph-name="w" unicode="w" horiz-adv-x="778" 
d="M561 -3l-27.0029 3.00293l-27 -3c-12.667 48 -31.167 107.667 -55.5 179s-46.833 132.666 -67.5 183.999c-37.333 -73.333 -82.666 -194.333 -135.999 -363l-27 3l-27 -3c-60.667 185.333 -119.667 344.666 -177 477.999l44 -3l44 3c20.667 -70.667 40 -133 58 -187
c21.333 -62.667 44.333 -124 69 -184c20.667 44 45 103.5 73 178.5s50.333 139.167 67 192.5l26 -3l26 3c14 -54.667 33 -117 57 -187s47.667 -131.667 71 -185l82 200c34.667 86.667 56.334 144 65.001 172l32 -3l31 3c-8 -16 -25.167 -52.833 -51.5 -110.5
s-51.833 -116.834 -76.5 -177.501c-33.333 -80.667 -57.666 -144 -72.999 -190z" />
    <glyph glyph-name="x" unicode="x" horiz-adv-x="500" 
d="M29 475l51 -2.99707l51 3c14 -24.667 34.5 -56.334 61.5 -95.001s49.5 -69 67.5 -91l56 72l84 114l34 -3l35 3c-65.333 -70 -127.333 -141.667 -186 -215l187 -253v-10l-47 3l-47 -3c-14.667 24.667 -35.667 57 -63 97c-29.333 43.333 -55.333 79.666 -78 108.999
l-70 -96c-33.333 -46.667 -58 -83.334 -74 -110.001l-30 3l-30 -3v10l180 226z" />
    <glyph glyph-name="y" unicode="y" horiz-adv-x="500" 
d="M26 475l48.001 -3l47 3c18 -55.333 39.5 -114.166 64.5 -176.499s53.167 -127.166 84.5 -194.499c21.333 43.333 47 102.666 77 177.999c24.667 61.333 49 125.666 73 192.999l33 -3l32 3l-114 -252l-108 -242c-40.667 -92.667 -74.334 -172.667 -101.001 -240l-34 3
l-34 -3l134 260z" />
    <glyph glyph-name="z" unicode="z" horiz-adv-x="500" 
d="M145 40h28c34 0 68.333 1 103 3c103.333 6 161 9 173 9l-3 -26l3 -26h-427v9l111 142l115 154.5l93 125.5h-25c-30 0 -60.333 -1 -91 -3c-91.333 -6 -142 -9 -152 -9l3 25l-3 26h383v-9z" />
    <glyph glyph-name="braceleft" unicode="{" horiz-adv-x="333" 
d="M206 9c0 -36.667 6.16602 -65.0059 18.499 -85.0059s33.833 -33.333 64.5 -40c-59.333 0 -99.333 9.33301 -120 28c-23.333 20.667 -35 61.334 -35 122.001v163c0 36 -4.33301 61.667 -13 77c-10.667 18 -31.667 31.667 -63 41c30 8.66699 50.167 21.334 60.5 38.001
s15.5 42.334 15.5 77.001v178c0 56.667 13.333 95 40 115c22 16.667 60.333 25 115 25c-31.333 -8 -53 -21.667 -65 -41s-18 -47.666 -18 -84.999v-177c0 -39.333 -4.66699 -67.666 -14 -84.999c-11.333 -21.333 -33.666 -36.333 -66.999 -45c32.667 -8.66699 55 -25 67 -49
c9.33301 -19.333 14 -49.666 14 -90.999v-166z" />
    <glyph glyph-name="bar" unicode="|" horiz-adv-x="333" 
d="M134 748h64v-748h-64v748z" />
    <glyph glyph-name="braceright" unicode="}" horiz-adv-x="333" 
d="M127 175c0 42 4.33398 72.002 13.001 90.002c11.333 24 34 40.333 68 49c-32.667 8.66699 -54.334 22.667 -65.001 42s-16 49 -16 89v177c0 36.667 -5.83301 64.834 -17.5 84.501s-33.5 33.5 -65.5 41.5c54.667 0 93 -8.33301 115 -25c26.667 -20 40 -58.667 40 -116
v-178c0 -34.667 5 -60.334 15 -77.001s30.333 -29.334 61 -38.001c-32 -8.66699 -52.667 -21 -62 -37s-14 -42.667 -14 -80v-163c0 -60.667 -11.667 -101.334 -35 -122.001c-20.667 -18.667 -60.667 -28 -120 -28c30.667 6 52.167 19.167 64.5 39.5s18.5 48.5 18.5 84.5v167
z" />
    <glyph glyph-name="asciitilde" unicode="~" horiz-adv-x="606" 
d="M555 299c-16.667 -31.333 -35.332 -55.999 -55.999 -73.999c-26.667 -23.333 -55 -35 -85 -35c-12 0 -28.333 3.33301 -49 10c-10.667 3.33301 -39.334 14.666 -86.001 33.999c-26.667 10.667 -40.667 16.334 -42 17.001c-17.333 6 -32.333 9 -45 9
c-24 0 -45.333 -10 -64 -30c-10 -10.667 -24 -31.334 -42 -62.001l-35 40c20 36 38.667 62.333 56 79c25.333 24.667 54 37 86 37c24.667 0 64 -11.833 118 -35.5s88.667 -35.5 104 -35.5c21.333 0 42.333 9.33301 63 28c16 14.667 30 34 42 58z" />
    <glyph glyph-name="c128" horiz-adv-x="833" 
d="M673 210c0 47.333 -14.665 82.6631 -43.998 105.996c-26 20.667 -62.333 31 -109 31c-66.667 0 -131 -14 -193 -42v-308l-44 3l-44 -3v636c-52 0 -89 -0.666992 -111 -2s-58 -4.66602 -108 -9.99902l3 30l-3 30h516l-3 -30l3 -30
c-24.667 2.66699 -55.834 5.33398 -93.501 8.00098s-76.167 4 -115.5 4v-279c33.333 14.667 68.833 26.834 106.5 36.501s73.5 14.5 107.5 14.5c64.667 0 116 -13.667 154 -41c44 -31.333 66 -78 66 -140v-137c0 -67.333 -18 -121.666 -54 -162.999s-86 -62 -150 -62l-8 27
c49.333 0 83.666 19.667 102.999 59c14 28.667 21 70.667 21 126v136z" />
    <glyph glyph-name="c129" horiz-adv-x="481" 
d="M90 681h355.001l-3 -30l3 -30c-20 4 -36.333 6.83301 -49 8.5s-26.334 2.5 -41.001 2.5l-100 2h-77v-636l-44 2l-44 -2v683zM212.001 738h-34l125 125l25 25l27 18c8 2 16 1 24 -3s13.167 -9 15.5 -15s3.5 -12 3.5 -18c0 -5.33301 -1.33301 -9.33301 -4 -12
c-2 -4.66699 -6 -9 -12 -13s-10.333 -7 -13 -9z" />
    <glyph glyph-name="c141" horiz-adv-x="611" 
d="M354 463l-85.002 -85.998l243 -275l81 -100v-5l-55 3l-56 -3l-33.5 46.5c-11.667 15.667 -23.5 30.5 -35.5 44.5l-218 255c-3.33301 2.66699 -7.66602 4.33398 -12.999 5.00098c-2.66699 -0.666992 -4 -1.33398 -4 -2.00098v-349l-44 3l-44 -3v684l44 -3l44 3v-309
c0.666992 -2.66699 3.83398 -3.33398 9.50098 -2.00098s11.167 4.16602 16.5 8.49902s16.333 14.5 33 30.5c6 6 12.333 12 19 18l246 254l40 -3l39 3zM276.998 738.002h-34l125 125l25 25l27 18c8 2 16 1 24 -3s13.167 -9 15.5 -15s3.5 -12 3.5 -18
c0 -5.33301 -1.33301 -9.33301 -4 -12c-2 -4.66699 -6 -9 -12 -13s-10.333 -7 -13 -9z" />
    <glyph glyph-name="c142" horiz-adv-x="833" 
d="M327 305l0.000976562 -308.003l-44 3l-44 -3v636c-52 0 -89 -0.666992 -111 -2s-58 -4.66602 -108 -9.99902l3 30l-3 30h516l-3 -30l3 -30c-24.667 2.66699 -55.834 5.33398 -93.501 8.00098s-76.167 4 -115.5 4v-279c33.333 14.667 68.833 26.834 106.5 36.501
s73.5 14.5 107.5 14.5c64 0 115.333 -13.333 154 -40c44 -30 66 -73.667 66 -131v-237l-44 3l-44 -3v223c0 42.667 -14 74.5 -42 95.5s-65 31.5 -111 31.5c-66.667 0 -131 -14 -193 -42z" />
    <glyph glyph-name="c143" horiz-adv-x="778" 
d="M342 0h-252v684l44 -3l44 3v-634l208 -3l208 3v634c11.333 -2 26 -3 44 -3l44 3v-684h-252v-75l-44 3l-44 -3v75z" />
    <glyph glyph-name="c144" 
d="M399 263c0 58 -7.66895 99.332 -23.002 123.999c-17.333 28 -46.666 42 -87.999 42c-87.333 0 -131 -53.333 -131 -160v-272l-40 3l-40 -3v566h-62c1.33301 4 2 10.333 2 19c0 8 -0.666992 14.333 -2 19h62v147l40 -3l40 3v-147h159c-1.33301 -9.33301 -2 -16.333 -2 -21
s0.666992 -10.334 2 -17.001h-159v-179c17.333 30.667 39.833 54.5 67.5 71.5s58.834 25.5 93.501 25.5c56.667 0 97.667 -16.167 123 -48.5s38 -81.166 38 -146.499v-294c0 -48 -3.33301 -86 -10 -114c-9.33301 -39.333 -27 -71.666 -53 -96.999
c-34 -30 -72.333 -45 -115 -45l-7 32l9 -2c2.66699 -0.666992 6.33398 -1 11.001 -1c13.333 0 25.666 6.66699 36.999 20c8 10 16.5 25.5 25.5 46.5s15 45.5 18 73.5s4.5 58.333 4.5 91v267z" />
    <glyph glyph-name="c157" horiz-adv-x="500" 
d="M159 300c-0.666992 -9.33301 -1.00098 -15.999 -1.00098 -19.999c0 -6.66699 2 -11 6 -13c7.33301 -4 18.333 -0.666992 33 10c10.667 7.33301 28.667 23.666 54 48.999l62 63l78 86l40 -3l39 3v-7l-120 -103c-40.667 -35.333 -74 -65.333 -100 -90l235 -273v-5l-49 3
l-50 -3c-17.333 22.667 -38.666 49 -63.999 79l-127 146c-9.33301 10.667 -17 16 -23 16c-8.66699 0 -13 -12.333 -13 -37v-204l-40 3l-40 -3v478l40 -3l40 3v-175zM201.999 532.001h-34l125 125l25 25l27 18c8 2 16 1 24 -3s13.167 -9 15.5 -15s3.5 -12 3.5 -18
c0 -5.33301 -1.33301 -9.33301 -4 -12c-2 -4.66699 -6 -9 -12 -13s-10.333 -7 -13 -9z" />
    <glyph glyph-name="c158" 
d="M77 601l-0.00195312 147l40 -3l40 3v-147h159c-1.33301 -9.33301 -2 -16.333 -2 -21s0.666992 -10.334 2 -17.001h-159v-179c17.333 30.667 39.833 54.5 67.5 71.5s58.834 25.5 93.501 25.5c56.667 0 97.667 -16.167 123 -48.5s38 -81.166 38 -146.499v-289l-40 3l-40 -3
v266c0 58 -7.66699 99.333 -23 124c-17.333 28 -46.666 42 -87.999 42c-87.333 0 -131 -53.333 -131 -160v-272l-40 3l-40 -3v566h-62c1.33301 4 2 10.333 2 19c0 8 -0.666992 14.333 -2 19h62z" />
    <glyph glyph-name="nonbreakingspace" unicode="&#xa0;" horiz-adv-x="250" 
 />
    <glyph glyph-name="exclamdown" unicode="&#xa1;" horiz-adv-x="648" 
d="M505 830c-14.667 -31.333 -35.168 -56.167 -61.501 -74.5s-58.5 -27.5 -96.5 -27.5c-35.333 0 -66.166 9.66699 -92.499 29s-45.5 43.333 -57.5 72l23 17c28 -46.667 71.333 -70 130 -70c29.333 0 55 6 77 18s40 29.333 54 52zM318.999 165.999l-94.999 163.999l-101 167
l-117 184l62 -3l52 3c41.333 -85.333 82.666 -163.666 123.999 -234.999c36.667 -63.333 75.667 -125 117 -185h9l117.5 227.5c33 67 62.167 131.167 87.5 192.5l34 -3l36 3c-112.667 -204 -194.334 -357.333 -245.001 -460c-46.667 -94 -78 -168.667 -94 -224l-34 3l-45 -3
c34.667 54.667 65.334 111 92.001 169z" />
    <glyph glyph-name="cent" unicode="&#xa2;" horiz-adv-x="500" 
d="M26 475l48.001 -3l47 3c18 -55.333 39.5 -114.166 64.5 -176.499s53.167 -127.166 84.5 -194.499c21.333 43.333 47 102.666 77 177.999c24.667 61.333 49 125.666 73 192.999l33 -3l32 3l-114 -252l-108 -242c-40.667 -92.667 -74.334 -172.667 -101.001 -240l-34 3
l-34 -3l134 260zM420.001 624c-14.667 -31.333 -35.168 -56.167 -61.501 -74.5s-58.5 -27.5 -96.5 -27.5c-35.333 0 -66.166 9.66699 -92.499 29s-45.5 43.333 -57.5 72l23 17c28 -46.667 71.333 -70 130 -70c29.333 0 55 6 77 18s40 29.333 54 52z" />
    <glyph glyph-name="sterling" unicode="&#xa3;" horiz-adv-x="278" 
d="M198 87c0 -65.333 -18.167 -119.167 -54.5 -161.5s-86.166 -63.5 -149.499 -63.5l-8 27c49.333 0 83.666 19.667 102.999 59c14 28.667 21 70.667 21 126v607l44 -3l44 3v-594z" />
    <glyph glyph-name="currency" unicode="&#xa4;" 
d="M86 195c-37.333 47.333 -55.999 98 -55.999 152c0 30 4 57.167 12 81.5s21.667 47.833 41 70.5l-54 55l44 44l54 -55c22 18 46.333 31.5 73 40.5s53.667 13.5 81 13.5c55.333 0 104.666 -17.667 147.999 -53l53 53l43 -43l-53 -53c18.667 -22 32.5 -45.833 41.5 -71.5
s13.5 -52.5 13.5 -80.5c0 -27.333 -4.5 -53.833 -13.5 -79.5s-23.5 -50.167 -43.5 -73.5l53 -54l-43 -43l-53 53c-20.667 -16.667 -43.5 -29.5 -68.5 -38.5s-51.167 -13.5 -78.5 -13.5c-58 0 -108.333 17.333 -151 52l-53 -53l-44 42zM91.001 347
c0 -52 18.332 -96.001 54.999 -132.001s81.334 -54 134.001 -54c52 0 96 18.333 132 55s54 81 54 133c0 50.667 -18.167 94.5 -54.5 131.5s-79.833 55.5 -130.5 55.5c-52.667 0 -97.5 -18.167 -134.5 -54.5s-55.5 -81.166 -55.5 -134.499z" />
    <glyph glyph-name="yen" unicode="&#xa5;" horiz-adv-x="481" 
d="M236 681c54.667 0 89.001 0.666016 103.001 1.99902c47.333 4.66699 78.666 21.334 93.999 50.001h12c-2 -14 -3 -29 -3 -45v-15l3 -39h-267v-636l-44 2l-44 -2v683h146z" />
    <glyph glyph-name="brokenbar" unicode="&#xa6;" horiz-adv-x="333" 
d="M134 280h64v-280h-64v280zM198 748v-280h-64v280h64z" />
    <glyph glyph-name="section" unicode="&#xa7;" horiz-adv-x="500" 
d="M224 154c-54.667 23.333 -91.668 42.998 -111.001 58.998c-34.667 28.667 -52 65.667 -52 111c0 44.667 22.333 84.667 67 120c-18 32 -27 60.667 -27 86c0 50 16.667 90.167 50 120.5s75.333 45.5 126 45.5c54 0 98.667 -18.667 134 -56
c-6.66699 -8 -12.334 -16.5 -17.001 -25.5s-9 -19.833 -13 -32.5h-9c-9.33301 24 -23.5 43.5 -42.5 58.5s-39.167 22.5 -60.5 22.5c-14 0 -27.667 -1.83301 -41 -5.5s-25.5 -9.66699 -36.5 -18s-20.167 -19 -27.5 -32s-11 -27.167 -11 -42.5
c0 -23.333 6.33301 -42.666 19 -57.999s30.334 -28 53.001 -38l125 -55c27.333 -12.667 48.833 -29.667 64.5 -51s23.5 -46.666 23.5 -75.999c0 -23.333 -5 -45.5 -15 -66.5s-24 -41.5 -42 -61.5c25.333 -27.333 38 -54 38 -80c0 -59.333 -20 -107.166 -60 -143.499
s-90 -54.5 -150 -54.5c-24.667 0 -48.167 3.5 -70.5 10.5s-45.833 17.167 -70.5 30.5c4.66699 17.333 7.83398 31.833 9.50098 43.5s2.5 25.5 2.5 41.5h9c16.667 -30 38 -52.5 64 -67.5s55 -22.5 87 -22.5c33.333 0 62.833 12.5 88.5 37.5s38.5 49.5 38.5 73.5
c0 27.333 -8.66699 49.333 -26 66c-12 11.333 -33.333 23.666 -64 36.999zM310.999 203.998l54.999 -29.998c8.66699 13.333 15.5 25.666 20.5 36.999s7.5 23 7.5 35c0 20.667 -7.16699 39.167 -21.5 55.5s-34.833 30.5 -61.5 42.5l-104 47
c-11.333 4.66699 -22.833 10 -34.5 16s-21.167 13.333 -28.5 22c-10.667 -9.33301 -19.667 -20.5 -27 -33.5s-11 -25.833 -11 -38.5c0 -18.667 5.83301 -35.334 17.5 -50.001s28.834 -28.667 51.501 -42c13.333 -8 34 -18 62 -30z" />
    <glyph glyph-name="dieresis" unicode="&#xa8;" horiz-adv-x="500" 
d="M177 383h155.001c12.667 0 29.5 0.833008 50.5 2.5s33.833 2.5 38.5 2.5l-3 -26l3 -28c-12 0 -28.667 0.833008 -50 2.5s-34.333 2.5 -39 2.5h-155v-292c21.333 0 56.166 0.666992 104.499 2s73.833 2 76.5 2c18.667 0 32.334 0.5 41.001 1.5s25.667 3.5 51 7.5l-3 -30
l3 -30h-361v681h355l-3 -30l3 -30c-20 4 -36.333 6.83301 -49 8.5s-26.334 2.5 -41.001 2.5l-100 2h-77v-251zM331.001 803c0 12.667 4.5 23.5 13.5 32.5s19.833 13.5 32.5 13.5c12 0 22.667 -4.66699 32 -14s14 -20 14 -32s-4.66699 -22.667 -14 -32s-20 -14 -32 -14
s-22.667 4.66699 -32 14s-14 20 -14 32zM135.001 803c0 12.667 4.5 23.5 13.5 32.5s19.833 13.5 32.5 13.5s23.5 -4.5 32.5 -13.5s13.5 -19.833 13.5 -32.5c0 -12 -4.66699 -22.667 -14 -32s-20 -14 -32 -14s-22.667 4.66699 -32 14s-14 20 -14 32z" />
    <glyph glyph-name="copyright" unicode="&#xa9;" horiz-adv-x="750" 
d="M20 340c0 98 34.5 181.833 103.5 251.5s152.5 104.5 250.5 104.5s182 -34.667 252 -104s105 -153.333 105 -252s-34.833 -182.5 -104.5 -251.5s-153.834 -103.5 -252.501 -103.5c-97.333 0 -180.666 34.667 -249.999 104s-104 153 -104 251zM676 340
c0 83.333 -29.5 155.168 -88.5 215.501s-130.167 90.5 -213.5 90.5c-82 0 -152.333 -30.333 -211 -91s-88 -132.334 -88 -215.001s29.5 -154.167 88.5 -214.5s129.167 -90.5 210.5 -90.5c82.667 0 153.667 30 213 90s89 131.667 89 215zM507 174.002
c-17.333 -11.333 -37.335 -19.501 -60.002 -24.501s-46.334 -7.5 -71.001 -7.5c-65.333 0 -116.666 18 -153.999 54s-56 84.667 -56 146s21 109.5 63 144.5s95.667 52.5 161 52.5c44.667 0 87.334 -8.66699 128.001 -26c-4.66699 -11.333 -8.66699 -26.666 -12 -45.999h-4
c-6 9.33301 -18.333 18 -37 26c-24 10.667 -49.667 16 -77 16c-46.667 0 -84 -16 -112 -48s-42 -72.333 -42 -121c0 -52 14.333 -93 43 -123s64.334 -45 107.001 -45c27.333 0 54.666 5.33301 81.999 16c8.66699 3.33301 24.334 11.333 47.001 24z" />
    <glyph glyph-name="ordfeminine" unicode="&#xaa;" horiz-adv-x="667" 
d="M138 383l277.003 0.000976562c12.667 0 29.5 0.833008 50.5 2.5s33.833 2.5 38.5 2.5l-3 -26l3 -28c-12 0 -28.667 0.833008 -50 2.5s-34.333 2.5 -39 2.5h-279c0 -95.333 24.667 -171.666 74 -228.999s114 -86 194 -86c36 0 73 7.16699 111 21.5
s71.667 34.166 101 59.499l-5 -63c-29.333 -20 -63.333 -34.5 -102 -43.5s-78.334 -13.5 -119.001 -13.5c-109.333 0 -195.333 32.333 -258 97s-94 151.667 -94 261s36.333 196.333 109 261c69.333 61.333 158.666 92 267.999 92c35.333 0 71.5 -4 108.5 -12
s72.5 -19.333 106.5 -34c-4 -10 -8 -22.5 -12 -37.5s-7 -28.167 -9 -39.5l-7 -1c-7.33301 9.33301 -20.333 20.666 -39 33.999c-48.667 34.667 -99.334 52 -152.001 52c-80 0 -144.667 -27 -194 -81c-44.667 -49.333 -71 -114 -79 -194z" />
    <glyph glyph-name="guillemotleft" unicode="&#xab;" horiz-adv-x="500" 
d="M97 224l126.001 185.001c5.33301 -6.66699 10.666 -12 15.999 -16s12.333 -7.33301 21 -10l-112 -158l107 -165c-16 -4.66699 -28.667 -13.334 -38 -26.001zM240.001 224.001l126.001 185.001c5.33301 -6.66699 10.666 -12 15.999 -16s12.333 -7.33301 21 -10l-112 -158
l107 -165c-16 -4.66699 -28.667 -13.334 -38 -26.001z" />
    <glyph glyph-name="logicalnot" unicode="&#xac;" horiz-adv-x="606" 
d="M491 319h-440v64h504v-270h-64v206z" />
    <glyph glyph-name="minus" unicode="&#xad;" horiz-adv-x="333" 
d="M34 573v50h266v-50h-266z" />
    <glyph glyph-name="registered" unicode="&#xae;" horiz-adv-x="750" 
d="M19 341c0 98.667 34.834 182.5 104.501 251.5s153.834 103.5 252.501 103.5c97.333 0 180.666 -34.667 249.999 -104s104 -153 104 -251c0 -98.667 -34.333 -182.667 -103 -252s-152.334 -104 -251.001 -104c-98 0 -182 34.667 -252 104s-105 153.333 -105 252z
M675.001 341c0 83.333 -29.333 155.001 -88 215.001s-129 90 -211 90c-82.667 0 -153.667 -30 -213 -90s-89 -131.667 -89 -215c0 -82.667 29.667 -154.334 89 -215.001s130.333 -91 213 -91c82 0 152.333 30 211 90s88 132 88 216zM296.001 150.001l-25.999 3l-26 -3v382
h126c45.333 0 78.666 -7 99.999 -21s32 -35.333 32 -64c0 -30 -12.667 -54.333 -38 -73c-22 -16 -50 -27 -84 -33l123 -146l28 -31l11 -14l-34 3l-34 -3l-37 49l-71 85l-47 52h-23v-186zM296.002 366.001h65c26.667 0 48.167 6.83301 64.5 20.5s24.5 31.5 24.5 53.5
c0 41.333 -22.333 62 -67 62h-87v-136z" />
    <glyph glyph-name="macron" unicode="&#xaf;" horiz-adv-x="278" 
d="M95 681l44 -3l44 3v-684l-44 3l-44 -3v684zM191 803c0 12.667 4.5 23.5 13.5 32.5s19.833 13.5 32.5 13.5c12 0 22.667 -4.66699 32 -14s14 -20 14 -32s-4.66699 -22.667 -14 -32s-20 -14 -32 -14s-22.667 4.66699 -32 14s-14 20 -14 32zM-5 803
c0 12.667 4.5 23.5 13.5 32.5s19.833 13.5 32.5 13.5s23.5 -4.5 32.5 -13.5s13.5 -19.833 13.5 -32.5c0 -12 -4.66699 -22.667 -14 -32s-20 -14 -32 -14s-22.667 4.66699 -32 14s-14 20 -14 32z" />
    <glyph glyph-name="degree" unicode="&#xb0;" horiz-adv-x="400" 
d="M200 369c-41.333 0 -76.666 14.667 -105.999 44s-44 64.666 -44 105.999s14.667 76.666 44 105.999s64.666 44 105.999 44s76.666 -14.667 105.999 -44s44 -64.666 44 -105.999s-14.667 -76.666 -44 -105.999s-64.666 -44 -105.999 -44zM199 629
c-30 0 -55.666 -10.667 -76.999 -32s-32 -47.333 -32 -78s10.667 -56.667 32 -78s47.333 -32 78 -32c30 0 55.833 10.833 77.5 32.5s32.5 47.5 32.5 77.5s-10.833 55.833 -32.5 77.5s-47.834 32.5 -78.501 32.5z" />
    <glyph glyph-name="plusminus" unicode="&#xb1;" horiz-adv-x="606" 
d="M271 505h64v-159h220v-64h-220v-162h-64v162h-220v64h220v159zM51 0v64h504v-64h-504z" />
    <glyph glyph-name="twosuperior" unicode="&#xb2;" horiz-adv-x="278" 
d="M95 681l44 -3l44 3v-684l-44 3l-44 -3v684z" />
    <glyph glyph-name="threesuperior" unicode="&#xb3;" horiz-adv-x="278" 
d="M179 -3l-40 3l-40 -3v478l40 -3l40 3v-478zM139 595c-14 0 -25.999 5.00098 -35.999 15.001s-15 22 -15 36s5 26 15 36s22 15 36 15c13.333 0 25.166 -4.83301 35.499 -14.5s15.5 -21.834 15.5 -36.501c0 -14 -5 -26 -15 -36s-22 -15 -36 -15z" />
    <glyph glyph-name="acute" unicode="&#xb4;" horiz-adv-x="407" 
d="M157 434v-437l-40 3l-40 -3v473h146c48.667 0 80.334 1.33301 95.001 4c27.333 5.33301 49.666 17 66.999 35h10c-2 -16 -3 -30 -3 -42s1 -23 3 -33h-238z" />
    <glyph glyph-name="mu" unicode="&#xb5;" 
d="M393 475l40 -3.00098l40 3v-478l-40 3l-40 -3v86c-32.667 -62.667 -85.667 -94 -159 -94c-32.667 0 -61 9 -85 27v-275l-40 3l-40 -3v734l40 -3l40 3v-270c0 -56 9.16699 -97.833 27.5 -125.5s49.5 -41.5 93.5 -41.5c46 0 79.333 18 100 54
c15.333 26.667 23 62.334 23 107.001v276z" />
    <glyph glyph-name="paragraph" unicode="&#xb6;" horiz-adv-x="800" 
d="M409 649l0.000976562 -751l-31 3l-32 -3v426l-36 -3c-60 0 -106.667 15 -140 45c-36 32 -54 78 -54 138c0 32.667 6.66699 63 20 91s33.333 49 60 63c19.333 10 41.166 16.333 65.499 19s53.5 4 87.5 4h21h190v-783l-31 3l-32 -3v751h-88zM251.001 467
c0 -33.333 5 -59.668 15 -79.001c13.333 -25.333 35.333 -38 66 -38l14 1v298c-38 0 -64 -10.667 -78 -32c-11.333 -17.333 -17 -45.666 -17 -84.999v-65z" />
    <glyph glyph-name="periodcentered" unicode="&#xb7;" horiz-adv-x="278" 
d="M140 314c15.333 0 29 -5.99902 41 -17.999s18 -26 18 -42s-5.66699 -30 -17 -42s-25.333 -18 -42 -18s-31 5.66699 -43 17s-18 25.666 -18 42.999c0 16 6 30 18 42s26.333 18 43 18z" />
    <glyph glyph-name="periodcentered" unicode="&#x2219;" horiz-adv-x="278" 
d="M140 314c15.333 0 29 -5.99902 41 -17.999s18 -26 18 -42s-5.66699 -30 -17 -42s-25.333 -18 -42 -18s-31 5.66699 -43 17s-18 25.666 -18 42.999c0 16 6 30 18 42s26.333 18 43 18z" />
    <glyph glyph-name="cedilla" unicode="&#xb8;" horiz-adv-x="500" 
d="M302 597c0 12.667 4.5 23.5 13.5 32.5s19.833 13.5 32.5 13.5c12 0 22.667 -4.66699 32 -14s14 -20 14 -32s-4.66699 -22.667 -14 -32s-20 -14 -32 -14s-22.667 4.66699 -32 14s-14 20 -14 32zM106 597c0 12.667 4.5 23.5 13.5 32.5s19.833 13.5 32.5 13.5
s23.5 -4.5 32.5 -13.5s13.5 -19.833 13.5 -32.5c0 -12 -4.66699 -22.667 -14 -32s-20 -14 -32 -14s-22.667 4.66699 -32 14s-14 20 -14 32zM442 48c-26 -18.667 -53.334 -33.167 -82.001 -43.5s-58.667 -15.5 -90 -15.5c-70.667 0 -127.667 22 -171 66s-65 104 -65 180
c0 72.667 19.333 131 58 175c41.333 47.333 98.333 71 171 71c59.333 0 107 -19.667 143 -59c40 -43.333 60 -105.333 60 -186l-203 3h-141c0 -60 13.667 -108.667 41 -146c30.667 -41.333 74.667 -62 132 -62c30.667 0 60.334 8 89.001 24c19.333 10.667 39 25.667 59 45z
M387.999 276c0 51.333 -8.33301 91.334 -25 120.001c-20.667 36 -54 54 -100 54c-44.667 0 -80 -18.333 -106 -55c-23.333 -32.667 -35 -72.334 -35 -119.001h266z" />
    <glyph glyph-name="onesuperior" unicode="&#xb9;" horiz-adv-x="1111" 
d="M948 696c46.667 0 84.334 -14.668 113.001 -44.001c13.333 -13.333 23 -28.833 29 -46.5s9 -36.167 9 -55.5c0 -28.667 -7.5 -55 -22.5 -79s-34.667 -41.667 -59 -53s-51.166 -17 -80.499 -17c-22.667 0 -45 4.33301 -67 13c-8.66699 3.33301 -16.334 7 -23.001 11
s-15.667 11.667 -27 23c-14.667 14.667 -24.5 30 -29.5 46s-7.5 35.333 -7.5 58c0 42.667 15.667 77.334 47 104.001s70.666 40 117.999 40zM840 542.999c0 -34 7.66797 -62 23.001 -84c18.667 -26.667 45 -40 79 -40s60 16.333 78 49c14.667 26 22 54.333 22 85
c0 32 -6.66699 59.333 -20 82c-16.667 28.667 -41.334 43 -74.001 43c-38 0 -66.333 -14.667 -85 -44c-15.333 -24 -23 -54.333 -23 -91zM1086 342.999v-30h-290v30h290zM680.001 -3.00098h-30l-52 61l-432 478h-10v-539l-28 3l-28 -3v684h39l475 -515h10v515l28 -3l28 3
v-684z" />
    <glyph glyph-name="ordmasculine" unicode="&#xba;" horiz-adv-x="481" 
d="M124 269h94.002c23.333 0 44.333 0.333008 63 1s37 2 55 4v-45l-118 3h-95c0 -61.333 16.833 -111.5 50.5 -150.5s77.5 -58.5 131.5 -58.5c27.333 0 52.333 6 75 18c17.333 9.33301 38.333 25 63 47l6 -3l-5 -46c-45.333 -33.333 -96.333 -50 -153 -50
c-81.333 0 -145 23.667 -191 71c-43.333 44.667 -65 103.667 -65 177c0 76 24 135.667 72 179s110.333 65 187 65c30.667 0 58.667 -3.16699 84 -9.5s50 -16.833 74 -31.5l-23 -66h-8l-13 17.5c-4.66699 6.33301 -9.33398 11.5 -14.001 15.5
c-11.333 12.667 -26 22.5 -44 29.5s-36.333 10.5 -55 10.5c-50.667 0 -91.334 -17.667 -122.001 -53c-28 -32 -44.333 -73.667 -49 -125z" />
    <glyph glyph-name="guillemotright" unicode="&#xbb;" horiz-adv-x="500" 
d="M403 219l-126.001 -185.001c-5.33301 6.66699 -10.666 12 -15.999 16s-12.333 7.33301 -21 10l112 158l-107 165c16 4.66699 28.667 13.334 38 26.001zM259.999 218.999l-126.001 -185.001c-5.33301 6.66699 -10.666 12 -15.999 16s-12.333 7.33301 -21 10l112 158
l-107 165c16 4.66699 28.667 13.334 38 26.001z" />
    <glyph glyph-name="onequarter" unicode="&#xbc;" horiz-adv-x="278" 
d="M105 475l40 -3.00098l40 3v-483c0 -48 -3.33301 -86 -10 -114c-9.33301 -39.333 -27 -71.666 -53 -96.999c-34 -30 -72.333 -45 -115 -45l-7 32l9 -2c2.66699 -0.666992 6.33398 -1 11.001 -1c13.333 0 25.666 6.66699 36.999 20c8 10 16.5 25.5 25.5 46.5
s15 45.5 18 73.5s4.5 58.333 4.5 91v479zM145 594.999c-14 0 -25.999 5.00098 -35.999 15.001s-15 22 -15 36s5 26 15 36s22 15 36 15c13.333 0 25.166 -4.83301 35.499 -14.5s15.5 -21.834 15.5 -36.501c0 -14 -5 -26 -15 -36s-22 -15 -36 -15z" />
    <glyph glyph-name="onehalf" unicode="&#xbd;" horiz-adv-x="500" 
d="M74 132c21.333 -34.667 43.332 -59.999 65.999 -75.999c26.667 -18.667 58.667 -28 96 -28c40 0 73.167 14.167 99.5 42.5s39.5 62.833 39.5 103.5c0 50.667 -27 90 -81 118l-151 67c-54 32.667 -81 81 -81 145c0 61.333 22 109.333 66 144c40.667 32 92.667 48 156 48
c26.667 0 52.667 -4 78 -12s47 -20 65 -36c-4.66699 -10.667 -8.66699 -20.667 -12 -30c-0.666992 -2 -5.66699 -19.333 -15 -52h-10c-10.667 28 -26.5 49.5 -47.5 64.5s-46.5 22.5 -76.5 22.5c-35.333 0 -65.166 -10.833 -89.499 -32.5s-36.5 -49.834 -36.5 -84.501
c0 -50.667 27 -90 81 -118l152 -67c54.667 -32 82 -78 82 -138c0 -70 -24 -126 -72 -168c-45.333 -40 -103.666 -60 -174.999 -60c-27.333 0 -57.333 5.33301 -90 16s-57 24.667 -73 42c5.33301 14.667 9.16602 28.167 11.499 40.5s4.83301 28.5 7.5 48.5h10z" />
    <glyph glyph-name="threequarters" unicode="&#xbe;" horiz-adv-x="389" 
d="M71 94c12.667 -21.333 29.333 -38.998 50 -52.998s42.334 -21 65.001 -21c25.333 0 48 8.66699 68 26s30 39 30 65c0 41.333 -39.333 73.333 -118 96s-118 64.667 -118 126c0 46.667 15.333 83 46 109s69.667 39 117 39c23.333 0 45.5 -2.83301 66.5 -8.5
s36.5 -11.5 46.5 -17.5c-10 -22.667 -18 -46.334 -24 -71.001h-9c-6.66699 17.333 -18 32.666 -34 45.999s-33 20 -51 20c-26 0 -47.667 -7.33301 -65 -22s-26 -35 -26 -61c0 -40 39.333 -72.667 118 -98s118 -66 118 -122c0 -50 -19.667 -89.667 -59 -119
c-34.667 -26 -76.334 -39 -125.001 -39c-20.667 0 -42.5 2.83301 -65.5 8.5s-42.833 13.5 -59.5 23.5l12 36.5c4 12.333 7 24.5 9 36.5h8z" />
    <glyph glyph-name="questiondown" unicode="&#xbf;" horiz-adv-x="278" 
d="M179 -3l-40 3l-40 -3v478l40 -3l40 3v-478zM191 597c0 12.667 4.5 23.5 13.5 32.5s19.833 13.5 32.5 13.5c12 0 22.667 -4.66699 32 -14s14 -20 14 -32s-4.66699 -22.667 -14 -32s-20 -14 -32 -14s-22.667 4.66699 -32 14s-14 20 -14 32zM-5 597
c0 12.667 4.5 23.5 13.5 32.5s19.833 13.5 32.5 13.5s23.5 -4.5 32.5 -13.5s13.5 -19.833 13.5 -32.5c0 -12 -4.66699 -22.667 -14 -32s-20 -14 -32 -14s-22.667 4.66699 -32 14s-14 20 -14 32z" />
    <glyph glyph-name="Agrave" unicode="&#xc0;" horiz-adv-x="648" 
d="M641 -3l-51.998 2.99902l-53 -3c-24 68.667 -44.333 124 -61 166c-10.667 26.667 -25.334 61.334 -44.001 104.001h-254c-38.667 -96.667 -60.334 -151.667 -65.001 -165c-10 -26.667 -21.333 -61.667 -34 -105l-37 3l-35 -3l312 699h23zM305.002 564.999l-109 -256h220z
" />
    <glyph glyph-name="Agrave" unicode="&#x410;" horiz-adv-x="648" 
d="M641 -3l-51.998 2.99902l-53 -3c-24 68.667 -44.333 124 -61 166c-10.667 26.667 -25.334 61.334 -44.001 104.001h-254c-38.667 -96.667 -60.334 -151.667 -65.001 -165c-10 -26.667 -21.333 -61.667 -34 -105l-37 3l-35 -3l312 699h23zM305.002 564.999l-109 -256h220z
" />
    <glyph glyph-name="Aacute" unicode="&#xc1;" horiz-adv-x="593" 
d="M179 41h100.002c49.333 0 89.5 15.5 120.5 46.5s46.5 69.167 46.5 114.5c0 36 -10.333 66.667 -31 92c-22.667 28 -45.834 43.167 -69.501 45.5s-42.334 3.5 -56.001 3.5h-32.5c-14.667 0 -28.5 -0.166992 -41.5 -0.5s-25.167 -0.5 -36.5 -0.5v-301zM91.002 681
l405 0.000976562c-0.666992 -2 -1.33398 -5.83301 -2.00098 -11.5s-1 -11.834 -1 -18.501l3 -30c-20 4 -36.333 6.83301 -49 8.5s-26.334 2.5 -41.001 2.5l-120 2h-107v-253h92c96.667 0 165.5 -13.5 206.5 -40.5s61.5 -71.5 61.5 -133.5
c0 -60.667 -20.5 -110.167 -61.5 -148.5s-95.167 -57.5 -162.5 -57.5c-29.333 0 -62.666 -0.166992 -99.999 -0.5s-78.666 -0.5 -123.999 -0.5v681z" />
    <glyph glyph-name="Aacute" unicode="&#x411;" horiz-adv-x="593" 
d="M179 41h100.002c49.333 0 89.5 15.5 120.5 46.5s46.5 69.167 46.5 114.5c0 36 -10.333 66.667 -31 92c-22.667 28 -45.834 43.167 -69.501 45.5s-42.334 3.5 -56.001 3.5h-32.5c-14.667 0 -28.5 -0.166992 -41.5 -0.5s-25.167 -0.5 -36.5 -0.5v-301zM91.002 681
l405 0.000976562c-0.666992 -2 -1.33398 -5.83301 -2.00098 -11.5s-1 -11.834 -1 -18.501l3 -30c-20 4 -36.333 6.83301 -49 8.5s-26.334 2.5 -41.001 2.5l-120 2h-107v-253h92c96.667 0 165.5 -13.5 206.5 -40.5s61.5 -71.5 61.5 -133.5
c0 -60.667 -20.5 -110.167 -61.5 -148.5s-95.167 -57.5 -162.5 -57.5c-29.333 0 -62.666 -0.166992 -99.999 -0.5s-78.666 -0.5 -123.999 -0.5v681z" />
    <glyph glyph-name="Acircumflex" unicode="&#xc2;" horiz-adv-x="593" 
d="M90 681l201 0.000976562c76.667 0 133 -10.333 169 -31s54 -56.334 54 -107.001c0 -44.667 -14.833 -82.5 -44.5 -113.5s-67.5 -52.167 -113.5 -63.5c46 0 86 -11.667 120 -35c42 -28.667 63 -69.334 63 -122.001c0 -71.333 -30 -127.666 -90 -168.999
c-26 -18 -59.667 -29.667 -101 -35c-25.333 -3.33301 -62 -5 -110 -5h-148v681zM178 381.001h43.999c28.667 0 52.334 1.16699 71.001 3.5s37.667 7.83301 57 16.5c51.333 22.667 77 63 77 121c0 44.667 -14.333 76.167 -43 94.5s-71 27.5 -127 27.5h-79v-263z
M177.999 37.001h100.001c49.333 0 89.666 14.333 120.999 43s47 66 47 112c0 55.333 -19.333 95 -58 119c-33.333 20.667 -83 31 -149 31h-61v-305z" />
    <glyph glyph-name="Acircumflex" unicode="&#x412;" horiz-adv-x="593" 
d="M90 681l201 0.000976562c76.667 0 133 -10.333 169 -31s54 -56.334 54 -107.001c0 -44.667 -14.833 -82.5 -44.5 -113.5s-67.5 -52.167 -113.5 -63.5c46 0 86 -11.667 120 -35c42 -28.667 63 -69.334 63 -122.001c0 -71.333 -30 -127.666 -90 -168.999
c-26 -18 -59.667 -29.667 -101 -35c-25.333 -3.33301 -62 -5 -110 -5h-148v681zM178 381.001h43.999c28.667 0 52.334 1.16699 71.001 3.5s37.667 7.83301 57 16.5c51.333 22.667 77 63 77 121c0 44.667 -14.333 76.167 -43 94.5s-71 27.5 -127 27.5h-79v-263z
M177.999 37.001h100.001c49.333 0 89.666 14.333 120.999 43s47 66 47 112c0 55.333 -19.333 95 -58 119c-33.333 20.667 -83 31 -149 31h-61v-305z" />
    <glyph glyph-name="Atilde" unicode="&#xc3;" horiz-adv-x="481" 
d="M90 681h355.001l-3 -30l3 -30c-20 4 -36.333 6.83301 -49 8.5s-26.334 2.5 -41.001 2.5l-100 2h-77v-636l-44 2l-44 -2v683z" />
    <glyph glyph-name="Atilde" unicode="&#x413;" horiz-adv-x="481" 
d="M90 681h355.001l-3 -30l3 -30c-20 4 -36.333 6.83301 -49 8.5s-26.334 2.5 -41.001 2.5l-100 2h-77v-636l-44 2l-44 -2v683z" />
    <glyph glyph-name="Adieresis" unicode="&#xc4;" horiz-adv-x="667" 
d="M40 47l89 200.001l105 242c42 98 68.333 162 79 192h46l55 -134l115 -276l97 -224h43c-2 -11.333 -3 -24.333 -3 -39l3 -60h-12c-12.667 23.333 -32.667 37.833 -60 43.5s-73 8.5 -137 8.5h-244c-54.667 0 -89.334 -0.666992 -104.001 -2
c-47.333 -4.66699 -81.666 -21.334 -102.999 -50.001h-12l3 60l-3 39h43zM532 50.001l-65.001 167l-75 187l-68 168h-7l-107 -246c-37.333 -90.667 -72.666 -182.667 -105.999 -276l214 -3z" />
    <glyph glyph-name="Adieresis" unicode="&#x414;" horiz-adv-x="667" 
d="M40 47l89 200.001l105 242c42 98 68.333 162 79 192h46l55 -134l115 -276l97 -224h43c-2 -11.333 -3 -24.333 -3 -39l3 -60h-12c-12.667 23.333 -32.667 37.833 -60 43.5s-73 8.5 -137 8.5h-244c-54.667 0 -89.334 -0.666992 -104.001 -2
c-47.333 -4.66699 -81.666 -21.334 -102.999 -50.001h-12l3 60l-3 39h43zM532 50.001l-65.001 167l-75 187l-68 168h-7l-107 -246c-37.333 -90.667 -72.666 -182.667 -105.999 -276l214 -3z" />
    <glyph glyph-name="Aring" unicode="&#xc5;" horiz-adv-x="500" 
d="M177 383h155.001c12.667 0 29.5 0.833008 50.5 2.5s33.833 2.5 38.5 2.5l-3 -26l3 -28c-12 0 -28.667 0.833008 -50 2.5s-34.333 2.5 -39 2.5h-155v-292c21.333 0 56.166 0.666992 104.499 2s73.833 2 76.5 2c18.667 0 32.334 0.5 41.001 1.5s25.667 3.5 51 7.5l-3 -30
l3 -30h-361v681h355l-3 -30l3 -30c-20 4 -36.333 6.83301 -49 8.5s-26.334 2.5 -41.001 2.5l-100 2h-77v-251z" />
    <glyph glyph-name="Aring" unicode="&#x415;" horiz-adv-x="500" 
d="M177 383h155.001c12.667 0 29.5 0.833008 50.5 2.5s33.833 2.5 38.5 2.5l-3 -26l3 -28c-12 0 -28.667 0.833008 -50 2.5s-34.333 2.5 -39 2.5h-155v-292c21.333 0 56.166 0.666992 104.499 2s73.833 2 76.5 2c18.667 0 32.334 0.5 41.001 1.5s25.667 3.5 51 7.5l-3 -30
l3 -30h-361v681h355l-3 -30l3 -30c-20 4 -36.333 6.83301 -49 8.5s-26.334 2.5 -41.001 2.5l-100 2h-77v-251z" />
    <glyph glyph-name="AE" unicode="&#xc6;" horiz-adv-x="889" 
d="M489 681l0.000976562 -308.997c2 -0.666992 4.33301 -1.33398 7 -2.00098c5.33301 1.33301 10.833 4.33301 16.5 9s31.167 32.334 76.5 83.001l126 143l66 76l40 -3l39 3l-285 -304c20 -23.333 57.333 -69.333 112 -138l125 -160l60 -77v-5l-55 3l-56 -3
c-15.333 22.667 -40.333 57.334 -75 104.001l-118 159l-62 83c0 1.33301 -2.66699 2.66602 -8 3.99902c-3.33301 -0.666992 -6.33301 -1 -9 -1v-349l-46 3l-42 -3v349c-2.66699 0 -5.33398 0.333008 -8.00098 1c-6 -0.666992 -9 -2 -9 -4l-61 -82l-117 -160l-77 -104l-56 3
l-55 -3v5l59 76l125 160c53.333 67.333 91 113.666 113 138.999l-285 304l39 -3l40 3l66 -75l126 -143c47.333 -52.667 73.833 -81.334 79.5 -86.001s10.5 -7.33398 14.5 -8.00098s6 0.333008 6 3v309l44 -3z" />
    <glyph glyph-name="AE" unicode="&#x416;" horiz-adv-x="889" 
d="M489 681l0.000976562 -308.997c2 -0.666992 4.33301 -1.33398 7 -2.00098c5.33301 1.33301 10.833 4.33301 16.5 9s31.167 32.334 76.5 83.001l126 143l66 76l40 -3l39 3l-285 -304c20 -23.333 57.333 -69.333 112 -138l125 -160l60 -77v-5l-55 3l-56 -3
c-15.333 22.667 -40.333 57.334 -75 104.001l-118 159l-62 83c0 1.33301 -2.66699 2.66602 -8 3.99902c-3.33301 -0.666992 -6.33301 -1 -9 -1v-349l-46 3l-42 -3v349c-2.66699 0 -5.33398 0.333008 -8.00098 1c-6 -0.666992 -9 -2 -9 -4l-61 -82l-117 -160l-77 -104l-56 3
l-55 -3v5l59 76l125 160c53.333 67.333 91 113.666 113 138.999l-285 304l39 -3l40 3l66 -75l126 -143c47.333 -52.667 73.833 -81.334 79.5 -86.001s10.5 -7.33398 14.5 -8.00098s6 0.333008 6 3v309l44 -3z" />
    <glyph glyph-name="Ccedilla" unicode="&#xc7;" horiz-adv-x="536" 
d="M49 48l2 57.001c23.333 -25.333 50.5 -45.166 81.5 -59.499s61.833 -21.5 92.5 -21.5c49.333 0 89.333 17 120 51s46 75 46 123c0 43.333 -13 77.666 -39 102.999c-29.333 28 -72 42 -128 42c-10 0 -19.667 -0.166992 -29 -0.5s-20 -1.5 -32 -3.5
c1.33301 9.33301 2 16.333 2 21v9c-1.33301 6 -2 10.333 -2 13c7.33301 -1.33301 14.166 -2 20.499 -2h19.5c51.333 0 90.5 13.5 117.5 40.5s40.5 61.5 40.5 103.5c0 39.333 -11 71 -33 95c-24 26 -57.667 39 -101 39c-39.333 0 -73.333 -9.66699 -102 -29
c-23.333 -16 -42.333 -37 -57 -63l-14 2c0 9.33301 0.333008 24.333 1 45s1 35.334 1 44.001c58 26 118.667 39 182 39c70.667 0 124.167 -14.333 160.5 -43s54.5 -66.334 54.5 -113.001c0 -38.667 -12 -73.334 -36 -104.001s-59 -54.334 -105 -71.001
c56.667 0 100.334 -16 131.001 -48c28.667 -30 43 -68.333 43 -115c0 -60 -22 -110.333 -66 -151c-47.333 -44 -110.333 -66 -189 -66c-34 0 -65.833 4.83301 -95.5 14.5s-58.5 25.834 -86.5 48.501z" />
    <glyph glyph-name="Ccedilla" unicode="&#x417;" horiz-adv-x="536" 
d="M49 48l2 57.001c23.333 -25.333 50.5 -45.166 81.5 -59.499s61.833 -21.5 92.5 -21.5c49.333 0 89.333 17 120 51s46 75 46 123c0 43.333 -13 77.666 -39 102.999c-29.333 28 -72 42 -128 42c-10 0 -19.667 -0.166992 -29 -0.5s-20 -1.5 -32 -3.5
c1.33301 9.33301 2 16.333 2 21v9c-1.33301 6 -2 10.333 -2 13c7.33301 -1.33301 14.166 -2 20.499 -2h19.5c51.333 0 90.5 13.5 117.5 40.5s40.5 61.5 40.5 103.5c0 39.333 -11 71 -33 95c-24 26 -57.667 39 -101 39c-39.333 0 -73.333 -9.66699 -102 -29
c-23.333 -16 -42.333 -37 -57 -63l-14 2c0 9.33301 0.333008 24.333 1 45s1 35.334 1 44.001c58 26 118.667 39 182 39c70.667 0 124.167 -14.333 160.5 -43s54.5 -66.334 54.5 -113.001c0 -38.667 -12 -73.334 -36 -104.001s-59 -54.334 -105 -71.001
c56.667 0 100.334 -16 131.001 -48c28.667 -30 43 -68.333 43 -115c0 -60 -22 -110.333 -66 -151c-47.333 -44 -110.333 -66 -189 -66c-34 0 -65.833 4.83301 -95.5 14.5s-58.5 25.834 -86.5 48.501z" />
    <glyph glyph-name="Egrave" unicode="&#xc8;" horiz-adv-x="778" 
d="M90 681c2.66699 -0.666992 8 -1.33301 16 -2s17.333 -1 28 -1l44 3v-522h10c0.666992 0 12.667 12.667 36 38l82 90l88 99l109 127c2 2.66699 34.333 41.667 97 117c28 34 42.333 51 43 51h44v-684l-44 3l-44 -3v546h-10l-31 -34l-79 -87l-104 -118l-118 -138l-90.5 -110
c-25 -31.333 -39.833 -51 -44.5 -59h-32v684z" />
    <glyph glyph-name="Egrave" unicode="&#x418;" horiz-adv-x="778" 
d="M90 681c2.66699 -0.666992 8 -1.33301 16 -2s17.333 -1 28 -1l44 3v-522h10c0.666992 0 12.667 12.667 36 38l82 90l88 99l109 127c2 2.66699 34.333 41.667 97 117c28 34 42.333 51 43 51h44v-684l-44 3l-44 -3v546h-10l-31 -34l-79 -87l-104 -118l-118 -138l-90.5 -110
c-25 -31.333 -39.833 -51 -44.5 -59h-32v684z" />
    <glyph glyph-name="Eacute" unicode="&#xc9;" horiz-adv-x="778" 
d="M90 681c2.66699 -0.666992 8 -1.33301 16 -2s17.333 -1 28 -1l44 3v-522h10c0.666992 0 12.667 12.667 36 38l82 90l88 99l109 127c2 2.66699 34.333 41.667 97 117c28 34 42.333 51 43 51h44v-684l-44 3l-44 -3v546h-10l-31 -34l-79 -87l-104 -118l-118 -138l-90.5 -110
c-25 -31.333 -39.833 -51 -44.5 -59h-32v684zM546 830.001c-14.667 -32 -34.334 -56.333 -59.001 -73c-28 -19.333 -61 -29 -99 -29c-35.333 0 -66.166 9.66699 -92.499 29s-45.5 43.333 -57.5 72l23 17c28 -46.667 71.333 -70 130 -70c29.333 0 55 6 77 18s40 29.333 54 52
z" />
    <glyph glyph-name="Eacute" unicode="&#x419;" horiz-adv-x="778" 
d="M90 681c2.66699 -0.666992 8 -1.33301 16 -2s17.333 -1 28 -1l44 3v-522h10c0.666992 0 12.667 12.667 36 38l82 90l88 99l109 127c2 2.66699 34.333 41.667 97 117c28 34 42.333 51 43 51h44v-684l-44 3l-44 -3v546h-10l-31 -34l-79 -87l-104 -118l-118 -138l-90.5 -110
c-25 -31.333 -39.833 -51 -44.5 -59h-32v684zM546 830.001c-14.667 -32 -34.334 -56.333 -59.001 -73c-28 -19.333 -61 -29 -99 -29c-35.333 0 -66.166 9.66699 -92.499 29s-45.5 43.333 -57.5 72l23 17c28 -46.667 71.333 -70 130 -70c29.333 0 55 6 77 18s40 29.333 54 52
z" />
    <glyph glyph-name="Ecircumflex" unicode="&#xca;" horiz-adv-x="611" 
d="M354 463l-85.002 -85.998l243 -275l81 -100v-5l-55 3l-56 -3l-33.5 46.5c-11.667 15.667 -23.5 30.5 -35.5 44.5l-218 255c-3.33301 2.66699 -7.66602 4.33398 -12.999 5.00098c-2.66699 -0.666992 -4 -1.33398 -4 -2.00098v-349l-44 3l-44 -3v684l44 -3l44 3v-309
c0.666992 -2.66699 3.83398 -3.33398 9.50098 -2.00098s11.167 4.16602 16.5 8.49902s16.333 14.5 33 30.5c6 6 12.333 12 19 18l246 254l40 -3l39 3z" />
    <glyph glyph-name="Ecircumflex" unicode="&#x41a;" horiz-adv-x="611" 
d="M354 463l-85.002 -85.998l243 -275l81 -100v-5l-55 3l-56 -3l-33.5 46.5c-11.667 15.667 -23.5 30.5 -35.5 44.5l-218 255c-3.33301 2.66699 -7.66602 4.33398 -12.999 5.00098c-2.66699 -0.666992 -4 -1.33398 -4 -2.00098v-349l-44 3l-44 -3v684l44 -3l44 3v-309
c0.666992 -2.66699 3.83398 -3.33398 9.50098 -2.00098s11.167 4.16602 16.5 8.49902s16.333 14.5 33 30.5c6 6 12.333 12 19 18l246 254l40 -3l39 3z" />
    <glyph glyph-name="Edieresis" unicode="&#xcb;" horiz-adv-x="648" 
d="M79 -3l-36.999 2.99902l-36 -3c12 22.667 39.667 82.334 83 179.001l126 289c49.333 114.667 78.666 186.667 87.999 216h47l65 -158l130 -310c50 -118.667 81.667 -190.667 95 -216l-48 3l-49 -3l-227 575h-9c-47.333 -106.667 -90.833 -210 -130.5 -310
s-72.167 -188.333 -97.5 -265z" />
    <glyph glyph-name="Edieresis" unicode="&#x41b;" horiz-adv-x="648" 
d="M79 -3l-36.999 2.99902l-36 -3c12 22.667 39.667 82.334 83 179.001l126 289c49.333 114.667 78.666 186.667 87.999 216h47l65 -158l130 -310c50 -118.667 81.667 -190.667 95 -216l-48 3l-49 -3l-227 575h-9c-47.333 -106.667 -90.833 -210 -130.5 -310
s-72.167 -188.333 -97.5 -265z" />
    <glyph glyph-name="Igrave" unicode="&#xcc;" horiz-adv-x="889" 
d="M761 681l25.998 -244c10.667 -98 19.5 -174.167 26.5 -228.5l28.5 -211.5l-47 3l-47 -3l-16.5 191c-5 60.667 -10.667 120.667 -17 180s-12.166 107.666 -17.499 144.999l-106 -192l-87 -166c-25.333 -51.333 -48.333 -100.333 -69 -147h-11l-55 113l-64 129.5l-69 132.5
l-69 130l-33 -289c-10.667 -97.333 -16 -173 -16 -227l-35 3l-36 -3c14 86.667 32.333 209.834 55 369.501s36.334 264.5 41.001 314.5h26l85 -167l95 -177c40 -72.667 74.333 -132.667 103 -180l288 524h21z" />
    <glyph glyph-name="Igrave" unicode="&#x41c;" horiz-adv-x="889" 
d="M761 681l25.998 -244c10.667 -98 19.5 -174.167 26.5 -228.5l28.5 -211.5l-47 3l-47 -3l-16.5 191c-5 60.667 -10.667 120.667 -17 180s-12.166 107.666 -17.499 144.999l-106 -192l-87 -166c-25.333 -51.333 -48.333 -100.333 -69 -147h-11l-55 113l-64 129.5l-69 132.5
l-69 130l-33 -289c-10.667 -97.333 -16 -173 -16 -227l-35 3l-36 -3c14 86.667 32.333 209.834 55 369.501s36.334 264.5 41.001 314.5h26l85 -167l95 -177c40 -72.667 74.333 -132.667 103 -180l288 524h21z" />
    <glyph glyph-name="Iacute" unicode="&#xcd;" horiz-adv-x="778" 
d="M599 681l44.001 -3l44 3v-684l-44 3l-44 -3v344c-32.667 0 -59 0.333008 -79 1c-80 2.66699 -123.667 4 -131 4c-32 0 -73 -0.833008 -123 -2.5s-79.333 -2.5 -88 -2.5v-344l-44 3l-44 -3v684l44 -3l44 3v-287c33.333 0 75.166 -0.833008 125.499 -2.5
s78.833 -2.5 85.5 -2.5c32 0 58 0.333008 78 1c80 2.66699 124 4 132 4v287z" />
    <glyph glyph-name="Iacute" unicode="&#x41d;" horiz-adv-x="778" 
d="M599 681l44.001 -3l44 3v-684l-44 3l-44 -3v344c-32.667 0 -59 0.333008 -79 1c-80 2.66699 -123.667 4 -131 4c-32 0 -73 -0.833008 -123 -2.5s-79.333 -2.5 -88 -2.5v-344l-44 3l-44 -3v684l44 -3l44 3v-287c33.333 0 75.166 -0.833008 125.499 -2.5
s78.833 -2.5 85.5 -2.5c32 0 58 0.333008 78 1c80 2.66699 124 4 132 4v287z" />
    <glyph glyph-name="Icircumflex" unicode="&#xce;" horiz-adv-x="833" 
d="M42 339c0 107.333 35.667 194.335 107 261.002c68.667 64 156.334 96 263.001 96c104 0 190.667 -27 260 -81c79.333 -62 119 -149 119 -261c0 -110.667 -35.333 -199.834 -106 -267.501s-162.334 -101.5 -275.001 -101.5c-111.333 0 -200.5 32.167 -267.5 96.5
s-100.5 150.166 -100.5 257.499zM630 566.002c-24.667 31.333 -55.168 55.333 -91.501 72s-75.166 25 -116.499 25c-87.333 0 -156.166 -30.5 -206.499 -91.5s-75.5 -142.5 -75.5 -244.5c0 -98 26.667 -175 80 -231c50 -52 114.333 -78 193 -78c94 0 167 40.667 219 122
c40.667 63.333 61 132 61 206c0 45.333 -4.33301 85.5 -13 120.5s-25.334 68.167 -50.001 99.5z" />
    <glyph glyph-name="Icircumflex" unicode="&#x41e;" horiz-adv-x="833" 
d="M42 339c0 107.333 35.667 194.335 107 261.002c68.667 64 156.334 96 263.001 96c104 0 190.667 -27 260 -81c79.333 -62 119 -149 119 -261c0 -110.667 -35.333 -199.834 -106 -267.501s-162.334 -101.5 -275.001 -101.5c-111.333 0 -200.5 32.167 -267.5 96.5
s-100.5 150.166 -100.5 257.499zM630 566.002c-24.667 31.333 -55.168 55.333 -91.501 72s-75.166 25 -116.499 25c-87.333 0 -156.166 -30.5 -206.499 -91.5s-75.5 -142.5 -75.5 -244.5c0 -98 26.667 -175 80 -231c50 -52 114.333 -78 193 -78c94 0 167 40.667 219 122
c40.667 63.333 61 132 61 206c0 45.333 -4.33301 85.5 -13 120.5s-25.334 68.167 -50.001 99.5z" />
    <glyph glyph-name="Idieresis" unicode="&#xcf;" horiz-adv-x="778" 
d="M687 681v-684l-44 3l-44 -3v634l-210 3l-211 -3v-634l-44 3l-44 -3v684h597z" />
    <glyph glyph-name="Idieresis" unicode="&#x41f;" horiz-adv-x="778" 
d="M687 681v-684l-44 3l-44 -3v634l-210 3l-211 -3v-634l-44 3l-44 -3v684h597z" />
    <glyph glyph-name="Eth" unicode="&#xd0;" horiz-adv-x="574" 
d="M178 -3l-43.999 3l-44 -3v684h179c97.333 0 164.666 -12 201.999 -36s56 -66.667 56 -128c0 -58.667 -18 -104.334 -54 -137.001c-33.333 -30 -86.666 -52.333 -159.999 -67c-8.66699 -2 -20.334 -3.33301 -35.001 -4s-23 -1 -25 -1c-15.333 0 -29 0.333008 -41 1
s-23.333 1.33398 -34 2.00098v-314zM178.001 350c2 -0.666992 11.001 -1 27.001 -1c6 -0.666992 12.333 -1 19 -1h20h16c8 1.33301 13.667 2 17 2c49.333 4.66699 88 21.667 116 51s42 66.333 42 111c0 36 -8.66699 65 -26 87c-19.333 24.667 -41 38.167 -65 40.5
s-42.833 3.5 -56.5 3.5h-32.5c-14.667 0 -28.334 -0.166992 -41.001 -0.5s-24.667 -0.5 -36 -0.5v-292z" />
    <glyph glyph-name="Eth" unicode="&#x420;" horiz-adv-x="574" 
d="M178 -3l-43.999 3l-44 -3v684h179c97.333 0 164.666 -12 201.999 -36s56 -66.667 56 -128c0 -58.667 -18 -104.334 -54 -137.001c-33.333 -30 -86.666 -52.333 -159.999 -67c-8.66699 -2 -20.334 -3.33301 -35.001 -4s-23 -1 -25 -1c-15.333 0 -29 0.333008 -41 1
s-23.333 1.33398 -34 2.00098v-314zM178.001 350c2 -0.666992 11.001 -1 27.001 -1c6 -0.666992 12.333 -1 19 -1h20h16c8 1.33301 13.667 2 17 2c49.333 4.66699 88 21.667 116 51s42 66.333 42 111c0 36 -8.66699 65 -26 87c-19.333 24.667 -41 38.167 -65 40.5
s-42.833 3.5 -56.5 3.5h-32.5c-14.667 0 -28.334 -0.166992 -41.001 -0.5s-24.667 -0.5 -36 -0.5v-292z" />
    <glyph glyph-name="Ntilde" unicode="&#xd1;" horiz-adv-x="667" 
d="M611 42c-29.333 -20 -63.3301 -34.498 -101.997 -43.498s-78.334 -13.5 -119.001 -13.5c-109.333 0 -195.333 32.333 -258 97s-94 151.667 -94 261s36.333 196.333 109 261c69.333 61.333 158.666 92 267.999 92c35.333 0 71.5 -4 108.5 -12s72.5 -19.333 106.5 -34
c-4 -10 -8 -22.5 -12 -37.5s-7 -28.167 -9 -39.5l-7 -1c-7.33301 9.33301 -20.333 20.666 -39 33.999c-48.667 34.667 -99.334 52 -152.001 52c-88 0 -156.667 -31.667 -206 -95c-46 -58.667 -69 -133.334 -69 -224.001c0 -95.333 24.667 -171.666 74 -228.999
s114 -86 194 -86c36 0 73 7.16699 111 21.5s71.667 34.166 101 59.499z" />
    <glyph glyph-name="Ntilde" unicode="&#x421;" horiz-adv-x="667" 
d="M611 42c-29.333 -20 -63.3301 -34.498 -101.997 -43.498s-78.334 -13.5 -119.001 -13.5c-109.333 0 -195.333 32.333 -258 97s-94 151.667 -94 261s36.333 196.333 109 261c69.333 61.333 158.666 92 267.999 92c35.333 0 71.5 -4 108.5 -12s72.5 -19.333 106.5 -34
c-4 -10 -8 -22.5 -12 -37.5s-7 -28.167 -9 -39.5l-7 -1c-7.33301 9.33301 -20.333 20.666 -39 33.999c-48.667 34.667 -99.334 52 -152.001 52c-88 0 -156.667 -31.667 -206 -95c-46 -58.667 -69 -133.334 -69 -224.001c0 -95.333 24.667 -171.666 74 -228.999
s114 -86 194 -86c36 0 73 7.16699 111 21.5s71.667 34.166 101 59.499z" />
    <glyph glyph-name="Ograve" unicode="&#xd2;" 
d="M327 -3l-43.999 2.99805l-44 -3v636c-52 0 -89 -0.666992 -111 -2s-58 -4.66602 -108 -9.99902l3 30l-3 30h516l-3 -30l3 -30c-24.667 2.66699 -55.834 5.33398 -93.501 8.00098s-76.167 4 -115.5 4v-636z" />
    <glyph glyph-name="Ograve" unicode="&#x422;" 
d="M327 -3l-43.999 2.99805l-44 -3v636c-52 0 -89 -0.666992 -111 -2s-58 -4.66602 -108 -9.99902l3 30l-3 30h516l-3 -30l3 -30c-24.667 2.66699 -55.834 5.33398 -93.501 8.00098s-76.167 4 -115.5 4v-636z" />
    <glyph glyph-name="Oacute" unicode="&#xd3;" horiz-adv-x="648" 
d="M322 166l-95.999 164.001l-102 167l-118 184l62 -3l52 3c40 -82 82 -160.333 126 -235c39.333 -66.667 78.666 -128.334 117.999 -185.001h9l70 135l71 147c26 55.333 46.333 101.333 61 138l34 -3l36 3l-182 -342c-43.333 -83.333 -77.666 -153.333 -102.999 -210
c-22.667 -50.667 -39.334 -94.667 -50.001 -132l-34 3l-45 -3c32.667 50.667 63 107 91 169z" />
    <glyph glyph-name="Oacute" unicode="&#x423;" horiz-adv-x="648" 
d="M322 166l-95.999 164.001l-102 167l-118 184l62 -3l52 3c40 -82 82 -160.333 126 -235c39.333 -66.667 78.666 -128.334 117.999 -185.001h9l70 135l71 147c26 55.333 46.333 101.333 61 138l34 -3l36 3l-182 -342c-43.333 -83.333 -77.666 -153.333 -102.999 -210
c-22.667 -50.667 -39.334 -94.667 -50.001 -132l-34 3l-45 -3c32.667 50.667 63 107 91 169z" />
    <glyph glyph-name="Ocircumflex" unicode="&#xd4;" horiz-adv-x="889" 
d="M488 594v-504c76.667 0 139.167 27.167 187.5 81.5s72.5 121.5 72.5 201.5c0 72.667 -22.333 127.667 -67 165s-109 56 -193 56zM400 90v504c-83.333 0 -147.5 -21.167 -192.5 -63.5s-67.5 -102.166 -67.5 -179.499c0 -78.667 23.5 -141.834 70.5 -189.501
s110.167 -71.5 189.5 -71.5zM400 55c-111.333 0 -198.833 28.501 -262.5 85.501s-95.5 130.5 -95.5 220.5c0 85.333 31 151.333 93 198s150.333 70 265 70v52c4 -0.666992 10.333 -1.33398 19 -2.00098s17 -1 25 -1c19.333 0 34 1 44 3v-52
c116.667 0 205.5 -21.167 266.5 -63.5s91.5 -108.5 91.5 -198.5c0 -87.333 -31 -160 -93 -218c-66.667 -62.667 -155 -94 -265 -94v-58c-10 2 -21 3 -33 3h-11h-21.5c-7 0 -14.5 -1 -22.5 -3v58z" />
    <glyph glyph-name="Ocircumflex" unicode="&#x424;" horiz-adv-x="889" 
d="M488 594v-504c76.667 0 139.167 27.167 187.5 81.5s72.5 121.5 72.5 201.5c0 72.667 -22.333 127.667 -67 165s-109 56 -193 56zM400 90v504c-83.333 0 -147.5 -21.167 -192.5 -63.5s-67.5 -102.166 -67.5 -179.499c0 -78.667 23.5 -141.834 70.5 -189.501
s110.167 -71.5 189.5 -71.5zM400 55c-111.333 0 -198.833 28.501 -262.5 85.501s-95.5 130.5 -95.5 220.5c0 85.333 31 151.333 93 198s150.333 70 265 70v52c4 -0.666992 10.333 -1.33398 19 -2.00098s17 -1 25 -1c19.333 0 34 1 44 3v-52
c116.667 0 205.5 -21.167 266.5 -63.5s91.5 -108.5 91.5 -198.5c0 -87.333 -31 -160 -93 -218c-66.667 -62.667 -155 -94 -265 -94v-58c-10 2 -21 3 -33 3h-11h-21.5c-7 0 -14.5 -1 -22.5 -3v58z" />
    <glyph glyph-name="Otilde" unicode="&#xd5;" horiz-adv-x="611" 
d="M268 341l-115 188.999l-99 151l54 -3l54 3l51 -86l106 -182l168 268l37 -3l37 3l-17 -20l-153 -213l-49 -74l232 -377l-55 3l-55 -3c-53.333 104.667 -111 206 -173 304c-62 -93.333 -122.333 -194.666 -181 -303.999l-37 3l-37 -3l121 177z" />
    <glyph glyph-name="Otilde" unicode="&#x425;" horiz-adv-x="611" 
d="M268 341l-115 188.999l-99 151l54 -3l54 3l51 -86l106 -182l168 268l37 -3l37 3l-17 -20l-153 -213l-49 -74l232 -377l-55 3l-55 -3c-53.333 104.667 -111 206 -173 304c-62 -93.333 -122.333 -194.666 -181 -303.999l-37 3l-37 -3l121 177z" />
    <glyph glyph-name="Odieresis" unicode="&#xd6;" horiz-adv-x="778" 
d="M682 47l56.001 -0.000976562c-0.666992 -5.33301 -1.33398 -12.666 -2.00098 -21.999s-1 -15 -1 -17l3 -60h-12c-12.667 23.333 -32.667 37.833 -60 43.5s-73 8.5 -137 8.5h-439v684l44 -3l44 3v-634l208 -3l208 3v634c11.333 -2 26 -3 44 -3l44 3v-637z" />
    <glyph glyph-name="Odieresis" unicode="&#x426;" horiz-adv-x="778" 
d="M682 47l56.001 -0.000976562c-0.666992 -5.33301 -1.33398 -12.666 -2.00098 -21.999s-1 -15 -1 -17l3 -60h-12c-12.667 23.333 -32.667 37.833 -60 43.5s-73 8.5 -137 8.5h-439v684l44 -3l44 3v-634l208 -3l208 3v634c11.333 -2 26 -3 44 -3l44 3v-637z" />
    <glyph glyph-name="multiply" unicode="&#xd7;" horiz-adv-x="722" 
d="M543 681l44 -3l44 3v-684l-44 3l-44 -3v346c-38.667 -21.333 -79.667 -38.333 -123 -51s-86 -19 -128 -19c-64 0 -115.333 13.333 -154 40c-44 30 -66 73.667 -66 131v237l44 -3l44 3v-223c0 -42.667 14.667 -75 44 -97c26.667 -20 63 -30 109 -30
c38.667 0 77.667 5.16699 117 15.5s77 25.5 113 45.5v289z" />
    <glyph glyph-name="multiply" unicode="&#x427;" horiz-adv-x="722" 
d="M543 681l44 -3l44 3v-684l-44 3l-44 -3v346c-38.667 -21.333 -79.667 -38.333 -123 -51s-86 -19 -128 -19c-64 0 -115.333 13.333 -154 40c-44 30 -66 73.667 -66 131v237l44 -3l44 3v-223c0 -42.667 14.667 -75 44 -97c26.667 -20 63 -30 109 -30
c38.667 0 77.667 5.16699 117 15.5s77 25.5 113 45.5v289z" />
    <glyph glyph-name="Oslash" unicode="&#xd8;" horiz-adv-x="889" 
d="M400 50v634l44 -3c19.333 0 34 1 44 3v-634l114 -3l108 3v634l44 -3l44 3v-684h-708v684l44 -3l44 3v-634l108 -3z" />
    <glyph glyph-name="Oslash" unicode="&#x428;" horiz-adv-x="889" 
d="M400 50v634l44 -3c19.333 0 34 1 44 3v-634l114 -3l108 3v634l44 -3l44 3v-684h-708v684l44 -3l44 3v-634l108 -3z" />
    <glyph glyph-name="Ugrave" unicode="&#xd9;" horiz-adv-x="889" 
d="M796 47h56l-3 -39l3 -60h-12c-12.667 23.333 -32.667 37.833 -60 43.5s-73 8.5 -137 8.5h-553v684l44 -3l44 3v-634l113 -3l108 3v634l44 -3l44 3v-634l114 -3l107 3v634c11.333 -2 26 -3 44 -3l44 3v-637z" />
    <glyph glyph-name="Ugrave" unicode="&#x429;" horiz-adv-x="889" 
d="M796 47h56l-3 -39l3 -60h-12c-12.667 23.333 -32.667 37.833 -60 43.5s-73 8.5 -137 8.5h-553v684l44 -3l44 3v-634l113 -3l108 3v634l44 -3l44 3v-634l114 -3l107 3v634c11.333 -2 26 -3 44 -3l44 3v-637z" />
    <glyph glyph-name="Uacute" unicode="&#xda;" horiz-adv-x="574" 
d="M188 681l-0.00195312 -300h91c89.333 0 153.333 -11.667 192 -35c44 -26.667 66 -72.667 66 -138c0 -72.667 -28.667 -126.667 -86 -162c-49.333 -30.667 -117 -46 -203 -46h-148v632c-9.33301 0 -20.166 -0.666992 -32.499 -2s-28.166 -4.33301 -47.499 -9l3 30l-3 30
h168zM187.998 41l99.002 0.000976562c49.333 4.66699 88 21.667 116 51s42 66.333 42 111c0 37.333 -8.66699 68 -26 92c-20 27.333 -41.833 42.166 -65.5 44.499s-42.334 3.5 -56.001 3.5h-32.5c-14.667 0 -28.334 -0.166992 -41.001 -0.5s-24.667 -0.5 -36 -0.5v-301z" />
    <glyph glyph-name="Uacute" unicode="&#x42a;" horiz-adv-x="574" 
d="M188 681l-0.00195312 -300h91c89.333 0 153.333 -11.667 192 -35c44 -26.667 66 -72.667 66 -138c0 -72.667 -28.667 -126.667 -86 -162c-49.333 -30.667 -117 -46 -203 -46h-148v632c-9.33301 0 -20.166 -0.666992 -32.499 -2s-28.166 -4.33301 -47.499 -9l3 30l-3 30
h168zM187.998 41l99.002 0.000976562c49.333 4.66699 88 21.667 116 51s42 66.333 42 111c0 37.333 -8.66699 68 -26 92c-20 27.333 -41.833 42.166 -65.5 44.499s-42.334 3.5 -56.001 3.5h-32.5c-14.667 0 -28.334 -0.166992 -41.001 -0.5s-24.667 -0.5 -36 -0.5v-301z" />
    <glyph glyph-name="Ucircumflex" unicode="&#xdb;" horiz-adv-x="796" 
d="M178 41l99.002 0.000976562c49.333 4.66699 88 21.667 116 51s42 66.333 42 111c0 37.333 -8.66699 68 -26 92c-20 27.333 -41.833 42.166 -65.5 44.499s-42.334 3.5 -56.001 3.5h-32.5c-14.667 0 -28.334 -0.166992 -41.001 -0.5s-24.667 -0.5 -36 -0.5v-301z
M178.002 381.001h90.999c95.333 0 162.166 -13.333 200.499 -40s57.5 -71 57.5 -133c0 -60 -17 -106 -51 -138s-88.333 -54 -163 -66c-11.333 -2 -36.166 -3.33301 -74.499 -4s-60.166 -1 -65.499 -1h-15h-13c-12.667 0 -23.5 0.166992 -32.5 0.5s-16.5 0.5 -22.5 0.5v681
l44 -3l44 3v-300zM618.001 681.001l44 -3c19.333 0 34 1 44 3v-684l-44 3l-44 -3v684z" />
    <glyph glyph-name="Ucircumflex" unicode="&#x42b;" horiz-adv-x="796" 
d="M178 41l99.002 0.000976562c49.333 4.66699 88 21.667 116 51s42 66.333 42 111c0 37.333 -8.66699 68 -26 92c-20 27.333 -41.833 42.166 -65.5 44.499s-42.334 3.5 -56.001 3.5h-32.5c-14.667 0 -28.334 -0.166992 -41.001 -0.5s-24.667 -0.5 -36 -0.5v-301z
M178.002 381.001h90.999c95.333 0 162.166 -13.333 200.499 -40s57.5 -71 57.5 -133c0 -60 -17 -106 -51 -138s-88.333 -54 -163 -66c-11.333 -2 -36.166 -3.33301 -74.499 -4s-60.166 -1 -65.499 -1h-15h-13c-12.667 0 -23.5 0.166992 -32.5 0.5s-16.5 0.5 -22.5 0.5v681
l44 -3l44 3v-300zM618.001 681.001l44 -3c19.333 0 34 1 44 3v-684l-44 3l-44 -3v684z" />
    <glyph glyph-name="Udieresis" unicode="&#xdc;" horiz-adv-x="574" 
d="M178 41l99.002 0.000976562c49.333 4.66699 88 21.667 116 51s42 66.333 42 111c0 37.333 -8.66699 68 -26 92c-20 27.333 -41.833 42.166 -65.5 44.499s-42.334 3.5 -56.001 3.5h-32.5c-14.667 0 -28.334 -0.166992 -41.001 -0.5s-24.667 -0.5 -36 -0.5v-301z
M178.002 381.001l91.001 0.000976562c95.333 0 162.166 -13.333 200.499 -40s57.5 -71 57.5 -133c0 -58.667 -18 -104.334 -54 -137.001c-33.333 -30 -86.666 -52.333 -159.999 -67c-10 -2 -30.5 -3.33301 -61.5 -4s-49.167 -1 -54.5 -1h-19h-16h-14h-11
c-10.667 0 -19.834 0.166992 -27.501 0.5s-14.167 0.5 -19.5 0.5v681l44 -3l44 3v-300z" />
    <glyph glyph-name="Udieresis" unicode="&#x42c;" horiz-adv-x="574" 
d="M178 41l99.002 0.000976562c49.333 4.66699 88 21.667 116 51s42 66.333 42 111c0 37.333 -8.66699 68 -26 92c-20 27.333 -41.833 42.166 -65.5 44.499s-42.334 3.5 -56.001 3.5h-32.5c-14.667 0 -28.334 -0.166992 -41.001 -0.5s-24.667 -0.5 -36 -0.5v-301z
M178.002 381.001l91.001 0.000976562c95.333 0 162.166 -13.333 200.499 -40s57.5 -71 57.5 -133c0 -58.667 -18 -104.334 -54 -137.001c-33.333 -30 -86.666 -52.333 -159.999 -67c-10 -2 -30.5 -3.33301 -61.5 -4s-49.167 -1 -54.5 -1h-19h-16h-14h-11
c-10.667 0 -19.834 0.166992 -27.501 0.5s-14.167 0.5 -19.5 0.5v681l44 -3l44 3v-300z" />
    <glyph glyph-name="Yacute" unicode="&#xdd;" horiz-adv-x="667" 
d="M531 339l-278.998 0.000976562c-16.667 0 -32.334 -0.333008 -47.001 -1s-28.667 -2 -42 -4c2 10 3 19.333 3 28c0 8 -1 16.667 -3 26c10.667 -2 23 -3.33301 37 -4s31.333 -1 52 -1h277c-9.33301 94 -40.333 165 -93 213c-45.333 41.333 -101.333 62 -168 62
c-46.667 0 -86.334 -7.66699 -119.001 -23s-60.667 -37.333 -84 -66l-11 1c0 10 0.333008 20.667 1 32l2 34c0 10 -0.333008 17.333 -1 22c64.667 25.333 132 38 202 38c104.667 0 190.667 -27 258 -81c75.333 -60.667 113 -146.334 113 -257.001
c0 -126 -37.333 -222 -112 -288c-64 -56.667 -145.333 -85 -244 -85c-86.667 0 -161.667 21 -225 63l3 57c62 -54 132.667 -81 212 -81c76 0 138 25 186 75c54.667 56.667 82 136.667 82 240z" />
    <glyph glyph-name="Yacute" unicode="&#x42d;" horiz-adv-x="667" 
d="M531 339l-278.998 0.000976562c-16.667 0 -32.334 -0.333008 -47.001 -1s-28.667 -2 -42 -4c2 10 3 19.333 3 28c0 8 -1 16.667 -3 26c10.667 -2 23 -3.33301 37 -4s31.333 -1 52 -1h277c-9.33301 94 -40.333 165 -93 213c-45.333 41.333 -101.333 62 -168 62
c-46.667 0 -86.334 -7.66699 -119.001 -23s-60.667 -37.333 -84 -66l-11 1c0 10 0.333008 20.667 1 32l2 34c0 10 -0.333008 17.333 -1 22c64.667 25.333 132 38 202 38c104.667 0 190.667 -27 258 -81c75.333 -60.667 113 -146.334 113 -257.001
c0 -126 -37.333 -222 -112 -288c-64 -56.667 -145.333 -85 -244 -85c-86.667 0 -161.667 21 -225 63l3 57c62 -54 132.667 -81 212 -81c76 0 138 25 186 75c54.667 56.667 82 136.667 82 240z" />
    <glyph glyph-name="Thorn" unicode="&#xde;" horiz-adv-x="1017" 
d="M824 566c-24 31.333 -53 55.334 -87 72.001s-70 25 -108 25c-82 0 -146.5 -30.333 -193.5 -91s-70.5 -142.334 -70.5 -245.001c0 -98 25 -175 75 -231c46.667 -52 106.667 -78 180 -78c80.667 0 145.667 34.333 195 103c44.667 62.667 67 137.667 67 225
c0 46 -4 86.333 -12 121s-23.333 67.667 -46 99zM268 341.001c-5.33301 0.666992 -15.9971 0.999023 -31.9971 0.999023c-10.667 0 -20.834 -0.166992 -30.501 -0.5s-18.834 -0.5 -27.501 -0.5v-344l-44 3l-44 -3v684l44 -3l44 3v-287c6 -0.666992 17.333 -1 34 -1h37h21
c12 92.667 50.167 166.334 114.5 221.001s142.166 82 233.499 82c99.333 0 182 -27 248 -81c75.333 -61.333 113 -148.333 113 -261c0 -110 -33.667 -199 -101 -267s-154.333 -102 -261 -102c-106 0 -190.667 32.333 -254 97s-95 151 -95 259z" />
    <glyph glyph-name="Thorn" unicode="&#x42e;" horiz-adv-x="1017" 
d="M824 566c-24 31.333 -53 55.334 -87 72.001s-70 25 -108 25c-82 0 -146.5 -30.333 -193.5 -91s-70.5 -142.334 -70.5 -245.001c0 -98 25 -175 75 -231c46.667 -52 106.667 -78 180 -78c80.667 0 145.667 34.333 195 103c44.667 62.667 67 137.667 67 225
c0 46 -4 86.333 -12 121s-23.333 67.667 -46 99zM268 341.001c-5.33301 0.666992 -15.9971 0.999023 -31.9971 0.999023c-10.667 0 -20.834 -0.166992 -30.501 -0.5s-18.834 -0.5 -27.501 -0.5v-344l-44 3l-44 -3v684l44 -3l44 3v-287c6 -0.666992 17.333 -1 34 -1h37h21
c12 92.667 50.167 166.334 114.5 221.001s142.166 82 233.499 82c99.333 0 182 -27 248 -81c75.333 -61.333 113 -148.333 113 -261c0 -110 -33.667 -199 -101 -267s-154.333 -102 -261 -102c-106 0 -190.667 32.333 -254 97s-95 151 -95 259z" />
    <glyph glyph-name="germandbls" unicode="&#xdf;" horiz-adv-x="611" 
d="M521 -3l-44.001 3l-44 -3v334h-45l-131.5 -176l-119.5 -158l-55 3l-63 -3l148 177c46 56.667 87 109.667 123 159c-57.333 5.33301 -103.666 21 -138.999 47c-42.667 32 -64 75 -64 129c0 52 19.833 93.667 59.5 125s97.167 47 172.5 47h202v-684zM432.999 369
l-0.000976562 275.002h-23c-10.667 0 -25 0.333008 -43 1c-15.333 0 -30.666 -0.333008 -45.999 -1s-27 -2 -35 -4c-73.333 -18.667 -110 -64 -110 -136c0 -38 11.667 -68.333 35 -91s54.333 -36.334 93 -41.001c6.66699 -0.666992 18 -1.33398 34 -2.00098s35.667 -1 59 -1
h28h8z" />
    <glyph glyph-name="germandbls" unicode="&#x42f;" horiz-adv-x="611" 
d="M521 -3l-44.001 3l-44 -3v334h-45l-131.5 -176l-119.5 -158l-55 3l-63 -3l148 177c46 56.667 87 109.667 123 159c-57.333 5.33301 -103.666 21 -138.999 47c-42.667 32 -64 75 -64 129c0 52 19.833 93.667 59.5 125s97.167 47 172.5 47h202v-684zM432.999 369
l-0.000976562 275.002h-23c-10.667 0 -25 0.333008 -43 1c-15.333 0 -30.666 -0.333008 -45.999 -1s-27 -2 -35 -4c-73.333 -18.667 -110 -64 -110 -136c0 -38 11.667 -68.333 35 -91s54.333 -36.334 93 -41.001c6.66699 -0.666992 18 -1.33398 34 -2.00098s35.667 -1 59 -1
h28h8z" />
    <glyph glyph-name="agrave" unicode="&#xe0;" horiz-adv-x="500" 
d="M413 81v-29.002c2 -14 11 -21 27 -21c8.66699 0 18.334 1.33301 29.001 4v-22c-3.33301 -1.33301 -8.16602 -3.16602 -14.499 -5.49902s-13.333 -4.16602 -21 -5.49902s-16.834 -2 -27.501 -2c-19.333 0 -35.166 4.66699 -47.499 14s-19.833 25 -22.5 47l-9 -9
c-42 -42 -91.333 -63 -148 -63c-37.333 0 -69 11.167 -95 33.5s-39 51.833 -39 88.5c0 39.333 11.667 70.166 35 92.499s73.666 39.5 150.999 51.5c43.333 7.33301 70.666 14 81.999 20c16 8.66699 24 24.334 24 47.001c0 37.333 -10.167 66.166 -30.5 86.499
s-49.166 30.5 -86.499 30.5c-32 0 -60 -8.66699 -84 -26c-18.667 -13.333 -30.334 -27.666 -35.001 -42.999h-11v56c26 18 52.167 31.667 78.5 41s53.833 14 82.5 14c108 0 162 -56 162 -168v-232zM333 245.998l-34.999 -7.99902c-58 -11.333 -94.667 -20.333 -110 -27
c-40 -18 -60 -46.667 -60 -86c0 -30.667 8.5 -53.834 25.5 -69.501s41.167 -23.5 72.5 -23.5c12.667 0 26.667 3.83301 42 11.5s28 16.5 38 26.5c7.33301 6.66699 12.666 11.667 15.999 15c7.33301 7.33301 11 12.333 11 15v146z" />
    <glyph glyph-name="agrave" unicode="&#x430;" horiz-adv-x="500" 
d="M413 81v-29.002c2 -14 11 -21 27 -21c8.66699 0 18.334 1.33301 29.001 4v-22c-3.33301 -1.33301 -8.16602 -3.16602 -14.499 -5.49902s-13.333 -4.16602 -21 -5.49902s-16.834 -2 -27.501 -2c-19.333 0 -35.166 4.66699 -47.499 14s-19.833 25 -22.5 47l-9 -9
c-42 -42 -91.333 -63 -148 -63c-37.333 0 -69 11.167 -95 33.5s-39 51.833 -39 88.5c0 39.333 11.667 70.166 35 92.499s73.666 39.5 150.999 51.5c43.333 7.33301 70.666 14 81.999 20c16 8.66699 24 24.334 24 47.001c0 37.333 -10.167 66.166 -30.5 86.499
s-49.166 30.5 -86.499 30.5c-32 0 -60 -8.66699 -84 -26c-18.667 -13.333 -30.334 -27.666 -35.001 -42.999h-11v56c26 18 52.167 31.667 78.5 41s53.833 14 82.5 14c108 0 162 -56 162 -168v-232zM333 245.998l-34.999 -7.99902c-58 -11.333 -94.667 -20.333 -110 -27
c-40 -18 -60 -46.667 -60 -86c0 -30.667 8.5 -53.834 25.5 -69.501s41.167 -23.5 72.5 -23.5c12.667 0 26.667 3.83301 42 11.5s28 16.5 38 26.5c7.33301 6.66699 12.666 11.667 15.999 15c7.33301 7.33301 11 12.333 11 15v146z" />
    <glyph glyph-name="aacute" unicode="&#xe1;" 
d="M521 237c0 -68 -21 -125.333 -63 -172c-46 -50.667 -108.333 -76 -187 -76c-69.333 0 -126 21.667 -170 65s-66 102 -66 176c0 138.667 24 245 72 319c36 56 92 99.667 168 131c33.333 14 71 28 113 42s66.667 22.667 74 26c0 -11.333 0.833008 -24 2.5 -38
s3.83398 -26 6.50098 -36c-14 -8 -36 -16.833 -66 -26.5s-54 -17.167 -72 -22.5c-88.667 -28.667 -151.667 -65 -189 -109c-32 -37.333 -52 -84.333 -60 -141c47.333 70.667 115.666 106 204.999 106c68.667 0 124.5 -22.167 167.5 -66.5s64.5 -103.5 64.5 -177.5zM433 242
c0 54.667 -9.99902 100.334 -29.999 137.001c-26 47.333 -64.333 71 -115 71c-58.667 0 -102 -24 -130 -72c-23.333 -39.333 -35 -90.333 -35 -153c0 -56.667 11.667 -103.334 35 -140.001c27.333 -43.333 67.666 -65 120.999 -65c52.667 0 93 27 121 81c22 42 33 89 33 141
z" />
    <glyph glyph-name="aacute" unicode="&#x431;" 
d="M521 237c0 -68 -21 -125.333 -63 -172c-46 -50.667 -108.333 -76 -187 -76c-69.333 0 -126 21.667 -170 65s-66 102 -66 176c0 138.667 24 245 72 319c36 56 92 99.667 168 131c33.333 14 71 28 113 42s66.667 22.667 74 26c0 -11.333 0.833008 -24 2.5 -38
s3.83398 -26 6.50098 -36c-14 -8 -36 -16.833 -66 -26.5s-54 -17.167 -72 -22.5c-88.667 -28.667 -151.667 -65 -189 -109c-32 -37.333 -52 -84.333 -60 -141c47.333 70.667 115.666 106 204.999 106c68.667 0 124.5 -22.167 167.5 -66.5s64.5 -103.5 64.5 -177.5zM433 242
c0 54.667 -9.99902 100.334 -29.999 137.001c-26 47.333 -64.333 71 -115 71c-58.667 0 -102 -24 -130 -72c-23.333 -39.333 -35 -90.333 -35 -153c0 -56.667 11.667 -103.334 35 -140.001c27.333 -43.333 67.666 -65 120.999 -65c52.667 0 93 27 121 81c22 42 33 89 33 141
z" />
    <glyph glyph-name="acircumflex" unicode="&#xe2;" horiz-adv-x="500" 
d="M454 145c0 -50 -22.6641 -88.999 -67.9971 -116.999c-20.667 -12.667 -46.667 -21 -78 -25c-16.667 -2 -44.334 -3 -83.001 -3h-148v470h177c57.333 0 99.833 -7.33301 127.5 -22s41.5 -39.334 41.5 -74.001c0 -31.333 -10.333 -57.333 -31 -78s-48.334 -35 -83.001 -43
c35.333 0 66.666 -8 93.999 -24c34 -20 51 -48 51 -84zM371.003 136.001c0 35.333 -11.833 60.167 -35.5 74.5s-56.834 21.5 -99.501 21.5h-79v-196h106c30.667 0 56.334 9.33301 77.001 28s31 42.667 31 72zM347.003 357.002c0 28.667 -9.33301 48.666 -28 59.999
s-46 17 -82 17h-80v-167h66c39.333 0 69.833 7.33301 91.5 22s32.5 37.334 32.5 68.001z" />
    <glyph glyph-name="acircumflex" unicode="&#x432;" horiz-adv-x="500" 
d="M454 145c0 -50 -22.6641 -88.999 -67.9971 -116.999c-20.667 -12.667 -46.667 -21 -78 -25c-16.667 -2 -44.334 -3 -83.001 -3h-148v470h177c57.333 0 99.833 -7.33301 127.5 -22s41.5 -39.334 41.5 -74.001c0 -31.333 -10.333 -57.333 -31 -78s-48.334 -35 -83.001 -43
c35.333 0 66.666 -8 93.999 -24c34 -20 51 -48 51 -84zM371.003 136.001c0 35.333 -11.833 60.167 -35.5 74.5s-56.834 21.5 -99.501 21.5h-79v-196h106c30.667 0 56.334 9.33301 77.001 28s31 42.667 31 72zM347.003 357.002c0 28.667 -9.33301 48.666 -28 59.999
s-46 17 -82 17h-80v-167h66c39.333 0 69.833 7.33301 91.5 22s32.5 37.334 32.5 68.001z" />
    <glyph glyph-name="atilde" unicode="&#xe3;" horiz-adv-x="407" 
d="M157 -3l-40 3.00098l-40 -3v473h318c-0.666992 -6.66699 -1 -15.334 -1 -26.001s0.333008 -19 1 -25c-22.667 4 -52.5 7.5 -89.5 10.5s-86.5 4.5 -148.5 4.5v-437z" />
    <glyph glyph-name="atilde" unicode="&#x433;" horiz-adv-x="407" 
d="M157 -3l-40 3.00098l-40 -3v473h318c-0.666992 -6.66699 -1 -15.334 -1 -26.001s0.333008 -19 1 -25c-22.667 4 -52.5 7.5 -89.5 10.5s-86.5 4.5 -148.5 4.5v-437z" />
    <glyph glyph-name="adieresis" unicode="&#xe4;" horiz-adv-x="500" 
d="M40 36c12 24 31.168 64.668 57.501 122.001l72.5 164c28.667 66.667 49.334 117.334 62.001 152.001c9.33301 -1.33301 17 -2 23 -2h12c4.66699 1.33301 8 2 10 2c9.33301 -25.333 25.333 -65 48 -119l68 -160l70 -159h34c-2 -8 -3 -18.667 -3 -32c0 -12.667 1 -27 3 -43
h-10c-16.667 18 -36.334 29 -59.001 33s-57 6 -103 6h-150c-48.667 0 -83.334 -1.83301 -104.001 -5.5s-39.667 -14.834 -57 -33.501h-11c2 15.333 3 28.666 3 39.999c0 14 -1 25.667 -3 35h37zM377.001 38.001c-17.333 48.667 -37 100.167 -59 154.5
s-46.667 111.833 -74 172.5h-6c-30.667 -63.333 -57.667 -122 -81 -176c-19.333 -46 -39.333 -96.333 -60 -151l143 -2z" />
    <glyph glyph-name="adieresis" unicode="&#x434;" horiz-adv-x="500" 
d="M40 36c12 24 31.168 64.668 57.501 122.001l72.5 164c28.667 66.667 49.334 117.334 62.001 152.001c9.33301 -1.33301 17 -2 23 -2h12c4.66699 1.33301 8 2 10 2c9.33301 -25.333 25.333 -65 48 -119l68 -160l70 -159h34c-2 -8 -3 -18.667 -3 -32c0 -12.667 1 -27 3 -43
h-10c-16.667 18 -36.334 29 -59.001 33s-57 6 -103 6h-150c-48.667 0 -83.334 -1.83301 -104.001 -5.5s-39.667 -14.834 -57 -33.501h-11c2 15.333 3 28.666 3 39.999c0 14 -1 25.667 -3 35h37zM377.001 38.001c-17.333 48.667 -37 100.167 -59 154.5
s-46.667 111.833 -74 172.5h-6c-30.667 -63.333 -57.667 -122 -81 -176c-19.333 -46 -39.333 -96.333 -60 -151l143 -2z" />
    <glyph glyph-name="aring" unicode="&#xe5;" horiz-adv-x="500" 
d="M443 48c-26 -18.667 -53.334 -33.167 -82.001 -43.5s-58.667 -15.5 -90 -15.5c-70.667 0 -127.667 22 -171 66s-65 104 -65 180c0 72.667 19.333 131 58 175c41.333 47.333 98.333 71 171 71c59.333 0 107 -19.667 143 -59c40 -43.333 60 -105.333 60 -186l-203 3h-141
c0 -60 13.667 -108.667 41 -146c30.667 -41.333 74.667 -62 132 -62c30.667 0 60.334 8 89.001 24c19.333 10.667 39 25.667 59 45zM388.999 276c0 51.333 -8.33301 91.334 -25 120.001c-20.667 36 -54 54 -100 54c-44.667 0 -80 -18.333 -106 -55
c-23.333 -32.667 -35 -72.334 -35 -119.001h266z" />
    <glyph glyph-name="aring" unicode="&#x435;" horiz-adv-x="500" 
d="M443 48c-26 -18.667 -53.334 -33.167 -82.001 -43.5s-58.667 -15.5 -90 -15.5c-70.667 0 -127.667 22 -171 66s-65 104 -65 180c0 72.667 19.333 131 58 175c41.333 47.333 98.333 71 171 71c59.333 0 107 -19.667 143 -59c40 -43.333 60 -105.333 60 -186l-203 3h-141
c0 -60 13.667 -108.667 41 -146c30.667 -41.333 74.667 -62 132 -62c30.667 0 60.334 8 89.001 24c19.333 10.667 39 25.667 59 45zM388.999 276c0 51.333 -8.33301 91.334 -25 120.001c-20.667 36 -54 54 -100 54c-44.667 0 -80 -18.333 -106 -55
c-23.333 -32.667 -35 -72.334 -35 -119.001h266z" />
    <glyph glyph-name="ae" unicode="&#xe6;" horiz-adv-x="722" 
d="M361 472l39.999 3v-175c0 -8.66699 0.166992 -15.834 0.5 -21.501s1.83301 -9.5 4.5 -11.5c3.33301 -2 17 9 41 33l26 26l62 63l78 86l40 -3l39 3v-7l-120 -103c-40.667 -35.333 -74 -65.333 -100 -90l235 -273v-5l-49 3l-50 -3
c-23.333 30.667 -52.166 66.5 -86.499 107.5l-101.5 117.5c-8.66699 10 -13.667 15 -15 15c-2.66699 0 -4 -12 -4 -36v-204l-40 3l-40 -3v204v14c0 14.667 -1 22 -3 22s-7.33301 -5 -16 -15l-100 -116c-34.667 -40.667 -64 -77 -88 -109l-50 3l-49 -3v5l235 273
c-40.667 38.667 -83.667 77.334 -129 116.001l-91 77v7l39 -3l40 3l78 -86l62 -63l36 -36c18 -17.333 28.333 -25 31 -23c3.33301 2 5 5.83301 5 11.5v21.5v175z" />
    <glyph glyph-name="ae" unicode="&#x436;" horiz-adv-x="722" 
d="M361 472l39.999 3v-175c0 -8.66699 0.166992 -15.834 0.5 -21.501s1.83301 -9.5 4.5 -11.5c3.33301 -2 17 9 41 33l26 26l62 63l78 86l40 -3l39 3v-7l-120 -103c-40.667 -35.333 -74 -65.333 -100 -90l235 -273v-5l-49 3l-50 -3
c-23.333 30.667 -52.166 66.5 -86.499 107.5l-101.5 117.5c-8.66699 10 -13.667 15 -15 15c-2.66699 0 -4 -12 -4 -36v-204l-40 3l-40 -3v204v14c0 14.667 -1 22 -3 22s-7.33301 -5 -16 -15l-100 -116c-34.667 -40.667 -64 -77 -88 -109l-50 3l-49 -3v5l235 273
c-40.667 38.667 -83.667 77.334 -129 116.001l-91 77v7l39 -3l40 3l78 -86l62 -63l36 -36c18 -17.333 28.333 -25 31 -23c3.33301 2 5 5.83301 5 11.5v21.5v175z" />
    <glyph glyph-name="ccedilla" unicode="&#xe7;" horiz-adv-x="425" 
d="M376 139c0 -41.333 -16.9961 -76.0029 -50.9961 -104.003c-36.667 -30.667 -85.334 -46 -146.001 -46c-50.667 0 -99.334 16.667 -146.001 50v45h5c20 -20 41.667 -35.167 65 -45.5s46.333 -15.5 69 -15.5c34 0 62.5 10.167 85.5 30.5s34.5 47.833 34.5 82.5
c0 30.667 -9.33301 54 -28 70c-20.667 18 -52.334 27 -95.001 27l-35 -2v37l33 -2c33.333 0 59 9.33301 77 28s27 41.334 27 68.001c0 27.333 -9.33301 48.333 -28 63s-41.334 22 -68.001 22c-25.333 0 -49.333 -6.5 -72 -19.5s-39 -31.167 -49 -54.5l-10 1
c0.666992 3.33301 1 9.33301 1 18c0 6.66699 -0.333008 16.834 -1 30.501s-1 22.834 -1 27.501c45.333 20.667 94.666 31 147.999 31c46 0 83 -8.33301 111 -25c32 -19.333 48 -47 48 -83c0 -27.333 -9.16699 -51.5 -27.5 -72.5s-45.166 -37.167 -80.499 -48.5
c44 0 77.333 -10.667 100 -32s34 -48.333 34 -81z" />
    <glyph glyph-name="ccedilla" unicode="&#x437;" horiz-adv-x="425" 
d="M376 139c0 -41.333 -16.9961 -76.0029 -50.9961 -104.003c-36.667 -30.667 -85.334 -46 -146.001 -46c-50.667 0 -99.334 16.667 -146.001 50v45h5c20 -20 41.667 -35.167 65 -45.5s46.333 -15.5 69 -15.5c34 0 62.5 10.167 85.5 30.5s34.5 47.833 34.5 82.5
c0 30.667 -9.33301 54 -28 70c-20.667 18 -52.334 27 -95.001 27l-35 -2v37l33 -2c33.333 0 59 9.33301 77 28s27 41.334 27 68.001c0 27.333 -9.33301 48.333 -28 63s-41.334 22 -68.001 22c-25.333 0 -49.333 -6.5 -72 -19.5s-39 -31.167 -49 -54.5l-10 1
c0.666992 3.33301 1 9.33301 1 18c0 6.66699 -0.333008 16.834 -1 30.501s-1 22.834 -1 27.501c45.333 20.667 94.666 31 147.999 31c46 0 83 -8.33301 111 -25c32 -19.333 48 -47 48 -83c0 -27.333 -9.16699 -51.5 -27.5 -72.5s-45.166 -37.167 -80.499 -48.5
c44 0 77.333 -10.667 100 -32s34 -48.333 34 -81z" />
    <glyph glyph-name="egrave" unicode="&#xe8;" 
d="M439 475l40.002 0.000976562v-478l-40 3l-40 -3v348l-98 -112l-97 -118.5c-34 -43 -63 -82.167 -87 -117.5h-40v478c3.33301 -0.666992 10.666 -1.33398 21.999 -2.00098s17.333 -1 18 -1h19l21 3v-348c43.333 46.667 90.666 101.667 141.999 165s98 124.333 140 183z
" />
    <glyph glyph-name="egrave" unicode="&#x438;" 
d="M439 475l40.002 0.000976562v-478l-40 3l-40 -3v348l-98 -112l-97 -118.5c-34 -43 -63 -82.167 -87 -117.5h-40v478c3.33301 -0.666992 10.666 -1.33398 21.999 -2.00098s17.333 -1 18 -1h19l21 3v-348c43.333 46.667 90.666 101.667 141.999 165s98 124.333 140 183z
" />
    <glyph glyph-name="eacute" unicode="&#xe9;" 
d="M439 475h40.001v-478l-40 3l-40 -3v348l-98 -112l-97 -118.5c-34 -43 -63 -82.167 -87 -117.5h-40v478l40 -3l40 3v-348c43.333 46.667 90.666 101.667 141.999 165s98 124.333 140 183zM436.001 624c-14.667 -31.333 -35.168 -56.167 -61.501 -74.5
s-58.5 -27.5 -96.5 -27.5c-35.333 0 -66.166 9.66699 -92.499 29s-45.5 43.333 -57.5 72l23 17c28 -46.667 71.333 -70 130 -70c29.333 0 55 6 77 18s40 29.333 54 52z" />
    <glyph glyph-name="eacute" unicode="&#x439;" 
d="M439 475h40.001v-478l-40 3l-40 -3v348l-98 -112l-97 -118.5c-34 -43 -63 -82.167 -87 -117.5h-40v478l40 -3l40 3v-348c43.333 46.667 90.666 101.667 141.999 165s98 124.333 140 183zM436.001 624c-14.667 -31.333 -35.168 -56.167 -61.501 -74.5
s-58.5 -27.5 -96.5 -27.5c-35.333 0 -66.166 9.66699 -92.499 29s-45.5 43.333 -57.5 72l23 17c28 -46.667 71.333 -70 130 -70c29.333 0 55 6 77 18s40 29.333 54 52z" />
    <glyph glyph-name="ecircumflex" unicode="&#xea;" horiz-adv-x="500" 
d="M159 300c-0.666992 -9.33301 -1.00098 -15.999 -1.00098 -19.999c0 -6.66699 2 -11 6 -13c7.33301 -4 18.333 -0.666992 33 10c10.667 7.33301 28.667 23.666 54 48.999l62 63l78 86l40 -3l39 3v-7l-120 -103c-40.667 -35.333 -74 -65.333 -100 -90l235 -273v-5l-49 3
l-50 -3c-17.333 22.667 -38.666 49 -63.999 79l-127 146c-9.33301 10.667 -17 16 -23 16c-8.66699 0 -13 -12.333 -13 -37v-204l-40 3l-40 -3v478l40 -3l40 3v-175z" />
    <glyph glyph-name="ecircumflex" unicode="&#x43a;" horiz-adv-x="500" 
d="M159 300c-0.666992 -9.33301 -1.00098 -15.999 -1.00098 -19.999c0 -6.66699 2 -11 6 -13c7.33301 -4 18.333 -0.666992 33 10c10.667 7.33301 28.667 23.666 54 48.999l62 63l78 86l40 -3l39 3v-7l-120 -103c-40.667 -35.333 -74 -65.333 -100 -90l235 -273v-5l-49 3
l-50 -3c-17.333 22.667 -38.666 49 -63.999 79l-127 146c-9.33301 10.667 -17 16 -23 16c-8.66699 0 -13 -12.333 -13 -37v-204l-40 3l-40 -3v478l40 -3l40 3v-175z" />
    <glyph glyph-name="edieresis" unicode="&#xeb;" horiz-adv-x="481" 
d="M75 -4l-32 2.99805l-32 -3c11.333 20.667 32.5 65 63.5 133l86.5 195c32 74.667 52.667 124.667 62 150c9.33301 -1.33301 17 -2 23 -2c5.33301 0 12.666 0.666992 21.999 2c20.667 -53.333 51.334 -127.666 92.001 -222.999l112 -255l-45 3l-44 -3
c-20 58 -41 114.5 -63 169.5s-50.333 121.5 -85 199.5h-6c-30 -60 -59.833 -126.167 -89.5 -198.5s-51.167 -129.166 -64.5 -170.499z" />
    <glyph glyph-name="edieresis" unicode="&#x43b;" horiz-adv-x="481" 
d="M75 -4l-32 2.99805l-32 -3c11.333 20.667 32.5 65 63.5 133l86.5 195c32 74.667 52.667 124.667 62 150c9.33301 -1.33301 17 -2 23 -2c5.33301 0 12.666 0.666992 21.999 2c20.667 -53.333 51.334 -127.666 92.001 -222.999l112 -255l-45 3l-44 -3
c-20 58 -41 114.5 -63 169.5s-50.333 121.5 -85 199.5h-6c-30 -60 -59.833 -126.167 -89.5 -198.5s-51.167 -129.166 -64.5 -170.499z" />
    <glyph glyph-name="igrave" unicode="&#xec;" horiz-adv-x="667" 
d="M102 474h27c34.667 -68.667 71 -137 109 -205s71.333 -123.667 100 -167c58.667 101.333 125 225.333 199 372h27l21 -179.5l19.5 -161l16.5 -136.5l-44 3l-44 -3c0 64 -4 132.333 -12 205c-2 19.333 -7 59.666 -15 120.999c-61.333 -99.333 -121.333 -208 -180 -326h-23
l-88 166l-94 160c-8 -57.333 -15.667 -115.5 -23 -174.5s-11 -109.5 -11 -151.5c-8.66699 1.33301 -17 2.33301 -25 3l-28 -3c10 42.667 21.667 113.334 35 212.001z" />
    <glyph glyph-name="igrave" unicode="&#x43c;" horiz-adv-x="667" 
d="M102 474h27c34.667 -68.667 71 -137 109 -205s71.333 -123.667 100 -167c58.667 101.333 125 225.333 199 372h27l21 -179.5l19.5 -161l16.5 -136.5l-44 3l-44 -3c0 64 -4 132.333 -12 205c-2 19.333 -7 59.666 -15 120.999c-61.333 -99.333 -121.333 -208 -180 -326h-23
l-88 166l-94 160c-8 -57.333 -15.667 -115.5 -23 -174.5s-11 -109.5 -11 -151.5c-8.66699 1.33301 -17 2.33301 -25 3l-28 -3c10 42.667 21.667 113.334 35 212.001z" />
    <glyph glyph-name="iacute" unicode="&#xed;" 
d="M399 271l0.000976562 204l40 -3l40 3v-478l-40 3l-40 -3v233l-121 2l-121 -2v-233l-40 3l-40 -3v478l40 -3l40 3v-204c13.333 0 33.333 -0.333008 60 -1s47 -1 61 -1c13.333 0 33.666 0.333008 60.999 1s47.333 1 60 1z" />
    <glyph glyph-name="iacute" unicode="&#x43d;" 
d="M399 271l0.000976562 204l40 -3l40 3v-478l-40 3l-40 -3v233l-121 2l-121 -2v-233l-40 3l-40 -3v478l40 -3l40 3v-204c13.333 0 33.333 -0.333008 60 -1s47 -1 61 -1c13.333 0 33.666 0.333008 60.999 1s47.333 1 60 1z" />
    <glyph glyph-name="icircumflex" unicode="&#xee;" 
d="M289 481c68.667 0 124.5 -22.167 167.5 -66.5s64.5 -103.5 64.5 -177.5c0 -68 -21 -125.333 -63 -172c-46 -50.667 -108.333 -76 -187 -76c-68.667 0 -125.167 22.833 -169.5 68.5s-66.5 106.5 -66.5 182.5c0 70.667 24.167 128.5 72.5 173.5s108.833 67.5 181.5 67.5z
M123 225c0 -56.667 11.668 -103.334 35.001 -140.001c27.333 -43.333 67.666 -65 120.999 -65c52.667 0 93 27 121 81c22 42 33 89 33 141c0 54.667 -10 100.334 -30 137.001c-26 47.333 -64.333 71 -115 71c-58.667 0 -102 -24 -130 -72
c-23.333 -39.333 -35 -90.333 -35 -153z" />
    <glyph glyph-name="icircumflex" unicode="&#x43e;" 
d="M289 481c68.667 0 124.5 -22.167 167.5 -66.5s64.5 -103.5 64.5 -177.5c0 -68 -21 -125.333 -63 -172c-46 -50.667 -108.333 -76 -187 -76c-68.667 0 -125.167 22.833 -169.5 68.5s-66.5 106.5 -66.5 182.5c0 70.667 24.167 128.5 72.5 173.5s108.833 67.5 181.5 67.5z
M123 225c0 -56.667 11.668 -103.334 35.001 -140.001c27.333 -43.333 67.666 -65 120.999 -65c52.667 0 93 27 121 81c22 42 33 89 33 141c0 54.667 -10 100.334 -30 137.001c-26 47.333 -64.333 71 -115 71c-58.667 0 -102 -24 -130 -72
c-23.333 -39.333 -35 -90.333 -35 -153z" />
    <glyph glyph-name="idieresis" unicode="&#xef;" 
d="M479 470v-473l-40 3l-40 -3v435l-121 2l-121 -2v-435l-40 3l-40 -3v473h402z" />
    <glyph glyph-name="idieresis" unicode="&#x43f;" 
d="M479 470v-473l-40 3l-40 -3v435l-121 2l-121 -2v-435l-40 3l-40 -3v473h402z" />
    <glyph glyph-name="eth" unicode="&#xf0;" 
d="M146 -259l-39.999 3.00098l-40 -3v734l40 -3l40 3v-95c16.667 29.333 32.667 50.666 48 63.999c30.667 26 71.667 39 123 39c62 0 111.667 -23.333 149 -70c34.667 -43.333 52 -97 52 -161c0 -80.667 -19.833 -144.667 -59.5 -192s-91.834 -71 -156.501 -71
c-35.333 0 -65.5 8 -90.5 24s-46.167 40 -63.5 72zM293.001 31.001c46.667 0 81.999 21.667 105.999 65c20.667 38 31 88.667 31 152c0 56 -9.66699 100.333 -29 133c-23.333 40 -59.666 60 -108.999 60c-51.333 0 -90 -24.667 -116 -74c-20 -38.667 -30 -86.667 -30 -144
c0 -56.667 11.667 -102 35 -136c26 -37.333 63.333 -56 112 -56z" />
    <glyph glyph-name="eth" unicode="&#x440;" 
d="M146 -259l-39.999 3.00098l-40 -3v734l40 -3l40 3v-95c16.667 29.333 32.667 50.666 48 63.999c30.667 26 71.667 39 123 39c62 0 111.667 -23.333 149 -70c34.667 -43.333 52 -97 52 -161c0 -80.667 -19.833 -144.667 -59.5 -192s-91.834 -71 -156.501 -71
c-35.333 0 -65.5 8 -90.5 24s-46.167 40 -63.5 72zM293.001 31.001c46.667 0 81.999 21.667 105.999 65c20.667 38 31 88.667 31 152c0 56 -9.66699 100.333 -29 133c-23.333 40 -59.666 60 -108.999 60c-51.333 0 -90 -24.667 -116 -74c-20 -38.667 -30 -86.667 -30 -144
c0 -56.667 11.667 -102 35 -136c26 -37.333 63.333 -56 112 -56z" />
    <glyph glyph-name="ntilde" unicode="&#xf1;" horiz-adv-x="481" 
d="M429 374h-7.99902l-13 17.5c-4.66699 6.33301 -9.33398 11.5 -14.001 15.5c-11.333 12.667 -26 22.5 -44 29.5s-36.333 10.5 -55 10.5c-54.667 0 -97.667 -21 -129 -63c-28.667 -38.667 -43 -86 -43 -142c0 -64 16.833 -116.5 50.5 -157.5s77.5 -61.5 131.5 -61.5
c27.333 0 52.333 6 75 18c17.333 9.33301 38.333 25 63 47l6 -3l-5 -46c-45.333 -33.333 -96.333 -50 -153 -50c-81.333 0 -145 23.667 -191 71c-43.333 44.667 -65 103.667 -65 177c0 76 24 135.667 72 179s110.333 65 187 65c30.667 0 58.667 -3.16699 84 -9.5
s50 -16.833 74 -31.5z" />
    <glyph glyph-name="ntilde" unicode="&#x441;" horiz-adv-x="481" 
d="M429 374h-7.99902l-13 17.5c-4.66699 6.33301 -9.33398 11.5 -14.001 15.5c-11.333 12.667 -26 22.5 -44 29.5s-36.333 10.5 -55 10.5c-54.667 0 -97.667 -21 -129 -63c-28.667 -38.667 -43 -86 -43 -142c0 -64 16.833 -116.5 50.5 -157.5s77.5 -61.5 131.5 -61.5
c27.333 0 52.333 6 75 18c17.333 9.33301 38.333 25 63 47l6 -3l-5 -46c-45.333 -33.333 -96.333 -50 -153 -50c-81.333 0 -145 23.667 -191 71c-43.333 44.667 -65 103.667 -65 177c0 76 24 135.667 72 179s110.333 65 187 65c30.667 0 58.667 -3.16699 84 -9.5
s50 -16.833 74 -31.5z" />
    <glyph glyph-name="ograve" unicode="&#xf2;" horiz-adv-x="444" 
d="M262 -3l-40.001 3.00098l-40 -3v437c-40.667 0 -75.667 -1.66699 -105 -5l-67 -10c1.33301 12 2 20.333 2 25v12c-1.33301 6 -2 10.667 -2 14h424c-0.666992 -6.66699 -1 -15.334 -1 -26.001s0.333008 -19 1 -25c-23.333 4 -38.666 6.33301 -45.999 7
c-40 5.33301 -82 8 -126 8v-437z" />
    <glyph glyph-name="ograve" unicode="&#x442;" horiz-adv-x="444" 
d="M262 -3l-40.001 3.00098l-40 -3v437c-40.667 0 -75.667 -1.66699 -105 -5l-67 -10c1.33301 12 2 20.333 2 25v12c-1.33301 6 -2 10.667 -2 14h424c-0.666992 -6.66699 -1 -15.334 -1 -26.001s0.333008 -19 1 -25c-23.333 4 -38.666 6.33301 -45.999 7
c-40 5.33301 -82 8 -126 8v-437z" />
    <glyph glyph-name="oacute" unicode="&#xf3;" horiz-adv-x="500" 
d="M26 475l48.001 -3l47 3c18 -55.333 39.5 -114.166 64.5 -176.499s53.167 -127.166 84.5 -194.499c21.333 43.333 47 102.666 77 177.999c24.667 61.333 49 125.666 73 192.999l33 -3l32 3l-114 -252l-108 -242c-40.667 -92.667 -74.334 -172.667 -101.001 -240l-34 3
l-34 -3l134 260z" />
    <glyph glyph-name="oacute" unicode="&#x443;" horiz-adv-x="500" 
d="M26 475l48.001 -3l47 3c18 -55.333 39.5 -114.166 64.5 -176.499s53.167 -127.166 84.5 -194.499c21.333 43.333 47 102.666 77 177.999c24.667 61.333 49 125.666 73 192.999l33 -3l32 3l-114 -252l-108 -242c-40.667 -92.667 -74.334 -172.667 -101.001 -240l-34 3
l-34 -3l134 260z" />
    <glyph glyph-name="ocircumflex" unicode="&#xf4;" horiz-adv-x="778" 
d="M535 30c46 0 78.668 24.332 98.001 72.999c14 35.333 21 85.333 21 150c0 51.333 -7.66699 94 -23 128c-19.333 42.667 -48 64 -86 64c-38.667 0 -68.667 -25.667 -90 -77c-17.333 -42 -26 -91 -26 -147c0 -49.333 8 -91.666 24 -126.999
c19.333 -42.667 46.666 -64 81.999 -64zM243.001 439.999c-46 0 -78.668 -24.332 -98.001 -72.999c-14 -35.333 -21 -85.333 -21 -150c0 -51.333 7.66699 -94 23 -128c19.333 -42.667 48 -64 86 -64c38.667 0 68.667 25.667 90 77c17.333 42 26 91 26 147
c0 49.333 -8 91.666 -24 126.999c-19.333 42.667 -46.666 64 -81.999 64zM349 93c-15.333 -35.333 -34.166 -61.5 -56.499 -78.5s-49.833 -25.5 -82.5 -25.5c-50.667 0 -91.667 19.667 -123 59c-34 42.667 -51 103.667 -51 183c0 70.667 17.333 130 52 178
s79.334 72 134.001 72c30.667 0 56.667 -8.66699 78 -26c18.667 -15.333 35 -39 49 -71v364l40 -3l40 3v-371c15.333 35.333 34.166 61.5 56.499 78.5s49.833 25.5 82.5 25.5c50.667 0 91.667 -19.667 123 -59c34 -42.667 51 -103.667 51 -183
c0 -70.667 -17.333 -130 -52 -178s-79.334 -72 -134.001 -72c-30 0 -55.333 8.33301 -76 25s-37.667 40.667 -51 72v-345l-40 3l-40 -3v352z" />
    <glyph glyph-name="ocircumflex" unicode="&#x444;" horiz-adv-x="778" 
d="M535 30c46 0 78.668 24.332 98.001 72.999c14 35.333 21 85.333 21 150c0 51.333 -7.66699 94 -23 128c-19.333 42.667 -48 64 -86 64c-38.667 0 -68.667 -25.667 -90 -77c-17.333 -42 -26 -91 -26 -147c0 -49.333 8 -91.666 24 -126.999
c19.333 -42.667 46.666 -64 81.999 -64zM243.001 439.999c-46 0 -78.668 -24.332 -98.001 -72.999c-14 -35.333 -21 -85.333 -21 -150c0 -51.333 7.66699 -94 23 -128c19.333 -42.667 48 -64 86 -64c38.667 0 68.667 25.667 90 77c17.333 42 26 91 26 147
c0 49.333 -8 91.666 -24 126.999c-19.333 42.667 -46.666 64 -81.999 64zM349 93c-15.333 -35.333 -34.166 -61.5 -56.499 -78.5s-49.833 -25.5 -82.5 -25.5c-50.667 0 -91.667 19.667 -123 59c-34 42.667 -51 103.667 -51 183c0 70.667 17.333 130 52 178
s79.334 72 134.001 72c30.667 0 56.667 -8.66699 78 -26c18.667 -15.333 35 -39 49 -71v364l40 -3l40 3v-371c15.333 35.333 34.166 61.5 56.499 78.5s49.833 25.5 82.5 25.5c50.667 0 91.667 -19.667 123 -59c34 -42.667 51 -103.667 51 -183
c0 -70.667 -17.333 -130 -52 -178s-79.334 -72 -134.001 -72c-30 0 -55.333 8.33301 -76 25s-37.667 40.667 -51 72v-345l-40 3l-40 -3v352z" />
    <glyph glyph-name="otilde" unicode="&#xf5;" horiz-adv-x="500" 
d="M29 475l51 -2.99707l51 3c14 -24.667 34.5 -56.334 61.5 -95.001s49.5 -69 67.5 -91l56 72l84 114l34 -3l35 3c-65.333 -70 -127.333 -141.667 -186 -215l187 -253v-10l-47 3l-47 -3c-14.667 24.667 -35.667 57 -63 97c-29.333 43.333 -55.333 79.666 -78 108.999
l-70 -96c-33.333 -46.667 -58 -83.334 -74 -110.001l-30 3l-30 -3v10l180 226z" />
    <glyph glyph-name="otilde" unicode="&#x445;" horiz-adv-x="500" 
d="M29 475l51 -2.99707l51 3c14 -24.667 34.5 -56.334 61.5 -95.001s49.5 -69 67.5 -91l56 72l84 114l34 -3l35 3c-65.333 -70 -127.333 -141.667 -186 -215l187 -253v-10l-47 3l-47 -3c-14.667 24.667 -35.667 57 -63 97c-29.333 43.333 -55.333 79.666 -78 108.999
l-70 -96c-33.333 -46.667 -58 -83.334 -74 -110.001l-30 3l-30 -3v10l180 226z" />
    <glyph glyph-name="odieresis" unicode="&#xf6;" 
d="M77 0l0.000976562 474.999l40 -3l40 3v-437l119 -2l123 2v437l40 -3l40 3v-439h51c-2 -9.33301 -3 -21 -3 -35c0 -11.333 1 -24.666 3 -39.999h-10c-16.667 18 -36.334 29 -59.001 33s-57 6 -103 6h-281z" />
    <glyph glyph-name="odieresis" unicode="&#x446;" 
d="M77 0l0.000976562 474.999l40 -3l40 3v-437l119 -2l123 2v437l40 -3l40 3v-439h51c-2 -9.33301 -3 -21 -3 -35c0 -11.333 1 -24.666 3 -39.999h-10c-16.667 18 -36.334 29 -59.001 33s-57 6 -103 6h-281z" />
    <glyph glyph-name="divide" unicode="&#xf7;" horiz-adv-x="519" 
d="M356 266l0.00195312 209l40 -3l40 3v-478l-40 3l-40 -3v232c-46.667 -30.667 -99.334 -46 -158.001 -46c-42.667 0 -77.334 8.66699 -104.001 26c-29.333 19.333 -44 47.333 -44 84v182l40 -3l40 3v-173c0 -24.667 8 -43.334 24 -56.001s37.333 -19 64 -19
c24 0 47.5 2.83301 70.5 8.5s45.5 15.834 67.5 30.501z" />
    <glyph glyph-name="divide" unicode="&#x447;" horiz-adv-x="519" 
d="M356 266l0.00195312 209l40 -3l40 3v-478l-40 3l-40 -3v232c-46.667 -30.667 -99.334 -46 -158.001 -46c-42.667 0 -77.334 8.66699 -104.001 26c-29.333 19.333 -44 47.333 -44 84v182l40 -3l40 3v-173c0 -24.667 8 -43.334 24 -56.001s37.333 -19 64 -19
c24 0 47.5 2.83301 70.5 8.5s45.5 15.834 67.5 30.501z" />
    <glyph glyph-name="oslash" unicode="&#xf8;" horiz-adv-x="722" 
d="M321 38l0.000976562 437.003c3.33301 -0.666992 9 -1.33398 17 -2.00098s15.667 -1 23 -1h19l21 3v-437l83 -2l81 2v437c3.33301 -0.666992 9 -1.33398 17 -2.00098s15.667 -1 23 -1c18.667 0 32 1 40 3v-475h-568v475
c3.33301 -0.666992 10.666 -1.33398 21.999 -2.00098s17.333 -1 18 -1h19l21 3v-437l77 -2z" />
    <glyph glyph-name="oslash" unicode="&#x448;" horiz-adv-x="722" 
d="M321 38l0.000976562 437.003c3.33301 -0.666992 9 -1.33398 17 -2.00098s15.667 -1 23 -1h19l21 3v-437l83 -2l81 2v437c3.33301 -0.666992 9 -1.33398 17 -2.00098s15.667 -1 23 -1c18.667 0 32 1 40 3v-475h-568v475
c3.33301 -0.666992 10.666 -1.33398 21.999 -2.00098s17.333 -1 18 -1h19l21 3v-437l77 -2z" />
    <glyph glyph-name="ugrave" unicode="&#xf9;" horiz-adv-x="722" 
d="M77 0l0.00195312 474.999l40 -3l40 3v-437l81 -2l83 2v437c9.33301 -2 22.666 -3 39.999 -3l40 3v-437l83 -2l81 2v437l40 -3l40 3v-439h51c-2 -9.33301 -3 -19.666 -3 -30.999c0 -13.333 1 -28 3 -44h-10c-16.667 18 -36.334 29 -59.001 33s-57 6 -103 6h-447z" />
    <glyph glyph-name="ugrave" unicode="&#x449;" horiz-adv-x="722" 
d="M77 0l0.00195312 474.999l40 -3l40 3v-437l81 -2l83 2v437c9.33301 -2 22.666 -3 39.999 -3l40 3v-437l83 -2l81 2v437l40 -3l40 3v-439h51c-2 -9.33301 -3 -19.666 -3 -30.999c0 -13.333 1 -28 3 -44h-10c-16.667 18 -36.334 29 -59.001 33s-57 6 -103 6h-447z" />
    <glyph glyph-name="uacute" unicode="&#xfa;" horiz-adv-x="463" 
d="M157 38c15.333 0 28.833 -0.166992 40.5 -0.5s22.167 -0.833008 31.5 -1.5c36 0 64.833 8.66699 86.5 26s32.5 41.666 32.5 72.999c0 34.667 -11.333 60.334 -34 77.001c-18.667 13.333 -44 20 -76 20h-81v-194zM77 434c-12.667 0 -23.8311 -1.16504 -33.498 -3.49805
s-20.834 -6.16602 -33.501 -11.499c2 9.33301 3 17.666 3 24.999c0 9.33301 -1 18 -3 26h147v-202h105c52 0 92 -9.33301 120 -28c32.667 -21.333 49 -54.333 49 -99c0 -26.667 -7.83301 -50.834 -23.5 -72.501s-36.834 -38.834 -63.501 -51.501
c-13.333 -6.66699 -27 -11.167 -41 -13.5s-30.333 -3.5 -49 -3.5h-177v434z" />
    <glyph glyph-name="uacute" unicode="&#x44a;" horiz-adv-x="463" 
d="M157 38c15.333 0 28.833 -0.166992 40.5 -0.5s22.167 -0.833008 31.5 -1.5c36 0 64.833 8.66699 86.5 26s32.5 41.666 32.5 72.999c0 34.667 -11.333 60.334 -34 77.001c-18.667 13.333 -44 20 -76 20h-81v-194zM77 434c-12.667 0 -23.8311 -1.16504 -33.498 -3.49805
s-20.834 -6.16602 -33.501 -11.499c2 9.33301 3 17.666 3 24.999c0 9.33301 -1 18 -3 26h147v-202h105c52 0 92 -9.33301 120 -28c32.667 -21.333 49 -54.333 49 -99c0 -26.667 -7.83301 -50.834 -23.5 -72.501s-36.834 -38.834 -63.501 -51.501
c-13.333 -6.66699 -27 -11.167 -41 -13.5s-30.333 -3.5 -49 -3.5h-177v434z" />
    <glyph glyph-name="ucircumflex" unicode="&#xfb;" horiz-adv-x="648" 
d="M571 -3l-40 3l-40 -3v478l40 -3l40 3v-478zM77 475c10 -2 23.668 -2.99805 41.001 -2.99805c16.667 0 29.667 1 39 3v-207h105c52 0 92 -9.33301 120 -28c32.667 -21.333 49 -54.333 49 -99c0 -26.667 -7.83301 -50.834 -23.5 -72.501s-36.834 -38.834 -63.501 -51.501
c-13.333 -6.66699 -27 -11.167 -41 -13.5s-30.333 -3.5 -49 -3.5h-177v475zM157.001 38.002c15.333 0 28.833 -0.166992 40.5 -0.5s22.167 -0.833008 31.5 -1.5c36 0 64.833 8.66699 86.5 26s32.5 41.666 32.5 72.999c0 34.667 -11.333 60.334 -34 77.001
c-18.667 13.333 -44 20 -76 20h-81v-194z" />
    <glyph glyph-name="ucircumflex" unicode="&#x44b;" horiz-adv-x="648" 
d="M571 -3l-40 3l-40 -3v478l40 -3l40 3v-478zM77 475c10 -2 23.668 -2.99805 41.001 -2.99805c16.667 0 29.667 1 39 3v-207h105c52 0 92 -9.33301 120 -28c32.667 -21.333 49 -54.333 49 -99c0 -26.667 -7.83301 -50.834 -23.5 -72.501s-36.834 -38.834 -63.501 -51.501
c-13.333 -6.66699 -27 -11.167 -41 -13.5s-30.333 -3.5 -49 -3.5h-177v475zM157.001 38.002c15.333 0 28.833 -0.166992 40.5 -0.5s22.167 -0.833008 31.5 -1.5c36 0 64.833 8.66699 86.5 26s32.5 41.666 32.5 72.999c0 34.667 -11.333 60.334 -34 77.001
c-18.667 13.333 -44 20 -76 20h-81v-194z" />
    <glyph glyph-name="udieresis" unicode="&#xfc;" horiz-adv-x="463" 
d="M77 475c10 -2 23.668 -2.99805 41.001 -2.99805c16.667 0 29.667 1 39 3v-207h105c52 0 92 -9.33301 120 -28c32.667 -21.333 49 -54.333 49 -99c0 -26.667 -7.83301 -50.834 -23.5 -72.501s-36.834 -38.834 -63.501 -51.501c-13.333 -6.66699 -27 -11.167 -41 -13.5
s-30.333 -3.5 -49 -3.5h-177v475zM157.001 38.002c15.333 0 28.833 -0.166992 40.5 -0.5s22.167 -0.833008 31.5 -1.5c36 0 64.833 8.66699 86.5 26s32.5 41.666 32.5 72.999c0 34.667 -11.333 60.334 -34 77.001c-18.667 13.333 -44 20 -76 20h-81v-194z" />
    <glyph glyph-name="udieresis" unicode="&#x44c;" horiz-adv-x="463" 
d="M77 475c10 -2 23.668 -2.99805 41.001 -2.99805c16.667 0 29.667 1 39 3v-207h105c52 0 92 -9.33301 120 -28c32.667 -21.333 49 -54.333 49 -99c0 -26.667 -7.83301 -50.834 -23.5 -72.501s-36.834 -38.834 -63.501 -51.501c-13.333 -6.66699 -27 -11.167 -41 -13.5
s-30.333 -3.5 -49 -3.5h-177v475zM157.001 38.002c15.333 0 28.833 -0.166992 40.5 -0.5s22.167 -0.833008 31.5 -1.5c36 0 64.833 8.66699 86.5 26s32.5 41.666 32.5 72.999c0 34.667 -11.333 60.334 -34 77.001c-18.667 13.333 -44 20 -76 20h-81v-194z" />
    <glyph glyph-name="yacute" unicode="&#xfd;" horiz-adv-x="481" 
d="M445 247c0 -82 -25.666 -146.666 -76.999 -193.999c-46.667 -42.667 -104.334 -64 -173.001 -64c-60 0 -114 17 -162 51v44h5c22 -20 45.167 -35.167 69.5 -45.5s48.5 -15.5 72.5 -15.5c48.667 0 89.667 18 123 54c36 39.333 54 91 54 155h-148h-39.5
c-12.333 0 -24.166 -1 -35.499 -3c1.33301 8 2 15.333 2 22v12c-1.33301 5.33301 -2 9 -2 11c17.333 -3.33301 42.333 -5 75 -5h147c0 57.333 -18.667 102.333 -56 135c-32.667 28.667 -71.334 43 -116.001 43c-28 0 -53.833 -6.5 -77.5 -19.5
s-40.834 -30.833 -51.501 -53.5h-8c-1.33301 12 -2.66602 24.833 -3.99902 38.5s-3 25.167 -5 34.5c52.667 22.667 104.667 34 156 34c72 0 130.667 -19.333 176 -58c50 -42.667 75 -101.334 75 -176.001z" />
    <glyph glyph-name="yacute" unicode="&#x44d;" horiz-adv-x="481" 
d="M445 247c0 -82 -25.666 -146.666 -76.999 -193.999c-46.667 -42.667 -104.334 -64 -173.001 -64c-60 0 -114 17 -162 51v44h5c22 -20 45.167 -35.167 69.5 -45.5s48.5 -15.5 72.5 -15.5c48.667 0 89.667 18 123 54c36 39.333 54 91 54 155h-148h-39.5
c-12.333 0 -24.166 -1 -35.499 -3c1.33301 8 2 15.333 2 22v12c-1.33301 5.33301 -2 9 -2 11c17.333 -3.33301 42.333 -5 75 -5h147c0 57.333 -18.667 102.333 -56 135c-32.667 28.667 -71.334 43 -116.001 43c-28 0 -53.833 -6.5 -77.5 -19.5
s-40.834 -30.833 -51.501 -53.5h-8c-1.33301 12 -2.66602 24.833 -3.99902 38.5s-3 25.167 -5 34.5c52.667 22.667 104.667 34 156 34c72 0 130.667 -19.333 176 -58c50 -42.667 75 -101.334 75 -176.001z" />
    <glyph glyph-name="thorn" unicode="&#xfe;" horiz-adv-x="721" 
d="M312 225c0 -57.333 10.333 -104 31 -140c25.333 -43.333 63 -65 113 -65c48.667 0 86 27 112 81c20 42 30 89 30 141c0 54 -9.33301 99.667 -28 137c-24 47.333 -59.333 71 -106 71c-54 0 -94 -24 -120 -72c-21.333 -39.333 -32 -90.333 -32 -153zM225 229h-67.998v-232
l-40 3l-40 -3v478l40 -3l40 3v-201h69c7.33301 62 33.166 112 77.499 150s98.166 57 161.499 57c65.333 0 118.5 -22.167 159.5 -66.5s61.5 -103.5 61.5 -177.5c0 -68 -20 -125.333 -60 -172c-44 -50.667 -103.333 -76 -178 -76c-63.333 0 -116.333 22 -159 66
s-64 102 -64 174z" />
    <glyph glyph-name="thorn" unicode="&#x44e;" horiz-adv-x="721" 
d="M312 225c0 -57.333 10.333 -104 31 -140c25.333 -43.333 63 -65 113 -65c48.667 0 86 27 112 81c20 42 30 89 30 141c0 54 -9.33301 99.667 -28 137c-24 47.333 -59.333 71 -106 71c-54 0 -94 -24 -120 -72c-21.333 -39.333 -32 -90.333 -32 -153zM225 229h-67.998v-232
l-40 3l-40 -3v478l40 -3l40 3v-201h69c7.33301 62 33.166 112 77.499 150s98.166 57 161.499 57c65.333 0 118.5 -22.167 159.5 -66.5s61.5 -103.5 61.5 -177.5c0 -68 -20 -125.333 -60 -172c-44 -50.667 -103.333 -76 -178 -76c-63.333 0 -116.333 22 -159 66
s-64 102 -64 174z" />
    <glyph glyph-name="ydieresis" unicode="&#xff;" horiz-adv-x="481" 
d="M404 -3l-39 3.00098l-41 -3v219h-47l-59 -85c-42.667 -60 -75.334 -104.667 -98.001 -134l-46 3l-58 -3l64 79c49.333 61.333 86.333 110 111 146c-36 6 -65.333 16 -88 30c-38 23.333 -57 55.666 -57 96.999c0 37.333 15.333 66.833 46 88.5s74.334 32.5 131.001 32.5
h181v-473zM324 434.001l-98 1c-30 0 -53.833 -7.83301 -71.5 -23.5s-26.5 -37.167 -26.5 -64.5c0 -36 16 -61.667 48 -77c24.667 -12 58 -18 100 -18h48v182z" />
    <glyph glyph-name="ydieresis" unicode="&#x44f;" horiz-adv-x="481" 
d="M404 -3l-39 3.00098l-41 -3v219h-47l-59 -85c-42.667 -60 -75.334 -104.667 -98.001 -134l-46 3l-58 -3l64 79c49.333 61.333 86.333 110 111 146c-36 6 -65.333 16 -88 30c-38 23.333 -57 55.666 -57 96.999c0 37.333 15.333 66.833 46 88.5s74.334 32.5 131.001 32.5
h181v-473zM324 434.001l-98 1c-30 0 -53.833 -7.83301 -71.5 -23.5s-26.5 -37.167 -26.5 -64.5c0 -36 16 -61.667 48 -77c24.667 -12 58 -18 100 -18h48v182z" />
    <glyph glyph-name="OE" unicode="&#x152;" horiz-adv-x="1018" 
d="M622 41h99c49.333 4.66699 88 21.667 116 51s42 66.333 42 111c0 36.667 -8.66699 66.667 -26 90c-20 26.667 -43.167 41.167 -69.5 43.5s-53 3.83301 -80 4.5s-49.833 1 -68.5 1h-13v-301zM534 341c-22.667 0 -55.168 0.834961 -97.501 2.50195s-69.166 2.5 -80.499 2.5
c-30 0 -66.167 -0.833008 -108.5 -2.5s-65.5 -2.5 -69.5 -2.5v-344l-44 3l-44 -3v684l44 -3l44 3v-287c20 0 51.167 -0.833008 93.5 -2.5s70.5 -2.5 84.5 -2.5c29.333 0 65.333 0.833008 108 2.5s66 2.5 70 2.5v287l44 -3l44 3v-296h91c94.667 0 162 -14.333 202 -43
c37.333 -26.667 56 -71.334 56 -134.001c0 -58.667 -18 -104.334 -54 -137.001c-33.333 -30 -86.666 -52.333 -159.999 -67c-10 -2 -30.5 -3.33301 -61.5 -4s-49.167 -1 -54.5 -1h-19h-16h-14h-11c-10.667 0 -19.834 0.166992 -27.501 0.5s-14.167 0.5 -19.5 0.5v341z" />
    <glyph glyph-name="oe" unicode="&#x153;" horiz-adv-x="740" 
d="M434 38c15.333 0 28.833 -0.166992 40.5 -0.5s22.167 -0.833008 31.5 -1.5c36 0 64.833 8.66699 86.5 26s32.5 41.666 32.5 72.999c0 34.667 -11.333 60.334 -34 77.001c-18.667 13.333 -44 20 -76 20h-81v-194zM354 229l-98 3.00195l-99 -3v-232l-40 3l-40 -3v478l40 -3
l40 3v-201c32 -2.66699 53.333 -4.16699 64 -4.5s22.334 -0.5 35.001 -0.5c35.333 0 68 1.66699 98 5v201c10 -2 23.667 -3 41 -3c16.667 0 29.667 1 39 3v-207h105c52 0 92 -9.33301 120 -28c32.667 -21.333 49 -54.333 49 -99c0 -26.667 -7.83301 -50.834 -23.5 -72.501
s-36.834 -38.834 -63.501 -51.501c-13.333 -6.66699 -27 -11.167 -41 -13.5s-30.333 -3.5 -49 -3.5h-177v229z" />
    <glyph glyph-name="Scaron" unicode="&#x160;" horiz-adv-x="926" 
d="M530 41l99.002 0.000976562c49.333 4.66699 88 21.667 116 51s42 66.333 42 111c0 37.333 -8.66699 68 -26 92c-20 27.333 -41.833 42.166 -65.5 44.499s-42.334 3.5 -56.001 3.5h-32.5c-14.667 0 -28.334 -0.166992 -41.001 -0.5s-24.667 -0.5 -36 -0.5v-301z
M442.002 631.001l-56.998 2l-51 -2c-24 -52 -54.333 -122.333 -91 -211l-90 -225l-74 -198l-37 3l-36 -3c12 22.667 39.667 82.334 83 179.001l126 289c49.333 114.667 78.666 186.667 87.999 216h227v-300h91c95.333 0 162.166 -13.333 200.499 -40s57.5 -71 57.5 -133
c0 -58.667 -18 -104.334 -54 -137.001c-33.333 -30 -86.666 -52.333 -159.999 -67c-10 -2 -30.5 -3.33301 -61.5 -4s-49.167 -1 -54.5 -1h-19h-16h-14h-11c-10.667 0 -19.834 0.166992 -27.501 0.5s-14.167 0.5 -19.5 0.5v631z" />
    <glyph glyph-name="scaron" unicode="&#x161;" horiz-adv-x="684" 
d="M378 38c15.333 0 28.833 -0.166992 40.5 -0.5s22.167 -0.833008 31.5 -1.5c36 0 64.833 8.66699 86.5 26s32.5 41.666 32.5 72.999c0 34.667 -11.333 60.334 -34 77.001c-18.667 13.333 -44 20 -76 20h-81v-194zM298 432l-39.998 0.00195312
c-31.333 -62 -65 -136.667 -101 -224c-18.667 -45.333 -41.334 -103.333 -68.001 -174c-4 -10 -8.66699 -22.667 -14 -38l-32 3l-32 -3l67 140l78 171c30 68 52 122.333 66 163h156v-202h105c52 0 92 -9.33301 120 -28c32.667 -21.333 49 -54.333 49 -99
c0 -26.667 -7.83301 -50.834 -23.5 -72.501s-36.834 -38.834 -63.501 -51.501c-13.333 -6.66699 -27 -11.167 -41 -13.5s-30.333 -3.5 -49 -3.5h-177v432z" />
    <glyph glyph-name="Ydieresis" unicode="&#x178;" 
d="M238 0h-161v475l40 -3l40 3v-437l121 -2l121 2v437l40 -3l40 3v-475h-161v-61l-40 3l-40 -3v61z" />
    <glyph glyph-name="florin" unicode="&#x192;" horiz-adv-x="407" 
d="M165 532h-34l125 125l25 25l27 18c8 2 16 1 24 -3s13.167 -9 15.5 -15s3.5 -12 3.5 -18c0 -5.33301 -1.33301 -9.33301 -4 -12c-2 -4.66699 -6 -9 -12 -13s-10.333 -7 -13 -9zM157 -3l-40 3.00098l-40 -3v473h318c-0.666992 -6.66699 -1 -15.334 -1 -26.001
s0.333008 -19 1 -25c-22.667 4 -52.5 7.5 -89.5 10.5s-86.5 4.5 -148.5 4.5v-437z" />
    <glyph glyph-name="endash" unicode="&#x2013;" horiz-adv-x="500" 
d="M0 197v48h505v-48h-505z" />
    <glyph glyph-name="emdash" unicode="&#x2014;" horiz-adv-x="1000" 
d="M0 245h1000v-48h-1000v48z" />
    <glyph glyph-name="quoteleft" unicode="&#x2018;" horiz-adv-x="278" 
d="M156 467c-6 -18 -10.666 -30 -13.999 -36c-8.66699 -14 -19.334 -21 -32.001 -21c-10.667 0 -20.167 3.5 -28.5 10.5s-12.5 15.833 -12.5 26.5c0 8.66699 2.33301 18 7 28c1.33301 2.66699 6.33301 11 15 25l118 196l17 -7z" />
    <glyph glyph-name="quoteright" unicode="&#x2019;" horiz-adv-x="278" 
d="M122 639c6 18 10.666 30 13.999 36c8.66699 14 19.334 21 32.001 21c10.667 0 20.167 -3.5 28.5 -10.5s12.5 -15.833 12.5 -26.5c0 -8.66699 -2.33301 -18 -7 -28c-1.33301 -2.66699 -6.33301 -11 -15 -25l-118 -196l-17 7z" />
    <glyph glyph-name="quotesinglbase" unicode="&#x201a;" horiz-adv-x="278" 
d="M120 61c6 18 10.666 30 13.999 36c8.66699 14 19.334 21 32.001 21c10.667 0 20.167 -3.5 28.5 -10.5s12.5 -15.833 12.5 -26.5c0 -8.66699 -2.33301 -18 -7 -28c-1.33301 -2.66699 -6.33301 -11 -15 -25l-118 -196l-17 7z" />
    <glyph glyph-name="quotedblleft" unicode="&#x201c;" horiz-adv-x="444" 
d="M322 467c-6 -18 -10.666 -30 -13.999 -36c-8.66699 -14 -19.334 -21 -32.001 -21c-10.667 0 -20.167 3.5 -28.5 10.5s-12.5 15.833 -12.5 26.5c0 8.66699 2.33301 18 7 28c1.33301 2.66699 6.33301 11 15 25l118 196l17 -7zM152.001 467c-6 -18 -10.666 -30 -13.999 -36
c-8.66699 -14 -19.334 -21 -32.001 -21c-10.667 0 -20.167 3.5 -28.5 10.5s-12.5 15.833 -12.5 26.5c0 8.66699 2.33301 18 7 28c1.33301 2.66699 6.33301 11 15 25l118 196l17 -7z" />
    <glyph glyph-name="quotedblright" unicode="&#x201d;" horiz-adv-x="444" 
d="M122 639c6 18 10.666 30 13.999 36c8.66699 14 19.334 21 32.001 21c10.667 0 20.167 -3.5 28.5 -10.5s12.5 -15.833 12.5 -26.5c0 -8.66699 -2.33301 -18 -7 -28c-1.33301 -2.66699 -6.33301 -11 -15 -25l-118 -196l-17 7zM291.999 639c6 18 10.666 30 13.999 36
c8.66699 14 19.334 21 32.001 21c10.667 0 20.167 -3.5 28.5 -10.5s12.5 -15.833 12.5 -26.5c0 -8.66699 -2.33301 -18 -7 -28c-1.33301 -2.66699 -6.33301 -11 -15 -25l-118 -196l-17 7z" />
    <glyph glyph-name="quotedblbase" unicode="&#x201e;" horiz-adv-x="444" 
d="M120 61c6 18 10.666 30 13.999 36c8.66699 14 19.334 21 32.001 21c10.667 0 20.167 -3.5 28.5 -10.5s12.5 -15.833 12.5 -26.5c0 -8.66699 -2.33301 -18 -7 -28c-1.33301 -2.66699 -6.33301 -11 -15 -25l-118 -196l-17 7zM289.999 61c6 18 10.666 30 13.999 36
c8.66699 14 19.334 21 32.001 21c10.667 0 20.167 -3.5 28.5 -10.5s12.5 -15.833 12.5 -26.5c0 -8.66699 -2.33301 -18 -7 -28c-1.33301 -2.66699 -6.33301 -11 -15 -25l-118 -196l-17 7z" />
    <glyph glyph-name="dagger" unicode="&#x2020;" horiz-adv-x="500" 
d="M215 395c-28 0 -62.8311 -0.833008 -104.498 -2.5s-64.834 -2.5 -69.501 -2.5l3 33l-3 32c26.667 0 60.167 -0.833008 100.5 -2.5s64.833 -2.5 73.5 -2.5v231l35 -3l35 3v-231c27.333 0 49.333 0.333008 66 1c66.667 2.66699 102.667 4 108 4l-3 -32l3 -33
c-24 0 -56.833 0.833008 -98.5 2.5s-66.834 2.5 -75.501 2.5v-398l-35 3l-35 -3v398z" />
    <glyph glyph-name="daggerdbl" unicode="&#x2021;" horiz-adv-x="500" 
d="M215 184c-18.667 0 -49.6631 -0.833008 -92.9961 -2.5s-70.333 -2.5 -81 -2.5l3 33l-3 32c27.333 0 62.666 -0.833008 105.999 -2.5s66 -2.5 68 -2.5v200c-18.667 0 -49.667 -0.833008 -93 -2.5s-70.333 -2.5 -81 -2.5l3 33l-3 32
c27.333 0 62.666 -0.833008 105.999 -2.5s66 -2.5 68 -2.5v187l35 -3l35 3v-187c20 0 51.167 0.833008 93.5 2.5s69.166 2.5 80.499 2.5l-3 -32l3 -33c-27.333 0 -62.333 0.833008 -105 2.5s-65.667 2.5 -69 2.5v-200c20 0 51.167 0.833008 93.5 2.5s69.166 2.5 80.499 2.5
l-3 -32l3 -33c-27.333 0 -62.333 0.833008 -105 2.5s-65.667 2.5 -69 2.5v-187l-35 3l-35 -3v187z" />
    <glyph glyph-name="bullet" unicode="&#x2022;" horiz-adv-x="606" 
d="M473 341c0 -47.333 -16.167 -87.5 -48.5 -120.5s-72.166 -49.5 -119.499 -49.5s-87.833 16.5 -121.5 49.5s-50.5 73.167 -50.5 120.5s16.833 87.5 50.5 120.5s74.167 49.5 121.5 49.5s87.166 -16.5 119.499 -49.5s48.5 -73.167 48.5 -120.5z" />
    <glyph glyph-name="ellipsis" unicode="&#x2026;" horiz-adv-x="1000" 
d="M168 109c15.333 0 29 -5.99902 41 -17.999s18 -26 18 -42s-5.66699 -30 -17 -42s-25.333 -18 -42 -18s-31 5.66699 -43 17s-18 25.666 -18 42.999c0 16 6 30 18 42s26.333 18 43 18zM501 109.001c15.333 0 29 -5.99902 41 -17.999s18 -26 18 -42s-5.66699 -30 -17 -42
s-25.333 -18 -42 -18s-31 5.66699 -43 17s-18 25.666 -18 42.999c0 16 6 30 18 42s26.333 18 43 18zM834 109.002c15.333 0 29 -5.99902 41 -17.999s18 -26 18 -42s-5.66699 -30 -17 -42s-25.333 -18 -42 -18s-31 5.66699 -43 17s-18 25.666 -18 42.999c0 16 6 30 18 42
s26.333 18 43 18z" />
    <glyph glyph-name="perthousand" unicode="&#x2030;" horiz-adv-x="1000" 
d="M194 671c44.667 0 78.666 -14.501 101.999 -43.501s35 -66.5 35 -112.5c0 -24.667 -2.83301 -46 -8.5 -64s-16.167 -35.667 -31.5 -53c-12 -14 -27.167 -24.667 -45.5 -32s-37.166 -11 -56.499 -11c-46.667 0 -82 15.333 -106 46c-21.333 27.333 -32 65.333 -32 114
c0 44.667 12.833 81.834 38.5 111.501s60.5 44.5 104.5 44.5zM117.999 499.999c0 -33.333 3.66797 -59.666 11.001 -78.999c11.333 -30 31 -45 59 -45c29.333 0 50 17 62 51c8 22.667 12 52 12 88c0 37.333 -3 65.666 -9 84.999c-10.667 33.333 -30.334 50 -59.001 50
c-32 0 -53.667 -18.333 -65 -55c-7.33301 -23.333 -11 -55 -11 -95zM182 -33.001c-10.667 1.33301 -18.668 2 -24.001 2h-11c-5.33301 -1.33301 -9.33301 -2 -12 -2l387 729c5.33301 -1.33301 13.333 -2 24 -2s18.334 0.666992 23.001 2zM521.999 304.999
c43.333 0 77.6689 -15.668 103.002 -47.001c22.667 -28 34 -64.667 34 -110s-12.667 -83.166 -38 -113.499s-60.333 -45.5 -105 -45.5c-46.667 0 -81.334 14.5 -104.001 43.5s-34 67.5 -34 115.5c0 44 13.167 81.167 39.5 111.5s61.166 45.5 104.499 45.5zM446.002 133.998
c0 -33.333 3.66797 -59.666 11.001 -78.999c11.333 -30 31 -45 59 -45c29.333 0 50 17 62 51c8 22.667 12 52 12 88c0 37.333 -3 65.666 -9 84.999c-10.667 33.333 -30.334 50 -59.001 50c-32 0 -53.667 -18.333 -65 -55c-7.33301 -23.333 -11 -55 -11 -95zM845.003 304.998
c43.333 0 77.332 -15.668 101.999 -47.001c22.667 -28.667 34 -65.334 34 -110.001c0 -45.333 -12.5 -83.166 -37.5 -113.499s-59.833 -45.5 -104.5 -45.5c-47.333 0 -82.166 14.333 -104.499 43s-33.5 67.334 -33.5 116.001c0 44 13 81.167 39 111.5s61 45.5 105 45.5z
M769.002 133.997c0 -33.333 3.66797 -59.666 11.001 -78.999c11.333 -30 31 -45 59 -45c29.333 0 50 17 62 51c8 22.667 12 52 12 88c0 37.333 -3 65.666 -9 84.999c-10.667 33.333 -30.334 50 -59.001 50c-32 0 -53.667 -18.333 -65 -55c-7.33301 -23.333 -11 -55 -11 -95z
" />
    <glyph glyph-name="guilsinglleft" unicode="&#x2039;" horiz-adv-x="333" 
d="M85 224l126.001 185.001c5.33301 -6.66699 10.666 -12 15.999 -16s12.333 -7.33301 21 -10l-112 -158l107 -165c-16 -4.66699 -28.667 -13.334 -38 -26.001z" />
    <glyph glyph-name="guilsinglright" unicode="&#x203a;" horiz-adv-x="333" 
d="M248 219l-126.001 -185.001c-5.33301 6.66699 -10.666 12 -15.999 16s-12.333 7.33301 -21 10l112 158l-107 165c16 4.66699 28.667 13.334 38 26.001z" />
    <glyph glyph-name="trademark" unicode="&#x2122;" horiz-adv-x="950" 
d="M851 681l25.001 -225.499c7.33301 -63 15.333 -123.167 24 -180.5l-28 3l-28 -3c-4.66699 58.667 -10 117.667 -16 177s-11 102.333 -15 129l-89 -164c-28 -53.333 -50 -98.333 -66 -135h-6l-33 67c-14 29.333 -33.667 68 -59 116l-61 116l-19 -169
c-6.66699 -62.667 -10 -108.334 -10 -137.001l-21 3l-21 -3c10 64 21.167 139.333 33.5 226s20.166 146.667 23.499 180h15l99 -189l69 -122l171 311h12zM232.001 275.001l-26.001 3l-26 -3v378c-29.333 0 -55.5 -1 -78.5 -3s-40.167 -3.33301 -51.5 -4v35h306v-35
c-14.667 1.33301 -35.167 2.83301 -61.5 4.5s-47.166 2.5 -62.499 2.5v-378z" />
    <glyph glyph-name=".null" horiz-adv-x="0" 
 />
    <glyph glyph-name="nonmarkingreturn" horiz-adv-x="278" 
 />
    </font>
</defs>
</svg>
