<?xml version="1.0" standalone="no"?>
<!DOCTYPE svg PUBLIC "-//W3C//DTD SVG 1.1//EN" "http://www.w3.org/Graphics/SVG/1.1/DTD/svg11.dtd" >
<svg>
<metadata>
Created by FontForge 20090914 at Wed Sep  6 12:40:31 2017
 By www-data
&#194;&#169;1991,1993 Tilde Ltd. AG Fonts collection.
</metadata>
<defs>
<font id="AGOpus-Bold" horiz-adv-x="556" >
  <font-face 
    font-family="AGOpus"
    font-weight="700"
    font-stretch="normal"
    units-per-em="1000"
    panose-1="0 0 0 0 0 0 0 0 0 0"
    ascent="800"
    descent="-200"
    x-height="480"
    cap-height="681"
    bbox="-31 -263.992 1099 931"
    underline-thickness="38"
    underline-position="-122"
    unicode-range="U+0020-U+2122"
  />
<missing-glyph horiz-adv-x="800" 
d="M50 0v800h700v-800h-700zM700 50v700h-600v-700h600z" />
    <glyph glyph-name=".notdef" horiz-adv-x="800" 
d="M50 0v800h700v-800h-700zM700 50v700h-600v-700h600z" />
    <glyph glyph-name="space" unicode=" " horiz-adv-x="278" 
 />
    <glyph glyph-name="exclam" unicode="!" horiz-adv-x="333" 
d="M248 614c0 -12 -3.33398 -37 -10.001 -75l-15 -79l-21 -114l-11 -58.5c-3.33301 -18.333 -7 -40.5 -11 -66.5h-28c-7.33301 34 -14.333 69 -21 105l-32 177c-3.33301 17.333 -6.66602 37 -9.99902 59s-5 41.333 -5 58c0 23.333 8 42.333 24 57s35.667 22 59 22
c26 0 46 -7.66699 60 -23s21 -36 21 -62zM249.999 68c0 -22.667 -8 -42 -24 -58s-35.333 -24 -58 -24s-42 8 -58 24s-24 35.333 -24 58c0 22 8.16699 41.167 24.5 57.5s35.5 24.5 57.5 24.5s41.167 -8.16699 57.5 -24.5s24.5 -35.5 24.5 -57.5z" />
    <glyph glyph-name="quotedbl" unicode="&#x22;" horiz-adv-x="333" 
d="M287 450c0.666992 -3.33301 1 -8 1 -14c0 -14 -3.16699 -25.167 -9.5 -33.5s-16.166 -12.5 -29.499 -12.5c-26.667 0 -40 14 -40 42c0 7.33301 0.333008 13.333 1 18v169c0 29.333 2.66699 50 8 62s15.666 18 30.999 18c14 0 23.833 -6.5 29.5 -19.5
s8.5 -33.167 8.5 -60.5v-169zM124 450c0.666992 -3.33301 0.998047 -8 0.998047 -14c0 -14 -3.16699 -25.167 -9.5 -33.5s-16.166 -12.5 -29.499 -12.5c-26.667 0 -40 15.333 -40 46c0.666992 6 1 10.667 1 14v169c0 29.333 2.33301 50 7 62s15.334 18 32.001 18
c14 0 23.833 -6.5 29.5 -19.5s8.5 -33.167 8.5 -60.5v-169z" />
    <glyph glyph-name="numbersign" unicode="#" 
d="M524 392h-104l-16 -105h94v-74h-105l-32 -213h-75l32 213h-108l-32 -213h-75l32 213h-103v74h115l16 105h-103v74h114l30 198h75l-30 -198h107l29 198h75l-29 -198h93v-74zM345 392h-107l-16 -105h107z" />
    <glyph glyph-name="dollar" unicode="$" 
d="M518 200c0 -60 -21.668 -110.668 -65.001 -152.001s-94.333 -62 -153 -62v-108c-10 2 -20.667 3 -32 3h-13c-6 -1.33301 -10.333 -2 -13 -2v107c-37.333 0 -72.833 5.5 -106.5 16.5s-64.5 27.5 -92.5 49.5l25 118h19c9.33301 -34.667 28.333 -64.167 57 -88.5
s61.334 -39.5 98.001 -45.5v237c-68.667 13.333 -117.667 32 -147 56c-38.667 31.333 -58 79 -58 143c0 47.333 12.5 86.333 37.5 117s60.5 53.667 106.5 69c19.333 6 39.666 10 60.999 12v80c5.33301 -1.33301 10.166 -2 14.499 -2h14.5h11c4 0 10 0.666992 18 2v-80
c34 0 65.667 -4.16699 95 -12.5s56.333 -22.166 81 -41.499c-9.33301 -20 -16.5 -36.5 -21.5 -49.5s-10.167 -29.833 -15.5 -50.5h-14c-9.33301 28 -25.166 51.333 -47.499 70s-48.166 30 -77.499 34v-216c68 -14.667 118.667 -35 152 -61c44 -34 66 -81.667 66 -143z
M241.999 420.999l0.000976562 199.001c-26.667 -3.33301 -47.834 -13.833 -63.501 -31.5s-23.5 -40.5 -23.5 -68.5c0 -26.667 8 -48.334 24 -65.001c14 -14.667 35 -26 63 -34zM400 147c0 30.667 -13 57.334 -39 80.001c-20.667 18 -41 28 -61 30v-221
c18.667 0 39 9.66699 61 29c26 23.333 39 50.666 39 81.999z" />
    <glyph glyph-name="percent" unicode="%" horiz-adv-x="1000" 
d="M900 162c0 -53.333 -16.668 -96 -50.001 -128s-75.666 -48 -126.999 -48c-49.333 0 -88.666 14.667 -117.999 44s-44 69 -44 119c0 47.333 16.833 86.833 50.5 118.5s74.5 47.5 122.5 47.5c45.333 0 83.666 -13 114.999 -39c34 -28.667 51 -66.667 51 -114zM692.999 694
l-348 -724c-10.667 1.33301 -18.667 2 -24 2h-14c-6.66699 -1.33301 -11.667 -2 -15 -2l347 724c10.667 -1.33301 19 -2 25 -2h14c6.66699 1.33301 11.667 2 15 2zM438.999 517c0 -53.333 -16.668 -96 -50.001 -128s-75.666 -48 -126.999 -48
c-49.333 0 -88.666 14.667 -117.999 44s-44 69 -44 119c0 47.333 16.833 86.833 50.5 118.5s74.5 47.5 122.5 47.5c45.333 0 83.666 -13 114.999 -39c34 -28.667 51 -66.667 51 -114zM799.998 162c0 31.333 -3.66699 57.002 -11 77.002
c-10.667 29.333 -29.334 44 -56.001 44c-29.333 0 -49.666 -16.333 -60.999 -49c-7.33301 -21.333 -11 -50.333 -11 -87s3 -64.334 9 -83.001c10 -30.667 29.333 -46 58 -46c30 0 50.667 17.667 62 53c6.66699 21.333 10 51.666 10 90.999zM338.998 517.002
c0 31.333 -3.66699 57.002 -11 77.002c-10.667 29.333 -29.334 44 -56.001 44c-29.333 0 -49.666 -16.333 -60.999 -49c-7.33301 -21.333 -11 -50.333 -11 -87s3 -64.334 9 -83.001c10 -30.667 29.333 -46 58 -46c30 0 50.667 17.667 62 53
c6.66699 21.333 10 51.666 10 90.999z" />
    <glyph glyph-name="ampersand" unicode="&#x26;" horiz-adv-x="722" 
d="M696 333c-24.667 -34.667 -46.667 -64.3311 -66 -88.998c-22 -28 -46.333 -56 -73 -84l137 -152v-13c-13.333 0 -31.333 0.833008 -54 2.5s-36.334 2.5 -41.001 2.5c-13.333 0 -31.333 -0.833008 -54 -2.5s-36.334 -2.5 -41.001 -2.5l-51 71
c-28 -24.667 -61.333 -44.834 -100 -60.501s-76 -23.5 -112 -23.5c-29.333 0 -55.166 3.5 -77.499 10.5s-44.5 19.5 -66.5 37.5c-37.333 30.667 -56 71.334 -56 122.001c0 46.667 19 89 57 127c30 29.333 70.333 55.666 121 78.999
c-19.333 28.667 -32.333 48.334 -39 59.001c-22.667 38 -34 75 -34 111c0 45.333 18.333 82.166 55 110.499s79 42.5 127 42.5c43.333 0 80 -9 110 -27c36.667 -22 55 -53.333 55 -94c0 -27.333 -8 -53.333 -24 -78c-19.333 -30 -53.666 -60.667 -102.999 -92l11 -14
l145 -176c22 25.333 43.667 55.666 65 90.999c18 30 36 63 54 99zM415 556.003c0 20.667 -6.16504 38.665 -18.498 53.998s-28.833 23 -49.5 23c-48 0 -72 -24.333 -72 -73c0 -19.333 7.33301 -42.666 22 -69.999c7.33301 -13.333 20.666 -34.666 39.999 -63.999
c19.333 15.333 37.166 35.5 53.499 60.5s24.5 48.167 24.5 69.5zM425.002 101.001l-89.9971 108l-87 110c-22 -14.667 -39.667 -31.667 -53 -51c-15.333 -22 -23 -45 -23 -69c0 -30 10.667 -58.667 32 -86c9.33301 -11.333 18.666 -20.333 27.999 -27s21.666 -13 36.999 -19
c5.33301 -2 12.166 -3.66699 20.499 -5s19.5 -2 33.5 -2c17.333 0 35.833 3.83301 55.5 11.5s35.167 17.5 46.5 29.5z" />
    <glyph glyph-name="quotesingle" unicode="'" horiz-adv-x="278" 
d="M178 450c0.666992 -3.33301 1 -8 1 -14c0 -14 -3.16699 -25.167 -9.5 -33.5s-16.166 -12.5 -29.499 -12.5c-26.667 0 -40 15.333 -40 46c0.666992 6 1 10.667 1 14v169c0 29.333 2.66699 50 8 62s15.666 18 30.999 18c14 0 23.833 -6.5 29.5 -19.5s8.5 -33.167 8.5 -60.5
v-169z" />
    <glyph glyph-name="parenleft" unicode="(" horiz-adv-x="333" 
d="M300 728c-48 -54 -82.335 -120.333 -103.002 -199c-17.333 -65.333 -26 -141.333 -26 -228c0 -82 9 -154 27 -216c20.667 -71.333 54.334 -134.333 101.001 -189l-27 -26c-71.333 61.333 -123.666 126.833 -156.999 196.5s-50 152.167 -50 247.5
c0 94 17.333 176.667 52 248c32.667 66.667 85 131 157 193z" />
    <glyph glyph-name="parenright" unicode=")" horiz-adv-x="333" 
d="M268 311c0 -94 -16.8311 -175.5 -50.498 -244.5s-86.5 -134.5 -158.5 -196.5l-26 27c48 54 82.333 120.333 103 199c17.333 65.333 26 141.333 26 228c0 82 -9 154 -27 216c-20.667 71.333 -54.334 134.333 -101.001 189l27 26
c71.333 -61.333 123.666 -126.833 156.999 -196.5s50 -152.167 50 -247.5z" />
    <glyph glyph-name="asterisk" unicode="*" horiz-adv-x="444" 
d="M396 440c-8.66699 -13.333 -15.668 -25 -21.001 -35c-2.66699 -5.33301 -9 -17.333 -19 -36l-110 80l16 -136h-27c-8.66699 0 -17.334 0.333008 -26.001 1c-10.667 0 -19 -0.333008 -25 -1l14 136l-106 -84l-29 50l-15 18l132 60l-132 53c16 20.667 29.333 43.667 40 69
l110 -84l-14 139c8 -1.33301 14.833 -2 20.5 -2h18.5h14h11c6.66699 1.33301 11.334 2 14.001 2l-16 -139l109 86c12.667 -26 26.334 -49 41.001 -69l-128 -55z" />
    <glyph glyph-name="plus" unicode="+" horiz-adv-x="606" 
d="M555 212h-209v-212h-86v212h-209v86h209v207h86v-207h209v-86z" />
    <glyph glyph-name="comma" unicode="," horiz-adv-x="278" 
d="M217 56l-84.001 -123l-87 -122l-24 11l45 185l12 47.5c4 15.667 9.5 31.834 16.5 48.501s15.333 28.667 25 36s22.834 11 39.501 11c18.667 0 34.5 -6.16699 47.5 -18.5s19.5 -26.833 19.5 -43.5c0 -10.667 -3.33301 -21.334 -10 -32.001z" />
    <glyph glyph-name="hyphen" unicode="-" horiz-adv-x="333" 
d="M292 169h-250v107h250v-107z" />
    <glyph glyph-name="period" unicode="." horiz-adv-x="278" 
d="M221 68c0 -22.667 -7.99902 -42 -23.999 -58s-35.667 -24 -59 -24c-22.667 0 -41.834 8.16699 -57.501 24.5s-23.5 35.5 -23.5 57.5c0 21.333 8 40.333 24 57s35 25 57 25s41.333 -8 58 -24s25 -35.333 25 -58z" />
    <glyph glyph-name="slash" unicode="/" horiz-adv-x="389" 
d="M387 755l-301 -884c-14 2 -28 3 -42 3s-28 -1 -42 -3l301 884c14 -2 28 -3 42 -3s28 1 42 3z" />
    <glyph glyph-name="zero" unicode="0" 
d="M516 350c0 -82 -6.33008 -143.667 -18.9971 -185s-31 -76.333 -55 -105c-42.667 -49.333 -97.334 -74 -164.001 -74c-43.333 0 -80 8.33301 -110 25s-55.333 43 -76 79s-34.667 72.833 -42 110.5s-11 80.167 -11 127.5c0 42 3.66699 84 11 126s19.666 77.333 36.999 106
c44 73.333 108.667 110 194 110s147.666 -33.667 186.999 -101c32 -54.667 48 -127.667 48 -219zM368.003 330c0 110 -6.16797 186.666 -18.501 229.999s-35.166 65 -68.499 65c-36.667 0 -61.5 -24.667 -74.5 -74s-19.5 -127.666 -19.5 -234.999
c0 -104.667 4.66699 -175 14 -211c12.667 -49.333 38.667 -74 78 -74c34.667 0 58.667 26 72 78c11.333 44 17 117.667 17 221z" />
    <glyph glyph-name="one" unicode="1" 
d="M359 -5c-11.333 1.33301 -19.6689 1.99805 -25.002 1.99805c-23.333 2 -38 3 -44 3c-14.667 0 -28 -0.666992 -40 -2s-21.667 -2.33301 -29 -3v565c-38 -22 -77 -42 -117 -60c-5.33301 9.33301 -11.166 17.833 -17.499 25.5s-14.166 15.834 -23.499 24.501v8
c45.333 14.667 94 33.334 146 56.001l142 67l8 -5v-681z" />
    <glyph glyph-name="two" unicode="2" 
d="M487 0h-440.004v43c60 56 102.333 97.333 127 124c50 53.333 88.333 103 115 149c33.333 58 50 113.333 50 166c0 38.667 -8.33301 71 -25 97c-20 30.667 -48.667 46 -86 46c-31.333 0 -55.666 -17 -72.999 -51c-14 -28 -21 -59.667 -21 -95l-10 -2
c-24 29.333 -50 51.333 -78 66c16 42.667 42.833 74.5 80.5 95.5s80.834 31.5 129.501 31.5c66 0 119.333 -13.667 160 -41c47.333 -32 71 -79.667 71 -143c0 -46 -12.333 -86.667 -37 -122c-14 -20.667 -31.667 -41.667 -53 -63
c-7.33301 -7.33301 -19.666 -18.333 -36.999 -33l-96 -84c-26.667 -24 -47 -43 -61 -57l1 -5h128c16.667 0 42.334 1.33301 77.001 4s60.667 4 78 4l-3.5 -38c-1 -10.667 -1.5 -19.667 -1.5 -27c0 -14 0.5 -25.667 1.5 -35s2.16699 -19.333 3.5 -30z" />
    <glyph glyph-name="three" unicode="3" 
d="M492 188c0 -60 -25.1689 -108.664 -75.502 -145.997s-110.833 -56 -181.5 -56c-40 0 -75.333 5.33301 -106 16c-37.333 12.667 -66.333 33 -87 61l33 44c12 16 21.667 30 29 42l13 -1c5.33301 -34.667 16 -62 32 -82c18.667 -23.333 44.667 -35 78 -35
c34.667 0 63.334 15.667 86.001 47c20.667 28.667 31 60.667 31 96c0 64.667 -17.333 106.667 -52 126c-20 11.333 -57.667 17 -113 17v50c12 -1.33301 20.667 -2 26 -2c40 0 69.333 13.667 88 41c16 23.333 24 56.666 24 99.999c0 32 -5.33301 58 -16 78
c-14.667 27.333 -36.334 41 -65.001 41c-30.667 0 -54 -12 -70 -36c-12 -18 -21 -45.667 -27 -83l-14 -1l-33 34c-14 14.667 -25.333 25.667 -34 33c22 36.667 49.333 62.167 82 76.5s71.667 21.5 117 21.5c64.667 0 115.667 -13.833 153 -41.5s56 -64.834 56 -111.501
c0 -40.667 -11.333 -73.667 -34 -99c-19.333 -22 -49.666 -40.333 -90.999 -55l-13 -5c-3.33301 -4.66699 -2.66602 -8 2.00098 -10c14.667 -2.66699 23.334 -4.33398 26.001 -5.00098c55.333 -16 90.666 -33.333 105.999 -52c20 -24.667 30 -59 30 -103z" />
    <glyph glyph-name="four" unicode="4" 
d="M516 162h-83.001v-167c-11.333 1.33301 -19.666 2 -24.999 2c-23.333 2 -38 3 -44 3c-14.667 -0 -28 -0.666992 -40 -2s-21.667 -2.33301 -29 -3v167h-261l3.5 28c1 8 1.5 14.667 1.5 20c0 10.667 -0.666992 20 -2 28s-2.33301 14.667 -3 20c17.333 24 43 61.667 77 113
l82 122l60 89c23.333 34.667 42 64 56 88c10 -1.33301 21.167 -2.5 33.5 -3.5s21.833 -1.5 28.5 -1.5c14 0 25.167 0.5 33.5 1.5l28.5 3.5v-401h83l-3.5 -31.5c-1 -9 -1.5 -16.167 -1.5 -21.5c0 -12 0.666992 -22.5 2 -31.5s2.33301 -16.5 3 -22.5zM294.999 269v291
l-190 -285l5 -6h185z" />
    <glyph glyph-name="five" unicode="5" 
d="M478 206c0 -33.333 -7.83496 -64.5 -23.502 -93.5s-37.5 -53.5 -65.5 -73.5c-23.333 -17.333 -51.333 -30.5 -84 -39.5s-65 -13.5 -97 -13.5c-33.333 0 -64.666 4.5 -93.999 13.5s-56.666 23.167 -81.999 42.5c10 14.667 19 30.167 27 46.5s15.667 34.833 23 55.5h14
c8 -31.333 19.667 -56.666 35 -75.999c20 -24.667 44.667 -37 74 -37c43.333 0 76 17.667 98 53c18 29.333 27 66.666 27 111.999c0 39.333 -11.333 73.333 -34 102c-10.667 12.667 -23.334 22.834 -38.001 30.501s-30 11.5 -46 11.5c-16.667 0 -32.334 -3.5 -47.001 -10.5
s-28 -16.833 -40 -29.5l-24 14l16 350h333c-1.33301 -10 -2 -17.333 -2 -22c-2 -20 -3 -32.333 -3 -37c0 -13.333 0.666992 -25 2 -35s2.33301 -18.333 3 -25h-287l-8 -173l6 -3c28.667 15.333 62.334 23 101.001 23c32.667 0 60.834 -3.33301 84.501 -10
s46.5 -19.334 68.5 -38.001c42 -36 63 -82 63 -138z" />
    <glyph glyph-name="six" unicode="6" 
d="M508 207c0 -66 -22.667 -119.33 -68 -159.997s-101.333 -61 -168 -61c-17.333 0 -36.166 2.16699 -56.499 6.5s-37.166 9.83301 -50.499 16.5c-31.333 16 -56.333 37.667 -75 65s-32.167 57 -40.5 89s-12.5 65.667 -12.5 101c0 69.333 10.333 133.666 31 192.999
c24.667 69.333 61 122.666 109 159.999c24.667 18.667 51.667 32.167 81 40.5s60.666 12.5 93.999 12.5c20 0 36.667 -1.66699 50 -5l18 -39l-6 -10c-8.66699 3.33301 -18.167 5.66602 -28.5 6.99902s-20.833 2 -31.5 2c-22.667 0 -43.334 -5.66699 -62.001 -17
s-35.334 -26.333 -50.001 -45s-25 -37 -31 -55l-16 -61c-8 -31.333 -12 -63 -12 -95l7 -4c30.667 34 68.334 51 113.001 51c60 0 109.167 -17 147.5 -51s57.5 -81 57.5 -141zM360 182.003c0 42 -4.99902 75.667 -14.999 101c-15.333 38.667 -40.666 58 -75.999 58
c-30.667 0 -53.334 -17 -68.001 -51c-10.667 -25.333 -16 -56 -16 -92c0 -45.333 4 -80.333 12 -105c13.333 -41.333 37.666 -62 72.999 -62c31.333 0 55 18.333 71 55c12.667 28.667 19 60.667 19 96z" />
    <glyph glyph-name="seven" unicode="7" 
d="M529 645l-120 -210.001c-41.333 -75.333 -79.333 -148.166 -114 -218.499s-68.667 -144.166 -102 -221.499l-38 3.5c-10.667 1 -19.667 1.5 -27 1.5c-14 0 -25.667 -0.5 -35 -1.5s-19.333 -2.16699 -30 -3.5l183 284c62 99.333 113 185 153 257l-333 -9
c1.33301 11.333 2.5 24.166 3.5 38.499s1.5 24.5 1.5 30.5c0 14.667 -0.5 26.667 -1.5 36l-3.5 32h456z" />
    <glyph glyph-name="eight" unicode="8" 
d="M515 195c0 -63.333 -22.333 -113.996 -67 -151.996s-101.334 -57 -170.001 -57c-32 0 -62.167 3.66699 -90.5 11s-53.833 19.166 -76.5 35.499s-40.167 38 -52.5 65s-18.5 55.167 -18.5 84.5c0 42.667 13 81.667 39 117s59.667 56.333 101 63v7
c-32.667 6.66699 -60.167 23 -82.5 49s-33.5 55.667 -33.5 89c0 54.667 22.667 96.667 68 126c38.667 24.667 87 37 145 37c33.333 0 60.833 -2.33301 82.5 -7s43.834 -14.834 66.501 -30.501s39.334 -32.334 50.001 -50.001s16 -39.834 16 -66.501
c0 -36.667 -10.167 -68 -30.5 -94s-48.5 -43.667 -84.5 -53v-7c41.333 -6.66699 74.666 -25.667 99.999 -57s38 -68 38 -110zM355 508.004c0 33.333 -4.66602 59.333 -13.999 78c-12.667 26 -34 39 -64 39c-29.333 0 -50.333 -15 -63 -45
c-8.66699 -20.667 -13 -48.334 -13 -83.001c0 -16 1.16699 -30.5 3.5 -43.5s6.66602 -25 12.999 -36s14.833 -20.167 25.5 -27.5s22 -11 34 -11c28.667 0 49.667 15.333 63 46c10 22.667 15 50.334 15 83.001zM367.001 184.004c0 22 -2 43.834 -6 65.501
s-10.333 39.5 -19 53.5c-16.667 26.667 -38.667 40 -66 40c-10.667 0 -20.667 -2.33301 -30 -7c-21.333 -10 -37 -32 -47 -66c-7.33301 -25.333 -11 -53.333 -11 -84c0 -51.333 9.33301 -91.333 28 -120c15.333 -23.333 36 -35 62 -35c30.667 0 54 18.667 70 56
c12.667 29.333 19 61.666 19 96.999z" />
    <glyph glyph-name="nine" unicode="9" 
d="M512 393c0 -52 -5.99902 -102.333 -17.999 -151s-31 -92.334 -57 -131.001s-60.667 -69.167 -104 -91.5s-88.666 -33.5 -135.999 -33.5c-14 0 -24 0.333008 -30 1s-15 3 -27 7c-2.66699 1.33301 -6.33398 2.5 -11.001 3.5s-8.33398 5.5 -11.001 13.5l-7 21.5
c-2 6.33301 -6.66699 16.5 -14 30.5l7 7c16.667 -12 30.334 -20.667 41.001 -26c17.333 -8.66699 33 -13 47 -13c58 0 103 31.333 135 94c26 50.667 39 107.334 39 170.001v10l-7 3c-30.667 -34 -70.334 -51 -119.001 -51c-56 0 -102.333 16.333 -139 49
c-38.667 34.667 -58 79.667 -58 135c0 38.667 4.5 70.5 13.5 95.5s26.833 50.833 53.5 77.5c20 19.333 43.333 33.5 70 42.5s55 13.5 85 13.5c40.667 0 77.167 -6.33301 109.5 -19s59.5 -33.667 81.5 -63c18.667 -25.333 32.667 -55.333 42 -90s14 -69.667 14 -105z
M364.001 458c0 45.333 -4.00195 80.333 -12.002 105c-13.333 41.333 -37.666 62 -72.999 62c-30.667 0 -54 -18.333 -70 -55c-12 -28 -18 -59.667 -18 -95c0 -38 5 -70.667 15 -98c15.333 -41.333 40 -62 74 -62c30.667 0 53.334 17 68.001 51c10.667 25.333 16 56 16 92z
" />
    <glyph glyph-name="colon" unicode=":" horiz-adv-x="278" 
d="M221 394c0 -22.667 -7.83301 -42.166 -23.5 -58.499s-35.167 -24.5 -58.5 -24.5c-22 0 -41.167 8.16699 -57.5 24.5s-24.5 35.833 -24.5 58.5c0 22 8 41 24 57s35.333 24 58 24c22 0 41.167 -7.83301 57.5 -23.5s24.5 -34.834 24.5 -57.501zM221 68.001
c0 -22.667 -8 -42 -24 -58s-35.333 -24 -58 -24s-42 8 -58 24s-24 35.333 -24 58c0 22 8.16699 41.167 24.5 57.5s35.5 24.5 57.5 24.5s41.167 -8.16699 57.5 -24.5s24.5 -35.5 24.5 -57.5z" />
    <glyph glyph-name="semicolon" unicode=";" horiz-adv-x="278" 
d="M236 394c0 -22.667 -7.83301 -42.166 -23.5 -58.499s-35.167 -24.5 -58.5 -24.5c-22 0 -41.167 8.16699 -57.5 24.5s-24.5 35.833 -24.5 58.5c0 22 8 41 24 57s35.333 24 58 24c22 0 41.167 -7.83301 57.5 -23.5s24.5 -34.834 24.5 -57.501zM217 56.001l-84.001 -123
l-87 -122l-24 11l45 185l12 47.5c4 15.667 9.5 31.834 16.5 48.501s15.333 28.667 25 36s22.834 11 39.501 11c18.667 0 34.5 -6.16699 47.5 -18.5s19.5 -26.833 19.5 -43.5c0 -10.667 -3.33301 -21.334 -10 -32.001z" />
    <glyph glyph-name="less" unicode="&#x3c;" horiz-adv-x="606" 
d="M558 -12l-509 230v74l509 230v-84l-398 -183l398 -183v-84z" />
    <glyph glyph-name="equal" unicode="=" horiz-adv-x="606" 
d="M555 310h-504v86h504v-86zM555 114h-504v86h504v-86z" />
    <glyph glyph-name="greater" unicode="&#x3e;" horiz-adv-x="606" 
d="M557 218l-509 -230v84l398 183l-398 183v84l509 -230v-74z" />
    <glyph glyph-name="question" unicode="?" horiz-adv-x="444" 
d="M374 559c0 -47.333 -26.335 -97.002 -79.002 -149.002s-79 -88.333 -79 -109c0 -13.333 4.83301 -24.166 14.5 -32.499s21.5 -12.5 35.5 -12.5c6 0 13.333 1.5 22 4.5s15.334 6.16699 20.001 9.5l9 -5l-6 -15c-4.66699 -10.667 -8 -19.667 -10 -27
c-20 -2.66699 -40 -5 -60 -7c-18.667 0 -36.834 2.83301 -54.501 8.5s-33 14 -46 25s-23.333 24 -31 39s-11.5 30.5 -11.5 46.5c0 26 5.33301 48.667 16 68c8 14.667 22.667 32.667 44 54l49 54c12.667 14.667 21 25.334 25 32.001c6.66699 11.333 10 24 10 38
c0 20.667 -7 37 -21 49s-32 18 -54 18c-40.667 0 -70 -17.667 -88 -53h-13l-3 67c13.333 10.667 32 19.5 56 26.5s46 10.5 66 10.5c16.667 0 30.334 -0.5 41.001 -1.5s23.834 -3.66699 39.501 -8s29.5 -9.66602 41.5 -15.999s23.333 -15.833 34 -28.5
c22 -26.667 33 -55.334 33 -86.001zM293.998 67.998c0 -22.667 -8 -42 -24 -58s-35.333 -24 -58 -24s-42 8 -58 24s-24 35.333 -24 58c0 22 8.16699 41.167 24.5 57.5s35.5 24.5 57.5 24.5s41.167 -8.16699 57.5 -24.5s24.5 -35.5 24.5 -57.5z" />
    <glyph glyph-name="at" unicode="@" horiz-adv-x="750" 
d="M393 460c-34.667 0 -64.333 -26.667 -89 -80c-20.667 -44 -31 -86.333 -31 -127c0 -18.667 3 -33.167 9 -43.5s17.333 -15.5 34 -15.5c26 0 51.667 18.333 77 55c29.333 42.667 44 93.667 44 153c0 38.667 -14.667 58 -44 58zM476.001 504l95 0.00195312l-65 -245
c-3.33301 -12 -5 -23 -5 -33c0 -10.667 1.5 -18.667 4.5 -24s8.5 -8 16.5 -8c27.333 0 54.333 19 81 57c31.333 44.667 47 97.667 47 159c0 60.667 -21 112.667 -63 156c-46.667 48.667 -109.334 73 -188.001 73c-85.333 0 -154.5 -27.5 -207.5 -82.5
s-79.5 -127.167 -79.5 -216.5c0 -90.667 27.667 -163 83 -217s127.333 -81 216 -81c46 0 89 11.833 129 35.5s73.333 55.5 100 95.5h65c-29.333 -57.333 -71.666 -103.5 -126.999 -138.5s-114.666 -52.5 -177.999 -52.5c-100 0 -185 33 -255 99s-105 150 -105 252
c0 103.333 33.5 190.166 100.5 260.499s151.167 105.5 252.5 105.5c91.333 0 167.666 -29 228.999 -87c58.667 -56 88 -122.667 88 -200c0 -36.667 -5.5 -71.167 -16.5 -103.5s-28 -60.833 -51 -85.5s-46.833 -44.334 -71.5 -59.001
c-31.333 -18.667 -59.666 -28 -84.999 -28c-22.667 0 -40.334 8.33301 -53.001 25s-19 36.667 -19 60c-19.333 -28 -35.666 -47 -48.999 -57c-18.667 -14.667 -41.334 -22 -68.001 -22c-40 0 -71.333 13.333 -94 40s-34 61.667 -34 105c0 56.667 20.833 108.5 62.5 155.5
s90.167 70.5 145.5 70.5c20 0 38.667 -5.33301 56 -16c13.333 -8 24.333 -18.667 33 -32z" />
    <glyph glyph-name="A" unicode="A" horiz-adv-x="667" 
d="M178 204l-46.5 -132.501c-9.66699 -28.333 -17.5 -53.166 -23.5 -74.499l-47 3l-48 -3l286 693l38 -3l38 3l279 -695c-12 0 -28.333 0.833008 -49 2.5s-33 2.5 -37 2.5c-12 0 -28.333 -0.833008 -49 -2.5s-33 -2.5 -37 -2.5l-34 107c-12.667 38.667 -25 72.667 -37 102
h-233zM388 264.999l-89 233l-94 -233h183z" />
    <glyph glyph-name="B" unicode="B" horiz-adv-x="611" 
d="M79 681h258c58 0 103.667 -10.333 137 -31c41.333 -25.333 62 -65.333 62 -120c0 -44.667 -16.667 -81.667 -50 -111c-29.333 -26 -67.333 -42.333 -114 -49v-9c48 -4.66699 87 -17.334 117 -38.001c42 -29.333 63 -71.666 63 -126.999
c0 -64.667 -25.333 -114.667 -76 -150c-44 -30.667 -99.333 -46 -166 -46h-231v681zM229 387l31 0.000976562c18.667 0 34.5 1.66699 47.5 5s25.167 10 36.5 20c14.667 12.667 25.5 28 32.5 46s10.5 37.333 10.5 58c0 35.333 -9.33301 62.666 -28 81.999s-45 29 -79 29
c-16 0 -33 -1.33301 -51 -4v-236zM229 58.001h50c30 0 57.167 11.833 81.5 35.5s36.5 55.5 36.5 95.5c0 52 -14.667 89 -44 111c-26 19.333 -67.333 29 -124 29v-271z" />
    <glyph glyph-name="C" unicode="C" horiz-adv-x="667" 
d="M622 111l-22.001 -86.001c-28.667 -14.667 -60 -25.5 -94 -32.5s-68.667 -10.5 -104 -10.5c-109.333 0 -198.666 30.333 -267.999 91c-72 62.667 -108 144.667 -108 246c0 124.667 39 220.667 117 288c71.333 61.333 165 92 281 92c35.333 0 70.833 -4.16699 106.5 -12.5
s68.167 -20.5 97.5 -36.5c-3.33301 -13.333 -7.16602 -29.5 -11.499 -48.5s-8.16602 -37.167 -11.499 -54.5h-14c-18.667 27.333 -43 49.5 -73 66.5s-61 25.5 -93 25.5c-77.333 0 -137 -32.667 -179 -98c-36 -56 -54 -125.333 -54 -208c0 -88 20.667 -158.5 62 -211.5
s100 -79.5 176 -79.5c31.333 0 63.166 6.83301 95.499 20.5s60.166 31.834 83.499 54.501z" />
    <glyph glyph-name="D" unicode="D" horiz-adv-x="778" 
d="M427 681c100 0 177 -33 231 -99c47.333 -58 71 -132 71 -222c0 -110.667 -35 -199 -105 -265c-66.667 -63.333 -153 -95 -259 -95h-280v681h342zM235 58h85c76 0 133.667 21 173 63c46.667 50 70 130 70 240c0 90.667 -20.667 157.667 -62 201
c-38.667 40.667 -94.667 61 -168 61h-98v-565z" />
    <glyph glyph-name="E" unicode="E" horiz-adv-x="500" 
d="M459 681c-1.33301 -7.33301 -2.49805 -15.0029 -3.49805 -23.0029s-1.5 -14.667 -1.5 -20c0 -4.66699 0.666992 -11.667 2 -21s2.33301 -16.666 3 -21.999c-34 4.66699 -69.167 8.16699 -105.5 10.5s-78.166 3.5 -125.499 3.5v-215h104c26 0 46.167 0.5 60.5 1.5
s35.166 3.5 62.499 7.5c-1.33301 -7.33301 -2.5 -15 -3.5 -23s-1.5 -14.667 -1.5 -20c0 -4.66699 0.666992 -11.667 2 -21s2.33301 -16.666 3 -21.999c-16 2 -35.833 4 -59.5 6s-44.834 3 -63.501 3h-104v-254c47.333 0 89.166 1.16699 125.499 3.5s71.5 5.83301 105.5 10.5
c-1.33301 -7.33301 -2.5 -15 -3.5 -23s-1.5 -14.667 -1.5 -20c0 -4.66699 0.666992 -11.667 2 -21s2.33301 -16.666 3 -21.999h-381v681h381z" />
    <glyph glyph-name="F" unicode="F" horiz-adv-x="500" 
d="M228 -5c-11.333 0 -20.666 0.331055 -27.999 0.998047c-28.667 2.66699 -44.334 4 -47.001 4c-11.333 0 -26 -0.833008 -44 -2.5s-28.333 -2.5 -31 -2.5v686h381c-1.33301 -7.33301 -2.5 -15 -3.5 -23s-1.5 -14.667 -1.5 -20c0 -4.66699 0.666992 -11.667 2 -21
s2.33301 -16.666 3 -21.999c-44.667 5.33301 -81.667 9 -111 11s-69.333 3 -120 3v-215h106c23.333 0 40.833 0.5 52.5 1.5s34.5 3.5 68.5 7.5c-1.33301 -7.33301 -2.5 -15 -3.5 -23s-1.5 -14.667 -1.5 -20c0 -4.66699 0.666992 -11.667 2 -21s2.33301 -16.666 3 -21.999
l-63 6c-21.333 2 -41 3 -59 3h-105v-331z" />
    <glyph glyph-name="G" unicode="G" horiz-adv-x="778" 
d="M708 27c-52.667 -14.667 -100.001 -25.834 -142.001 -33.501s-83.667 -11.5 -125 -11.5c-114 0 -207 27.333 -279 82c-80 60.667 -120 147 -120 259c0 119.333 40 213 120 281c74.667 63.333 172.334 95 293.001 95c44.667 0 86.667 -4.83301 126 -14.5
s77.666 -25.167 114.999 -46.5c-14.667 -33.333 -24 -67 -28 -101h-14c-22.667 32.667 -51.167 57.834 -85.5 75.501s-71.5 26.5 -111.5 26.5c-79.333 0 -141.666 -32 -186.999 -96c-41.333 -58.667 -62 -133 -62 -223c0 -86.667 21 -154.667 63 -204s101 -74 177 -74
c24.667 0 45.167 2.33301 61.5 7s32.5 11.667 48.5 21v234c11.333 0 26 -0.833008 44 -2.5s28.333 -2.5 31 -2.5c11.333 0 20.666 0.333008 27.999 1c28.667 2.66699 44.334 4 47.001 4v-277z" />
    <glyph glyph-name="H" unicode="H" horiz-adv-x="778" 
d="M86 681c11.333 0 26.001 -0.833008 44.001 -2.5s28.333 -2.5 31 -2.5c11.333 0 20.666 0.333008 27.999 1c28.667 2.66699 44.334 4 47.001 4v-271c23.333 0 53.166 -0.833008 89.499 -2.5s57.5 -2.5 63.5 -2.5c23.333 0 42.333 0.333008 57 1
c58.667 2.66699 90.667 4 96 4v271c11.333 0 26 -0.833008 44 -2.5s28.333 -2.5 31 -2.5c11.333 0 20.666 0.333008 27.999 1c28.667 2.66699 44.334 4 47.001 4v-686c-11.333 0 -20.666 0.333008 -27.999 1c-28.667 2.66699 -44.334 4 -47.001 4
c-11.333 0 -26 -0.833008 -44 -2.5s-28.333 -2.5 -31 -2.5v335c-23.333 0 -42.333 0.333008 -57 1c-58 2.66699 -90 4 -96 4c-23.333 0 -53.333 -0.833008 -90 -2.5s-57.667 -2.5 -63 -2.5v-335c-11.333 0 -20.666 0.333008 -27.999 1c-28.667 2.66699 -44.334 4 -47.001 4
c-11.333 0 -26 -0.833008 -44 -2.5s-28.333 -2.5 -31 -2.5v686z" />
    <glyph glyph-name="I" unicode="I" horiz-adv-x="333" 
d="M91 681c11.333 0 26 -0.833008 44 -2.5s28.333 -2.5 31 -2.5c11.333 0 20.666 0.333008 27.999 1c28.667 2.66699 44.334 4 47.001 4v-686c-11.333 0 -20.666 0.333008 -27.999 1c-28.667 2.66699 -44.334 4 -47.001 4c-11.333 0 -26 -0.833008 -44 -2.5
s-28.333 -2.5 -31 -2.5v686z" />
    <glyph glyph-name="J" unicode="J" horiz-adv-x="333" 
d="M251 166l0.000976562 -27.002c0 -43.333 -1.33301 -75.666 -4 -96.999c-4.66699 -36 -13.667 -65 -27 -87c-20.667 -34 -47.667 -60.667 -81 -80c-30.667 -17.333 -67.334 -28.666 -110.001 -33.999l-15 47c37.333 10 62 34 74 72c8.66699 27.333 13 72.333 13 135v53
v533c11.333 0 26 -0.833008 44 -2.5s28.333 -2.5 31 -2.5c11.333 0 20.666 0.333008 27.999 1c28.667 2.66699 44.334 4 47.001 4v-515z" />
    <glyph glyph-name="K" unicode="K" horiz-adv-x="611" 
d="M73 681c11.333 0 26.001 -0.833008 44.001 -2.5s28.333 -2.5 31 -2.5c11.333 0 20.666 0.333008 27.999 1c28.667 2.66699 44.334 4 47.001 4v-313l260 313l31.5 -3.5c9 -1 16.5 -1.5 22.5 -1.5c11.333 0 20.666 0.5 27.999 1.5l25 3.5v-8l-164 -172l-95 -105l269 -387
v-14c-11.333 0 -20.666 0.333008 -27.999 1c-28.667 2.66699 -44.334 4 -47.001 4c-11.333 0 -26 -0.833008 -44 -2.5s-28.333 -2.5 -31 -2.5l-227 318v-318c-11.333 0 -20.666 0.333008 -27.999 1c-28.667 2.66699 -44.334 4 -47.001 4c-11.333 0 -26 -0.833008 -44 -2.5
s-28.333 -2.5 -31 -2.5v686z" />
    <glyph glyph-name="L" unicode="L" horiz-adv-x="500" 
d="M230 72c42.667 0 79.168 0.999023 109.501 2.99902s70.166 5.66699 119.499 11c-1.33301 -7.33301 -2.5 -15 -3.5 -23s-1.5 -14.667 -1.5 -20c0 -4.66699 0.666992 -11.667 2 -21s2.33301 -16.666 3 -21.999h-379v681c11.333 0 26 -0.833008 44 -2.5s28.333 -2.5 31 -2.5
c11.333 0 20.666 0.333008 27.999 1c28.667 2.66699 44.334 4 47.001 4v-609z" />
    <glyph glyph-name="M" unicode="M" horiz-adv-x="889" 
d="M682 681l24.501 -3.49805c7 -1 12.833 -1.5 17.5 -1.5s11.667 0.666992 21 2s16.666 2.33301 21.999 3l29 -253c15.333 -132 24.333 -207.333 27 -226c8.66699 -62 19.334 -131 32.001 -207c-10 0 -25 0.833008 -45 2.5s-32.667 2.5 -38 2.5
c-11.333 0 -26.5 -0.833008 -45.5 -2.5s-30.833 -2.5 -35.5 -2.5c0 63.333 -5 137.5 -15 222.5l-28 243.5l-75.5 -153.5l-74.5 -152.5l-72 -155c-10.667 1.33301 -18.667 2 -24 2c-2.66699 0 -7.33398 -0.666992 -14.001 -2l-68 143l-74 151l-77 156
c-10 -75.333 -17 -130.333 -21 -165c-6.66699 -55.333 -11.834 -107 -15.501 -155s-5.5 -93 -5.5 -135l-27.5 3.5c-7.66699 1 -14.167 1.5 -19.5 1.5c-10 0 -18.333 -0.5 -25 -1.5s-13.667 -2.16699 -21 -3.5c12 65.333 23.667 135.666 35 210.999
c6.66699 42 17.5 117.333 32.5 226l34.5 249l24 -3.5c6.66699 -1 12.334 -1.5 17.001 -1.5c9.33301 0 17.5 0.666992 24.5 2s12.833 2.33301 17.5 3l74 -156l77 -157l79 -157l75 147l79 157c36 73.333 62.333 128.666 79 165.999z" />
    <glyph glyph-name="N" unicode="N" horiz-adv-x="778" 
d="M84 681h99l143 -154l146.5 -157l142.5 -157v468l40 -3l40 3v-686l-85 1l-169 189l-168 182l-109 114v-484l-40 3l-40 -3v684z" />
    <glyph glyph-name="O" unicode="O" horiz-adv-x="833" 
d="M405 -18c-112.667 0 -202.5 31.332 -269.5 93.999s-100.5 150.334 -100.5 263.001c0 103.333 34.333 188.333 103 255c72 70 169 105 291 105c129.333 0 226.666 -40 291.999 -120c52 -64 78 -142.667 78 -236c0 -101.333 -35 -186 -105 -254
c-73.333 -71.333 -169.666 -107 -288.999 -107zM201 309.999c0 -73.333 15.999 -134.333 47.999 -183c37.333 -56.667 91 -85 161 -85c72.667 0 129 32.333 169 97c36 58.667 54 133 54 223c0 74 -16 136.333 -48 187c-38 60 -92 90 -162 90
c-71.333 0 -125.666 -26.667 -162.999 -80c-39.333 -56 -59 -139 -59 -249z" />
    <glyph glyph-name="P" unicode="P" 
d="M222 -5c-11.333 0 -20.667 0.332031 -28 0.999023c-28.667 2.66699 -44.334 4 -47.001 4c-11.333 0 -26 -0.833008 -44 -2.5s-28.333 -2.5 -31 -2.5v686h246c142.667 0 214 -56.333 214 -169c0 -83.333 -29 -141.666 -87 -174.999
c-47.333 -27.333 -121.666 -41 -222.999 -41v-301zM221.999 350.999c14.667 0 26.001 0.333008 34.001 1s18.667 2.66699 32 6c30.667 8.66699 53.667 26 69 52c13.333 22.667 20 50.667 20 84c0 38.667 -8.83301 70.5 -26.5 95.5s-39.834 37.5 -66.501 37.5h-62v-276z" />
    <glyph glyph-name="Q" unicode="Q" horiz-adv-x="833" 
d="M198 310c0 -73.333 16.001 -134.334 48.001 -183.001c37.333 -56.667 91 -85 161 -85c68.667 0 123 29.333 163 88s60 136 60 232c0 74 -16 136.333 -48 187c-38 60 -92 90 -162 90c-78.667 0 -136.334 -31.333 -173.001 -94c-32.667 -55.333 -49 -133.666 -49 -234.999z
M401.001 -18.001c-112 0 -200.998 31 -266.998 93c-68 64 -102 152 -102 264c0 109.333 38.333 197.333 115 264c73.333 64 166.333 96 279 96c110.667 0 200 -32.667 268 -98s102 -151.333 102 -258c0 -81.333 -22.833 -152.5 -68.5 -213.5s-107.5 -104.167 -185.5 -129.5
c77.333 -49.333 163.666 -100 258.999 -152c-48.667 -10 -95.334 -28.333 -140.001 -55l-75 58c-26 20 -51.667 38.667 -77 56z" />
    <glyph glyph-name="R" unicode="R" horiz-adv-x="611" 
d="M75 681h213.004c46 0 79.667 -0.833008 101 -2.5s41.666 -7.5 60.999 -17.5c58 -30.667 87 -78.334 87 -143.001c0 -47.333 -14 -86.666 -42 -117.999s-66 -52 -114 -62c26 -45.333 62.333 -104 109 -176l68 -105l39 -62c-12.667 0 -29.834 0.833008 -51.501 2.5
s-34.834 2.5 -39.501 2.5c-12.667 0 -29.834 -0.833008 -51.501 -2.5s-34.5 -2.5 -38.5 -2.5l-119 210l-65 111h-7v-321c-11.333 0 -20.666 0.333008 -27.999 1c-28.667 2.66699 -44.334 4 -47.001 4c-11.333 0 -26 -0.833008 -44 -2.5s-28.333 -2.5 -31 -2.5v686z
M225.004 359c4.66699 -0.666992 9.00098 -0.999023 13.001 -0.999023h13c87.333 0 131 48 131 144c0 16 -1.66699 32.667 -5 50c-6 31.333 -21.333 52.666 -46 63.999c-16.667 7.33301 -42.334 11 -77.001 11h-29v-268z" />
    <glyph glyph-name="S" unicode="S" horiz-adv-x="500" 
d="M389 552c-10 27.333 -24.666 48.666 -43.999 63.999s-43 23 -71 23c-37.333 0 -65 -8.83301 -83 -26.5s-27 -41.5 -27 -71.5c0 -36 26 -68.333 78 -97c94.667 -52 143.667 -79.333 147 -82c52.667 -41.333 79 -94.666 79 -159.999c0 -64 -24.667 -116.667 -74 -158
s-113 -62 -191 -62c-29.333 0 -57.833 3.5 -85.5 10.5s-52.834 17.833 -75.501 32.5c8 28 14 50.667 18 68s7.66699 37 11 59h19c7.33301 -34.667 23.333 -61.667 48 -81s54.667 -29 90 -29c33.333 0 61.166 9 83.499 27s33.5 43.667 33.5 77c0 42.667 -25.667 78 -77 106
l-143 76c-52 39.333 -78 93 -78 161c0 60.667 19.333 110 58 148c42 41.333 99.667 62 173 62c33.333 0 64.833 -5 94.5 -15s50.834 -21 63.501 -33c-7.33301 -19.333 -13 -35.333 -17 -48l-15 -51h-15z" />
    <glyph glyph-name="T" unicode="T" 
d="M356 -5c-11.333 0 -20.667 0.333008 -28 1c-28.667 2.66699 -44.334 4 -47.001 4c-11.333 0 -26 -0.833008 -44 -2.5s-28.333 -2.5 -31 -2.5v615c-35.333 0 -66.166 -1.16699 -92.499 -3.5s-57.5 -5.83301 -93.5 -10.5l3.5 24.5c1 7 1.5 13.167 1.5 18.5
c0 9.33301 -0.666992 17.5 -2 24.5s-2.33301 12.833 -3 17.5h515l-3.5 -24.5c-1 -7 -1.5 -12.833 -1.5 -17.5c0 -10 0.666992 -18.5 2 -25.5s2.33301 -12.833 3 -17.5c-48.667 6 -78 9.33301 -88 10c-30 2.66699 -60.333 4 -91 4v-615z" />
    <glyph glyph-name="U" unicode="U" horiz-adv-x="778" 
d="M89 681c11.333 0 26.002 -0.832031 44.002 -2.49902s28.333 -2.5 31 -2.5c11.333 0 20.666 0.333008 27.999 1c28.667 2.66699 44.334 4 47.001 4v-284v-45c0 -25.333 0.166992 -50.333 0.5 -75s2.83301 -49.5 7.5 -74.5s10.167 -45.333 16.5 -61
s18.166 -31.834 35.499 -48.501c30.667 -28.667 68.667 -43 114 -43c47.333 0 84.333 9 111 27s49 49.333 67 94c8 19.333 13 46.666 15 81.999s3 77 3 125v303l40 -3l40 3v-356c0 -73.333 -4.66699 -127 -14 -161c-14.667 -54 -45.334 -97 -92.001 -129
c-25.333 -18.667 -54.333 -32.167 -87 -40.5s-66.667 -12.5 -102 -12.5c-69.333 0 -128 11.667 -176 35c-58 28.667 -95.667 73 -113 133c-5.33301 18 -9.33301 37.833 -12 59.5s-4 42.834 -4 63.501v408z" />
    <glyph glyph-name="V" unicode="V" horiz-adv-x="667" 
d="M329 0c-10 0 -18.501 -0.667969 -25.501 -2.00098s-12.833 -2.33301 -17.5 -3l-86 231.5l-89 227.5l-93 227c12.667 0 29.5 -0.833008 50.5 -2.5s33.5 -2.5 37.5 -2.5c12.667 0 29.5 0.833008 50.5 2.5s33.5 2.5 37.5 2.5c20.667 -69.333 48.667 -151.666 84 -246.999
l93 -248l67 164c22 54.667 43 109.667 63 165l57 166l46 -3l46 3l-98 -228.5l-93 -225.5c-31.333 -78.667 -60.666 -156 -87.999 -232l-24.5 3.5c-7 1 -12.833 1.5 -17.5 1.5z" />
    <glyph glyph-name="W" unicode="W" horiz-adv-x="1000" 
d="M15 681c10 0 24.998 -0.832031 44.998 -2.49902s32.667 -2.5 38 -2.5c12 0 27.667 0.833008 47 2.5s31 2.5 35 2.5c21.333 -90 42.833 -175.167 64.5 -255.5l67.5 -244.5l59.5 170.5l58.5 161.5c22.667 64.667 41 120.667 55 168l50 -3l50 3
c13.333 -50 29.666 -104.167 48.999 -162.5l57 -170.5c22 -65.333 39.667 -121 53 -167l52 165c25.333 80.667 42.333 136 51 166c14 48.667 29 105 45 169l47 -3l46 3l-123 -346.5c-38.667 -113 -75.334 -226.167 -110.001 -339.5l-29.5 3.5
c-8.33301 1 -15.166 1.5 -20.499 1.5c-10.667 0 -20.5 -0.666992 -29.5 -2s-16.167 -2.33301 -21.5 -3c-16 58.667 -31.667 112.667 -47 162s-33.666 104.333 -54.999 165c-5.33301 16 -24.666 69.667 -57.999 161l-56.5 -160l-57.5 -160l-59 -168l-29.5 3.5
c-8.33301 1 -15.166 1.5 -20.499 1.5c-10.667 0 -20.5 -0.666992 -29.5 -2s-16.167 -2.33301 -21.5 -3c-16 61.333 -36.333 134.666 -61 219.999l-64.5 216.5l-67.5 220.5z" />
    <glyph glyph-name="X" unicode="X" horiz-adv-x="611" 
d="M490 545l-115.998 -165.002l13 -23l99 -177c36 -65.333 68.333 -127 97 -185c-12.667 0 -23.334 0.333008 -32.001 1c-33.333 2.66699 -51.666 4 -54.999 4c-11.333 0 -27.333 -0.833008 -48 -2.5s-33.334 -2.5 -38.001 -2.5l-65 128l-67 127l-92 -144
c-6 -9.33301 -17.333 -28.666 -34 -57.999c-12 -20.667 -21.333 -37.667 -28 -51l-50 3l-50 -3l111 159l105 157l-205 368c12 0 28.667 -0.833008 50 -2.5s34.333 -2.5 39 -2.5c12.667 0 29.5 0.833008 50.5 2.5s33.833 2.5 38.5 2.5
c17.333 -37.333 42.666 -87.666 75.999 -150.999l48 -91l151 242l49 -3l50 3z" />
    <glyph glyph-name="Y" unicode="Y" horiz-adv-x="611" 
d="M233 284c-20.667 35.333 -47.6699 84.332 -81.0029 146.999l-134 250c12.667 0 29.834 -0.833008 51.501 -2.5s34.5 -2.5 38.5 -2.5c12.667 0 29.834 0.833008 51.501 2.5s34.5 2.5 38.5 2.5l85 -178c16.667 -35.333 29 -60.333 37 -75c12.667 -24 21.334 -39 26.001 -45
c17.333 21.333 42.333 66 75 134c15.333 31.333 40.333 86 75 164l49 -3l48 3l-72 -126l-72 -124c-20.667 -37.333 -42.667 -79.666 -66 -126.999v-309c-11.333 0 -20.666 0.333008 -27.999 1c-28.667 2.66699 -44.334 4 -47.001 4c-11.333 0 -26 -0.833008 -44 -2.5
s-28.333 -2.5 -31 -2.5v289z" />
    <glyph glyph-name="Z" unicode="Z" horiz-adv-x="611" 
d="M24 0l-0.000976562 16.999l181 288l173 291v13c-44 0 -88 -1 -132 -3c-117.333 -5.33301 -177.666 -8 -180.999 -8l3.5 24.5c1 7 1.5 12.833 1.5 17.5c0 8.66699 -0.5 15.834 -1.5 21.501l-3.5 19.5h522v-17l-120 -191l-115 -195l-112 -196v-10
c48 0 111.667 1.83301 191 5.5s131 5.5 155 5.5l-3.5 -24.5c-1 -7 -1.5 -12.5 -1.5 -16.5c0 -9.33301 0.666992 -17.5 2 -24.5s2.33301 -12.833 3 -17.5h-562z" />
    <glyph glyph-name="bracketleft" unicode="[" horiz-adv-x="333" 
d="M83 755h210v-55l-110 5v-785l110 5v-55h-210v885z" />
    <glyph glyph-name="backslash" unicode="\" horiz-adv-x="520" 
d="M496 0h-35.501c-11.667 -0 -23.167 0.333008 -34.5 1c-13.333 0 -23.333 -0.333008 -30 -1l-372 755c12 0 23.833 -0.166992 35.5 -0.5s23.167 -0.5 34.5 -0.5h19c4.66699 0.666992 8.33398 1 11.001 1z" />
    <glyph glyph-name="bracketright" unicode="]" horiz-adv-x="333" 
d="M250 -130h-210v55l110 -5v785l-110 -5v55h210v-885z" />
    <glyph glyph-name="asciicircum" unicode="^" horiz-adv-x="606" 
d="M52 278l206 403h90l206 -403h-95l-156 294l-156 -294h-95z" />
    <glyph glyph-name="underscore" unicode="_" horiz-adv-x="500" 
d="M0 -160v38h500v-38h-500z" />
    <glyph glyph-name="grave" unicode="`" horiz-adv-x="333" 
d="M247 545l-56 -0.000976562l-131 81c-20 13.333 -31.333 21 -34 23c-12 10.667 -18 23 -18 37c0 12.667 4.16699 23.167 12.5 31.5s18.833 12.5 31.5 12.5c14.667 0 26.5 -2.66699 35.5 -8s19.167 -14.666 30.5 -27.999z" />
    <glyph glyph-name="a" unicode="a" horiz-adv-x="500" 
d="M295 257c-20 -7.33301 -36 -13.001 -48 -17.001c-22 -8 -39 -16.833 -51 -26.5s-20.333 -21.167 -25 -34.5s-7 -29.333 -7 -48c0 -22.667 4.16699 -41.667 12.5 -57s22.5 -23 42.5 -23c28 0 48.333 11.667 61 35c10 18.667 15 43.334 15 74.001v97zM433 82.999
c0 -18.667 3.50488 -31.167 10.5049 -37.5s20.5 -9.5 40.5 -9.5v-23c-12.667 -6 -27.834 -12 -45.501 -18s-32.5 -9 -44.5 -9c-22.667 0 -42.834 6.5 -60.501 19.5s-30.5 30.833 -38.5 53.5c-13.333 -23.333 -31.333 -41.333 -54 -54s-47.334 -19 -74.001 -19
c-42.667 0 -76.667 11 -102 33c-27.333 24 -41 57 -41 99c0 45.333 14.667 79 44 101c24 18 70.333 35.333 139 52c15.333 4 27.666 7.33301 36.999 10c14.667 4.66699 26.667 10 36 16c5.33301 5.33301 9.16602 11 11.499 17s3.5 13.333 3.5 22
c0 23.333 -9.83301 43.833 -29.5 61.5s-41.5 26.5 -65.5 26.5c-28.667 0 -56.334 -8 -83.001 -24c-22 -13.333 -35 -26 -39 -38h-7l-13 60c22.667 21.333 50.834 37.833 84.501 49.5s67.167 17.5 100.5 17.5c50 0 92 -9.66699 126 -29c42.667 -24 64 -59 64 -105v-272z" />
    <glyph glyph-name="b" unicode="b" 
d="M54 755c11.333 -1.33301 24.166 -2.50098 38.499 -3.50098s24.5 -1.5 30.5 -1.5c14.667 0 28 0.666992 40 2s21.667 2.33301 29 3v-345c13.333 24.667 31.833 44 55.5 58s49.834 21 78.501 21c62 0 111.333 -24.333 148 -73c32.667 -43.333 49 -97.333 49 -162
c0 -36.667 -4 -70 -12 -100c-10 -36.667 -25 -66.667 -45 -90c-44 -52 -100.333 -78 -169 -78c-28 0 -54.167 6 -78.5 18s-43.833 29.333 -58.5 52c-16.667 -9.33301 -31.667 -18.666 -45 -27.999l-41 -28h-20v755zM280 30.999c30.667 0 54.168 18.333 70.501 55
s24.5 87 24.5 151c0 52 -3.66699 90.667 -11 116c-13.333 47.333 -39.333 71 -78 71s-65.334 -23.667 -80.001 -71c-9.33301 -29.333 -14 -69 -14 -119c0 -56 3.33301 -97.333 10 -124c13.333 -52.667 39.333 -79 78 -79z" />
    <glyph glyph-name="c" unicode="c" horiz-adv-x="500" 
d="M442 340h-23.998c-4 30 -14.333 54.333 -31 73c-18.667 20.667 -42.334 31 -71.001 31c-42 0 -74.333 -23.333 -97 -70c-17.333 -36 -26 -78 -26 -126c0 -62.667 12.167 -111.167 36.5 -145.5s62.833 -51.5 115.5 -51.5c20 0 39.167 4.16699 57.5 12.5
s33.833 19.833 46.5 34.5l17 -14l-24 -60c-12 -10.667 -32.333 -19.667 -61 -27s-53.334 -11 -74.001 -11c-79.333 0 -142.333 20.667 -189 62c-48.667 43.333 -73 103.666 -73 180.999c0 80 24 143.333 72 190s111.667 70 191 70c32 0 62.833 -3.66699 92.5 -11
s56.167 -18.666 79.5 -33.999z" />
    <glyph glyph-name="d" unicode="d" 
d="M498 -5l-38.5 3.49902c-11 1 -20.167 1.5 -27.5 1.5c-15.333 0 -28.5 -0.666992 -39.5 -2s-20.167 -2.33301 -27.5 -3v88c-23.333 -64.667 -69 -97 -137 -97c-68.667 0 -120 25.667 -154 77c-28.667 43.333 -43 101.333 -43 174c0 69.333 15.667 127.333 47 174
c34.667 52 83.334 78 146.001 78c31.333 0 58.333 -5.66699 81 -17s41 -29.666 55 -54.999v338c11.333 -1.33301 24.166 -2.5 38.499 -3.5s24.5 -1.5 30.5 -1.5c14.667 0 28 0.666992 40 2s21.667 2.33301 29 3v-760zM179 233.999c0 -47.333 4.33301 -85 13 -113
c14.667 -46.667 39.667 -70 75 -70c38 0 65 24.333 81 73c10.667 32 16 72.333 16 121c0 45.333 -4.66699 82.333 -14 111c-14.667 45.333 -39.667 68 -75 68c-37.333 0 -64 -23.667 -80 -71c-10.667 -32 -16 -71.667 -16 -119z" />
    <glyph glyph-name="e" unicode="e" horiz-adv-x="500" 
d="M331 285c0 41.333 -3.33203 74.332 -9.99902 98.999c-10.667 40 -29.334 60 -56.001 60c-32 0 -54.667 -19.667 -68 -59c-9.33301 -27.333 -14 -60.666 -14 -99.999h148zM183.001 236.999c0 -58 9.66699 -101.999 29 -131.999c22.667 -36 59.334 -54 110.001 -54
c20.667 0 41 4 61 12s38.667 19 56 33l12 -9l-22 -56c-42.667 -30 -90.334 -45 -143.001 -45c-82 0 -144.333 23 -187 69s-64 110.667 -64 194c0 71.333 20.5 129.166 61.5 173.499s96.833 66.5 167.5 66.5c74 0 127.667 -24 161 -72c29.333 -42 44 -102 44 -180h-286z" />
    <glyph glyph-name="f" unicode="f" horiz-adv-x="315" 
d="M9 416c1.33301 6.66699 1.99902 17.002 1.99902 31.002v12c0 3.33301 -0.666992 10.333 -2 21h74c4.66699 32 10.834 61.333 18.501 88s18.834 52.667 33.501 78c21.333 37.333 44.333 64.666 69 81.999s54.667 26 90 26h19c5.33301 0 15 -1.33301 29 -4
c-2 -11.333 -3.33301 -25.833 -4 -43.5s-1 -27.834 -1 -30.501v-27.5c0 -9 0.333008 -17.5 1 -25.5l-13 -5c-16 8 -31.167 14.667 -45.5 20s-28.5 8 -42.5 8c-14.667 0 -25.834 -0.5 -33.501 -1.5s-14.834 -4.83301 -21.501 -11.5l-6 -6c-4 -4.66699 -6 -9.66699 -6 -15
c0 -12 5.66699 -33.667 17 -65c8 -22.667 17 -45 27 -67h101c-0.666992 -6 -1.16699 -12.167 -1.5 -18.5s-0.5 -10.833 -0.5 -13.5c0 -5.33301 0.666992 -16 2 -32h-94v-421c-11.333 1.33301 -19.666 2 -24.999 2c-23.333 2 -38 3 -44 3c-14.667 -0 -28 -0.666992 -40 -2
s-21.667 -2.33301 -29 -3v421h-74z" />
    <glyph glyph-name="g" unicode="g" horiz-adv-x="500" 
d="M118 -111c0 -36.667 13.667 -64.9961 41 -84.9961c24.667 -18 55.667 -27 93 -27c36 0 65.5 11.167 88.5 33.5s34.5 48.166 34.5 77.499c0 42 -15.333 70 -46 84c-19.333 8.66699 -53.333 13 -102 13c-29.333 0 -51 -3 -65 -9c-20 -8.66699 -33 -25.334 -39 -50.001
c-2 -4.66699 -3.33301 -10.334 -4 -17.001s-1 -13.334 -1 -20.001zM480 440.004l-90.002 3.00488c35.333 -30 53 -67.333 53 -112c0 -54 -20 -95.333 -60 -124c-37.333 -26.667 -87.666 -40 -150.999 -40h-17c-13.333 0 -22.333 -2.5 -27 -7.5s-7.83398 -9.5 -9.50098 -13.5
s-2.5 -8 -2.5 -12c0 -18.667 7.33301 -32.167 22 -40.5s34.334 -12.5 59.001 -12.5l86 -3c52 0 90 -12 114 -36c21.333 -21.333 32 -52.333 32 -93c0 -68.667 -27.333 -122.334 -82 -161.001c-48.667 -34.667 -109 -52 -181 -52c-51.333 0 -94.666 9 -129.999 27
c-46 23.333 -69 58.666 -69 105.999c0 26.667 7.33301 49.667 22 69s34.667 33.666 60 42.999l15 9l-7 8c-32.667 11.333 -49 36 -49 74c0 21.333 8.5 42.166 25.5 62.499s34.5 32.833 52.5 37.5l15 4c-84.667 20 -127 73.333 -127 160c0 53.333 19.833 92.166 59.5 116.499
s94.5 36.5 164.5 36.5l102 -3h121zM237.998 205.009c27.333 0 46 16.333 56 49c6 19.333 9 47.333 9 84c0 29.333 -3.33301 53.333 -10 72c-10 28 -27 42 -51 42c-28 0 -47.333 -16.333 -58 -49c-6.66699 -20 -10 -48 -10 -84c0 -38.667 6.33301 -68 19 -88
c10.667 -17.333 25.667 -26 45 -26z" />
    <glyph glyph-name="h" unicode="h" 
d="M193 411c19.333 22 41.668 39.999 67.001 53.999c28 16 55 24 81 24c46.667 0 85.667 -15.333 117 -46c17.333 -16.667 28.666 -34.667 33.999 -54s8 -43.666 8 -72.999v-321c-11.333 1.33301 -19.666 2 -24.999 2c-23.333 2 -38 3 -44 3
c-14.667 -0 -28 -0.666992 -40 -2s-21.667 -2.33301 -29 -3v249c0 54 -4.66699 92.333 -14 115c-12.667 30.667 -35.334 46 -68.001 46c-40 0 -66 -22 -78 -66c-6 -21.333 -9 -59.333 -9 -114v-230c-11.333 1.33301 -19.666 2 -24.999 2c-23.333 2 -38 3 -44 3
c-14.667 -0 -28 -0.666992 -40 -2s-21.667 -2.33301 -29 -3v760c11.333 -1.33301 24.166 -2.5 38.499 -3.5s24.5 -1.5 30.5 -1.5c14.667 0 28 0.666992 40 2s21.667 2.33301 29 3v-344z" />
    <glyph glyph-name="i" unicode="i" horiz-adv-x="278" 
d="M70 480c11.333 -1.33301 24.166 -2.5 38.499 -3.5s24.5 -1.5 30.5 -1.5c14.667 0 28 0.666992 40 2s21.667 2.33301 29 3v-485c-11.333 1.33301 -19.666 2 -24.999 2c-23.333 2 -38 3 -44 3c-14.667 -0 -28 -0.666992 -40 -2s-21.667 -2.33301 -29 -3v485zM138 742
c21.333 0 40.001 -7.66699 56.001 -23s24 -34 24 -56c0 -21.333 -7.83301 -39.833 -23.5 -55.5s-34.5 -23.5 -56.5 -23.5s-40.5 7.83301 -55.5 23.5s-22.5 34.167 -22.5 55.5c0 20.667 7.66699 39 23 55s33.666 24 54.999 24z" />
    <glyph glyph-name="j" unicode="j" horiz-adv-x="278" 
d="M209 -8c0 -34 -5.33105 -61.834 -15.998 -83.501s-30.334 -43.5 -59.001 -65.5c-19.333 -15.333 -40 -27.166 -62 -35.499s-45 -12.5 -69 -12.5l-11 34c32.667 10 54.667 27.667 66 53c8.66699 20 13 52 13 96v502c11.333 -1.33301 24.166 -2.5 38.499 -3.5
s24.5 -1.5 30.5 -1.5c14.667 0 28 0.666992 40 2s21.667 2.33301 29 3v-488zM61.002 660.999c0 22.667 7.16699 41.834 21.5 57.501s32.5 23.5 54.5 23.5c24 0 43.667 -7.33301 59 -22s23 -34.334 23 -59.001c0 -22 -8 -40.333 -24 -55s-35.333 -22 -58 -22
c-21.333 0 -39.333 7.66699 -54 23s-22 33.333 -22 54z" />
    <glyph glyph-name="k" unicode="k" horiz-adv-x="500" 
d="M59 755c11.333 -1.33301 24.1631 -2.49902 38.4961 -3.49902s24.5 -1.5 30.5 -1.5c14.667 0 28 0.666992 40 2s21.667 2.33301 29 3v-489c2 -2 5 -2.33301 9 -1c28.667 28.667 60.667 63.334 96 104.001l96 111l24.5 -3.5c7 -1 13.167 -1.5 18.5 -1.5
c9.33301 0 17.5 0.666992 24.5 2s12.833 2.33301 17.5 3v-7c-16 -20 -36.333 -42.667 -61 -68c-67.333 -68 -102.666 -104 -105.999 -108l80 -128l49 -80c16.667 -27.333 33 -56 49 -86v-8c-10.667 0 -25.167 0.833008 -43.5 2.5s-29.166 2.5 -32.499 2.5
c-10.667 0 -25.167 -0.833008 -43.5 -2.5s-29.166 -2.5 -32.499 -2.5c-19.333 37.333 -37.666 70.666 -54.999 99.999c-22.667 38.667 -43.334 72 -62.001 100l-12 18.5c-4 6.33301 -9.33301 11.166 -16 14.499v-233c-11.333 1.33301 -19.666 2 -24.999 2
c-23.333 2 -38 3 -44 3c-14.667 -0 -28 -0.666992 -40 -2s-21.667 -2.33301 -29 -3v760z" />
    <glyph glyph-name="l" unicode="l" horiz-adv-x="278" 
d="M208 -5c-11.333 1.33301 -19.666 2 -24.999 2c-23.333 2 -38 3 -44 3c-14.667 -0 -28 -0.666992 -40 -2s-21.667 -2.33301 -29 -3v760c11.333 -1.33301 24.166 -2.5 38.499 -3.5s24.5 -1.5 30.5 -1.5c14.667 0 28 0.666992 40 2s21.667 2.33301 29 3v-760z" />
    <glyph glyph-name="m" unicode="m" horiz-adv-x="833" 
d="M53 480c11.333 -1.33301 24.167 -2.5 38.5 -3.5s24.5 -1.5 30.5 -1.5c14.667 0 28 0.666992 40 2s21.667 2.33301 29 3v-75c14.667 24.667 35.5 44.834 62.5 60.501s55.167 23.5 84.5 23.5c31.333 0 58.666 -7.83301 81.999 -23.5s40.333 -38.167 51 -67.5
c18.667 28 40 49.667 64 65c27.333 17.333 56.666 26 87.999 26c55.333 0 95.666 -15.667 120.999 -47c23.333 -28.667 35 -71.334 35 -128.001v-319c-11.333 1.33301 -19.666 2 -24.999 2c-23.333 2 -38 3 -44 3c-14.667 -0 -28 -0.666992 -40 -2s-21.667 -2.33301 -29 -3
v271c0 55.333 -6.16699 92.333 -18.5 111s-30.5 28 -54.5 28c-32.667 0 -55.334 -10 -68.001 -30c-10 -16 -15 -41.667 -15 -77v-303c-11.333 1.33301 -19.666 2 -24.999 2c-23.333 2 -38 3 -44 3c-14.667 -0 -28 -0.666992 -40 -2s-21.667 -2.33301 -29 -3v271
c0 55.333 -6.16699 92.333 -18.5 111s-30.5 28 -54.5 28c-31.333 0 -53.666 -12.667 -66.999 -38c-10.667 -20 -16 -46.667 -16 -80v-292c-11.333 1.33301 -19.666 2 -24.999 2c-23.333 2 -38 3 -44 3c-14.667 -0 -28 -0.666992 -40 -2s-21.667 -2.33301 -29 -3v485z" />
    <glyph glyph-name="n" unicode="n" 
d="M55 480c10.667 -1.33301 22.8311 -2.5 36.498 -3.5s23.834 -1.5 30.501 -1.5c14.667 0 27.5 0.666992 38.5 2s20.167 2.33301 27.5 3v-74c22 25.333 44.667 45 68 59c27.333 16 56 24 86 24c59.333 0 101.333 -18.333 126 -55c21.333 -31.333 32 -80 32 -146v-293
c-11.333 1.33301 -19.666 2 -24.999 2c-23.333 2 -38 3 -44 3c-14.667 -0 -28 -0.666992 -40 -2s-21.667 -2.33301 -29 -3v249c0 54 -4.66699 92.333 -14 115c-12.667 30.667 -35.334 46 -68.001 46c-38 0 -63.333 -22 -76 -66c-7.33301 -25.333 -11 -63.333 -11 -114v-230
c-11.333 1.33301 -19.666 2 -24.999 2c-23.333 2 -38 3 -44 3c-14.667 -0 -28 -0.666992 -40 -2s-21.667 -2.33301 -29 -3v485z" />
    <glyph glyph-name="o" unicode="o" 
d="M33 227c0 80 21.5 143.668 64.5 191.001s102.833 71 179.5 71c76 0 136 -21.333 180 -64s66 -101.334 66 -176.001c0 -78 -21.333 -140.667 -64 -188c-45.333 -50 -106.333 -75 -183 -75c-74 0 -133 21.667 -177 65s-66 102 -66 176zM181 230.001
c0 -52 4.66699 -93 14 -123c15.333 -50.667 42.333 -76 81 -76c35.333 0 61.333 25 78 75c14 41.333 21 94.333 21 159c0 54 -6.66699 96 -20 126c-16 35.333 -40 53 -72 53c-37.333 0 -64.333 -20.667 -81 -62c-14 -35.333 -21 -86 -21 -152z" />
    <glyph glyph-name="p" unicode="p" 
d="M375 235c0 62 -6.00195 107.667 -18.002 137c-14 34.667 -37 52 -69 52c-38 0 -65 -24.333 -81 -73c-10.667 -32.667 -16 -73 -16 -121c0 -46 4.66699 -83.333 14 -112c14.667 -44.667 40.334 -67 77.001 -67c30.667 3.33301 53.834 21.333 69.501 54s23.5 76 23.5 130z
M55.998 480c10.667 -1.33301 22.8291 -2.49902 36.4961 -3.49902s23.834 -1.5 30.501 -1.5c14.667 0 27.5 0.666992 38.5 2s20.167 2.33301 27.5 3v-88c12 30.667 29.5 54.5 52.5 71.5s51.167 25.5 84.5 25.5c66.667 0 117.334 -24.667 152.001 -74
c30 -42.667 45 -99 45 -169c0 -84.667 -20.333 -150.334 -61 -197.001c-36.667 -42 -83 -63 -139 -63c-31.333 0 -57.166 6.5 -77.499 19.5s-37.5 30.5 -51.5 52.5v-317c-11.333 1.33301 -19.666 2 -24.999 2c-23.333 2 -38 3 -44 3c-14.667 0 -28 -0.666992 -40 -2
s-21.667 -2.33301 -29 -3v739z" />
    <glyph glyph-name="q" unicode="q" 
d="M370 480c10.667 -1.33301 22.8311 -2.50098 36.498 -3.50098s23.834 -1.5 30.501 -1.5c14.667 0 27.5 0.666992 38.5 2s20.167 2.33301 27.5 3v-739c-11.333 1.33301 -19.666 2 -24.999 2c-23.333 2 -38 3 -44 3c-14.667 0 -28 -0.666992 -40 -2s-21.667 -2.33301 -29 -3
v317c-12.667 -20 -28.667 -36.333 -48 -49c-24 -15.333 -51 -23 -81 -23c-61.333 0 -110 22.333 -146 67s-54 104.334 -54 179.001c0 79.333 15 141 45 185c32.667 48 81 72 145 72c69.333 0 117.333 -32.333 144 -97v88zM187.997 172.999
c0 -28.667 7.33398 -55.001 22.001 -79.001c17.333 -28.667 39.666 -43 66.999 -43c36 0 61.333 21.667 76 65c10 30 15 67.333 15 112c0 48.667 -5 89 -15 121c-16 50 -43.333 75 -82 75c-35.333 0 -60 -22.667 -74 -68c-8.66699 -28 -13 -65.667 -13 -113
c0 -11.333 0.166992 -20.166 0.5 -26.499s1.5 -20.833 3.5 -43.5z" />
    <glyph glyph-name="r" unicode="r" horiz-adv-x="389" 
d="M67 480c11.333 -1.33301 24.166 -2.49902 38.499 -3.49902s24.5 -1.5 30.5 -1.5c14.667 0 28 0.666992 40 2s21.667 2.33301 29 3v-124c12 41.333 29.333 72.666 52 93.999c28 26 65 39 111 39c-2 -17.333 -3.33301 -38.833 -4 -64.5s-1 -49.5 -1 -71.5l-9 -8
c-6 4.66699 -13.667 8 -23 10s-18.666 3 -27.999 3c-22.667 0 -42.167 -5.83301 -58.5 -17.5s-27.5 -27.834 -33.5 -48.501c-2.66699 -7.33301 -4.33398 -17.166 -5.00098 -29.499s-1 -26.833 -1 -43.5v-43v-181c-11.333 1.33301 -19.666 2 -24.999 2c-23.333 2 -38 3 -44 3
c-14.667 -0 -28 -0.666992 -40 -2s-21.667 -2.33301 -29 -3v485z" />
    <glyph glyph-name="s" unicode="s" horiz-adv-x="389" 
d="M71 122c9.33301 -26 23.999 -46.665 43.999 -61.998s43.333 -23 70 -23c18.667 0 36.167 5.83301 52.5 17.5s24.5 26.167 24.5 43.5c0 24.667 -19.667 45.667 -59 63c-66 29.333 -103 46.666 -111 51.999c-40.667 28.667 -61 67.667 -61 117s16.667 88.166 50 116.499
s74 42.5 122 42.5c25.333 0 51 -4.16699 77 -12.5s48.667 -19.833 68 -34.5l-24 -88h-28c-4 22.667 -15.167 42.334 -33.5 59.001s-38.833 25 -61.5 25c-20 0 -37.333 -4.83301 -52 -14.5s-22 -24.167 -22 -43.5c0 -24.667 20.333 -45.334 61 -62.001
c64.667 -26 102.334 -42.667 113.001 -50c40.667 -28 61 -68.667 61 -122c0 -47.333 -17.167 -85.833 -51.5 -115.5s-81.5 -44.5 -141.5 -44.5c-52 0 -98 13.667 -138 41l15 95h25z" />
    <glyph glyph-name="t" unicode="t" horiz-adv-x="333" 
d="M222 131c0 -32.667 2.83203 -55.834 8.49902 -69.501s19.167 -20.5 40.5 -20.5c12.667 0 27.334 2.33301 44.001 7v-39c-40.667 -15.333 -75.334 -23 -104.001 -23c-48 0 -82 15.333 -102 46c-16.667 25.333 -25 64 -25 116v268h-68c1.33301 6 2 12 2 18v14v11v10
c-1.33301 4.66699 -2 8.33398 -2 11.001h68v113c16.667 6.66699 38.334 16 65.001 28l73 34v-175h85c-0.666992 -6 -1.16699 -12.167 -1.5 -18.5s-0.5 -10.833 -0.5 -13.5v-15c1.33301 -8 2 -13.667 2 -17h-85v-285z" />
    <glyph glyph-name="u" unicode="u" 
d="M496 -5l-38.499 3.50098c-11 1 -20.167 1.5 -27.5 1.5c-15.333 0 -28.5 -0.666992 -39.5 -2s-20.167 -2.33301 -27.5 -3v73c-28 -30 -50.333 -50 -67 -60c-24 -14.667 -52.333 -22 -85 -22c-28 0 -53.5 4.83301 -76.5 14.5s-42.167 25.5 -57.5 47.5
c-10 14 -16.833 31 -20.5 51s-5.5 41.667 -5.5 65v39v277c11.333 -1.33301 24.166 -2.5 38.499 -3.5s24.5 -1.5 30.5 -1.5c14.667 0 28 0.666992 40 2s21.667 2.33301 29 3v-276c0 -21.333 0.5 -37.833 1.5 -49.5s4.16699 -22.834 9.5 -33.501
c6.66699 -16.667 15.834 -29.5 27.501 -38.5s26.167 -13.5 43.5 -13.5c38 0 63.333 17 76 51c7.33301 20 11 53 11 99v261c11.333 -1.33301 24.166 -2.5 38.499 -3.5s24.5 -1.5 30.5 -1.5c14.667 0 28 0.666992 40 2s21.667 2.33301 29 3v-485z" />
    <glyph glyph-name="v" unicode="v" horiz-adv-x="500" 
d="M282 133l63.0039 172.001c23.333 65.333 43 123.666 59 174.999l40 -3l39 3c0.666992 -4 -0.166016 -8.5 -2.49902 -13.5s-3.83301 -8.5 -4.5 -10.5c-8.66699 -18 -19.334 -42 -32.001 -72l-19 -45l-68 -168c-24.667 -62.667 -45.667 -121.334 -63 -176.001l-29.5 3.5
c-8.33301 1 -15.5 1.5 -21.5 1.5c-10.667 0 -20.5 -0.666992 -29.5 -2s-16.167 -2.33301 -21.5 -3l-56 161c-28.667 82.667 -47.667 136.334 -57 161.001l-63 163c11.333 0 26.166 -0.833008 44.499 -2.5s29.166 -2.5 32.499 -2.5c11.333 0 20.666 0.333008 27.999 1
c29.333 2.66699 45.666 4 48.999 4z" />
    <glyph glyph-name="w" unicode="w" horiz-adv-x="778" 
d="M264 137c23.333 71.333 41.332 128.001 53.999 170.001c15.333 51.333 31.333 109 48 173l29.5 -3c13 -1.33301 21.833 -2 26.5 -2c12.667 0 22.834 0.5 30.501 1.5l25.5 3.5l102 -343c37.333 110.667 71.333 225 102 343l40 -3l39 3
c-32.667 -83.333 -61.667 -161.333 -87 -234c-32 -90.667 -59 -174.334 -81 -251.001l-31.5 3.5c-9 1 -16.167 1.5 -21.5 1.5c-12 -0 -22.5 -0.666992 -31.5 -2s-16.5 -2.33301 -22.5 -3l-101 331l-64 -200.5c-14.667 -47 -27.667 -90.5 -39 -130.5l-31.5 3.5
c-9 1 -16.5 1.5 -22.5 1.5c-12.667 -0 -23.5 -0.666992 -32.5 -2s-16.5 -2.33301 -22.5 -3l-48 162c-14 46 -31.333 100 -52 162l-56 161c10 0 23.667 -0.833008 41 -2.5s28 -2.5 32 -2.5c9.33301 0 23 0.833008 41 2.5s29 2.5 33 2.5z" />
    <glyph glyph-name="x" unicode="x" horiz-adv-x="500" 
d="M216 169l-55.001 -84.001l-56 -88l-40 3l-40 -3l159 221l-94 161l-61 101c11.333 0 26.666 -0.833008 45.999 -2.5s31 -2.5 35 -2.5c12 0 27.667 0.833008 47 2.5s31 2.5 35 2.5l43.5 -80.5l42.5 -76.5l53 77c15.333 22.667 32.333 49.334 51 80.001l45 -3l45 3l-85 -105
l-78 -101l55 -94l111 -185c-11.333 0 -26.666 0.833008 -45.999 2.5s-31.333 2.5 -36 2.5c-11.333 0 -26.666 -0.833008 -45.999 -2.5s-31 -2.5 -35 -2.5z" />
    <glyph glyph-name="y" unicode="y" horiz-adv-x="500" 
d="M221 -1l-201.997 481c10.667 0 25.167 -0.833008 43.5 -2.5s29.166 -2.5 32.499 -2.5c10.667 0 25.167 0.833008 43.5 2.5s29.166 2.5 32.499 2.5l58 -157l62 -154l38 102l39 103c13.333 34.667 25.666 70 36.999 106l41 -3l41 3l-101 -229l-71 -165.5l-71 -171.5
c-20.667 -51.333 -42.667 -109 -66 -173l-42 3l-42 -3z" />
    <glyph glyph-name="z" unicode="z" horiz-adv-x="500" 
d="M470 441l-88 -124l-90 -128l-87 -131c38 0 76.333 1 115 3c90 4.66699 137.333 7 142 7c-1.33301 -8 -2.5 -14.667 -3.5 -20s-1.5 -10 -1.5 -14c0 -3.33301 0.5 -8 1.5 -14l3.5 -20h-432v41l133 189l129 192c-36.667 0 -80 -1.66699 -130 -5s-83.333 -5 -100 -5
c1.33301 8 2.5 14.667 3.5 20s1.5 10 1.5 14c0 6.66699 -0.666992 13.667 -2 21c-2 6 -3 10.333 -3 13h408v-39z" />
    <glyph glyph-name="braceleft" unicode="{" horiz-adv-x="333" 
d="M116 615c0 27.333 1.99609 47.6602 5.99609 60.9932c6.66699 22 19 38.833 37 50.5s37.5 19.334 58.5 23.001s44.5 5.5 70.5 5.5h20c-36 -9.33301 -60.333 -23.166 -73 -41.499s-19 -46.5 -19 -84.5v-185c0 -39.333 -6.33301 -68.333 -19 -87
c-15.333 -22 -42.666 -37.667 -81.999 -47c40.667 -8.66699 68.334 -25 83.001 -49c12 -19.333 18 -49.666 18 -90.999v-175c0 -36 6.66699 -63.833 20 -83.5s37.333 -33.5 72 -41.5c-73.333 0 -122.666 9 -147.999 27c-29.333 20.667 -44 63.334 -44 128.001v167
c0 36.667 -5.33301 62.667 -16 78c-12.667 18 -37.667 31.333 -75 40c14 3.33301 26.5 7.83301 37.5 13.5s20.833 13.334 29.5 23.001s14.834 19.834 18.501 30.501s5.5 27.334 5.5 50.001v188z" />
    <glyph glyph-name="bar" unicode="|" horiz-adv-x="606" 
d="M260 755h86v-755h-86v755z" />
    <glyph glyph-name="braceright" unicode="}" horiz-adv-x="333" 
d="M217 432c0 -36.667 5.83496 -63.333 17.502 -80s36.167 -29 73.5 -37c-14 -3.33301 -26.5 -7.83301 -37.5 -13.5s-21.5 -14.167 -31.5 -25.5s-16.167 -22.5 -18.5 -33.5s-3.5 -25.833 -3.5 -44.5v-188c0 -27.333 -2 -47.666 -6 -60.999
c-6.66699 -22 -19.667 -39.167 -39 -51.5s-42.333 -20.5 -69 -24.5c-14.667 -2 -40.667 -3 -78 -3c36 8.66699 60.333 22.167 73 40.5s19 46.5 19 84.5v186c0 39.333 6.83301 69.166 20.5 89.499s40.5 35.166 80.5 44.499c-40.667 8.66699 -68.334 24.667 -83.001 48
c-12 19.333 -18 50 -18 92v175c0 35.333 -6.66699 63 -20 83s-37.333 34 -72 42c73.333 0 122.666 -9 147.999 -27c29.333 -21.333 44 -64.666 44 -129.999v-166z" />
    <glyph glyph-name="asciitilde" unicode="~" horiz-adv-x="606" 
d="M555 294c-18.667 -34 -37.667 -59.667 -57 -77c-26 -24 -55 -36 -87 -36c-22 0 -51.333 8 -88 24l-44 19c-14 6 -28.5 11.833 -43.5 17.5s-28.5 8.5 -40.5 8.5c-20.667 0 -40 -10 -58 -30c-9.33301 -10.667 -22 -30 -38 -58l-48 55c25.333 46.667 50.333 79 75 97
c21.333 15.333 44.666 23 69.999 23s64.333 -11.5 117 -34.5s86 -34.5 100 -34.5c19.333 0 38 9 56 27c12.667 12.667 25.334 30.667 38.001 54z" />
    <glyph glyph-name="c128" horiz-adv-x="815" 
d="M762 208l0.00195312 -35c0 -55.333 -1.33301 -95.666 -4 -120.999c-4.66699 -42.667 -13.667 -75 -27 -97c-20.667 -34 -47.667 -60.667 -81 -80c-30.667 -17.333 -67.334 -28.666 -110.001 -33.999l-15 47c37.333 10 62 36 74 78c8.66699 30.667 13 83 13 157v65
c0 89.333 -38 134 -114 134c-41.333 0 -88.666 -14.333 -141.999 -43v-284c-11.333 0 -20.666 0.333008 -27.999 1c-28.667 2.66699 -44.334 4 -47.001 4c-11.333 0 -26 -0.833008 -44 -2.5s-28.333 -2.5 -31 -2.5v615c-35.333 0 -66.166 -1.16699 -92.499 -3.5
s-57.5 -5.83301 -93.5 -10.5l3.5 24.5c1 7 1.5 13.167 1.5 18.5c0 9.33301 -0.666992 17.5 -2 24.5s-2.33301 12.833 -3 17.5h515l-6 -42c0 -6.66699 0.666992 -13.834 2 -21.501s2.66602 -14.834 3.99902 -21.501c-48.667 6 -78 9.33301 -88 10
c-30 2.66699 -60.333 4 -91 4v-251c29.333 16 59.666 28.167 90.999 36.5s61.666 12.5 90.999 12.5c67.333 0 121.5 -17.667 162.5 -53s61.5 -84.333 61.5 -147z" />
    <glyph glyph-name="c129" horiz-adv-x="481" 
d="M409 887c0 -14 -5.66699 -26 -17 -36c-3.33301 -2.66699 -15 -10.667 -35 -24l-131 -81h-56l129 149c10 12 17 19.333 21 22c12 9.33301 27 14 45 14c12.667 0 23.167 -4.16699 31.5 -12.5s12.5 -18.833 12.5 -31.5zM461 595
c-45.333 5.33301 -82.501 8.99902 -111.501 10.999s-69.5 3 -121.5 3v-614c-10 0 -23.833 0.833008 -41.5 2.5s-28.5 2.5 -32.5 2.5c-10.667 0 -25.167 -0.833008 -43.5 -2.5s-29.166 -2.5 -32.499 -2.5v686h383c-1.33301 -7.33301 -2.5 -15 -3.5 -23s-1.5 -14.667 -1.5 -20
c0 -4.66699 0.666992 -11.667 2 -21s2.33301 -16.666 3 -21.999z" />
    <glyph glyph-name="c141" horiz-adv-x="611" 
d="M466 887c0 -14 -5.66699 -26 -17 -36c-3.33301 -2.66699 -15 -10.667 -35 -24l-131 -81h-56l129 149c10 12 17 19.333 21 22c12 9.33301 27 14 45 14c12.667 0 23.167 -4.16699 31.5 -12.5s12.5 -18.833 12.5 -31.5zM603 -5c-11.333 0 -20.665 0.333008 -27.998 1
c-28.667 2.66699 -44.334 4 -47.001 4c-11.333 0 -26 -0.833008 -44 -2.5s-28.333 -2.5 -31 -2.5l-227 318v-318c-11.333 0 -20.666 0.333008 -27.999 1c-28.667 2.66699 -44.334 4 -47.001 4c-11.333 0 -26 -0.833008 -44 -2.5s-28.333 -2.5 -31 -2.5v686
c11.333 0 26 -0.833008 44 -2.5s28.333 -2.5 31 -2.5c11.333 0 20.666 0.333008 27.999 1c28.667 2.66699 44.334 4 47.001 4v-313l260 313l31.5 -3.5c9 -1 16.5 -1.5 22.5 -1.5c11.333 0 20.666 0.5 27.999 1.5l25 3.5v-8l-164 -172l-95 -105l269 -387v-14z" />
    <glyph glyph-name="c142" horiz-adv-x="815" 
d="M761 -5c-11.333 0 -20.667 0.334961 -28 1.00195c-28.667 2.66699 -44.334 4 -47.001 4c-11.333 0 -26 -0.833008 -44 -2.5s-28.333 -2.5 -31 -2.5v230c0 32.667 -9.66699 57 -29 73s-45.666 24 -78.999 24c-22.667 0 -46.334 -3.66699 -71.001 -11s-50 -18 -76 -32v-284
c-11.333 0 -20.666 0.333008 -27.999 1c-28.667 2.66699 -44.334 4 -47.001 4c-11.333 0 -26 -0.833008 -44 -2.5s-28.333 -2.5 -31 -2.5v615c-35.333 0 -66.166 -1.16699 -92.499 -3.5s-57.5 -5.83301 -93.5 -10.5l3.5 24.5c1 7 1.5 13.167 1.5 18.5
c0 9.33301 -0.666992 17.5 -2 24.5s-2.33301 12.833 -3 17.5h515l-6 -42c0 -6.66699 0.666992 -13.834 2 -21.501s2.66602 -14.834 3.99902 -21.501c-48.667 6 -78 9.33301 -88 10c-30 2.66699 -60.333 4 -91 4v-251c28.667 16 59.5 28 92.5 36s66.167 12 99.5 12
c60.667 0 110.334 -13 149.001 -39c42.667 -28.667 64 -69.667 64 -123v-250z" />
    <glyph glyph-name="c143" horiz-adv-x="758" 
d="M682 0h-245.998v-75l-56 3l-56 -3v75h-248v681c26.667 -3.33301 51.667 -5 75 -5c11.333 0 20.666 0.333008 27.999 1c29.333 2.66699 45 4 47 4v-606c24 0 55.167 -0.5 93.5 -1.5s58.5 -1.5 60.5 -1.5c26.667 0 52.5 0.333008 77.5 1l74.5 2v606
c10.667 0 25 -0.833008 43 -2.5s28.333 -2.5 31 -2.5c11.333 0 26.166 0.833008 44.499 2.5s28.833 2.5 31.5 2.5v-681z" />
    <glyph glyph-name="c144" 
d="M500 -8c0 -34 -5.3291 -61.8359 -15.9961 -83.5029s-30.334 -43.5 -59.001 -65.5c-19.333 -15.333 -40 -27.166 -62 -35.499s-45 -12.5 -69 -12.5l-11 34c32.667 10 54.667 27.667 66 53c8.66699 20 13 52 13 96v266c0 54 -4.66699 92.333 -14 115
c-12.667 30.667 -35.334 46 -68.001 46c-40 0 -66 -22 -78 -66c-6 -21.333 -9 -59.333 -9 -114v-230c-11.333 1.33301 -19.666 2 -24.999 2c-23.333 2 -38 3 -44 3c-14.667 0 -28 -0.666992 -40 -2s-21.667 -2.33301 -29 -3v553h-49c1.33301 6 2 12 2 18v14v11v10
c-1.33301 4.66699 -2 8.33398 -2 11.001h49v143c11.333 -1.33301 24.166 -2.5 38.499 -3.5s24.5 -1.5 30.5 -1.5c14.667 0 28 0.666992 40 2s21.667 2.33301 29 3v-143h152c-0.666992 -6 -1.16699 -12.167 -1.5 -18.5s-0.5 -10.833 -0.5 -13.5v-15
c1.33301 -8 2 -13.667 2 -17h-152v-137c19.333 22 41.666 40 66.999 54c28 16 55 24 81 24c46.667 0 85.667 -15.333 117 -46c17.333 -16.667 28.666 -34.667 33.999 -54s8 -43.666 8 -72.999v-324z" />
    <glyph glyph-name="c157" horiz-adv-x="500" 
d="M410 686c0 -14 -5.66699 -26 -17 -36c-3.33301 -2.66699 -15 -10.667 -35 -24l-131 -81h-56l129 149c10 12 17 19.333 21 22c12 9.33301 27 14 45 14c12.667 0 23.167 -4.16699 31.5 -12.5s12.5 -18.833 12.5 -31.5zM491 -5c-10.667 0 -25.167 0.832031 -43.5 2.49902
s-29.166 2.5 -32.499 2.5c-11.333 0 -26.166 -0.833008 -44.499 -2.5s-28.833 -2.5 -31.5 -2.5l-55 99c-24.667 42 -45.334 75.667 -62.001 101c-4.66699 7.33301 -9 13.333 -13 18s-9 9.33398 -15 14.001v-232c-10 0 -18.333 0.333008 -25 1
c-26.667 2.66699 -41.334 4 -44.001 4c-10 0 -23.333 -0.833008 -40 -2.5s-26.334 -2.5 -29.001 -2.5v485c22 -2.66699 36.833 -4.16699 44.5 -4.5s15.834 -0.5 24.501 -0.5c20.667 0 43.667 1.66699 69 5v-214c2 -2 5 -2.33301 9 -1
c28.667 28.667 60.667 63.334 96 104.001l96 111c4.66699 0 11.667 -0.666992 21 -2s16.666 -2 21.999 -2c4.66699 0 11.667 0.666992 21 2s16.333 2 21 2v-6c-17.333 -22 -37.666 -44.667 -60.999 -68c-64 -64.667 -99.667 -101.334 -107 -110.001l81 -127l98 -167v-7z" />
    <glyph glyph-name="c158" 
d="M500 -5c-11.333 1.33301 -19.6641 1.99805 -24.9971 1.99805c-23.333 2 -38 3 -44 3c-14.667 0 -28 -0.666992 -40 -2s-21.667 -2.33301 -29 -3v249c0 54 -4.66699 92.333 -14 115c-12.667 30.667 -35.334 46 -68.001 46c-40 0 -66 -22 -78 -66
c-6 -21.333 -9 -59.333 -9 -114v-230c-11.333 1.33301 -19.666 2 -24.999 2c-23.333 2 -38 3 -44 3c-14.667 0 -28 -0.666992 -40 -2s-21.667 -2.33301 -29 -3v553h-49c1.33301 6 2 12 2 18v14v11v10c-1.33301 4.66699 -2 8.33398 -2 11.001h49v143
c11.333 -1.33301 24.166 -2.5 38.499 -3.5s24.5 -1.5 30.5 -1.5c14.667 0 28 0.666992 40 2s21.667 2.33301 29 3v-143h152c-0.666992 -6 -1.16699 -12.167 -1.5 -18.5s-0.5 -10.833 -0.5 -13.5v-15c1.33301 -8 2 -13.667 2 -17h-152v-137c19.333 22 41.666 40 66.999 54
c28 16 55 24 81 24c46.667 0 85.667 -15.333 117 -46c17.333 -16.667 28.666 -34.667 33.999 -54s8 -43.666 8 -72.999v-321z" />
    <glyph glyph-name="nonbreakingspace" unicode="&#xa0;" horiz-adv-x="250" 
 />
    <glyph glyph-name="exclamdown" unicode="&#xa1;" horiz-adv-x="667" 
d="M531 831c-13.333 -31.333 -33.667 -56.665 -61 -75.998s-60.333 -29 -99 -29c-38 0 -70.667 9.66699 -98 29s-48 44.666 -62 75.999l32 17c28 -42 71 -63 129 -63c28 0 52.833 5.16699 74.5 15.5s39.167 26.166 52.5 47.499zM648.999 681.001
c-19.333 -34.667 -55.002 -102.331 -107.002 -202.998l-135 -270c-50 -103.333 -82.333 -174 -97 -212c-4 0 -10.667 0.666992 -20 2s-16.666 2 -21.999 2l-43 -3c11.333 19.333 30 55.666 56 108.999l35 72c-19.333 41.333 -48.666 94.666 -87.999 159.999l-113 182
c-45.333 72.667 -77.666 126.334 -96.999 161.001c10 0 25 -1 45 -3s35 -3 45 -3s25 1 45 3s35 3 45 3c8.66699 -18 26.667 -50.667 54 -98c5.33301 -8.66699 31.666 -54 78.999 -136c32 -54.667 51.667 -89.334 59 -104.001c16 24.667 43 77.667 81 159l81 179l49 -3z" />
    <glyph glyph-name="cent" unicode="&#xa2;" horiz-adv-x="500" 
d="M438 630c-13.333 -31.333 -33.667 -56.665 -61 -75.998s-60.333 -29 -99 -29c-38 0 -70.667 9.66699 -98 29s-48 44.666 -62 75.999l32 17c28 -42 71 -63 129 -63c28 0 52.833 5.16699 74.5 15.5s39.167 26.166 52.5 47.499zM486.999 479.001l-101.002 -228.001
l-108 -253c-34 -82 -67.333 -167.667 -100 -257c-10 2 -20.333 3 -31 3h-11h-20.5c-6.33301 0 -13.5 -1 -21.5 -3l127 258l-202 480c7.33301 0 19.666 -0.666992 36.999 -2s30.333 -2 39 -2s21.334 0.666992 38.001 2s29.334 2 38.001 2l43 -117
c18.667 -49.333 44.334 -113.666 77.001 -192.999l38 102l76 208l41 -2z" />
    <glyph glyph-name="sterling" unicode="&#xa3;" horiz-adv-x="333" 
d="M251 166l0.000976562 -27.002c0 -43.333 -1.33301 -75.666 -4 -96.999c-4.66699 -36 -13.667 -65 -27 -87c-20.667 -34 -47.667 -60.667 -81 -80c-30.667 -17.333 -67.334 -28.666 -110.001 -33.999l-15 47c37.333 10 62 34 74 72c8.66699 27.333 13 72.333 13 135v53
v533c11.333 0 26 -0.833008 44 -2.5s28.333 -2.5 31 -2.5c11.333 0 20.666 0.333008 27.999 1c28.667 2.66699 44.334 4 47.001 4v-515z" />
    <glyph glyph-name="currency" unicode="&#xa4;" 
d="M556 155l-65.999 -66.999l-48 48c-40.667 -29.333 -86.334 -44 -137.001 -44c-26.667 0 -51.5 3.33301 -74.5 10s-45.167 18 -66.5 34l-48 -48l-66 67l48 48c-14 21.333 -24.5 43.166 -31.5 65.499s-10.5 45.5 -10.5 69.5c0 27.333 3.16699 52 9.5 74
s17.166 43.667 32.499 65l-48 47l66 68l49 -48c20 14 42.333 24.667 67 32s49.667 11 75 11c48.667 0 93.334 -14.333 134.001 -43l48 48l66 -68l-48 -47c29.333 -38 44 -84 44 -138c0 -25.333 -3.5 -49.5 -10.5 -72.5s-17.833 -44.167 -32.5 -63.5zM446.001 340.001
c0 37.333 -13.667 70.333 -41 99s-60 43 -98 43c-40.667 0 -75.167 -13.833 -103.5 -41.5s-42.5 -61.834 -42.5 -102.501c0 -39.333 14.333 -72.666 43 -99.999s62.667 -41 102 -41c38.667 0 71.667 14 99 42s41 61.667 41 101z" />
    <glyph glyph-name="yen" unicode="&#xa5;" horiz-adv-x="481" 
d="M462 609h-234v-614c-10 0 -23.833 0.833008 -41.5 2.5s-28.5 2.5 -32.5 2.5c-10.667 0 -25.167 -0.833008 -43.5 -2.5s-29.166 -2.5 -32.499 -2.5v686h205c41.333 0 71 1.66699 89 5c33.333 6 58.333 19.333 75 40h15c-2.66699 -12 -4.33398 -22.5 -5.00098 -31.5
s-1 -19.5 -1 -31.5c0 -18.667 2 -36.667 6 -54z" />
    <glyph glyph-name="brokenbar" unicode="&#xa6;" horiz-adv-x="606" 
d="M346 472h-86v283h86v-283zM346 0h-86v283h86v-283z" />
    <glyph glyph-name="section" unicode="&#xa7;" 
d="M500 300c0 -26.667 -7.33496 -52.0039 -22.002 -76.0039c-12 -19.333 -29.667 -39.333 -53 -60c38.667 -26.667 58 -62.667 58 -108c0 -35.333 -11 -67.666 -33 -96.999s-50.333 -50.666 -85 -63.999c-11.333 -4 -27.5 -8 -48.5 -12s-37.167 -6 -48.5 -6
c-33.333 0 -65.333 4.16699 -96 12.5s-59 21.166 -85 38.499c9.33301 34.667 15.333 69.667 18 105h18c16.667 -33.333 37 -58.833 61 -76.5s53.333 -26.5 88 -26.5c24.667 0 47.5 7.66699 68.5 23s31.5 35 31.5 59c0 18 -5.33301 33 -16 45
c-7.33301 8.66699 -20.666 18.334 -39.999 29.001c-10 5.33301 -39.333 18.666 -88 39.999c-42 18 -78.333 37 -109 57c-16 10 -28 26.167 -36 48.5s-12 44.5 -12 66.5c0 26.667 8 52.834 24 78.501s36 46.5 60 62.5c-30.667 24.667 -46 56 -46 94
c0 52 17.5 92.667 52.5 122s79.167 44 132.5 44c40 0 71.167 -3.16699 93.5 -9.5s49.5 -20.833 81.5 -43.5c-10.667 -18.667 -18 -32 -22 -40l-21 -43h-13c-3.33301 20 -13.666 37.667 -30.999 53c-23.333 20 -53 30 -89 30c-21.333 0 -39.666 -6.66699 -54.999 -20
s-23 -30.666 -23 -51.999c0 -19.333 9 -36.666 27 -51.999c7.33301 -6.66699 38.666 -23.667 93.999 -51l75 -38c22 -12 38.333 -23.667 49 -35c26.667 -28 40 -60.667 40 -98zM421.998 245.996c0 17.333 -9.33398 34.001 -28.001 50.001c-10 8 -41.333 25.333 -94 52
l-60.5 30.5c-19.667 10.333 -39.167 22.166 -58.5 35.499c-22 -17.333 -33 -39 -33 -65c0 -24.667 18 -47.667 54 -69c13.333 -8 42.333 -21.667 87 -41c14.667 -6.66699 29.334 -13 44.001 -19c21.333 -10 42 -21.333 62 -34c8 8.66699 14.5 18 19.5 28s7.5 20.667 7.5 32z
" />
    <glyph glyph-name="dieresis" unicode="&#xa8;" horiz-adv-x="500" 
d="M428 819c0 -17.333 -6.00098 -32.333 -18.001 -45s-27 -19 -45 -19c-17.333 0 -32.666 6.33301 -45.999 19s-20 27.667 -20 45s6.66699 32.666 20 45.999s28.666 20 45.999 20c16.667 0 31.334 -6.66699 44.001 -20s19 -28.666 19 -45.999zM218.999 819
c0 -17.333 -6.33203 -32.3311 -18.999 -44.998s-28 -19 -46 -19c-16 0 -31 6.66699 -45 20s-21 28 -21 44c0 17.333 6.66699 32.666 20 45.999s28.666 20 45.999 20c18 0 33.333 -6.33301 46 -19s19 -28.334 19 -47.001zM459 0.00195312l-380.998 -0.00292969v681h381
c-1.33301 -7.33301 -2.5 -15 -3.5 -23s-1.5 -14.667 -1.5 -20c0 -4.66699 0.666992 -11.667 2 -21s2.33301 -16.666 3 -21.999c-34 4.66699 -69.167 8.16699 -105.5 10.5s-78.166 3.5 -125.499 3.5v-215h104c26 0 46.167 0.5 60.5 1.5s35.166 3.5 62.499 7.5
c-1.33301 -7.33301 -2.5 -15 -3.5 -23s-1.5 -14.667 -1.5 -20c0 -4.66699 0.666992 -11.667 2 -21s2.33301 -16.666 3 -21.999c-16 2 -35.833 4 -59.5 6s-44.834 3 -63.501 3h-104v-254c47.333 0 89.166 1.16699 125.499 3.5s71.5 5.83301 105.5 10.5
c-1.33301 -7.33301 -2.5 -15 -3.5 -23s-1.5 -14.667 -1.5 -20c0 -4.66699 0.666992 -11.667 2 -21s2.33301 -16.666 3 -21.999z" />
    <glyph glyph-name="copyright" unicode="&#xa9;" horiz-adv-x="750" 
d="M723 339c0 -98.667 -34.167 -182.834 -102.5 -252.501s-150.5 -104.5 -246.5 -104.5s-177.833 34.833 -245.5 104.5s-101.5 153.834 -101.5 252.501c0 100 33.667 185 101 255s149.333 105 246 105s179 -35 247 -105s102 -155 102 -255zM663 339
c0 85.333 -27.833 157.5 -83.5 216.5s-124.167 88.5 -205.5 88.5c-80.667 0 -148.667 -29.667 -204 -89s-83 -131.333 -83 -216c0 -83.333 27.833 -154.5 83.5 -213.5s123.5 -88.5 203.5 -88.5c80.667 0 149 29.333 205 88s84 130 84 214zM513 514l-13.0029 -58h-8
c-23.333 34.667 -54 52 -92 52c-42.667 0 -75.667 -18 -99 -54c-20 -31.333 -30 -70.333 -30 -117c0 -49.333 11.333 -88.833 34 -118.5s55.334 -44.5 98.001 -44.5c16.667 0 34.167 4 52.5 12s33.833 18 46.5 30l7 -3l-12 -48c-15.333 -8.66699 -32.666 -15 -51.999 -19
s-38.666 -6 -57.999 -6c-60.667 0 -110.5 17.167 -149.5 51.5s-58.5 80.166 -58.5 137.499c0 70 21.333 123.667 64 161c38.667 34 90.667 51 156 51c21.333 0 41.333 -2.16699 60 -6.5s36.667 -11.166 54 -20.499z" />
    <glyph glyph-name="ordfeminine" unicode="&#xaa;" horiz-adv-x="667" 
d="M635 650c-2.66699 -11.333 -6.66309 -30.335 -11.9961 -57.002c-0.666992 -4 -3.33398 -16 -8.00098 -36h-14c-18.667 25.333 -43.334 45.333 -74.001 60s-62.334 22 -95.001 22c-67.333 0 -121.333 -25 -162 -75c-36 -44 -58.333 -101 -67 -171h224
c15.333 0 29.333 0.333008 42 1s29.667 2.66699 51 6c-3.33301 -13.333 -5 -26.666 -5 -39.999c0 -12.667 1.66699 -26.667 5 -42c-25.333 4.66699 -56.333 7 -93 7h-228c0 -84.667 21 -153 63 -205s100.333 -78 175 -78c31.333 0 63.166 6.83301 95.499 20.5
s60.166 31.834 83.499 54.501l13 -6l-22 -86c-29.333 -14.667 -60.833 -25.5 -94.5 -32.5s-68.167 -10.5 -103.5 -10.5c-109.333 0 -198.666 30.333 -267.999 91c-72 62.667 -108 144.667 -108 246c0 124.667 39 220.667 117 288c71.333 61.333 165 92 281 92
c34.667 0 70 -4.16699 106 -12.5s68.667 -20.5 98 -36.5z" />
    <glyph glyph-name="guillemotleft" unicode="&#xab;" horiz-adv-x="500" 
d="M425 116c-11.333 -4.66699 -22.167 -10.665 -32.5 -17.998s-21.5 -16.333 -33.5 -27l-78 122l-49 73l80 122l47 75c10 -10 23 -19.667 39 -29l26 -15c-42 -52.667 -79.333 -103.334 -112 -152.001l70 -96.5c4 -5.66699 18.333 -23.834 43 -54.501zM276.999 116.002
c-11.333 -4.66699 -22.167 -10.665 -32.5 -17.998s-21.5 -16.333 -33.5 -27l-78 122l-49 73l80 122l47 75c10 -10 23 -19.667 39 -29l26 -15c-42 -52.667 -79.333 -103.334 -112 -152.001l70 -96.5c4 -5.66699 18.333 -23.834 43 -54.501z" />
    <glyph glyph-name="logicalnot" unicode="&#xac;" horiz-adv-x="606" 
d="M555 114h-86v196h-418v86h504v-282z" />
    <glyph glyph-name="minus" unicode="&#xad;" horiz-adv-x="333" 
d="M314 582h-294v72h294v-72z" />
    <glyph glyph-name="registered" unicode="&#xae;" horiz-adv-x="750" 
d="M722 342c0 -100 -33.668 -185 -101.001 -255s-149.333 -105 -246 -105c-96 0 -178 35 -246 105s-102 155 -102 255c0 98.667 33.833 182.834 101.5 252.501s149.834 104.5 246.501 104.5c96 0 177.833 -34.833 245.5 -104.5s101.5 -153.834 101.5 -252.501zM661.999 342
c0 84 -27.667 155.333 -83 214s-123.333 88 -204 88c-81.333 0 -149.666 -29.333 -204.999 -88s-83 -130 -83 -214c0 -84.667 27.667 -156.667 83 -216s123.666 -89 204.999 -89c80.667 0 148.667 29.667 204 89s83 131.333 83 216zM538.999 140l-44.999 3l-45 -3l-104 188
h-18v-188l-39 3l-39 -3v401h149c34.667 0 61.667 -8.33301 81 -25s29 -40 29 -70c0 -28 -7.83301 -51.167 -23.5 -69.5s-37.834 -30.5 -66.501 -36.5l48 -82l51 -81zM422 431c0 31.333 -6.66602 52.333 -19.999 63c-8.66699 6.66699 -23.334 10 -44.001 10h-31v-157
c33.333 0 57.5 6.5 72.5 19.5s22.5 34.5 22.5 64.5z" />
    <glyph glyph-name="macron" unicode="&#xaf;" horiz-adv-x="333" 
d="M336 820c0 -17.333 -6.16699 -32.5 -18.5 -45.5s-27.5 -19.5 -45.5 -19.5s-33.5 6.5 -46.5 19.5s-19.5 28.167 -19.5 45.5s6.5 32.5 19.5 45.5s28.5 19.5 46.5 19.5c17.333 0 32.333 -6.33301 45 -19s19 -28 19 -46zM126 820c0 -18 -6.33301 -33.333 -19 -46
s-28 -19 -46 -19c-16.667 0 -31.667 6.66699 -45 20s-20 28.333 -20 45c0 17.333 6.5 32.5 19.5 45.5s28.167 19.5 45.5 19.5s32.5 -6.16699 45.5 -18.5s19.5 -27.833 19.5 -46.5zM241 -5c-11.333 0 -20.666 0.333008 -27.999 1c-28.667 2.66699 -44.334 4 -47.001 4
c-11.333 0 -26 -0.833008 -44 -2.5s-28.333 -2.5 -31 -2.5v686c11.333 0 26 -0.833008 44 -2.5s28.333 -2.5 31 -2.5c11.333 0 20.666 0.333008 27.999 1c28.667 2.66699 44.334 4 47.001 4v-686z" />
    <glyph glyph-name="degree" unicode="&#xb0;" horiz-adv-x="400" 
d="M350 520c0 -41.333 -14.667 -76.666 -44 -105.999s-64.666 -44 -105.999 -44s-76.666 14.667 -105.999 44s-44 64.666 -44 105.999s14.667 76.666 44 105.999s64.666 44 105.999 44s76.666 -14.667 105.999 -44s44 -64.666 44 -105.999zM295 520
c0 26 -9.33203 48.333 -27.999 67s-41.334 28 -68.001 28c-25.333 0 -47.333 -9.33301 -66 -28s-28 -41 -28 -67c0 -26.667 9.16699 -49.167 27.5 -67.5s40.833 -27.5 67.5 -27.5s49.167 9.16699 67.5 27.5s27.5 40.833 27.5 67.5z" />
    <glyph glyph-name="plusminus" unicode="&#xb1;" horiz-adv-x="606" 
d="M555 279h-209v-145h-86v145h-209v86h209v140h86v-140h209v-86zM555 0h-504v86h504v-86z" />
    <glyph glyph-name="twosuperior" unicode="&#xb2;" horiz-adv-x="333" 
d="M241 -5c-11.333 0 -20.666 0.333008 -27.999 1c-28.667 2.66699 -44.334 4 -47.001 4c-11.333 0 -26 -0.833008 -44 -2.5s-28.333 -2.5 -31 -2.5v686c11.333 0 26 -0.833008 44 -2.5s28.333 -2.5 31 -2.5c11.333 0 20.666 0.333008 27.999 1
c28.667 2.66699 44.334 4 47.001 4v-686z" />
    <glyph glyph-name="threesuperior" unicode="&#xb3;" horiz-adv-x="278" 
d="M218 663c0 -21.333 -7.83203 -39.833 -23.499 -55.5s-34.5 -23.5 -56.5 -23.5s-40.5 7.83301 -55.5 23.5s-22.5 34.167 -22.5 55.5c0 20.667 7.66699 39 23 55s33.666 24 54.999 24s40 -7.66699 56 -23s24 -34 24 -56zM208.001 -5c-11.333 1.33301 -19.666 2 -24.999 2
c-23.333 2 -38 3 -44 3c-14.667 -0 -28 -0.666992 -40 -2s-21.667 -2.33301 -29 -3v485c11.333 -1.33301 24.166 -2.5 38.499 -3.5s24.5 -1.5 30.5 -1.5c14.667 0 28 0.666992 40 2s21.667 2.33301 29 3v-485z" />
    <glyph glyph-name="acute" unicode="&#xb4;" horiz-adv-x="370" 
d="M365 422h-171.001v-427c-11.333 1.33301 -19.666 2 -24.999 2c-23.333 2 -38 3 -44 3c-14.667 -0 -28 -0.666992 -40 -2s-21.667 -2.33301 -29 -3v485h118c52 0 82 0.333008 90 1c40.667 3.33301 71 16 91 38h10c-2 -8.66699 -3.33301 -17.334 -4 -26.001s-1 -18 -1 -28
c0 -15.333 1.66699 -29.666 5 -42.999z" />
    <glyph glyph-name="mu" unicode="&#xb5;" 
d="M496 -5l-38.499 3.49902c-11 1 -20.167 1.5 -27.5 1.5c-15.333 0 -28.5 -0.666992 -39.5 -2s-20.167 -2.33301 -27.5 -3v73c-28 -30 -50.333 -50 -67 -60c-24 -14.667 -52.333 -22 -85 -22c-8 0 -15.333 2 -22 6v-251c-11.333 1.33301 -19.666 2 -24.999 2
c-23.333 2 -38 3 -44 3c-14.667 0 -28 -0.666992 -40 -2s-21.667 -2.33301 -29 -3v739c11.333 -1.33301 24.166 -2.5 38.499 -3.5s24.5 -1.5 30.5 -1.5c14.667 0 28 0.666992 40 2s21.667 2.33301 29 3v-276c0 -43.333 6.33301 -76.666 19 -99.999s33.667 -35 63 -35
c38 0 63.333 17 76 51c7.33301 20 11 53 11 99v261c11.333 -1.33301 24.166 -2.5 38.499 -3.5s24.5 -1.5 30.5 -1.5c14.667 0 28 0.666992 40 2s21.667 2.33301 29 3v-485z" />
    <glyph glyph-name="paragraph" unicode="&#xb6;" horiz-adv-x="700" 
d="M598 635l-49.002 -0.000976562v-727l-45 3l-46 -3v727h-58v-727l-45 3l-46 -3v420l-34 -2c-61.333 0 -109.666 15.333 -144.999 46s-53 75.334 -53 134.001c0 54 15.333 95.333 46 124c36.667 34 95.334 51 176.001 51h299v-46zM308.998 357.999v277.002
c-32.667 0 -54.167 -7.83301 -64.5 -23.5s-15.5 -40.834 -15.5 -75.501v-68c0 -42.667 7.66699 -72.334 23 -89.001c12.667 -14 31.667 -21 57 -21z" />
    <glyph glyph-name="periodcentered" unicode="&#xb7;" horiz-adv-x="278" 
d="M221 255c0 -22.667 -7.99902 -42 -23.999 -58s-35.667 -24 -59 -24c-22.667 0 -41.834 8.16699 -57.501 24.5s-23.5 35.5 -23.5 57.5c0 21.333 8 40.333 24 57s35 25 57 25s41.333 -8 58 -24s25 -35.333 25 -58z" />
    <glyph glyph-name="periodcentered" unicode="&#x2219;" horiz-adv-x="278" 
d="M221 255c0 -22.667 -7.99902 -42 -23.999 -58s-35.667 -24 -59 -24c-22.667 0 -41.834 8.16699 -57.501 24.5s-23.5 35.5 -23.5 57.5c0 21.333 8 40.333 24 57s35 25 57 25s41.333 -8 58 -24s25 -35.333 25 -58z" />
    <glyph glyph-name="cedilla" unicode="&#xb8;" horiz-adv-x="500" 
d="M420 619c0 -17.333 -6.16602 -32.5 -18.499 -45.5s-27.5 -19.5 -45.5 -19.5s-33.5 6.5 -46.5 19.5s-19.5 28.167 -19.5 45.5s6.66699 32.333 20 45s28.666 19 45.999 19s32.333 -6.33301 45 -19s19 -27.667 19 -45zM210.001 619c0 -18 -6.33301 -33.333 -19 -46
s-28 -19 -46 -19c-16.667 0 -31.667 6.66699 -45 20s-20 28.333 -20 45c0 17.333 6.33301 32.333 19 45s28 19 46 19c16.667 0 31.667 -6.33301 45 -19s20 -27.667 20 -45zM469.001 237h-286c0 -58 9.66699 -102 29 -132c22.667 -36 59.334 -54 110.001 -54
c20.667 0 41 4 61 12s38.667 19 56 33l11 -9l-21 -56c-42.667 -30 -90.334 -45 -143.001 -45c-82 0 -144.333 23 -187 69s-64 110.667 -64 194c0 72 20.333 130 61 174s96.667 66 168 66c73.333 0 127 -24 161 -72c29.333 -42 44 -102 44 -180zM331.001 285
c0 42 -3.33203 75.332 -9.99902 99.999c-10.667 40 -29.334 60 -56.001 60c-32 0 -54.667 -20 -68 -60c-9.33301 -27.333 -14 -60.666 -14 -99.999h148z" />
    <glyph glyph-name="onesuperior" unicode="&#xb9;" horiz-adv-x="1111" 
d="M1099 554c0 -46.667 -14.168 -84.5039 -42.501 -113.504s-67.833 -43.5 -118.5 -43.5c-48.667 0 -87.167 12.833 -115.5 38.5s-42.5 60.834 -42.5 105.501c0 22 3.5 42.833 10.5 62.5s18.167 36.834 33.5 51.501c12.667 13.333 29.834 24 51.501 32s42.834 12 63.501 12
c21.333 0 43 -3.16699 65 -9.5s39.667 -16.166 53 -29.499s23.666 -29.666 30.999 -48.999s11 -38.333 11 -57zM1089 276.996h-299v50h299v-50zM694.999 -5.00391l-85 1l-169 189l-168 182l-109 114v-484l-40 3l-40 -3v684h99l143 -154l146.5 -157l142.5 -157v468l40 -3
l40 3v-686zM1006 563.996c0 29.333 -3.33301 52.666 -10 69.999c-10 26.667 -27.667 40 -53 40c-29.333 0 -49.333 -16 -60 -48c-6.66699 -19.333 -10 -47 -10 -83c0 -29.333 3.66699 -54.333 11 -75c10.667 -30.667 28.667 -46 54 -46c27.333 0 46.333 16.667 57 50
c7.33301 22.667 11 53.334 11 92.001z" />
    <glyph glyph-name="ordmasculine" unicode="&#xba;" horiz-adv-x="481" 
d="M466 445l-34 -92.999h-27c-5.33301 27.333 -17 49.666 -35 66.999s-40.667 26 -68 26c-36.667 0 -66 -18.667 -88 -56c-18 -30 -29 -67.333 -33 -112h112c8 0 15.333 0.166992 22 0.5s20 1.83301 40 4.5c-2 -11.333 -3 -22 -3 -32c0 -10.667 1 -21.667 3 -33
c-18 2.66699 -31.333 4.16699 -40 4.5s-16 0.5 -22 0.5h-113c0 -54 12.667 -96 38 -126s63 -45 113 -45c20 0 39.5 4.16699 58.5 12.5s34.5 19.833 46.5 34.5l17 -14l-25 -59c-12 -12 -32.167 -21.5 -60.5 -28.5s-52.833 -10.5 -73.5 -10.5
c-79.333 0 -142.333 20.667 -189 62c-48.667 43.333 -73 103.333 -73 180c0 80 23.833 143.5 71.5 190.5s111.5 70.5 191.5 70.5c30.667 0 61 -3.5 91 -10.5s56.667 -18.167 80 -33.5z" />
    <glyph glyph-name="guillemotright" unicode="&#xbb;" horiz-adv-x="500" 
d="M416 268l-79.999 -122.002l-47 -75c-10 10 -23 19.667 -39 29l-26 15c42 52.667 79.333 103.334 112 152.001l-70 96.5c-4 5.66699 -18.333 23.834 -43 54.501c11.333 4.66699 22.166 10.667 32.499 18s21.5 16.333 33.5 27l78 -122zM268.001 267.998l-79.999 -122.002
l-47 -75c-10 10 -23 19.667 -39 29l-26 15c42 52.667 79.333 103.334 112 152.001l-70 96.5c-4 5.66699 -18.333 23.834 -43 54.501c11.333 4.66699 22.166 10.667 32.499 18s21.5 16.333 33.5 27l78 -122z" />
    <glyph glyph-name="onequarter" unicode="&#xbc;" horiz-adv-x="278" 
d="M219 661c0 -22 -8 -40.333 -24 -55s-35.333 -22 -58 -22c-21.333 0 -39.333 7.66699 -54 23s-22 33.333 -22 54c0 22.667 7.16699 41.834 21.5 57.501s32.5 23.5 54.5 23.5c24 0 43.667 -7.33301 59 -22s23 -34.334 23 -59.001zM209 -8
c0 -34 -5.33105 -61.834 -15.998 -83.501s-30.334 -43.5 -59.001 -65.5c-19.333 -15.333 -40 -27.166 -62 -35.499s-45 -12.5 -69 -12.5l-11 34c32.667 10 54.667 27.667 66 53c8.66699 20 13 52 13 96v502c11.333 -1.33301 24.166 -2.5 38.499 -3.5s24.5 -1.5 30.5 -1.5
c14.667 0 28 0.666992 40 2s21.667 2.33301 29 3v-488z" />
    <glyph glyph-name="onehalf" unicode="&#xbd;" horiz-adv-x="500" 
d="M468 202c0 -64 -24.666 -116.667 -73.999 -158s-113 -62 -191 -62c-29.333 0 -57.833 3.5 -85.5 10.5s-52.834 17.833 -75.501 32.5c8 28 14 50.667 18 68s7.66699 37 11 59h19c7.33301 -34.667 23.333 -61.667 48 -81s54.667 -29 90 -29c33.333 0 61.166 9 83.499 27
s33.5 43.667 33.5 77c0 42.667 -25.667 78 -77 106l-143 76c-52 39.333 -78 93 -78 161c0 60.667 19.333 110 58 148c42 41.333 99.667 62 173 62c33.333 0 64.833 -5 94.5 -15s50.834 -21 63.501 -33c-7.33301 -19.333 -13 -35.333 -17 -48l-15 -51h-15
c-10 27.333 -24.667 48.666 -44 63.999s-43 23 -71 23c-37.333 0 -65 -8.83301 -83 -26.5s-27 -41.5 -27 -71.5c0 -36 26 -68.333 78 -97c94.667 -52 143.667 -79.333 147 -82c52.667 -41.333 79 -94.666 79 -159.999z" />
    <glyph glyph-name="threequarters" unicode="&#xbe;" horiz-adv-x="389" 
d="M362 146c0 -47.333 -17.168 -85.8311 -51.501 -115.498s-81.5 -44.5 -141.5 -44.5c-52 0 -98 13.667 -138 41l15 95h25c9.33301 -26 24 -46.667 44 -62s43.333 -23 70 -23c18.667 0 36.167 5.83301 52.5 17.5s24.5 26.167 24.5 43.5c0 24.667 -19.667 45.667 -59 63
c-66 29.333 -103 46.666 -111 51.999c-40.667 28.667 -61 67.667 -61 117s16.667 88.166 50 116.499s74 42.5 122 42.5c25.333 0 51 -4.16699 77 -12.5s48.667 -19.833 68 -34.5l-24 -88h-28c-4 22.667 -15.167 42.334 -33.5 59.001s-38.833 25 -61.5 25
c-20 0 -37.333 -4.83301 -52 -14.5s-22 -24.167 -22 -43.5c0 -24.667 20.333 -45.334 61 -62.001c64.667 -26 102.334 -42.667 113.001 -50c40.667 -28 61 -68.667 61 -122z" />
    <glyph glyph-name="questiondown" unicode="&#xbf;" horiz-adv-x="278" 
d="M309 619c0 -17.333 -6.16699 -32.5 -18.5 -45.5s-27.5 -19.5 -45.5 -19.5s-33.5 6.5 -46.5 19.5s-19.5 28.167 -19.5 45.5s6.5 32.5 19.5 45.5s28.5 19.5 46.5 19.5c17.333 0 32.333 -6.33301 45 -19s19 -28 19 -46zM99 619c0 -18 -6.33301 -33.333 -19 -46
s-28 -19 -46 -19c-16.667 0 -31.667 6.66699 -45 20s-20 28.333 -20 45c0 17.333 6.5 32.5 19.5 45.5s28.167 19.5 45.5 19.5s32.5 -6.16699 45.5 -18.5s19.5 -27.833 19.5 -46.5zM208 -5c-11.333 1.33301 -19.666 2 -24.999 2c-23.333 2 -38 3 -44 3
c-14.667 -0 -28 -0.666992 -40 -2s-21.667 -2.33301 -29 -3v485c11.333 -1.33301 24.166 -2.5 38.499 -3.5s24.5 -1.5 30.5 -1.5c14.667 0 28 0.666992 40 2s21.667 2.33301 29 3v-485z" />
    <glyph glyph-name="Agrave" unicode="&#xc0;" horiz-adv-x="648" 
d="M644 -5c-12 0 -28.333 0.832031 -49 2.49902s-33 2.5 -37 2.5c-12 0 -28.333 -0.833008 -49 -2.5s-33 -2.5 -37 -2.5l-34 107c-12.667 38.667 -25 72.667 -37 102h-233l-46.5 -132.5c-9.66699 -28.333 -17.5 -53.166 -23.5 -74.499l-47 3l-48 -3l286 693l38 -3l38 3z
M378 264.999l-89 233l-94 -233h183z" />
    <glyph glyph-name="Agrave" unicode="&#x410;" horiz-adv-x="648" 
d="M644 -5c-12 0 -28.333 0.832031 -49 2.49902s-33 2.5 -37 2.5c-12 0 -28.333 -0.833008 -49 -2.5s-33 -2.5 -37 -2.5l-34 107c-12.667 38.667 -25 72.667 -37 102h-233l-46.5 -132.5c-9.66699 -28.333 -17.5 -53.166 -23.5 -74.499l-47 3l-48 -3l286 693l38 -3l38 3z
M378 264.999l-89 233l-94 -233h183z" />
    <glyph glyph-name="Aacute" unicode="&#xc1;" horiz-adv-x="592" 
d="M551 216c0 -81.333 -27.6689 -139.668 -83.002 -175.001c-43.333 -28 -103.666 -42 -180.999 -42h-211v681h442c-2 -9.33301 -3.33301 -16.333 -4 -21s-1 -12 -1 -22c0 -13.333 1.66699 -27.666 5 -42.999c-35.333 4.66699 -73.5 8.16699 -114.5 10.5
s-100.167 3.5 -177.5 3.5v-222h106c70.667 0 124.834 -14.167 162.501 -42.5s56.5 -70.833 56.5 -127.5zM395.998 197.998c0 38.667 -9.66699 69.9971 -29 93.9971s-42.333 36 -69 36h-72v-273l41 2c14 0.666992 25.667 2.33398 35 5.00098
c31.333 8.66699 54.833 25.334 70.5 50.001s23.5 53.334 23.5 86.001z" />
    <glyph glyph-name="Aacute" unicode="&#x411;" horiz-adv-x="592" 
d="M551 216c0 -81.333 -27.6689 -139.668 -83.002 -175.001c-43.333 -28 -103.666 -42 -180.999 -42h-211v681h442c-2 -9.33301 -3.33301 -16.333 -4 -21s-1 -12 -1 -22c0 -13.333 1.66699 -27.666 5 -42.999c-35.333 4.66699 -73.5 8.16699 -114.5 10.5
s-100.167 3.5 -177.5 3.5v-222h106c70.667 0 124.834 -14.167 162.501 -42.5s56.5 -70.833 56.5 -127.5zM395.998 197.998c0 38.667 -9.66699 69.9971 -29 93.9971s-42.333 36 -69 36h-72v-273l41 2c14 0.666992 25.667 2.33398 35 5.00098
c31.333 8.66699 54.833 25.334 70.5 50.001s23.5 53.334 23.5 86.001z" />
    <glyph glyph-name="Acircumflex" unicode="&#xc2;" horiz-adv-x="592" 
d="M549 196c0 -64.667 -25.333 -114.667 -76 -150c-44 -30.667 -99.333 -46 -166 -46h-231v681h258c58 0 103.667 -10.333 137 -31c41.333 -25.333 62 -65.333 62 -120c0 -44.667 -16.667 -81.667 -50 -111c-29.333 -26 -67.333 -42.333 -114 -49v-9
c48 -4.66699 87 -17.334 117 -38.001c42 -29.333 63 -71.666 63 -126.999zM384 516c0 35.333 -9.33301 62.667 -28 82s-45 29 -79 29c-16 0 -33 -1.33301 -51 -4v-236h31c18.667 0 34.5 1.66699 47.5 5s25.167 10 36.5 20c14.667 12.667 25.5 28 32.5 46
s10.5 37.333 10.5 58zM394 189.001c0 52 -14.667 89 -44 111c-26 19.333 -67.333 29 -124 29v-271h50c30 0 57.167 11.833 81.5 35.5s36.5 55.5 36.5 95.5z" />
    <glyph glyph-name="Acircumflex" unicode="&#x412;" horiz-adv-x="592" 
d="M549 196c0 -64.667 -25.333 -114.667 -76 -150c-44 -30.667 -99.333 -46 -166 -46h-231v681h258c58 0 103.667 -10.333 137 -31c41.333 -25.333 62 -65.333 62 -120c0 -44.667 -16.667 -81.667 -50 -111c-29.333 -26 -67.333 -42.333 -114 -49v-9
c48 -4.66699 87 -17.334 117 -38.001c42 -29.333 63 -71.666 63 -126.999zM384 516c0 35.333 -9.33301 62.667 -28 82s-45 29 -79 29c-16 0 -33 -1.33301 -51 -4v-236h31c18.667 0 34.5 1.66699 47.5 5s25.167 10 36.5 20c14.667 12.667 25.5 28 32.5 46
s10.5 37.333 10.5 58zM394 189.001c0 52 -14.667 89 -44 111c-26 19.333 -67.333 29 -124 29v-271h50c30 0 57.167 11.833 81.5 35.5s36.5 55.5 36.5 95.5z" />
    <glyph glyph-name="Atilde" unicode="&#xc3;" horiz-adv-x="481" 
d="M461 595c-45.333 5.33301 -82.501 8.99902 -111.501 10.999s-69.5 3 -121.5 3v-614c-10 0 -23.833 0.833008 -41.5 2.5s-28.5 2.5 -32.5 2.5c-10.667 0 -25.167 -0.833008 -43.5 -2.5s-29.166 -2.5 -32.499 -2.5v686h383c-1.33301 -7.33301 -2.5 -15 -3.5 -23
s-1.5 -14.667 -1.5 -20c0 -4.66699 0.666992 -11.667 2 -21s2.33301 -16.666 3 -21.999z" />
    <glyph glyph-name="Atilde" unicode="&#x413;" horiz-adv-x="481" 
d="M461 595c-45.333 5.33301 -82.501 8.99902 -111.501 10.999s-69.5 3 -121.5 3v-614c-10 0 -23.833 0.833008 -41.5 2.5s-28.5 2.5 -32.5 2.5c-10.667 0 -25.167 -0.833008 -43.5 -2.5s-29.166 -2.5 -32.499 -2.5v686h383c-1.33301 -7.33301 -2.5 -15 -3.5 -23
s-1.5 -14.667 -1.5 -20c0 -4.66699 0.666992 -11.667 2 -21s2.33301 -16.666 3 -21.999z" />
    <glyph glyph-name="Adieresis" unicode="&#xc4;" horiz-adv-x="703" 
d="M683 -45l-14.999 -0.000976562c-15.333 18.667 -37.5 30.834 -66.5 36.501s-61.5 8.5 -97.5 8.5h-298c-44.667 -0 -76.334 -1.66699 -95.001 -5c-34 -6 -59.333 -19.333 -76 -40h-15c1.33301 6 2.5 15.333 3.5 28s1.5 24.667 1.5 36s-0.333008 20 -1 26s-2 15 -4 27h43
l83 195l83 203l87 216l38 -3l38 3l248 -614h43c-4 -16 -6 -33.667 -6 -53c0 -20.667 2 -42 6 -64zM475.001 74.999l-47.998 133l-52 137l-59 149l-95 -228c-32.667 -81.333 -57 -145 -73 -191c28 0 64.667 -0.5 110 -1.5s69.666 -1.5 72.999 -1.5h43h15h13
c29.333 0 53.666 1 72.999 3z" />
    <glyph glyph-name="Adieresis" unicode="&#x414;" horiz-adv-x="703" 
d="M683 -45l-14.999 -0.000976562c-15.333 18.667 -37.5 30.834 -66.5 36.501s-61.5 8.5 -97.5 8.5h-298c-44.667 -0 -76.334 -1.66699 -95.001 -5c-34 -6 -59.333 -19.333 -76 -40h-15c1.33301 6 2.5 15.333 3.5 28s1.5 24.667 1.5 36s-0.333008 20 -1 26s-2 15 -4 27h43
l83 195l83 203l87 216l38 -3l38 3l248 -614h43c-4 -16 -6 -33.667 -6 -53c0 -20.667 2 -42 6 -64zM475.001 74.999l-47.998 133l-52 137l-59 149l-95 -228c-32.667 -81.333 -57 -145 -73 -191c28 0 64.667 -0.5 110 -1.5s69.666 -1.5 72.999 -1.5h43h15h13
c29.333 0 53.666 1 72.999 3z" />
    <glyph glyph-name="Aring" unicode="&#xc5;" horiz-adv-x="500" 
d="M459 0l-380.998 -0.00292969v681h381c-1.33301 -7.33301 -2.5 -15 -3.5 -23s-1.5 -14.667 -1.5 -20c0 -4.66699 0.666992 -11.667 2 -21s2.33301 -16.666 3 -21.999c-34 4.66699 -69.167 8.16699 -105.5 10.5s-78.166 3.5 -125.499 3.5v-215h104
c26 0 46.167 0.5 60.5 1.5s35.166 3.5 62.499 7.5c-1.33301 -7.33301 -2.5 -15 -3.5 -23s-1.5 -14.667 -1.5 -20c0 -4.66699 0.666992 -11.667 2 -21s2.33301 -16.666 3 -21.999c-16 2 -35.833 4 -59.5 6s-44.834 3 -63.501 3h-104v-254
c47.333 0 89.166 1.16699 125.499 3.5s71.5 5.83301 105.5 10.5c-1.33301 -7.33301 -2.5 -15 -3.5 -23s-1.5 -14.667 -1.5 -20c0 -4.66699 0.666992 -11.667 2 -21s2.33301 -16.666 3 -21.999z" />
    <glyph glyph-name="Aring" unicode="&#x415;" horiz-adv-x="500" 
d="M459 0l-380.998 -0.00292969v681h381c-1.33301 -7.33301 -2.5 -15 -3.5 -23s-1.5 -14.667 -1.5 -20c0 -4.66699 0.666992 -11.667 2 -21s2.33301 -16.666 3 -21.999c-34 4.66699 -69.167 8.16699 -105.5 10.5s-78.166 3.5 -125.499 3.5v-215h104
c26 0 46.167 0.5 60.5 1.5s35.166 3.5 62.499 7.5c-1.33301 -7.33301 -2.5 -15 -3.5 -23s-1.5 -14.667 -1.5 -20c0 -4.66699 0.666992 -11.667 2 -21s2.33301 -16.666 3 -21.999c-16 2 -35.833 4 -59.5 6s-44.834 3 -63.501 3h-104v-254
c47.333 0 89.166 1.16699 125.499 3.5s71.5 5.83301 105.5 10.5c-1.33301 -7.33301 -2.5 -15 -3.5 -23s-1.5 -14.667 -1.5 -20c0 -4.66699 0.666992 -11.667 2 -21s2.33301 -16.666 3 -21.999z" />
    <glyph glyph-name="AE" unicode="&#xc6;" horiz-adv-x="906" 
d="M898 -5c-11.333 0 -20.666 0.333008 -27.999 1c-28.667 2.66699 -44.334 4 -47.001 4c-11.333 0 -26 -0.833008 -44 -2.5s-28.333 -2.5 -31 -2.5l-220 318v-318c-11.333 0 -20.666 0.333008 -27.999 1c-28.667 2.66699 -44.334 4 -47.001 4
c-15.333 0 -27.333 -0.333008 -36 -1s-21.667 -2 -39 -4v318l-220 -318c-11.333 0 -20.666 0.333008 -27.999 1c-28.667 2.66699 -44.334 4 -47.001 4c-11.333 0 -26 -0.833008 -44 -2.5s-28.333 -2.5 -31 -2.5v14l266 387c-6 6 -24.667 27.333 -56 64l-37 41l-163 172v8
l31.5 -3.5c9 -1 16.167 -1.5 21.5 -1.5c12 0 22.5 0.666992 31.5 2s16.5 2.33301 22.5 3l124 -157l129 -156v313c10 -2 21 -3.33301 33 -4s26 -1 42 -1c12.667 0 25.334 0.333008 38.001 1s25 2 37 4v-313l86.5 103.5l83.5 103.5l83 106l31.5 -3.5c9 -1 16.5 -1.5 22.5 -1.5
c11.333 0 20.666 0.5 27.999 1.5l25 3.5v-8l-58 -60l-105 -112l-93 -105l266 -387v-14z" />
    <glyph glyph-name="AE" unicode="&#x416;" horiz-adv-x="906" 
d="M898 -5c-11.333 0 -20.666 0.333008 -27.999 1c-28.667 2.66699 -44.334 4 -47.001 4c-11.333 0 -26 -0.833008 -44 -2.5s-28.333 -2.5 -31 -2.5l-220 318v-318c-11.333 0 -20.666 0.333008 -27.999 1c-28.667 2.66699 -44.334 4 -47.001 4
c-15.333 0 -27.333 -0.333008 -36 -1s-21.667 -2 -39 -4v318l-220 -318c-11.333 0 -20.666 0.333008 -27.999 1c-28.667 2.66699 -44.334 4 -47.001 4c-11.333 0 -26 -0.833008 -44 -2.5s-28.333 -2.5 -31 -2.5v14l266 387c-6 6 -24.667 27.333 -56 64l-37 41l-163 172v8
l31.5 -3.5c9 -1 16.167 -1.5 21.5 -1.5c12 0 22.5 0.666992 31.5 2s16.5 2.33301 22.5 3l124 -157l129 -156v313c10 -2 21 -3.33301 33 -4s26 -1 42 -1c12.667 0 25.334 0.333008 38.001 1s25 2 37 4v-313l86.5 103.5l83.5 103.5l83 106l31.5 -3.5c9 -1 16.5 -1.5 22.5 -1.5
c11.333 0 20.666 0.5 27.999 1.5l25 3.5v-8l-58 -60l-105 -112l-93 -105l266 -387v-14z" />
    <glyph glyph-name="Ccedilla" unicode="&#xc7;" horiz-adv-x="536" 
d="M492 195c0 -63.333 -26.666 -115.335 -79.999 -156.002c-50 -38 -111.667 -57 -185 -57c-63.333 0 -122.666 16.333 -177.999 49l-11 80l13 6c26.667 -25.333 53.5 -44.166 80.5 -56.499s53.5 -18.5 79.5 -18.5c37.333 0 67.666 12.333 90.999 37s35 58 35 100
c0 54.667 -14 93.667 -42 117c-22.667 18.667 -55 28 -97 28h-24.5c-7.66699 0 -16.5 -0.666992 -26.5 -2c2 13.333 3 26 3 38c0 12.667 -1 25 -3 37l38 -2c45.333 0 79 12.667 101 38c20 22.667 30 54 30 94c0 34.667 -10.333 62 -31 82s-46.334 30 -77.001 30
c-26 0 -51.167 -7.5 -75.5 -22.5s-44.833 -38.167 -61.5 -69.5h-16c0 14 -0.5 26.5 -1.5 37.5s-4.5 34.5 -10.5 70.5c60 29.333 125.667 44 197 44c64.667 0 117.334 -12.667 158.001 -38c45.333 -28 68 -68.667 68 -122c0 -47.333 -15 -85.666 -45 -114.999
c-26.667 -26 -64.667 -44 -114 -54v-9c51.333 0 93.666 -12.667 126.999 -38c38.667 -29.333 58 -72 58 -128z" />
    <glyph glyph-name="Ccedilla" unicode="&#x417;" horiz-adv-x="536" 
d="M492 195c0 -63.333 -26.666 -115.335 -79.999 -156.002c-50 -38 -111.667 -57 -185 -57c-63.333 0 -122.666 16.333 -177.999 49l-11 80l13 6c26.667 -25.333 53.5 -44.166 80.5 -56.499s53.5 -18.5 79.5 -18.5c37.333 0 67.666 12.333 90.999 37s35 58 35 100
c0 54.667 -14 93.667 -42 117c-22.667 18.667 -55 28 -97 28h-24.5c-7.66699 0 -16.5 -0.666992 -26.5 -2c2 13.333 3 26 3 38c0 12.667 -1 25 -3 37l38 -2c45.333 0 79 12.667 101 38c20 22.667 30 54 30 94c0 34.667 -10.333 62 -31 82s-46.334 30 -77.001 30
c-26 0 -51.167 -7.5 -75.5 -22.5s-44.833 -38.167 -61.5 -69.5h-16c0 14 -0.5 26.5 -1.5 37.5s-4.5 34.5 -10.5 70.5c60 29.333 125.667 44 197 44c64.667 0 117.334 -12.667 158.001 -38c45.333 -28 68 -68.667 68 -122c0 -47.333 -15 -85.666 -45 -114.999
c-26.667 -26 -64.667 -44 -114 -54v-9c51.333 0 93.666 -12.667 126.999 -38c38.667 -29.333 58 -72 58 -128z" />
    <glyph glyph-name="Egrave" unicode="&#xc8;" horiz-adv-x="758" 
d="M682 -5c-9.33301 0 -22.833 0.833984 -40.5 2.50098s-29.5 2.5 -35.5 2.5c-10 0 -23.833 -0.833008 -41.5 -2.5s-28.5 -2.5 -32.5 -2.5v474c-55.333 -62.667 -121 -141.167 -197 -235.5s-137.333 -173.833 -184 -238.5h-75v686c11.333 0 26 -0.833008 44 -2.5
s28.333 -2.5 31 -2.5c11.333 0 20.666 0.333008 27.999 1c28.667 2.66699 44.334 4 47.001 4v-469c57.333 60.667 123.333 137.667 198 231c70 87.333 130.667 167.666 182 240.999h76v-689z" />
    <glyph glyph-name="Egrave" unicode="&#x418;" horiz-adv-x="758" 
d="M682 -5c-9.33301 0 -22.833 0.833984 -40.5 2.50098s-29.5 2.5 -35.5 2.5c-10 0 -23.833 -0.833008 -41.5 -2.5s-28.5 -2.5 -32.5 -2.5v474c-55.333 -62.667 -121 -141.167 -197 -235.5s-137.333 -173.833 -184 -238.5h-75v686c11.333 0 26 -0.833008 44 -2.5
s28.333 -2.5 31 -2.5c11.333 0 20.666 0.333008 27.999 1c28.667 2.66699 44.334 4 47.001 4v-469c57.333 60.667 123.333 137.667 198 231c70 87.333 130.667 167.666 182 240.999h76v-689z" />
    <glyph glyph-name="Eacute" unicode="&#xc9;" horiz-adv-x="758" 
d="M539 831c-13.333 -31.333 -33.667 -56.665 -61 -75.998s-60.333 -29 -99 -29c-38 0 -70.667 9.66699 -98 29s-48 44.666 -62 75.999l32 17c28 -42 71 -63 129 -63c28 0 52.833 5.16699 74.5 15.5s39.167 26.166 52.5 47.499zM681.999 -4.99902
c-9.33301 0 -22.833 0.833984 -40.5 2.50098s-29.5 2.5 -35.5 2.5c-10 0 -23.833 -0.833008 -41.5 -2.5s-28.5 -2.5 -32.5 -2.5v474c-55.333 -62.667 -121 -141.167 -197 -235.5s-137.333 -173.833 -184 -238.5h-75v686c11.333 0 26 -0.833008 44 -2.5s28.333 -2.5 31 -2.5
c11.333 0 20.666 0.333008 27.999 1c28.667 2.66699 44.334 4 47.001 4v-469c57.333 60.667 123.333 137.667 198 231c70 87.333 130.667 167.666 182 240.999h76v-689z" />
    <glyph glyph-name="Eacute" unicode="&#x419;" horiz-adv-x="758" 
d="M539 831c-13.333 -31.333 -33.667 -56.665 -61 -75.998s-60.333 -29 -99 -29c-38 0 -70.667 9.66699 -98 29s-48 44.666 -62 75.999l32 17c28 -42 71 -63 129 -63c28 0 52.833 5.16699 74.5 15.5s39.167 26.166 52.5 47.499zM681.999 -4.99902
c-9.33301 0 -22.833 0.833984 -40.5 2.50098s-29.5 2.5 -35.5 2.5c-10 0 -23.833 -0.833008 -41.5 -2.5s-28.5 -2.5 -32.5 -2.5v474c-55.333 -62.667 -121 -141.167 -197 -235.5s-137.333 -173.833 -184 -238.5h-75v686c11.333 0 26 -0.833008 44 -2.5s28.333 -2.5 31 -2.5
c11.333 0 20.666 0.333008 27.999 1c28.667 2.66699 44.334 4 47.001 4v-469c57.333 60.667 123.333 137.667 198 231c70 87.333 130.667 167.666 182 240.999h76v-689z" />
    <glyph glyph-name="Ecircumflex" unicode="&#xca;" horiz-adv-x="611" 
d="M603 -5c-11.333 0 -20.665 0.333008 -27.998 1c-28.667 2.66699 -44.334 4 -47.001 4c-11.333 0 -26 -0.833008 -44 -2.5s-28.333 -2.5 -31 -2.5l-227 318v-318c-11.333 0 -20.666 0.333008 -27.999 1c-28.667 2.66699 -44.334 4 -47.001 4
c-11.333 0 -26 -0.833008 -44 -2.5s-28.333 -2.5 -31 -2.5v686c11.333 0 26 -0.833008 44 -2.5s28.333 -2.5 31 -2.5c11.333 0 20.666 0.333008 27.999 1c28.667 2.66699 44.334 4 47.001 4v-313l260 313l31.5 -3.5c9 -1 16.5 -1.5 22.5 -1.5
c11.333 0 20.666 0.5 27.999 1.5l25 3.5v-8l-164 -172l-95 -105l269 -387v-14z" />
    <glyph glyph-name="Ecircumflex" unicode="&#x41a;" horiz-adv-x="611" 
d="M603 -5c-11.333 0 -20.665 0.333008 -27.998 1c-28.667 2.66699 -44.334 4 -47.001 4c-11.333 0 -26 -0.833008 -44 -2.5s-28.333 -2.5 -31 -2.5l-227 318v-318c-11.333 0 -20.666 0.333008 -27.999 1c-28.667 2.66699 -44.334 4 -47.001 4
c-11.333 0 -26 -0.833008 -44 -2.5s-28.333 -2.5 -31 -2.5v686c11.333 0 26 -0.833008 44 -2.5s28.333 -2.5 31 -2.5c11.333 0 20.666 0.333008 27.999 1c28.667 2.66699 44.334 4 47.001 4v-313l260 313l31.5 -3.5c9 -1 16.5 -1.5 22.5 -1.5
c11.333 0 20.666 0.5 27.999 1.5l25 3.5v-8l-164 -172l-95 -105l269 -387v-14z" />
    <glyph glyph-name="Edieresis" unicode="&#xcb;" horiz-adv-x="648" 
d="M644 -5c-12.667 0 -23.3379 0.333008 -32.0049 1c-33.333 2.66699 -51.666 4 -54.999 4c-13.333 0 -30.166 -0.833008 -50.499 -2.5s-31.833 -2.5 -34.5 -2.5c-18 56 -35.667 108.333 -53 157s-37.666 103 -60.999 163l-69 179l-79 -189
c-21.333 -52.667 -42.333 -107.167 -63 -163.5s-37 -104.5 -49 -144.5l-47 3l-48 -3l138 317c50 119.333 99.333 243.333 148 372c12.667 -2.66699 25.334 -5 38.001 -7c7.33301 0 13.833 0.666992 19.5 2s11.834 3 18.501 5z" />
    <glyph glyph-name="Edieresis" unicode="&#x41b;" horiz-adv-x="648" 
d="M644 -5c-12.667 0 -23.3379 0.333008 -32.0049 1c-33.333 2.66699 -51.666 4 -54.999 4c-13.333 0 -30.166 -0.833008 -50.499 -2.5s-31.833 -2.5 -34.5 -2.5c-18 56 -35.667 108.333 -53 157s-37.666 103 -60.999 163l-69 179l-79 -189
c-21.333 -52.667 -42.333 -107.167 -63 -163.5s-37 -104.5 -49 -144.5l-47 3l-48 -3l138 317c50 119.333 99.333 243.333 148 372c12.667 -2.66699 25.334 -5 38.001 -7c7.33301 0 13.833 0.666992 19.5 2s11.834 3 18.501 5z" />
    <glyph glyph-name="Igrave" unicode="&#xcc;" horiz-adv-x="889" 
d="M855 -5c-10 0 -24.999 0.834961 -44.999 2.50195s-32.667 2.5 -38 2.5c-11.333 0 -26.5 -0.833008 -45.5 -2.5s-30.833 -2.5 -35.5 -2.5c0 63.333 -5 137.5 -15 222.5l-28 243.5l-75.5 -153.5l-74.5 -152.5l-72 -155c-10.667 1.33301 -18.667 2 -24 2
c-2.66699 0 -7.33398 -0.666992 -14.001 -2l-68 143l-74 151l-77 156c-10 -75.333 -17 -130.333 -21 -165c-6.66699 -55.333 -11.834 -107 -15.501 -155s-5.5 -93 -5.5 -135l-27.5 3.5c-7.66699 1 -14.167 1.5 -19.5 1.5c-10 0 -18.333 -0.5 -25 -1.5
s-13.667 -2.16699 -21 -3.5c12 65.333 23.667 135.666 35 210.999c6.66699 42 17.5 117.333 32.5 226l34.5 249l24 -3.5c6.66699 -1 12.334 -1.5 17.001 -1.5c9.33301 0 17.5 0.666992 24.5 2s12.833 2.33301 17.5 3l74 -156l77 -157l79 -157l75 147l79 157
c36 73.333 62.333 128.666 79 165.999l24.5 -3.5c7 -1 12.833 -1.5 17.5 -1.5s11.667 0.666992 21 2s16.666 2.33301 21.999 3l29 -253c15.333 -132 24.333 -207.333 27 -226c8.66699 -62 19.334 -131 32.001 -207z" />
    <glyph glyph-name="Igrave" unicode="&#x41c;" horiz-adv-x="889" 
d="M855 -5c-10 0 -24.999 0.834961 -44.999 2.50195s-32.667 2.5 -38 2.5c-11.333 0 -26.5 -0.833008 -45.5 -2.5s-30.833 -2.5 -35.5 -2.5c0 63.333 -5 137.5 -15 222.5l-28 243.5l-75.5 -153.5l-74.5 -152.5l-72 -155c-10.667 1.33301 -18.667 2 -24 2
c-2.66699 0 -7.33398 -0.666992 -14.001 -2l-68 143l-74 151l-77 156c-10 -75.333 -17 -130.333 -21 -165c-6.66699 -55.333 -11.834 -107 -15.501 -155s-5.5 -93 -5.5 -135l-27.5 3.5c-7.66699 1 -14.167 1.5 -19.5 1.5c-10 0 -18.333 -0.5 -25 -1.5
s-13.667 -2.16699 -21 -3.5c12 65.333 23.667 135.666 35 210.999c6.66699 42 17.5 117.333 32.5 226l34.5 249l24 -3.5c6.66699 -1 12.334 -1.5 17.001 -1.5c9.33301 0 17.5 0.666992 24.5 2s12.833 2.33301 17.5 3l74 -156l77 -157l79 -157l75 147l79 157
c36 73.333 62.333 128.666 79 165.999l24.5 -3.5c7 -1 12.833 -1.5 17.5 -1.5s11.667 0.666992 21 2s16.666 2.33301 21.999 3l29 -253c15.333 -132 24.333 -207.333 27 -226c8.66699 -62 19.334 -131 32.001 -207z" />
    <glyph glyph-name="Iacute" unicode="&#xcd;" horiz-adv-x="758" 
d="M682 -5c-11.333 0 -20.665 0.333008 -27.998 1c-28.667 2.66699 -44.334 4 -47.001 4c-11.333 0 -26 -0.833008 -44 -2.5s-28.333 -2.5 -31 -2.5v335c-23.333 0 -42.333 0.333008 -57 1c-58 2.66699 -90 4 -96 4c-23.333 0 -53.333 -0.833008 -90 -2.5
s-57.667 -2.5 -63 -2.5v-335c-11.333 0 -20.666 0.333008 -27.999 1c-28.667 2.66699 -44.334 4 -47.001 4c-11.333 0 -26 -0.833008 -44 -2.5s-28.333 -2.5 -31 -2.5v686c11.333 0 26 -0.833008 44 -2.5s28.333 -2.5 31 -2.5c11.333 0 20.666 0.333008 27.999 1
c28.667 2.66699 44.334 4 47.001 4v-271c23.333 0 53.166 -0.833008 89.499 -2.5s57.5 -2.5 63.5 -2.5c23.333 0 42.333 0.333008 57 1c58.667 2.66699 90.667 4 96 4v271c11.333 0 26 -0.833008 44 -2.5s28.333 -2.5 31 -2.5c11.333 0 20.666 0.333008 27.999 1
c28.667 2.66699 44.334 4 47.001 4v-686z" />
    <glyph glyph-name="Iacute" unicode="&#x41d;" horiz-adv-x="758" 
d="M682 -5c-11.333 0 -20.665 0.333008 -27.998 1c-28.667 2.66699 -44.334 4 -47.001 4c-11.333 0 -26 -0.833008 -44 -2.5s-28.333 -2.5 -31 -2.5v335c-23.333 0 -42.333 0.333008 -57 1c-58 2.66699 -90 4 -96 4c-23.333 0 -53.333 -0.833008 -90 -2.5
s-57.667 -2.5 -63 -2.5v-335c-11.333 0 -20.666 0.333008 -27.999 1c-28.667 2.66699 -44.334 4 -47.001 4c-11.333 0 -26 -0.833008 -44 -2.5s-28.333 -2.5 -31 -2.5v686c11.333 0 26 -0.833008 44 -2.5s28.333 -2.5 31 -2.5c11.333 0 20.666 0.333008 27.999 1
c28.667 2.66699 44.334 4 47.001 4v-271c23.333 0 53.166 -0.833008 89.499 -2.5s57.5 -2.5 63.5 -2.5c23.333 0 42.333 0.333008 57 1c58.667 2.66699 90.667 4 96 4v271c11.333 0 26 -0.833008 44 -2.5s28.333 -2.5 31 -2.5c11.333 0 20.666 0.333008 27.999 1
c28.667 2.66699 44.334 4 47.001 4v-686z" />
    <glyph glyph-name="Icircumflex" unicode="&#xce;" horiz-adv-x="833" 
d="M799 343c0 -101.333 -35 -186.001 -105 -254.001c-73.333 -71.333 -169.666 -107 -288.999 -107c-112.667 0 -202.5 31.333 -269.5 94s-100.5 150.334 -100.5 263.001c0 103.333 34.333 188.333 103 255c72 70 169 105 291 105c129.333 0 226.666 -40 291.999 -120
c52 -64 78 -142.667 78 -236zM633 361.999c0 74 -16.001 136.333 -48.001 187c-38 60 -92 90 -162 90c-71.333 0 -125.666 -26.667 -162.999 -80c-39.333 -56 -59 -139 -59 -249c0 -73.333 16 -134.333 48 -183c37.333 -56.667 91 -85 161 -85c72.667 0 129 32.333 169 97
c36 58.667 54 133 54 223z" />
    <glyph glyph-name="Icircumflex" unicode="&#x41e;" horiz-adv-x="833" 
d="M799 343c0 -101.333 -35 -186.001 -105 -254.001c-73.333 -71.333 -169.666 -107 -288.999 -107c-112.667 0 -202.5 31.333 -269.5 94s-100.5 150.334 -100.5 263.001c0 103.333 34.333 188.333 103 255c72 70 169 105 291 105c129.333 0 226.666 -40 291.999 -120
c52 -64 78 -142.667 78 -236zM633 361.999c0 74 -16.001 136.333 -48.001 187c-38 60 -92 90 -162 90c-71.333 0 -125.666 -26.667 -162.999 -80c-39.333 -56 -59 -139 -59 -249c0 -73.333 16 -134.333 48 -183c37.333 -56.667 91 -85 161 -85c72.667 0 129 32.333 169 97
c36 58.667 54 133 54 223z" />
    <glyph glyph-name="Idieresis" unicode="&#xcf;" horiz-adv-x="758" 
d="M682 -5c-9.33301 0 -22.833 0.833008 -40.5 2.5s-29.5 2.5 -35.5 2.5c-10 0 -23.833 -0.833008 -41.5 -2.5s-28.5 -2.5 -32.5 -2.5v611l-153 3l-153 -3v-611c-11.333 0 -20.666 0.333008 -27.999 1c-28.667 2.66699 -44.334 4 -47.001 4
c-11.333 0 -26 -0.833008 -44 -2.5s-28.333 -2.5 -31 -2.5v686h606v-686z" />
    <glyph glyph-name="Idieresis" unicode="&#x41f;" horiz-adv-x="758" 
d="M682 -5c-9.33301 0 -22.833 0.833008 -40.5 2.5s-29.5 2.5 -35.5 2.5c-10 0 -23.833 -0.833008 -41.5 -2.5s-28.5 -2.5 -32.5 -2.5v611l-153 3l-153 -3v-611c-11.333 0 -20.666 0.333008 -27.999 1c-28.667 2.66699 -44.334 4 -47.001 4
c-11.333 0 -26 -0.833008 -44 -2.5s-28.333 -2.5 -31 -2.5v686h606v-686z" />
    <glyph glyph-name="Eth" unicode="&#xd0;" 
d="M536 512c0 -83.333 -29.001 -141.667 -87.001 -175c-47.333 -27.333 -121.666 -41 -222.999 -41v-301c-11.333 0 -20.666 0.333008 -27.999 1c-28.667 2.66699 -44.334 4 -47.001 4c-11.333 0 -26 -0.833008 -44 -2.5s-28.333 -2.5 -31 -2.5v686h246
c142.667 0 214 -56.333 214 -169zM380.999 493.999c0 38.667 -8.83203 70.5 -26.499 95.5s-39.834 37.5 -66.501 37.5h-62v-276c14.667 0 26 0.333008 34 1s18.667 2.66699 32 6c30.667 8.66699 53.667 26 69 52c13.333 22.667 20 50.667 20 84z" />
    <glyph glyph-name="Eth" unicode="&#x420;" 
d="M536 512c0 -83.333 -29.001 -141.667 -87.001 -175c-47.333 -27.333 -121.666 -41 -222.999 -41v-301c-11.333 0 -20.666 0.333008 -27.999 1c-28.667 2.66699 -44.334 4 -47.001 4c-11.333 0 -26 -0.833008 -44 -2.5s-28.333 -2.5 -31 -2.5v686h246
c142.667 0 214 -56.333 214 -169zM380.999 493.999c0 38.667 -8.83203 70.5 -26.499 95.5s-39.834 37.5 -66.501 37.5h-62v-276c14.667 0 26 0.333008 34 1s18.667 2.66699 32 6c30.667 8.66699 53.667 26 69 52c13.333 22.667 20 50.667 20 84z" />
    <glyph glyph-name="Ntilde" unicode="&#xd1;" horiz-adv-x="667" 
d="M635 650l-23 -103.001h-14c-18.667 26.667 -43.167 48.667 -73.5 66s-61.166 26 -92.499 26c-77.333 0 -137 -32.667 -179 -98c-36 -56 -54 -125.333 -54 -208c0 -88 20.667 -158.5 62 -211.5s100 -79.5 176 -79.5c31.333 0 63.166 6.83301 95.499 20.5
s60.166 31.834 83.499 54.501l13 -6l-22 -86c-29.333 -14.667 -60.833 -25.5 -94.5 -32.5s-68.167 -10.5 -103.5 -10.5c-109.333 0 -198.666 30.333 -267.999 91c-72 62.667 -108 144.667 -108 246c0 124.667 39 220.667 117 288c71.333 61.333 165 92 281 92
c34.667 0 70 -4.16699 106 -12.5s68.667 -20.5 98 -36.5z" />
    <glyph glyph-name="Ntilde" unicode="&#x421;" horiz-adv-x="667" 
d="M635 650l-23 -103.001h-14c-18.667 26.667 -43.167 48.667 -73.5 66s-61.166 26 -92.499 26c-77.333 0 -137 -32.667 -179 -98c-36 -56 -54 -125.333 -54 -208c0 -88 20.667 -158.5 62 -211.5s100 -79.5 176 -79.5c31.333 0 63.166 6.83301 95.499 20.5
s60.166 31.834 83.499 54.501l13 -6l-22 -86c-29.333 -14.667 -60.833 -25.5 -94.5 -32.5s-68.167 -10.5 -103.5 -10.5c-109.333 0 -198.666 30.333 -267.999 91c-72 62.667 -108 144.667 -108 246c0 124.667 39 220.667 117 288c71.333 61.333 165 92 281 92
c34.667 0 70 -4.16699 106 -12.5s68.667 -20.5 98 -36.5z" />
    <glyph glyph-name="Ograve" unicode="&#xd2;" 
d="M535 596c-48.667 6 -78.001 9.33301 -88.001 10c-30 2.66699 -60.333 4 -91 4v-615c-11.333 0 -20.666 0.333008 -27.999 1c-28.667 2.66699 -44.334 4 -47.001 4c-11.333 0 -26 -0.833008 -44 -2.5s-28.333 -2.5 -31 -2.5v615c-35.333 0 -66.166 -1.16699 -92.499 -3.5
s-57.5 -5.83301 -93.5 -10.5l3.5 24.5c1 7 1.5 13.167 1.5 18.5c0 9.33301 -0.666992 17.5 -2 24.5s-2.33301 12.833 -3 17.5h515l-3.5 -24.5c-1 -7 -1.5 -12.833 -1.5 -17.5c0 -10 0.666992 -18.5 2 -25.5s2.33301 -12.833 3 -17.5z" />
    <glyph glyph-name="Ograve" unicode="&#x422;" 
d="M535 596c-48.667 6 -78.001 9.33301 -88.001 10c-30 2.66699 -60.333 4 -91 4v-615c-11.333 0 -20.666 0.333008 -27.999 1c-28.667 2.66699 -44.334 4 -47.001 4c-11.333 0 -26 -0.833008 -44 -2.5s-28.333 -2.5 -31 -2.5v615c-35.333 0 -66.166 -1.16699 -92.499 -3.5
s-57.5 -5.83301 -93.5 -10.5l3.5 24.5c1 7 1.5 13.167 1.5 18.5c0 9.33301 -0.666992 17.5 -2 24.5s-2.33301 12.833 -3 17.5h515l-3.5 -24.5c-1 -7 -1.5 -12.833 -1.5 -17.5c0 -10 0.666992 -18.5 2 -25.5s2.33301 -12.833 3 -17.5z" />
    <glyph glyph-name="Oacute" unicode="&#xd3;" horiz-adv-x="648" 
d="M639 681l-155.002 -296c-50.667 -98 -87 -170.667 -109 -218c-28.667 -61.333 -52 -118.666 -70 -171.999c-11.333 3.33301 -24 5 -38 5c-14.667 0 -32 -1.66699 -52 -5l72 139l22 43c-23.333 42.667 -52.666 93.667 -87.999 153l-108 179l-105 172
c41.333 -4 75.333 -6 102 -6c30 0 56 2 78 6c30.667 -62.667 63.834 -126.334 99.501 -191.001s67.5 -118.667 95.5 -162c26.667 54.667 45.667 94.5 57 119.5l49 110.5l53 123l46 -3h12c12.667 0 25.667 1 39 3z" />
    <glyph glyph-name="Oacute" unicode="&#x423;" horiz-adv-x="648" 
d="M639 681l-155.002 -296c-50.667 -98 -87 -170.667 -109 -218c-28.667 -61.333 -52 -118.666 -70 -171.999c-11.333 3.33301 -24 5 -38 5c-14.667 0 -32 -1.66699 -52 -5l72 139l22 43c-23.333 42.667 -52.666 93.667 -87.999 153l-108 179l-105 172
c41.333 -4 75.333 -6 102 -6c30 0 56 2 78 6c30.667 -62.667 63.834 -126.334 99.501 -191.001s67.5 -118.667 95.5 -162c26.667 54.667 45.667 94.5 57 119.5l49 110.5l53 123l46 -3h12c12.667 0 25.667 1 39 3z" />
    <glyph glyph-name="Ocircumflex" unicode="&#xd4;" horiz-adv-x="869" 
d="M845 352c0 -81.333 -29.833 -149.168 -89.5 -203.501s-141.5 -86.166 -245.5 -95.499v-57c-20 2 -33.5 3.16699 -40.5 3.5s-18.5 0.5 -34.5 0.5c-8 -0 -20.333 -0.666992 -37 -2s-29.334 -2 -38.001 -2v55c-102.667 0 -183.667 25.667 -243 77
c-61.333 53.333 -92 127 -92 221c0 80.667 29 144.834 87 192.501s140.667 76.167 248 85.5v54c24 -4 49 -6 75 -6c24.667 0 49.667 2 75 6v-52c116.667 0 204.334 -29.667 263.001 -89c48 -48.667 72 -111.334 72 -188.001zM679 368.998c0 54 -13 98.334 -39 133.001
c-28.667 38.667 -72 62.667 -130 72v-465c56 12 98.667 42.333 128 91c27.333 45.333 41 101.666 41 168.999zM360 105.999l0.000976562 466c-57.333 -10 -99 -32.333 -125 -67c-29.333 -38.667 -44 -99 -44 -181c0 -56.667 13 -104 39 -142
c29.333 -42.667 72.666 -68 129.999 -76z" />
    <glyph glyph-name="Ocircumflex" unicode="&#x424;" horiz-adv-x="869" 
d="M845 352c0 -81.333 -29.833 -149.168 -89.5 -203.501s-141.5 -86.166 -245.5 -95.499v-57c-20 2 -33.5 3.16699 -40.5 3.5s-18.5 0.5 -34.5 0.5c-8 -0 -20.333 -0.666992 -37 -2s-29.334 -2 -38.001 -2v55c-102.667 0 -183.667 25.667 -243 77
c-61.333 53.333 -92 127 -92 221c0 80.667 29 144.834 87 192.501s140.667 76.167 248 85.5v54c24 -4 49 -6 75 -6c24.667 0 49.667 2 75 6v-52c116.667 0 204.334 -29.667 263.001 -89c48 -48.667 72 -111.334 72 -188.001zM679 368.998c0 54 -13 98.334 -39 133.001
c-28.667 38.667 -72 62.667 -130 72v-465c56 12 98.667 42.333 128 91c27.333 45.333 41 101.666 41 168.999zM360 105.999l0.000976562 466c-57.333 -10 -99 -32.333 -125 -67c-29.333 -38.667 -44 -99 -44 -181c0 -56.667 13 -104 39 -142
c29.333 -42.667 72.666 -68 129.999 -76z" />
    <glyph glyph-name="Otilde" unicode="&#xd5;" horiz-adv-x="611" 
d="M587 681l-96.998 -136.002l-116 -165l13 -23l99 -177c36 -65.333 68.333 -127 97 -185c-12.667 0 -23.334 0.333008 -32.001 1c-33.333 2.66699 -51.666 4 -54.999 4c-11.333 0 -27.333 -0.833008 -48 -2.5s-33.334 -2.5 -38.001 -2.5l-65 128l-67 127l-92 -144
c-6 -9.33301 -17.333 -28.666 -34 -57.999c-12 -20.667 -21.333 -37.667 -28 -51l-50 3l-50 -3l111 159l105 157l-205 368c12 0 28.667 -0.833008 50 -2.5s34.333 -2.5 39 -2.5c12.667 0 29.5 0.833008 50.5 2.5s33.833 2.5 38.5 2.5
c17.333 -37.333 42.666 -87.666 75.999 -150.999l48 -91l151 242l49 -3z" />
    <glyph glyph-name="Otilde" unicode="&#x425;" horiz-adv-x="611" 
d="M587 681l-96.998 -136.002l-116 -165l13 -23l99 -177c36 -65.333 68.333 -127 97 -185c-12.667 0 -23.334 0.333008 -32.001 1c-33.333 2.66699 -51.666 4 -54.999 4c-11.333 0 -27.333 -0.833008 -48 -2.5s-33.334 -2.5 -38.001 -2.5l-65 128l-67 127l-92 -144
c-6 -9.33301 -17.333 -28.666 -34 -57.999c-12 -20.667 -21.333 -37.667 -28 -51l-50 3l-50 -3l111 159l105 157l-205 368c12 0 28.667 -0.833008 50 -2.5s34.333 -2.5 39 -2.5c12.667 0 29.5 0.833008 50.5 2.5s33.833 2.5 38.5 2.5
c17.333 -37.333 42.666 -87.666 75.999 -150.999l48 -91l151 242l49 -3z" />
    <glyph glyph-name="Odieresis" unicode="&#xd6;" horiz-adv-x="758" 
d="M738 -45l-15 -0.000976562c-15.333 19.333 -40.333 32.333 -75 39c-20.667 4 -50.334 6 -89.001 6h-483v681c26.667 -3.33301 43.334 -5 50.001 -5h25c24.667 0 49.667 1.66699 75 5v-606c24 0 55.167 -0.5 93.5 -1.5s58.5 -1.5 60.5 -1.5c26.667 0 52.5 0.333008 77.5 1
l74.5 2v606c26.667 -3.33301 51.334 -5 74.001 -5s48 1.66699 76 5v-609h56c-4 -17.333 -6 -35.333 -6 -54c0 -9.33301 0.666992 -19.666 2 -30.999s2.66602 -22 3.99902 -32z" />
    <glyph glyph-name="Odieresis" unicode="&#x426;" horiz-adv-x="758" 
d="M738 -45l-15 -0.000976562c-15.333 19.333 -40.333 32.333 -75 39c-20.667 4 -50.334 6 -89.001 6h-483v681c26.667 -3.33301 43.334 -5 50.001 -5h25c24.667 0 49.667 1.66699 75 5v-606c24 0 55.167 -0.5 93.5 -1.5s58.5 -1.5 60.5 -1.5c26.667 0 52.5 0.333008 77.5 1
l74.5 2v606c26.667 -3.33301 51.334 -5 74.001 -5s48 1.66699 76 5v-609h56c-4 -17.333 -6 -35.333 -6 -54c0 -9.33301 0.666992 -19.666 2 -30.999s2.66602 -22 3.99902 -32z" />
    <glyph glyph-name="multiply" unicode="&#xd7;" horiz-adv-x="703" 
d="M627 -5c-9.33301 0 -22.8369 0.833984 -40.5039 2.50098s-29.5 2.5 -35.5 2.5c-10.667 0 -25 -0.833008 -43 -2.5s-28.333 -2.5 -31 -2.5v340c-68 -45.333 -139.667 -68 -215 -68c-60.667 0 -110.667 15.667 -150 47c-42 33.333 -63 78.666 -63 135.999v231
c8 0 20.333 -1 37 -3s29.334 -3 38.001 -3c8 0 20.333 1 37 3s29.334 3 38.001 3v-206c0 -42 12.333 -73.333 37 -94c22 -18.667 51.667 -28 89 -28c24.667 0 50.667 4.16699 78 12.5s52 19.833 74 34.5v281c8 0 20.333 -1 37 -3s29 -3 37 -3c8.66699 0 21.334 1 38.001 3
s29.334 3 38.001 3v-686z" />
    <glyph glyph-name="multiply" unicode="&#x427;" horiz-adv-x="703" 
d="M627 -5c-9.33301 0 -22.8369 0.833984 -40.5039 2.50098s-29.5 2.5 -35.5 2.5c-10.667 0 -25 -0.833008 -43 -2.5s-28.333 -2.5 -31 -2.5v340c-68 -45.333 -139.667 -68 -215 -68c-60.667 0 -110.667 15.667 -150 47c-42 33.333 -63 78.666 -63 135.999v231
c8 0 20.333 -1 37 -3s29.334 -3 38.001 -3c8 0 20.333 1 37 3s29.334 3 38.001 3v-206c0 -42 12.333 -73.333 37 -94c22 -18.667 51.667 -28 89 -28c24.667 0 50.667 4.16699 78 12.5s52 19.833 74 34.5v281c8 0 20.333 -1 37 -3s29 -3 37 -3c8.66699 0 21.334 1 38.001 3
s29.334 3 38.001 3v-686z" />
    <glyph glyph-name="Oslash" unicode="&#xd8;" horiz-adv-x="925" 
d="M847 0h-770.002v681c8 0 20.333 -0.666992 37 -2s29.334 -2 38.001 -2c8 0 20.333 0.666992 37 2s29.334 2 38.001 2v-607c11.333 -1.33301 23.833 -2 37.5 -2h42.5h33h31c7.33301 1.33301 12.666 2 15.999 2v607c8 0 20.333 -1 37 -3s29.334 -3 38.001 -3
c8 0 20.333 1 37 3s29.334 3 38.001 3v-607c11.333 -1.33301 23.666 -2 36.999 -2h43c11.333 0 25.666 0.333008 42.999 1s29.666 1 36.999 1v607c8 0 20.333 -0.666992 37 -2s29 -2 37 -2c8.66699 0 21.334 0.666992 38.001 2s29.334 2 38.001 2v-681z" />
    <glyph glyph-name="Oslash" unicode="&#x428;" horiz-adv-x="925" 
d="M847 0h-770.002v681c8 0 20.333 -0.666992 37 -2s29.334 -2 38.001 -2c8 0 20.333 0.666992 37 2s29.334 2 38.001 2v-607c11.333 -1.33301 23.833 -2 37.5 -2h42.5h33h31c7.33301 1.33301 12.666 2 15.999 2v607c8 0 20.333 -1 37 -3s29.334 -3 38.001 -3
c8 0 20.333 1 37 3s29.334 3 38.001 3v-607c11.333 -1.33301 23.666 -2 36.999 -2h43c11.333 0 25.666 0.333008 42.999 1s29.666 1 36.999 1v607c8 0 20.333 -0.666992 37 -2s29 -2 37 -2c8.66699 0 21.334 0.666992 38.001 2s29.334 2 38.001 2v-681z" />
    <glyph glyph-name="Ugrave" unicode="&#xd9;" horiz-adv-x="925" 
d="M903 -45l-15.0039 -0.000976562c-15.333 19.333 -40.333 32.333 -75 39c-20.667 4 -50.334 6 -89.001 6h-647v682c8 0 20.333 -0.666992 37 -2s29.334 -2 38.001 -2c8 0 20.333 0.666992 37 2s29.334 2 38.001 2v-607c20 -2 46.667 -3 80 -3h22
c19.333 0 38.666 1 57.999 3v607c8 0 20.333 -1 37 -3s29.334 -3 38.001 -3c8 0 20.333 1 37 3s29.334 3 38.001 3v-607c8.66699 -1.33301 21.167 -2.16602 37.5 -2.49902s30.5 -0.5 42.5 -0.5h12c27.333 0 50 1 68 3v607c8 0 20.333 -0.666992 37 -2s29 -2 37 -2
c8.66699 0 21.334 0.666992 38.001 2s29.334 2 38.001 2v-610h56c-4 -17.333 -6 -35.333 -6 -54c0 -20.667 2 -41.667 6 -63z" />
    <glyph glyph-name="Ugrave" unicode="&#x429;" horiz-adv-x="925" 
d="M903 -45l-15.0039 -0.000976562c-15.333 19.333 -40.333 32.333 -75 39c-20.667 4 -50.334 6 -89.001 6h-647v682c8 0 20.333 -0.666992 37 -2s29.334 -2 38.001 -2c8 0 20.333 0.666992 37 2s29.334 2 38.001 2v-607c20 -2 46.667 -3 80 -3h22
c19.333 0 38.666 1 57.999 3v607c8 0 20.333 -1 37 -3s29.334 -3 38.001 -3c8 0 20.333 1 37 3s29.334 3 38.001 3v-607c8.66699 -1.33301 21.167 -2.16602 37.5 -2.49902s30.5 -0.5 42.5 -0.5h12c27.333 0 50 1 68 3v607c8 0 20.333 -0.666992 37 -2s29 -2 37 -2
c8.66699 0 21.334 0.666992 38.001 2s29.334 2 38.001 2v-610h56c-4 -17.333 -6 -35.333 -6 -54c0 -20.667 2 -41.667 6 -63z" />
    <glyph glyph-name="Uacute" unicode="&#xda;" horiz-adv-x="593" 
d="M572 217c0 -81.333 -27 -139.668 -81 -175.001c-42.667 -28 -102 -42 -178 -42h-201v610c-18 0 -34.333 -1.16699 -49 -3.5s-29 -5.83301 -43 -10.5c1.33301 3.33301 2.5 9 3.5 17s1.5 16.667 1.5 26c0 6.66699 -0.333008 13.834 -1 21.501s-2 14.5 -4 20.5h242v-294h96
c142.667 0 214 -56.667 214 -170zM417 198.998c0 39.333 -8.83203 70.8311 -26.499 94.498s-39.834 35.5 -66.501 35.5h-62v-273c10.667 0.666992 22 1.33398 34 2.00098s22.667 2.33398 32 5.00098c30.667 8.66699 53.667 25.667 69 51c13.333 22.667 20 51 20 85z" />
    <glyph glyph-name="Uacute" unicode="&#x42a;" horiz-adv-x="593" 
d="M572 217c0 -81.333 -27 -139.668 -81 -175.001c-42.667 -28 -102 -42 -178 -42h-201v610c-18 0 -34.333 -1.16699 -49 -3.5s-29 -5.83301 -43 -10.5c1.33301 3.33301 2.5 9 3.5 17s1.5 16.667 1.5 26c0 6.66699 -0.333008 13.834 -1 21.501s-2 14.5 -4 20.5h242v-294h96
c142.667 0 214 -56.667 214 -170zM417 198.998c0 39.333 -8.83203 70.8311 -26.499 94.498s-39.834 35.5 -66.501 35.5h-62v-273c10.667 0.666992 22 1.33398 34 2.00098s22.667 2.33398 32 5.00098c30.667 8.66699 53.667 25.667 69 51c13.333 22.667 20 51 20 85z" />
    <glyph glyph-name="Ucircumflex" unicode="&#xdb;" horiz-adv-x="851" 
d="M775 -4c-8 0 -20.333 0.666992 -37 2s-29.334 2 -38.001 2c-8 -0 -20.333 -0.666992 -37 -2s-29.334 -2 -38.001 -2v685c8 0 20.333 -1 37 -3s29.334 -3 38.001 -3c8 0 20.333 1 37 3s29.334 3 38.001 3v-685zM536 217c0 -81.333 -27.002 -139.667 -81.002 -175
c-42.667 -28 -102 -42 -178 -42h-201v685c8 0 20.333 -0.666992 37 -2s29.334 -2 38.001 -2c8 0 20.333 0.666992 37 2s29.334 2 38.001 2v-298h96c142.667 0 214 -56.667 214 -170zM380.998 198.999c0 39.333 -8.83203 70.8311 -26.499 94.498s-39.834 35.5 -66.501 35.5
h-62v-273c10.667 0.666992 22 1.33398 34 2.00098s22.667 2.33398 32 5.00098c30.667 8.66699 53.667 25.667 69 51c13.333 22.667 20 51 20 85z" />
    <glyph glyph-name="Ucircumflex" unicode="&#x42b;" horiz-adv-x="851" 
d="M775 -4c-8 0 -20.333 0.666992 -37 2s-29.334 2 -38.001 2c-8 -0 -20.333 -0.666992 -37 -2s-29.334 -2 -38.001 -2v685c8 0 20.333 -1 37 -3s29.334 -3 38.001 -3c8 0 20.333 1 37 3s29.334 3 38.001 3v-685zM536 217c0 -81.333 -27.002 -139.667 -81.002 -175
c-42.667 -28 -102 -42 -178 -42h-201v685c8 0 20.333 -0.666992 37 -2s29.334 -2 38.001 -2c8 0 20.333 0.666992 37 2s29.334 2 38.001 2v-298h96c142.667 0 214 -56.667 214 -170zM380.998 198.999c0 39.333 -8.83203 70.8311 -26.499 94.498s-39.834 35.5 -66.501 35.5
h-62v-273c10.667 0.666992 22 1.33398 34 2.00098s22.667 2.33398 32 5.00098c30.667 8.66699 53.667 25.667 69 51c13.333 22.667 20 51 20 85z" />
    <glyph glyph-name="Udieresis" unicode="&#xdc;" 
d="M536 217c0 -81.333 -27.002 -139.667 -81.002 -175c-42.667 -28 -102 -42 -178 -42h-201v685c8 0 20.333 -0.666992 37 -2s29.334 -2 38.001 -2c8 0 20.333 0.666992 37 2s29.334 2 38.001 2v-298h96c142.667 0 214 -56.667 214 -170zM380.998 198.999
c0 39.333 -8.83203 70.8311 -26.499 94.498s-39.834 35.5 -66.501 35.5h-62v-273c10.667 0.666992 22 1.33398 34 2.00098s22.667 2.33398 32 5.00098c30.667 8.66699 53.667 25.667 69 51c13.333 22.667 20 51 20 85z" />
    <glyph glyph-name="Udieresis" unicode="&#x42c;" 
d="M536 217c0 -81.333 -27.002 -139.667 -81.002 -175c-42.667 -28 -102 -42 -178 -42h-201v685c8 0 20.333 -0.666992 37 -2s29.334 -2 38.001 -2c8 0 20.333 0.666992 37 2s29.334 2 38.001 2v-298h96c142.667 0 214 -56.667 214 -170zM380.998 198.999
c0 39.333 -8.83203 70.8311 -26.499 94.498s-39.834 35.5 -66.501 35.5h-62v-273c10.667 0.666992 22 1.33398 34 2.00098s22.667 2.33398 32 5.00098c30.667 8.66699 53.667 25.667 69 51c13.333 22.667 20 51 20 85z" />
    <glyph glyph-name="Yacute" unicode="&#xdd;" horiz-adv-x="667" 
d="M634 362c0 -122.667 -37.999 -217.999 -113.999 -285.999c-70 -62.667 -161 -94 -273 -94c-40 0 -74.5 3.66699 -103.5 11s-60.5 20 -94.5 38l-11 80l13 6c23.333 -22 51.5 -40 84.5 -54s65.5 -21 97.5 -21c75.333 0 134.333 29.333 177 88c38 52.667 57 117.667 57 195
h-227c-36.667 0 -67.667 -2.33301 -93 -7c3.33301 15.333 5 29.333 5 42c0 13.333 -1.66699 26.666 -5 39.999c15.333 -2 30 -3.66699 44 -5s30.333 -2 49 -2h226c-8 81.333 -35 144 -81 188c-40.667 38.667 -89.334 58 -146.001 58c-36.667 0 -70 -8 -100 -24
s-53.333 -38.667 -70 -68h-14c0 14 -0.5 26.5 -1.5 37.5s-4.5 34.5 -10.5 70.5c28 14 60.5 24.833 97.5 32.5s72.5 11.5 106.5 11.5c116 0 209.5 -30.333 280.5 -91s106.5 -142.667 106.5 -246z" />
    <glyph glyph-name="Yacute" unicode="&#x42d;" horiz-adv-x="667" 
d="M634 362c0 -122.667 -37.999 -217.999 -113.999 -285.999c-70 -62.667 -161 -94 -273 -94c-40 0 -74.5 3.66699 -103.5 11s-60.5 20 -94.5 38l-11 80l13 6c23.333 -22 51.5 -40 84.5 -54s65.5 -21 97.5 -21c75.333 0 134.333 29.333 177 88c38 52.667 57 117.667 57 195
h-227c-36.667 0 -67.667 -2.33301 -93 -7c3.33301 15.333 5 29.333 5 42c0 13.333 -1.66699 26.666 -5 39.999c15.333 -2 30 -3.66699 44 -5s30.333 -2 49 -2h226c-8 81.333 -35 144 -81 188c-40.667 38.667 -89.334 58 -146.001 58c-36.667 0 -70 -8 -100 -24
s-53.333 -38.667 -70 -68h-14c0 14 -0.5 26.5 -1.5 37.5s-4.5 34.5 -10.5 70.5c28 14 60.5 24.833 97.5 32.5s72.5 11.5 106.5 11.5c116 0 209.5 -30.333 280.5 -91s106.5 -142.667 106.5 -246z" />
    <glyph glyph-name="Thorn" unicode="&#xde;" horiz-adv-x="1054" 
d="M1019 343c0 -101.333 -33 -186 -99 -254c-69.333 -71.333 -161 -107 -275 -107c-105.333 0 -189.333 29.667 -252 89c-64.667 61.333 -97 146 -97 254h-70v-329c-8 0 -20.333 0.666992 -37 2s-29.334 2 -38.001 2c-8 -0 -20.333 -0.666992 -37 -2s-29.334 -2 -38.001 -2
v685c8 0 20.333 -1 37 -3s29.334 -3 38.001 -3c8 0 20.333 1 37 3s29.334 3 38.001 3v-276h73c14 86.667 52.667 156.667 116 210c66.667 56 151 84 253 84c122.667 0 215 -40 277 -120c49.333 -64 74 -142.667 74 -236zM854 362c0 73.333 -15 135.667 -45 187
c-35.333 60 -84.333 90 -147 90c-64.667 0 -114.667 -27.167 -150 -81.5s-53 -136.833 -53 -247.5c0 -73.333 14.667 -134.333 44 -183c34 -56.667 83 -85 147 -85c66 0 117.333 32.333 154 97c33.333 58.667 50 133 50 223z" />
    <glyph glyph-name="Thorn" unicode="&#x42e;" horiz-adv-x="1054" 
d="M1019 343c0 -101.333 -33 -186 -99 -254c-69.333 -71.333 -161 -107 -275 -107c-105.333 0 -189.333 29.667 -252 89c-64.667 61.333 -97 146 -97 254h-70v-329c-8 0 -20.333 0.666992 -37 2s-29.334 2 -38.001 2c-8 -0 -20.333 -0.666992 -37 -2s-29.334 -2 -38.001 -2
v685c8 0 20.333 -1 37 -3s29.334 -3 38.001 -3c8 0 20.333 1 37 3s29.334 3 38.001 3v-276h73c14 86.667 52.667 156.667 116 210c66.667 56 151 84 253 84c122.667 0 215 -40 277 -120c49.333 -64 74 -142.667 74 -236zM854 362c0 73.333 -15 135.667 -45 187
c-35.333 60 -84.333 90 -147 90c-64.667 0 -114.667 -27.167 -150 -81.5s-53 -136.833 -53 -247.5c0 -73.333 14.667 -134.333 44 -183c34 -56.667 83 -85 147 -85c66 0 117.333 32.333 154 97c33.333 58.667 50 133 50 223z" />
    <glyph glyph-name="germandbls" unicode="&#xdf;" horiz-adv-x="611" 
d="M536 -4c-8 0 -20.332 0.666992 -36.999 2s-29.334 2 -38.001 2c-8 -0 -20.333 -0.666992 -37 -2s-29.334 -2 -38.001 -2v319h-17l-75 -145c-27.333 -52 -60.333 -110 -99 -174c-10 0 -25 0.666992 -45 2s-35 2 -45 2c-10.667 -0 -28.667 -0.666992 -54 -2
s-38.333 -2 -39 -2c0.666992 0 14.667 20.333 42 61l90 136c39.333 60.667 68 107.334 86 140.001c-48 6 -86 23.333 -114 52s-42 67.334 -42 116.001c0 33.333 7.33301 62.166 22 86.499s36.334 45.166 65.001 62.499c18.667 11.333 43 19.333 73 24s59.667 7 89 7h213
v-685zM386.001 364v262h-36c-43.333 0 -74.333 -10.667 -93 -32s-28 -55 -28 -101c0 -88.667 38.667 -133 116 -133h24c8 2 13.667 3.33301 17 4z" />
    <glyph glyph-name="germandbls" unicode="&#x42f;" horiz-adv-x="611" 
d="M536 -4c-8 0 -20.332 0.666992 -36.999 2s-29.334 2 -38.001 2c-8 -0 -20.333 -0.666992 -37 -2s-29.334 -2 -38.001 -2v319h-17l-75 -145c-27.333 -52 -60.333 -110 -99 -174c-10 0 -25 0.666992 -45 2s-35 2 -45 2c-10.667 -0 -28.667 -0.666992 -54 -2
s-38.333 -2 -39 -2c0.666992 0 14.667 20.333 42 61l90 136c39.333 60.667 68 107.334 86 140.001c-48 6 -86 23.333 -114 52s-42 67.334 -42 116.001c0 33.333 7.33301 62.166 22 86.499s36.334 45.166 65.001 62.499c18.667 11.333 43 19.333 73 24s59.667 7 89 7h213
v-685zM386.001 364v262h-36c-43.333 0 -74.333 -10.667 -93 -32s-28 -55 -28 -101c0 -88.667 38.667 -133 116 -133h24c8 2 13.667 3.33301 17 4z" />
    <glyph glyph-name="agrave" unicode="&#xe0;" horiz-adv-x="500" 
d="M492 13c-11.333 -5.33301 -26.3301 -11.1699 -44.9971 -17.5029s-34 -9.5 -46 -9.5c-23.333 0 -43.5 6.33301 -60.5 19s-29.5 30.667 -37.5 54c-13.333 -23.333 -31.333 -41.333 -54 -54s-47.334 -19 -74.001 -19c-42.667 0 -77 11.333 -103 34s-39 55.334 -39 98.001
c0 44.667 14.667 78.334 44 101.001c24 18.667 70 36.334 138 53.001c16 4 28.333 7.33301 37 10c14 4.66699 26 10 36 16c5.33301 5.33301 9.16602 11 11.499 17s3.5 13.333 3.5 22c0 23.333 -9.83301 43.833 -29.5 61.5s-41.5 26.5 -65.5 26.5
c-28.667 0 -56.334 -8 -83.001 -24c-22 -13.333 -35 -26 -39 -38h-7l-13 59c22 21.333 50 37.833 84 49.5s67.667 17.5 101 17.5c49.333 0 91.333 -9.66699 126 -29c42 -23.333 63 -58 63 -104v-274c0 -17.333 3.66699 -29.333 11 -36s21 -10 41 -10v-23zM303.003 158.996
l-0.000976562 97l-48 -16c-22 -8 -39.167 -16.667 -51.5 -26s-20.666 -20.833 -24.999 -34.5s-6.5 -30.167 -6.5 -49.5c0 -21.333 4.16699 -39.833 12.5 -55.5s22.166 -23.5 41.499 -23.5c28.667 0 49.334 11.667 62.001 35c10 18 15 42.333 15 73z" />
    <glyph glyph-name="agrave" unicode="&#x430;" horiz-adv-x="500" 
d="M492 13c-11.333 -5.33301 -26.3301 -11.1699 -44.9971 -17.5029s-34 -9.5 -46 -9.5c-23.333 0 -43.5 6.33301 -60.5 19s-29.5 30.667 -37.5 54c-13.333 -23.333 -31.333 -41.333 -54 -54s-47.334 -19 -74.001 -19c-42.667 0 -77 11.333 -103 34s-39 55.334 -39 98.001
c0 44.667 14.667 78.334 44 101.001c24 18.667 70 36.334 138 53.001c16 4 28.333 7.33301 37 10c14 4.66699 26 10 36 16c5.33301 5.33301 9.16602 11 11.499 17s3.5 13.333 3.5 22c0 23.333 -9.83301 43.833 -29.5 61.5s-41.5 26.5 -65.5 26.5
c-28.667 0 -56.334 -8 -83.001 -24c-22 -13.333 -35 -26 -39 -38h-7l-13 59c22 21.333 50 37.833 84 49.5s67.667 17.5 101 17.5c49.333 0 91.333 -9.66699 126 -29c42 -23.333 63 -58 63 -104v-274c0 -17.333 3.66699 -29.333 11 -36s21 -10 41 -10v-23zM303.003 158.996
l-0.000976562 97l-48 -16c-22 -8 -39.167 -16.667 -51.5 -26s-20.666 -20.833 -24.999 -34.5s-6.5 -30.167 -6.5 -49.5c0 -21.333 4.16699 -39.833 12.5 -55.5s22.166 -23.5 41.499 -23.5c28.667 0 49.334 11.667 62.001 35c10 18 15 42.333 15 73z" />
    <glyph glyph-name="aacute" unicode="&#xe1;" horiz-adv-x="574" 
d="M545 249c0 -76.667 -23.333 -139.667 -70 -189s-108.667 -74 -186 -74c-74.667 0 -135.334 21.833 -182.001 65.5s-70 102.167 -70 175.5c0 128.667 14.667 226.334 44 293.001c27.333 61.333 74 109.666 140 144.999c44.667 24 127.334 54 248.001 90l17 -114
c-10.667 -9.33301 -52.334 -23.833 -125.001 -43.5s-126.667 -40.5 -162 -62.5c-58 -36 -91 -83.667 -99 -143c20 28 48.5 51.167 85.5 69.5s74.833 27.5 113.5 27.5c70.667 0 129.334 -22 176.001 -66s70 -102 70 -174zM397 266c0 51.333 -8.66699 94.001 -26 128.001
s-42.333 51 -75 51c-38 0 -66.667 -21 -86 -63c-16.667 -36.667 -25 -87.334 -25 -152.001c0 -46.667 6.33301 -87.667 19 -123c18 -50.667 46.333 -76 85 -76c36 0 63.667 25.333 83 76c16.667 43.333 25 96.333 25 159z" />
    <glyph glyph-name="aacute" unicode="&#x431;" horiz-adv-x="574" 
d="M545 249c0 -76.667 -23.333 -139.667 -70 -189s-108.667 -74 -186 -74c-74.667 0 -135.334 21.833 -182.001 65.5s-70 102.167 -70 175.5c0 128.667 14.667 226.334 44 293.001c27.333 61.333 74 109.666 140 144.999c44.667 24 127.334 54 248.001 90l17 -114
c-10.667 -9.33301 -52.334 -23.833 -125.001 -43.5s-126.667 -40.5 -162 -62.5c-58 -36 -91 -83.667 -99 -143c20 28 48.5 51.167 85.5 69.5s74.833 27.5 113.5 27.5c70.667 0 129.334 -22 176.001 -66s70 -102 70 -174zM397 266c0 51.333 -8.66699 94.001 -26 128.001
s-42.333 51 -75 51c-38 0 -66.667 -21 -86 -63c-16.667 -36.667 -25 -87.334 -25 -152.001c0 -46.667 6.33301 -87.667 19 -123c18 -50.667 46.333 -76 85 -76c36 0 63.667 25.333 83 76c16.667 43.333 25 96.333 25 159z" />
    <glyph glyph-name="acircumflex" unicode="&#xe2;" horiz-adv-x="500" 
d="M466 138c0 -45.333 -21.333 -80.334 -64 -105.001c-38 -22 -84.333 -33 -139 -33h-207v480h221c48.667 0 87 -7.33301 115 -22c34.667 -18.667 52 -47 52 -85c0 -31.333 -11.5 -56.833 -34.5 -76.5s-52.167 -31.5 -87.5 -35.5v-7c34 0 64.667 -8.33301 92 -25
c34.667 -21.333 52 -51.666 52 -90.999zM307 358.999c0 22 -6.66699 38.999 -20 50.999s-31.333 18 -54 18l-39 -2v-148h22c14.667 0 26.167 0.833008 34.5 2.5s17.5 6.33398 27.5 14.001s17.333 17 22 28s7 23.167 7 36.5zM325 136.998c0 33.333 -10.833 56.667 -32.5 70
s-54.5 20 -98.5 20v-175h39c23.333 0 44.5 7.83301 63.5 23.5s28.5 36.167 28.5 61.5z" />
    <glyph glyph-name="acircumflex" unicode="&#x432;" horiz-adv-x="500" 
d="M466 138c0 -45.333 -21.333 -80.334 -64 -105.001c-38 -22 -84.333 -33 -139 -33h-207v480h221c48.667 0 87 -7.33301 115 -22c34.667 -18.667 52 -47 52 -85c0 -31.333 -11.5 -56.833 -34.5 -76.5s-52.167 -31.5 -87.5 -35.5v-7c34 0 64.667 -8.33301 92 -25
c34.667 -21.333 52 -51.666 52 -90.999zM307 358.999c0 22 -6.66699 38.999 -20 50.999s-31.333 18 -54 18l-39 -2v-148h22c14.667 0 26.167 0.833008 34.5 2.5s17.5 6.33398 27.5 14.001s17.333 17 22 28s7 23.167 7 36.5zM325 136.998c0 33.333 -10.833 56.667 -32.5 70
s-54.5 20 -98.5 20v-175h39c23.333 0 44.5 7.83301 63.5 23.5s28.5 36.167 28.5 61.5z" />
    <glyph glyph-name="atilde" unicode="&#xe3;" horiz-adv-x="370" 
d="M365 412c-26 4 -52.333 6.66699 -79 8s-57.334 2 -92.001 2v-427c-11.333 1.33301 -19.666 2 -24.999 2c-23.333 2 -38 3 -44 3c-14.667 -0 -28 -0.666992 -40 -2s-21.667 -2.33301 -29 -3v485h309c-3.33301 -10 -5 -21 -5 -33c0 -13.333 1.66699 -25 5 -35z" />
    <glyph glyph-name="atilde" unicode="&#x433;" horiz-adv-x="370" 
d="M365 412c-26 4 -52.333 6.66699 -79 8s-57.334 2 -92.001 2v-427c-11.333 1.33301 -19.666 2 -24.999 2c-23.333 2 -38 3 -44 3c-14.667 -0 -28 -0.666992 -40 -2s-21.667 -2.33301 -29 -3v485h309c-3.33301 -10 -5 -21 -5 -33c0 -13.333 1.66699 -25 5 -35z" />
    <glyph glyph-name="adieresis" unicode="&#xe4;" horiz-adv-x="500" 
d="M495 -39l-10 -0.000976562c-16 18 -35.833 29 -59.5 33s-64.167 6 -121.5 6h-100c-55.333 0 -87.333 -0.333008 -96 -1c-42 -3.33301 -73.333 -16 -94 -38h-9c3.33301 15.333 5 33.333 5 54c0 15.333 -1.66699 29.666 -5 42.999h37c66 140.667 126.333 282 181 424l34 -3
l34 3c50.667 -138 107 -279.333 169 -424h35c-3.33301 -13.333 -5 -27.666 -5 -42.999c0 -8 0.333008 -16.667 1 -26s2 -18.666 4 -27.999zM311 61.999c-14 46 -27.999 88.001 -41.999 126.001l-51 129c-19.333 -44 -37 -86.333 -53 -127
c-18 -44.667 -34 -87.334 -48 -128.001c12 0 33.667 -0.666992 65 -2s49.333 -2 54 -2c10 0 21.167 0.166992 33.5 0.5s26.166 1.5 41.499 3.5z" />
    <glyph glyph-name="adieresis" unicode="&#x434;" horiz-adv-x="500" 
d="M495 -39l-10 -0.000976562c-16 18 -35.833 29 -59.5 33s-64.167 6 -121.5 6h-100c-55.333 0 -87.333 -0.333008 -96 -1c-42 -3.33301 -73.333 -16 -94 -38h-9c3.33301 15.333 5 33.333 5 54c0 15.333 -1.66699 29.666 -5 42.999h37c66 140.667 126.333 282 181 424l34 -3
l34 3c50.667 -138 107 -279.333 169 -424h35c-3.33301 -13.333 -5 -27.666 -5 -42.999c0 -8 0.333008 -16.667 1 -26s2 -18.666 4 -27.999zM311 61.999c-14 46 -27.999 88.001 -41.999 126.001l-51 129c-19.333 -44 -37 -86.333 -53 -127
c-18 -44.667 -34 -87.334 -48 -128.001c12 0 33.667 -0.666992 65 -2s49.333 -2 54 -2c10 0 21.167 0.166992 33.5 0.5s26.166 1.5 41.499 3.5z" />
    <glyph glyph-name="aring" unicode="&#xe5;" horiz-adv-x="500" 
d="M477 237h-295.997c0 -56 11.333 -100 34 -132c25.333 -36 63.666 -54 114.999 -54c20.667 0 41 4 61 12s38.667 19 56 33l11 -9l-21 -56c-42.667 -30 -90.334 -45 -143.001 -45c-82.667 0 -146.834 23.167 -192.501 69.5s-68.5 110.833 -68.5 193.5c0 72 21 130 63 174
s99 66 171 66c74 0 128.667 -24 164 -72c30.667 -42 46 -102 46 -180zM339.003 285c0 38.667 -4.33301 72 -13 100c-12.667 40 -32 60 -58 60c-32 0 -55.667 -20 -71 -60c-10.667 -28 -16 -61.333 -16 -100h158z" />
    <glyph glyph-name="aring" unicode="&#x435;" horiz-adv-x="500" 
d="M477 237h-295.997c0 -56 11.333 -100 34 -132c25.333 -36 63.666 -54 114.999 -54c20.667 0 41 4 61 12s38.667 19 56 33l11 -9l-21 -56c-42.667 -30 -90.334 -45 -143.001 -45c-82.667 0 -146.834 23.167 -192.501 69.5s-68.5 110.833 -68.5 193.5c0 72 21 130 63 174
s99 66 171 66c74 0 128.667 -24 164 -72c30.667 -42 46 -102 46 -180zM339.003 285c0 38.667 -4.33301 72 -13 100c-12.667 40 -32 60 -58 60c-32 0 -55.667 -20 -71 -60c-10.667 -28 -16 -61.333 -16 -100h158z" />
    <glyph glyph-name="ae" unicode="&#xe6;" horiz-adv-x="741" 
d="M736 -5c-10.667 0 -25.166 0.833008 -43.499 2.5s-29.166 2.5 -32.499 2.5c-11.333 0 -26.166 -0.833008 -44.499 -2.5s-28.833 -2.5 -31.5 -2.5l-55 99c-24.667 42 -45.334 75.667 -62.001 101l-12 18.5c-4 6.33301 -9.33301 10.833 -16 13.5v-232
c-22 3.33301 -44.667 5 -68 5c-20.667 -0 -43.667 -1.66699 -69 -5v232c-6.66699 -2.66699 -13 -8.66699 -19 -18c-0.666992 -1.33301 -3.66699 -6 -9 -14c-20 -30 -45.333 -72 -76 -126l-41 -74c-10 0 -24.167 0.833008 -42.5 2.5s-29.5 2.5 -33.5 2.5
c-10 0 -24.167 -0.833008 -42.5 -2.5s-29.5 -2.5 -33.5 -2.5v8c31.333 56.667 64 112 98 166l81 127l-168 177v7c14.667 -3.33301 28.667 -5 42 -5c15.333 0 29.666 1.66699 42.999 5l97.5 -113c33 -38 64.5 -72 94.5 -102l9 1v214c11.333 -1.33301 24.166 -2.5 38.499 -3.5
s24.5 -1.5 30.5 -1.5c8 0 16.333 0.333008 25 1s23 2 43 4v-214c0 -0.666992 3 -1 9 -1c28.667 28.667 60.667 63.334 96 104.001l96 111c14.667 -3.33301 29 -5 43 -5c13.333 0 27.333 1.66699 42 5v-7c-18 -22.667 -38.333 -45.334 -61 -68.001
c-66 -66 -101.667 -102.333 -107 -109l81 -127c34 -54 66.667 -109.333 98 -166v-8z" />
    <glyph glyph-name="ae" unicode="&#x436;" horiz-adv-x="741" 
d="M736 -5c-10.667 0 -25.166 0.833008 -43.499 2.5s-29.166 2.5 -32.499 2.5c-11.333 0 -26.166 -0.833008 -44.499 -2.5s-28.833 -2.5 -31.5 -2.5l-55 99c-24.667 42 -45.334 75.667 -62.001 101l-12 18.5c-4 6.33301 -9.33301 10.833 -16 13.5v-232
c-22 3.33301 -44.667 5 -68 5c-20.667 -0 -43.667 -1.66699 -69 -5v232c-6.66699 -2.66699 -13 -8.66699 -19 -18c-0.666992 -1.33301 -3.66699 -6 -9 -14c-20 -30 -45.333 -72 -76 -126l-41 -74c-10 0 -24.167 0.833008 -42.5 2.5s-29.5 2.5 -33.5 2.5
c-10 0 -24.167 -0.833008 -42.5 -2.5s-29.5 -2.5 -33.5 -2.5v8c31.333 56.667 64 112 98 166l81 127l-168 177v7c14.667 -3.33301 28.667 -5 42 -5c15.333 0 29.666 1.66699 42.999 5l97.5 -113c33 -38 64.5 -72 94.5 -102l9 1v214c11.333 -1.33301 24.166 -2.5 38.499 -3.5
s24.5 -1.5 30.5 -1.5c8 0 16.333 0.333008 25 1s23 2 43 4v-214c0 -0.666992 3 -1 9 -1c28.667 28.667 60.667 63.334 96 104.001l96 111c14.667 -3.33301 29 -5 43 -5c13.333 0 27.333 1.66699 42 5v-7c-18 -22.667 -38.333 -45.334 -61 -68.001
c-66 -66 -101.667 -102.333 -107 -109l81 -127c34 -54 66.667 -109.333 98 -166v-8z" />
    <glyph glyph-name="ccedilla" unicode="&#xe7;" horiz-adv-x="426" 
d="M391 129c0 -46.667 -20.666 -82.9961 -61.999 -108.996c-36 -22.667 -80.667 -34 -134 -34c-32.667 0 -62.667 4.16699 -90 12.5s-49 20.166 -65 35.499l-12 50l17 14c13.333 -16.667 30.5 -29.334 51.5 -38.001s42.5 -13 64.5 -13c31.333 0 55.5 8.5 72.5 25.5
s25.5 37.167 25.5 60.5c0 24 -8 45 -24 63s-37.667 27 -65 27l-44 -2v56l28 -1c27.333 0 48.666 9 63.999 27s23 39.333 23 64c0 25.333 -6.16699 44.666 -18.5 57.999s-27.833 20 -46.5 20c-21.333 0 -41.666 -8.33301 -60.999 -25s-32 -39.334 -38 -68.001h-26l-17 104
c18.667 10 42.667 18 72 24s60.666 9 93.999 9c50.667 0 91.667 -8 123 -24c36.667 -18.667 55 -47.667 55 -87c0 -34 -11.5 -61.333 -34.5 -82s-52.167 -33 -87.5 -37v-7c34 0 63.333 -8.66699 88 -26c31.333 -22 47 -54.333 47 -97z" />
    <glyph glyph-name="ccedilla" unicode="&#x437;" horiz-adv-x="426" 
d="M391 129c0 -46.667 -20.666 -82.9961 -61.999 -108.996c-36 -22.667 -80.667 -34 -134 -34c-32.667 0 -62.667 4.16699 -90 12.5s-49 20.166 -65 35.499l-12 50l17 14c13.333 -16.667 30.5 -29.334 51.5 -38.001s42.5 -13 64.5 -13c31.333 0 55.5 8.5 72.5 25.5
s25.5 37.167 25.5 60.5c0 24 -8 45 -24 63s-37.667 27 -65 27l-44 -2v56l28 -1c27.333 0 48.666 9 63.999 27s23 39.333 23 64c0 25.333 -6.16699 44.666 -18.5 57.999s-27.833 20 -46.5 20c-21.333 0 -41.666 -8.33301 -60.999 -25s-32 -39.334 -38 -68.001h-26l-17 104
c18.667 10 42.667 18 72 24s60.666 9 93.999 9c50.667 0 91.667 -8 123 -24c36.667 -18.667 55 -47.667 55 -87c0 -34 -11.5 -61.333 -34.5 -82s-52.167 -33 -87.5 -37v-7c34 0 63.333 -8.66699 88 -26c31.333 -22 47 -54.333 47 -97z" />
    <glyph glyph-name="egrave" unicode="&#xe8;" 
d="M500 -5c-9.33301 0 -22.3311 0.833008 -38.998 2.5s-26.667 2.5 -30 2.5c-14.667 -0 -28 -0.666992 -40 -2s-21.667 -2.33301 -29 -3v302c-40 -44 -82.667 -95 -128 -153c-38.667 -49.333 -75.667 -99 -111 -149c-5.33301 0.666992 -11.333 1 -18 1h-15
c-14.667 0 -26 -0.333008 -34 -1v485c11.333 -1.33301 24.166 -2.5 38.499 -3.5s24.5 -1.5 30.5 -1.5c13.333 0 27.666 0.666992 42.999 2c12 2 20.667 3 26 3v-297l118 143l120 156c9.33301 -0.666992 17.5 -1.16699 24.5 -1.5s13.167 -0.5 18.5 -0.5
c6 0 14.333 0.666992 25 2v-487z" />
    <glyph glyph-name="egrave" unicode="&#x438;" 
d="M500 -5c-9.33301 0 -22.3311 0.833008 -38.998 2.5s-26.667 2.5 -30 2.5c-14.667 -0 -28 -0.666992 -40 -2s-21.667 -2.33301 -29 -3v302c-40 -44 -82.667 -95 -128 -153c-38.667 -49.333 -75.667 -99 -111 -149c-5.33301 0.666992 -11.333 1 -18 1h-15
c-14.667 0 -26 -0.333008 -34 -1v485c11.333 -1.33301 24.166 -2.5 38.499 -3.5s24.5 -1.5 30.5 -1.5c13.333 0 27.666 0.666992 42.999 2c12 2 20.667 3 26 3v-297l118 143l120 156c9.33301 -0.666992 17.5 -1.16699 24.5 -1.5s13.167 -0.5 18.5 -0.5
c6 0 14.333 0.666992 25 2v-487z" />
    <glyph glyph-name="eacute" unicode="&#xe9;" 
d="M438 630c-13.333 -31.333 -33.667 -56.665 -61 -75.998s-60.333 -29 -99 -29c-38 0 -70.667 9.66699 -98 29s-48 44.666 -62 75.999l32 17c28 -42 71 -63 129 -63c28 0 52.833 5.16699 74.5 15.5s39.167 26.166 52.5 47.499zM499.999 -4.99902
c-9.33301 0 -22.3311 0.833008 -38.998 2.5s-26.667 2.5 -30 2.5c-14.667 0 -28 -0.666992 -40 -2s-21.667 -2.33301 -29 -3v302c-40 -44 -82.667 -95 -128 -153c-38.667 -49.333 -75.667 -99 -111 -149c-5.33301 0.666992 -11.333 1 -18 1h-15
c-14.667 0 -26 -0.333008 -34 -1v485c11.333 -1.33301 24.166 -2.5 38.499 -3.5s24.5 -1.5 30.5 -1.5c13.333 0 27.666 0.666992 42.999 2c12 2 20.667 3 26 3v-297l118 143l120 156c9.33301 -0.666992 17.5 -1.16699 24.5 -1.5s13.167 -0.5 18.5 -0.5
c6 0 14.333 0.666992 25 2v-487z" />
    <glyph glyph-name="eacute" unicode="&#x439;" 
d="M438 630c-13.333 -31.333 -33.667 -56.665 -61 -75.998s-60.333 -29 -99 -29c-38 0 -70.667 9.66699 -98 29s-48 44.666 -62 75.999l32 17c28 -42 71 -63 129 -63c28 0 52.833 5.16699 74.5 15.5s39.167 26.166 52.5 47.499zM499.999 -4.99902
c-9.33301 0 -22.3311 0.833008 -38.998 2.5s-26.667 2.5 -30 2.5c-14.667 0 -28 -0.666992 -40 -2s-21.667 -2.33301 -29 -3v302c-40 -44 -82.667 -95 -128 -153c-38.667 -49.333 -75.667 -99 -111 -149c-5.33301 0.666992 -11.333 1 -18 1h-15
c-14.667 0 -26 -0.333008 -34 -1v485c11.333 -1.33301 24.166 -2.5 38.499 -3.5s24.5 -1.5 30.5 -1.5c13.333 0 27.666 0.666992 42.999 2c12 2 20.667 3 26 3v-297l118 143l120 156c9.33301 -0.666992 17.5 -1.16699 24.5 -1.5s13.167 -0.5 18.5 -0.5
c6 0 14.333 0.666992 25 2v-487z" />
    <glyph glyph-name="ecircumflex" unicode="&#xea;" horiz-adv-x="500" 
d="M491 -5c-10.667 0 -25.167 0.832031 -43.5 2.49902s-29.166 2.5 -32.499 2.5c-11.333 0 -26.166 -0.833008 -44.499 -2.5s-28.833 -2.5 -31.5 -2.5l-55 99c-24.667 42 -45.334 75.667 -62.001 101c-4.66699 7.33301 -9 13.333 -13 18s-9 9.33398 -15 14.001v-232
c-10 0 -18.333 0.333008 -25 1c-26.667 2.66699 -41.334 4 -44.001 4c-10 0 -23.333 -0.833008 -40 -2.5s-26.334 -2.5 -29.001 -2.5v485c22 -2.66699 36.833 -4.16699 44.5 -4.5s15.834 -0.5 24.501 -0.5c20.667 0 43.667 1.66699 69 5v-214c2 -2 5 -2.33301 9 -1
c28.667 28.667 60.667 63.334 96 104.001l96 111c4.66699 0 11.667 -0.666992 21 -2s16.666 -2 21.999 -2c4.66699 0 11.667 0.666992 21 2s16.333 2 21 2v-6c-17.333 -22 -37.666 -44.667 -60.999 -68c-64 -64.667 -99.667 -101.334 -107 -110.001l81 -127l98 -167v-7z" />
    <glyph glyph-name="ecircumflex" unicode="&#x43a;" horiz-adv-x="500" 
d="M491 -5c-10.667 0 -25.167 0.832031 -43.5 2.49902s-29.166 2.5 -32.499 2.5c-11.333 0 -26.166 -0.833008 -44.499 -2.5s-28.833 -2.5 -31.5 -2.5l-55 99c-24.667 42 -45.334 75.667 -62.001 101c-4.66699 7.33301 -9 13.333 -13 18s-9 9.33398 -15 14.001v-232
c-10 0 -18.333 0.333008 -25 1c-26.667 2.66699 -41.334 4 -44.001 4c-10 0 -23.333 -0.833008 -40 -2.5s-26.334 -2.5 -29.001 -2.5v485c22 -2.66699 36.833 -4.16699 44.5 -4.5s15.834 -0.5 24.501 -0.5c20.667 0 43.667 1.66699 69 5v-214c2 -2 5 -2.33301 9 -1
c28.667 28.667 60.667 63.334 96 104.001l96 111c4.66699 0 11.667 -0.666992 21 -2s16.666 -2 21.999 -2c4.66699 0 11.667 0.666992 21 2s16.333 2 21 2v-6c-17.333 -22 -37.666 -44.667 -60.999 -68c-64 -64.667 -99.667 -101.334 -107 -110.001l81 -127l98 -167v-7z" />
    <glyph glyph-name="edieresis" unicode="&#xeb;" horiz-adv-x="481" 
d="M476 -5c-11.333 0 -20.668 0.333008 -28.001 1c-29.333 2.66699 -45.666 4 -48.999 4c-11.333 0 -26.166 -0.833008 -44.499 -2.5s-28.833 -2.5 -31.5 -2.5c-13.333 46 -31 99.667 -53 161l-61 161l-122 -320l-41 3l-39 -3l108.5 245c40.333 94 73.166 174 98.499 240
l34 -3l34 3l95.5 -246z" />
    <glyph glyph-name="edieresis" unicode="&#x43b;" horiz-adv-x="481" 
d="M476 -5c-11.333 0 -20.668 0.333008 -28.001 1c-29.333 2.66699 -45.666 4 -48.999 4c-11.333 0 -26.166 -0.833008 -44.499 -2.5s-28.833 -2.5 -31.5 -2.5c-13.333 46 -31 99.667 -53 161l-61 161l-122 -320l-41 3l-39 -3l108.5 245c40.333 94 73.166 174 98.499 240
l34 -3l34 3l95.5 -246z" />
    <glyph glyph-name="igrave" unicode="&#xec;" horiz-adv-x="647" 
d="M629 -5c-10.667 0 -19.667 0.332031 -27 0.999023c-30 2.66699 -46 4 -48 4c-15.333 0 -29.166 -0.666992 -41.499 -2s-22.166 -2.33301 -29.499 -3c0 43.333 -3.33301 91.333 -10 144l-19 153c-28.667 -48 -55.334 -96.333 -80.001 -145l-72 -148
c-4.66699 0.666992 -11.334 1 -20.001 1c-4.66699 0 -8.33398 -0.333008 -11.001 -1c-26 56 -49 103.333 -69 142c-22 42 -49.333 91 -82 147c-8.66699 -57.333 -15.5 -110.166 -20.5 -158.499s-7.5 -93.166 -7.5 -134.499l-38 3l-37 -3c12 64.667 25.333 140.667 40 228
l40 257c4.66699 -1.33301 9.33398 -2.33301 14.001 -3s10.667 -1 18 -1c10.667 0 22 1.33301 34 4l164 -312l83.5 148.5c25 46.333 52.833 100.833 83.5 163.5c10 -2.66699 20.667 -4 32 -4c6 0 12.5 0.5 19.5 1.5s12.167 1.83301 15.5 2.5
c21.333 -184.667 44 -346.334 68 -485.001z" />
    <glyph glyph-name="igrave" unicode="&#x43c;" horiz-adv-x="647" 
d="M629 -5c-10.667 0 -19.667 0.332031 -27 0.999023c-30 2.66699 -46 4 -48 4c-15.333 0 -29.166 -0.666992 -41.499 -2s-22.166 -2.33301 -29.499 -3c0 43.333 -3.33301 91.333 -10 144l-19 153c-28.667 -48 -55.334 -96.333 -80.001 -145l-72 -148
c-4.66699 0.666992 -11.334 1 -20.001 1c-4.66699 0 -8.33398 -0.333008 -11.001 -1c-26 56 -49 103.333 -69 142c-22 42 -49.333 91 -82 147c-8.66699 -57.333 -15.5 -110.166 -20.5 -158.499s-7.5 -93.166 -7.5 -134.499l-38 3l-37 -3c12 64.667 25.333 140.667 40 228
l40 257c4.66699 -1.33301 9.33398 -2.33301 14.001 -3s10.667 -1 18 -1c10.667 0 22 1.33301 34 4l164 -312l83.5 148.5c25 46.333 52.833 100.833 83.5 163.5c10 -2.66699 20.667 -4 32 -4c6 0 12.5 0.5 19.5 1.5s12.167 1.83301 15.5 2.5
c21.333 -184.667 44 -346.334 68 -485.001z" />
    <glyph glyph-name="iacute" unicode="&#xed;" 
d="M500 -5c-9.33301 0 -22.3301 0.833008 -38.9971 2.5s-26.667 2.5 -30 2.5c-14.667 -0 -28 -0.666992 -40 -2s-21.667 -2.33301 -29 -3v224h-168v-224c-11.333 1.33301 -19.666 2 -24.999 2c-23.333 2 -38 3 -44 3c-14.667 -0 -28 -0.666992 -40 -2
s-21.667 -2.33301 -29 -3v485c11.333 -1.33301 24.166 -2.5 38.499 -3.5s24.5 -1.5 30.5 -1.5c13.333 0 27.666 0.666992 42.999 2c12 2 20.667 3 26 3v-200h168v200c11.333 -1.33301 24.166 -2.5 38.499 -3.5s24.5 -1.5 30.5 -1.5c13.333 0 27.666 0.666992 42.999 2
c12 2 20.667 3 26 3v-485z" />
    <glyph glyph-name="iacute" unicode="&#x43d;" 
d="M500 -5c-9.33301 0 -22.3301 0.833008 -38.9971 2.5s-26.667 2.5 -30 2.5c-14.667 -0 -28 -0.666992 -40 -2s-21.667 -2.33301 -29 -3v224h-168v-224c-11.333 1.33301 -19.666 2 -24.999 2c-23.333 2 -38 3 -44 3c-14.667 -0 -28 -0.666992 -40 -2
s-21.667 -2.33301 -29 -3v485c11.333 -1.33301 24.166 -2.5 38.499 -3.5s24.5 -1.5 30.5 -1.5c13.333 0 27.666 0.666992 42.999 2c12 2 20.667 3 26 3v-200h168v200c11.333 -1.33301 24.166 -2.5 38.499 -3.5s24.5 -1.5 30.5 -1.5c13.333 0 27.666 0.666992 42.999 2
c12 2 20.667 3 26 3v-485z" />
    <glyph glyph-name="icircumflex" unicode="&#xee;" horiz-adv-x="574" 
d="M541 249c0 -76.667 -23.332 -139.667 -69.999 -189s-108.667 -74 -186 -74c-74.667 0 -135.334 21.833 -182.001 65.5s-70 102.167 -70 175.5c0 78.667 23 142 69 190s107 72 183 72c76.667 0 138.5 -21.5 185.5 -64.5s70.5 -101.5 70.5 -175.5zM393.001 266
c0 51.333 -8.66699 94.001 -26 128.001s-42.333 51 -75 51c-38 0 -66.667 -21 -86 -63c-16.667 -36.667 -25 -87.334 -25 -152.001c0 -46.667 6.33301 -87.667 19 -123c18 -50.667 46.333 -76 85 -76c36 0 63.667 25.333 83 76c16.667 43.333 25 96.333 25 159z" />
    <glyph glyph-name="icircumflex" unicode="&#x43e;" horiz-adv-x="574" 
d="M541 249c0 -76.667 -23.332 -139.667 -69.999 -189s-108.667 -74 -186 -74c-74.667 0 -135.334 21.833 -182.001 65.5s-70 102.167 -70 175.5c0 78.667 23 142 69 190s107 72 183 72c76.667 0 138.5 -21.5 185.5 -64.5s70.5 -101.5 70.5 -175.5zM393.001 266
c0 51.333 -8.66699 94.001 -26 128.001s-42.333 51 -75 51c-38 0 -66.667 -21 -86 -63c-16.667 -36.667 -25 -87.334 -25 -152.001c0 -46.667 6.33301 -87.667 19 -123c18 -50.667 46.333 -76 85 -76c36 0 63.667 25.333 83 76c16.667 43.333 25 96.333 25 159z" />
    <glyph glyph-name="idieresis" unicode="&#xef;" 
d="M500 -5c-9.33301 0 -22.333 0.833008 -39 2.5s-26.667 2.5 -30 2.5c-14.667 -0 -28 -0.666992 -40 -2s-21.667 -2.33301 -29 -3v424l-84 3l-84 -3v-424c-9.33301 0 -22.333 0.833008 -39 2.5s-26.667 2.5 -30 2.5c-14.667 -0 -28 -0.666992 -40 -2
s-21.667 -2.33301 -29 -3v485h444v-485z" />
    <glyph glyph-name="idieresis" unicode="&#x43f;" 
d="M500 -5c-9.33301 0 -22.333 0.833008 -39 2.5s-26.667 2.5 -30 2.5c-14.667 -0 -28 -0.666992 -40 -2s-21.667 -2.33301 -29 -3v424l-84 3l-84 -3v-424c-9.33301 0 -22.333 0.833008 -39 2.5s-26.667 2.5 -30 2.5c-14.667 -0 -28 -0.666992 -40 -2
s-21.667 -2.33301 -29 -3v485h444v-485z" />
    <glyph glyph-name="eth" unicode="&#xf0;" 
d="M523 246c0 -84.667 -20.3379 -150.333 -61.0049 -197c-36.667 -42 -83 -63 -139 -63c-31.333 0 -57.166 6.5 -77.499 19.5s-37.5 30.5 -51.5 52.5v-317c-11.333 1.33301 -19.666 2 -24.999 2c-23.333 2 -38 3 -44 3c-14.667 0 -28 -0.666992 -40 -2
s-21.667 -2.33301 -29 -3v739c10.667 -1.33301 22.834 -2.5 36.501 -3.5s23.834 -1.5 30.501 -1.5c14.667 0 27.5 0.666992 38.5 2s20.167 2.33301 27.5 3v-88c12 30.667 29.5 54.5 52.5 71.5s51.167 25.5 84.5 25.5c66.667 0 117.334 -24.667 152.001 -74
c30 -42.667 45 -99 45 -169zM374.995 235.001c0 62 -6.00195 107.667 -18.002 137c-14 34.667 -37 52 -69 52c-38 0 -65 -24.333 -81 -73c-10.667 -32.667 -16 -73 -16 -121c0 -46 4.66699 -83.333 14 -112c14.667 -44.667 40.334 -67 77.001 -67
c30.667 3.33301 53.834 21.333 69.501 54s23.5 76 23.5 130z" />
    <glyph glyph-name="eth" unicode="&#x440;" 
d="M523 246c0 -84.667 -20.3379 -150.333 -61.0049 -197c-36.667 -42 -83 -63 -139 -63c-31.333 0 -57.166 6.5 -77.499 19.5s-37.5 30.5 -51.5 52.5v-317c-11.333 1.33301 -19.666 2 -24.999 2c-23.333 2 -38 3 -44 3c-14.667 0 -28 -0.666992 -40 -2
s-21.667 -2.33301 -29 -3v739c10.667 -1.33301 22.834 -2.5 36.501 -3.5s23.834 -1.5 30.501 -1.5c14.667 0 27.5 0.666992 38.5 2s20.167 2.33301 27.5 3v-88c12 30.667 29.5 54.5 52.5 71.5s51.167 25.5 84.5 25.5c66.667 0 117.334 -24.667 152.001 -74
c30 -42.667 45 -99 45 -169zM374.995 235.001c0 62 -6.00195 107.667 -18.002 137c-14 34.667 -37 52 -69 52c-38 0 -65 -24.333 -81 -73c-10.667 -32.667 -16 -73 -16 -121c0 -46 4.66699 -83.333 14 -112c14.667 -44.667 40.334 -67 77.001 -67
c30.667 3.33301 53.834 21.333 69.501 54s23.5 76 23.5 130z" />
    <glyph glyph-name="ntilde" unicode="&#xf1;" horiz-adv-x="481" 
d="M466 445l-38 -103.999h-23c-4 30 -14.333 54.333 -31 73c-18.667 20.667 -42.667 31 -72 31c-42 0 -74 -23.333 -96 -70c-17.333 -36.667 -26 -79.334 -26 -128.001c0 -62.667 12 -111 36 -145s62.333 -51 115 -51c20 0 39.5 4.16699 58.5 12.5s34.5 19.833 46.5 34.5
l17 -14l-25 -59c-12 -12 -32.167 -21.5 -60.5 -28.5s-52.833 -10.5 -73.5 -10.5c-79.333 0 -142.333 20.667 -189 62c-48.667 43.333 -73 103.333 -73 180c0 80 23.833 143.5 71.5 190.5s111.5 70.5 191.5 70.5c30.667 0 61 -3.5 91 -10.5s56.667 -18.167 80 -33.5z" />
    <glyph glyph-name="ntilde" unicode="&#x441;" horiz-adv-x="481" 
d="M466 445l-38 -103.999h-23c-4 30 -14.333 54.333 -31 73c-18.667 20.667 -42.667 31 -72 31c-42 0 -74 -23.333 -96 -70c-17.333 -36.667 -26 -79.334 -26 -128.001c0 -62.667 12 -111 36 -145s62.333 -51 115 -51c20 0 39.5 4.16699 58.5 12.5s34.5 19.833 46.5 34.5
l17 -14l-25 -59c-12 -12 -32.167 -21.5 -60.5 -28.5s-52.833 -10.5 -73.5 -10.5c-79.333 0 -142.333 20.667 -189 62c-48.667 43.333 -73 103.333 -73 180c0 80 23.833 143.5 71.5 190.5s111.5 70.5 191.5 70.5c30.667 0 61 -3.5 91 -10.5s56.667 -18.167 80 -33.5z" />
    <glyph glyph-name="ograve" unicode="&#xf2;" horiz-adv-x="425" 
d="M420 412c-24 2.66699 -46.999 5 -68.999 7s-45.333 3 -70 3v-427c-9.33301 0 -22.333 0.833008 -39 2.5s-26.667 2.5 -30 2.5c-10 0 -23.333 -0.833008 -40 -2.5s-26.334 -2.5 -29.001 -2.5v427c-31.333 0 -52.833 -0.5 -64.5 -1.5s-36.167 -3.83301 -73.5 -8.5
c3.33301 10 5 21.667 5 35c0 10 -1.66699 21 -5 33h415c-3.33301 -12 -5 -23 -5 -33c0 -12 1.66699 -23.667 5 -35z" />
    <glyph glyph-name="ograve" unicode="&#x442;" horiz-adv-x="425" 
d="M420 412c-24 2.66699 -46.999 5 -68.999 7s-45.333 3 -70 3v-427c-9.33301 0 -22.333 0.833008 -39 2.5s-26.667 2.5 -30 2.5c-10 0 -23.333 -0.833008 -40 -2.5s-26.334 -2.5 -29.001 -2.5v427c-31.333 0 -52.833 -0.5 -64.5 -1.5s-36.167 -3.83301 -73.5 -8.5
c3.33301 10 5 21.667 5 35c0 10 -1.66699 21 -5 33h415c-3.33301 -12 -5 -23 -5 -33c0 -12 1.66699 -23.667 5 -35z" />
    <glyph glyph-name="oacute" unicode="&#xf3;" horiz-adv-x="481" 
d="M478 480l-100.997 -229l-71 -165.5l-71 -171.5c-20.667 -51.333 -42.667 -109 -66 -173l-42 3l-42 -3l127 258l-202 481c10.667 0 25.167 -0.833008 43.5 -2.5s29.166 -2.5 32.499 -2.5c10.667 0 25.167 0.833008 43.5 2.5s29.166 2.5 32.499 2.5l58 -157l62 -154l38 102
l39 103c13.333 34.667 25.666 70 36.999 106l41 -3z" />
    <glyph glyph-name="oacute" unicode="&#x443;" horiz-adv-x="481" 
d="M478 480l-100.997 -229l-71 -165.5l-71 -171.5c-20.667 -51.333 -42.667 -109 -66 -173l-42 3l-42 -3l127 258l-202 481c10.667 0 25.167 -0.833008 43.5 -2.5s29.166 -2.5 32.499 -2.5c10.667 0 25.167 0.833008 43.5 2.5s29.166 2.5 32.499 2.5l58 -157l62 -154l38 102
l39 103c13.333 34.667 25.666 70 36.999 106l41 -3z" />
    <glyph glyph-name="ocircumflex" unicode="&#xf4;" horiz-adv-x="834" 
d="M799 246c0 -84.667 -19.335 -150.335 -58.002 -197.002c-34.667 -42 -78.667 -63 -132 -63c-30 0 -54.833 6.5 -74.5 19.5s-35.834 30.5 -48.501 52.5v-317c-11.333 1.33301 -19.666 2 -24.999 2c-23.333 2 -37.666 3 -42.999 3c-15.333 0 -29 -0.666992 -41 -2
s-21.667 -2.33301 -29 -3v334c-12 -28.667 -28.5 -50.667 -49.5 -66s-46.5 -23 -76.5 -23c-64 0 -112.333 24.667 -145 74c-28 42 -42 98.333 -42 169c0 84.667 19.333 150.334 58 197.001c34.667 42 78.667 63 132 63c30 0 55.667 -7 77 -21
c16.667 -11.333 32 -28.333 46 -51v338c10.667 -1.33301 23.5 -2.5 38.5 -3.5s25.5 -1.5 31.5 -1.5c12.667 0 26.667 0.666992 42 2c12 2 20.667 3 26 3v-353c12 26.667 28.833 47.834 50.5 63.501s46.834 23.5 75.501 23.5c64 0 112.333 -24.667 145 -74
c28 -42 42 -98.333 42 -169zM652.998 234.999c0 60.667 -5.99902 107.332 -17.999 139.999s-32.667 49 -62 49c-34.667 0 -59.334 -24.333 -74.001 -73c-10 -32.667 -15 -73 -15 -121c0 -47.333 4 -84.666 12 -111.999c13.333 -44.667 37 -67 71 -67
c28.667 3.33301 50.167 21.333 64.5 54s21.5 76 21.5 130zM349.999 244.997c0 47.333 -4.00098 84.666 -12.001 111.999c-13.333 44.667 -37 67 -71 67c-28.667 -3.33301 -50.167 -21.333 -64.5 -54s-21.5 -76 -21.5 -130c0 -61.333 6.16699 -108.166 18.5 -140.499
s32.833 -48.5 61.5 -48.5c34.667 0 59.334 24.333 74.001 73c10 32.667 15 73 15 121z" />
    <glyph glyph-name="ocircumflex" unicode="&#x444;" horiz-adv-x="834" 
d="M799 246c0 -84.667 -19.335 -150.335 -58.002 -197.002c-34.667 -42 -78.667 -63 -132 -63c-30 0 -54.833 6.5 -74.5 19.5s-35.834 30.5 -48.501 52.5v-317c-11.333 1.33301 -19.666 2 -24.999 2c-23.333 2 -37.666 3 -42.999 3c-15.333 0 -29 -0.666992 -41 -2
s-21.667 -2.33301 -29 -3v334c-12 -28.667 -28.5 -50.667 -49.5 -66s-46.5 -23 -76.5 -23c-64 0 -112.333 24.667 -145 74c-28 42 -42 98.333 -42 169c0 84.667 19.333 150.334 58 197.001c34.667 42 78.667 63 132 63c30 0 55.667 -7 77 -21
c16.667 -11.333 32 -28.333 46 -51v338c10.667 -1.33301 23.5 -2.5 38.5 -3.5s25.5 -1.5 31.5 -1.5c12.667 0 26.667 0.666992 42 2c12 2 20.667 3 26 3v-353c12 26.667 28.833 47.834 50.5 63.501s46.834 23.5 75.501 23.5c64 0 112.333 -24.667 145 -74
c28 -42 42 -98.333 42 -169zM652.998 234.999c0 60.667 -5.99902 107.332 -17.999 139.999s-32.667 49 -62 49c-34.667 0 -59.334 -24.333 -74.001 -73c-10 -32.667 -15 -73 -15 -121c0 -47.333 4 -84.666 12 -111.999c13.333 -44.667 37 -67 71 -67
c28.667 3.33301 50.167 21.333 64.5 54s21.5 76 21.5 130zM349.999 244.997c0 47.333 -4.00098 84.666 -12.001 111.999c-13.333 44.667 -37 67 -71 67c-28.667 -3.33301 -50.167 -21.333 -64.5 -54s-21.5 -76 -21.5 -130c0 -61.333 6.16699 -108.166 18.5 -140.499
s32.833 -48.5 61.5 -48.5c34.667 0 59.334 24.333 74.001 73c10 32.667 15 73 15 121z" />
    <glyph glyph-name="otilde" unicode="&#xf5;" horiz-adv-x="500" 
d="M475 -5c-11.333 0 -26.667 0.832031 -46 2.49902s-31.333 2.5 -36 2.5c-11.333 0 -26.666 -0.833008 -45.999 -2.5s-31 -2.5 -35 -2.5l-96 174l-55 -84l-56 -88l-40 3l-40 -3l159 221l-94 161l-61 101c11.333 0 26.666 -0.833008 45.999 -2.5s31 -2.5 35 -2.5
c12 0 27.667 0.833008 47 2.5s31 2.5 35 2.5l43.5 -80.5l42.5 -76.5l53 77c15.333 22.667 32.333 49.334 51 80.001l45 -3l45 3l-85 -105l-78 -101l55 -94z" />
    <glyph glyph-name="otilde" unicode="&#x445;" horiz-adv-x="500" 
d="M475 -5c-11.333 0 -26.667 0.832031 -46 2.49902s-31.333 2.5 -36 2.5c-11.333 0 -26.666 -0.833008 -45.999 -2.5s-31 -2.5 -35 -2.5l-96 174l-55 -84l-56 -88l-40 3l-40 -3l159 221l-94 161l-61 101c11.333 0 26.666 -0.833008 45.999 -2.5s31 -2.5 35 -2.5
c12 0 27.667 0.833008 47 2.5s31 2.5 35 2.5l43.5 -80.5l42.5 -76.5l53 77c15.333 22.667 32.333 49.334 51 80.001l45 -3l45 3l-85 -105l-78 -101l55 -94z" />
    <glyph glyph-name="odieresis" unicode="&#xf6;" 
d="M551 -39l-10.0029 -0.000976562c-16 18 -36.167 29 -60.5 33s-64.5 6 -120.5 6h-304v480c10.667 -2 24.334 -3.33301 41.001 -4s26 -1 28 -1c12 0 24.333 0.333008 37 1s23.334 2 32.001 4v-419c8.66699 -1.33301 21.834 -2.16602 39.501 -2.49902s32.5 -0.5 44.5 -0.5
h24c22.667 0 42.667 1 60 3v419c22 -3.33301 45 -5 69 -5c22.667 0 45.667 1.66699 69 5v-422h51c-3.33301 -10.667 -5 -25 -5 -43c0 -14.667 1.66699 -32.667 5 -54z" />
    <glyph glyph-name="odieresis" unicode="&#x446;" 
d="M551 -39l-10.0029 -0.000976562c-16 18 -36.167 29 -60.5 33s-64.5 6 -120.5 6h-304v480c10.667 -2 24.334 -3.33301 41.001 -4s26 -1 28 -1c12 0 24.333 0.333008 37 1s23.334 2 32.001 4v-419c8.66699 -1.33301 21.834 -2.16602 39.501 -2.49902s32.5 -0.5 44.5 -0.5
h24c22.667 0 42.667 1 60 3v419c22 -3.33301 45 -5 69 -5c22.667 0 45.667 1.66699 69 5v-422h51c-3.33301 -10.667 -5 -25 -5 -43c0 -14.667 1.66699 -32.667 5 -54z" />
    <glyph glyph-name="divide" unicode="&#xf7;" horiz-adv-x="519" 
d="M463 -5c-9.33301 0 -22.3311 0.834961 -38.998 2.50195s-26.667 2.5 -30 2.5c-14.667 0 -28 -0.666992 -40 -2s-21.667 -2.33301 -29 -3v230c-22 -14.667 -45.667 -25.834 -71 -33.501s-49.666 -11.5 -72.999 -11.5c-40.667 0 -74 10.333 -100 31
c-28 22.667 -42 53 -42 91v178c11.333 -1.33301 24.166 -2.5 38.499 -3.5s24.5 -1.5 30.5 -1.5c14.667 0 28 0.666992 40 2s21.667 2.33301 29 3v-163c0 -22.667 6.16699 -39.334 18.5 -50.001s28.5 -16 48.5 -16c12.667 0 26.5 2.33301 41.5 7s28.167 10.667 39.5 18v204
c11.333 -1.33301 24.166 -2.5 38.499 -3.5s24.5 -1.5 30.5 -1.5c13.333 0 27.666 0.666992 42.999 2c12 2 20.667 3 26 3v-485z" />
    <glyph glyph-name="divide" unicode="&#x447;" horiz-adv-x="519" 
d="M463 -5c-9.33301 0 -22.3311 0.834961 -38.998 2.50195s-26.667 2.5 -30 2.5c-14.667 0 -28 -0.666992 -40 -2s-21.667 -2.33301 -29 -3v230c-22 -14.667 -45.667 -25.834 -71 -33.501s-49.666 -11.5 -72.999 -11.5c-40.667 0 -74 10.333 -100 31
c-28 22.667 -42 53 -42 91v178c11.333 -1.33301 24.166 -2.5 38.499 -3.5s24.5 -1.5 30.5 -1.5c14.667 0 28 0.666992 40 2s21.667 2.33301 29 3v-163c0 -22.667 6.16699 -39.334 18.5 -50.001s28.5 -16 48.5 -16c12.667 0 26.5 2.33301 41.5 7s28.167 10.667 39.5 18v204
c11.333 -1.33301 24.166 -2.5 38.499 -3.5s24.5 -1.5 30.5 -1.5c13.333 0 27.666 0.666992 42.999 2c12 2 20.667 3 26 3v-485z" />
    <glyph glyph-name="oslash" unicode="&#xf8;" horiz-adv-x="722" 
d="M666 0h-610.001v480c22 -2.66699 36.833 -4.16699 44.5 -4.5s15.834 -0.5 24.501 -0.5c24 0 47 1.66699 69 5v-420l49 -2l49 2v420c24.667 -3.33301 47.667 -5 69 -5c24 0 47 1.66699 69 5v-420l49 -2l49 2v420c23.333 -3.33301 46.333 -5 69 -5
c21.333 0 44.333 1.66699 69 5v-480z" />
    <glyph glyph-name="oslash" unicode="&#x448;" horiz-adv-x="722" 
d="M666 0h-610.001v480c22 -2.66699 36.833 -4.16699 44.5 -4.5s15.834 -0.5 24.501 -0.5c24 0 47 1.66699 69 5v-420l49 -2l49 2v420c24.667 -3.33301 47.667 -5 69 -5c24 0 47 1.66699 69 5v-420l49 -2l49 2v420c23.333 -3.33301 46.333 -5 69 -5
c21.333 0 44.333 1.66699 69 5v-480z" />
    <glyph glyph-name="ugrave" unicode="&#xf9;" horiz-adv-x="722" 
d="M717 -39l-10.002 0.000976562c-16 18 -35.833 29 -59.5 33s-64.167 6 -121.5 6h-470v480c22 -2.66699 36.833 -4.16699 44.5 -4.5s15.834 -0.5 24.501 -0.5c21.333 0 44.333 1.66699 69 5v-420l49 -2l49 2v420c22 -2.66699 36.833 -4.16699 44.5 -4.5
s15.834 -0.5 24.501 -0.5c21.333 0 44.333 1.66699 69 5v-420l49 -2l49 2v420c22 -3.33301 45 -5 69 -5c21.333 0 44.333 1.66699 69 5v-422h51c-2.66699 -12 -4.16699 -21.167 -4.5 -27.5s-0.5 -11.5 -0.5 -15.5c0 -8 0.333008 -16.833 1 -26.5s2 -18.834 4 -27.501z" />
    <glyph glyph-name="ugrave" unicode="&#x449;" horiz-adv-x="722" 
d="M717 -39l-10.002 0.000976562c-16 18 -35.833 29 -59.5 33s-64.167 6 -121.5 6h-470v480c22 -2.66699 36.833 -4.16699 44.5 -4.5s15.834 -0.5 24.501 -0.5c21.333 0 44.333 1.66699 69 5v-420l49 -2l49 2v420c22 -2.66699 36.833 -4.16699 44.5 -4.5
s15.834 -0.5 24.501 -0.5c21.333 0 44.333 1.66699 69 5v-420l49 -2l49 2v420c22 -3.33301 45 -5 69 -5c21.333 0 44.333 1.66699 69 5v-422h51c-2.66699 -12 -4.16699 -21.167 -4.5 -27.5s-0.5 -11.5 -0.5 -15.5c0 -8 0.333008 -16.833 1 -26.5s2 -18.834 4 -27.501z" />
    <glyph glyph-name="uacute" unicode="&#xfa;" horiz-adv-x="518" 
d="M487 156c0 -58.667 -21.999 -100.666 -65.999 -125.999c-34.667 -20 -83.334 -30 -146.001 -30h-183v422c-14 0 -29.333 -1 -46 -3c-2 0 -15.667 -2 -41 -6c3.33301 11.333 5 22.666 5 33.999c0 10 -1.66699 21 -5 33h225v-202h82c116.667 0 175 -40.667 175 -122z
M344.001 144.001c0 25.333 -6.16797 45.5 -18.501 60.5s-28.166 22.5 -47.499 22.5h-48v-175c8.66699 0 16.5 0.166992 23.5 0.5s16.167 1.5 27.5 3.5c22 6 38 16.667 48 32s15 34 15 56z" />
    <glyph glyph-name="uacute" unicode="&#x44a;" horiz-adv-x="518" 
d="M487 156c0 -58.667 -21.999 -100.666 -65.999 -125.999c-34.667 -20 -83.334 -30 -146.001 -30h-183v422c-14 0 -29.333 -1 -46 -3c-2 0 -15.667 -2 -41 -6c3.33301 11.333 5 22.666 5 33.999c0 10 -1.66699 21 -5 33h225v-202h82c116.667 0 175 -40.667 175 -122z
M344.001 144.001c0 25.333 -6.16797 45.5 -18.501 60.5s-28.166 22.5 -47.499 22.5h-48v-175c8.66699 0 16.5 0.166992 23.5 0.5s16.167 1.5 27.5 3.5c22 6 38 16.667 48 32s15 34 15 56z" />
    <glyph glyph-name="ucircumflex" unicode="&#xfb;" horiz-adv-x="722" 
d="M666 -5c-11.333 1.33301 -19.666 2 -24.999 2c-23.333 2 -38 3 -44 3c-14.667 -0 -28 -0.666992 -40 -2s-21.667 -2.33301 -29 -3v485c11.333 -1.33301 24.166 -2.5 38.499 -3.5s24.5 -1.5 30.5 -1.5c14.667 0 28 0.666992 40 2s21.667 2.33301 29 3v-485zM451 156
c0 -58.667 -21.999 -100.667 -65.999 -126c-34.667 -20 -83.334 -30 -146.001 -30h-183v480c26.667 -3.33301 50 -5 70 -5s42.667 1.66699 68 5v-202h82c116.667 0 175 -40.667 175 -122zM308.001 144c0 25.333 -6.16797 45.5 -18.501 60.5s-28.166 22.5 -47.499 22.5h-48
v-175c8.66699 0 16.5 0.166992 23.5 0.5s16.167 1.5 27.5 3.5c22 6 38 16.667 48 32s15 34 15 56z" />
    <glyph glyph-name="ucircumflex" unicode="&#x44b;" horiz-adv-x="722" 
d="M666 -5c-11.333 1.33301 -19.666 2 -24.999 2c-23.333 2 -38 3 -44 3c-14.667 -0 -28 -0.666992 -40 -2s-21.667 -2.33301 -29 -3v485c11.333 -1.33301 24.166 -2.5 38.499 -3.5s24.5 -1.5 30.5 -1.5c14.667 0 28 0.666992 40 2s21.667 2.33301 29 3v-485zM451 156
c0 -58.667 -21.999 -100.667 -65.999 -126c-34.667 -20 -83.334 -30 -146.001 -30h-183v480c26.667 -3.33301 50 -5 70 -5s42.667 1.66699 68 5v-202h82c116.667 0 175 -40.667 175 -122zM308.001 144c0 25.333 -6.16797 45.5 -18.501 60.5s-28.166 22.5 -47.499 22.5h-48
v-175c8.66699 0 16.5 0.166992 23.5 0.5s16.167 1.5 27.5 3.5c22 6 38 16.667 48 32s15 34 15 56z" />
    <glyph glyph-name="udieresis" unicode="&#xfc;" horiz-adv-x="481" 
d="M451 156c0 -58.667 -21.999 -100.667 -65.999 -126c-34.667 -20 -83.334 -30 -146.001 -30h-183v480c26.667 -3.33301 50 -5 70 -5s42.667 1.66699 68 5v-202h82c116.667 0 175 -40.667 175 -122zM308.001 144c0 25.333 -6.16797 45.5 -18.501 60.5
s-28.166 22.5 -47.499 22.5h-48v-175c8.66699 0 16.5 0.166992 23.5 0.5s16.167 1.5 27.5 3.5c22 6 38 16.667 48 32s15 34 15 56z" />
    <glyph glyph-name="udieresis" unicode="&#x44c;" horiz-adv-x="481" 
d="M451 156c0 -58.667 -21.999 -100.667 -65.999 -126c-34.667 -20 -83.334 -30 -146.001 -30h-183v480c26.667 -3.33301 50 -5 70 -5s42.667 1.66699 68 5v-202h82c116.667 0 175 -40.667 175 -122zM308.001 144c0 25.333 -6.16797 45.5 -18.501 60.5
s-28.166 22.5 -47.499 22.5h-48v-175c8.66699 0 16.5 0.166992 23.5 0.5s16.167 1.5 27.5 3.5c22 6 38 16.667 48 32s15 34 15 56z" />
    <glyph glyph-name="yacute" unicode="&#xfd;" horiz-adv-x="481" 
d="M449 247c0 -80 -23.8359 -143.5 -71.5029 -190.5s-111.5 -70.5 -191.5 -70.5c-27.333 0 -54.166 4 -80.499 12s-48.166 20 -65.499 36l-12 50l17 14c11.333 -14 26.833 -25.333 46.5 -34s39.167 -13 58.5 -13c49.333 0 86.833 15.167 112.5 45.5
s38.5 72.166 38.5 125.499h-113c-14 0 -24.333 -0.333008 -31 -1s-17 -2 -31 -4c2 11.333 3 22.333 3 33c0 10 -1 20.667 -3 32c19.333 -2.66699 32.333 -4.16699 39 -4.5s14.334 -0.5 23.001 -0.5h112c-4 45.333 -14.667 82.666 -32 111.999c-22 37.333 -51.667 56 -89 56
c-26.667 0 -49 -8.66699 -67 -26s-29.667 -39.666 -35 -66.999h-26l-17 104c21.333 10.667 45.833 18.834 73.5 24.501s54.167 8.5 79.5 8.5c79.333 0 142.833 -21.167 190.5 -63.5s71.5 -101.833 71.5 -178.5z" />
    <glyph glyph-name="yacute" unicode="&#x44d;" horiz-adv-x="481" 
d="M449 247c0 -80 -23.8359 -143.5 -71.5029 -190.5s-111.5 -70.5 -191.5 -70.5c-27.333 0 -54.166 4 -80.499 12s-48.166 20 -65.499 36l-12 50l17 14c11.333 -14 26.833 -25.333 46.5 -34s39.167 -13 58.5 -13c49.333 0 86.833 15.167 112.5 45.5
s38.5 72.166 38.5 125.499h-113c-14 0 -24.333 -0.333008 -31 -1s-17 -2 -31 -4c2 11.333 3 22.333 3 33c0 10 -1 20.667 -3 32c19.333 -2.66699 32.333 -4.16699 39 -4.5s14.334 -0.5 23.001 -0.5h112c-4 45.333 -14.667 82.666 -32 111.999c-22 37.333 -51.667 56 -89 56
c-26.667 0 -49 -8.66699 -67 -26s-29.667 -39.666 -35 -66.999h-26l-17 104c21.333 10.667 45.833 18.834 73.5 24.501s54.167 8.5 79.5 8.5c79.333 0 142.833 -21.167 190.5 -63.5s71.5 -101.833 71.5 -178.5z" />
    <glyph glyph-name="thorn" unicode="&#xfe;" horiz-adv-x="778" 
d="M745 249c0 -76.667 -22.333 -139.668 -67 -189.001s-103.334 -74 -176.001 -74c-70 0 -127.167 21.167 -171.5 63.5s-66.5 98.833 -66.5 169.5h-70v-224c-11.333 1.33301 -19.666 2 -24.999 2c-23.333 2 -38 3 -44 3c-13.333 0 -27.666 -0.666992 -42.999 -2
c-12 -2 -20.667 -3 -26 -3v485c24.667 -3.33301 47.667 -5 69 -5s44.333 1.66699 69 5v-200h72c9.33301 64 35.166 114.833 77.499 152.5s95.166 56.5 158.499 56.5c72.667 0 131.334 -21.667 176.001 -65s67 -101.666 67 -174.999zM598 265.999
c0 52.667 -7.00098 94.667 -21.001 126c-16 35.333 -39 53 -69 53c-35.333 0 -60.833 -19.667 -76.5 -59s-23.5 -91.333 -23.5 -156c0 -52.667 4.33301 -93.667 13 -123c14.667 -50.667 41.334 -76 80.001 -76c35.333 0 61 23.333 77 70c13.333 38.667 20 93.667 20 165z
" />
    <glyph glyph-name="thorn" unicode="&#x44e;" horiz-adv-x="778" 
d="M745 249c0 -76.667 -22.333 -139.668 -67 -189.001s-103.334 -74 -176.001 -74c-70 0 -127.167 21.167 -171.5 63.5s-66.5 98.833 -66.5 169.5h-70v-224c-11.333 1.33301 -19.666 2 -24.999 2c-23.333 2 -38 3 -44 3c-13.333 0 -27.666 -0.666992 -42.999 -2
c-12 -2 -20.667 -3 -26 -3v485c24.667 -3.33301 47.667 -5 69 -5s44.333 1.66699 69 5v-200h72c9.33301 64 35.166 114.833 77.499 152.5s95.166 56.5 158.499 56.5c72.667 0 131.334 -21.667 176.001 -65s67 -101.666 67 -174.999zM598 265.999
c0 52.667 -7.00098 94.667 -21.001 126c-16 35.333 -39 53 -69 53c-35.333 0 -60.833 -19.667 -76.5 -59s-23.5 -91.333 -23.5 -156c0 -52.667 4.33301 -93.667 13 -123c14.667 -50.667 41.334 -76 80.001 -76c35.333 0 61 23.333 77 70c13.333 38.667 20 93.667 20 165z
" />
    <glyph glyph-name="ydieresis" unicode="&#xff;" horiz-adv-x="500" 
d="M444 -5c-10.667 1.33301 -18.6689 2.00195 -24.002 2.00195c-22.667 2 -37.667 3 -45 3c-16 0 -29.667 -0.666992 -41 -2s-20.666 -2.33301 -27.999 -3v204h-15c-12.667 -16 -38 -55.667 -76 -119l-51 -85l-47 3.5c-13.333 1 -22 1.5 -26 1.5
c-13.333 0 -30.166 -0.833008 -50.499 -2.5s-31.5 -2.5 -33.5 -2.5v7l34 52c50.667 75.333 89.667 130.333 117 165c-31.333 9.33301 -56.333 22.666 -75 39.999c-26 24 -39 53.333 -39 88c0 45.333 17 78.666 51 99.999s80 32 138 32h211v-484zM305.998 251.002v174h-25
c-29.333 0 -53.333 -7.16699 -72 -21.5s-28 -34.5 -28 -60.5c0 -28.667 10.333 -51.667 31 -69c18.667 -15.333 41.667 -23 69 -23h25z" />
    <glyph glyph-name="ydieresis" unicode="&#x44f;" horiz-adv-x="500" 
d="M444 -5c-10.667 1.33301 -18.6689 2.00195 -24.002 2.00195c-22.667 2 -37.667 3 -45 3c-16 0 -29.667 -0.666992 -41 -2s-20.666 -2.33301 -27.999 -3v204h-15c-12.667 -16 -38 -55.667 -76 -119l-51 -85l-47 3.5c-13.333 1 -22 1.5 -26 1.5
c-13.333 0 -30.166 -0.833008 -50.499 -2.5s-31.5 -2.5 -33.5 -2.5v7l34 52c50.667 75.333 89.667 130.333 117 165c-31.333 9.33301 -56.333 22.666 -75 39.999c-26 24 -39 53.333 -39 88c0 45.333 17 78.666 51 99.999s80 32 138 32h211v-484zM305.998 251.002v174h-25
c-29.333 0 -53.333 -7.16699 -72 -21.5s-28 -34.5 -28 -60.5c0 -28.667 10.333 -51.667 31 -69c18.667 -15.333 41.667 -23 69 -23h25z" />
    <glyph glyph-name="OE" unicode="&#x152;" horiz-adv-x="962" 
d="M942 217c0 -81.333 -27 -139.667 -81 -175c-42.667 -28 -102 -42 -178 -42h-201v330c-15.333 0 -39.833 0.666992 -73.5 2s-51.834 2 -54.501 2c-15.333 0 -39.833 -0.666992 -73.5 -2s-51.834 -2 -54.501 -2v-334c-8 0 -20.333 0.666992 -37 2s-29.334 2 -38.001 2
c-8 -0 -20.333 -0.666992 -37 -2s-29.334 -2 -38.001 -2v685c8 0 20.333 -1 37 -3s29.334 -3 38.001 -3c8 0 20.333 1 37 3s29.334 3 38.001 3v-271c20 0 45 -0.833008 75 -2.5s47.667 -2.5 53 -2.5c20 0 36 0.333008 48 1c48 2.66699 74.667 4 80 4v275
c8 0 20.333 -0.666992 37 -2s29.334 -2 38.001 -2c8 0 20.333 0.666992 37 2s29.334 2 38.001 2v-298h96c142.667 0 214 -56.667 214 -170zM787 198.999c0 39.333 -8.83203 70.8311 -26.499 94.498s-39.834 35.5 -66.501 35.5h-62v-273
c10.667 0.666992 22 1.33398 34 2.00098s22.667 2.33398 32 5.00098c30.667 8.66699 53.667 25.667 69 51c13.333 22.667 20 51 20 85z" />
    <glyph glyph-name="oe" unicode="&#x153;" horiz-adv-x="758" 
d="M728 156c0 -58.667 -21.9971 -100.667 -65.9971 -126c-34.667 -20 -83.334 -30 -146.001 -30h-183v219h-139v-224c-11.333 1.33301 -19.666 2 -24.999 2c-23.333 2 -38 3 -44 3c-14.667 -0 -28 -0.666992 -40 -2s-21.667 -2.33301 -29 -3v485
c11.333 -1.33301 24.166 -2.5 38.499 -3.5s24.5 -1.5 30.5 -1.5c13.333 0 27.666 0.666992 42.999 2c12 2 20.667 3 26 3v-200h139v200c11.333 -0.666992 23.666 -1.66699 36.999 -3s24.333 -2 33 -2c8 0 15.5 0.333008 22.5 1s22.167 2 45.5 4v-202h82
c116.667 0 175 -40.667 175 -122zM585.003 144c0 25.333 -6.16797 45.5 -18.501 60.5s-28.166 22.5 -47.499 22.5h-48v-175c8.66699 0 16.5 0.166992 23.5 0.5s16.167 1.5 27.5 3.5c22 6 38 16.667 48 32s15 34 15 56z" />
    <glyph glyph-name="Scaron" unicode="&#x160;" horiz-adv-x="907" 
d="M887 217c0 -81.333 -26.999 -139.666 -80.999 -174.999c-42.667 -28 -102 -42 -178 -42h-201v606l-43 3l-40 -3l-85 -204c-30.667 -74.667 -57 -141.334 -79 -200.001c-24.667 -66 -48.334 -134.333 -71.001 -205l-47 3l-46 -3l98.5 231l92.5 222
c32 79.333 61.333 156.333 88 231h282v-295h96c142.667 0 214 -56.333 214 -169zM732.001 199c0 39.333 -8.83203 71.165 -26.499 95.498s-39.834 36.5 -66.501 36.5h-62v-275c10.667 0.666992 22 1.33398 34 2.00098s22.667 2.33398 32 5.00098
c30.667 8.66699 53.667 25.667 69 51c13.333 22.667 20 51 20 85z" />
    <glyph glyph-name="scaron" unicode="&#x161;" horiz-adv-x="722" 
d="M691 156c0 -58.667 -21.999 -100.667 -65.999 -126c-34.667 -20 -83.334 -30 -146.001 -30h-183v421h-46l-97 -240c-25.333 -62.667 -47.333 -124 -66 -184l-41 3l-39 -3c75.333 164 144.333 325 207 483h220v-202h82c116.667 0 175 -40.667 175 -122zM548.001 144
c0 25.333 -6.16797 45.5 -18.501 60.5s-28.166 22.5 -47.499 22.5h-48v-175c8.66699 0 16.5 0.166992 23.5 0.5s16.167 1.5 27.5 3.5c22 6 38 16.667 48 32s15 34 15 56z" />
    <glyph glyph-name="Ydieresis" unicode="&#x178;" 
d="M500 0l-170.003 -0.000976562v-61c-13.333 2 -26.333 3 -39 3h-13h-27c-8.66699 0 -17 -1 -25 -3v61h-170v480c10.667 -2 24.334 -3.33301 41.001 -4s26 -1 28 -1c12 0 24.333 0.333008 37 1s23.334 2 32.001 4v-419c8.66699 -1.33301 21.834 -2.16602 39.501 -2.49902
s32.5 -0.5 44.5 -0.5h24c22.667 0 42.667 1 60 3v419c22 -3.33301 45 -5 69 -5c22.667 0 45.667 1.66699 69 5v-480z" />
    <glyph glyph-name="florin" unicode="&#x192;" horiz-adv-x="370" 
d="M363 686c0 -14 -5.66699 -26 -17 -36c-3.33301 -2.66699 -15 -10.667 -35 -24l-131 -81h-56l129 149c10 12 17 19.333 21 22c12 9.33301 27 14 45 14c12.667 0 23.167 -4.16699 31.5 -12.5s12.5 -18.833 12.5 -31.5zM365 412c-26 4 -52.333 6.66699 -79 8
s-57.334 2 -92.001 2v-427c-11.333 1.33301 -19.666 2 -24.999 2c-23.333 2 -38 3 -44 3c-14.667 -0 -28 -0.666992 -40 -2s-21.667 -2.33301 -29 -3v485h309c-3.33301 -10 -5 -21 -5 -33c0 -13.333 1.66699 -25 5 -35z" />
    <glyph glyph-name="endash" unicode="&#x2013;" horiz-adv-x="500" 
d="M500 181h-500v83h500v-83z" />
    <glyph glyph-name="emdash" unicode="&#x2014;" horiz-adv-x="1000" 
d="M1000 181h-1000v83h1000v-83z" />
    <glyph glyph-name="quoteleft" unicode="&#x2018;" horiz-adv-x="278" 
d="M242 694l-44.999 -185.001l-12 -48c-4 -15.333 -9.5 -31.333 -16.5 -48s-15.333 -28.667 -25 -36s-22.834 -11 -39.501 -11c-18.667 0 -34.5 6.16699 -47.5 18.5s-19.5 26.833 -19.5 43.5c0 10.667 3.33301 21.334 10 32.001l84 123l87 122z" />
    <glyph glyph-name="quoteright" unicode="&#x2019;" horiz-adv-x="278" 
d="M231 616l-84.001 -123l-87 -122l-24 11l45 185l12 47.5c4 15.667 9.5 31.834 16.5 48.501s15.333 28.667 25 36s22.834 11 39.501 11c18.667 0 34.5 -6.16699 47.5 -18.5s19.5 -26.833 19.5 -43.5c0 -10.667 -3.33301 -21.334 -10 -32.001z" />
    <glyph glyph-name="quotesinglbase" unicode="&#x201a;" horiz-adv-x="278" 
d="M223 56l-84.001 -123l-87 -122l-24 11l45 185l12 47.5c4 15.667 9.5 31.834 16.5 48.501s15.333 28.667 25 36s22.834 11 39.501 11c18.667 0 34.5 -6.16699 47.5 -18.5s19.5 -26.833 19.5 -43.5c0 -10.667 -3.33301 -21.334 -10 -32.001z" />
    <glyph glyph-name="quotedblleft" unicode="&#x201c;" horiz-adv-x="500" 
d="M456 694l-44.999 -185.001l-12 -48c-4 -15.333 -9.5 -31.333 -16.5 -48s-15.333 -28.667 -25 -36s-22.834 -11 -39.501 -11c-18.667 0 -34.5 6.16699 -47.5 18.5s-19.5 26.833 -19.5 43.5c0 10.667 3.33301 21.334 10 32.001l84 123l87 122zM249.001 693.999
l-44.999 -185.001l-12 -48c-4 -15.333 -9.5 -31.333 -16.5 -48s-15.333 -28.667 -25 -36s-22.834 -11 -39.501 -11c-18.667 0 -34.5 6.16699 -47.5 18.5s-19.5 26.833 -19.5 43.5c0 10.667 3.33301 21.334 10 32.001l84 123l87 122z" />
    <glyph glyph-name="quotedblright" unicode="&#x201d;" horiz-adv-x="500" 
d="M446 616l-84.001 -123l-87 -122l-24 11l45 185l12 47.5c4 15.667 9.5 31.834 16.5 48.501s15.333 28.667 25 36s22.834 11 39.501 11c18.667 0 34.5 -6.16699 47.5 -18.5s19.5 -26.833 19.5 -43.5c0 -10.667 -3.33301 -21.334 -10 -32.001zM238.999 616l-84.001 -123
l-87 -122l-24 11l45 185l12 47.5c4 15.667 9.5 31.834 16.5 48.501s15.333 28.667 25 36s22.834 11 39.501 11c18.667 0 34.5 -6.16699 47.5 -18.5s19.5 -26.833 19.5 -43.5c0 -10.667 -3.33301 -21.334 -10 -32.001z" />
    <glyph glyph-name="quotedblbase" unicode="&#x201e;" horiz-adv-x="500" 
d="M430 56l-84.001 -123l-87 -122l-24 11l45 185l12 47.5c4 15.667 9.5 31.834 16.5 48.501s15.333 28.667 25 36s22.834 11 39.501 11c18.667 0 34.5 -6.16699 47.5 -18.5s19.5 -26.833 19.5 -43.5c0 -10.667 -3.33301 -21.334 -10 -32.001zM222.999 56l-84.001 -123
l-87 -122l-24 11l45 185l12 47.5c4 15.667 9.5 31.834 16.5 48.501s15.333 28.667 25 36s22.834 11 39.501 11c18.667 0 34.5 -6.16699 47.5 -18.5s19.5 -26.833 19.5 -43.5c0 -10.667 -3.33301 -21.334 -10 -32.001z" />
    <glyph glyph-name="dagger" unicode="&#x2020;" 
d="M501 368c-18 0 -45.334 1 -82.001 3s-64.334 3 -83.001 3v-379c-9.33301 1.33301 -16.333 2 -21 2c-19.333 2 -31.666 3 -36.999 3c-12.667 -0 -24 -0.666992 -34 -2s-18 -2.33301 -24 -3v379c-18 0 -45.333 -1 -82 -3s-64.334 -3 -83.001 -3l3.5 31.5
c1 9 1.5 16.5 1.5 22.5c0 12 -0.666992 22.5 -2 31.5s-2.33301 16.5 -3 22.5c18 0 45.333 -1 82 -3s64.334 -3 83.001 -3v211c9.33301 -1.33301 20 -2.5 32 -3.5s20.667 -1.5 26 -1.5c12.667 0 24 0.666992 34 2s18 2.33301 24 3v-211c18 0 45.333 1 82 3s64.334 3 83.001 3
l-3.5 -31.5c-1 -9 -1.5 -16.5 -1.5 -22.5c0 -12 0.666992 -22.5 2 -31.5s2.33301 -16.5 3 -22.5z" />
    <glyph glyph-name="daggerdbl" unicode="&#x2021;" 
d="M501 137c-26.667 0 -47 0.333008 -61 1c-68.667 3.33301 -103.334 5 -104.001 5v-148c-9.33301 1.33301 -16.333 2 -21 2c-19.333 2 -31.666 3 -36.999 3c-12.667 -0 -24 -0.666992 -34 -2s-18 -2.33301 -24 -3v148c-18.667 0 -46.334 -1 -83.001 -3s-64 -3 -82 -3
l3.5 31.5c1 9 1.5 16.5 1.5 22.5c0 12 -0.666992 22.5 -2 31.5s-2.33301 16.5 -3 22.5c13.333 -2 28.5 -3.5 45.5 -4.5s35.833 -1.5 56.5 -1.5h63v198c-18.667 0 -46.334 -1 -83.001 -3s-64 -3 -82 -3l3.5 31.5c1 9 1.5 16.5 1.5 22.5c0 12 -0.666992 22.5 -2 31.5
s-2.33301 16.5 -3 22.5c26.667 0 47 -0.333008 61 -1c68.667 -3.33301 103.334 -5 104.001 -5v148c9.33301 -1.33301 20 -2.5 32 -3.5s20.667 -1.5 26 -1.5c12.667 0 24 0.666992 34 2s18 2.33301 24 3v-148c18.667 0 46.334 1 83.001 3s64 3 82 3l-3.5 -31.5
c-1 -9 -1.5 -16.5 -1.5 -22.5c0 -12 0.666992 -22.5 2 -31.5s2.33301 -16.5 3 -22.5c-26.667 0 -47 0.333008 -61 1c-68.667 3.33301 -103.334 5 -104.001 5v-198c18.667 0 46.334 1 83.001 3s64 3 82 3l-3.5 -31.5c-1 -9 -1.5 -16.5 -1.5 -22.5
c0 -12 0.666992 -22.5 2 -31.5s2.33301 -16.5 3 -22.5z" />
    <glyph glyph-name="bullet" unicode="&#x2022;" horiz-adv-x="606" 
d="M475 340c0 -46.667 -16.667 -86.667 -50 -120s-73.666 -50 -120.999 -50s-87.833 16.5 -121.5 49.5s-50.5 73.167 -50.5 120.5s16.833 87.5 50.5 120.5s74.167 49.5 121.5 49.5s87.666 -16.333 120.999 -49s50 -73 50 -121z" />
    <glyph glyph-name="ellipsis" unicode="&#x2026;" horiz-adv-x="1000" 
d="M915 68c0 -22.667 -7.99902 -42 -23.999 -58s-35.667 -24 -59 -24c-22.667 0 -41.834 8.16699 -57.501 24.5s-23.5 35.5 -23.5 57.5c0 21.333 8 40.333 24 57s35 25 57 25s41.333 -8 58 -24s25 -35.333 25 -58zM582.001 68c0 -22.667 -7.99902 -42 -23.999 -58
s-35.667 -24 -59 -24c-22.667 0 -41.834 8.16699 -57.501 24.5s-23.5 35.5 -23.5 57.5c0 21.333 8 40.333 24 57s35 25 57 25s41.333 -8 58 -24s25 -35.333 25 -58zM249.002 68c0 -22.667 -7.99902 -42 -23.999 -58s-35.667 -24 -59 -24
c-22.667 0 -41.834 8.16699 -57.501 24.5s-23.5 35.5 -23.5 57.5c0 21.333 8 40.333 24 57s35 25 57 25s41.333 -8 58 -24s25 -35.333 25 -58z" />
    <glyph glyph-name="perthousand" unicode="&#x2030;" horiz-adv-x="1000" 
d="M992 151c0 -48.667 -12.667 -87.667 -38 -117c-27.333 -32 -65.666 -48 -114.999 -48c-42.667 0 -76.334 15.333 -101.001 46s-37 69 -37 115s13.5 84.833 40.5 116.5s63.167 47.5 108.5 47.5c44.667 0 80 -15.667 106 -47c24 -29.333 36 -67 36 -113zM555 694l-396 -723
c-9.33301 2 -18 3 -26 3c-8.66699 0 -17.667 -1 -27 -3l395 723c10.667 -1.33301 19 -2 25 -2h14c6.66699 1.33301 11.667 2 15 2zM659 151c0 -48.667 -12.667 -87.667 -38 -117c-27.333 -32 -65.666 -48 -114.999 -48c-42.667 0 -76.334 15.333 -101.001 46s-37 69 -37 115
s13.5 84.833 40.5 116.5s63.167 47.5 108.5 47.5c44.667 0 80 -15.667 106 -47c24 -29.333 36 -67 36 -113zM299 510c0 -48.667 -12.667 -87.667 -38 -117c-27.333 -32 -65.666 -48 -114.999 -48c-42.667 0 -76.334 15.333 -101.001 46s-37 69 -37 115
s13.5 84.833 40.5 116.5s63.167 47.5 108.5 47.5c44.667 0 80 -15.667 106 -47c24 -29.333 36 -67 36 -113zM905 166c0 30.667 -2.33105 54.334 -6.99805 71.001c-8.66699 30.667 -24 46 -46 46c-24.667 0 -41.5 -13.833 -50.5 -41.5s-13.5 -62.834 -13.5 -105.501
c0 -32 4.66699 -60.333 14 -85s23.666 -37 42.999 -37s34.166 14.167 44.499 42.5s15.5 64.833 15.5 109.5zM572.002 166c0 30.667 -2.33105 54.334 -6.99805 71.001c-8.66699 30.667 -24 46 -46 46c-24.667 0 -41.5 -13.833 -50.5 -41.5s-13.5 -62.834 -13.5 -105.501
c0 -32 4.66699 -60.333 14 -85s23.666 -37 42.999 -37s34.166 14.167 44.499 42.5s15.5 64.833 15.5 109.5zM212.004 525c0 30.667 -2.33105 54.334 -6.99805 71.001c-8.66699 30.667 -24 46 -46 46c-24.667 0 -41.5 -13.833 -50.5 -41.5s-13.5 -62.834 -13.5 -105.501
c0 -32 4.66699 -60.333 14 -85s23.666 -37 42.999 -37s34.166 14.167 44.499 42.5s15.5 64.833 15.5 109.5z" />
    <glyph glyph-name="guilsinglleft" unicode="&#x2039;" horiz-adv-x="333" 
d="M266 116c-11.333 -4.66699 -22.167 -10.665 -32.5 -17.998s-21.5 -16.333 -33.5 -27l-78 122l-49 73l80 122l47 75c10 -10 23 -19.667 39 -29l26 -15c-42 -52.667 -79.333 -103.334 -112 -152.001l70 -96.5c4 -5.66699 18.333 -23.834 43 -54.501z" />
    <glyph glyph-name="guilsinglright" unicode="&#x203a;" horiz-adv-x="333" 
d="M260 268l-79.999 -122.002l-47 -75c-10 10 -23 19.667 -39 29l-26 15c42 52.667 79.333 103.334 112 152.001l-70 96.5c-4 5.66699 -18.333 23.834 -43 54.501c11.333 4.66699 22.166 10.667 32.499 18s21.5 16.333 33.5 27l78 -122z" />
    <glyph glyph-name="trademark" unicode="&#x2122;" horiz-adv-x="975" 
d="M925 274l-49 3.00098l-48 -3c0 41.333 -3 86.166 -9 134.499l-17 141.5l-67 -135l-65 -138h-22l-62 129l-68 138c-11.333 -82.667 -18.333 -140.5 -21 -173.5s-4 -65.167 -4 -96.5l-28 3l-27 -3c8.66699 47.333 18.834 111.5 30.501 192.5s21.5 152.5 29.5 214.5l25 -3
l25 3l50 -106l86 -173l68 132c27.333 53.333 50.666 102.333 69.999 147l25 -3l26 3c14 -125.333 22.333 -198.333 25 -219c8.66699 -72 17.667 -134.667 27 -188zM355 631.001c-18 2 -37.667 3.83301 -59 5.5s-37 2.5 -47 2.5v-365l-44 3l-45 -3v365
c-22.667 0 -40.167 -0.5 -52.5 -1.5s-31.5 -3.16699 -57.5 -6.5l3 25l-3 25h305l-3 -25z" />
    <glyph glyph-name=".null" horiz-adv-x="0" 
 />
    <glyph glyph-name="nonmarkingreturn" horiz-adv-x="278" 
 />
    </font>
</defs>
</svg>
