<?xml version="1.0" encoding="UTF-8" standalone="no"?>
<svg
   xmlns:dc="http://purl.org/dc/elements/1.1/"
   xmlns:cc="http://creativecommons.org/ns#"
   xmlns:rdf="http://www.w3.org/1999/02/22-rdf-syntax-ns#"
   xmlns:svg="http://www.w3.org/2000/svg"
   xmlns="http://www.w3.org/2000/svg"
   viewBox="0 0 390 418"
   height="418"
   width="390"
   id="svg2"
   version="1.1">
  <metadata
     id="metadata8">
    <rdf:RDF>
      <cc:Work
         rdf:about="">
        <dc:format>image/svg+xml</dc:format>
        <dc:type
           rdf:resource="http://purl.org/dc/dcmitype/StillImage" />
        <dc:title></dc:title>
      </cc:Work>
    </rdf:RDF>
  </metadata>
  <defs
     id="defs6" />
  <path
     id="path12"
     d="M 138.99632,399.27098 C -0.7688709,398.51364 8.8658196,398.97923 6.3311311,392.85997 5.2746996,390.30952 7.5147816,373.62866 25.855906,247.4679 46.26905,107.05465 46.610792,104.91845 49.071407,102.35011 l 2.497385,-2.606696 27.634336,-0.24776 27.634352,-0.24777 2.57326,-8.951268 c 11.53774,-40.134695 33.46177,-68.348825 60.6374,-78.034491 7.27192,-2.5917868 9.13277,-2.8717558 18.83682,-2.8340458 12.33508,0.04793 20.31556,2.2307708 30.95658,8.4673018 13.57541,7.956328 29.70607,27.095376 38.22683,45.356173 4.05196,8.683737 9.48275,23.848004 11.31023,31.58129 l 1.16934,4.94824 21.66845,-0.39284 c 11.91764,-0.21607 23.40842,-0.69146 25.53505,-1.05644 3.41647,-0.58634 4.21384,-0.35333 6.84952,2.001646 l 2.98293,2.66525 21.5946,144.41003 c 23.6512,158.16308 22.58318,148.40783 16.58721,151.50848 -2.97436,1.53809 -7.03785,1.54443 -226.76938,0.35377 z m 210.9057,-19.35859 c -0.0173,-0.90121 -8.7729,-59.99525 -19.45689,-131.32009 l -19.42542,-129.68152 -18.58772,-0.25429 -18.58774,-0.25429 0.62555,4.71559 c 0.54538,4.11129 1.27037,5.34378 5.65734,9.61757 5.64678,5.50112 7.63206,10.57305 6.65724,17.00769 -2.55201,16.84545 -23.28068,23.34782 -34.5754,10.84592 -7.52703,-8.33154 -6.73077,-20.74095 1.83428,-28.58624 3.29354,-3.01675 3.34073,-3.16223 2.69689,-8.3153 l -0.6553,-5.24481 h -67.19073 -67.19074 l -0.5852,2.92602 c -1.21653,6.08264 -0.70999,9.12131 1.79398,10.76199 1.30856,0.85739 3.51912,3.50054 4.91235,5.87363 7.31451,12.45888 -1.10862,28.44836 -15.72629,29.85293 -10.89564,1.04694 -21.527762,-8.69099 -21.527762,-19.71722 0,-6.65438 4.728394,-14.87957 10.394772,-18.08202 0.96504,-0.5454 1.719,-2.7669 2.11492,-6.23144 l 0.61527,-5.38389 H 83.660371 63.625335 l -0.526573,3.04306 c -2.787001,16.10603 -37.249214,257.45418 -36.822885,257.88052 0.477247,0.47724 125.721773,1.36848 284.097733,2.02162 37.12476,0.1531 39.55794,0.0623 39.52841,-1.47543 z M 251.61898,97.934004 c 0,-0.98012 -1.51035,-6.141629 -3.35634,-11.470021 -19.82397,-57.22121 -60.50869,-76.391029 -93.1137,-43.873299 -11.50049,11.469703 -20.2354,26.617778 -26.62738,46.177191 -1.81882,5.565569 -3.30694,10.305739 -3.30694,10.533699 0,0.22796 28.44098,0.41447 63.20218,0.41447 61.50667,0 63.20218,-0.0478 63.20218,-1.78204 z"
     style="fill:#030303;stroke-width:0.93632865" />
</svg>
