<?xml version="1.0" encoding="UTF-8" standalone="no"?>
<svg
   xmlns:dc="http://purl.org/dc/elements/1.1/"
   xmlns:cc="http://creativecommons.org/ns#"
   xmlns:rdf="http://www.w3.org/1999/02/22-rdf-syntax-ns#"
   xmlns:svg="http://www.w3.org/2000/svg"
   xmlns="http://www.w3.org/2000/svg"
   xmlns:sodipodi="http://sodipodi.sourceforge.net/DTD/sodipodi-0.dtd"
   xmlns:inkscape="http://www.inkscape.org/namespaces/inkscape"
   viewBox="0 0 400 226.66667"
   height="226.66667"
   width="400"
   id="svg2"
   version="1.1"
   sodipodi:docname="delivery.svg"
   inkscape:version="0.92.1 r15371">
  <sodipodi:namedview
     pagecolor="#ffffff"
     bordercolor="#666666"
     borderopacity="1"
     objecttolerance="10"
     gridtolerance="10"
     guidetolerance="10"
     inkscape:pageopacity="0"
     inkscape:pageshadow="2"
     inkscape:window-width="640"
     inkscape:window-height="480"
     id="namedview6"
     showgrid="false"
     inkscape:zoom="0.9975"
     inkscape:cx="200"
     inkscape:cy="113.33334"
     inkscape:window-x="0"
     inkscape:window-y="0"
     inkscape:window-maximized="0"
     inkscape:current-layer="svg2" />
  <metadata
     id="metadata8">
    <rdf:RDF>
      <cc:Work
         rdf:about="">
        <dc:format>image/svg+xml</dc:format>
        <dc:type
           rdf:resource="http://purl.org/dc/dcmitype/StillImage" />
        <dc:title />
      </cc:Work>
    </rdf:RDF>
  </metadata>
  <defs
     id="defs6" />
  <path
     id="path4487"
     d="m 130.96154,220.60493 c -17.48179,-6.19995 -26.29363,-27.24147 -18.31259,-43.72809 9.68678,-20.01022 36.07669,-23.98614 50.78848,-7.65182 15.1297,16.7983 9.27058,41.77733 -11.92003,50.81834 -7.04046,3.00382 -13.19538,3.17198 -20.55586,0.56157 z m 17.92094,-16.75163 c 5.12241,-3.12365 8.58587,-10.44294 7.55124,-15.95801 -0.95475,-5.0892 -6.66006,-11.50596 -11.25585,-12.65942 -9.98904,-2.5071 -19.75287,5.10968 -19.75287,15.4092 0,5.03764 0.63388,6.41978 4.90151,10.68741 4.00717,4.00718 5.79243,4.90065 9.78444,4.89678 2.68562,-0.003 6.63281,-1.07178 8.77153,-2.37596 z m 145.28068,15.71641 c -12.5424,-6.14461 -18.97296,-16.01337 -18.97296,-29.11709 0,-12.90903 7.51309,-24.33841 19.31925,-29.38968 6.52495,-2.7917 18.63186,-2.44006 24.82831,0.72114 25.00708,12.75766 23.99895,46.46527 -1.73167,57.90077 -8.43078,3.74689 -15.63192,3.71153 -23.44293,-0.11514 z m 19.25098,-15.16496 c 4.99029,-2.58058 8.12068,-7.95889 8.12068,-13.95213 0,-9.18098 -6.81229,-15.78138 -16.28804,-15.78138 -3.69496,0 -5.6199,0.9899 -9.53153,4.90151 -4.31352,4.31354 -4.9015,5.61866 -4.9015,10.87987 0,5.26121 0.58798,6.56632 4.9015,10.87986 5.46748,5.46746 11.15718,6.45513 17.69889,3.07227 z M 76.567549,183.88735 c -4.97112,-0.651 -11.30664,-7.45685 -12.3737,-13.29226 -0.41539,-2.27159 -0.58544,-10.9477 -0.3779,-19.28027 l 0.37734,-15.15011 157.498071,-0.32054 157.49806,-0.32054 -0.009,18.62693 c -0.008,15.99458 -0.3383,19.12739 -2.34337,22.16835 -3.52401,5.34467 -6.5391,6.92771 -15.02283,7.88753 -10.89481,1.23262 -13.80912,0.24553 -15.30855,-5.18496 -3.05455,-11.06266 -12.9984,-22.47436 -23.97534,-27.5144 -8.93032,-4.10036 -23.71425,-3.80313 -33.25796,0.66863 -9.04061,4.23605 -17.14441,12.46635 -21.0156,21.3437 -1.63888,3.75822 -3.4032,7.68532 -3.92072,8.72689 -0.79894,1.60798 -6.63613,1.94712 -38.67922,2.24727 -20.75606,0.19443 -38.93713,0.0615 -40.40239,-0.29537 -1.88319,-0.45867 -3.46489,-2.84509 -5.396,-8.14138 -6.32036,-17.33419 -24.29748,-29.14998 -41.91909,-27.55211 -15.13605,1.37249 -29.10693,11.33725 -35.07133,25.0147 -1.63888,3.75822 -3.401073,7.68532 -3.915988,8.72689 -0.953974,1.9297 -13.280663,2.83337 -22.385163,1.64105 z m -12.2373,-59.18357 c -0.42252,-1.10107 -0.76822,-7.88255 -0.76822,-15.06996 0,-11.343182 -0.29161,-13.158402 -2.20939,-13.752822 -1.21517,-0.37664 -13.27901,-2.70694 -26.80854,-5.17844 -13.52952,-2.47151 -25.10814,-5.00266 -25.73026,-5.62477 -1.74332,-1.74332 -1.71611,-1.74607 76.812381,-7.7754 9.010592,-0.69182 16.59519,-1.47016 16.85467,-1.72963 1.41505,-1.41504 -1.76697,-2.9252 -7.643411,-3.6275 -12.036548,-1.43849 -81.07424,-11.07819 -84.30085,-11.77088 -2.95475,-0.63433 -2.99506,-0.74301 -0.63125,-1.70218 1.38876,-0.56353 21.84141,-2.8095 45.45034,-4.99104 23.608928,-2.18155 44.285792,-4.24414 45.948581,-4.58355 5.63255,-1.1497 0.78921,-3.08751 -10.71779,-4.28818 -6.18371,-0.64523 -21.753501,-2.5833 -34.599541,-4.30683 -12.84603,-1.72353 -27.04926,-3.47593 -31.56274,-3.89422 -10.7554,-0.99676 -13.8876,-1.68326 -13.8876,-3.04379 0,-1.19338 1.27949,-1.38048 31.56274,-4.61536 20.49334,-2.18911 22.72517,-3.04751 22.72517,-8.74051 0,-2.77284 4.88724,-8.09862 9.70145,-10.5719696 1.9619,-1.00794 28.483691,-1.41677 91.910271,-1.41677 97.02131,0 93.22602,-0.27172 99.01582,7.0888396 1.96897,2.50313 2.6365,5.16264 2.6365,10.50405 0,3.93376 0.68176,7.83405 1.51501,8.66731 1.01972,1.01972 6.77123,1.51501 17.59294,1.51501 8.84288,0 17.67729,0.603 19.63203,1.33999 4.18552,1.57806 64.87143,61.47353 69.38496,68.481242 2.58712,4.01674 3.0317,6.08123 2.71876,12.62509 l -0.37412,7.82312 -156.72985,0.32055 C 79.726327,126.6758 65.026759,126.51888 64.330249,124.70378 Z M 348.88919,100.76634 c 0,-1.068022 -8.66397,-10.370412 -19.25327,-20.671962 -25.75428,-25.05447 -29.24986,-27.88657 -34.41958,-27.88657 -8.47519,0 -8.19012,-0.87624 -8.19012,25.17485 0,13.00321 0.37876,24.020952 0.84168,24.483872 0.46291,0.46292 14.38208,0.84167 30.93149,0.84167 26.23604,0 30.0898,-0.2487 30.0898,-1.94186 z"
     style="fill:#000000;stroke-width:1.26250958" />
</svg>
