<?xml version="1.0" encoding="UTF-8" standalone="no"?>
<svg
   xmlns:dc="http://purl.org/dc/elements/1.1/"
   xmlns:cc="http://creativecommons.org/ns#"
   xmlns:rdf="http://www.w3.org/1999/02/22-rdf-syntax-ns#"
   xmlns:svg="http://www.w3.org/2000/svg"
   xmlns="http://www.w3.org/2000/svg"
   xmlns:sodipodi="http://sodipodi.sourceforge.net/DTD/sodipodi-0.dtd"
   xmlns:inkscape="http://www.inkscape.org/namespaces/inkscape"
   viewBox="0 0 666.66669 640"
   height="640"
   width="666.66669"
   id="svg2"
   version="1.1"
   sodipodi:docname="school-bag.svg"
   inkscape:version="0.92.1 r15371">
  <sodipodi:namedview
     pagecolor="#ffffff"
     bordercolor="#666666"
     borderopacity="1"
     objecttolerance="10"
     gridtolerance="10"
     guidetolerance="10"
     inkscape:pageopacity="0"
     inkscape:pageshadow="2"
     inkscape:window-width="640"
     inkscape:window-height="480"
     id="namedview6"
     showgrid="false"
     inkscape:zoom="0.36875"
     inkscape:cx="333.33334"
     inkscape:cy="320"
     inkscape:window-x="0"
     inkscape:window-y="0"
     inkscape:window-maximized="0"
     inkscape:current-layer="svg2" />
  <metadata
     id="metadata8">
    <rdf:RDF>
      <cc:Work
         rdf:about="">
        <dc:format>image/svg+xml</dc:format>
        <dc:type
           rdf:resource="http://purl.org/dc/dcmitype/StillImage" />
        <dc:title />
      </cc:Work>
    </rdf:RDF>
  </metadata>
  <defs
     id="defs6" />
  <path
     id="path12"
     d="m 270.66668,595.9096 c 0,-0.73333 -0.8311,-1.33333 -1.8469,-1.33333 -1.99376,0 -14.47002,-3.58516 -18.81977,-5.40801 -17.93951,-7.51796 -31.39228,-15.57948 -35.64788,-21.36184 -2.41952,-3.28759 -4.40956,-9.2688 -5.95455,-17.89682 -0.71208,-3.97666 -4.41069,-9.68709 -11.22671,-17.33333 -6.7389,-7.55976 -12.67193,-16.04071 -17.58382,-25.13515 -4.20496,-7.78557 -4.92038,-10.34657 -4.92038,-17.61362 0,-5.75179 0.78855,-9.91882 2.43686,-12.87734 3.4145,-6.12869 6.92568,-21.04864 6.74181,-28.64792 -0.0851,-3.51594 -0.40459,-5.19264 -0.71003,-3.72597 -1.56597,7.51928 -3.50566,14.9548 -4.52172,17.33333 -5.08006,11.89226 -9.79928,20.62304 -12.9726,24 -8.22688,8.7548 -32.46574,28.66667 -34.89613,28.66667 -0.77634,0 -1.41152,0.55957 -1.41152,1.24348 0,0.68392 -1.32202,1.66308 -2.93782,2.17591 -1.61579,0.51284 -3.69329,1.68792 -4.61666,2.61128 -4.16045,4.16045 -22.556105,10.48882 -32.082285,11.03678 -8.52831,0.49056 -10.31417,0.15734 -15.52614,-2.89708 -6.83085,-4.00314 -12.42415,-10.20606 -15.1823,-16.83704 -1.77365,-4.26409 -5.75743,-12.38934 -11.60368,-23.66666 -1.23554,-2.38334 -2.80249,-4.33334 -3.48211,-4.33334 -0.67962,0 -1.23568,-5.37889 -1.23568,-11.95309 0,-10.45305 0.32365,-12.12629 2.57901,-13.33333 7.54586,-4.03842 18.60682,0.0809 37.42099,13.93658 21.625055,15.92567 34.359545,15.94266 56.143035,0.0749 9.81961,-7.15291 16.68201,-24.2301 21.18735,-52.72507 2.38973,-15.11432 2.9804,-17.96757 4.00228,-19.33333 0.54869,-0.73334 1.3897,-4.04751 1.86892,-7.36483 l 0.87129,-6.03148 -5.7826,-1.7074 c -5.11853,-1.51133 -11.93063,-7.06336 -19.91302,-16.22963 -5.54577,-6.36828 -6.41586,-15.19586 -2.23158,-22.64078 l 2.81233,-5.00387 -3.14567,-3.68837 c -1.73012,-2.0286 -3.7657,-4.35855 -4.52353,-5.17767 -4.29152,-4.63863 -17.15832,-24.56072 -22.92099,-35.48933 -8.81287,-16.71315 -10.84901,-20.27348 -17.919335,-31.3333 -6.73329,-10.5326 -17.5772,-32.29261 -19.60141,-39.33333 -5.59584,-19.46372 -7.00383,-29.63415 -7.75261,-56 -0.40499,-14.26073 -0.0926,-23.87619 0.88807,-27.33333 4.73908,-16.7068 6.0525,-20.4939 8.78602,-25.33334 4.44392,-7.86754 12.36577,-14.79351 19.7268,-17.24687 3.57245,-1.190659 16.472445,-6.983332 28.666675,-12.872611 30.46076,-14.71122 33.64073,-15.880515 43.18805,-15.880515 5.95869,0 6.36315,-0.263044 12.33264,-8.020838 8.0804,-10.501092 13.64109,-13.312495 26.33084,-13.312495 5.38255,0 10.35645,-0.498575 11.05312,-1.107943 0.69667,-0.609369 5.01667,-2.204365 9.6,-3.544436 4.58333,-1.34007 8.33333,-2.941497 8.33333,-3.558724 0,-0.617226 8.70001,-1.12223 19.33334,-1.12223 10.63333,0 19.33333,0.470518 19.33333,1.045597 0,0.57508 3.59014,2.82508 7.97807,5 4.38793,2.174921 7.98793,4.404403 8,4.954403 0.0299,1.359628 3.54384,1.261612 6.37336,-0.177772 7.48795,-3.809148 22.01695,-8.155562 27.26204,-8.155562 1.31259,0 2.38653,-0.6 2.38653,-1.333333 0,-0.814815 6.22223,-1.333333 16.00001,-1.333333 8.8,0 16,0.490532 16,1.09007 0,0.599539 6.15,1.814595 13.66666,2.700124 14.70254,1.732086 24.4357,3.251842 35,5.464972 3.66667,0.768135 12.36667,2.293183 19.33334,3.388998 21.51235,3.38376 27.12012,4.391276 33.33333,5.988797 3.3,0.848485 8.1,2.01326 10.66667,2.588389 24.22456,5.428147 48.88865,23.466798 59.62314,43.606732 4.83224,9.06622 6.76696,15.85816 8.3098,29.17192 3.66345,31.61336 4.56069,35.91458 12.79046,61.31562 2.88736,8.91182 3.21164,9.33122 7.48074,9.6755 11.26557,0.90849 19.66014,6.58846 27.24152,18.43229 4.92014,7.68639 10.31378,22.79144 12.34642,34.57659 4.70784,27.29572 4.93502,38.07316 2.57152,122 -0.13146,4.66624 1.84248,27.91458 2.94335,34.66666 0.6576,4.03334 1.85647,11.83334 2.66415,17.33334 1.77318,12.07478 5.232,29.0019 6.67497,32.66666 0.57749,1.46667 1.78796,5.36667 2.68992,8.66667 0.90197,3.3 2.1216,7.5 2.71027,9.33333 0.58868,1.83334 1.43052,4.98334 1.87077,7 0.44024,2.01667 1.38902,3.66667 2.10838,3.66667 0.79042,0 1.30793,7.12196 1.30793,18 v 18 h -3.33333 c -1.83334,0 -3.33334,0.6 -3.33334,1.33333 0,0.73334 -0.90815,1.33334 -2.01809,1.33334 -1.10995,0 -3.05995,0.54152 -4.33334,1.20338 -1.27338,0.66186 -5.01524,1.93144 -8.31524,2.8213 -3.3,0.88985 -7.5,2.10294 -9.33333,2.69576 -1.83333,0.5928 -5.73333,1.45946 -8.66667,1.9259 -2.93333,0.46646 -7.13333,1.37118 -9.33333,2.01052 -2.2,0.63935 -6.7,1.87384 -10,2.74334 -3.3,0.86949 -6.9,1.90558 -8,2.30244 -1.1,0.39685 -6.8,1.78537 -12.66667,3.0856 -15.65488,3.46958 -27.29601,6.2279 -33.33333,7.8982 -2.93334,0.81153 -8.93334,2.29136 -13.33334,3.2885 -4.4,0.99715 -12.5,3.12275 -18,4.72356 -5.5,1.60082 -11.5,3.22906 -13.33333,3.6183 -1.83333,0.38925 -3.93333,1.15936 -4.66667,1.71137 -0.73333,0.55201 -4.01026,1.44568 -7.28205,1.98592 -3.2718,0.54025 -6.8718,1.47801 -8,2.08393 -1.8136,0.974 -8.49635,2.81204 -24.05128,6.61511 -2.56667,0.62753 -8.56667,2.10663 -13.33334,3.28687 -14.7536,3.65305 -19.06092,4.62365 -27.33333,6.1592 -4.4,0.81674 -8.57,2.01504 -9.26667,2.66289 -1.81266,1.68565 -100.73333,1.53303 -100.73333,-0.15543 z m 63.41445,-19 c -0.50537,-2.38333 -1.49821,-10.93333 -2.20629,-19 -2.35619,-26.84221 -4.5559,-43.43476 -8.71375,-65.72842 -1.1904,-6.3827 -2.42583,-13.70491 -2.7454,-16.27158 -0.31957,-2.56666 -1.08272,-5.86666 -1.69588,-7.33333 -0.61316,-1.46667 -3.01891,-11.06667 -5.34611,-21.33333 -2.32718,-10.26667 -4.74877,-20.76667 -5.38129,-23.33334 -6.10109,-24.75742 -8.66708,-41.27216 -10.66913,-68.66666 -0.8039,-11 -1.99779,-23.9 -2.65308,-28.66667 -0.6553,-4.76667 -1.86302,-14.66667 -2.68382,-22 -0.8208,-7.33333 -1.81192,-15.85811 -2.2025,-18.94395 l -0.71014,-5.61062 -4.14726,2.94396 c -6.6845,4.74502 -9.68392,8.06593 -13.56696,15.0211 -4.4404,7.95352 -5.84359,22.40727 -3.358,34.58951 2.33628,11.45044 3.71464,19.426 6.10642,35.33333 1.15775,7.7 2.61431,17 3.23682,20.66667 3.39829,20.01684 5.9382,42.02281 8.77182,76 4.00239,47.99168 4.4957,53.36332 5.75506,62.66667 1.92444,14.21657 5.45648,46.29546 5.45925,49.58218 0.003,3.49995 2.18327,3.8956 23.16912,4.20443 l 14.5,0.21339 z m 35.25222,-0.95989 c 27.39698,-4.99228 43.91673,-8.6296 48.66666,-10.71541 1.46667,-0.64406 7.46667,-2.38332 13.33334,-3.86504 24.34969,-6.1499 28.09411,-7.16167 30.04376,-8.11804 1.12408,-0.55139 4.12408,-1.42807 6.66667,-1.94818 4.88324,-0.99889 12.17134,-3.0897 16.6229,-4.76877 3.16811,-1.19497 23.25312,-5.89444 42.66667,-9.98309 2.2,-0.46335 5.2,-1.35206 6.66667,-1.97491 1.46667,-0.62285 4.46667,-1.5032 6.66667,-1.95633 3.98632,-0.82104 6.30357,-1.34499 24,-5.42663 5.13333,-1.18399 10.83333,-2.45237 12.66666,-2.81864 1.83334,-0.36627 4.53334,-1.15537 6,-1.75359 4.54731,-1.85472 16.87688,-5.37814 18.81978,-5.37814 1.0158,0 1.84689,-1.31388 1.84689,-2.91974 0,-4.53496 -2.80095,-18.30914 -5.37115,-26.4136 -2.69532,-8.49898 -4.78829,-16.59445 -6.72196,-26 -0.75382,-3.66666 -1.97884,-9.06666 -2.72226,-12 -6.36935,-25.13184 -7.79211,-45.40885 -7.82292,-111.49201 -0.0335,-71.67785 -0.73699,-78.64391 -10.0163,-99.17465 -3.44626,-7.62496 -8.99518,-13.69398 -13.57034,-14.84227 -1.98979,-0.4994 -5.69975,0.45672 -10.12451,2.60927 -3.84115,1.86862 -12.98389,5.26678 -20.31723,7.55146 -7.33333,2.2847 -14.53333,4.65642 -16,5.2705 -1.46667,0.61409 -6.56667,2.16717 -11.33333,3.45129 -4.76667,1.28412 -11.36667,3.20256 -14.66667,4.2632 -3.3,1.06064 -8.7,2.44584 -12,3.0782 -3.3,0.63236 -8.7,1.79175 -12,2.57641 -27.41683,6.51912 -56.9087,11.10231 -104,16.16218 -35.78414,3.84493 -46.12981,5.47622 -48.26381,7.61022 -1.0668,1.0668 -0.85454,5.78351 0.77839,17.29735 2.50145,17.63771 4.36665,35.04053 6.10613,56.97219 1.71212,21.58668 5.05727,46.91849 7.35954,55.73172 1.11085,4.25244 2.01974,8.91058 2.01974,10.35142 0,1.44084 0.54562,3.66156 1.21247,4.93495 1.04268,1.99103 4.14597,13.85159 8.10636,30.98191 2.38552,10.31836 4.29124,19.91732 6.22074,31.33333 1.1155,6.6 2.52409,14.7 3.1302,18 4.7916,26.08839 6.12125,36.81285 7.49856,60.4806 l 0.92026,15.81393 5.45571,-0.91389 c 3.00064,-0.50264 8.15571,-1.40588 11.45571,-2.0072 z m -1.33334,-37.23079 c 0,-4.56913 0.5993,-6.75398 2,-7.29149 1.1,-0.42211 2,-1.67025 2,-2.77364 0,-1.74579 3.27132,-9.91537 6.81498,-17.01929 0.62418,-1.2513 1.52498,-4.7146 2.00176,-7.69622 0.47678,-2.98161 1.38806,-5.74322 2.02506,-6.13692 0.63702,-0.39369 1.1582,-1.86214 1.1582,-3.26322 0,-1.40108 1.0778,-4.51567 2.39512,-6.92131 1.31732,-2.40564 3.18763,-7.07389 4.15623,-10.37389 4.12597,-14.05698 6.21025,-19.45148 8.24257,-21.33334 1.18796,-1.1 5.96066,-5.3 10.60599,-9.33333 4.64533,-4.03333 11.78071,-10.3928 15.85641,-14.13215 4.0757,-3.73934 11.91035,-10.59752 17.41035,-15.24038 5.5,-4.64287 13.00755,-11.1834 16.68343,-14.53452 3.67588,-3.35112 11.76833,-10.59295 17.98324,-16.09295 6.21491,-5.5 14.36533,-12.85 18.11208,-16.33333 3.74673,-3.48334 7.50428,-6.33334 8.35008,-6.33334 0.84581,0 1.53784,-0.9 1.53784,-2 0,-1.62092 2.14815,-2 11.33333,-2 8.16522,0 11.33993,0.4659 11.3569,1.66667 0.0133,0.91667 2.97803,3.06349 6.58907,4.77072 7.86432,3.71812 26.7207,23.05248 26.7207,27.39804 0,0.99272 1.2,3.33051 2.66667,5.19507 3.6436,4.63208 3.84665,25.47608 0.28897,29.66393 -1.25893,1.48195 -19.08897,17.63708 -39.6223,35.90031 -20.53334,18.26321 -40.06759,35.65072 -43.40946,38.63889 -3.34187,2.98817 -9.27649,8.13304 -13.18804,11.43304 -3.91155,3.3 -8.14319,7.07287 -9.40364,8.38413 -1.26045,1.31128 -5.52584,2.98736 -9.47864,3.72464 -3.95279,0.73727 -9.58689,1.8872 -12.52023,2.55542 -2.93333,0.66821 -9.53333,2.11077 -14.66667,3.20569 -5.13333,1.09492 -12.03333,2.64159 -15.33333,3.43704 -3.3,0.79544 -8.56377,1.80637 -11.69728,2.24652 -3.13351,0.44015 -6.01891,1.32068 -6.41203,1.95675 -0.3931,0.63606 -2.79816,1.15648 -5.34456,1.15648 -2.88541,0 -4.91898,0.75356 -5.39729,2 -0.47355,1.23401 -2.50013,2 -5.29149,2 h -4.52402 z m 54.66667,-23.38086 c 4.76667,-1.09508 10.46667,-2.35088 12.66667,-2.79066 2.2,-0.43978 5.35805,-1.07665 7.01789,-1.41526 2.52815,-0.51575 2.87888,-1.20584 2.1612,-4.25243 -0.4712,-2.00023 -1.37925,-4.20677 -2.0179,-4.90344 -0.63866,-0.69667 -1.16119,-6.16452 -1.16119,-12.15079 v -10.88412 l -8.40532,-0.67469 c -4.62292,-0.37109 -9.57292,-1.26756 -11,-1.99216 -1.42707,-0.72461 -4.58623,-2.3616 -7.02032,-3.63776 -2.43411,-1.27617 -4.57266,-2.11184 -4.75231,-1.85705 -0.17967,0.25478 -1.09661,3.16324 -2.03764,6.46324 -0.94104,3.3 -2.25251,7.04185 -2.91436,8.31524 -0.66187,1.27338 -1.20339,3.23152 -1.20339,4.35142 0,1.11991 -0.54597,3.07804 -1.21328,4.35143 -0.6673,1.27339 -2.49676,5.61524 -4.06544,9.64857 l -2.85216,7.33334 2.73211,2.21372 c 1.50265,1.21754 2.73211,2.94389 2.73211,3.8363 0,1.88692 7.6702,1.18406 21.33333,-1.9549 z m 29.2497,-51.23502 c 3.31305,-2.67305 7.86505,-6.6601 10.11556,-8.8601 2.2505,-2.2 7.26664,-6.7 11.14696,-10 3.88032,-3.3 9.29306,-8.1 12.0283,-10.66667 2.73526,-2.56667 8.21354,-7.5936 12.17398,-11.17096 l 7.2008,-6.50431 -5.29098,-4.47586 c -2.91004,-2.46172 -6.30557,-4.48479 -7.54562,-4.4957 -1.24006,-0.0107 -2.62547,-0.61984 -3.0787,-1.35317 -0.45322,-0.73333 -2.37209,-1.33333 -4.26414,-1.33333 -3.68308,0 -6.9395,2.6336 -40.40252,32.67538 -10.63334,9.54619 -21.54793,19.25006 -24.25463,21.56415 l -4.9213,4.20745 5.90676,2.77651 c 3.24872,1.52708 7.26331,2.78569 8.9213,2.79692 1.658,0.0107 3.8386,0.54241 4.84579,1.18041 2.91881,1.8489 10.84352,-1.03588 17.41844,-6.34072 z m 82.97865,-30.40009 c 3.3469,-3.02889 3.13434,-10.95607 -0.49404,-18.42435 -1.61278,-3.31961 -3.41278,-6.03566 -4,-6.03566 -0.5872,0 -1.0876,-0.75 -1.112,-1.66667 -0.0723,-2.71456 -4.38872,-7.11899 -12.64457,-12.90223 -8.76375,-6.13902 -14.8676,-7.02228 -20.09778,-2.90822 l -3.2073,2.52286 3.2371,0.81247 c 1.7804,0.44685 4.02906,1.56156 4.997,2.47712 0.96795,0.91557 4.15991,3.44292 7.09324,5.61633 6.21471,4.60472 6.61467,5.00478 12.33334,12.3364 2.38333,3.05556 4.33333,6.19075 4.33333,6.96708 0,0.77634 0.46902,1.41152 1.04224,1.41152 0.57324,0 1.83947,2.7 2.81384,6 1.98228,6.71355 2.26852,6.90386 5.7056,3.79335 z m 11.61344,-33.09539 c -3.56546,-6.04304 -16.08404,-19.36462 -18.19733,-19.36462 -0.90444,0 -1.64445,-0.6 -1.64445,-1.33334 0,-0.73333 -0.6,-1.33333 -1.33334,-1.33333 -2.52323,0 -1.3262,2.09592 2.4817,4.34531 5.0745,2.99758 12.29522,10.53818 16.28372,17.0051 3.99177,6.47223 6.1938,7.09443 2.4097,0.68088 z m -197.64006,-42.0226 c -1.56877,-7.84389 -1.03425,-12.99308 1.44763,-13.94546 1.27381,-0.48882 8.32381,-1.45632 15.66667,-2.15004 25.89029,-2.44598 75.76248,-8.52247 86.68397,-10.56171 3.66667,-0.68463 10.86667,-1.84145 16,-2.57073 13.56204,-1.9267 17.46506,-2.65222 29.33334,-5.4526 5.86666,-1.38427 14.86666,-3.47874 20,-4.65436 8.961,-2.05224 14.26771,-3.6599 20,-6.05896 1.46667,-0.61383 7.46667,-2.68022 13.33333,-4.59199 5.86667,-1.91177 11.9378,-4.10819 13.49142,-4.88091 5.05758,-2.51552 7.42914,-0.93737 9.30413,6.1914 2.58172,9.81588 2.39648,11.33334 -1.38352,11.33334 -4.36733,0 -5.22896,1.82798 -3.43037,7.27776 1.22162,3.70156 1.10764,5.32658 -0.60611,8.6406 -3.76252,7.2759 -11.65413,4.35537 -13.52637,-5.00586 -0.46706,-2.33521 -0.94498,-4.24584 -1.06206,-4.24584 -0.11706,0 -3.66797,1.21438 -7.89088,2.6986 -4.22289,1.48423 -11.10209,3.63622 -15.28712,4.7822 -4.18501,1.14598 -9.70912,2.65916 -12.27579,3.36262 -8.82789,2.41948 -21.75564,5.10448 -33.86598,7.03372 -6.67371,1.06314 -14.53402,2.33698 -17.46735,2.83076 -13.91009,2.3415 -19.77125,3.23445 -34,5.17992 -8.43334,1.15308 -20.73334,2.69797 -27.33334,3.4331 -6.6,0.73514 -17.1,1.9466 -23.33333,2.69215 -6.23333,0.74553 -16.19255,1.72649 -22.1316,2.17992 l -10.79825,0.8244 z M 277.19,565.9096 c -1.09463,-12.11209 -3.21635,-28.73024 -4.42608,-34.66666 -0.44832,-2.2 -2.02988,-20.5 -3.51459,-40.66667 -2.58985,-35.17797 -3.82393,-48.28133 -6.46705,-68.66667 -4.91727,-37.9251 -9.22838,-64.68276 -10.7411,-66.66666 -0.55916,-0.73334 -1.3558,-2.83334 -1.7703,-4.66667 -1.68018,-7.43131 -3.6568,-15.59079 -4.84496,-20 -0.69164,-2.56667 -1.93331,-7.66667 -2.75924,-11.33333 -1.76571,-7.83866 -2.99466,-12.89102 -6.00001,-24.66667 -4.39116,-17.20561 -4.9871,-19.37423 -6.04566,-22 -0.59128,-1.46667 -1.4783,-5.06667 -1.97115,-8 -0.49285,-2.93333 -1.73527,-10.13333 -2.76092,-16 -2.76233,-15.80041 -4.90075,-48.94939 -4.05463,-62.85316 0.81378,-13.37205 4.24503,-27.47703 9.29487,-38.20869 13.38427,-28.44362 19.99312,-41.66765 21.01455,-42.04926 0.65429,-0.24445 1.18961,-1.02327 1.18961,-1.73072 0,-0.70745 2.06435,-4.513369 4.58744,-8.457599 l 4.58746,-7.171329 -8.25412,5.028231 c -4.53976,2.765528 -12.45411,7.503077 -17.58745,10.527887 -18.65052,10.9898 -42,37.68968 -42,48.02655 0,1.29512 -0.49566,2.92476 -1.10149,3.62142 -0.60583,0.69667 -1.86831,3.96667 -2.80552,7.26667 -0.93721,3.3 -2.22243,7.33629 -2.85604,8.96953 -1.22569,3.15944 -6.55821,25.48687 -9.00332,37.69714 -5.35199,26.72654 -1.24767,74.38466 10.27701,119.33333 2.9579,11.5364 4.13235,16.5918 7.43412,32 1.88572,8.8 4.05906,18.7 4.82964,22 0.77059,3.3 1.9296,8.7 2.57559,12 0.646,3.3 2.01459,10.2 3.04131,15.33333 1.02673,5.13334 2.93446,14.73334 4.23942,21.33334 1.30496,6.6 2.84906,13.2 3.43132,14.66666 0.58228,1.46667 1.40742,4.76667 1.83366,7.33334 0.42624,2.56666 1.67573,9.16666 2.77666,14.66666 2.6556,13.26679 5.23316,28.23494 9.299,54 1.15723,7.33334 2.47866,18.89964 2.9365,25.70291 l 0.83244,12.36959 10.79652,5.33909 c 10.16401,5.02632 19.37256,8.22445 30.12985,10.46411 2.56667,0.53438 4.70131,0.93096 4.74366,0.88129 0.0424,-0.0497 -0.35682,-4.89032 -0.887,-10.75699 z m -70.30363,-61.23096 c -0.72438,-1.52297 -2.0126,-8.16149 -2.86272,-14.75228 -0.85014,-6.59078 -1.758,-12.19557 -2.01752,-12.45508 -0.25951,-0.2595 -1.68635,-0.0864 -3.17078,0.38479 -3.33688,1.05908 -4.63764,4.81264 -4.5457,13.11747 0.0596,5.387 1.09517,7.91377 6.55725,16 l 6.48644,9.60273 0.43504,-4.56429 c 0.23927,-2.51035 -0.15764,-5.81035 -0.88201,-7.33334 z m -108.244735,5.97832 c 0.38044,-0.59345 2.641705,-1.50206 5.025035,-2.01912 C 106.05,508.12078 108,507.14539 108,506.47032 c 0,-0.67505 1.16459,-1.22738 2.58798,-1.22738 1.42339,0 2.91842,-0.53467 3.3223,-1.18816 0.40388,-0.65348 -3.61071,-1.41643 -8.92131,-1.69544 -11.331185,-0.59532 -18.946365,-3.84263 -31.186765,-13.29887 l -8.19779,-6.33315 3.77717,7.59114 c 2.07744,4.17513 4.84369,9.99114 6.1472,12.92448 2.58726,5.82214 4.14277,7.79418 7.16169,9.0794 2.51711,1.07157 15.0344,-0.23528 15.95116,-1.66538 z M 175.22223,368.24294 c 0.55,-0.55 1.55,-1 2.22222,-1 0.67222,0 1.22222,-0.45 1.22222,-1 0,-1.35432 -1.37462,-1.0763 -5.33333,1.07868 -2.16039,1.17604 -2.59047,1.83333 -1.22223,1.86793 1.16112,0.0293 2.56112,-0.39661 3.11112,-0.94661 z m -13.19716,-16.35059 c 6.89042,-4.74072 8.89554,-7.25244 3.66406,-4.58979 -4.4136,2.24639 -12.14454,8.49116 -10.59603,8.5591 0.60121,0.0264 3.7206,-1.75982 6.93197,-3.96931 z m 5.58444,-26.64941 c 1.73478,0 1.44224,-3.94572 -1.0132,-13.66667 -4.73162,-18.73213 -6.5963,-27.55748 -6.5963,-31.21957 0,-3.18374 -6.02108,-17.49712 -8.0404,-19.11376 -1.6448,-1.3168 -12.73717,-24.81882 -15.10319,-32 -1.3289,-4.03334 -2.91514,-8.53334 -3.525,-10 -0.60986,-1.46667 -1.49942,-4.16667 -1.97681,-6 -0.47738,-1.83334 -1.46237,-5.43334 -2.18887,-8 -0.72649,-2.56667 -2.23934,-8.86667 -3.36188,-14 -1.12254,-5.13334 -2.62044,-11.73334 -3.32866,-14.66667 -6.43246,-26.64213 -7.4381,-42.50345 -3.52978,-55.67329 0.81718,-2.75364 1.17695,-5.31546 0.79948,-5.69293 -0.81563,-0.81562 -17.12221,2.83485 -21.413965,4.79385 -3.20002,1.46066 -8.9976,9.37776 -8.9976,12.28701 0,0.96361 -0.54389,2.32203 -1.20864,3.01869 -5.07241,5.31595 -5.17118,54.39858 -0.14677,72.93334 3.76882,13.90294 4.57177,16.43224 5.58725,17.6 0.60582,0.69666 1.10149,2.04961 1.10149,3.00653 0,0.95693 1.415,4.58693 3.14445,8.06667 4.841285,9.74094 6.192905,12.04364 16.627035,28.3268 2.58453,4.03333 7.47483,12.73333 10.86735,19.33333 7.49698,14.58509 9.34938,17.75959 12.36117,21.18352 1.28333,1.45896 2.33333,3.2156 2.33333,3.90365 0,0.68804 3.75001,5.8791 8.33334,11.53566 l 8.33333,10.28466 4.64284,-3.12041 c 2.55358,-1.71623 5.38858,-3.12041 6.3,-3.12041 z m 98.18538,-50.42927 c 5.79792,-6.03257 18.71069,-13.9002 25.53845,-15.56032 9.48584,-2.30643 31.96763,-5.35992 69.33334,-9.41692 17.6,-1.91093 35.3,-3.96543 39.33333,-4.56555 21.9292,-3.26288 49.14795,-8.42668 56.76134,-10.76848 2.25207,-0.6927 5.20947,-1.25946 6.572,-1.25946 1.36253,0 4.31993,-0.58043 6.572,-1.28984 2.25207,-0.7094 7.69467,-2.27098 12.09467,-3.47015 4.4,-1.19917 9.5,-2.64916 11.33333,-3.22219 1.83333,-0.57304 6.03333,-1.77352 9.33333,-2.66773 6.84962,-1.85608 16.73992,-5.03968 20.66667,-6.65243 1.46667,-0.60236 4.61667,-1.82856 7,-2.72486 5.51312,-2.07335 5.51959,-2.49563 0.23447,-15.30614 -4.31193,-10.45161 -7.93791,-27.45792 -10.66067,-50 -3.43156,-28.41023 -6.03889,-35.29117 -17.84679,-47.09906 -7.538,-7.538013 -20.63012,-14.890253 -33.39368,-18.753158 -12.69712,-3.842795 -41.0422,-9.263418 -74.66667,-14.279011 -5.13333,-0.765713 -12.93333,-2.012964 -17.33333,-2.771668 -11.79724,-2.034229 -54.03216,-2.9316 -55.77863,-1.185136 -0.78176,0.781753 -3.24303,1.421371 -5.46949,1.421371 -3.41799,0 -6.66476,2.646228 -20.85807,17 -9.24547,9.35 -19.05536,20.542242 -21.79976,24.871642 -4.82997,7.61945 -20.76072,38.23356 -20.76072,39.89586 0,0.45107 -1.47697,4.04914 -3.28217,7.99571 -7.63616,16.69435 -8.0524,18.88349 -8.0309,42.23679 0.0191,20.64921 2.12059,44.93534 4.6728,54 2.03846,7.23986 3.84442,14.52428 6.1154,24.66666 1.23152,5.5 2.47922,10.86631 2.77267,11.92514 0.34663,1.25069 1.49261,0.31645 3.27108,-2.66667 1.50565,-2.52549 5.22985,-7.18497 8.276,-10.3544 z M 158.51293,220.9096 c 0.10453,-4.58333 0.81202,-11.63333 1.57226,-15.66666 0.76026,-4.03334 1.69299,-9.13334 2.07274,-11.33334 0.37974,-2.2 1.18421,-5.2 1.78769,-6.66666 4.64747,-11.295 5.79608,-22.09954 2.56185,-24.09839 -0.64577,-0.39912 -1.17413,-1.89839 -1.17413,-3.33173 0,-1.43334 -0.55015,-3.64792 -1.22255,-4.92131 -2.05044,-3.88311 -5.61581,-17.15851 -7.3122,-27.22639 -1.59006,-9.43689 -1.66136,-9.55506 -6.84702,-11.35038 -7.33501,-2.53945 -8.7389,-1.90138 -10.84302,4.9282 -2.13756,6.9381 -2.49929,28.93553 -0.61651,37.48993 0.70738,3.21387 2.30075,10.9434 3.54086,17.17673 1.24009,6.23334 2.72043,12.83334 3.28961,14.66667 0.56919,1.83333 1.79099,6.03333 2.7151,9.33333 0.9241,3.3 2.40908,8.4 3.29993,11.33334 0.89085,2.93333 2.43533,8.18333 3.43219,11.66666 0.99685,3.48334 2.20412,6.33334 2.68282,6.33334 0.47871,0 0.95587,-3.75 1.06038,-8.33334 z m 24.18154,-89.66666 c 0.5744,-0.76354 -0.92661,-2.25843 -3.51237,-3.49805 -2.48348,-1.19059 -4.51543,-1.96882 -4.51543,-1.7294 0,0.23942 0.55848,1.81354 1.24106,3.49805 0.68258,1.6845 1.65656,4.86273 2.1644,7.06273 l 0.92333,4 1.34797,-4 c 0.74138,-2.2 1.79935,-4.6 2.35104,-5.33333 z m 20.43942,-24.46512 7.71708,-7.798439 -7.78592,-2.18462 c -23.83355,-6.68735 -32.42719,-7.342334 -45.14328,-3.440697 l -9.89271,3.035347 9.45959,2.40229 c 5.20277,1.321259 15.54622,5.387379 22.98546,9.035819 7.43924,3.64845 13.84468,6.65946 14.2343,6.69114 0.38962,0.0317 4.18109,-3.45169 8.42548,-7.74084 z m 34.86886,-25.053766 c 1.77159,-0.679822 1.86109,-1.080275 0.44239,-1.979584 -2.6282,-1.666014 -3.77847,-1.412792 -3.77847,0.831801 0,2.257873 0.2337,2.338277 3.33608,1.147783 z m -21.33361,-7.290948 c 0.78993,-3.201339 0.45443,-3.543156 -4.23899,-4.31866 -8.36017,-1.381372 -12.74562,-0.999307 -15.32516,1.335142 -3.38969,3.06763 -3.0797,3.742686 1.89768,4.132606 2.38187,0.186592 6.73067,1.190053 9.664,2.229916 5.88219,2.085229 6.74395,1.721357 8.00247,-3.379004 z m 47.83403,-8.349328 c 4.80789,-2.187223 4.99457,-2.473971 2.66667,-4.095898 -3.63379,-2.531762 -12.67246,-3.749562 -19.84574,-2.673862 l -6.23188,0.934528 8.4539,4.421754 c 4.64964,2.431966 8.75389,4.274064 9.12056,4.093554 0.36666,-0.180511 2.99309,-1.386546 5.83649,-2.680076 z"
     style="fill:#ffffff;stroke-width:1.33333337" />
</svg>
